<svg width="120" height="120" viewBox="0 0 120 120" fill="none" xmlns="http://www.w3.org/2000/svg">
<g clip-path="url(#clip0_25_19801)">
<rect width="120" height="384.371" transform="translate(0 -50.4)" fill="#EAEAEA"/>
<mask id="path-1-outside-1_25_19801" maskUnits="userSpaceOnUse" x="-2" y="-52.4" width="124" height="388" fill="black">
<rect fill="white" x="-2" y="-52.4" width="124" height="388"/>
<path d="M119.842 160.915C119.317 164.462 116.742 170.692 114.213 172.843C111.972 174.751 107.338 177.763 105.014 177.896C104.842 177.904 104.274 176.18 104.824 175.028C105.698 173.206 108.648 171.849 109.458 170.463C110.481 168.711 110.437 164.958 110.771 162.267C110.836 161.73 108.954 159.026 108.769 159.026C108.579 159.026 107.497 160.054 107.392 160.848C107.209 162.223 107.314 163.745 107.207 165.105C107.063 166.881 105.978 169.795 104.325 170.463C103.708 170.713 102.95 170.263 102.637 169.649C102.323 169.037 103.012 166.457 102.763 165.578C102.513 164.696 102.786 163.023 102.953 162.265C103.392 160.234 102.799 157.638 103.079 155.466C103.369 153.202 104.541 150.462 105.641 148.447C107.551 144.954 107.422 141.783 106.692 136.887C106.101 132.898 102.675 123.92 101.652 118.741H101.668C100.172 109.776 98.82 100.652 97.7585 91.6694C97.6043 90.3766 97.1982 87.7293 96.7099 84.7299C96.6482 84.3469 96.5839 83.9562 96.5197 83.5656C96.4554 83.1672 96.3861 82.7637 96.3218 82.3602C96.2499 81.9412 96.1804 81.5171 96.1085 81.0956C96.0365 80.6484 95.9594 80.2063 95.8874 79.7668C95.8078 79.2914 95.7255 78.821 95.6459 78.3558C95.5585 77.8392 95.4737 77.3355 95.3888 76.8446C95.3888 76.8394 95.3888 76.8394 95.3888 76.8394C95.2809 76.22 95.1781 75.6314 95.0778 75.0711C94.9699 74.4337 94.8645 73.8452 94.7668 73.3131C94.6229 72.5035 94.497 71.8301 94.3993 71.3495C94.3479 71.0591 94.3016 70.8406 94.2708 70.7044C94.2939 70.8766 94.3119 71.0591 94.3299 71.2493V71.2544C94.371 71.7248 94.3942 72.2491 94.3993 72.8222C94.407 73.2566 94.4045 73.7166 94.3916 74.1998C94.3788 74.6393 94.3633 75.0943 94.3402 75.5672C94.3196 75.963 94.2965 76.3742 94.2682 76.788C94.2451 77.1632 94.2117 77.5462 94.1808 77.9369C94.1526 78.2993 94.1192 78.6668 94.0883 79.0421C94.0549 79.3916 94.0189 79.7514 93.9829 80.1087C93.9469 80.4505 93.911 80.7975 93.875 81.1445C93.839 81.4786 93.7979 81.8127 93.7619 82.152C93.3635 85.5523 92.8341 89.1146 92.32 92.2142C91.5695 96.7429 92.1016 108.052 93.7182 117.79C95.3374 127.585 100.483 132.792 100.879 150.871C101.154 163.645 100.46 176.814 99.2955 189.629C98.4216 199.257 96.584 208.908 94.5535 218.261C93.7876 221.79 94.1346 225.728 94.2759 229.344C94.4044 232.672 93.929 236.09 94.1346 239.357C94.5407 245.777 96.8615 250.419 96.823 258.759C96.7587 272.824 92.5796 292.398 92.5796 292.398C91.6723 298.245 91.9114 304.301 91.9988 310.197C92.0193 311.474 92.0193 312.674 92.2404 313.774C93.5794 320.354 95.2937 320.223 98.0824 322.042C101.041 323.978 104.384 326.689 109.658 327.81C111.632 328.234 113.37 331.719 109.132 332.254C106.926 332.531 89.1279 333.971 83.9772 333.971C81.6486 333.971 78.8831 333.423 77.9861 331.393C77.012 329.188 77.1123 326.062 77.8139 322.027C78.2046 319.776 77.4644 317.388 77.3718 315.003C77.2793 312.605 77.8345 310.204 77.6057 307.93C76.3772 295.775 72.8586 279.326 72.5168 267.508C72.3908 263.208 72.4654 258.898 72.9511 254.593C73.2159 252.265 73.7684 249.81 73.4909 247.517C72.7095 241.069 68.9828 234.8 68.0704 228.264C67.1914 221.934 68.3531 215.429 67.7722 209.042C67.1117 201.717 65.9628 194.366 64.8114 187.08C64.1354 182.836 63.4415 178.585 62.4776 174.393C62.1461 172.951 61.6912 169.078 60.6682 168.24C60.6194 168.199 60.3058 168.338 60.0026 168.34C59.7173 168.346 59.4345 168.225 59.3909 168.263C58.3962 169.142 57.931 172.969 57.6046 174.393C56.6408 178.585 55.9442 182.839 55.2709 187.08C54.1143 194.366 52.9423 201.748 52.31 209.042C51.7548 215.406 52.8909 221.934 52.0067 228.264C51.0969 234.8 47.365 241.071 46.5862 247.517C46.3086 249.81 46.8638 252.272 47.126 254.593C47.6143 258.896 47.7556 263.208 47.5654 267.508H47.4858C47.1362 279.457 43.9466 296.14 42.7541 308.333C42.5433 310.456 43.3092 313.096 43.2784 314.903C43.2424 316.833 42.7155 318.74 43.2861 322.032C43.9878 326.062 44.088 329.188 43.1088 331.393C42.2092 333.423 39.4488 333.971 37.1177 333.971C31.967 333.971 14.1736 332.531 11.9684 332.254C7.72505 331.717 9.46507 328.232 11.4415 327.81C16.713 326.689 20.211 324.51 23.1847 322.6C26.3563 320.562 28.8468 319.657 28.8468 313.772C28.8468 311.79 28.0526 299.039 27.0246 292.398L26.2921 288.268C24.7757 278.388 23.4032 268.405 23.2567 258.759C23.159 252.244 25.5416 245.772 25.9451 239.357C26.1507 236.088 25.6598 232.68 25.8037 229.344C25.9605 225.712 26.2946 221.793 25.5261 218.261C23.4957 208.913 21.6606 199.252 20.7841 189.629C19.6199 176.822 18.4916 163.637 19.2035 150.871C20.0979 134.846 24.8039 127.629 26.364 117.79C27.9164 107.998 28.9059 96.5501 27.7571 92.2142C26.0325 85.6988 24.3387 75.4515 24.3875 72.0537C24.4441 71.6348 24.5032 71.2647 24.5597 70.9666C24.4467 71.1002 24.3901 71.4857 24.3875 72.0537C23.7116 76.7674 22.8352 88.2896 22.4214 91.6694C21.3162 100.575 20.0568 110.971 18.5173 118.741C17.4583 124.092 14.3587 132.6 13.3075 136.887C12.3694 140.698 12.5287 145.998 14.3587 148.447C15.7337 150.29 16.6307 153.202 16.9212 155.466C17.1987 157.638 16.6076 160.234 17.0471 162.265C17.2116 163.023 17.4866 164.693 17.2373 165.578C16.988 166.457 17.6768 169.034 17.3632 169.649C17.0497 170.26 16.2915 170.713 15.6746 170.463C14.022 169.795 12.9374 166.881 12.7935 165.105C12.6881 163.748 12.7883 162.223 12.6084 160.848C12.503 160.054 11.4184 159.026 11.2308 159.026C11.0457 159.026 9.16436 161.73 9.22862 162.267C9.56274 164.958 9.51905 168.711 10.5471 170.463C11.3542 171.849 14.3022 173.208 15.176 175.028C15.7286 176.18 15.1632 177.904 14.9858 177.896C12.6598 177.763 8.02577 174.751 5.78714 172.843C3.25551 170.692 0.682751 164.462 0.158434 160.915C-0.543226 156.155 1.31503 150.372 1.28162 145.453C1.27391 143.741 0.847257 141.875 0.847257 140.158C0.847257 138.447 1.47951 128.605 1.62087 123.419C1.82134 116.094 1.30731 107.828 2.52043 100.513C3.09358 97.077 4.47891 93.5893 5.13945 90.1684C7.12106 79.9416 6.10584 54.191 6.12383 43.589C6.12897 36.5826 7.41406 28.4891 11.3593 22.5623C14.1197 18.4089 19.3063 15.9544 24.1177 14.898C27.9575 13.8108 31.7742 12.6414 35.5627 11.3794C38.8063 10.2948 45.9077 8.97889 47.2056 6.1337C48.5241 3.21911 48.1694 -0.250633 48.0923 -3.90029C45.7663 -6.65295 45.3191 -9.91195 44.5789 -12.4873C42.4791 -12.6415 42.9031 -16.2706 42.5998 -17.1933C42.2966 -18.1211 40.6054 -23.4799 41.1503 -24.2279C41.6952 -24.9784 42.3274 -24.251 42.3274 -24.251C42.3274 -24.251 41.1631 -34.0742 43.394 -39.7929C45.1392 -44.2624 50.5314 -50.4 60.2339 -50.4H60.2544C69.9569 -50.4 75.3491 -44.2624 77.0943 -39.7929C79.3278 -34.0742 78.166 -24.251 78.166 -24.251C78.166 -24.251 78.7957 -24.9758 79.338 -24.2279C79.8829 -23.4774 78.1892 -18.1185 77.891 -17.1933C77.5877 -16.2706 78.0118 -12.6389 75.9094 -12.4873C75.2643 -10.2435 73.9227 -7.47028 72.0439 -4.9772C71.9436 -0.972855 71.3576 2.9441 72.7841 6.1337C74.0897 9.02773 81.0601 10.3128 84.3422 11.3794C88.2231 12.6414 92.1427 13.8083 96.0802 14.898C100.892 15.9544 106.081 18.4089 108.841 22.5623C112.781 28.4891 114.069 36.5826 114.077 43.589C114.077 44.4397 114.071 45.3855 114.061 46.4136C114.038 48.6754 113.992 51.3252 113.953 54.2038C113.953 54.2167 113.948 54.2244 113.948 54.2347C113.92 56.134 113.892 58.1285 113.871 60.1743V60.1821C113.856 61.5211 113.843 62.8782 113.838 64.2481C113.838 64.2532 113.832 64.2609 113.832 64.2635C113.827 65.2916 113.825 66.3222 113.825 67.3503C113.825 68.1882 113.83 69.026 113.832 69.8614C113.838 70.5707 113.84 71.275 113.848 71.9766C113.856 72.5883 113.863 73.1975 113.876 73.8015V73.8066C113.884 74.354 113.897 74.8938 113.912 75.4335V75.4387C113.92 75.9296 113.933 76.4179 113.948 76.9011C113.961 77.3612 113.976 77.8109 113.992 78.2581V78.2633C114.007 78.6822 114.025 79.0986 114.041 79.5098C114.223 83.7609 114.537 87.4954 115.056 90.1735C115.716 93.5944 117.099 97.0796 117.672 100.518C118.888 107.833 118.395 115.883 118.572 123.424H118.559C118.695 128.384 119.24 135.627 119.163 140.164C119.042 141.88 118.736 143.746 118.729 145.458C118.685 150.375 120.543 156.158 119.842 160.915Z"/>
</mask>
<path d="M119.842 160.915C119.317 164.462 116.742 170.692 114.213 172.843C111.972 174.751 107.338 177.763 105.014 177.896C104.842 177.904 104.274 176.18 104.824 175.028C105.698 173.206 108.648 171.849 109.458 170.463C110.481 168.711 110.437 164.958 110.771 162.267C110.836 161.73 108.954 159.026 108.769 159.026C108.579 159.026 107.497 160.054 107.392 160.848C107.209 162.223 107.314 163.745 107.207 165.105C107.063 166.881 105.978 169.795 104.325 170.463C103.708 170.713 102.95 170.263 102.637 169.649C102.323 169.037 103.012 166.457 102.763 165.578C102.513 164.696 102.786 163.023 102.953 162.265C103.392 160.234 102.799 157.638 103.079 155.466C103.369 153.202 104.541 150.462 105.641 148.447C107.551 144.954 107.422 141.783 106.692 136.887C106.101 132.898 102.675 123.92 101.652 118.741H101.668C100.172 109.776 98.82 100.652 97.7585 91.6694C97.6043 90.3766 97.1982 87.7293 96.7099 84.7299C96.6482 84.3469 96.5839 83.9562 96.5197 83.5656C96.4554 83.1672 96.3861 82.7637 96.3218 82.3602C96.2499 81.9412 96.1804 81.5171 96.1085 81.0956C96.0365 80.6484 95.9594 80.2063 95.8874 79.7668C95.8078 79.2914 95.7255 78.821 95.6459 78.3558C95.5585 77.8392 95.4737 77.3355 95.3888 76.8446C95.3888 76.8394 95.3888 76.8394 95.3888 76.8394C95.2809 76.22 95.1781 75.6314 95.0778 75.0711C94.9699 74.4337 94.8645 73.8452 94.7668 73.3131C94.6229 72.5035 94.497 71.8301 94.3993 71.3495C94.3479 71.0591 94.3016 70.8406 94.2708 70.7044C94.2939 70.8766 94.3119 71.0591 94.3299 71.2493V71.2544C94.371 71.7248 94.3942 72.2491 94.3993 72.8222C94.407 73.2566 94.4045 73.7166 94.3916 74.1998C94.3788 74.6393 94.3633 75.0943 94.3402 75.5672C94.3196 75.963 94.2965 76.3742 94.2682 76.788C94.2451 77.1632 94.2117 77.5462 94.1808 77.9369C94.1526 78.2993 94.1192 78.6668 94.0883 79.0421C94.0549 79.3916 94.0189 79.7514 93.9829 80.1087C93.9469 80.4505 93.911 80.7975 93.875 81.1445C93.839 81.4786 93.7979 81.8127 93.7619 82.152C93.3635 85.5523 92.8341 89.1146 92.32 92.2142C91.5695 96.7429 92.1016 108.052 93.7182 117.79C95.3374 127.585 100.483 132.792 100.879 150.871C101.154 163.645 100.46 176.814 99.2955 189.629C98.4216 199.257 96.584 208.908 94.5535 218.261C93.7876 221.79 94.1346 225.728 94.2759 229.344C94.4044 232.672 93.929 236.09 94.1346 239.357C94.5407 245.777 96.8615 250.419 96.823 258.759C96.7587 272.824 92.5796 292.398 92.5796 292.398C91.6723 298.245 91.9114 304.301 91.9988 310.197C92.0193 311.474 92.0193 312.674 92.2404 313.774C93.5794 320.354 95.2937 320.223 98.0824 322.042C101.041 323.978 104.384 326.689 109.658 327.81C111.632 328.234 113.37 331.719 109.132 332.254C106.926 332.531 89.1279 333.971 83.9772 333.971C81.6486 333.971 78.8831 333.423 77.9861 331.393C77.012 329.188 77.1123 326.062 77.8139 322.027C78.2046 319.776 77.4644 317.388 77.3718 315.003C77.2793 312.605 77.8345 310.204 77.6057 307.93C76.3772 295.775 72.8586 279.326 72.5168 267.508C72.3908 263.208 72.4654 258.898 72.9511 254.593C73.2159 252.265 73.7684 249.81 73.4909 247.517C72.7095 241.069 68.9828 234.8 68.0704 228.264C67.1914 221.934 68.3531 215.429 67.7722 209.042C67.1117 201.717 65.9628 194.366 64.8114 187.08C64.1354 182.836 63.4415 178.585 62.4776 174.393C62.1461 172.951 61.6912 169.078 60.6682 168.24C60.6194 168.199 60.3058 168.338 60.0026 168.34C59.7173 168.346 59.4345 168.225 59.3909 168.263C58.3962 169.142 57.931 172.969 57.6046 174.393C56.6408 178.585 55.9442 182.839 55.2709 187.08C54.1143 194.366 52.9423 201.748 52.31 209.042C51.7548 215.406 52.8909 221.934 52.0067 228.264C51.0969 234.8 47.365 241.071 46.5862 247.517C46.3086 249.81 46.8638 252.272 47.126 254.593C47.6143 258.896 47.7556 263.208 47.5654 267.508H47.4858C47.1362 279.457 43.9466 296.14 42.7541 308.333C42.5433 310.456 43.3092 313.096 43.2784 314.903C43.2424 316.833 42.7155 318.74 43.2861 322.032C43.9878 326.062 44.088 329.188 43.1088 331.393C42.2092 333.423 39.4488 333.971 37.1177 333.971C31.967 333.971 14.1736 332.531 11.9684 332.254C7.72505 331.717 9.46507 328.232 11.4415 327.81C16.713 326.689 20.211 324.51 23.1847 322.6C26.3563 320.562 28.8468 319.657 28.8468 313.772C28.8468 311.79 28.0526 299.039 27.0246 292.398L26.2921 288.268C24.7757 278.388 23.4032 268.405 23.2567 258.759C23.159 252.244 25.5416 245.772 25.9451 239.357C26.1507 236.088 25.6598 232.68 25.8037 229.344C25.9605 225.712 26.2946 221.793 25.5261 218.261C23.4957 208.913 21.6606 199.252 20.7841 189.629C19.6199 176.822 18.4916 163.637 19.2035 150.871C20.0979 134.846 24.8039 127.629 26.364 117.79C27.9164 107.998 28.9059 96.5501 27.7571 92.2142C26.0325 85.6988 24.3387 75.4515 24.3875 72.0537C24.4441 71.6348 24.5032 71.2647 24.5597 70.9666C24.4467 71.1002 24.3901 71.4857 24.3875 72.0537C23.7116 76.7674 22.8352 88.2896 22.4214 91.6694C21.3162 100.575 20.0568 110.971 18.5173 118.741C17.4583 124.092 14.3587 132.6 13.3075 136.887C12.3694 140.698 12.5287 145.998 14.3587 148.447C15.7337 150.29 16.6307 153.202 16.9212 155.466C17.1987 157.638 16.6076 160.234 17.0471 162.265C17.2116 163.023 17.4866 164.693 17.2373 165.578C16.988 166.457 17.6768 169.034 17.3632 169.649C17.0497 170.26 16.2915 170.713 15.6746 170.463C14.022 169.795 12.9374 166.881 12.7935 165.105C12.6881 163.748 12.7883 162.223 12.6084 160.848C12.503 160.054 11.4184 159.026 11.2308 159.026C11.0457 159.026 9.16436 161.73 9.22862 162.267C9.56274 164.958 9.51905 168.711 10.5471 170.463C11.3542 171.849 14.3022 173.208 15.176 175.028C15.7286 176.18 15.1632 177.904 14.9858 177.896C12.6598 177.763 8.02577 174.751 5.78714 172.843C3.25551 170.692 0.682751 164.462 0.158434 160.915C-0.543226 156.155 1.31503 150.372 1.28162 145.453C1.27391 143.741 0.847257 141.875 0.847257 140.158C0.847257 138.447 1.47951 128.605 1.62087 123.419C1.82134 116.094 1.30731 107.828 2.52043 100.513C3.09358 97.077 4.47891 93.5893 5.13945 90.1684C7.12106 79.9416 6.10584 54.191 6.12383 43.589C6.12897 36.5826 7.41406 28.4891 11.3593 22.5623C14.1197 18.4089 19.3063 15.9544 24.1177 14.898C27.9575 13.8108 31.7742 12.6414 35.5627 11.3794C38.8063 10.2948 45.9077 8.97889 47.2056 6.1337C48.5241 3.21911 48.1694 -0.250633 48.0923 -3.90029C45.7663 -6.65295 45.3191 -9.91195 44.5789 -12.4873C42.4791 -12.6415 42.9031 -16.2706 42.5998 -17.1933C42.2966 -18.1211 40.6054 -23.4799 41.1503 -24.2279C41.6952 -24.9784 42.3274 -24.251 42.3274 -24.251C42.3274 -24.251 41.1631 -34.0742 43.394 -39.7929C45.1392 -44.2624 50.5314 -50.4 60.2339 -50.4H60.2544C69.9569 -50.4 75.3491 -44.2624 77.0943 -39.7929C79.3278 -34.0742 78.166 -24.251 78.166 -24.251C78.166 -24.251 78.7957 -24.9758 79.338 -24.2279C79.8829 -23.4774 78.1892 -18.1185 77.891 -17.1933C77.5877 -16.2706 78.0118 -12.6389 75.9094 -12.4873C75.2643 -10.2435 73.9227 -7.47028 72.0439 -4.9772C71.9436 -0.972855 71.3576 2.9441 72.7841 6.1337C74.0897 9.02773 81.0601 10.3128 84.3422 11.3794C88.2231 12.6414 92.1427 13.8083 96.0802 14.898C100.892 15.9544 106.081 18.4089 108.841 22.5623C112.781 28.4891 114.069 36.5826 114.077 43.589C114.077 44.4397 114.071 45.3855 114.061 46.4136C114.038 48.6754 113.992 51.3252 113.953 54.2038C113.953 54.2167 113.948 54.2244 113.948 54.2347C113.92 56.134 113.892 58.1285 113.871 60.1743V60.1821C113.856 61.5211 113.843 62.8782 113.838 64.2481C113.838 64.2532 113.832 64.2609 113.832 64.2635C113.827 65.2916 113.825 66.3222 113.825 67.3503C113.825 68.1882 113.83 69.026 113.832 69.8614C113.838 70.5707 113.84 71.275 113.848 71.9766C113.856 72.5883 113.863 73.1975 113.876 73.8015V73.8066C113.884 74.354 113.897 74.8938 113.912 75.4335V75.4387C113.92 75.9296 113.933 76.4179 113.948 76.9011C113.961 77.3612 113.976 77.8109 113.992 78.2581V78.2633C114.007 78.6822 114.025 79.0986 114.041 79.5098C114.223 83.7609 114.537 87.4954 115.056 90.1735C115.716 93.5944 117.099 97.0796 117.672 100.518C118.888 107.833 118.395 115.883 118.572 123.424H118.559C118.695 128.384 119.24 135.627 119.163 140.164C119.042 141.88 118.736 143.746 118.729 145.458C118.685 150.375 120.543 156.158 119.842 160.915Z" fill="white"/>
<path d="M119.842 160.915C119.317 164.462 116.742 170.692 114.213 172.843C111.972 174.751 107.338 177.763 105.014 177.896C104.842 177.904 104.274 176.18 104.824 175.028C105.698 173.206 108.648 171.849 109.458 170.463C110.481 168.711 110.437 164.958 110.771 162.267C110.836 161.73 108.954 159.026 108.769 159.026C108.579 159.026 107.497 160.054 107.392 160.848C107.209 162.223 107.314 163.745 107.207 165.105C107.063 166.881 105.978 169.795 104.325 170.463C103.708 170.713 102.95 170.263 102.637 169.649C102.323 169.037 103.012 166.457 102.763 165.578C102.513 164.696 102.786 163.023 102.953 162.265C103.392 160.234 102.799 157.638 103.079 155.466C103.369 153.202 104.541 150.462 105.641 148.447C107.551 144.954 107.422 141.783 106.692 136.887C106.101 132.898 102.675 123.92 101.652 118.741H101.668C100.172 109.776 98.82 100.652 97.7585 91.6694C97.6043 90.3766 97.1982 87.7293 96.7099 84.7299C96.6482 84.3469 96.5839 83.9562 96.5197 83.5656C96.4554 83.1672 96.3861 82.7637 96.3218 82.3602C96.2499 81.9412 96.1804 81.5171 96.1085 81.0956C96.0365 80.6484 95.9594 80.2063 95.8874 79.7668C95.8078 79.2914 95.7255 78.821 95.6459 78.3558C95.5585 77.8392 95.4737 77.3355 95.3888 76.8446C95.3888 76.8394 95.3888 76.8394 95.3888 76.8394C95.2809 76.22 95.1781 75.6314 95.0778 75.0711C94.9699 74.4337 94.8645 73.8452 94.7668 73.3131C94.6229 72.5035 94.497 71.8301 94.3993 71.3495C94.3479 71.0591 94.3016 70.8406 94.2708 70.7044C94.2939 70.8766 94.3119 71.0591 94.3299 71.2493V71.2544C94.371 71.7248 94.3942 72.2491 94.3993 72.8222C94.407 73.2566 94.4045 73.7166 94.3916 74.1998C94.3788 74.6393 94.3633 75.0943 94.3402 75.5672C94.3196 75.963 94.2965 76.3742 94.2682 76.788C94.2451 77.1632 94.2117 77.5462 94.1808 77.9369C94.1526 78.2993 94.1192 78.6668 94.0883 79.0421C94.0549 79.3916 94.0189 79.7514 93.9829 80.1087C93.9469 80.4505 93.911 80.7975 93.875 81.1445C93.839 81.4786 93.7979 81.8127 93.7619 82.152C93.3635 85.5523 92.8341 89.1146 92.32 92.2142C91.5695 96.7429 92.1016 108.052 93.7182 117.79C95.3374 127.585 100.483 132.792 100.879 150.871C101.154 163.645 100.46 176.814 99.2955 189.629C98.4216 199.257 96.584 208.908 94.5535 218.261C93.7876 221.79 94.1346 225.728 94.2759 229.344C94.4044 232.672 93.929 236.09 94.1346 239.357C94.5407 245.777 96.8615 250.419 96.823 258.759C96.7587 272.824 92.5796 292.398 92.5796 292.398C91.6723 298.245 91.9114 304.301 91.9988 310.197C92.0193 311.474 92.0193 312.674 92.2404 313.774C93.5794 320.354 95.2937 320.223 98.0824 322.042C101.041 323.978 104.384 326.689 109.658 327.81C111.632 328.234 113.37 331.719 109.132 332.254C106.926 332.531 89.1279 333.971 83.9772 333.971C81.6486 333.971 78.8831 333.423 77.9861 331.393C77.012 329.188 77.1123 326.062 77.8139 322.027C78.2046 319.776 77.4644 317.388 77.3718 315.003C77.2793 312.605 77.8345 310.204 77.6057 307.93C76.3772 295.775 72.8586 279.326 72.5168 267.508C72.3908 263.208 72.4654 258.898 72.9511 254.593C73.2159 252.265 73.7684 249.81 73.4909 247.517C72.7095 241.069 68.9828 234.8 68.0704 228.264C67.1914 221.934 68.3531 215.429 67.7722 209.042C67.1117 201.717 65.9628 194.366 64.8114 187.08C64.1354 182.836 63.4415 178.585 62.4776 174.393C62.1461 172.951 61.6912 169.078 60.6682 168.24C60.6194 168.199 60.3058 168.338 60.0026 168.34C59.7173 168.346 59.4345 168.225 59.3909 168.263C58.3962 169.142 57.931 172.969 57.6046 174.393C56.6408 178.585 55.9442 182.839 55.2709 187.08C54.1143 194.366 52.9423 201.748 52.31 209.042C51.7548 215.406 52.8909 221.934 52.0067 228.264C51.0969 234.8 47.365 241.071 46.5862 247.517C46.3086 249.81 46.8638 252.272 47.126 254.593C47.6143 258.896 47.7556 263.208 47.5654 267.508H47.4858C47.1362 279.457 43.9466 296.14 42.7541 308.333C42.5433 310.456 43.3092 313.096 43.2784 314.903C43.2424 316.833 42.7155 318.74 43.2861 322.032C43.9878 326.062 44.088 329.188 43.1088 331.393C42.2092 333.423 39.4488 333.971 37.1177 333.971C31.967 333.971 14.1736 332.531 11.9684 332.254C7.72505 331.717 9.46507 328.232 11.4415 327.81C16.713 326.689 20.211 324.51 23.1847 322.6C26.3563 320.562 28.8468 319.657 28.8468 313.772C28.8468 311.79 28.0526 299.039 27.0246 292.398L26.2921 288.268C24.7757 278.388 23.4032 268.405 23.2567 258.759C23.159 252.244 25.5416 245.772 25.9451 239.357C26.1507 236.088 25.6598 232.68 25.8037 229.344C25.9605 225.712 26.2946 221.793 25.5261 218.261C23.4957 208.913 21.6606 199.252 20.7841 189.629C19.6199 176.822 18.4916 163.637 19.2035 150.871C20.0979 134.846 24.8039 127.629 26.364 117.79C27.9164 107.998 28.9059 96.5501 27.7571 92.2142C26.0325 85.6988 24.3387 75.4515 24.3875 72.0537C24.4441 71.6348 24.5032 71.2647 24.5597 70.9666C24.4467 71.1002 24.3901 71.4857 24.3875 72.0537C23.7116 76.7674 22.8352 88.2896 22.4214 91.6694C21.3162 100.575 20.0568 110.971 18.5173 118.741C17.4583 124.092 14.3587 132.6 13.3075 136.887C12.3694 140.698 12.5287 145.998 14.3587 148.447C15.7337 150.29 16.6307 153.202 16.9212 155.466C17.1987 157.638 16.6076 160.234 17.0471 162.265C17.2116 163.023 17.4866 164.693 17.2373 165.578C16.988 166.457 17.6768 169.034 17.3632 169.649C17.0497 170.26 16.2915 170.713 15.6746 170.463C14.022 169.795 12.9374 166.881 12.7935 165.105C12.6881 163.748 12.7883 162.223 12.6084 160.848C12.503 160.054 11.4184 159.026 11.2308 159.026C11.0457 159.026 9.16436 161.73 9.22862 162.267C9.56274 164.958 9.51905 168.711 10.5471 170.463C11.3542 171.849 14.3022 173.208 15.176 175.028C15.7286 176.18 15.1632 177.904 14.9858 177.896C12.6598 177.763 8.02577 174.751 5.78714 172.843C3.25551 170.692 0.682751 164.462 0.158434 160.915C-0.543226 156.155 1.31503 150.372 1.28162 145.453C1.27391 143.741 0.847257 141.875 0.847257 140.158C0.847257 138.447 1.47951 128.605 1.62087 123.419C1.82134 116.094 1.30731 107.828 2.52043 100.513C3.09358 97.077 4.47891 93.5893 5.13945 90.1684C7.12106 79.9416 6.10584 54.191 6.12383 43.589C6.12897 36.5826 7.41406 28.4891 11.3593 22.5623C14.1197 18.4089 19.3063 15.9544 24.1177 14.898C27.9575 13.8108 31.7742 12.6414 35.5627 11.3794C38.8063 10.2948 45.9077 8.97889 47.2056 6.1337C48.5241 3.21911 48.1694 -0.250633 48.0923 -3.90029C45.7663 -6.65295 45.3191 -9.91195 44.5789 -12.4873C42.4791 -12.6415 42.9031 -16.2706 42.5998 -17.1933C42.2966 -18.1211 40.6054 -23.4799 41.1503 -24.2279C41.6952 -24.9784 42.3274 -24.251 42.3274 -24.251C42.3274 -24.251 41.1631 -34.0742 43.394 -39.7929C45.1392 -44.2624 50.5314 -50.4 60.2339 -50.4H60.2544C69.9569 -50.4 75.3491 -44.2624 77.0943 -39.7929C79.3278 -34.0742 78.166 -24.251 78.166 -24.251C78.166 -24.251 78.7957 -24.9758 79.338 -24.2279C79.8829 -23.4774 78.1892 -18.1185 77.891 -17.1933C77.5877 -16.2706 78.0118 -12.6389 75.9094 -12.4873C75.2643 -10.2435 73.9227 -7.47028 72.0439 -4.9772C71.9436 -0.972855 71.3576 2.9441 72.7841 6.1337C74.0897 9.02773 81.0601 10.3128 84.3422 11.3794C88.2231 12.6414 92.1427 13.8083 96.0802 14.898C100.892 15.9544 106.081 18.4089 108.841 22.5623C112.781 28.4891 114.069 36.5826 114.077 43.589C114.077 44.4397 114.071 45.3855 114.061 46.4136C114.038 48.6754 113.992 51.3252 113.953 54.2038C113.953 54.2167 113.948 54.2244 113.948 54.2347C113.92 56.134 113.892 58.1285 113.871 60.1743V60.1821C113.856 61.5211 113.843 62.8782 113.838 64.2481C113.838 64.2532 113.832 64.2609 113.832 64.2635C113.827 65.2916 113.825 66.3222 113.825 67.3503C113.825 68.1882 113.83 69.026 113.832 69.8614C113.838 70.5707 113.84 71.275 113.848 71.9766C113.856 72.5883 113.863 73.1975 113.876 73.8015V73.8066C113.884 74.354 113.897 74.8938 113.912 75.4335V75.4387C113.92 75.9296 113.933 76.4179 113.948 76.9011C113.961 77.3612 113.976 77.8109 113.992 78.2581V78.2633C114.007 78.6822 114.025 79.0986 114.041 79.5098C114.223 83.7609 114.537 87.4954 115.056 90.1735C115.716 93.5944 117.099 97.0796 117.672 100.518C118.888 107.833 118.395 115.883 118.572 123.424H118.559C118.695 128.384 119.24 135.627 119.163 140.164C119.042 141.88 118.736 143.746 118.729 145.458C118.685 150.375 120.543 156.158 119.842 160.915Z" stroke="#EAEAEA" stroke-width="2.4" mask="url(#path-1-outside-1_25_19801)"/>
<path d="M99.4239 91.7877C109.065 96.3344 103.14 113.932 111.182 141.068C110.928 141.523 110.268 141.598 109.856 141.51C103.875 124.444 99.9045 109.093 99.4239 91.7877Z" fill="#C7C7C7"/>
<path d="M112.54 85.9662C113.917 90.9421 115.156 94.6765 115.758 99.3645C117.243 110.964 115.626 127.467 117.225 139.616C116.894 139.932 116.027 140.027 115.683 139.765C113.789 121.944 110.954 107.129 110.967 96.1955C110.972 91.654 112.506 89.3691 112.54 85.9662Z" fill="#C7C7C7"/>
<path d="M110.782 88.3075C110.499 89.8367 109.72 93.2268 109.831 96.8379C110.129 106.556 111.944 124.023 114.121 140.122C113.828 140.554 113.164 140.631 112.764 140.472C109.499 121.008 105.809 105.14 105.773 97.0641C105.755 93.5147 109.564 90.6052 110.782 88.3075Z" fill="#C7C7C7"/>
<path d="M20.3702 91.7877C10.7295 96.3344 16.6538 113.932 8.61165 141.068C8.8661 141.523 9.52665 141.598 9.93787 141.51C15.9187 124.444 19.8896 109.093 20.3702 91.7877Z" fill="#C7C7C7"/>
<path d="M7.25467 85.9662C5.87705 90.9421 4.63822 94.6765 4.03679 99.3645C2.55123 110.964 4.16787 127.467 2.56921 139.616C2.90077 139.932 3.76692 140.027 4.11132 139.765C6.00555 121.944 8.84047 107.129 8.82762 96.1955C8.81991 91.654 7.28808 89.3691 7.25467 85.9662Z" fill="#C7C7C7"/>
<path d="M9.01268 88.3075C9.2954 89.8367 10.0742 93.2268 9.96365 96.8379C9.66551 106.556 7.85096 124.023 5.67401 140.122C5.96701 140.554 6.63013 140.631 7.03108 140.472C10.2952 121.008 13.986 105.14 14.022 97.0641C14.04 93.5147 10.2309 90.6052 9.01268 88.3075Z" fill="#C7C7C7"/>
<path d="M112.573 82.8073C112.573 80.674 112.1 55.3449 111.301 48.1509C107.836 47.6189 102.85 42.643 100.354 39.4354C98.9357 44.9073 96.2088 55.9874 95.759 60.5623C95.3324 64.9008 95.1576 68.9385 95.5148 72.1487C95.8721 75.3589 97.9128 89.4743 103.243 91.8723C102.755 86.9504 98.5862 65.1578 103.775 64.6849C109.638 64.1529 108.307 83.3418 107.775 90.0063C110.442 86.2718 112.573 84.9379 112.573 82.8073Z" fill="#C7C7C7"/>
<path d="M7.22107 82.8073C7.22107 80.674 7.69399 55.3449 8.49331 48.1509C11.9579 47.6189 16.9441 42.643 19.4397 39.4354C20.8584 44.9073 23.5854 55.9874 24.0352 60.5623C24.4618 64.9008 24.6366 68.9385 24.2794 72.1487C23.9221 75.3589 21.8814 89.4743 16.5508 91.8723C17.0392 86.9504 21.208 65.1578 16.0188 64.6849C10.1562 64.1529 11.4876 83.3418 12.0196 90.0063C9.35175 86.2718 7.22107 84.9379 7.22107 82.8073Z" fill="#C7C7C7"/>
<path d="M95.3144 130.053C92.2482 123.023 90.5313 106.35 90.5313 101.66C89.5932 104.402 88.1719 106.978 86.7043 109.466C84.9 112.519 82.5303 115.413 81.5305 118.808C80.9805 120.674 80.7209 123.031 82.1602 124.573C84.1007 126.655 89.8322 125.853 95.3144 130.053Z" fill="#C7C7C7"/>
<path d="M24.48 130.053C27.5462 123.023 29.2631 106.35 29.2631 101.66C30.2012 104.402 31.6225 106.978 33.0901 109.466C34.8944 112.519 37.2641 115.413 38.2639 118.808C38.8139 120.674 39.0735 123.031 37.6342 124.573C35.6937 126.655 29.9622 125.853 24.48 130.053Z" fill="#C7C7C7"/>
<path d="M81.155 22.7861C86.8943 21.1849 90.3203 17.399 93.8055 16.6742C97.9512 15.8106 105.137 19.1442 108.461 24.6829C110.787 28.5587 113.326 36.5957 111.65 45.3909C101.601 42.8772 101.567 34.7786 95.7048 29.9621C91.8701 26.811 85.2571 23.4081 81.155 22.7861Z" fill="#C7C7C7"/>
<path d="M38.6393 22.7861C32.9001 21.1849 29.474 17.399 25.9888 16.6742C21.8431 15.8106 14.6569 19.1442 11.3337 24.6829C9.00766 28.5587 6.46832 36.5957 8.14407 45.3909C18.1935 42.8772 18.2269 34.7786 24.0895 29.9621C27.9242 26.811 34.5347 23.4081 38.6393 22.7861Z" fill="#C7C7C7"/>
<path d="M65.7056 -7.54471C64.7341 -7.41106 63.7497 -7.32368 62.7524 -7.28256C62.701 -4.58129 62.7113 0.0167618 63.2151 3.7975C63.9861 9.59069 65.6439 12.1018 65.6439 17.5505C65.6439 24.7676 63.7497 29.6767 63.2253 36.6444C62.4749 46.6553 62.8218 73.9198 62.8218 73.9198C66.3995 61.9864 71.0233 55.2525 73.5344 48.0586C77.0838 37.8858 76.5312 29.0444 78.978 23.8783C80.5175 20.6271 84.6787 19.9305 91.4794 15.5792C81.0958 12.7417 66.672 11.1945 65.7056 -7.54471Z" fill="#3179FF"/>
<path d="M72.6813 55.5789C80.9624 60.3106 88.7449 61.3823 94.0678 60.4956C93.4766 72.9173 90.8936 89.3922 90.4464 96.7737C86.5089 109.702 78.3948 114.912 78.9859 124.969C71.2831 109.933 75.5136 101.924 63.1562 78.7516C65.4745 71.0282 68.916 64.6208 72.6813 55.5789Z" fill="#3179FF"/>
<path d="M81.1757 25.1659C78.5155 28.0676 79.5796 41.6253 73.6965 53.3942C76.8398 55.3295 83.8281 52.2479 88.6729 45.0025C91.5258 40.736 91.5258 36.0994 94.2373 32.4241C91.3356 29.7614 86.2544 26.1323 81.1757 25.1659Z" fill="#3179FF"/>
<path d="M77.0839 54.8205C81.5406 57.3161 89.3874 58.3853 93.8441 57.8507C95.0932 54.8205 97.9461 42.3371 98.658 38.2377C89.21 44.6554 87.2464 53.7487 77.0839 54.8205Z" fill="#3179FF"/>
<path d="M57.039 -7.40337C56.0469 -7.48305 55.0677 -7.60128 54.0987 -7.75806C53.2326 11.1842 38.7368 12.7289 28.3147 15.5715C35.1128 19.9228 39.2739 20.6193 40.816 23.8706C43.2628 29.0392 42.7103 37.8781 46.2597 48.0509C48.7682 55.2448 53.3945 61.9787 56.9722 73.912C56.9722 73.912 57.3192 46.6501 56.5687 36.6367C56.0469 29.6715 54.1501 24.7625 54.1501 17.5428C54.1501 12.094 55.8053 9.58296 56.579 3.78977C57.0878 -0.0398016 57.093 -4.7201 57.039 -7.40337Z" fill="#3179FF"/>
<path d="M47.1104 55.5789C38.8293 60.3106 31.0468 61.3823 25.7239 60.4956C26.315 72.9173 28.8981 89.3922 29.3453 96.7737C33.2828 109.702 41.3969 114.912 40.8057 124.969C48.5086 109.933 44.2781 101.924 56.6355 78.7516C54.3198 71.0282 50.8757 64.6208 47.1104 55.5789Z" fill="#3179FF"/>
<path d="M38.6184 25.1659C41.2785 28.0676 40.2145 41.6253 46.0976 53.3942C42.9543 55.3295 35.966 52.2479 31.1212 45.0025C28.2683 40.736 28.2683 36.0994 25.5567 32.4241C28.4585 29.7614 33.5372 26.1323 38.6184 25.1659Z" fill="#3179FF"/>
<path d="M42.7103 54.8205C38.2536 57.3161 30.4069 58.3853 25.9502 57.8507C24.7011 54.8205 21.8482 42.3371 21.1362 38.2377C30.5842 44.6554 32.5453 53.7487 42.7103 54.8205Z" fill="#3179FF"/>
</g>
<defs>
<clipPath id="clip0_25_19801">
<rect width="120" height="120" fill="white"/>
</clipPath>
</defs>
</svg>
