<svg width="120" height="120" viewBox="0 0 120 120" fill="none" xmlns="http://www.w3.org/2000/svg">
<g clip-path="url(#clip0_25_19792)">
<rect width="120" height="398.48" transform="translate(0 -49.92)" fill="#EAEAEA"/>
<mask id="path-1-outside-1_25_19792" maskUnits="userSpaceOnUse" x="-2" y="-51.92" width="124" height="402" fill="black">
<rect fill="white" x="-2" y="-51.92" width="124" height="402"/>
<path d="M118.699 137.083C118.765 138.586 119.253 140.196 119.144 141.707C119.021 143.42 118.717 145.283 118.717 146.991C118.688 151.899 120.542 157.671 119.842 162.419C119.322 165.96 116.751 172.177 114.222 174.327C111.989 176.227 107.363 179.236 105.042 179.369C104.869 179.377 104.304 177.656 104.856 176.504C105.727 174.69 108.671 173.331 109.476 171.951C110.499 170.197 110.457 166.453 110.787 163.767C110.854 163.232 108.975 160.538 108.789 160.538C108.599 160.538 107.518 161.561 107.414 162.352C107.235 163.725 107.336 165.244 107.227 166.6C107.086 168.372 106.001 171.279 104.355 171.948C103.739 172.196 102.98 171.743 102.668 171.132C102.356 170.522 103.044 167.951 102.793 167.072C102.543 166.192 102.814 164.521 102.98 163.765C103.419 161.74 102.828 159.149 103.105 156.98C103.395 154.723 104.333 151.843 105.666 149.975C106.779 148.411 107.185 146.761 107.707 144.936C108.32 142.791 108.133 140.643 107.52 138.437C105.133 129.841 103.307 125.401 101.455 117.73C99.3025 108.814 98.6176 103.495 97.5624 94.4301C97.1174 90.617 94.4954 75.1006 94.085 73.278C94.6446 77.5841 93.3496 87.5899 92.1372 94.9817C91.3884 99.5489 91.9213 110.962 93.5281 120.789C95.1429 130.672 100.275 135.927 100.667 154.172C100.941 167.061 100.251 180.352 99.0893 193.284C98.2179 202.996 96.3873 212.736 94.3622 222.174C93.5974 225.739 93.9438 229.71 94.085 233.358C94.2156 236.718 93.7413 240.163 93.9465 243.465C94.3515 249.943 96.7151 256.455 96.6271 263.042C96.4326 277.469 93.5148 292.612 91.4444 307.062C90.8741 311.033 88.8996 316.41 89.8855 319.741C90.7649 322.717 94.117 326.008 95.8277 329.112C96.9869 331.22 99.966 332.683 101.964 334.034C103.196 334.865 104.291 335.985 105.442 336.898C105.94 337.296 107.656 338.311 108.173 339.081C108.89 340.149 108.384 340.64 108.242 340.656C108.959 341.309 108.941 342.473 108.322 342.548C108.709 343.595 108.12 344.208 107.48 344.088C107.909 344.951 106.993 345.86 106.135 345.588C105.647 347.371 103.166 347 101.922 346.361C101.722 348.399 99.0067 348.711 97.5091 348.487C95.7505 348.223 94.0078 347.621 92.5129 346.465C91.876 345.969 91.042 344.519 90.6716 344.208C89.5018 343.222 87.7831 342.737 86.6107 341.682C85.5448 340.722 85.201 339.094 84.4896 338.036C83.7781 336.973 82.2193 335.763 80.8656 335.548C78.8831 335.233 76.5782 334.524 75.6456 332.627C74.7343 330.778 75.0913 328.105 75.555 326.072C75.8881 324.617 76.5436 323.034 76.5196 321.574C76.5116 321.078 76.1225 319.783 76.3277 318.384C76.5569 316.836 77.327 315.666 77.5481 314.494C77.8913 312.675 77.9147 310.774 77.9376 308.914L77.9398 308.73C78.0038 303.385 76.4023 297.811 75.4244 292.572C74.1454 285.737 72.6931 278.785 72.3867 271.87C72.1948 267.532 72.3334 263.178 72.821 258.835C73.0848 256.487 73.6364 254.009 73.3593 251.696C72.5812 245.189 68.8613 238.86 67.9554 232.263C67.076 225.873 68.2351 219.315 67.6569 212.866C66.9961 205.475 65.8529 198.056 64.7018 190.707C64.0303 186.425 63.3348 182.135 62.3755 177.906C62.0451 176.448 61.5948 170.506 60.5716 169.662C60.5236 169.622 60.2118 169.757 59.9081 169.763C59.6229 169.771 59.3458 169.646 59.2979 169.688C58.3066 170.573 57.843 176.472 57.5179 177.906C56.5559 182.135 55.8631 186.425 55.1916 190.707L55.1677 190.86C54.0243 198.162 52.8663 205.557 52.2365 212.866C51.6823 219.288 52.8147 225.875 51.9381 232.263C51.0321 238.86 47.3122 245.189 46.5341 251.696C46.257 254.009 46.8086 256.49 47.0724 258.835C47.5574 263.178 47.6986 267.532 47.5067 271.87C47.2003 278.785 45.7454 285.74 44.469 292.572C43.4911 297.811 41.8896 303.385 41.9536 308.73L41.9546 308.828C41.9755 310.716 41.9969 312.647 42.3453 314.494C42.5664 315.666 43.3365 316.839 43.5657 318.384C43.7709 319.783 43.3818 321.076 43.3738 321.574C43.3499 323.034 43.9867 324.606 44.3384 326.072C44.8154 328.073 45.1059 330.714 44.2478 332.627C43.3632 334.596 40.8904 335.257 39.0278 335.548C37.6768 335.761 36.118 336.976 35.4038 338.036C34.6924 339.094 34.3486 340.722 33.2827 341.682C32.1103 342.737 30.3916 343.222 29.2218 344.208C28.8514 344.522 28.0174 345.972 27.3805 346.465C25.8856 347.624 24.1856 348.165 22.3843 348.487C20.8734 348.756 18.1581 348.33 17.9716 346.361C16.7379 346.99 14.2357 347.379 13.7588 345.588C12.9007 345.86 11.9841 344.951 12.4131 344.088C11.7736 344.208 11.1847 343.595 11.5711 342.548C10.9529 342.473 10.9342 341.309 11.651 340.656C11.5098 340.64 11.0035 340.149 11.7203 339.081C12.2372 338.311 13.9533 337.296 14.4516 336.898C15.6 335.985 16.6952 334.868 17.929 334.034C19.8662 332.723 22.9412 331.284 24.0657 329.112C25.7418 325.877 29.1152 322.725 30.0079 319.741C31.0098 316.389 29.022 311.057 28.4491 307.062C26.3786 292.604 23.4795 277.455 23.2663 263.042C23.1704 256.468 25.5446 249.937 25.9469 243.465C26.1521 240.163 25.6645 236.726 25.8084 233.358C25.9656 229.694 26.296 225.737 25.5312 222.174C23.5061 212.738 21.6781 202.994 20.8041 193.284C19.6423 180.358 18.5179 167.053 19.2267 154.172C20.1166 138 24.8118 130.715 26.3653 120.789C27.9135 110.911 28.8994 99.3571 27.7562 94.9817C26.0375 88.4053 24.3508 78.0664 24.3961 74.6343C23.7246 79.3934 22.8533 91.022 22.4376 94.4301C21.3397 103.418 20.3325 109.68 18.5445 116.925C16.3435 125.841 15.3496 129.793 12.8821 138.437C12.2479 140.659 12.1067 144.816 12.6956 146.948C13.1965 148.763 16.6046 154.321 16.8951 156.578C17.1749 158.744 16.5806 161.337 17.0203 163.362C17.1829 164.119 17.4573 165.79 17.2068 166.669C16.9564 167.546 17.6438 170.12 17.3321 170.73C17.0203 171.34 16.9564 171.743 15.6453 171.543C13.9746 171.29 12.9141 167.874 12.7728 166.195C12.6609 164.844 12.7648 163.32 12.5863 161.947C12.4824 161.156 11.3979 160.133 11.2113 160.133C11.0248 160.133 9.14623 162.827 9.21284 163.362C9.54326 166.064 9.52194 169.792 10.5239 171.545C11.3046 172.912 14.273 174.282 15.1444 176.099C15.6986 177.253 15.1337 178.975 14.9579 178.964C12.6503 178.831 8.01375 175.825 5.77809 173.922C3.25199 171.772 0.680593 165.555 0.158319 162.014C-0.542487 157.263 1.31212 153.908 1.28281 148.997C1.27215 147.289 0.968377 145.426 0.845803 143.713C0.739216 142.202 1.22418 140.593 1.2908 139.09C1.5999 132.178 1.53329 128.796 1.69849 121.642C1.87436 114.037 1.38406 110.735 2.59648 103.357C3.16672 99.8847 4.54435 96.3646 5.20519 92.9166C7.18237 82.5963 6.17246 56.6132 6.18312 45.9119C6.19112 38.8399 7.47282 30.6754 11.4032 24.6905C14.1558 20.499 19.3279 18.0235 24.1243 16.9577C27.9508 15.8572 31.7559 14.6794 35.5291 13.4084C38.7666 12.3185 46.257 10.7863 47.5467 7.91381C48.7678 5.18969 48.5512 1.97711 48.4539 -1.41333C48.4345 -1.43346 48.4155 -1.45362 48.3967 -1.4738C45.8733 -4.1811 44.0054 -7.77839 43.2433 -10.459C41.0822 -10.6189 41.5166 -14.4001 41.2075 -15.3594C40.8984 -16.3213 38.4922 -21.4241 39.7179 -22.6819C40.3121 -23.2921 40.933 -22.7858 40.933 -22.7858C40.933 -22.7858 39.7312 -32.9275 42.0255 -38.8803C43.8188 -43.5328 49.3613 -49.92 59.3405 -49.92H59.3512H59.3618C69.3383 -49.92 74.8835 -43.5328 76.6768 -38.8803C78.9711 -32.9275 77.7773 -22.7058 77.7773 -22.7058C77.7773 -22.7058 78.4968 -23.4413 79.1469 -22.7378C80.1062 -21.7039 77.8013 -16.3186 77.4922 -15.3594C77.1831 -14.3974 77.6174 -10.6163 75.4564 -10.459C74.7929 -8.11947 73.4259 -4.32765 71.1236 -1.98275C70.9833 -1.83978 70.8391 -1.69933 70.6908 -1.56161L70.6868 -1.41044C70.5888 2.21976 70.516 4.9159 71.8484 7.91381C73.1434 10.8343 80.8896 12.3318 84.1618 13.4084C88.0336 14.6821 91.94 15.8598 95.865 16.9604C100.661 18.0289 105.834 20.5043 108.586 24.6932C112.519 30.678 113.798 38.8452 113.806 45.9146C113.817 56.6159 112.807 82.5963 114.784 92.9192C115.442 96.37 116.823 99.89 117.393 103.359C118.608 110.738 118.115 114.844 118.291 122.449C118.456 129.606 118.389 130.171 118.699 137.083Z"/>
</mask>
<path d="M118.699 137.083C118.765 138.586 119.253 140.196 119.144 141.707C119.021 143.42 118.717 145.283 118.717 146.991C118.688 151.899 120.542 157.671 119.842 162.419C119.322 165.96 116.751 172.177 114.222 174.327C111.989 176.227 107.363 179.236 105.042 179.369C104.869 179.377 104.304 177.656 104.856 176.504C105.727 174.69 108.671 173.331 109.476 171.951C110.499 170.197 110.457 166.453 110.787 163.767C110.854 163.232 108.975 160.538 108.789 160.538C108.599 160.538 107.518 161.561 107.414 162.352C107.235 163.725 107.336 165.244 107.227 166.6C107.086 168.372 106.001 171.279 104.355 171.948C103.739 172.196 102.98 171.743 102.668 171.132C102.356 170.522 103.044 167.951 102.793 167.072C102.543 166.192 102.814 164.521 102.98 163.765C103.419 161.74 102.828 159.149 103.105 156.98C103.395 154.723 104.333 151.843 105.666 149.975C106.779 148.411 107.185 146.761 107.707 144.936C108.32 142.791 108.133 140.643 107.52 138.437C105.133 129.841 103.307 125.401 101.455 117.73C99.3025 108.814 98.6176 103.495 97.5624 94.4301C97.1174 90.617 94.4954 75.1006 94.085 73.278C94.6446 77.5841 93.3496 87.5899 92.1372 94.9817C91.3884 99.5489 91.9213 110.962 93.5281 120.789C95.1429 130.672 100.275 135.927 100.667 154.172C100.941 167.061 100.251 180.352 99.0893 193.284C98.2179 202.996 96.3873 212.736 94.3622 222.174C93.5974 225.739 93.9438 229.71 94.085 233.358C94.2156 236.718 93.7413 240.163 93.9465 243.465C94.3515 249.943 96.7151 256.455 96.6271 263.042C96.4326 277.469 93.5148 292.612 91.4444 307.062C90.8741 311.033 88.8996 316.41 89.8855 319.741C90.7649 322.717 94.117 326.008 95.8277 329.112C96.9869 331.22 99.966 332.683 101.964 334.034C103.196 334.865 104.291 335.985 105.442 336.898C105.94 337.296 107.656 338.311 108.173 339.081C108.89 340.149 108.384 340.64 108.242 340.656C108.959 341.309 108.941 342.473 108.322 342.548C108.709 343.595 108.12 344.208 107.48 344.088C107.909 344.951 106.993 345.86 106.135 345.588C105.647 347.371 103.166 347 101.922 346.361C101.722 348.399 99.0067 348.711 97.5091 348.487C95.7505 348.223 94.0078 347.621 92.5129 346.465C91.876 345.969 91.042 344.519 90.6716 344.208C89.5018 343.222 87.7831 342.737 86.6107 341.682C85.5448 340.722 85.201 339.094 84.4896 338.036C83.7781 336.973 82.2193 335.763 80.8656 335.548C78.8831 335.233 76.5782 334.524 75.6456 332.627C74.7343 330.778 75.0913 328.105 75.555 326.072C75.8881 324.617 76.5436 323.034 76.5196 321.574C76.5116 321.078 76.1225 319.783 76.3277 318.384C76.5569 316.836 77.327 315.666 77.5481 314.494C77.8913 312.675 77.9147 310.774 77.9376 308.914L77.9398 308.73C78.0038 303.385 76.4023 297.811 75.4244 292.572C74.1454 285.737 72.6931 278.785 72.3867 271.87C72.1948 267.532 72.3334 263.178 72.821 258.835C73.0848 256.487 73.6364 254.009 73.3593 251.696C72.5812 245.189 68.8613 238.86 67.9554 232.263C67.076 225.873 68.2351 219.315 67.6569 212.866C66.9961 205.475 65.8529 198.056 64.7018 190.707C64.0303 186.425 63.3348 182.135 62.3755 177.906C62.0451 176.448 61.5948 170.506 60.5716 169.662C60.5236 169.622 60.2118 169.757 59.9081 169.763C59.6229 169.771 59.3458 169.646 59.2979 169.688C58.3066 170.573 57.843 176.472 57.5179 177.906C56.5559 182.135 55.8631 186.425 55.1916 190.707L55.1677 190.86C54.0243 198.162 52.8663 205.557 52.2365 212.866C51.6823 219.288 52.8147 225.875 51.9381 232.263C51.0321 238.86 47.3122 245.189 46.5341 251.696C46.257 254.009 46.8086 256.49 47.0724 258.835C47.5574 263.178 47.6986 267.532 47.5067 271.87C47.2003 278.785 45.7454 285.74 44.469 292.572C43.4911 297.811 41.8896 303.385 41.9536 308.73L41.9546 308.828C41.9755 310.716 41.9969 312.647 42.3453 314.494C42.5664 315.666 43.3365 316.839 43.5657 318.384C43.7709 319.783 43.3818 321.076 43.3738 321.574C43.3499 323.034 43.9867 324.606 44.3384 326.072C44.8154 328.073 45.1059 330.714 44.2478 332.627C43.3632 334.596 40.8904 335.257 39.0278 335.548C37.6768 335.761 36.118 336.976 35.4038 338.036C34.6924 339.094 34.3486 340.722 33.2827 341.682C32.1103 342.737 30.3916 343.222 29.2218 344.208C28.8514 344.522 28.0174 345.972 27.3805 346.465C25.8856 347.624 24.1856 348.165 22.3843 348.487C20.8734 348.756 18.1581 348.33 17.9716 346.361C16.7379 346.99 14.2357 347.379 13.7588 345.588C12.9007 345.86 11.9841 344.951 12.4131 344.088C11.7736 344.208 11.1847 343.595 11.5711 342.548C10.9529 342.473 10.9342 341.309 11.651 340.656C11.5098 340.64 11.0035 340.149 11.7203 339.081C12.2372 338.311 13.9533 337.296 14.4516 336.898C15.6 335.985 16.6952 334.868 17.929 334.034C19.8662 332.723 22.9412 331.284 24.0657 329.112C25.7418 325.877 29.1152 322.725 30.0079 319.741C31.0098 316.389 29.022 311.057 28.4491 307.062C26.3786 292.604 23.4795 277.455 23.2663 263.042C23.1704 256.468 25.5446 249.937 25.9469 243.465C26.1521 240.163 25.6645 236.726 25.8084 233.358C25.9656 229.694 26.296 225.737 25.5312 222.174C23.5061 212.738 21.6781 202.994 20.8041 193.284C19.6423 180.358 18.5179 167.053 19.2267 154.172C20.1166 138 24.8118 130.715 26.3653 120.789C27.9135 110.911 28.8994 99.3571 27.7562 94.9817C26.0375 88.4053 24.3508 78.0664 24.3961 74.6343C23.7246 79.3934 22.8533 91.022 22.4376 94.4301C21.3397 103.418 20.3325 109.68 18.5445 116.925C16.3435 125.841 15.3496 129.793 12.8821 138.437C12.2479 140.659 12.1067 144.816 12.6956 146.948C13.1965 148.763 16.6046 154.321 16.8951 156.578C17.1749 158.744 16.5806 161.337 17.0203 163.362C17.1829 164.119 17.4573 165.79 17.2068 166.669C16.9564 167.546 17.6438 170.12 17.3321 170.73C17.0203 171.34 16.9564 171.743 15.6453 171.543C13.9746 171.29 12.9141 167.874 12.7728 166.195C12.6609 164.844 12.7648 163.32 12.5863 161.947C12.4824 161.156 11.3979 160.133 11.2113 160.133C11.0248 160.133 9.14623 162.827 9.21284 163.362C9.54326 166.064 9.52194 169.792 10.5239 171.545C11.3046 172.912 14.273 174.282 15.1444 176.099C15.6986 177.253 15.1337 178.975 14.9579 178.964C12.6503 178.831 8.01375 175.825 5.77809 173.922C3.25199 171.772 0.680593 165.555 0.158319 162.014C-0.542487 157.263 1.31212 153.908 1.28281 148.997C1.27215 147.289 0.968377 145.426 0.845803 143.713C0.739216 142.202 1.22418 140.593 1.2908 139.09C1.5999 132.178 1.53329 128.796 1.69849 121.642C1.87436 114.037 1.38406 110.735 2.59648 103.357C3.16672 99.8847 4.54435 96.3646 5.20519 92.9166C7.18237 82.5963 6.17246 56.6132 6.18312 45.9119C6.19112 38.8399 7.47282 30.6754 11.4032 24.6905C14.1558 20.499 19.3279 18.0235 24.1243 16.9577C27.9508 15.8572 31.7559 14.6794 35.5291 13.4084C38.7666 12.3185 46.257 10.7863 47.5467 7.91381C48.7678 5.18969 48.5512 1.97711 48.4539 -1.41333C48.4345 -1.43346 48.4155 -1.45362 48.3967 -1.4738C45.8733 -4.1811 44.0054 -7.77839 43.2433 -10.459C41.0822 -10.6189 41.5166 -14.4001 41.2075 -15.3594C40.8984 -16.3213 38.4922 -21.4241 39.7179 -22.6819C40.3121 -23.2921 40.933 -22.7858 40.933 -22.7858C40.933 -22.7858 39.7312 -32.9275 42.0255 -38.8803C43.8188 -43.5328 49.3613 -49.92 59.3405 -49.92H59.3512H59.3618C69.3383 -49.92 74.8835 -43.5328 76.6768 -38.8803C78.9711 -32.9275 77.7773 -22.7058 77.7773 -22.7058C77.7773 -22.7058 78.4968 -23.4413 79.1469 -22.7378C80.1062 -21.7039 77.8013 -16.3186 77.4922 -15.3594C77.1831 -14.3974 77.6174 -10.6163 75.4564 -10.459C74.7929 -8.11947 73.4259 -4.32765 71.1236 -1.98275C70.9833 -1.83978 70.8391 -1.69933 70.6908 -1.56161L70.6868 -1.41044C70.5888 2.21976 70.516 4.9159 71.8484 7.91381C73.1434 10.8343 80.8896 12.3318 84.1618 13.4084C88.0336 14.6821 91.94 15.8598 95.865 16.9604C100.661 18.0289 105.834 20.5043 108.586 24.6932C112.519 30.678 113.798 38.8452 113.806 45.9146C113.817 56.6159 112.807 82.5963 114.784 92.9192C115.442 96.37 116.823 99.89 117.393 103.359C118.608 110.738 118.115 114.844 118.291 122.449C118.456 129.606 118.389 130.171 118.699 137.083Z" fill="white"/>
<path d="M24.3961 74.6343L23.7962 74.626L24.9904 74.7171L24.3961 74.6343ZM24.5693 73.5365L25.1594 73.6452L25.5792 71.3663L24.1061 73.1551L24.5693 73.5365ZM24.3961 74.6343L24.996 74.6427C24.9999 74.3688 25.0145 74.159 25.0369 74.0119C25.0481 73.9384 25.0594 73.8931 25.0671 73.8693C25.0769 73.839 25.0724 73.8694 25.0325 73.9179L24.5693 73.5365L24.1061 73.1551C24.0102 73.2715 23.9572 73.4015 23.9252 73.5003C23.8912 73.6056 23.8677 73.7188 23.8506 73.8312C23.8164 74.0557 23.8003 74.327 23.7962 74.626L24.3961 74.6343ZM24.5693 73.5365L23.9792 73.4278C23.9212 73.743 23.8612 74.1253 23.8018 74.5516L24.3961 74.6343L24.9904 74.7171C25.0483 74.3013 25.1055 73.9375 25.1594 73.6452L24.5693 73.5365ZM119.144 141.707L117.947 141.62L117.947 141.621L119.144 141.707ZM118.699 137.083L119.897 137.03L119.897 137.03L118.699 137.083ZM118.291 122.449L119.491 122.421L119.491 122.421L118.291 122.449ZM117.393 103.359L116.209 103.554L116.209 103.554L117.393 103.359ZM114.784 92.9192L115.963 92.6944L115.963 92.6935L114.784 92.9192ZM113.806 45.9146L115.006 45.9134V45.9132L113.806 45.9146ZM108.586 24.6932L107.583 25.3522L107.583 25.3522L108.586 24.6932ZM95.865 16.9604L95.5411 18.1158L95.5724 18.1246L95.6041 18.1316L95.865 16.9604ZM84.1618 13.4084L83.7868 14.5482L83.7868 14.5483L84.1618 13.4084ZM71.8484 7.91381L72.9454 7.42737L72.945 7.42645L71.8484 7.91381ZM47.5467 7.91381L48.6414 8.40532L48.6417 8.40468L47.5467 7.91381ZM35.5291 13.4084L35.1462 12.2711L35.146 12.2711L35.5291 13.4084ZM24.1243 16.9577L24.3846 18.1291L24.4206 18.1211L24.456 18.1109L24.1243 16.9577ZM11.4032 24.6905L12.4062 25.3493L12.4062 25.3492L11.4032 24.6905ZM6.18312 45.9119L4.98312 45.9106V45.9107L6.18312 45.9119ZM5.20519 92.9166L6.38374 93.1424L6.38375 93.1424L5.20519 92.9166ZM2.59648 103.357L3.78061 103.551L3.78062 103.551L2.59648 103.357ZM1.69849 121.642L0.498815 121.614L0.498814 121.614L1.69849 121.642ZM1.2908 139.09L0.0919993 139.036L0.0919785 139.037L1.2908 139.09ZM0.845803 143.713L-0.351223 143.798L-0.351138 143.799L0.845803 143.713ZM1.28281 148.997L2.48279 148.99L2.48278 148.99L1.28281 148.997ZM0.158319 162.014L1.34548 161.839L1.34547 161.839L0.158319 162.014ZM5.77809 173.922L5.00024 174.836L5.00038 174.836L5.77809 173.922ZM14.9579 178.964L15.0305 177.766L15.027 177.766L14.9579 178.964ZM15.1444 176.099L14.0623 176.618L14.0627 176.619L15.1444 176.099ZM10.5239 171.545L11.5659 170.95L11.5658 170.95L10.5239 171.545ZM9.21284 163.362L10.404 163.217L10.4037 163.214L9.21284 163.362ZM12.5863 161.947L13.7763 161.793L13.7761 161.791L12.5863 161.947ZM12.7728 166.195L11.5769 166.294L11.5771 166.295L12.7728 166.195ZM15.6453 171.543L15.8262 170.357L15.8251 170.356L15.6453 171.543ZM17.3321 170.73L18.4007 171.276L18.4007 171.276L17.3321 170.73ZM17.2068 166.669L18.3607 166.999L18.3609 166.998L17.2068 166.669ZM17.0203 163.362L18.1936 163.11L18.193 163.108L17.0203 163.362ZM16.8951 156.578L15.7049 156.731L15.705 156.732L16.8951 156.578ZM12.6956 146.948L13.8523 146.629L13.8522 146.628L12.6956 146.948ZM12.8821 138.437L11.7282 138.108L11.7282 138.108L12.8821 138.437ZM18.5445 116.925L19.7095 117.213L19.7095 117.213L18.5445 116.925ZM22.4376 94.4301L23.6287 94.5756L23.6287 94.5754L22.4376 94.4301ZM24.3961 74.6343L25.596 74.6502L23.2079 74.4667L24.3961 74.6343ZM27.7562 94.9817L28.9173 94.6783L28.9172 94.6783L27.7562 94.9817ZM26.3653 120.789L25.1798 120.603L25.1797 120.603L26.3653 120.789ZM19.2267 154.172L18.0285 154.106L19.2267 154.172ZM20.8041 193.284L19.6089 193.391L19.609 193.391L20.8041 193.284ZM25.5312 222.174L24.358 222.426L24.358 222.426L25.5312 222.174ZM25.8084 233.358L24.6095 233.306L24.6095 233.306L25.8084 233.358ZM25.9469 243.465L27.1446 243.539L27.1446 243.539L25.9469 243.465ZM23.2663 263.042L22.0664 263.06L22.0664 263.06L23.2663 263.042ZM28.4491 307.062L27.2612 307.232L27.2612 307.233L28.4491 307.062ZM30.0079 319.741L31.1576 320.085L31.1576 320.084L30.0079 319.741ZM24.0657 329.112L23.0002 328.56L23.0001 328.561L24.0657 329.112ZM17.929 334.034L18.601 335.028L18.6015 335.028L17.929 334.034ZM14.4516 336.898L13.7043 335.96L13.7038 335.96L14.4516 336.898ZM11.7203 339.081L10.724 338.412L10.7237 338.412L11.7203 339.081ZM11.651 340.656L12.4591 341.543L14.4154 339.761L11.786 339.463L11.651 340.656ZM11.5711 342.548L12.6969 342.963L13.2226 341.538L11.7149 341.356L11.5711 342.548ZM12.4131 344.088L13.4877 344.622L14.5598 342.464L12.192 342.908L12.4131 344.088ZM13.7588 345.588L14.9183 345.279L14.5948 344.064L13.3964 344.444L13.7588 345.588ZM17.9716 346.361L19.1662 346.248L18.9997 344.49L17.4266 345.292L17.9716 346.361ZM22.3843 348.487L22.5947 349.669L22.5957 349.668L22.3843 348.487ZM27.3805 346.465L26.646 345.516L26.6452 345.516L27.3805 346.465ZM29.2218 344.208L28.4484 343.29L28.4452 343.293L29.2218 344.208ZM33.2827 341.682L34.0855 342.574L34.0855 342.574L33.2827 341.682ZM35.4038 338.036L34.4085 337.366L34.4081 337.367L35.4038 338.036ZM39.0278 335.548L38.8429 334.362L38.8407 334.362L39.0278 335.548ZM44.2478 332.627L45.3425 333.119L45.3428 333.118L44.2478 332.627ZM44.3384 326.072L45.5057 325.794L45.5053 325.792L44.3384 326.072ZM43.3738 321.574L44.5737 321.594L44.5737 321.593L43.3738 321.574ZM43.5657 318.384L44.753 318.21L44.7527 318.208L43.5657 318.384ZM42.3453 314.494L43.5245 314.272L43.5245 314.272L42.3453 314.494ZM41.9546 308.828L40.7547 308.841L41.9546 308.828ZM41.9536 308.73L43.1535 308.717L43.1535 308.716L41.9536 308.73ZM44.469 292.572L43.2894 292.351L43.2894 292.352L44.469 292.572ZM47.5067 271.87L48.7055 271.923L48.7056 271.923L47.5067 271.87ZM47.0724 258.835L48.265 258.701L48.2649 258.7L47.0724 258.835ZM46.5341 251.696L47.7256 251.839L47.7256 251.838L46.5341 251.696ZM51.9381 232.263L53.1269 232.426L53.1269 232.426L51.9381 232.263ZM52.2365 212.866L53.4321 212.97L53.4321 212.969L52.2365 212.866ZM55.1677 190.86L53.9822 190.674L55.1677 190.86ZM55.1916 190.707L54.0061 190.521L54.0061 190.521L55.1916 190.707ZM57.5179 177.906L58.688 178.172L58.6882 178.171L57.5179 177.906ZM59.2979 169.688L58.5006 168.791L58.4988 168.793L59.2979 169.688ZM59.9081 169.763L59.887 168.563L59.8744 168.563L59.9081 169.763ZM60.5716 169.662L59.8034 170.584L59.8076 170.587L60.5716 169.662ZM62.3755 177.906L61.2052 178.171L61.2053 178.171L62.3755 177.906ZM64.7018 190.707L65.8873 190.521L65.8873 190.521L64.7018 190.707ZM67.6569 212.866L66.4617 212.973L66.4617 212.974L67.6569 212.866ZM67.9554 232.263L69.1442 232.099L69.1441 232.099L67.9554 232.263ZM73.3593 251.696L72.1678 251.838L72.1678 251.839L73.3593 251.696ZM72.821 258.835L71.6285 258.701L71.6285 258.701L72.821 258.835ZM72.3867 271.87L71.1879 271.923L71.1879 271.923L72.3867 271.87ZM75.4244 292.572L76.604 292.352L76.6039 292.351L75.4244 292.572ZM77.9398 308.73L79.1397 308.745L79.1398 308.745L77.9398 308.73ZM77.9376 308.914L76.7377 308.899V308.899L77.9376 308.914ZM77.5481 314.494L76.3689 314.272V314.272L77.5481 314.494ZM76.3277 318.384L75.1407 318.209L75.1404 318.21L76.3277 318.384ZM76.5196 321.574L75.3197 321.593L75.3197 321.594L76.5196 321.574ZM75.555 326.072L74.3852 325.804L74.385 325.805L75.555 326.072ZM75.6456 332.627L76.7225 332.098L76.722 332.097L75.6456 332.627ZM80.8656 335.548L81.0546 334.363L81.0536 334.362L80.8656 335.548ZM84.4896 338.036L83.4923 338.704L83.4938 338.706L84.4896 338.036ZM86.6107 341.682L85.8079 342.574H85.8079L86.6107 341.682ZM90.6716 344.208L89.8982 345.125L89.8988 345.126L90.6716 344.208ZM92.5129 346.465L91.7759 347.412L91.7786 347.414L92.5129 346.465ZM97.5091 348.487L97.3311 349.674L97.3317 349.674L97.5091 348.487ZM101.922 346.361L102.47 345.293L100.9 344.486L100.728 346.244L101.922 346.361ZM106.135 345.588L106.497 344.444L105.307 344.067L104.977 345.271L106.135 345.588ZM107.48 344.088L107.701 342.908L105.334 342.464L106.406 344.622L107.48 344.088ZM108.322 342.548L108.179 341.356L106.671 341.538L107.197 342.963L108.322 342.548ZM108.242 340.656L108.107 339.463L105.478 339.761L107.434 341.543L108.242 340.656ZM108.173 339.081L109.17 338.412L109.169 338.412L108.173 339.081ZM105.442 336.898L106.19 335.96L106.188 335.959L105.442 336.898ZM101.964 334.034L101.292 335.028L101.293 335.028L101.964 334.034ZM95.8277 329.112L96.8792 328.534L96.8787 328.533L95.8277 329.112ZM89.8855 319.741L91.0363 319.401L91.0362 319.4L89.8855 319.741ZM91.4444 307.062L92.6322 307.233L92.6322 307.232L91.4444 307.062ZM96.6271 263.042L97.827 263.058V263.058L96.6271 263.042ZM93.9465 243.465L92.7488 243.539L92.7488 243.54L93.9465 243.465ZM94.085 233.358L92.8859 233.404L92.8859 233.404L94.085 233.358ZM94.3622 222.174L93.1889 221.922L93.1889 221.922L94.3622 222.174ZM99.0893 193.284L97.8941 193.176L97.8941 193.177L99.0893 193.284ZM100.667 154.172L101.866 154.146L101.866 154.146L100.667 154.172ZM93.5281 120.789L94.7124 120.595L94.7124 120.595L93.5281 120.789ZM92.1372 94.9817L90.953 94.7875L90.953 94.7876L92.1372 94.9817ZM94.085 73.278L95.2557 73.0144L92.895 73.4326L94.085 73.278ZM97.5624 94.4301L98.7544 94.2914L98.7543 94.291L97.5624 94.4301ZM101.455 117.73L102.622 117.448L102.622 117.448L101.455 117.73ZM107.52 138.437L106.364 138.758L106.364 138.758L107.52 138.437ZM107.707 144.936L108.86 145.266L108.861 145.266L107.707 144.936ZM105.666 149.975L106.643 150.672L106.643 150.671L105.666 149.975ZM103.105 156.98L101.915 156.827L101.915 156.828L103.105 156.98ZM102.98 163.765L104.152 164.021L104.152 164.019L102.98 163.765ZM102.668 171.132L103.737 170.586H103.737L102.668 171.132ZM104.355 171.948L104.803 173.061L104.806 173.06L104.355 171.948ZM107.227 166.6L106.031 166.504L106.031 166.505L107.227 166.6ZM107.414 162.352L106.224 162.196L106.224 162.198L107.414 162.352ZM110.787 163.767L109.596 163.619L109.596 163.621L110.787 163.767ZM109.476 171.951L108.44 171.346L108.439 171.346L109.476 171.951ZM104.856 176.504L103.774 175.985L103.773 175.986L104.856 176.504ZM105.042 179.369L105.097 180.568L105.111 180.567L105.042 179.369ZM114.222 174.327L113.445 173.413L113.444 173.413L114.222 174.327ZM119.842 162.419L118.655 162.244L118.654 162.245L119.842 162.419ZM118.717 146.991L119.917 146.998V146.991H118.717ZM77.7773 -22.7058L76.5854 -22.845L76.1778 -19.3548L78.6351 -21.8667L77.7773 -22.7058ZM76.6768 -38.8803L77.7965 -39.3119L77.7965 -39.3119L76.6768 -38.8803ZM42.0255 -38.8803L40.9058 -39.3119L40.9058 -39.3119L42.0255 -38.8803ZM40.933 -22.7858L40.1746 -21.8558L42.4738 -19.981L42.1247 -22.927L40.933 -22.7858ZM39.7179 -22.6819L40.5773 -21.8443L40.5776 -21.8447L39.7179 -22.6819ZM41.2075 -15.3594L40.065 -14.9922L40.0653 -14.9913L41.2075 -15.3594ZM43.2433 -10.459L44.3975 -10.7872L44.1682 -11.5939L43.3318 -11.6558L43.2433 -10.459ZM48.3967 -1.4738L49.275 -2.29148L49.2745 -2.29199L48.3967 -1.4738ZM71.1236 -1.98275L70.2674 -2.82346L70.2673 -2.82336L71.1236 -1.98275ZM75.4564 -10.459L75.3693 -11.6559L74.5312 -11.5949L74.3019 -10.7864L75.4564 -10.459ZM77.4922 -15.3594L76.35 -15.7274L76.3497 -15.7265L77.4922 -15.3594ZM79.1469 -22.7378L78.2657 -21.9233L78.2673 -21.9216L79.1469 -22.7378ZM48.4539 -1.41333L49.6534 -1.44775L49.6401 -1.91025L49.3198 -2.24412L48.4539 -1.41333ZM70.6908 -1.56161L69.8742 -2.44092L69.5049 -2.09787L69.4913 -1.59394L70.6908 -1.56161ZM70.6868 -1.41044L71.8863 -1.37807V-1.37811L70.6868 -1.41044ZM119.144 141.707L120.34 141.793C120.405 140.894 120.291 140 120.174 139.214C120.05 138.386 119.927 137.7 119.897 137.03L118.699 137.083L117.5 137.137C117.537 137.969 117.691 138.84 117.8 139.57C117.916 140.343 117.991 141.008 117.947 141.62L119.144 141.707ZM118.699 137.083L119.897 137.03C119.589 130.135 119.656 129.598 119.491 122.421L118.291 122.449L117.091 122.477C117.256 129.615 117.19 130.208 117.5 137.137L118.699 137.083ZM118.291 122.449L119.491 122.421C119.318 114.947 119.81 110.653 118.577 103.164L117.393 103.359L116.209 103.554C117.406 110.822 116.912 114.741 117.091 122.477L118.291 122.449ZM117.393 103.359L118.577 103.165C118.279 101.352 117.772 99.542 117.275 97.8026C116.772 96.0402 116.28 94.3553 115.963 92.6944L114.784 92.9192L113.605 93.1441C113.947 94.9339 114.474 96.7344 114.968 98.462C115.468 100.213 115.936 101.897 116.209 103.554L117.393 103.359ZM114.784 92.9192L115.963 92.6935C114.999 87.6641 114.754 78.7059 114.758 69.5593C114.76 65.0074 114.823 60.4418 114.885 56.3402C114.948 52.2447 115.009 48.6012 115.006 45.9134L113.806 45.9146L112.606 45.9158C112.609 48.5786 112.548 52.1957 112.486 56.3038C112.423 60.4059 112.36 64.9871 112.358 69.5583C112.354 78.6579 112.592 87.8514 113.606 93.145L114.784 92.9192ZM113.806 45.9146L115.006 45.9132C114.998 38.7481 113.71 30.3043 109.589 24.0342L108.586 24.6932L107.583 25.3522C111.329 31.0517 112.598 38.9424 112.606 45.9159L113.806 45.9146ZM108.586 24.6932L109.589 24.0342C106.592 19.474 101.067 16.8898 96.126 15.7891L95.865 16.9604L95.6041 18.1316C100.256 19.1679 105.075 21.5347 107.583 25.3522L108.586 24.6932ZM95.865 16.9604L96.189 15.8049C92.2789 14.7086 88.3897 13.5359 84.5368 12.2685L84.1618 13.4084L83.7868 14.5483C87.6775 15.8282 91.6011 17.0111 95.5411 18.1158L95.865 16.9604ZM84.1618 13.4084L84.5368 12.2685C83.685 11.9882 82.5457 11.6815 81.3627 11.3507C80.1592 11.0142 78.8745 10.6432 77.6587 10.2194C76.4363 9.79335 75.3298 9.32938 74.4698 8.82036C73.5806 8.29403 73.1164 7.81296 72.9454 7.42737L71.8484 7.91381L70.7514 8.40025C71.228 9.4749 72.2176 10.2762 73.2473 10.8857C74.3063 11.5125 75.5836 12.0378 76.8687 12.4857C78.1604 12.9359 79.5066 13.3237 80.7163 13.662C81.9465 14.006 83.0026 14.2903 83.7868 14.5482L84.1618 13.4084ZM47.5467 7.91381L46.452 7.4223C46.2797 7.80606 45.8227 8.28212 44.9594 8.80392C44.1233 9.30926 43.0493 9.7728 41.8617 10.2006C40.6803 10.6261 39.431 11.0008 38.2568 11.3416C37.1026 11.6765 35.9873 11.9879 35.1462 12.2711L35.5291 13.4084L35.9119 14.5456C36.6896 14.2839 37.7247 13.995 38.9258 13.6464C40.107 13.3036 41.4178 12.9114 42.675 12.4586C43.9258 12.008 45.1686 11.4818 46.2008 10.8579C47.2059 10.2505 48.1689 9.45781 48.6414 8.40532L47.5467 7.91381ZM35.5291 13.4084L35.146 12.2711C31.3915 13.5359 27.6037 14.7084 23.7926 15.8044L24.1243 16.9577L24.456 18.1109C28.2979 17.006 32.1203 15.8229 35.9122 14.5456L35.5291 13.4084ZM24.1243 16.9577L23.864 15.7863C18.9223 16.8844 13.3968 19.4687 10.4002 24.0318L11.4032 24.6905L12.4062 25.3492C14.9148 21.5293 19.7335 19.1627 24.3846 18.1291L24.1243 16.9577ZM11.4032 24.6905L10.4002 24.0318C6.28262 30.3016 4.99123 38.7424 4.98312 45.9106L6.18312 45.9119L7.38312 45.9133C7.39101 38.9374 8.66302 31.0491 12.4062 25.3493L11.4032 24.6905ZM6.18312 45.9119L4.98312 45.9107C4.98045 48.5985 5.04181 52.2422 5.104 56.3379C5.16629 60.4397 5.22961 65.0056 5.2316 69.5577C5.23561 78.7047 4.9899 87.6628 4.02662 92.6908L5.20519 92.9166L6.38375 93.1424C7.39766 87.8501 7.63559 78.6566 7.6316 69.5566C7.6296 64.9852 7.56602 60.4038 7.50373 56.3015C7.44135 52.1932 7.38047 48.576 7.38312 45.9131L6.18312 45.9119ZM5.20519 92.9166L4.02664 92.6907C3.70845 94.3509 3.21631 96.0355 2.71298 97.7982C2.21621 99.5379 1.71022 101.349 1.41235 103.162L2.59648 103.357L3.78062 103.551C4.05299 101.893 4.52093 100.207 5.02074 98.4571C5.514 96.7298 6.04109 94.9303 6.38374 93.1424L5.20519 92.9166ZM2.59648 103.357L1.41236 103.162C0.18182 110.651 0.671776 114.135 0.498815 121.614L1.69849 121.642L2.89817 121.669C3.07695 113.939 2.58631 110.819 3.78061 103.551L2.59648 103.357ZM1.69849 121.642L0.498814 121.614C0.332633 128.811 0.400478 132.138 0.0919994 139.036L1.2908 139.09L2.4896 139.143C2.79933 132.217 2.73394 128.782 2.89817 121.669L1.69849 121.642ZM1.2908 139.09L0.0919785 139.037C0.0622661 139.707 -0.0599916 140.394 -0.18351 141.221C-0.300637 142.006 -0.41455 142.9 -0.351222 143.798L0.845803 143.713L2.04283 143.629C1.99957 143.015 2.07485 142.349 2.19021 141.576C2.29919 140.845 2.45272 139.976 2.48962 139.143L1.2908 139.09ZM0.845803 143.713L-0.351138 143.799C-0.288031 144.681 -0.177269 145.613 -0.0873312 146.481C0.00463681 147.368 0.0778864 148.212 0.0828311 149.005L1.28281 148.997L2.48278 148.99C2.47707 148.074 2.3931 147.133 2.29988 146.233C2.20462 145.314 2.10221 144.459 2.04274 143.627L0.845803 143.713ZM1.28281 148.997L0.0828292 149.004C0.0966537 151.32 -0.33044 153.255 -0.71186 155.351C-1.08953 157.426 -1.40898 159.612 -1.02884 162.189L0.158319 162.014L1.34547 161.839C1.02481 159.665 1.28226 157.798 1.64937 155.78C2.01272 153.783 2.49827 151.585 2.48279 148.99L1.28281 148.997ZM0.158319 162.014L-1.02884 162.189C-0.746648 164.102 0.0693665 166.652 1.12325 168.984C2.16212 171.283 3.52538 173.581 5.00024 174.836L5.77809 173.922L6.55594 173.009C5.5047 172.114 4.31922 170.228 3.31029 167.996C2.31638 165.796 1.58556 163.467 1.34548 161.839L0.158319 162.014ZM5.77809 173.922L5.00038 174.836C6.17709 175.838 7.95416 177.105 9.73703 178.144C10.6304 178.664 11.5455 179.139 12.4036 179.495C13.2414 179.844 14.1111 180.117 14.8887 180.162L14.9579 178.964L15.027 177.766C14.6508 177.744 14.0756 177.592 13.3252 177.279C12.5951 176.976 11.7787 176.555 10.945 176.07C9.27376 175.096 7.61475 173.91 6.55581 173.008L5.77809 173.922ZM14.9579 178.964L14.8852 180.162C15.3838 180.192 15.7072 179.92 15.798 179.838C15.9222 179.726 16.0032 179.61 16.0471 179.542C16.1403 179.398 16.2088 179.244 16.2579 179.117C16.3611 178.851 16.4507 178.519 16.5091 178.162C16.6204 177.483 16.6571 176.477 16.2261 175.58L15.1444 176.099L14.0627 176.619C14.1859 176.875 14.2173 177.307 14.1407 177.774C14.1052 177.991 14.0552 178.159 14.0204 178.249C14.0005 178.3 14.0003 178.288 14.0311 178.24C14.0438 178.22 14.0952 178.142 14.192 178.054C14.2555 177.997 14.5539 177.737 15.0305 177.766L14.9579 178.964ZM15.1444 176.099L16.2264 175.581C15.6484 174.375 14.4437 173.414 13.5385 172.708C13.0407 172.319 12.61 171.994 12.2397 171.672C11.8616 171.344 11.6571 171.11 11.5659 170.95L10.5239 171.545L9.48184 172.141C9.78104 172.664 10.2403 173.114 10.6656 173.484C11.0987 173.86 11.6109 174.248 12.0618 174.6C13.0539 175.374 13.7691 176.007 14.0623 176.618L15.1444 176.099ZM10.5239 171.545L11.5658 170.95C11.2045 170.318 10.9726 169.186 10.8096 167.68C10.7312 166.957 10.673 166.202 10.6124 165.439C10.5525 164.685 10.4901 163.921 10.404 163.217L9.21284 163.362L8.02172 163.508C8.10077 164.154 8.1596 164.869 8.21996 165.629C8.27959 166.38 8.34065 167.173 8.42351 167.939C8.58289 169.411 8.84126 171.02 9.48197 172.141L10.5239 171.545ZM9.21284 163.362L10.4037 163.214C10.4223 163.364 10.4003 163.467 10.3975 163.48C10.3923 163.506 10.3897 163.507 10.3999 163.479C10.4205 163.422 10.4636 163.324 10.5365 163.183C10.6804 162.905 10.8909 162.556 11.1212 162.204C11.3501 161.854 11.5824 161.527 11.7611 161.295C11.8528 161.176 11.9163 161.101 11.9502 161.064C11.97 161.043 11.9584 161.058 11.9227 161.087C11.9061 161.101 11.8564 161.142 11.7807 161.184C11.7363 161.21 11.5217 161.333 11.2113 161.333V160.133V158.933C10.8893 158.933 10.6597 159.061 10.5973 159.096C10.5036 159.15 10.4327 159.205 10.3921 159.239C10.3085 159.308 10.2374 159.382 10.1882 159.435C10.0839 159.548 9.97055 159.687 9.86091 159.829C9.63702 160.119 9.36883 160.499 9.11311 160.889C8.85879 161.278 8.60048 161.702 8.40501 162.08C8.30833 162.267 8.21405 162.467 8.14399 162.66C8.09481 162.796 7.97528 163.135 8.02202 163.51L9.21284 163.362ZM11.2113 160.133V161.333C11.0861 161.333 10.9875 161.312 10.9289 161.297C10.8672 161.281 10.8196 161.263 10.7898 161.25C10.7321 161.226 10.6962 161.204 10.6882 161.199C10.6708 161.188 10.6812 161.193 10.7206 161.226C10.7952 161.288 10.9062 161.394 11.023 161.529C11.1398 161.664 11.2418 161.803 11.3137 161.928C11.3918 162.064 11.3989 162.122 11.3965 162.104L12.5863 161.947L13.7761 161.791C13.6755 161.025 13.171 160.343 12.8366 159.957C12.646 159.737 12.4444 159.539 12.26 159.384C12.1698 159.309 12.064 159.228 11.9512 159.158C11.8955 159.123 11.8171 159.079 11.723 159.039C11.6513 159.009 11.461 158.933 11.2113 158.933V160.133ZM12.5863 161.947L11.3963 162.102C11.4757 162.713 11.4943 163.374 11.5047 164.096C11.5147 164.794 11.5167 165.566 11.5769 166.294L12.7728 166.195L13.9687 166.096C13.9171 165.472 13.9151 164.807 13.9044 164.062C13.8941 163.341 13.8754 162.554 13.7763 161.793L12.5863 161.947ZM12.7728 166.195L11.5771 166.295C11.6592 167.271 11.9943 168.677 12.5407 169.895C12.8151 170.506 13.1672 171.126 13.6111 171.63C14.0489 172.127 14.6635 172.608 15.4656 172.729L15.6453 171.543L15.8251 170.356C15.7918 170.351 15.6473 170.31 15.412 170.043C15.1827 169.783 14.9476 169.396 14.7303 168.912C14.2935 167.939 14.0277 166.797 13.9686 166.094L12.7728 166.195ZM15.6453 171.543L15.4645 172.729C16.1667 172.836 16.9233 172.859 17.5476 172.426C17.8563 172.212 18.0411 171.947 18.1576 171.748C18.2482 171.593 18.3641 171.348 18.4007 171.276L17.3321 170.73L16.2635 170.184C16.2201 170.269 16.1743 170.364 16.1483 170.416C16.1167 170.48 16.0985 170.515 16.0851 170.537C16.061 170.579 16.0894 170.517 16.1792 170.454C16.275 170.388 16.3427 170.388 16.301 170.392C16.2442 170.397 16.1038 170.399 15.8262 170.357L15.6453 171.543ZM17.3321 170.73L18.4007 171.276C18.5438 170.996 18.5848 170.708 18.6013 170.522C18.6196 170.315 18.6171 170.101 18.6074 169.903C18.5881 169.51 18.533 169.058 18.4835 168.654C18.4313 168.228 18.3837 167.842 18.362 167.51C18.3514 167.346 18.3485 167.215 18.3523 167.115C18.3563 167.007 18.3667 166.978 18.3607 166.999L17.2068 166.669L16.053 166.339C15.9278 166.778 15.9426 167.289 15.9671 167.666C15.9942 168.081 16.0519 168.542 16.1013 168.945C16.1534 169.371 16.1961 169.731 16.2102 170.02C16.2173 170.163 16.2154 170.257 16.2106 170.311C16.204 170.386 16.1983 170.312 16.2635 170.184L17.3321 170.73ZM17.2068 166.669L18.3609 166.998C18.5518 166.328 18.5224 165.497 18.4633 164.859C18.4002 164.177 18.2819 163.522 18.1936 163.11L17.0203 163.362L15.8471 163.614C15.9212 163.96 16.0215 164.518 16.0736 165.08C16.1297 165.687 16.1123 166.131 16.0527 166.34L17.2068 166.669ZM17.0203 163.362L18.193 163.108C18.0121 162.274 18.0366 161.276 18.0962 160.083C18.1526 158.957 18.2421 157.639 18.0852 156.424L16.8951 156.578L15.705 156.732C15.8278 157.683 15.7601 158.745 15.6992 159.963C15.6416 161.115 15.5889 162.425 15.8476 163.617L17.0203 163.362ZM16.8951 156.578L18.0853 156.425C17.9899 155.684 17.663 154.782 17.2913 153.907C16.9075 153.004 16.4244 152.012 15.9472 151.06C15.4621 150.091 14.9925 149.181 14.6015 148.376C14.2001 147.55 13.9436 146.959 13.8523 146.629L12.6956 146.948L11.5388 147.267C11.698 147.844 12.0554 148.628 12.443 149.425C12.841 150.244 13.3355 151.204 13.8013 152.135C14.2751 153.08 14.7297 154.015 15.0823 154.846C15.447 155.704 15.655 156.344 15.7049 156.731L16.8951 156.578ZM12.6956 146.948L13.8522 146.628C13.6041 145.73 13.49 144.295 13.5298 142.757C13.5693 141.229 13.7569 139.744 14.036 138.766L12.8821 138.437L11.7282 138.108C11.3731 139.352 11.173 141.057 11.1306 142.695C11.0884 144.325 11.1981 146.034 11.5389 147.267L12.6956 146.948ZM12.8821 138.437L14.036 138.766C16.5091 130.102 17.5069 126.135 19.7095 117.213L18.5445 116.925L17.3795 116.638C15.18 125.547 14.19 129.483 11.7282 138.108L12.8821 138.437ZM18.5445 116.925L19.7095 117.213C21.5135 109.903 22.5278 103.588 23.6287 94.5756L22.4376 94.4301L21.2464 94.2846C20.1516 103.248 19.1515 109.457 17.3794 116.638L18.5445 116.925ZM22.4376 94.4301L23.6287 94.5754C23.8396 92.8464 24.1642 89.0542 24.5161 85.1465C24.8707 81.2085 25.2537 77.1451 25.5843 74.802L24.3961 74.6343L23.2079 74.4667C22.867 76.8826 22.4786 81.0131 22.1257 84.9312C21.7702 88.8795 21.4512 92.6057 21.2464 94.2848L22.4376 94.4301ZM24.3961 74.6343L23.1962 74.6185C23.172 76.4543 23.6009 79.9948 24.2306 83.8236C24.8654 87.6837 25.7238 91.9508 26.5952 95.2851L27.7562 94.9817L28.9172 94.6783C28.0699 91.4362 27.2256 87.2456 26.5988 83.4341C25.9668 79.5914 25.5749 76.2465 25.596 74.6502L24.3961 74.6343ZM27.7562 94.9817L26.5952 95.285C27.1115 97.2612 27.1705 101.06 26.8724 105.746C26.5781 110.372 25.9495 115.692 25.1798 120.603L26.3653 120.789L27.5508 120.975C28.3293 116.008 28.9677 110.613 29.2676 105.898C29.5637 101.243 29.5441 97.0775 28.9173 94.6783L27.7562 94.9817ZM26.3653 120.789L25.1797 120.603C24.4188 125.465 22.9007 129.628 21.3949 134.803C19.899 139.944 18.48 145.902 18.0285 154.106L19.2267 154.172L20.4248 154.238C20.8633 146.27 22.2369 140.5 23.6994 135.473C25.152 130.481 26.7583 126.039 27.5509 120.975L26.3653 120.789ZM19.2267 154.172L18.0285 154.106C17.3142 167.087 18.448 180.475 19.6089 193.391L20.8041 193.284L21.9993 193.176C20.8366 180.24 19.7215 167.019 20.4248 154.238L19.2267 154.172ZM20.8041 193.284L19.609 193.391C20.4895 203.174 22.3293 212.974 24.358 222.426L25.5312 222.174L26.7045 221.922C24.6829 212.503 22.8668 202.814 21.9993 193.176L20.8041 193.284ZM25.5312 222.174L24.358 222.426C25.0819 225.798 24.7705 229.554 24.6095 233.306L25.8084 233.358L27.0073 233.409C27.1607 229.833 27.5101 225.675 26.7045 221.922L25.5312 222.174ZM25.8084 233.358L24.6095 233.306C24.5348 235.055 24.6243 236.813 24.7019 238.492C24.7805 240.191 24.8472 241.814 24.7492 243.39L25.9469 243.465L27.1446 243.539C27.2518 241.814 27.1773 240.067 27.0994 238.381C27.0204 236.673 26.9381 235.029 27.0073 233.409L25.8084 233.358ZM25.9469 243.465L24.7492 243.39C24.5541 246.529 23.8809 249.686 23.2416 252.987C22.6097 256.251 22.0164 259.636 22.0664 263.06L23.2663 263.042L24.4662 263.025C24.4202 259.874 24.966 256.707 25.5979 253.444C26.2223 250.218 26.9374 246.873 27.1446 243.539L25.9469 243.465ZM23.2663 263.042L22.0664 263.06C22.2811 277.574 25.2023 292.855 27.2612 307.232L28.4491 307.062L29.6369 306.892C27.5549 292.353 24.6778 277.336 24.4661 263.024L23.2663 263.042ZM28.4491 307.062L27.2612 307.233C27.4118 308.283 27.653 309.406 27.9046 310.521C28.1597 311.652 28.4242 312.77 28.6416 313.874C29.0858 316.13 29.2655 318.034 28.8581 319.397L30.0079 319.741L31.1576 320.084C31.7521 318.095 31.4389 315.658 30.9964 313.41C30.7705 312.263 30.4933 311.09 30.2458 309.993C29.9948 308.88 29.7727 307.839 29.6369 306.892L28.4491 307.062ZM30.0079 319.741L28.8582 319.397C28.4816 320.656 27.5487 322.029 26.3677 323.616C25.2411 325.131 23.8956 326.832 23.0002 328.56L24.0657 329.112L25.1312 329.664C25.9119 328.158 27.0911 326.665 28.2934 325.049C29.4414 323.505 30.6415 321.81 31.1576 320.085L30.0079 319.741ZM24.0657 329.112L23.0001 328.561C22.5791 329.374 21.7363 330.138 20.6203 330.908C20.0752 331.285 19.5002 331.64 18.9215 331.993C18.3543 332.34 17.7696 332.693 17.2564 333.04L17.929 334.034L18.6015 335.028C19.0569 334.72 19.583 334.401 20.1724 334.041C20.7503 333.688 21.3775 333.302 21.9839 332.883C23.1708 332.064 24.4277 331.023 25.1313 329.664L24.0657 329.112ZM17.929 334.034L17.2569 333.04C16.5763 333.5 15.9484 334.028 15.3703 334.531C14.7748 335.05 14.251 335.525 13.7043 335.96L14.4516 336.898L15.1988 337.837C15.8007 337.358 16.3987 336.818 16.9463 336.341C17.5113 335.849 18.0479 335.402 18.601 335.028L17.929 334.034ZM14.4516 336.898L13.7038 335.96C13.6221 336.025 13.4648 336.134 13.2111 336.307C12.9761 336.468 12.685 336.665 12.3924 336.875C11.8614 337.257 11.1214 337.82 10.724 338.412L11.7203 339.081L12.7166 339.75C12.8361 339.572 13.2126 339.242 13.7935 338.824C14.0568 338.635 14.3205 338.456 14.5635 338.29C14.7879 338.137 15.0319 337.97 15.1994 337.837L14.4516 336.898ZM11.7203 339.081L10.7237 338.412C10.2507 339.118 10.0471 339.837 10.1899 340.511C10.2591 340.839 10.4048 341.119 10.5937 341.338C10.6866 341.445 10.7975 341.546 10.926 341.631C11.0329 341.701 11.2383 341.817 11.516 341.848L11.651 340.656L11.786 339.463C12.0284 339.491 12.1871 339.588 12.2421 339.624C12.3187 339.674 12.3724 339.726 12.4092 339.768C12.4859 339.857 12.5233 339.945 12.5379 340.015C12.5714 340.173 12.4731 340.113 12.7168 339.749L11.7203 339.081ZM11.651 340.656L10.843 339.768C10.2288 340.328 9.92458 341.1 9.91066 341.794C9.9037 342.142 9.96824 342.553 10.1915 342.927C10.433 343.332 10.8556 343.67 11.4273 343.739L11.5711 342.548L11.7149 341.356C11.8279 341.37 11.9453 341.412 12.0497 341.484C12.1509 341.554 12.215 341.635 12.2525 341.697C12.3207 341.812 12.3095 341.877 12.3102 341.843C12.3116 341.773 12.3565 341.636 12.4591 341.543L11.651 340.656ZM11.5711 342.548L10.4453 342.132C10.161 342.903 10.1584 343.743 10.608 344.42C11.0648 345.107 11.8617 345.412 12.6342 345.267L12.4131 344.088L12.192 342.908C12.249 342.898 12.3278 342.9 12.4121 342.934C12.4978 342.97 12.565 343.028 12.6068 343.091C12.6987 343.229 12.5947 343.24 12.6969 342.963L11.5711 342.548ZM12.4131 344.088L11.3385 343.554C10.8638 344.509 11.163 345.483 11.7286 346.085C12.2758 346.668 13.1845 347.029 14.1211 346.732L13.7588 345.588L13.3964 344.444C13.4305 344.433 13.4605 344.437 13.4736 344.441C13.4789 344.443 13.4805 344.444 13.4797 344.443C13.4788 344.443 13.478 344.442 13.478 344.442C13.478 344.442 13.481 344.445 13.4853 344.453C13.4897 344.462 13.4959 344.476 13.5 344.497C13.5042 344.519 13.5054 344.545 13.5019 344.57C13.4984 344.597 13.4914 344.614 13.4877 344.622L12.4131 344.088ZM13.7588 345.588L12.5992 345.897C12.7956 346.634 13.2242 347.196 13.7976 347.563C14.3443 347.913 14.9597 348.048 15.5129 348.08C16.5995 348.142 17.7441 347.824 18.5166 347.43L17.9716 346.361L17.4266 345.292C16.9654 345.527 16.242 345.717 15.6498 345.684C15.3637 345.667 15.1871 345.603 15.0919 345.542C15.0235 345.498 14.9604 345.437 14.9183 345.279L13.7588 345.588ZM17.9716 346.361L16.7769 346.474C16.9322 348.113 18.1631 348.994 19.2767 349.393C20.3859 349.79 21.6566 349.836 22.5947 349.669L22.3843 348.487L22.1738 347.306C21.6011 347.408 20.7587 347.375 20.0859 347.134C19.4175 346.894 19.1975 346.577 19.1662 346.248L17.9716 346.361ZM22.3843 348.487L22.5957 349.668C24.4932 349.329 26.4064 348.738 28.1158 347.413L27.3805 346.465L26.6452 345.516C25.3649 346.509 23.8779 347.001 22.1728 347.306L22.3843 348.487ZM27.3805 346.465L28.1151 347.414C28.5973 347.04 29.0665 346.398 29.3741 345.972C29.5549 345.721 29.6959 345.52 29.829 345.342C29.9803 345.139 30.0255 345.1 29.9984 345.123L29.2218 344.208L28.4452 343.293C28.233 343.473 28.035 343.733 27.9058 343.906C27.7584 344.103 27.5816 344.354 27.4281 344.567C27.0668 345.067 26.8006 345.396 26.646 345.516L27.3805 346.465ZM29.2218 344.208L29.9952 345.125C30.4577 344.735 31.0474 344.43 31.8057 344.035C32.511 343.667 33.3689 343.218 34.0855 342.574L33.2827 341.682L32.48 340.79C32.0241 341.2 31.4365 341.521 30.6968 341.906C30.0102 342.264 29.1557 342.694 28.4485 343.29L29.2218 344.208ZM33.2827 341.682L34.0855 342.574C34.8094 341.922 35.2452 341.085 35.5633 340.404C35.9203 339.64 36.1131 339.132 36.3996 338.706L35.4038 338.036L34.4081 337.367C33.9831 337.999 33.6483 338.833 33.3891 339.388C33.091 340.026 32.8219 340.482 32.48 340.79L33.2827 341.682ZM35.4038 338.036L36.3992 338.707C36.662 338.316 37.121 337.846 37.6747 337.451C38.2357 337.05 38.7887 336.8 39.2148 336.733L39.0278 335.548L38.8407 334.362C37.9159 334.508 37.0139 334.973 36.2793 335.498C35.5373 336.028 34.8598 336.696 34.4085 337.366L35.4038 338.036ZM39.0278 335.548L39.2127 336.733C40.1866 336.581 41.3993 336.322 42.511 335.805C43.626 335.286 44.741 334.458 45.3425 333.119L44.2478 332.627L43.1532 332.135C42.87 332.766 42.3063 333.253 41.4981 333.629C40.6866 334.007 39.7315 334.223 38.8429 334.362L39.0278 335.548ZM44.2478 332.627L45.3428 333.118C46.3752 330.816 45.9912 327.831 45.5057 325.794L44.3384 326.072L43.1711 326.35C43.6396 328.316 43.8365 330.612 43.1529 332.136L44.2478 332.627ZM44.3384 326.072L45.5053 325.792C45.3344 325.08 45.0419 324.146 44.8755 323.515C44.6833 322.786 44.5644 322.156 44.5737 321.594L43.3738 321.574L42.174 321.554C42.1593 322.452 42.3469 323.338 42.5549 324.127C42.7889 325.014 42.9907 325.598 43.1716 326.352L44.3384 326.072ZM43.3738 321.574L44.5737 321.593C44.5736 321.596 44.5742 321.573 44.583 321.504C44.5914 321.439 44.6037 321.359 44.6207 321.253C44.6531 321.052 44.7004 320.775 44.7397 320.471C44.819 319.859 44.8782 319.064 44.753 318.21L43.5657 318.384L42.3784 318.559C42.4584 319.104 42.4256 319.654 42.3597 320.163C42.3264 320.419 42.2877 320.646 42.2514 320.871C42.2207 321.061 42.1777 321.327 42.174 321.555L43.3738 321.574ZM43.5657 318.384L44.7527 318.208C44.6167 317.291 44.3224 316.504 44.0693 315.86C43.7988 315.172 43.6086 314.718 43.5245 314.272L42.3453 314.494L41.1661 314.716C41.3031 315.443 41.6086 316.161 41.8357 316.738C42.0802 317.36 42.2855 317.932 42.3787 318.56L43.5657 318.384ZM42.3453 314.494L43.5245 314.272C43.199 312.546 43.1757 310.722 43.1546 308.815L41.9546 308.828L40.7547 308.841C40.7754 310.709 40.7948 312.748 41.1661 314.716L42.3453 314.494ZM41.9546 308.828L43.1546 308.815L43.1535 308.717L41.9536 308.73L40.7536 308.744L40.7547 308.841L41.9546 308.828ZM41.9536 308.73L43.1535 308.716C43.0914 303.528 44.6402 298.194 45.6486 292.792L44.469 292.572L43.2894 292.352C42.342 297.427 40.6878 303.242 40.7537 308.745L41.9536 308.73ZM44.469 292.572L45.6486 292.792C46.917 286.002 48.3944 278.944 48.7055 271.923L47.5067 271.87L46.3079 271.817C46.0062 278.626 44.5737 285.477 43.2894 292.351L44.469 292.572ZM47.5067 271.87L48.7056 271.923C48.9001 267.524 48.7569 263.107 48.265 258.701L47.0724 258.835L45.8798 258.968C46.3578 263.249 46.497 267.54 46.3079 271.817L47.5067 271.87ZM47.0724 258.835L48.2649 258.7C48.1967 258.094 48.1103 257.483 48.0262 256.887C47.9414 256.286 47.8587 255.7 47.7928 255.118C47.6605 253.951 47.6033 252.859 47.7256 251.839L46.5341 251.696L45.3426 251.553C45.1878 252.846 45.2678 254.151 45.408 255.388C45.4783 256.009 45.5657 256.627 45.6498 257.223C45.7347 257.824 45.8162 258.402 45.8799 258.969L47.0724 258.835ZM46.5341 251.696L47.7256 251.838C48.0962 248.739 49.1712 245.655 50.3193 242.414C51.4505 239.22 52.6541 235.869 53.1269 232.426L51.9381 232.263L50.7492 232.099C50.316 235.254 49.2067 238.366 48.057 241.613C46.9241 244.811 45.7501 248.145 45.3426 251.553L46.5341 251.696ZM51.9381 232.263L53.1269 232.426C53.5806 229.12 53.5117 225.784 53.4076 222.539C53.3024 219.263 53.1624 216.093 53.4321 212.97L52.2365 212.866L51.0409 212.763C50.7563 216.061 50.9054 219.396 51.0088 222.616C51.1132 225.867 51.1722 229.018 50.7492 232.099L51.9381 232.263ZM52.2365 212.866L53.4321 212.969C54.0577 205.709 55.2087 198.355 56.3533 191.045L55.1677 190.86L53.9822 190.674C52.8399 197.969 51.6749 205.406 51.0409 212.763L52.2365 212.866ZM55.1677 190.86L56.3533 191.045L56.3772 190.893L55.1916 190.707L54.0061 190.521L53.9822 190.674L55.1677 190.86ZM55.1916 190.707L56.3771 190.893C57.0489 186.609 57.7362 182.356 58.688 178.172L57.5179 177.906L56.3478 177.64C55.3757 181.913 54.6774 186.241 54.0061 190.521L55.1916 190.707ZM57.5179 177.906L58.6882 178.171C58.7839 177.749 58.8814 177.048 58.9828 176.304C59.0883 175.529 59.2056 174.645 59.3432 173.78C59.4815 172.909 59.6348 172.093 59.8062 171.455C59.8921 171.135 59.975 170.889 60.0506 170.715C60.1383 170.513 60.17 170.518 60.0969 170.583L59.2979 169.688L58.4988 168.793C58.1779 169.079 57.9783 169.462 57.8496 169.758C57.7088 170.082 57.5903 170.453 57.4883 170.833C57.2838 171.594 57.115 172.509 56.9729 173.403C56.8301 174.302 56.7085 175.217 56.6047 175.98C56.4968 176.772 56.4143 177.346 56.3476 177.641L57.5179 177.906ZM59.2979 169.688L60.0951 170.585C59.9356 170.727 59.7709 170.796 59.6557 170.831C59.5417 170.865 59.4464 170.875 59.3894 170.878C59.2818 170.883 59.2043 170.871 59.194 170.869C59.1744 170.867 59.1662 170.864 59.1825 170.868C59.2 170.872 59.2135 170.875 59.2504 170.883C59.3114 170.897 59.4098 170.919 59.5224 170.935C59.6355 170.952 59.7798 170.967 59.9417 170.962L59.9081 169.763L59.8744 168.563C59.8973 168.563 59.8878 168.567 59.7777 168.542C59.7545 168.537 59.6451 168.51 59.5527 168.496C59.5052 168.489 59.3959 168.474 59.263 168.481C59.1651 168.486 58.8157 168.511 58.5006 168.791L59.2979 169.688ZM59.9081 169.763L59.9291 170.963C60.0876 170.96 60.2302 170.941 60.3423 170.921C60.4544 170.901 60.5542 170.877 60.6193 170.861C60.6572 170.852 60.6753 170.847 60.6955 170.843C60.715 170.838 60.7125 170.839 60.6994 170.841C60.6956 170.842 60.6286 170.855 60.5331 170.854C60.4833 170.854 60.3918 170.85 60.2794 170.823C60.1694 170.796 59.9854 170.735 59.8034 170.583L60.5716 169.662L61.3397 168.74C61.1517 168.583 60.9597 168.518 60.8397 168.489C60.7173 168.46 60.6139 168.455 60.5504 168.454C60.4275 168.453 60.3259 168.47 60.2813 168.478C60.192 168.494 60.0857 168.521 60.0522 168.529C59.9954 168.543 59.9572 168.552 59.924 168.557C59.8907 168.563 59.8804 168.563 59.887 168.563L59.9081 169.763ZM60.5716 169.662L59.8076 170.587C59.7198 170.514 59.7468 170.495 59.8352 170.691C59.9105 170.859 59.9942 171.1 60.0812 171.418C60.2549 172.052 60.4093 172.868 60.5482 173.742C60.6864 174.612 60.8034 175.501 60.909 176.282C61.0103 177.033 61.108 177.742 61.2052 178.171L62.3755 177.906L63.5459 177.641C63.4779 177.341 63.3953 176.761 63.2874 175.961C63.1836 175.192 63.0621 174.27 62.9185 173.366C62.7756 172.467 62.605 171.547 62.3961 170.784C62.2918 170.404 62.1699 170.031 62.0234 169.706C61.8901 169.41 61.6792 169.02 61.3355 168.736L60.5716 169.662ZM62.3755 177.906L61.2053 178.171C62.1546 182.356 62.8447 186.61 63.5163 190.893L64.7018 190.707L65.8873 190.521C65.2159 186.24 64.5151 181.913 63.5458 177.641L62.3755 177.906ZM64.7018 190.707L63.5163 190.893C64.668 198.246 65.8049 205.627 66.4617 212.973L67.6569 212.866L68.8521 212.76C68.1873 205.323 67.0379 197.867 65.8873 190.521L64.7018 190.707ZM67.6569 212.866L66.4617 212.974C66.7428 216.108 66.6024 219.276 66.4939 222.547C66.3864 225.787 66.3113 229.118 66.7666 232.426L67.9554 232.263L69.1441 232.099C68.7201 229.017 68.7848 225.875 68.8926 222.626C68.9992 219.409 69.1493 216.073 68.8521 212.759L67.6569 212.866ZM67.9554 232.263L66.7665 232.426C67.2393 235.869 68.4429 239.22 69.5741 242.414C70.7222 245.655 71.7972 248.739 72.1678 251.838L73.3593 251.696L74.5508 251.553C74.1433 248.145 72.9693 244.811 71.8364 241.613C70.6867 238.366 69.5774 235.254 69.1442 232.099L67.9554 232.263ZM73.3593 251.696L72.1678 251.839C72.2901 252.859 72.2329 253.95 72.1006 255.117C72.0347 255.699 71.952 256.285 71.8672 256.886C71.7831 257.482 71.6967 258.094 71.6285 258.701L72.821 258.835L74.0135 258.969C74.0772 258.401 74.1587 257.823 74.2436 257.222C74.3277 256.626 74.4151 256.007 74.4854 255.387C74.6256 254.15 74.7056 252.846 74.5508 251.553L73.3593 251.696ZM72.821 258.835L71.6285 258.701C71.1338 263.107 70.9933 267.524 71.1879 271.923L72.3867 271.87L73.5855 271.817C73.3963 267.54 73.533 263.248 74.0135 258.968L72.821 258.835ZM72.3867 271.87L71.1879 271.923C71.499 278.944 72.9736 285.999 74.2449 292.793L75.4244 292.572L76.6039 292.351C75.3171 285.475 73.8872 278.626 73.5855 271.817L72.3867 271.87ZM75.4244 292.572L74.2448 292.792C75.2532 298.194 76.802 303.528 76.7399 308.716L77.9398 308.73L79.1398 308.745C79.2056 303.242 77.5514 297.427 76.604 292.352L75.4244 292.572ZM77.9398 308.73L76.7399 308.715L76.7377 308.899L77.9376 308.914L79.1375 308.929L79.1397 308.745L77.9398 308.73ZM77.9376 308.914L76.7377 308.899C76.7145 310.779 76.6893 312.573 76.3689 314.272L77.5481 314.494L78.7273 314.716C79.0932 312.777 79.1148 310.769 79.1375 308.928L77.9376 308.914ZM77.5481 314.494L76.3689 314.272C76.2848 314.717 76.0948 315.171 75.8242 315.859C75.571 316.503 75.2766 317.29 75.1407 318.209L76.3277 318.384L77.5148 318.56C77.608 317.931 77.8132 317.359 78.0576 316.738C78.2847 316.16 78.5903 315.443 78.7273 314.716L77.5481 314.494ZM76.3277 318.384L75.1404 318.21C75.0152 319.064 75.0744 319.86 75.1536 320.472C75.193 320.776 75.2403 321.054 75.2727 321.255C75.2897 321.36 75.3021 321.44 75.3104 321.505C75.3192 321.574 75.3198 321.597 75.3197 321.593L76.5196 321.574L77.7194 321.555C77.7158 321.327 77.6726 321.062 77.642 320.872C77.6057 320.647 77.567 320.42 77.5338 320.164C77.4678 319.655 77.435 319.104 77.515 318.559L76.3277 318.384ZM76.5196 321.574L75.3197 321.594C75.3289 322.153 75.2071 322.782 75.0116 323.516C74.8366 324.173 74.5543 325.066 74.3852 325.804L75.555 326.072L76.7247 326.34C76.8887 325.624 77.1007 324.997 77.3307 324.134C77.5403 323.347 77.7342 322.456 77.7194 321.554L76.5196 321.574ZM75.555 326.072L74.385 325.805C74.1444 326.86 73.9216 328.121 73.8852 329.384C73.8491 330.633 73.9916 331.985 74.5692 333.158L75.6456 332.627L76.722 332.097C76.3882 331.419 76.2536 330.511 76.2842 329.453C76.3143 328.409 76.5019 327.317 76.7249 326.339L75.555 326.072ZM75.6456 332.627L74.5686 333.156C75.1893 334.419 76.2437 335.233 77.3406 335.762C78.4311 336.288 79.6325 336.567 80.6777 336.733L80.8656 335.548L81.0536 334.362C80.1162 334.214 79.174 333.981 78.3832 333.6C77.5988 333.222 77.0345 332.732 76.7225 332.098L75.6456 332.627ZM80.8656 335.548L80.6767 336.733C81.1065 336.801 81.6613 337.051 82.2214 337.451C82.7748 337.846 83.2318 338.314 83.4923 338.704L84.4896 338.036L85.4869 337.369C85.0359 336.695 84.3577 336.027 83.6155 335.497C82.8799 334.972 81.9784 334.51 81.0546 334.363L80.8656 335.548ZM84.4896 338.036L83.4938 338.706C83.7803 339.132 83.9731 339.64 84.3301 340.404C84.6482 341.085 85.084 341.922 85.8079 342.574L86.6107 341.682L87.4134 340.79C87.0715 340.482 86.8024 340.026 86.5043 339.388C86.2451 338.833 85.9103 337.999 85.4853 337.367L84.4896 338.036ZM86.6107 341.682L85.8079 342.574C86.5245 343.218 87.3824 343.667 88.0877 344.035C88.846 344.43 89.4357 344.735 89.8982 345.125L90.6716 344.208L91.445 343.29C90.7377 342.694 89.8832 342.264 89.1966 341.906C88.4569 341.521 87.8693 341.2 87.4134 340.79L86.6107 341.682ZM90.6716 344.208L89.8988 345.126C89.8696 345.101 89.9136 345.138 90.0651 345.341C90.1975 345.518 90.3389 345.72 90.5193 345.97C90.8269 346.396 91.2954 347.038 91.7759 347.412L92.5129 346.465L93.2499 345.518C93.0935 345.396 92.8266 345.065 92.4653 344.565C92.3113 344.352 92.1349 344.101 91.9869 343.903C91.8579 343.731 91.6588 343.47 91.4444 343.29L90.6716 344.208ZM92.5129 346.465L91.7786 347.414C93.4752 348.726 95.4258 349.388 97.3311 349.674L97.5091 348.487L97.6871 347.3C96.0751 347.059 94.5404 346.516 93.2472 345.516L92.5129 346.465ZM97.5091 348.487L97.3317 349.674C98.2232 349.807 99.4773 349.788 100.59 349.408C101.721 349.021 102.952 348.148 103.116 346.478L101.922 346.361L100.728 346.244C100.691 346.612 100.465 346.914 99.8137 347.137C99.1449 347.366 98.2926 347.391 97.6865 347.3L97.5091 348.487ZM101.922 346.361L101.373 347.428C102.154 347.829 103.298 348.146 104.384 348.081C104.937 348.047 105.55 347.91 106.094 347.56C106.664 347.194 107.092 346.636 107.292 345.905L106.135 345.588L104.977 345.271C104.933 345.431 104.868 345.495 104.797 345.541C104.7 345.603 104.524 345.668 104.24 345.685C103.653 345.72 102.934 345.532 102.47 345.293L101.922 346.361ZM106.135 345.588L105.772 346.732C106.709 347.029 107.618 346.668 108.165 346.085C108.73 345.483 109.03 344.509 108.555 343.554L107.48 344.088L106.406 344.622C106.402 344.614 106.395 344.597 106.391 344.57C106.388 344.545 106.389 344.519 106.393 344.497C106.397 344.476 106.404 344.462 106.408 344.453C106.412 344.445 106.415 344.442 106.415 344.442C106.415 344.442 106.415 344.443 106.414 344.443C106.413 344.444 106.415 344.443 106.42 344.441C106.433 344.437 106.463 344.433 106.497 344.444L106.135 345.588ZM107.48 344.088L107.259 345.267C108.032 345.412 108.829 345.107 109.285 344.42C109.735 343.743 109.732 342.903 109.448 342.132L108.322 342.548L107.197 342.963C107.299 343.24 107.195 343.229 107.287 343.091C107.328 343.028 107.396 342.97 107.481 342.934C107.566 342.9 107.644 342.898 107.701 342.908L107.48 344.088ZM108.322 342.548L108.466 343.739C109.038 343.67 109.46 343.332 109.702 342.927C109.925 342.553 109.99 342.142 109.983 341.794C109.969 341.1 109.665 340.328 109.05 339.768L108.242 340.656L107.434 341.543C107.537 341.636 107.582 341.773 107.583 341.843C107.584 341.877 107.573 341.812 107.641 341.697C107.678 341.635 107.743 341.554 107.844 341.484C107.948 341.412 108.065 341.37 108.179 341.356L108.322 342.548ZM108.242 340.656L108.377 341.848C108.655 341.817 108.86 341.701 108.967 341.631C109.096 341.546 109.207 341.445 109.3 341.338C109.489 341.119 109.634 340.839 109.704 340.511C109.846 339.837 109.643 339.118 109.17 338.412L108.173 339.081L107.177 339.749C107.42 340.113 107.322 340.173 107.356 340.015C107.37 339.945 107.408 339.857 107.484 339.768C107.521 339.726 107.575 339.674 107.651 339.624C107.706 339.588 107.865 339.491 108.107 339.463L108.242 340.656ZM108.173 339.081L109.169 338.412C108.772 337.82 108.032 337.257 107.501 336.875C107.208 336.665 106.917 336.468 106.682 336.307C106.429 336.134 106.271 336.025 106.19 335.96L105.442 336.898L104.694 337.837C104.862 337.97 105.106 338.137 105.33 338.29C105.573 338.456 105.837 338.635 106.1 338.824C106.681 339.242 107.057 339.572 107.177 339.75L108.173 339.081ZM105.442 336.898L106.188 335.959C105.641 335.524 105.117 335.049 104.521 334.53C103.944 334.027 103.316 333.499 102.636 333.04L101.964 334.034L101.293 335.028C101.844 335.401 102.379 335.848 102.945 336.34C103.493 336.817 104.092 337.359 104.696 337.838L105.442 336.898ZM101.964 334.034L102.636 333.04C102.113 332.686 101.527 332.326 100.96 331.973C100.382 331.613 99.8103 331.253 99.2697 330.874C98.1646 330.1 97.3209 329.337 96.8792 328.534L95.8277 329.112L94.7762 329.691C95.4937 330.995 96.7191 332.018 97.8929 332.84C98.4918 333.259 99.1122 333.65 99.6913 334.01C100.281 334.377 100.817 334.706 101.292 335.028L101.964 334.034ZM95.8277 329.112L96.8787 328.533C95.9739 326.891 94.6314 325.193 93.5122 323.669C92.3388 322.07 91.4085 320.66 91.0363 319.401L89.8855 319.741L88.7347 320.081C89.2419 321.798 90.4274 323.522 91.5775 325.089C92.782 326.73 93.9708 328.229 94.7768 329.692L95.8277 329.112ZM89.8855 319.741L91.0362 319.4C90.6354 318.046 90.8161 316.135 91.259 313.872C91.4757 312.765 91.739 311.643 91.9925 310.512C92.2426 309.397 92.4823 308.276 92.6322 307.233L91.4444 307.062L90.2565 306.892C90.1213 307.834 89.9003 308.874 89.6507 309.987C89.4044 311.086 89.1287 312.261 88.9037 313.411C88.4633 315.662 88.1497 318.104 88.7349 320.081L89.8855 319.741ZM91.4444 307.062L92.6322 307.232C94.6908 292.865 97.6311 277.587 97.827 263.058L96.6271 263.042L95.4272 263.026C95.2341 277.35 92.3388 292.359 90.2565 306.892L91.4444 307.062ZM96.6271 263.042L97.827 263.058C97.8728 259.629 97.2804 256.246 96.6498 252.985C96.012 249.686 95.3406 246.532 95.1441 243.39L93.9465 243.465L92.7488 243.54C92.9574 246.875 93.6703 250.217 94.2935 253.44C94.9239 256.701 95.4694 259.868 95.4272 263.026L96.6271 263.042ZM93.9465 243.465L95.1442 243.39C95.0461 241.813 95.1097 240.187 95.1866 238.487C95.2625 236.809 95.3518 235.052 95.2841 233.311L94.085 233.358L92.8859 233.404C92.9489 235.023 92.8663 236.67 92.789 238.379C92.7126 240.068 92.6417 241.815 92.7488 243.539L93.9465 243.465ZM94.085 233.358L95.2841 233.311C95.1391 229.564 94.8113 225.802 95.5355 222.426L94.3622 222.174L93.1889 221.922C92.3835 225.677 92.7485 229.855 92.8859 233.404L94.085 233.358ZM94.3622 222.174L95.5355 222.426C97.564 212.972 99.4066 203.176 100.284 193.391L99.0893 193.284L97.8941 193.177C97.0293 202.816 95.2106 212.5 93.1889 221.922L94.3622 222.174ZM99.0893 193.284L100.284 193.391C101.449 180.431 102.142 167.093 101.866 154.146L100.667 154.172L99.467 154.197C99.7403 167.029 99.0533 180.273 97.8941 193.176L99.0893 193.284ZM100.667 154.172L101.866 154.146C101.668 144.896 100.264 138.907 98.6998 133.982C97.1198 129.006 95.5012 125.423 94.7124 120.595L93.5281 120.789L92.3438 120.982C93.1698 126.038 94.9247 130.024 96.4124 134.708C97.9158 139.442 99.2739 145.203 99.467 154.198L100.667 154.172ZM93.5281 120.789L94.7124 120.595C93.9168 115.729 93.3861 110.463 93.1477 105.851C92.9078 101.209 92.9692 97.3239 93.3214 95.1758L92.1372 94.9817L90.953 94.7876C90.5564 97.2067 90.5098 101.311 90.7509 105.975C90.9935 110.667 91.5327 116.021 92.3439 120.983L93.5281 120.789ZM92.1372 94.9817L93.3213 95.1759C93.93 91.4653 94.5607 87.0904 94.9694 83.0948C95.374 79.1382 95.575 75.4316 95.275 73.1234L94.085 73.278L92.895 73.4326C93.1547 75.4305 92.9879 78.8798 92.5818 82.8506C92.1797 86.7824 91.5568 91.1063 90.953 94.7875L92.1372 94.9817ZM94.085 73.278L92.9143 73.5416C93.3141 75.3171 95.9296 90.7913 96.3705 94.5692L97.5624 94.4301L98.7543 94.291C98.3052 90.4426 95.6767 74.8841 95.2557 73.0144L94.085 73.278ZM97.5624 94.4301L96.3705 94.5688C97.4275 103.65 98.1189 109.025 100.289 118.012L101.455 117.73L102.622 117.448C100.486 108.603 99.8078 103.341 98.7544 94.2914L97.5624 94.4301ZM101.455 117.73L100.289 118.012C101.224 121.886 102.153 124.944 103.142 128.096C104.131 131.248 105.177 134.484 106.364 138.758L107.52 138.437L108.677 138.116C107.476 133.794 106.416 130.512 105.432 127.377C104.448 124.243 103.539 121.245 102.622 117.448L101.455 117.73ZM107.52 138.437L106.364 138.758C106.94 140.833 107.086 142.743 106.553 144.606L107.707 144.936L108.861 145.266C109.554 142.84 109.326 140.454 108.676 138.116L107.52 138.437ZM107.707 144.936L106.553 144.606C106.012 146.497 105.657 147.918 104.688 149.279L105.666 149.975L106.643 150.671C107.902 148.903 108.357 147.026 108.86 145.266L107.707 144.936ZM105.666 149.975L104.689 149.278C103.212 151.349 102.223 154.433 101.915 156.827L103.105 156.98L104.295 157.134C104.568 155.014 105.455 152.337 106.643 150.672L105.666 149.975ZM103.105 156.98L101.915 156.828C101.759 158.044 101.849 159.36 101.905 160.486C101.964 161.678 101.988 162.676 101.807 163.51L102.98 163.765L104.152 164.019C104.411 162.828 104.359 161.518 104.302 160.367C104.241 159.149 104.173 158.086 104.295 157.133L103.105 156.98ZM102.98 163.765L101.807 163.509C101.717 163.923 101.598 164.58 101.536 165.262C101.477 165.901 101.448 166.731 101.639 167.4L102.793 167.072L103.947 166.743C103.887 166.533 103.87 166.088 103.925 165.482C103.977 164.92 104.077 164.363 104.152 164.021L102.98 163.765ZM102.793 167.072L101.639 167.4C101.633 167.38 101.644 167.41 101.648 167.518C101.651 167.618 101.649 167.749 101.638 167.913C101.616 168.246 101.569 168.631 101.516 169.057C101.467 169.461 101.412 169.913 101.393 170.305C101.383 170.503 101.38 170.718 101.399 170.924C101.415 171.111 101.456 171.398 101.599 171.678L102.668 171.132L103.737 170.586C103.802 170.714 103.796 170.788 103.789 170.713C103.785 170.659 103.783 170.566 103.79 170.423C103.804 170.134 103.847 169.774 103.899 169.349C103.948 168.946 104.006 168.485 104.033 168.069C104.057 167.692 104.072 167.181 103.947 166.743L102.793 167.072ZM102.668 171.132L101.599 171.678C101.872 172.212 102.323 172.657 102.845 172.927C103.366 173.198 104.083 173.351 104.803 173.061L104.355 171.948L103.906 170.835C104.011 170.793 104.04 170.843 103.95 170.797C103.911 170.777 103.866 170.745 103.824 170.703C103.782 170.661 103.753 170.619 103.737 170.586L102.668 171.132ZM104.355 171.948L104.806 173.06C106.057 172.552 106.908 171.311 107.438 170.206C107.991 169.051 108.34 167.739 108.423 166.695L107.227 166.6L106.031 166.505C105.973 167.233 105.709 168.26 105.273 169.169C104.814 170.128 104.299 170.675 103.903 170.836L104.355 171.948ZM107.227 166.6L108.423 166.696C108.482 165.968 108.484 165.197 108.494 164.5C108.505 163.779 108.524 163.118 108.604 162.507L107.414 162.352L106.224 162.198C106.125 162.959 106.105 163.743 106.095 164.464C106.084 165.209 106.082 165.875 106.031 166.504L107.227 166.6ZM107.414 162.352L108.603 162.509C108.601 162.526 108.608 162.468 108.686 162.333C108.758 162.208 108.86 162.068 108.976 161.934C109.093 161.799 109.204 161.693 109.278 161.631C109.317 161.598 109.327 161.594 109.309 161.605C109.301 161.61 109.265 161.632 109.207 161.656C109.177 161.669 109.13 161.687 109.068 161.703C109.01 161.718 108.912 161.738 108.789 161.738V160.538V159.338C108.541 159.338 108.352 159.412 108.279 159.443C108.185 159.482 108.106 159.527 108.05 159.562C107.936 159.632 107.83 159.713 107.739 159.789C107.554 159.944 107.352 160.143 107.162 160.363C106.827 160.749 106.324 161.431 106.224 162.196L107.414 162.352ZM108.789 160.538V161.738C108.478 161.738 108.264 161.615 108.219 161.589C108.144 161.547 108.094 161.506 108.077 161.492C108.042 161.463 108.03 161.448 108.05 161.469C108.084 161.506 108.147 161.581 108.239 161.7C108.418 161.932 108.65 162.259 108.879 162.609C109.109 162.961 109.32 163.31 109.463 163.588C109.536 163.729 109.579 163.827 109.6 163.884C109.61 163.912 109.608 163.911 109.602 163.885C109.6 163.872 109.578 163.769 109.596 163.619L110.787 163.767L111.978 163.915C112.025 163.54 111.905 163.201 111.856 163.065C111.786 162.872 111.692 162.672 111.595 162.485C111.4 162.108 111.141 161.683 110.887 161.295C110.631 160.904 110.363 160.524 110.139 160.234C110.029 160.092 109.916 159.953 109.812 159.84C109.763 159.787 109.691 159.713 109.608 159.644C109.567 159.61 109.496 159.555 109.403 159.501C109.34 159.466 109.111 159.338 108.789 159.338V160.538ZM110.787 163.767L109.596 163.621C109.51 164.323 109.449 165.087 109.39 165.84C109.331 166.603 109.275 167.357 109.198 168.082C109.038 169.59 108.805 170.719 108.44 171.346L109.476 171.951L110.513 172.555C111.17 171.429 111.428 169.809 111.585 168.336C111.666 167.569 111.725 166.774 111.783 166.025C111.842 165.266 111.899 164.554 111.978 163.914L110.787 163.767ZM109.476 171.951L108.439 171.346C108.341 171.516 108.129 171.754 107.75 172.083C107.378 172.406 106.948 172.731 106.452 173.119C105.549 173.825 104.352 174.782 103.774 175.985L104.856 176.504L105.937 177.024C106.231 176.412 106.942 175.782 107.93 175.01C108.379 174.659 108.89 174.272 109.324 173.895C109.751 173.524 110.209 173.076 110.513 172.555L109.476 171.951ZM104.856 176.504L103.773 175.986C103.344 176.882 103.382 177.888 103.493 178.565C103.551 178.922 103.64 179.253 103.743 179.518C103.791 179.644 103.859 179.797 103.95 179.94C103.993 180.008 104.072 180.122 104.192 180.233C104.278 180.312 104.597 180.591 105.097 180.568L105.042 179.369L104.987 178.17C105.465 178.148 105.76 178.415 105.818 178.468C105.912 178.554 105.962 178.632 105.974 178.65C106.003 178.696 106.002 178.707 105.982 178.655C105.947 178.564 105.897 178.394 105.861 178.177C105.784 177.709 105.816 177.278 105.938 177.023L104.856 176.504ZM105.042 179.369L105.111 180.567C105.892 180.522 106.763 180.249 107.602 179.9C108.462 179.543 109.377 179.068 110.269 178.547C112.051 177.508 113.825 176.241 115 175.241L114.222 174.327L113.444 173.413C112.386 174.314 110.73 175.501 109.061 176.474C108.228 176.96 107.412 177.38 106.681 177.684C105.93 177.996 105.353 178.149 104.973 178.171L105.042 179.369ZM114.222 174.327L114.999 175.242C116.476 173.986 117.84 171.688 118.879 169.389C119.933 167.057 120.748 164.507 121.029 162.593L119.842 162.419L118.654 162.245C118.416 163.872 117.686 166.201 116.692 168.401C115.683 170.633 114.497 172.518 113.445 173.413L114.222 174.327ZM119.842 162.419L121.029 162.594C121.407 160.029 121.091 157.242 120.72 154.598C120.339 151.887 119.903 149.339 119.917 146.998L118.717 146.991L117.517 146.983C117.502 149.55 117.979 152.342 118.343 154.932C118.716 157.588 118.977 160.06 118.655 162.244L119.842 162.419ZM118.717 146.991H119.917C119.917 146.201 119.988 145.359 120.078 144.473C120.167 143.607 120.277 142.673 120.34 141.792L119.144 141.707L117.947 141.621C117.887 142.453 117.785 143.307 117.691 144.229C117.599 145.129 117.517 146.072 117.517 146.991H118.717ZM77.7773 -22.7058C78.9692 -22.5666 78.9692 -22.5668 78.9693 -22.5671C78.9693 -22.5672 78.9693 -22.5675 78.9693 -22.5678C78.9694 -22.5683 78.9695 -22.569 78.9696 -22.5699C78.9698 -22.5715 78.97 -22.5739 78.9704 -22.5768C78.971 -22.5826 78.972 -22.5909 78.9732 -22.6016C78.9756 -22.623 78.979 -22.654 78.9833 -22.6941C78.9919 -22.7744 79.004 -22.8912 79.0185 -23.0411C79.0475 -23.3409 79.0861 -23.7731 79.1249 -24.3094C79.2024 -25.381 79.2814 -26.873 79.2874 -28.5565C79.2991 -31.8803 79.0288 -36.1145 77.7965 -39.3119L76.6768 -38.8803L75.5571 -38.4488C76.6191 -35.6933 76.899 -31.8403 76.8874 -28.565C76.8817 -26.949 76.8057 -25.5136 76.7311 -24.4826C76.6938 -23.9676 76.657 -23.5547 76.6297 -23.2722C76.616 -23.131 76.6048 -23.0224 76.597 -22.95C76.5931 -22.9138 76.5901 -22.8867 76.5881 -22.869C76.5871 -22.8602 76.5864 -22.8538 76.5859 -22.8498C76.5857 -22.8477 76.5856 -22.8463 76.5855 -22.8456C76.5854 -22.8452 76.5854 -22.8449 76.5854 -22.8448C76.5854 -22.8448 76.5854 -22.8448 76.5854 -22.8448C76.5854 -22.8449 76.5854 -22.845 77.7773 -22.7058ZM76.6768 -38.8803L77.7965 -39.3119C75.8608 -44.3338 69.9278 -51.12 59.3618 -51.12V-49.92V-48.72C68.7488 -48.72 73.9062 -42.7318 75.5571 -38.4488L76.6768 -38.8803ZM59.3618 -49.92V-51.12H59.3512V-49.92V-48.72H59.3618V-49.92ZM59.3512 -49.92V-51.12H59.3405V-49.92V-48.72H59.3512V-49.92ZM59.3405 -49.92V-51.12C48.7718 -51.12 42.8415 -44.3337 40.9058 -39.3119L42.0255 -38.8803L43.1452 -38.4488C44.7962 -42.732 49.9509 -48.72 59.3405 -48.72V-49.92ZM42.0255 -38.8803L40.9058 -39.3119C39.6735 -36.1146 39.4051 -31.9006 39.4189 -28.5957C39.4259 -26.9219 39.506 -25.4397 39.5843 -24.3754C39.6235 -23.8427 39.6624 -23.4135 39.6916 -23.1159C39.7062 -22.967 39.7184 -22.851 39.7271 -22.7713C39.7314 -22.7314 39.7349 -22.7007 39.7373 -22.6794C39.7385 -22.6688 39.7395 -22.6605 39.7402 -22.6547C39.7405 -22.6518 39.7408 -22.6495 39.741 -22.6478C39.7411 -22.6469 39.7411 -22.6462 39.7412 -22.6457C39.7412 -22.6454 39.7413 -22.6452 39.7413 -22.645C39.7413 -22.6448 39.7413 -22.6446 40.933 -22.7858C42.1247 -22.927 42.1247 -22.9269 42.1247 -22.9268C42.1247 -22.9268 42.1247 -22.9267 42.1247 -22.9268C42.1247 -22.9269 42.1247 -22.9271 42.1246 -22.9275C42.1245 -22.9282 42.1244 -22.9296 42.1241 -22.9316C42.1237 -22.9356 42.1229 -22.942 42.1219 -22.9507C42.1199 -22.9682 42.1169 -22.9951 42.113 -23.031C42.1052 -23.1027 42.0939 -23.2104 42.0801 -23.3505C42.0526 -23.6307 42.0155 -24.0403 41.9778 -24.5515C41.9025 -25.5748 41.8256 -27 41.8189 -28.6057C41.8053 -31.8599 42.0832 -35.6932 43.1452 -38.4488L42.0255 -38.8803ZM40.933 -22.7858C41.6914 -23.7158 41.6909 -23.7162 41.6904 -23.7166C41.6902 -23.7167 41.6897 -23.7171 41.6894 -23.7174C41.6887 -23.7179 41.6881 -23.7185 41.6874 -23.719C41.686 -23.7201 41.6846 -23.7213 41.6831 -23.7225C41.6801 -23.7248 41.677 -23.7274 41.6736 -23.73C41.6669 -23.7353 41.6594 -23.7411 41.6511 -23.7474C41.6345 -23.76 41.6147 -23.7745 41.5917 -23.7905C41.5461 -23.8224 41.4866 -23.861 41.4146 -23.9015C41.2745 -23.9802 41.066 -24.0777 40.8052 -24.1348C40.2206 -24.2629 39.4786 -24.1562 38.8582 -23.5191L39.7179 -22.6819L40.5776 -21.8447C40.5897 -21.857 40.5556 -21.8198 40.4718 -21.7972C40.3936 -21.776 40.3277 -21.7825 40.2914 -21.7905C40.26 -21.7973 40.2439 -21.8063 40.2388 -21.8092C40.2343 -21.8118 40.228 -21.8156 40.2186 -21.8221C40.2138 -21.8255 40.2079 -21.8298 40.2007 -21.8352C40.1971 -21.838 40.1931 -21.841 40.1888 -21.8444C40.1866 -21.8461 40.1844 -21.8479 40.182 -21.8498C40.1808 -21.8508 40.1796 -21.8517 40.1784 -21.8527C40.1778 -21.8532 40.1772 -21.8537 40.1765 -21.8542C40.1762 -21.8545 40.1758 -21.8549 40.1756 -21.855C40.1751 -21.8554 40.1746 -21.8558 40.933 -22.7858ZM39.7179 -22.6819L38.8585 -23.5194C38.1543 -22.7968 38.133 -21.7495 38.1946 -21.0389C38.2637 -20.2398 38.4892 -19.3571 38.7421 -18.5507C38.9985 -17.7328 39.3024 -16.934 39.5557 -16.292C39.8275 -15.6033 40.0036 -15.1834 40.065 -14.9922L41.2075 -15.3594L42.3499 -15.7265C42.2568 -16.0163 42.0162 -16.595 41.7882 -17.1729C41.5417 -17.7975 41.2627 -18.5334 41.0322 -19.2687C40.798 -20.0155 40.6325 -20.7044 40.5856 -21.2459C40.5311 -21.8758 40.6686 -21.938 40.5773 -21.8443L39.7179 -22.6819ZM41.2075 -15.3594L40.0653 -14.9913C40.065 -14.9923 40.0821 -14.9287 40.1025 -14.7462C40.1214 -14.5777 40.1366 -14.3753 40.1554 -14.1226C40.1911 -13.6408 40.237 -13.0087 40.3508 -12.3917C40.4622 -11.788 40.6584 -11.0766 41.0664 -10.4799C41.5093 -9.8321 42.1989 -9.33303 43.1547 -9.26231L43.2433 -10.459L43.3318 -11.6558C43.2071 -11.665 43.1406 -11.6985 43.0475 -11.8346C42.9195 -12.0218 42.7998 -12.3456 42.711 -12.8271C42.6246 -13.2954 42.586 -13.7984 42.5488 -14.3003C42.531 -14.5395 42.5125 -14.7911 42.4876 -15.0137C42.4642 -15.2222 42.4272 -15.4866 42.3496 -15.7274L41.2075 -15.3594ZM43.2433 -10.459L42.089 -10.1309C42.901 -7.27471 44.8606 -3.50756 47.5189 -0.655602L48.3967 -1.4738L49.2745 -2.29199C46.8859 -4.85463 45.1097 -8.28207 44.3975 -10.7872L43.2433 -10.459ZM71.1236 -1.98275L71.9799 -1.14204C74.5097 -3.71862 75.941 -7.76957 76.6109 -10.1316L75.4564 -10.459L74.3019 -10.7864C73.6448 -8.46936 72.3422 -4.93668 70.2674 -2.82346L71.1236 -1.98275ZM75.4564 -10.459L75.5434 -9.2622C76.4995 -9.33176 77.1896 -9.83015 77.633 -10.4781C78.0412 -11.0746 78.2375 -11.7861 78.3489 -12.3897C78.4627 -13.0067 78.5085 -13.639 78.5443 -14.1212C78.5631 -14.374 78.5782 -14.5767 78.5971 -14.7455C78.6176 -14.9282 78.6347 -14.9924 78.6347 -14.9922L77.4922 -15.3594L76.3497 -15.7265C76.2724 -15.4858 76.2354 -15.2214 76.2121 -15.0126C76.1871 -14.7899 76.1686 -14.5381 76.1509 -14.2987C76.1136 -13.7965 76.075 -13.2933 75.9887 -12.8251C75.8998 -12.3436 75.7802 -12.0202 75.6524 -11.8335C75.5598 -11.6981 75.4938 -11.6649 75.3693 -11.6559L75.4564 -10.459ZM77.4922 -15.3594L78.6344 -14.9913C78.7007 -15.1971 78.8797 -15.653 79.1404 -16.3523C79.3877 -17.0155 79.6839 -17.8354 79.9413 -18.665C80.1955 -19.4844 80.4274 -20.3619 80.5266 -21.1298C80.5761 -21.5121 80.5996 -21.9171 80.5563 -22.2987C80.5152 -22.66 80.3974 -23.1544 80.0266 -23.554L79.1469 -22.7378L78.2673 -21.9216C78.1363 -22.0628 78.1563 -22.1627 78.1716 -22.0278C78.1846 -21.9133 78.183 -21.7204 78.1465 -21.4375C78.0737 -20.8749 77.8899 -20.1523 77.6491 -19.3762C77.4115 -18.6104 77.1335 -17.8395 76.8917 -17.1908C76.6633 -16.5783 76.4383 -16.0013 76.35 -15.7274L77.4922 -15.3594ZM79.1469 -22.7378L80.0282 -23.5523C79.7113 -23.8952 79.321 -24.1258 78.8811 -24.2088C78.4559 -24.289 78.0806 -24.2134 77.8045 -24.112C77.5318 -24.0118 77.3189 -23.8736 77.1819 -23.7712C77.1107 -23.7181 77.0526 -23.6691 77.0094 -23.6304C76.9876 -23.6109 76.9691 -23.5937 76.9542 -23.5793C76.9467 -23.5721 76.9401 -23.5656 76.9343 -23.5599C76.9314 -23.557 76.9287 -23.5543 76.9262 -23.5518C76.925 -23.5506 76.9238 -23.5494 76.9227 -23.5483C76.9222 -23.5477 76.9216 -23.5471 76.9211 -23.5466C76.9208 -23.5463 76.9204 -23.5459 76.9203 -23.5458C76.9199 -23.5454 76.9195 -23.545 77.7773 -22.7058C78.6351 -21.8667 78.6347 -21.8663 78.6343 -21.8659C78.6342 -21.8658 78.6339 -21.8654 78.6336 -21.8652C78.6331 -21.8647 78.6326 -21.8642 78.6322 -21.8637C78.6312 -21.8627 78.6303 -21.8618 78.6294 -21.8609C78.6276 -21.8591 78.626 -21.8575 78.6245 -21.856C78.6215 -21.853 78.6189 -21.8505 78.6169 -21.8486C78.6128 -21.8446 78.6104 -21.8425 78.6096 -21.8417C78.6082 -21.8405 78.6115 -21.8435 78.6179 -21.8483C78.6361 -21.8619 78.6437 -21.8635 78.6321 -21.8592C78.6172 -21.8537 78.5437 -21.8301 78.4362 -21.8504C78.314 -21.8734 78.2576 -21.9321 78.2657 -21.9233L79.1469 -22.7378ZM48.3967 -1.4738L47.5184 -0.656116C47.5413 -0.631573 47.5644 -0.607044 47.588 -0.582546L48.4539 -1.41333L49.3198 -2.24412C49.3046 -2.25988 49.2897 -2.27567 49.275 -2.29148L48.3967 -1.4738ZM48.4539 -1.41333L47.2544 -1.37891C47.3551 2.13344 47.5335 5.00957 46.4517 7.42294L47.5467 7.91381L48.6417 8.40468C50.0022 5.3698 49.7472 1.82078 49.6534 -1.44775L48.4539 -1.41333ZM70.6908 -1.56161L71.5074 -0.682304C71.6697 -0.832962 71.8271 -0.986336 71.98 -1.14214L71.1236 -1.98275L70.2673 -2.82336C70.1395 -2.69323 70.0086 -2.5657 69.8742 -2.44092L70.6908 -1.56161ZM71.8484 7.91381L72.945 7.42645C71.7389 4.71281 71.7874 2.28582 71.8863 -1.37807L70.6868 -1.41044L69.4872 -1.44282C69.3901 2.15371 69.2931 5.119 70.7518 8.40118L71.8484 7.91381ZM70.6868 -1.41044L71.8863 -1.37811L71.8904 -1.52928L70.6908 -1.56161L69.4913 -1.59394L69.4872 -1.44277L70.6868 -1.41044Z" fill="#EAEAEA" mask="url(#path-1-outside-1_25_19792)"/>
<path d="M58.7703 63.744C58.7703 63.744 58.7703 72.3749 58.7703 73.9257C53.0786 74.2588 46.2304 76.3132 41.9642 78.7754C41.9642 76.7316 41.9642 64.4715 41.9642 64.4715L58.7703 63.744Z" fill="#C7C7C7"/>
<path d="M58.7703 76.4995C52.5829 76.8379 45.8973 78.991 41.9642 81.4372C41.9642 83.2545 41.9642 91.8613 41.9642 91.8613L58.7703 91.4376C58.7703 91.4376 58.7703 78.0237 58.7703 76.4995Z" fill="#C7C7C7"/>
<path d="M58.7703 94.0384H41.9642V104.865H58.7703V94.0384Z" fill="#C7C7C7"/>
<path d="M42.1292 107.46C44.213 107.529 58.7701 107.46 58.7701 107.46C58.7701 107.46 58.7701 158.973 58.7701 159.498C56.3319 159.378 52.2203 157.734 50.1872 156.271C50.0619 155.909 42.1292 127.541 42.1292 107.46Z" fill="#C7C7C7"/>
<path d="M27.5084 125.098C30.1944 131.277 40.7545 148.169 47.2323 153.85C40.1469 132.343 41.6285 110.117 38.1138 104.809C36.0061 101.625 32.5367 100.919 29.8427 97.1855C29.4483 107.237 28.156 120.051 27.5084 125.098Z" fill="#C7C7C7"/>
<path d="M29.8401 67.5037C31.9931 73.763 39.8752 75.3005 39.8752 75.3005V81.9515C39.8752 81.9515 33.8264 80.5632 31.6733 77.8426C29.976 75.6975 29.2538 72.3934 29.8401 67.5037Z" fill="#C7C7C7"/>
<path d="M30.7355 57.3832C32.8886 63.6425 39.878 64.5618 39.878 64.5618V72.4305C39.878 72.4305 34.7299 71.2874 32.5289 68.2257C30.8208 65.8515 30.5677 63.2108 30.7355 57.3832Z" fill="#C7C7C7"/>
<path d="M28.2307 76.2331C30.5143 83.2172 39.8779 84.6747 39.8779 84.6747V91.3257C39.8779 91.3257 34.1409 90.068 31.6761 87.6192C29.8934 85.8472 27.6924 82.0101 28.2307 76.2331Z" fill="#C7C7C7"/>
<path d="M27.4231 84.8292C30.1091 92.6207 39.8777 94.2115 39.8777 94.2115V100.46C39.8777 100.46 34.0048 98.7974 31.6759 96.3512C30.1411 94.7418 28.0946 91.9465 27.4231 84.8292Z" fill="#C7C7C7"/>
<path d="M61.0962 63.744C61.0962 63.744 61.0962 72.3749 61.0962 73.9257C66.7879 74.2588 73.6361 76.3132 77.9023 78.7754C77.9023 76.7316 77.9023 64.4715 77.9023 64.4715L61.0962 63.744Z" fill="#C7C7C7"/>
<path d="M61.0962 76.4995C67.2836 76.8379 73.9692 78.991 77.9023 81.4372C77.9023 83.2545 77.9023 91.8613 77.9023 91.8613L61.0962 91.4376C61.0962 91.4376 61.0962 78.0237 61.0962 76.4995Z" fill="#C7C7C7"/>
<path d="M77.9023 94.0384H61.0962V104.865H77.9023V94.0384Z" fill="#C7C7C7"/>
<path d="M77.737 107.46C75.6533 107.529 61.0962 107.46 61.0962 107.46C61.0962 107.46 61.0962 158.973 61.0962 159.498C63.5344 159.378 67.646 157.734 69.6791 156.271C69.8043 155.909 77.737 127.541 77.737 107.46Z" fill="#C7C7C7"/>
<path d="M92.3609 125.098C89.6749 131.277 79.1148 148.169 72.637 153.85C79.7224 132.343 78.2408 110.117 81.7555 104.809C83.8633 101.625 87.3326 100.919 90.0266 97.1855C90.4183 107.237 91.7134 120.051 92.3609 125.098Z" fill="#C7C7C7"/>
<path d="M90.0265 67.5037C87.8735 73.763 79.9914 75.3005 79.9914 75.3005V81.9515C79.9914 81.9515 86.0402 80.5632 88.1932 77.8426C89.8906 75.6975 90.6127 72.3934 90.0265 67.5037Z" fill="#C7C7C7"/>
<path d="M89.1313 57.3832C86.9782 63.6425 79.9888 64.5618 79.9888 64.5618V72.4305C79.9888 72.4305 85.1369 71.2874 87.3379 68.2257C89.046 65.8515 89.2991 63.2108 89.1313 57.3832Z" fill="#C7C7C7"/>
<path d="M91.6386 76.2331C89.355 83.2172 79.9914 84.6747 79.9914 84.6747V91.3257C79.9914 91.3257 85.7284 90.068 88.1932 87.6192C89.9732 85.8472 92.1742 82.0101 91.6386 76.2331Z" fill="#C7C7C7"/>
<path d="M92.4434 84.8292C89.7575 92.6207 79.9888 94.2115 79.9888 94.2115V100.46C79.9888 100.46 85.8617 98.7974 88.1906 96.3512C89.7281 94.7418 91.7719 91.9465 92.4434 84.8292Z" fill="#C7C7C7"/>
<path d="M26.3654 49.0483C28.2999 51.8596 28.9794 55.0625 29.0194 58.4519C29.086 64.1037 26.9783 70.6241 26.3494 76.3665C22.4723 69.878 25.2009 60.7036 26.3654 49.0483Z" fill="#C7C7C7"/>
<path d="M93.5012 49.0483C91.5667 51.8596 90.8872 55.0625 90.8472 58.4519C90.7806 64.1037 92.8883 70.6241 93.5172 76.3665C97.3943 69.878 94.6683 60.7036 93.5012 49.0483Z" fill="#C7C7C7"/>
<path d="M27.6974 32.8979C35.1904 28.4026 48.2206 26.9024 55.0475 29.4018C60.0437 35.8956 58.77 61.4737 58.77 61.4737C58.77 61.4737 41.7295 64.5061 35.8566 60.3732C30.4313 56.5547 27.6974 44.22 27.6974 32.8979Z" fill="#C7C7C7"/>
<path d="M92.1689 32.8979C84.6759 28.4026 71.6457 26.9024 64.8188 29.4018C59.8226 35.8956 61.0963 61.4737 61.0963 61.4737C61.0963 61.4737 78.1368 64.5061 84.0097 60.3732C89.435 56.5547 92.1689 44.22 92.1689 32.8979Z" fill="#C7C7C7"/>
<path d="M7.9789 87.0119C16.3966 94.6861 4.81061 110.794 4.49085 141.035C4.08849 141.419 3.39035 141.288 2.99598 141.07C2.2552 121.762 3.02795 104.836 7.9789 87.0119Z" fill="#C7C7C7"/>
<path d="M22.3791 84.9385C22.2219 90.4517 21.8222 93.9797 20.9615 98.9599C18.8298 111.271 13.3032 128.543 11.1156 141.456C10.6785 141.675 9.7619 141.499 9.49544 141.123C13.1647 122.326 14.5157 106.181 17.9691 95.0216C19.4027 90.3797 21.2759 88.4025 22.3791 84.9385Z" fill="#C7C7C7"/>
<path d="M19.8633 87.3793C19.0932 88.8502 17.6277 91.5922 16.6044 95.3174C13.8518 105.334 10.6249 123.869 7.78439 140.995C7.34738 141.344 6.64924 141.214 6.28951 140.926C9.07675 120.024 10.2972 102.659 12.7993 94.3981C13.8998 90.7661 17.8968 89.3459 19.8633 87.3793Z" fill="#C7C7C7"/>
<path d="M111.888 87.0119C103.47 94.6861 115.056 110.794 115.373 141.035C115.776 141.419 116.474 141.288 116.868 141.07C117.612 121.762 116.839 104.836 111.888 87.0119Z" fill="#C7C7C7"/>
<path d="M97.4876 84.9385C97.6448 90.4517 98.0445 93.9797 98.9052 98.9599C101.037 111.271 106.563 128.543 108.751 141.456C109.188 141.675 110.105 141.499 110.371 141.123C106.702 122.326 105.351 106.181 101.898 95.0216C100.464 90.3797 98.5908 88.4025 97.4876 84.9385Z" fill="#C7C7C7"/>
<path d="M100.003 87.3793C100.774 88.8502 102.239 91.5922 103.262 95.3174C106.015 105.334 109.242 123.869 112.082 140.995C112.519 141.344 113.218 141.214 113.577 140.926C110.79 120.024 109.57 102.659 107.067 94.3981C105.967 90.7661 101.97 89.3459 100.003 87.3793Z" fill="#C7C7C7"/>
<path d="M42.6488 25.194C36.7013 23.5366 30.6125 19.2092 27.0019 18.4577C22.7064 17.5624 15.256 21.0185 11.8133 26.7581C9.40444 30.7738 6.77176 39.1062 8.50645 48.2193C18.9226 45.616 18.9573 37.2196 25.0327 32.2287C29.0084 28.9645 38.3987 25.8388 42.6488 25.194Z" fill="#C7C7C7"/>
<path d="M77.2174 25.194C83.1649 23.5366 89.2537 19.2092 92.8643 18.4577C97.1597 17.5624 104.61 21.0185 108.053 26.7581C110.462 30.7738 113.094 39.1062 111.36 48.2193C100.944 45.616 100.909 37.2196 94.8335 32.2287C90.8578 28.9645 81.4702 25.8388 77.2174 25.194Z" fill="#C7C7C7"/>
<path d="M32.8112 15.6441C35.7157 14.8687 44.4344 12.3506 47.3389 10.6079C49.0816 14.8687 51.2133 19.5452 53.3451 23.4196C48.4794 22.9959 38.2338 19.9049 32.8112 15.6441Z" fill="#C7C7C7"/>
<path d="M87.0583 15.6441C84.1538 14.8687 75.435 12.3506 72.5305 10.6079C70.7878 14.8687 68.6561 19.5452 66.5244 23.4196C71.39 22.9959 81.633 19.9049 87.0583 15.6441Z" fill="#C7C7C7"/>
<path d="M24.4467 36.8899C25.0969 50.5596 21.2331 76.5108 16.013 86.9509C14.5288 87.9422 10.8782 87.8649 9.88697 86.8736C7.90712 78.9516 6.84925 58.8947 8.71451 51.4336C14.3556 50.7835 18.691 45.7233 24.4467 36.8899Z" fill="#3179FF"/>
<path d="M95.4226 36.8899C94.7724 50.5596 98.6362 76.5108 103.856 86.9509C105.34 87.9422 108.991 87.8649 109.982 86.8736C111.962 78.9516 113.02 58.8947 111.155 51.4336C105.511 50.7835 101.178 45.7233 95.4226 36.8899Z" fill="#3179FF"/>
</g>
<defs>
<clipPath id="clip0_25_19792">
<rect width="120" height="120" fill="white"/>
</clipPath>
</defs>
</svg>
