<svg width="120" height="120" viewBox="0 0 120 120" fill="none" xmlns="http://www.w3.org/2000/svg">
<g clip-path="url(#clip0_25_19794)">
<rect width="120" height="398.48" transform="translate(0 -43.6801)" fill="#EAEAEA"/>
<mask id="path-1-outside-1_25_19794" maskUnits="userSpaceOnUse" x="-2" y="-45.6801" width="124" height="402" fill="black">
<rect fill="white" x="-2" y="-45.6801" width="124" height="402"/>
<path d="M118.699 143.323C118.765 144.826 119.253 146.436 119.144 147.947C119.021 149.66 118.717 151.523 118.717 153.231C118.688 158.139 120.542 163.911 119.842 168.659C119.322 172.2 116.751 178.417 114.222 180.567C111.989 182.467 107.363 185.476 105.042 185.609C104.869 185.617 104.304 183.896 104.856 182.744C105.727 180.93 108.671 179.571 109.476 178.19C110.499 176.437 110.457 172.693 110.787 170.007C110.854 169.472 108.975 166.778 108.789 166.778C108.599 166.778 107.518 167.801 107.414 168.592C107.235 169.965 107.336 171.484 107.227 172.84C107.086 174.612 106.001 177.519 104.355 178.188C103.739 178.436 102.98 177.983 102.668 177.372C102.356 176.762 103.044 174.191 102.793 173.311C102.543 172.432 102.814 170.761 102.98 170.005C103.419 167.979 102.828 165.389 103.105 163.22C103.395 160.963 104.333 158.083 105.666 156.215C106.779 154.651 107.185 153.001 107.707 151.176C108.32 149.031 108.133 146.883 107.52 144.677C105.133 136.081 103.307 131.641 101.455 123.97C99.3025 115.054 98.6176 109.735 97.5624 100.67C97.1174 96.8569 94.4954 81.3406 94.085 79.518C94.6446 83.8241 93.3496 93.8299 92.1372 101.222C91.3884 105.789 91.9213 117.202 93.5281 127.029C95.1429 136.912 100.275 142.167 100.667 160.412C100.941 173.301 100.251 186.592 99.0893 199.524C98.2179 209.236 96.3873 218.976 94.3622 228.414C93.5974 231.979 93.9438 235.95 94.085 239.598C94.2156 242.958 93.7413 246.403 93.9465 249.705C94.3515 256.183 96.7151 262.695 96.6271 269.282C96.4326 283.709 93.5148 298.852 91.4444 313.302C90.8741 317.273 88.8996 322.65 89.8855 325.981C90.7649 328.957 94.117 332.248 95.8277 335.352C96.9869 337.46 99.966 338.923 101.964 340.274C103.196 341.105 104.291 342.225 105.442 343.138C105.94 343.536 107.656 344.551 108.173 345.321C108.89 346.389 108.384 346.88 108.242 346.896C108.959 347.549 108.941 348.713 108.322 348.788C108.709 349.835 108.12 350.448 107.48 350.328C107.909 351.191 106.993 352.1 106.135 351.828C105.647 353.611 103.166 353.24 101.922 352.601C101.722 354.639 99.0067 354.951 97.5091 354.727C95.7505 354.463 94.0078 353.861 92.5129 352.705C91.876 352.209 91.042 350.759 90.6716 350.448C89.5018 349.462 87.7831 348.977 86.6107 347.922C85.5448 346.962 85.201 345.334 84.4896 344.276C83.7781 343.213 82.2193 342.003 80.8656 341.788C78.8831 341.473 76.5782 340.764 75.6456 338.867C74.7343 337.018 75.0913 334.345 75.555 332.312C75.8881 330.857 76.5436 329.274 76.5196 327.814C76.5116 327.318 76.1225 326.023 76.3277 324.624C76.5569 323.076 77.327 321.906 77.5481 320.734C77.8913 318.915 77.9147 317.014 77.9376 315.154L77.9398 314.97C78.0038 309.625 76.4023 304.051 75.4244 298.812C74.1454 291.977 72.6931 285.025 72.3867 278.11C72.1948 273.772 72.3334 269.418 72.821 265.075C73.0848 262.727 73.6364 260.249 73.3593 257.936C72.5812 251.429 68.8613 245.1 67.9554 238.503C67.076 232.113 68.2351 225.555 67.6569 219.106C66.9961 211.715 65.8529 204.296 64.7018 196.947C64.0303 192.665 63.3348 188.375 62.3755 184.146C62.0451 182.688 61.5948 176.746 60.5716 175.902C60.5236 175.862 60.2118 175.997 59.9081 176.003C59.6229 176.011 59.3458 175.886 59.2979 175.928C58.3066 176.813 57.843 182.712 57.5179 184.146C56.5559 188.375 55.8631 192.665 55.1916 196.947L55.1677 197.1C54.0243 204.402 52.8663 211.797 52.2365 219.106C51.6823 225.528 52.8147 232.115 51.9381 238.503C51.0321 245.1 47.3122 251.429 46.5341 257.936C46.257 260.249 46.8086 262.73 47.0724 265.075C47.5574 269.418 47.6986 273.772 47.5067 278.11C47.2003 285.025 45.7454 291.98 44.469 298.812C43.4911 304.051 41.8896 309.625 41.9536 314.97L41.9546 315.068C41.9755 316.956 41.9969 318.887 42.3453 320.734C42.5664 321.906 43.3365 323.079 43.5657 324.624C43.7709 326.023 43.3818 327.316 43.3738 327.814C43.3499 329.274 43.9867 330.846 44.3384 332.312C44.8154 334.313 45.1059 336.954 44.2478 338.867C43.3632 340.836 40.8904 341.497 39.0278 341.788C37.6768 342.001 36.118 343.216 35.4038 344.276C34.6924 345.334 34.3486 346.962 33.2827 347.922C32.1103 348.977 30.3916 349.462 29.2218 350.448C28.8514 350.762 28.0174 352.212 27.3805 352.705C25.8856 353.864 24.1856 354.405 22.3843 354.727C20.8734 354.996 18.1581 354.57 17.9716 352.601C16.7379 353.23 14.2357 353.619 13.7588 351.828C12.9007 352.1 11.9841 351.191 12.4131 350.328C11.7736 350.448 11.1847 349.835 11.5711 348.788C10.9529 348.713 10.9342 347.549 11.651 346.896C11.5098 346.88 11.0035 346.389 11.7203 345.321C12.2372 344.551 13.9533 343.536 14.4516 343.138C15.6 342.225 16.6952 341.108 17.929 340.274C19.8662 338.963 22.9412 337.524 24.0657 335.352C25.7418 332.117 29.1152 328.965 30.0079 325.981C31.0098 322.629 29.022 317.297 28.4491 313.302C26.3786 298.844 23.4795 283.695 23.2663 269.282C23.1704 262.708 25.5446 256.177 25.9469 249.705C26.1521 246.403 25.6645 242.966 25.8084 239.598C25.9656 235.934 26.296 231.977 25.5312 228.414C23.5061 218.978 21.6781 209.234 20.8041 199.524C19.6423 186.598 18.5179 173.293 19.2267 160.412C20.1166 144.24 24.8118 136.955 26.3653 127.029C27.9135 117.151 28.8994 105.597 27.7562 101.222C26.0375 94.6453 24.3508 84.3064 24.3961 80.8743C23.7246 85.6334 22.8533 97.262 22.4376 100.67C21.3397 109.658 20.3325 115.92 18.5445 123.165C16.3435 132.081 15.3496 136.033 12.8821 144.677C12.2479 146.899 12.1067 151.056 12.6956 153.188C13.1965 155.003 16.6046 160.561 16.8951 162.818C17.1749 164.984 16.5806 167.577 17.0203 169.602C17.1829 170.359 17.4573 172.03 17.2068 172.909C16.9564 173.786 17.6438 176.36 17.3321 176.97C17.0203 177.58 16.9564 177.983 15.6453 177.783C13.9746 177.53 12.9141 174.114 12.7728 172.435C12.6609 171.084 12.7648 169.56 12.5863 168.187C12.4824 167.396 11.3979 166.373 11.2113 166.373C11.0248 166.373 9.14623 169.067 9.21284 169.602C9.54326 172.304 9.52194 176.032 10.5239 177.785C11.3046 179.152 14.273 180.522 15.1444 182.339C15.6986 183.493 15.1337 185.215 14.9579 185.204C12.6503 185.071 8.01375 182.065 5.77809 180.162C3.25199 178.012 0.680593 171.795 0.158319 168.254C-0.542487 163.503 1.31212 160.148 1.28281 155.237C1.27215 153.529 0.968377 151.666 0.845803 149.953C0.739216 148.442 1.22418 146.833 1.2908 145.33C1.5999 138.418 1.53329 135.036 1.69849 127.882C1.87436 120.277 1.38406 116.975 2.59648 109.597C3.16672 106.125 4.54435 102.605 5.20519 99.1566C7.18237 88.8363 6.17246 62.8532 6.18312 52.1519C6.19112 45.0799 7.47282 36.9154 11.4032 30.9305C14.1558 26.739 19.3279 24.2635 24.1243 23.1977C27.9508 22.0972 31.7559 20.9194 35.5291 19.6483C38.7666 18.5585 46.257 17.0263 47.5467 14.1538C48.7678 11.4297 48.5512 8.2171 48.4539 4.82666C48.4345 4.80653 48.4155 4.78637 48.3967 4.76619C45.8733 2.0589 44.0054 -1.5384 43.2433 -4.21905C41.0822 -4.37893 41.5166 -8.16009 41.2075 -9.11937C40.8984 -10.0813 38.4922 -15.1841 39.7179 -16.4419C40.3121 -17.0521 40.933 -16.5458 40.933 -16.5458C40.933 -16.5458 39.7312 -26.6875 42.0255 -32.6404C43.8188 -37.2929 49.3613 -43.6801 59.3405 -43.6801H59.3512H59.3618C69.3383 -43.6801 74.8835 -37.2929 76.6768 -32.6404C78.9711 -26.6875 77.7773 -16.4658 77.7773 -16.4658C77.7773 -16.4658 78.4968 -17.2013 79.1469 -16.4978C80.1062 -15.4639 77.8013 -10.0786 77.4922 -9.11937C77.1831 -8.15742 77.6174 -4.37627 75.4564 -4.21905C74.7929 -1.87948 73.4259 1.91234 71.1236 4.25724C70.9833 4.40021 70.8391 4.54066 70.6908 4.67838L70.6868 4.82955C70.5888 8.45975 70.516 11.1559 71.8484 14.1538C73.1434 17.0743 80.8896 18.5718 84.1618 19.6483C88.0336 20.9221 91.94 22.0998 95.865 23.2003C100.661 24.2689 105.834 26.7443 108.586 30.9332C112.519 36.918 113.798 45.0852 113.806 52.1546C113.817 62.8559 112.807 88.8363 114.784 99.1592C115.442 102.61 116.823 106.13 117.393 109.599C118.608 116.978 118.115 121.084 118.291 128.689C118.456 135.846 118.389 136.411 118.699 143.323Z"/>
</mask>
<path d="M118.699 143.323C118.765 144.826 119.253 146.436 119.144 147.947C119.021 149.66 118.717 151.523 118.717 153.231C118.688 158.139 120.542 163.911 119.842 168.659C119.322 172.2 116.751 178.417 114.222 180.567C111.989 182.467 107.363 185.476 105.042 185.609C104.869 185.617 104.304 183.896 104.856 182.744C105.727 180.93 108.671 179.571 109.476 178.19C110.499 176.437 110.457 172.693 110.787 170.007C110.854 169.472 108.975 166.778 108.789 166.778C108.599 166.778 107.518 167.801 107.414 168.592C107.235 169.965 107.336 171.484 107.227 172.84C107.086 174.612 106.001 177.519 104.355 178.188C103.739 178.436 102.98 177.983 102.668 177.372C102.356 176.762 103.044 174.191 102.793 173.311C102.543 172.432 102.814 170.761 102.98 170.005C103.419 167.979 102.828 165.389 103.105 163.22C103.395 160.963 104.333 158.083 105.666 156.215C106.779 154.651 107.185 153.001 107.707 151.176C108.32 149.031 108.133 146.883 107.52 144.677C105.133 136.081 103.307 131.641 101.455 123.97C99.3025 115.054 98.6176 109.735 97.5624 100.67C97.1174 96.8569 94.4954 81.3406 94.085 79.518C94.6446 83.8241 93.3496 93.8299 92.1372 101.222C91.3884 105.789 91.9213 117.202 93.5281 127.029C95.1429 136.912 100.275 142.167 100.667 160.412C100.941 173.301 100.251 186.592 99.0893 199.524C98.2179 209.236 96.3873 218.976 94.3622 228.414C93.5974 231.979 93.9438 235.95 94.085 239.598C94.2156 242.958 93.7413 246.403 93.9465 249.705C94.3515 256.183 96.7151 262.695 96.6271 269.282C96.4326 283.709 93.5148 298.852 91.4444 313.302C90.8741 317.273 88.8996 322.65 89.8855 325.981C90.7649 328.957 94.117 332.248 95.8277 335.352C96.9869 337.46 99.966 338.923 101.964 340.274C103.196 341.105 104.291 342.225 105.442 343.138C105.94 343.536 107.656 344.551 108.173 345.321C108.89 346.389 108.384 346.88 108.242 346.896C108.959 347.549 108.941 348.713 108.322 348.788C108.709 349.835 108.12 350.448 107.48 350.328C107.909 351.191 106.993 352.1 106.135 351.828C105.647 353.611 103.166 353.24 101.922 352.601C101.722 354.639 99.0067 354.951 97.5091 354.727C95.7505 354.463 94.0078 353.861 92.5129 352.705C91.876 352.209 91.042 350.759 90.6716 350.448C89.5018 349.462 87.7831 348.977 86.6107 347.922C85.5448 346.962 85.201 345.334 84.4896 344.276C83.7781 343.213 82.2193 342.003 80.8656 341.788C78.8831 341.473 76.5782 340.764 75.6456 338.867C74.7343 337.018 75.0913 334.345 75.555 332.312C75.8881 330.857 76.5436 329.274 76.5196 327.814C76.5116 327.318 76.1225 326.023 76.3277 324.624C76.5569 323.076 77.327 321.906 77.5481 320.734C77.8913 318.915 77.9147 317.014 77.9376 315.154L77.9398 314.97C78.0038 309.625 76.4023 304.051 75.4244 298.812C74.1454 291.977 72.6931 285.025 72.3867 278.11C72.1948 273.772 72.3334 269.418 72.821 265.075C73.0848 262.727 73.6364 260.249 73.3593 257.936C72.5812 251.429 68.8613 245.1 67.9554 238.503C67.076 232.113 68.2351 225.555 67.6569 219.106C66.9961 211.715 65.8529 204.296 64.7018 196.947C64.0303 192.665 63.3348 188.375 62.3755 184.146C62.0451 182.688 61.5948 176.746 60.5716 175.902C60.5236 175.862 60.2118 175.997 59.9081 176.003C59.6229 176.011 59.3458 175.886 59.2979 175.928C58.3066 176.813 57.843 182.712 57.5179 184.146C56.5559 188.375 55.8631 192.665 55.1916 196.947L55.1677 197.1C54.0243 204.402 52.8663 211.797 52.2365 219.106C51.6823 225.528 52.8147 232.115 51.9381 238.503C51.0321 245.1 47.3122 251.429 46.5341 257.936C46.257 260.249 46.8086 262.73 47.0724 265.075C47.5574 269.418 47.6986 273.772 47.5067 278.11C47.2003 285.025 45.7454 291.98 44.469 298.812C43.4911 304.051 41.8896 309.625 41.9536 314.97L41.9546 315.068C41.9755 316.956 41.9969 318.887 42.3453 320.734C42.5664 321.906 43.3365 323.079 43.5657 324.624C43.7709 326.023 43.3818 327.316 43.3738 327.814C43.3499 329.274 43.9867 330.846 44.3384 332.312C44.8154 334.313 45.1059 336.954 44.2478 338.867C43.3632 340.836 40.8904 341.497 39.0278 341.788C37.6768 342.001 36.118 343.216 35.4038 344.276C34.6924 345.334 34.3486 346.962 33.2827 347.922C32.1103 348.977 30.3916 349.462 29.2218 350.448C28.8514 350.762 28.0174 352.212 27.3805 352.705C25.8856 353.864 24.1856 354.405 22.3843 354.727C20.8734 354.996 18.1581 354.57 17.9716 352.601C16.7379 353.23 14.2357 353.619 13.7588 351.828C12.9007 352.1 11.9841 351.191 12.4131 350.328C11.7736 350.448 11.1847 349.835 11.5711 348.788C10.9529 348.713 10.9342 347.549 11.651 346.896C11.5098 346.88 11.0035 346.389 11.7203 345.321C12.2372 344.551 13.9533 343.536 14.4516 343.138C15.6 342.225 16.6952 341.108 17.929 340.274C19.8662 338.963 22.9412 337.524 24.0657 335.352C25.7418 332.117 29.1152 328.965 30.0079 325.981C31.0098 322.629 29.022 317.297 28.4491 313.302C26.3786 298.844 23.4795 283.695 23.2663 269.282C23.1704 262.708 25.5446 256.177 25.9469 249.705C26.1521 246.403 25.6645 242.966 25.8084 239.598C25.9656 235.934 26.296 231.977 25.5312 228.414C23.5061 218.978 21.6781 209.234 20.8041 199.524C19.6423 186.598 18.5179 173.293 19.2267 160.412C20.1166 144.24 24.8118 136.955 26.3653 127.029C27.9135 117.151 28.8994 105.597 27.7562 101.222C26.0375 94.6453 24.3508 84.3064 24.3961 80.8743C23.7246 85.6334 22.8533 97.262 22.4376 100.67C21.3397 109.658 20.3325 115.92 18.5445 123.165C16.3435 132.081 15.3496 136.033 12.8821 144.677C12.2479 146.899 12.1067 151.056 12.6956 153.188C13.1965 155.003 16.6046 160.561 16.8951 162.818C17.1749 164.984 16.5806 167.577 17.0203 169.602C17.1829 170.359 17.4573 172.03 17.2068 172.909C16.9564 173.786 17.6438 176.36 17.3321 176.97C17.0203 177.58 16.9564 177.983 15.6453 177.783C13.9746 177.53 12.9141 174.114 12.7728 172.435C12.6609 171.084 12.7648 169.56 12.5863 168.187C12.4824 167.396 11.3979 166.373 11.2113 166.373C11.0248 166.373 9.14623 169.067 9.21284 169.602C9.54326 172.304 9.52194 176.032 10.5239 177.785C11.3046 179.152 14.273 180.522 15.1444 182.339C15.6986 183.493 15.1337 185.215 14.9579 185.204C12.6503 185.071 8.01375 182.065 5.77809 180.162C3.25199 178.012 0.680593 171.795 0.158319 168.254C-0.542487 163.503 1.31212 160.148 1.28281 155.237C1.27215 153.529 0.968377 151.666 0.845803 149.953C0.739216 148.442 1.22418 146.833 1.2908 145.33C1.5999 138.418 1.53329 135.036 1.69849 127.882C1.87436 120.277 1.38406 116.975 2.59648 109.597C3.16672 106.125 4.54435 102.605 5.20519 99.1566C7.18237 88.8363 6.17246 62.8532 6.18312 52.1519C6.19112 45.0799 7.47282 36.9154 11.4032 30.9305C14.1558 26.739 19.3279 24.2635 24.1243 23.1977C27.9508 22.0972 31.7559 20.9194 35.5291 19.6483C38.7666 18.5585 46.257 17.0263 47.5467 14.1538C48.7678 11.4297 48.5512 8.2171 48.4539 4.82666C48.4345 4.80653 48.4155 4.78637 48.3967 4.76619C45.8733 2.0589 44.0054 -1.5384 43.2433 -4.21905C41.0822 -4.37893 41.5166 -8.16009 41.2075 -9.11937C40.8984 -10.0813 38.4922 -15.1841 39.7179 -16.4419C40.3121 -17.0521 40.933 -16.5458 40.933 -16.5458C40.933 -16.5458 39.7312 -26.6875 42.0255 -32.6404C43.8188 -37.2929 49.3613 -43.6801 59.3405 -43.6801H59.3512H59.3618C69.3383 -43.6801 74.8835 -37.2929 76.6768 -32.6404C78.9711 -26.6875 77.7773 -16.4658 77.7773 -16.4658C77.7773 -16.4658 78.4968 -17.2013 79.1469 -16.4978C80.1062 -15.4639 77.8013 -10.0786 77.4922 -9.11937C77.1831 -8.15742 77.6174 -4.37627 75.4564 -4.21905C74.7929 -1.87948 73.4259 1.91234 71.1236 4.25724C70.9833 4.40021 70.8391 4.54066 70.6908 4.67838L70.6868 4.82955C70.5888 8.45975 70.516 11.1559 71.8484 14.1538C73.1434 17.0743 80.8896 18.5718 84.1618 19.6483C88.0336 20.9221 91.94 22.0998 95.865 23.2003C100.661 24.2689 105.834 26.7443 108.586 30.9332C112.519 36.918 113.798 45.0852 113.806 52.1546C113.817 62.8559 112.807 88.8363 114.784 99.1592C115.442 102.61 116.823 106.13 117.393 109.599C118.608 116.978 118.115 121.084 118.291 128.689C118.456 135.846 118.389 136.411 118.699 143.323Z" fill="white"/>
<path d="M24.3961 80.8743L23.7962 80.8659L24.9904 80.9571L24.3961 80.8743ZM24.5693 79.7765L25.1594 79.8852L25.5792 77.6063L24.1061 79.3951L24.5693 79.7765ZM24.3961 80.8743L24.996 80.8827C24.9999 80.6087 25.0145 80.399 25.0369 80.2519C25.0481 80.1784 25.0594 80.1331 25.0671 80.1093C25.0769 80.079 25.0724 80.1094 25.0325 80.1579L24.5693 79.7765L24.1061 79.3951C24.0102 79.5115 23.9572 79.6415 23.9252 79.7402C23.8912 79.8456 23.8677 79.9588 23.8506 80.0712C23.8164 80.2957 23.8003 80.567 23.7962 80.8659L24.3961 80.8743ZM24.5693 79.7765L23.9792 79.6678C23.9212 79.983 23.8612 80.3653 23.8018 80.7916L24.3961 80.8743L24.9904 80.9571C25.0483 80.5413 25.1055 80.1775 25.1594 79.8852L24.5693 79.7765ZM119.144 147.947L117.947 147.86L117.947 147.861L119.144 147.947ZM118.699 143.323L119.897 143.27L119.897 143.27L118.699 143.323ZM118.291 128.689L119.491 128.661L119.491 128.661L118.291 128.689ZM117.393 109.599L116.209 109.794L116.209 109.794L117.393 109.599ZM114.784 99.1592L115.963 98.9344L115.963 98.9335L114.784 99.1592ZM113.806 52.1546L115.006 52.1534V52.1532L113.806 52.1546ZM108.586 30.9332L107.583 31.5922L107.583 31.5922L108.586 30.9332ZM95.865 23.2003L95.5411 24.3558L95.5724 24.3646L95.6041 24.3716L95.865 23.2003ZM84.1618 19.6483L83.7868 20.7882L83.7868 20.7882L84.1618 19.6483ZM71.8484 14.1538L72.9454 13.6674L72.945 13.6664L71.8484 14.1538ZM47.5467 14.1538L48.6414 14.6453L48.6417 14.6447L47.5467 14.1538ZM35.5291 19.6483L35.1462 18.5111L35.146 18.5111L35.5291 19.6483ZM24.1243 23.1977L24.3846 24.3691L24.4206 24.3611L24.456 24.3509L24.1243 23.1977ZM11.4032 30.9305L12.4062 31.5892L12.4062 31.5892L11.4032 30.9305ZM6.18312 52.1519L4.98312 52.1506V52.1507L6.18312 52.1519ZM5.20519 99.1566L6.38374 99.3824L6.38375 99.3824L5.20519 99.1566ZM2.59648 109.597L3.78061 109.791L3.78062 109.791L2.59648 109.597ZM1.69849 127.882L0.498815 127.854L0.498814 127.854L1.69849 127.882ZM1.2908 145.33L0.0919993 145.276L0.0919785 145.277L1.2908 145.33ZM0.845803 149.953L-0.351223 150.037L-0.351138 150.039L0.845803 149.953ZM1.28281 155.237L2.48279 155.23L2.48278 155.23L1.28281 155.237ZM0.158319 168.254L1.34548 168.079L1.34547 168.079L0.158319 168.254ZM5.77809 180.162L5.00024 181.076L5.00038 181.076L5.77809 180.162ZM14.9579 185.204L15.0305 184.006L15.027 184.006L14.9579 185.204ZM15.1444 182.339L14.0623 182.858L14.0627 182.859L15.1444 182.339ZM10.5239 177.785L11.5659 177.19L11.5658 177.19L10.5239 177.785ZM9.21284 169.602L10.404 169.457L10.4037 169.454L9.21284 169.602ZM12.5863 168.187L13.7763 168.033L13.7761 168.031L12.5863 168.187ZM12.7728 172.435L11.5769 172.534L11.5771 172.535L12.7728 172.435ZM15.6453 177.783L15.8262 176.596L15.8251 176.596L15.6453 177.783ZM17.3321 176.97L18.4007 177.516L18.4007 177.516L17.3321 176.97ZM17.2068 172.909L18.3607 173.239L18.3609 173.238L17.2068 172.909ZM17.0203 169.602L18.1936 169.35L18.193 169.348L17.0203 169.602ZM16.8951 162.818L15.7049 162.971L15.705 162.972L16.8951 162.818ZM12.6956 153.188L13.8523 152.869L13.8522 152.868L12.6956 153.188ZM12.8821 144.677L11.7282 144.348L11.7282 144.348L12.8821 144.677ZM18.5445 123.165L19.7095 123.453L19.7095 123.453L18.5445 123.165ZM22.4376 100.67L23.6287 100.816L23.6287 100.815L22.4376 100.67ZM24.3961 80.8743L25.596 80.8902L23.2079 80.7067L24.3961 80.8743ZM27.7562 101.222L28.9173 100.918L28.9172 100.918L27.7562 101.222ZM26.3653 127.029L25.1798 126.843L25.1797 126.843L26.3653 127.029ZM19.2267 160.412L18.0285 160.346L19.2267 160.412ZM20.8041 199.524L19.6089 199.631L19.609 199.631L20.8041 199.524ZM25.5312 228.414L24.358 228.666L24.358 228.666L25.5312 228.414ZM25.8084 239.598L24.6095 239.546L24.6095 239.546L25.8084 239.598ZM25.9469 249.705L27.1446 249.779L27.1446 249.779L25.9469 249.705ZM23.2663 269.282L22.0664 269.3L22.0664 269.3L23.2663 269.282ZM28.4491 313.302L27.2612 313.472L27.2612 313.473L28.4491 313.302ZM30.0079 325.981L31.1576 326.325L31.1576 326.324L30.0079 325.981ZM24.0657 335.352L23.0002 334.8L23.0001 334.801L24.0657 335.352ZM17.929 340.274L18.601 341.268L18.6015 341.268L17.929 340.274ZM14.4516 343.138L13.7043 342.2L13.7038 342.2L14.4516 343.138ZM11.7203 345.321L10.724 344.652L10.7237 344.652L11.7203 345.321ZM11.651 346.896L12.4591 347.783L14.4154 346.001L11.786 345.703L11.651 346.896ZM11.5711 348.788L12.6969 349.203L13.2226 347.778L11.7149 347.596L11.5711 348.788ZM12.4131 350.328L13.4877 350.862L14.5598 348.704L12.192 349.148L12.4131 350.328ZM13.7588 351.828L14.9183 351.519L14.5948 350.304L13.3964 350.684L13.7588 351.828ZM17.9716 352.601L19.1662 352.488L18.9997 350.73L17.4266 351.532L17.9716 352.601ZM22.3843 354.727L22.5947 355.909L22.5957 355.908L22.3843 354.727ZM27.3805 352.705L26.646 351.756L26.6452 351.756L27.3805 352.705ZM29.2218 350.448L28.4484 349.53L28.4452 349.533L29.2218 350.448ZM33.2827 347.922L34.0855 348.814L34.0855 348.814L33.2827 347.922ZM35.4038 344.276L34.4085 343.606L34.4081 343.607L35.4038 344.276ZM39.0278 341.788L38.8429 340.602L38.8407 340.602L39.0278 341.788ZM44.2478 338.867L45.3425 339.359L45.3428 339.358L44.2478 338.867ZM44.3384 332.312L45.5057 332.034L45.5053 332.032L44.3384 332.312ZM43.3738 327.814L44.5737 327.834L44.5737 327.833L43.3738 327.814ZM43.5657 324.624L44.753 324.45L44.7527 324.448L43.5657 324.624ZM42.3453 320.734L43.5245 320.512L43.5245 320.512L42.3453 320.734ZM41.9546 315.068L40.7547 315.081L41.9546 315.068ZM41.9536 314.97L43.1535 314.957L43.1535 314.956L41.9536 314.97ZM44.469 298.812L43.2894 298.591L43.2894 298.592L44.469 298.812ZM47.5067 278.11L48.7055 278.163L48.7056 278.163L47.5067 278.11ZM47.0724 265.075L48.265 264.941L48.2649 264.94L47.0724 265.075ZM46.5341 257.936L47.7256 258.079L47.7256 258.078L46.5341 257.936ZM51.9381 238.503L53.1269 238.666L53.1269 238.666L51.9381 238.503ZM52.2365 219.106L53.4321 219.21L53.4321 219.209L52.2365 219.106ZM55.1677 197.1L53.9822 196.914L55.1677 197.1ZM55.1916 196.947L54.0061 196.761L54.0061 196.761L55.1916 196.947ZM57.5179 184.146L58.688 184.412L58.6882 184.411L57.5179 184.146ZM59.2979 175.928L58.5006 175.031L58.4988 175.033L59.2979 175.928ZM59.9081 176.003L59.887 174.803L59.8744 174.803L59.9081 176.003ZM60.5716 175.902L59.8034 176.824L59.8076 176.827L60.5716 175.902ZM62.3755 184.146L61.2052 184.411L61.2053 184.411L62.3755 184.146ZM64.7018 196.947L65.8873 196.761L65.8873 196.761L64.7018 196.947ZM67.6569 219.106L66.4617 219.213L66.4617 219.214L67.6569 219.106ZM67.9554 238.503L69.1442 238.339L69.1441 238.339L67.9554 238.503ZM73.3593 257.936L72.1678 258.078L72.1678 258.079L73.3593 257.936ZM72.821 265.075L71.6285 264.941L71.6285 264.941L72.821 265.075ZM72.3867 278.11L71.1879 278.163L71.1879 278.163L72.3867 278.11ZM75.4244 298.812L76.604 298.592L76.6039 298.591L75.4244 298.812ZM77.9398 314.97L79.1397 314.985L79.1398 314.985L77.9398 314.97ZM77.9376 315.154L76.7377 315.139V315.139L77.9376 315.154ZM77.5481 320.734L76.3689 320.512V320.512L77.5481 320.734ZM76.3277 324.624L75.1407 324.449L75.1404 324.45L76.3277 324.624ZM76.5196 327.814L75.3197 327.833L75.3197 327.834L76.5196 327.814ZM75.555 332.312L74.3852 332.044L74.385 332.045L75.555 332.312ZM75.6456 338.867L76.7225 338.338L76.722 338.337L75.6456 338.867ZM80.8656 341.788L81.0546 340.603L81.0536 340.602L80.8656 341.788ZM84.4896 344.276L83.4923 344.944L83.4938 344.946L84.4896 344.276ZM86.6107 347.922L85.8079 348.814H85.8079L86.6107 347.922ZM90.6716 350.448L89.8982 351.365L89.8988 351.366L90.6716 350.448ZM92.5129 352.705L91.7759 353.652L91.7786 353.654L92.5129 352.705ZM97.5091 354.727L97.3311 355.914L97.3317 355.914L97.5091 354.727ZM101.922 352.601L102.47 351.533L100.9 350.726L100.728 352.484L101.922 352.601ZM106.135 351.828L106.497 350.684L105.307 350.307L104.977 351.511L106.135 351.828ZM107.48 350.328L107.701 349.148L105.334 348.704L106.406 350.862L107.48 350.328ZM108.322 348.788L108.179 347.596L106.671 347.778L107.197 349.203L108.322 348.788ZM108.242 346.896L108.107 345.703L105.478 346.001L107.434 347.783L108.242 346.896ZM108.173 345.321L109.17 344.652L109.169 344.652L108.173 345.321ZM105.442 343.138L106.19 342.2L106.188 342.199L105.442 343.138ZM101.964 340.274L101.292 341.268L101.293 341.268L101.964 340.274ZM95.8277 335.352L96.8792 334.774L96.8787 334.773L95.8277 335.352ZM89.8855 325.981L91.0363 325.641L91.0362 325.64L89.8855 325.981ZM91.4444 313.302L92.6322 313.473L92.6322 313.472L91.4444 313.302ZM96.6271 269.282L97.827 269.298V269.298L96.6271 269.282ZM93.9465 249.705L92.7488 249.779L92.7488 249.78L93.9465 249.705ZM94.085 239.598L92.8859 239.644L92.8859 239.644L94.085 239.598ZM94.3622 228.414L93.1889 228.162L93.1889 228.162L94.3622 228.414ZM99.0893 199.524L97.8941 199.416L97.8941 199.417L99.0893 199.524ZM100.667 160.412L101.866 160.386L101.866 160.386L100.667 160.412ZM93.5281 127.029L94.7124 126.835L94.7124 126.835L93.5281 127.029ZM92.1372 101.222L90.953 101.027L90.953 101.028L92.1372 101.222ZM94.085 79.518L95.2557 79.2544L92.895 79.6726L94.085 79.518ZM97.5624 100.67L98.7544 100.531L98.7543 100.531L97.5624 100.67ZM101.455 123.97L102.622 123.688L102.622 123.688L101.455 123.97ZM107.52 144.677L106.364 144.998L106.364 144.998L107.52 144.677ZM107.707 151.176L108.86 151.506L108.861 151.506L107.707 151.176ZM105.666 156.215L106.643 156.912L106.643 156.911L105.666 156.215ZM103.105 163.22L101.915 163.067L101.915 163.068L103.105 163.22ZM102.98 170.005L104.152 170.261L104.152 170.259L102.98 170.005ZM102.668 177.372L103.737 176.826H103.737L102.668 177.372ZM104.355 178.188L104.803 179.301L104.806 179.3L104.355 178.188ZM107.227 172.84L106.031 172.743L106.031 172.745L107.227 172.84ZM107.414 168.592L106.224 168.436L106.224 168.438L107.414 168.592ZM110.787 170.007L109.596 169.859L109.596 169.861L110.787 170.007ZM109.476 178.19L108.44 177.586L108.439 177.586L109.476 178.19ZM104.856 182.744L103.774 182.225L103.773 182.226L104.856 182.744ZM105.042 185.609L105.097 186.808L105.111 186.807L105.042 185.609ZM114.222 180.567L113.445 179.653L113.444 179.653L114.222 180.567ZM119.842 168.659L118.655 168.484L118.654 168.485L119.842 168.659ZM118.717 153.231L119.917 153.238V153.231H118.717ZM77.7773 -16.4658L76.5854 -16.605L76.1778 -13.1148L78.6351 -15.6267L77.7773 -16.4658ZM76.6768 -32.6404L77.7965 -33.0719L77.7965 -33.0719L76.6768 -32.6404ZM42.0255 -32.6404L40.9058 -33.0719L40.9058 -33.0719L42.0255 -32.6404ZM40.933 -16.5458L40.1746 -15.6158L42.4738 -13.741L42.1247 -16.687L40.933 -16.5458ZM39.7179 -16.4419L40.5773 -15.6043L40.5776 -15.6047L39.7179 -16.4419ZM41.2075 -9.11937L40.065 -8.75226L40.0653 -8.75133L41.2075 -9.11937ZM43.2433 -4.21905L44.3975 -4.5472L44.1682 -5.3539L43.3318 -5.41578L43.2433 -4.21905ZM48.3967 4.76619L49.275 3.94851L49.2745 3.948L48.3967 4.76619ZM71.1236 4.25724L70.2674 3.41653L70.2673 3.41663L71.1236 4.25724ZM75.4564 -4.21905L75.3693 -5.41589L74.5312 -5.35492L74.3019 -4.54646L75.4564 -4.21905ZM77.4922 -9.11937L76.35 -9.4874L76.3497 -9.48648L77.4922 -9.11937ZM79.1469 -16.4978L78.2657 -15.6833L78.2673 -15.6816L79.1469 -16.4978ZM48.4539 4.82666L49.6534 4.79224L49.6401 4.32974L49.3198 3.99587L48.4539 4.82666ZM70.6908 4.67838L69.8742 3.79907L69.5049 4.14212L69.4913 4.64605L70.6908 4.67838ZM70.6868 4.82955L71.8863 4.86192V4.86188L70.6868 4.82955ZM119.144 147.947L120.34 148.033C120.405 147.134 120.291 146.24 120.174 145.454C120.05 144.626 119.927 143.94 119.897 143.27L118.699 143.323L117.5 143.377C117.537 144.209 117.691 145.08 117.8 145.81C117.916 146.583 117.991 147.248 117.947 147.86L119.144 147.947ZM118.699 143.323L119.897 143.27C119.589 136.375 119.656 135.838 119.491 128.661L118.291 128.689L117.091 128.717C117.256 135.855 117.19 136.448 117.5 143.377L118.699 143.323ZM118.291 128.689L119.491 128.661C119.318 121.187 119.81 116.893 118.577 109.404L117.393 109.599L116.209 109.794C117.406 117.062 116.912 120.981 117.091 128.717L118.291 128.689ZM117.393 109.599L118.577 109.405C118.279 107.592 117.772 105.782 117.275 104.043C116.772 102.28 116.28 100.595 115.963 98.9344L114.784 99.1592L113.605 99.384C113.947 101.174 114.474 102.974 114.968 104.702C115.468 106.453 115.936 108.137 116.209 109.794L117.393 109.599ZM114.784 99.1592L115.963 98.9335C114.999 93.9041 114.754 84.9459 114.758 75.7993C114.76 71.2474 114.823 66.6818 114.885 62.5802C114.948 58.4847 115.009 54.8412 115.006 52.1534L113.806 52.1546L112.606 52.1558C112.609 54.8186 112.548 58.4356 112.486 62.5438C112.423 66.6459 112.36 71.2271 112.358 75.7983C112.354 84.8979 112.592 94.0914 113.606 99.385L114.784 99.1592ZM113.806 52.1546L115.006 52.1532C114.998 44.9881 113.71 36.5443 109.589 30.2742L108.586 30.9332L107.583 31.5922C111.329 37.2917 112.598 45.1824 112.606 52.1559L113.806 52.1546ZM108.586 30.9332L109.589 30.2742C106.592 25.714 101.067 23.1298 96.126 22.0291L95.865 23.2003L95.6041 24.3716C100.256 25.4079 105.075 27.7747 107.583 31.5922L108.586 30.9332ZM95.865 23.2003L96.189 22.0449C92.2789 20.9486 88.3897 19.7759 84.5368 18.5084L84.1618 19.6483L83.7868 20.7882C87.6775 22.0682 91.6011 23.2511 95.5411 24.3558L95.865 23.2003ZM84.1618 19.6483L84.5368 18.5084C83.685 18.2282 82.5457 17.9215 81.3627 17.5907C80.1592 17.2541 78.8745 16.8832 77.6587 16.4594C76.4363 16.0333 75.3298 15.5694 74.4698 15.0604C73.5806 14.534 73.1164 14.0529 72.9454 13.6674L71.8484 14.1538L70.7514 14.6402C71.228 15.7149 72.2176 16.5162 73.2473 17.1257C74.3063 17.7525 75.5836 18.2778 76.8687 18.7257C78.1604 19.1759 79.5066 19.5637 80.7163 19.902C81.9465 20.246 83.0026 20.5302 83.7868 20.7882L84.1618 19.6483ZM47.5467 14.1538L46.452 13.6623C46.2797 14.0461 45.8227 14.5221 44.9594 15.0439C44.1233 15.5493 43.0493 16.0128 41.8617 16.4406C40.6803 16.8661 39.431 17.2408 38.2568 17.5815C37.1026 17.9165 35.9873 18.2279 35.1462 18.5111L35.5291 19.6483L35.9119 20.7856C36.6896 20.5238 37.7247 20.235 38.9258 19.8864C40.107 19.5436 41.4178 19.1514 42.675 18.6986C43.9258 18.248 45.1686 17.7218 46.2008 17.0979C47.2059 16.4905 48.1689 15.6978 48.6414 14.6453L47.5467 14.1538ZM35.5291 19.6483L35.146 18.5111C31.3915 19.7759 27.6037 20.9483 23.7926 22.0444L24.1243 23.1977L24.456 24.3509C28.2979 23.246 32.1203 22.0629 35.9122 20.7856L35.5291 19.6483ZM24.1243 23.1977L23.864 22.0262C18.9223 23.1244 13.3968 25.7087 10.4002 30.2718L11.4032 30.9305L12.4062 31.5892C14.9148 27.7693 19.7335 25.4027 24.3846 24.3691L24.1243 23.1977ZM11.4032 30.9305L10.4002 30.2718C6.28262 36.5416 4.99123 44.9823 4.98312 52.1506L6.18312 52.1519L7.38312 52.1533C7.39101 45.1774 8.66302 37.2891 12.4062 31.5892L11.4032 30.9305ZM6.18312 52.1519L4.98312 52.1507C4.98045 54.8385 5.04181 58.4822 5.104 62.5779C5.16629 66.6797 5.22961 71.2456 5.2316 75.7977C5.23561 84.9446 4.9899 93.9028 4.02662 98.9308L5.20519 99.1566L6.38375 99.3824C7.39766 94.0901 7.63559 84.8966 7.6316 75.7966C7.6296 71.2252 7.56602 66.6438 7.50373 62.5415C7.44135 58.4331 7.38047 54.816 7.38312 52.1531L6.18312 52.1519ZM5.20519 99.1566L4.02664 98.9307C3.70845 100.591 3.21631 102.275 2.71298 104.038C2.21621 105.778 1.71022 107.589 1.41235 109.402L2.59648 109.597L3.78062 109.791C4.05299 108.133 4.52093 106.447 5.02074 104.697C5.514 102.97 6.04109 101.17 6.38374 99.3824L5.20519 99.1566ZM2.59648 109.597L1.41236 109.402C0.18182 116.891 0.671776 120.375 0.498815 127.854L1.69849 127.882L2.89817 127.909C3.07695 120.179 2.58631 117.059 3.78061 109.791L2.59648 109.597ZM1.69849 127.882L0.498814 127.854C0.332633 135.051 0.400478 138.378 0.0919994 145.276L1.2908 145.33L2.4896 145.383C2.79933 138.457 2.73394 135.022 2.89817 127.909L1.69849 127.882ZM1.2908 145.33L0.0919785 145.277C0.0622661 145.947 -0.0599916 146.634 -0.18351 147.461C-0.300637 148.246 -0.41455 149.14 -0.351222 150.037L0.845803 149.953L2.04283 149.869C1.99957 149.255 2.07485 148.589 2.19021 147.816C2.29919 147.085 2.45272 146.216 2.48962 145.383L1.2908 145.33ZM0.845803 149.953L-0.351138 150.039C-0.288031 150.921 -0.177269 151.853 -0.0873312 152.721C0.00463681 153.608 0.0778864 154.452 0.0828311 155.245L1.28281 155.237L2.48278 155.23C2.47707 154.314 2.3931 153.373 2.29988 152.473C2.20462 151.554 2.10221 150.699 2.04274 149.867L0.845803 149.953ZM1.28281 155.237L0.0828292 155.244C0.0966537 157.56 -0.33044 159.495 -0.71186 161.591C-1.08953 163.666 -1.40898 165.852 -1.02884 168.429L0.158319 168.254L1.34547 168.079C1.02481 165.905 1.28226 164.038 1.64937 162.02C2.01272 160.023 2.49827 157.825 2.48279 155.23L1.28281 155.237ZM0.158319 168.254L-1.02884 168.429C-0.746648 170.342 0.0693665 172.892 1.12325 175.224C2.16212 177.523 3.52538 179.821 5.00024 181.076L5.77809 180.162L6.55594 179.249C5.5047 178.354 4.31922 176.468 3.31029 174.236C2.31638 172.036 1.58556 169.707 1.34548 168.079L0.158319 168.254ZM5.77809 180.162L5.00038 181.076C6.17709 182.078 7.95416 183.345 9.73703 184.384C10.6304 184.904 11.5455 185.379 12.4036 185.735C13.2414 186.084 14.1111 186.357 14.8887 186.402L14.9579 185.204L15.027 184.006C14.6508 183.984 14.0756 183.832 13.3252 183.519C12.5951 183.216 11.7787 182.795 10.945 182.31C9.27376 181.336 7.61475 180.15 6.55581 179.248L5.77809 180.162ZM14.9579 185.204L14.8852 186.402C15.3838 186.432 15.7072 186.16 15.798 186.078C15.9222 185.966 16.0032 185.85 16.0471 185.782C16.1403 185.638 16.2088 185.484 16.2579 185.357C16.3611 185.091 16.4507 184.759 16.5091 184.402C16.6204 183.723 16.6571 182.717 16.2261 181.82L15.1444 182.339L14.0627 182.859C14.1859 183.115 14.2173 183.547 14.1407 184.014C14.1052 184.231 14.0552 184.399 14.0204 184.489C14.0005 184.54 14.0003 184.528 14.0311 184.48C14.0438 184.46 14.0952 184.382 14.192 184.294C14.2555 184.237 14.5539 183.977 15.0305 184.006L14.9579 185.204ZM15.1444 182.339L16.2264 181.821C15.6484 180.615 14.4437 179.654 13.5385 178.948C13.0407 178.559 12.61 178.234 12.2397 177.912C11.8616 177.584 11.6571 177.35 11.5659 177.19L10.5239 177.785L9.48184 178.381C9.78104 178.904 10.2403 179.354 10.6656 179.724C11.0987 180.1 11.6109 180.488 12.0618 180.839C13.0539 181.614 13.7691 182.247 14.0623 182.858L15.1444 182.339ZM10.5239 177.785L11.5658 177.19C11.2045 176.558 10.9726 175.426 10.8096 173.92C10.7312 173.197 10.673 172.442 10.6124 171.679C10.5525 170.925 10.4901 170.161 10.404 169.457L9.21284 169.602L8.02172 169.748C8.10077 170.394 8.1596 171.109 8.21996 171.869C8.27959 172.62 8.34065 173.413 8.42351 174.179C8.58289 175.651 8.84126 177.26 9.48197 178.381L10.5239 177.785ZM9.21284 169.602L10.4037 169.454C10.4223 169.604 10.4003 169.707 10.3975 169.72C10.3923 169.746 10.3897 169.747 10.3999 169.719C10.4205 169.662 10.4636 169.564 10.5365 169.423C10.6804 169.145 10.8909 168.796 11.1212 168.444C11.3501 168.094 11.5824 167.767 11.7611 167.535C11.8528 167.416 11.9163 167.341 11.9502 167.304C11.97 167.283 11.9584 167.298 11.9227 167.327C11.9061 167.341 11.8564 167.382 11.7807 167.424C11.7363 167.45 11.5217 167.573 11.2113 167.573V166.373V165.173C10.8893 165.173 10.6597 165.301 10.5973 165.336C10.5036 165.39 10.4327 165.445 10.3921 165.479C10.3085 165.548 10.2374 165.621 10.1882 165.675C10.0839 165.788 9.97055 165.927 9.86091 166.069C9.63702 166.359 9.36883 166.739 9.11311 167.129C8.85879 167.518 8.60048 167.942 8.40501 168.32C8.30833 168.507 8.21405 168.707 8.14399 168.9C8.09481 169.036 7.97528 169.375 8.02202 169.75L9.21284 169.602ZM11.2113 166.373V167.573C11.0861 167.573 10.9875 167.552 10.9289 167.537C10.8672 167.521 10.8196 167.503 10.7898 167.49C10.7321 167.466 10.6962 167.444 10.6882 167.439C10.6708 167.428 10.6812 167.433 10.7206 167.466C10.7952 167.528 10.9062 167.634 11.023 167.769C11.1398 167.904 11.2418 168.043 11.3137 168.168C11.3918 168.304 11.3989 168.362 11.3965 168.344L12.5863 168.187L13.7761 168.031C13.6755 167.265 13.171 166.583 12.8366 166.197C12.646 165.977 12.4444 165.779 12.26 165.624C12.1698 165.549 12.064 165.468 11.9512 165.398C11.8955 165.363 11.8171 165.319 11.723 165.279C11.6513 165.249 11.461 165.173 11.2113 165.173V166.373ZM12.5863 168.187L11.3963 168.342C11.4757 168.952 11.4943 169.614 11.5047 170.336C11.5147 171.034 11.5167 171.806 11.5769 172.534L12.7728 172.435L13.9687 172.336C13.9171 171.712 13.9151 171.047 13.9044 170.302C13.8941 169.581 13.8754 168.794 13.7763 168.033L12.5863 168.187ZM12.7728 172.435L11.5771 172.535C11.6592 173.511 11.9943 174.917 12.5407 176.135C12.8151 176.746 13.1672 177.366 13.6111 177.87C14.0489 178.367 14.6635 178.848 15.4656 178.969L15.6453 177.783L15.8251 176.596C15.7918 176.591 15.6473 176.55 15.412 176.283C15.1827 176.023 14.9476 175.636 14.7303 175.152C14.2935 174.179 14.0277 173.037 13.9686 172.334L12.7728 172.435ZM15.6453 177.783L15.4645 178.969C16.1667 179.076 16.9233 179.099 17.5476 178.666C17.8563 178.452 18.0411 178.187 18.1576 177.988C18.2482 177.833 18.3641 177.588 18.4007 177.516L17.3321 176.97L16.2635 176.424C16.2201 176.509 16.1743 176.604 16.1483 176.656C16.1167 176.72 16.0985 176.755 16.0851 176.777C16.061 176.819 16.0894 176.757 16.1792 176.694C16.275 176.628 16.3427 176.628 16.301 176.632C16.2442 176.637 16.1038 176.639 15.8262 176.596L15.6453 177.783ZM17.3321 176.97L18.4007 177.516C18.5438 177.236 18.5848 176.948 18.6013 176.762C18.6196 176.555 18.6171 176.341 18.6074 176.143C18.5881 175.75 18.533 175.298 18.4835 174.894C18.4313 174.468 18.3837 174.082 18.362 173.75C18.3514 173.586 18.3485 173.455 18.3523 173.355C18.3563 173.247 18.3667 173.218 18.3607 173.239L17.2068 172.909L16.053 172.579C15.9278 173.018 15.9426 173.529 15.9671 173.906C15.9942 174.321 16.0519 174.782 16.1013 175.185C16.1534 175.611 16.1961 175.971 16.2102 176.26C16.2173 176.403 16.2154 176.497 16.2106 176.551C16.204 176.626 16.1983 176.552 16.2635 176.424L17.3321 176.97ZM17.2068 172.909L18.3609 173.238C18.5518 172.568 18.5224 171.737 18.4633 171.099C18.4002 170.417 18.2819 169.762 18.1936 169.35L17.0203 169.602L15.8471 169.854C15.9212 170.199 16.0215 170.758 16.0736 171.32C16.1297 171.927 16.1123 172.371 16.0527 172.58L17.2068 172.909ZM17.0203 169.602L18.193 169.348C18.0121 168.514 18.0366 167.516 18.0962 166.323C18.1526 165.197 18.2421 163.879 18.0852 162.664L16.8951 162.818L15.705 162.972C15.8278 163.923 15.7601 164.985 15.6992 166.203C15.6416 167.355 15.5889 168.665 15.8476 169.857L17.0203 169.602ZM16.8951 162.818L18.0853 162.665C17.9899 161.924 17.663 161.022 17.2913 160.147C16.9075 159.244 16.4244 158.252 15.9472 157.3C15.4621 156.331 14.9925 155.421 14.6015 154.616C14.2001 153.79 13.9436 153.199 13.8523 152.869L12.6956 153.188L11.5388 153.507C11.698 154.084 12.0554 154.868 12.443 155.665C12.841 156.484 13.3355 157.444 13.8013 158.375C14.2751 159.32 14.7297 160.255 15.0823 161.085C15.447 161.944 15.655 162.584 15.7049 162.971L16.8951 162.818ZM12.6956 153.188L13.8522 152.868C13.6041 151.97 13.49 150.535 13.5298 148.997C13.5693 147.469 13.7569 145.984 14.036 145.006L12.8821 144.677L11.7282 144.348C11.3731 145.592 11.173 147.297 11.1306 148.935C11.0884 150.565 11.1981 152.274 11.5389 153.507L12.6956 153.188ZM12.8821 144.677L14.036 145.006C16.5091 136.342 17.5069 132.375 19.7095 123.453L18.5445 123.165L17.3795 122.878C15.18 131.787 14.19 135.723 11.7282 144.348L12.8821 144.677ZM18.5445 123.165L19.7095 123.453C21.5135 116.143 22.5278 109.828 23.6287 100.816L22.4376 100.67L21.2464 100.525C20.1516 109.488 19.1515 115.697 17.3794 122.878L18.5445 123.165ZM22.4376 100.67L23.6287 100.815C23.8396 99.0864 24.1642 95.2942 24.5161 91.3864C24.8707 87.4485 25.2537 83.3851 25.5843 81.042L24.3961 80.8743L23.2079 80.7067C22.867 83.1226 22.4786 87.2531 22.1257 91.1712C21.7702 95.1195 21.4512 98.8457 21.2464 100.525L22.4376 100.67ZM24.3961 80.8743L23.1962 80.8585C23.172 82.6943 23.6009 86.2348 24.2306 90.0636C24.8654 93.9237 25.7238 98.1908 26.5952 101.525L27.7562 101.222L28.9172 100.918C28.0699 97.6762 27.2256 93.4856 26.5988 89.6741C25.9668 85.8314 25.5749 82.4864 25.596 80.8902L24.3961 80.8743ZM27.7562 101.222L26.5952 101.525C27.1115 103.501 27.1705 107.3 26.8724 111.986C26.5781 116.612 25.9495 121.932 25.1798 126.843L26.3653 127.029L27.5508 127.215C28.3293 122.248 28.9677 116.853 29.2676 112.138C29.5637 107.483 29.5441 103.318 28.9173 100.918L27.7562 101.222ZM26.3653 127.029L25.1797 126.843C24.4188 131.705 22.9007 135.868 21.3949 141.043C19.899 146.184 18.48 152.142 18.0285 160.346L19.2267 160.412L20.4248 160.478C20.8633 152.51 22.2369 146.74 23.6994 141.713C25.152 136.721 26.7583 132.279 27.5509 127.214L26.3653 127.029ZM19.2267 160.412L18.0285 160.346C17.3142 173.326 18.448 186.715 19.6089 199.631L20.8041 199.524L21.9993 199.416C20.8366 186.48 19.7215 173.259 20.4248 160.478L19.2267 160.412ZM20.8041 199.524L19.609 199.631C20.4895 209.414 22.3293 219.214 24.358 228.666L25.5312 228.414L26.7045 228.162C24.6829 218.743 22.8668 209.054 21.9993 199.416L20.8041 199.524ZM25.5312 228.414L24.358 228.666C25.0819 232.038 24.7705 235.794 24.6095 239.546L25.8084 239.598L27.0073 239.649C27.1607 236.073 27.5101 231.915 26.7045 228.162L25.5312 228.414ZM25.8084 239.598L24.6095 239.546C24.5348 241.294 24.6243 243.053 24.7019 244.732C24.7805 246.431 24.8472 248.054 24.7492 249.63L25.9469 249.705L27.1446 249.779C27.2518 248.054 27.1773 246.307 27.0994 244.621C27.0204 242.913 26.9381 241.269 27.0073 239.649L25.8084 239.598ZM25.9469 249.705L24.7492 249.63C24.5541 252.769 23.8809 255.926 23.2416 259.227C22.6097 262.491 22.0164 265.876 22.0664 269.3L23.2663 269.282L24.4662 269.265C24.4202 266.114 24.966 262.947 25.5979 259.684C26.2223 256.458 26.9374 253.113 27.1446 249.779L25.9469 249.705ZM23.2663 269.282L22.0664 269.3C22.2811 283.814 25.2023 299.095 27.2612 313.472L28.4491 313.302L29.6369 313.132C27.5549 298.593 24.6778 283.576 24.4661 269.264L23.2663 269.282ZM28.4491 313.302L27.2612 313.473C27.4118 314.523 27.653 315.646 27.9046 316.761C28.1597 317.892 28.4242 319.01 28.6416 320.114C29.0858 322.37 29.2655 324.274 28.8581 325.637L30.0079 325.981L31.1576 326.324C31.7521 324.335 31.4389 321.898 30.9964 319.65C30.7705 318.503 30.4933 317.33 30.2458 316.233C29.9948 315.12 29.7727 314.079 29.6369 313.132L28.4491 313.302ZM30.0079 325.981L28.8582 325.637C28.4816 326.896 27.5487 328.269 26.3677 329.856C25.2411 331.371 23.8956 333.072 23.0002 334.8L24.0657 335.352L25.1312 335.904C25.9119 334.398 27.0911 332.905 28.2934 331.289C29.4414 329.745 30.6415 328.05 31.1576 326.325L30.0079 325.981ZM24.0657 335.352L23.0001 334.801C22.5791 335.613 21.7363 336.378 20.6203 337.148C20.0752 337.525 19.5002 337.88 18.9215 338.233C18.3543 338.58 17.7696 338.933 17.2564 339.28L17.929 340.274L18.6015 341.268C19.0569 340.96 19.583 340.641 20.1724 340.281C20.7503 339.928 21.3775 339.542 21.9839 339.123C23.1708 338.304 24.4277 337.263 25.1313 335.904L24.0657 335.352ZM17.929 340.274L17.2569 339.28C16.5763 339.74 15.9484 340.268 15.3703 340.771C14.7748 341.29 14.251 341.765 13.7043 342.2L14.4516 343.138L15.1988 344.077C15.8007 343.598 16.3987 343.058 16.9463 342.581C17.5113 342.089 18.0479 341.642 18.601 341.268L17.929 340.274ZM14.4516 343.138L13.7038 342.2C13.6221 342.265 13.4648 342.374 13.2111 342.547C12.9761 342.708 12.685 342.905 12.3924 343.115C11.8614 343.497 11.1214 344.06 10.724 344.652L11.7203 345.321L12.7166 345.99C12.8361 345.812 13.2126 345.482 13.7935 345.064C14.0568 344.875 14.3205 344.696 14.5635 344.53C14.7879 344.377 15.0319 344.21 15.1994 344.077L14.4516 343.138ZM11.7203 345.321L10.7237 344.652C10.2507 345.358 10.0471 346.077 10.1899 346.751C10.2591 347.079 10.4048 347.359 10.5937 347.578C10.6866 347.685 10.7975 347.786 10.926 347.871C11.0329 347.941 11.2383 348.057 11.516 348.088L11.651 346.896L11.786 345.703C12.0284 345.731 12.1871 345.828 12.2421 345.864C12.3187 345.914 12.3724 345.966 12.4092 346.008C12.4859 346.097 12.5233 346.185 12.5379 346.255C12.5714 346.413 12.4731 346.353 12.7168 345.989L11.7203 345.321ZM11.651 346.896L10.843 346.008C10.2288 346.568 9.92458 347.34 9.91066 348.034C9.9037 348.382 9.96824 348.793 10.1915 349.167C10.433 349.572 10.8556 349.91 11.4273 349.979L11.5711 348.788L11.7149 347.596C11.8279 347.61 11.9453 347.652 12.0497 347.724C12.1509 347.794 12.215 347.875 12.2525 347.937C12.3207 348.052 12.3095 348.117 12.3102 348.083C12.3116 348.013 12.3565 347.876 12.4591 347.783L11.651 346.896ZM11.5711 348.788L10.4453 348.372C10.161 349.143 10.1584 349.983 10.608 350.66C11.0648 351.347 11.8617 351.652 12.6342 351.507L12.4131 350.328L12.192 349.148C12.249 349.138 12.3278 349.14 12.4121 349.174C12.4978 349.21 12.565 349.268 12.6068 349.331C12.6987 349.469 12.5947 349.48 12.6969 349.203L11.5711 348.788ZM12.4131 350.328L11.3385 349.794C10.8638 350.749 11.163 351.723 11.7286 352.325C12.2758 352.908 13.1845 353.269 14.1211 352.972L13.7588 351.828L13.3964 350.684C13.4305 350.673 13.4605 350.677 13.4736 350.681C13.4789 350.683 13.4805 350.684 13.4797 350.683C13.4788 350.683 13.478 350.682 13.478 350.682C13.478 350.682 13.481 350.685 13.4853 350.693C13.4897 350.702 13.4959 350.716 13.5 350.737C13.5042 350.759 13.5054 350.785 13.5019 350.81C13.4984 350.837 13.4914 350.854 13.4877 350.862L12.4131 350.328ZM13.7588 351.828L12.5992 352.137C12.7956 352.874 13.2242 353.436 13.7976 353.803C14.3443 354.153 14.9597 354.288 15.5129 354.32C16.5995 354.382 17.7441 354.064 18.5166 353.67L17.9716 352.601L17.4266 351.532C16.9654 351.767 16.242 351.957 15.6498 351.924C15.3637 351.907 15.1871 351.843 15.0919 351.782C15.0235 351.738 14.9604 351.677 14.9183 351.519L13.7588 351.828ZM17.9716 352.601L16.7769 352.714C16.9322 354.353 18.1631 355.234 19.2767 355.633C20.3859 356.03 21.6566 356.076 22.5947 355.909L22.3843 354.727L22.1738 353.546C21.6011 353.648 20.7587 353.615 20.0859 353.374C19.4175 353.134 19.1975 352.817 19.1662 352.488L17.9716 352.601ZM22.3843 354.727L22.5957 355.908C24.4932 355.569 26.4064 354.978 28.1158 353.653L27.3805 352.705L26.6452 351.756C25.3649 352.749 23.8779 353.241 22.1728 353.546L22.3843 354.727ZM27.3805 352.705L28.1151 353.654C28.5973 353.28 29.0665 352.638 29.3741 352.212C29.5549 351.961 29.6959 351.76 29.829 351.582C29.9803 351.379 30.0255 351.34 29.9984 351.363L29.2218 350.448L28.4452 349.533C28.233 349.713 28.035 349.973 27.9058 350.146C27.7584 350.343 27.5816 350.594 27.4281 350.807C27.0668 351.307 26.8006 351.636 26.646 351.756L27.3805 352.705ZM29.2218 350.448L29.9952 351.365C30.4577 350.975 31.0474 350.67 31.8057 350.275C32.511 349.907 33.3689 349.458 34.0855 348.814L33.2827 347.922L32.48 347.03C32.0241 347.44 31.4365 347.761 30.6968 348.146C30.0102 348.504 29.1557 348.934 28.4485 349.53L29.2218 350.448ZM33.2827 347.922L34.0855 348.814C34.8094 348.162 35.2452 347.325 35.5633 346.644C35.9203 345.88 36.1131 345.372 36.3996 344.946L35.4038 344.276L34.4081 343.607C33.9831 344.238 33.6483 345.073 33.3891 345.628C33.091 346.266 32.8219 346.722 32.48 347.03L33.2827 347.922ZM35.4038 344.276L36.3992 344.947C36.662 344.556 37.121 344.086 37.6747 343.69C38.2357 343.29 38.7887 343.04 39.2148 342.973L39.0278 341.788L38.8407 340.602C37.9159 340.748 37.0139 341.213 36.2793 341.738C35.5373 342.268 34.8598 342.936 34.4085 343.606L35.4038 344.276ZM39.0278 341.788L39.2127 342.973C40.1866 342.821 41.3993 342.562 42.511 342.045C43.626 341.526 44.741 340.698 45.3425 339.359L44.2478 338.867L43.1532 338.375C42.87 339.006 42.3063 339.493 41.4981 339.869C40.6866 340.247 39.7315 340.463 38.8429 340.602L39.0278 341.788ZM44.2478 338.867L45.3428 339.358C46.3752 337.056 45.9912 334.071 45.5057 332.034L44.3384 332.312L43.1711 332.59C43.6396 334.556 43.8365 336.852 43.1529 338.376L44.2478 338.867ZM44.3384 332.312L45.5053 332.032C45.3344 331.32 45.0419 330.386 44.8755 329.755C44.6833 329.026 44.5644 328.396 44.5737 327.834L43.3738 327.814L42.174 327.794C42.1593 328.692 42.3469 329.578 42.5549 330.367C42.7889 331.254 42.9907 331.838 43.1716 332.592L44.3384 332.312ZM43.3738 327.814L44.5737 327.833C44.5736 327.836 44.5742 327.813 44.583 327.744C44.5914 327.679 44.6037 327.599 44.6207 327.493C44.6531 327.292 44.7004 327.015 44.7397 326.711C44.819 326.099 44.8782 325.304 44.753 324.45L43.5657 324.624L42.3784 324.799C42.4584 325.344 42.4256 325.894 42.3597 326.403C42.3264 326.659 42.2877 326.886 42.2514 327.111C42.2207 327.301 42.1777 327.567 42.174 327.795L43.3738 327.814ZM43.5657 324.624L44.7527 324.448C44.6167 323.531 44.3224 322.744 44.0693 322.1C43.7988 321.412 43.6086 320.958 43.5245 320.512L42.3453 320.734L41.1661 320.956C41.3031 321.683 41.6086 322.401 41.8357 322.978C42.0802 323.6 42.2855 324.172 42.3787 324.8L43.5657 324.624ZM42.3453 320.734L43.5245 320.512C43.199 318.786 43.1757 316.962 43.1546 315.055L41.9546 315.068L40.7547 315.081C40.7754 316.949 40.7948 318.988 41.1661 320.956L42.3453 320.734ZM41.9546 315.068L43.1546 315.055L43.1535 314.957L41.9536 314.97L40.7536 314.984L40.7547 315.081L41.9546 315.068ZM41.9536 314.97L43.1535 314.956C43.0914 309.768 44.6402 304.434 45.6486 299.032L44.469 298.812L43.2894 298.592C42.342 303.667 40.6878 309.482 40.7537 314.985L41.9536 314.97ZM44.469 298.812L45.6486 299.032C46.917 292.242 48.3944 285.184 48.7055 278.163L47.5067 278.11L46.3079 278.057C46.0062 284.866 44.5737 291.717 43.2894 298.591L44.469 298.812ZM47.5067 278.11L48.7056 278.163C48.9001 273.764 48.7569 269.347 48.265 264.941L47.0724 265.075L45.8798 265.208C46.3578 269.489 46.497 273.78 46.3079 278.057L47.5067 278.11ZM47.0724 265.075L48.2649 264.94C48.1967 264.334 48.1103 263.723 48.0262 263.127C47.9414 262.526 47.8587 261.94 47.7928 261.358C47.6605 260.191 47.6033 259.099 47.7256 258.079L46.5341 257.936L45.3426 257.793C45.1878 259.086 45.2678 260.391 45.408 261.628C45.4783 262.249 45.5657 262.867 45.6498 263.463C45.7347 264.064 45.8162 264.642 45.8799 265.209L47.0724 265.075ZM46.5341 257.936L47.7256 258.078C48.0962 254.979 49.1712 251.895 50.3193 248.654C51.4505 245.46 52.6541 242.109 53.1269 238.666L51.9381 238.503L50.7492 238.339C50.316 241.494 49.2067 244.606 48.057 247.853C46.9241 251.051 45.7501 254.385 45.3426 257.793L46.5341 257.936ZM51.9381 238.503L53.1269 238.666C53.5806 235.36 53.5117 232.024 53.4076 228.779C53.3024 225.503 53.1624 222.333 53.4321 219.21L52.2365 219.106L51.0409 219.003C50.7563 222.301 50.9054 225.636 51.0088 228.856C51.1132 232.107 51.1722 235.258 50.7492 238.339L51.9381 238.503ZM52.2365 219.106L53.4321 219.209C54.0577 211.949 55.2087 204.595 56.3533 197.285L55.1677 197.1L53.9822 196.914C52.8399 204.209 51.6749 211.646 51.0409 219.003L52.2365 219.106ZM55.1677 197.1L56.3533 197.285L56.3772 197.133L55.1916 196.947L54.0061 196.761L53.9822 196.914L55.1677 197.1ZM55.1916 196.947L56.3771 197.133C57.0489 192.849 57.7362 188.596 58.688 184.412L57.5179 184.146L56.3478 183.88C55.3757 188.153 54.6774 192.481 54.0061 196.761L55.1916 196.947ZM57.5179 184.146L58.6882 184.411C58.7839 183.989 58.8814 183.288 58.9828 182.544C59.0883 181.769 59.2056 180.885 59.3432 180.02C59.4815 179.149 59.6348 178.333 59.8062 177.695C59.8921 177.375 59.975 177.129 60.0506 176.955C60.1383 176.753 60.17 176.758 60.0969 176.823L59.2979 175.928L58.4988 175.033C58.1779 175.319 57.9783 175.702 57.8496 175.998C57.7088 176.322 57.5903 176.693 57.4883 177.073C57.2838 177.834 57.115 178.749 56.9729 179.643C56.8301 180.542 56.7085 181.457 56.6047 182.22C56.4968 183.012 56.4143 183.586 56.3476 183.881L57.5179 184.146ZM59.2979 175.928L60.0951 176.825C59.9356 176.967 59.7709 177.036 59.6557 177.071C59.5417 177.105 59.4464 177.115 59.3894 177.118C59.2818 177.123 59.2043 177.111 59.194 177.109C59.1744 177.107 59.1662 177.104 59.1825 177.108C59.2 177.112 59.2135 177.115 59.2504 177.123C59.3114 177.137 59.4098 177.159 59.5224 177.175C59.6355 177.192 59.7798 177.207 59.9417 177.202L59.9081 176.003L59.8744 174.803C59.8973 174.803 59.8878 174.807 59.7777 174.782C59.7545 174.777 59.6451 174.75 59.5527 174.736C59.5052 174.729 59.3959 174.714 59.263 174.721C59.1651 174.726 58.8157 174.751 58.5006 175.031L59.2979 175.928ZM59.9081 176.003L59.9291 177.203C60.0876 177.2 60.2302 177.181 60.3423 177.161C60.4544 177.141 60.5542 177.117 60.6193 177.101C60.6572 177.092 60.6753 177.087 60.6955 177.083C60.715 177.078 60.7125 177.079 60.6994 177.081C60.6956 177.082 60.6286 177.095 60.5331 177.094C60.4833 177.094 60.3918 177.09 60.2794 177.063C60.1694 177.036 59.9854 176.975 59.8034 176.823L60.5716 175.902L61.3397 174.98C61.1517 174.823 60.9597 174.758 60.8397 174.729C60.7173 174.7 60.6139 174.695 60.5504 174.694C60.4275 174.693 60.3259 174.71 60.2813 174.718C60.192 174.734 60.0857 174.761 60.0522 174.769C59.9954 174.783 59.9572 174.792 59.924 174.797C59.8907 174.803 59.8804 174.803 59.887 174.803L59.9081 176.003ZM60.5716 175.902L59.8076 176.827C59.7198 176.754 59.7468 176.735 59.8352 176.931C59.9105 177.099 59.9942 177.34 60.0812 177.658C60.2549 178.292 60.4093 179.108 60.5482 179.982C60.6864 180.852 60.8034 181.741 60.909 182.522C61.0103 183.273 61.108 183.982 61.2052 184.411L62.3755 184.146L63.5459 183.881C63.4779 183.581 63.3953 183.001 63.2874 182.201C63.1836 181.432 63.0621 180.51 62.9185 179.606C62.7756 178.707 62.605 177.787 62.3961 177.024C62.2918 176.644 62.1699 176.271 62.0234 175.946C61.8901 175.65 61.6792 175.26 61.3355 174.976L60.5716 175.902ZM62.3755 184.146L61.2053 184.411C62.1546 188.596 62.8447 192.85 63.5163 197.133L64.7018 196.947L65.8873 196.761C65.2159 192.48 64.5151 188.153 63.5458 183.881L62.3755 184.146ZM64.7018 196.947L63.5163 197.133C64.668 204.486 65.8049 211.867 66.4617 219.213L67.6569 219.106L68.8521 219C68.1873 211.563 67.0379 204.107 65.8873 196.761L64.7018 196.947ZM67.6569 219.106L66.4617 219.214C66.7428 222.348 66.6024 225.516 66.4939 228.787C66.3864 232.027 66.3113 235.358 66.7666 238.666L67.9554 238.503L69.1441 238.339C68.7201 235.257 68.7848 232.115 68.8926 228.866C68.9992 225.649 69.1493 222.313 68.8521 218.999L67.6569 219.106ZM67.9554 238.503L66.7665 238.666C67.2393 242.109 68.4429 245.46 69.5741 248.654C70.7222 251.895 71.7972 254.979 72.1678 258.078L73.3593 257.936L74.5508 257.793C74.1433 254.385 72.9693 251.051 71.8364 247.853C70.6867 244.606 69.5774 241.494 69.1442 238.339L67.9554 238.503ZM73.3593 257.936L72.1678 258.079C72.2901 259.099 72.2329 260.19 72.1006 261.357C72.0347 261.939 71.952 262.525 71.8672 263.126C71.7831 263.722 71.6967 264.334 71.6285 264.941L72.821 265.075L74.0135 265.209C74.0772 264.641 74.1587 264.063 74.2436 263.462C74.3277 262.866 74.4151 262.247 74.4854 261.627C74.6256 260.39 74.7056 259.086 74.5508 257.793L73.3593 257.936ZM72.821 265.075L71.6285 264.941C71.1338 269.347 70.9933 273.764 71.1879 278.163L72.3867 278.11L73.5855 278.057C73.3963 273.78 73.533 269.488 74.0135 265.208L72.821 265.075ZM72.3867 278.11L71.1879 278.163C71.499 285.184 72.9736 292.239 74.2449 299.033L75.4244 298.812L76.6039 298.591C75.3171 291.715 73.8872 284.866 73.5855 278.057L72.3867 278.11ZM75.4244 298.812L74.2448 299.032C75.2532 304.434 76.802 309.768 76.7399 314.956L77.9398 314.97L79.1398 314.985C79.2056 309.482 77.5514 303.667 76.604 298.592L75.4244 298.812ZM77.9398 314.97L76.7399 314.955L76.7377 315.139L77.9376 315.154L79.1375 315.169L79.1397 314.985L77.9398 314.97ZM77.9376 315.154L76.7377 315.139C76.7145 317.019 76.6893 318.813 76.3689 320.512L77.5481 320.734L78.7273 320.956C79.0932 319.017 79.1148 317.009 79.1375 315.168L77.9376 315.154ZM77.5481 320.734L76.3689 320.512C76.2848 320.957 76.0948 321.411 75.8242 322.099C75.571 322.743 75.2766 323.53 75.1407 324.449L76.3277 324.624L77.5148 324.8C77.608 324.171 77.8132 323.599 78.0576 322.978C78.2847 322.4 78.5903 321.683 78.7273 320.956L77.5481 320.734ZM76.3277 324.624L75.1404 324.45C75.0152 325.304 75.0744 326.1 75.1536 326.712C75.193 327.016 75.2403 327.294 75.2727 327.495C75.2897 327.6 75.3021 327.68 75.3104 327.745C75.3192 327.814 75.3198 327.837 75.3197 327.833L76.5196 327.814L77.7194 327.795C77.7158 327.567 77.6726 327.302 77.642 327.112C77.6057 326.887 77.567 326.66 77.5338 326.404C77.4678 325.895 77.435 325.344 77.515 324.799L76.3277 324.624ZM76.5196 327.814L75.3197 327.834C75.3289 328.393 75.2071 329.022 75.0116 329.756C74.8366 330.413 74.5543 331.306 74.3852 332.044L75.555 332.312L76.7247 332.58C76.8887 331.863 77.1007 331.237 77.3307 330.374C77.5403 329.587 77.7342 328.696 77.7194 327.794L76.5196 327.814ZM75.555 332.312L74.385 332.045C74.1444 333.1 73.9216 334.361 73.8852 335.624C73.8491 336.873 73.9916 338.225 74.5692 339.397L75.6456 338.867L76.722 338.337C76.3882 337.659 76.2536 336.751 76.2842 335.693C76.3143 334.649 76.5019 333.557 76.7249 332.579L75.555 332.312ZM75.6456 338.867L74.5686 339.396C75.1893 340.659 76.2437 341.473 77.3406 342.002C78.4311 342.528 79.6325 342.807 80.6777 342.973L80.8656 341.788L81.0536 340.602C80.1162 340.454 79.174 340.221 78.3832 339.84C77.5988 339.462 77.0345 338.972 76.7225 338.338L75.6456 338.867ZM80.8656 341.788L80.6767 342.973C81.1065 343.041 81.6613 343.291 82.2214 343.691C82.7748 344.086 83.2318 344.554 83.4923 344.944L84.4896 344.276L85.4869 343.609C85.0359 342.935 84.3577 342.267 83.6155 341.737C82.8799 341.212 81.9784 340.75 81.0546 340.603L80.8656 341.788ZM84.4896 344.276L83.4938 344.946C83.7803 345.372 83.9731 345.88 84.3301 346.644C84.6482 347.325 85.084 348.162 85.8079 348.814L86.6107 347.922L87.4134 347.03C87.0715 346.722 86.8024 346.266 86.5043 345.628C86.2451 345.073 85.9103 344.238 85.4853 343.607L84.4896 344.276ZM86.6107 347.922L85.8079 348.814C86.5245 349.458 87.3824 349.907 88.0877 350.275C88.846 350.67 89.4357 350.975 89.8982 351.365L90.6716 350.448L91.445 349.53C90.7377 348.934 89.8832 348.504 89.1966 348.146C88.4569 347.761 87.8693 347.44 87.4134 347.03L86.6107 347.922ZM90.6716 350.448L89.8988 351.366C89.8696 351.341 89.9136 351.378 90.0651 351.581C90.1975 351.758 90.3389 351.96 90.5193 352.21C90.8269 352.636 91.2954 353.278 91.7759 353.652L92.5129 352.705L93.2499 351.758C93.0935 351.636 92.8266 351.305 92.4653 350.805C92.3113 350.592 92.1349 350.341 91.9869 350.143C91.8579 349.971 91.6588 349.71 91.4444 349.53L90.6716 350.448ZM92.5129 352.705L91.7786 353.654C93.4752 354.966 95.4258 355.628 97.3311 355.914L97.5091 354.727L97.6871 353.54C96.0751 353.299 94.5404 352.756 93.2472 351.756L92.5129 352.705ZM97.5091 354.727L97.3317 355.914C98.2232 356.047 99.4773 356.028 100.59 355.648C101.721 355.261 102.952 354.388 103.116 352.718L101.922 352.601L100.728 352.484C100.691 352.852 100.465 353.154 99.8137 353.377C99.1449 353.606 98.2926 353.631 97.6865 353.54L97.5091 354.727ZM101.922 352.601L101.373 353.668C102.154 354.069 103.298 354.386 104.384 354.32C104.937 354.287 105.55 354.15 106.094 353.8C106.664 353.434 107.092 352.876 107.292 352.145L106.135 351.828L104.977 351.511C104.933 351.671 104.868 351.735 104.797 351.781C104.7 351.843 104.524 351.908 104.24 351.925C103.653 351.96 102.934 351.772 102.47 351.533L101.922 352.601ZM106.135 351.828L105.772 352.972C106.709 353.269 107.618 352.908 108.165 352.325C108.73 351.723 109.03 350.749 108.555 349.794L107.48 350.328L106.406 350.862C106.402 350.854 106.395 350.837 106.391 350.81C106.388 350.785 106.389 350.759 106.393 350.737C106.397 350.716 106.404 350.702 106.408 350.693C106.412 350.685 106.415 350.682 106.415 350.682C106.415 350.682 106.415 350.683 106.414 350.683C106.413 350.684 106.415 350.683 106.42 350.681C106.433 350.677 106.463 350.673 106.497 350.684L106.135 351.828ZM107.48 350.328L107.259 351.507C108.032 351.652 108.829 351.347 109.285 350.66C109.735 349.983 109.732 349.143 109.448 348.372L108.322 348.788L107.197 349.203C107.299 349.48 107.195 349.469 107.287 349.331C107.328 349.268 107.396 349.21 107.481 349.174C107.566 349.14 107.644 349.138 107.701 349.148L107.48 350.328ZM108.322 348.788L108.466 349.979C109.038 349.91 109.46 349.572 109.702 349.167C109.925 348.793 109.99 348.382 109.983 348.034C109.969 347.34 109.665 346.568 109.05 346.008L108.242 346.896L107.434 347.783C107.537 347.876 107.582 348.013 107.583 348.083C107.584 348.117 107.573 348.052 107.641 347.937C107.678 347.875 107.743 347.794 107.844 347.724C107.948 347.652 108.065 347.61 108.179 347.596L108.322 348.788ZM108.242 346.896L108.377 348.088C108.655 348.057 108.86 347.941 108.967 347.871C109.096 347.786 109.207 347.685 109.3 347.578C109.489 347.359 109.634 347.079 109.704 346.751C109.846 346.077 109.643 345.358 109.17 344.652L108.173 345.321L107.177 345.989C107.42 346.353 107.322 346.413 107.356 346.255C107.37 346.185 107.408 346.097 107.484 346.008C107.521 345.966 107.575 345.914 107.651 345.864C107.706 345.828 107.865 345.731 108.107 345.703L108.242 346.896ZM108.173 345.321L109.169 344.652C108.772 344.06 108.032 343.497 107.501 343.115C107.208 342.905 106.917 342.708 106.682 342.547C106.429 342.374 106.271 342.265 106.19 342.2L105.442 343.138L104.694 344.077C104.862 344.21 105.106 344.377 105.33 344.53C105.573 344.696 105.837 344.875 106.1 345.064C106.681 345.482 107.057 345.812 107.177 345.99L108.173 345.321ZM105.442 343.138L106.188 342.199C105.641 341.764 105.117 341.289 104.521 340.77C103.944 340.267 103.316 339.739 102.636 339.28L101.964 340.274L101.293 341.268C101.844 341.641 102.379 342.087 102.945 342.58C103.493 343.057 104.092 343.599 104.696 344.078L105.442 343.138ZM101.964 340.274L102.636 339.28C102.113 338.926 101.527 338.566 100.96 338.213C100.382 337.853 99.8103 337.493 99.2697 337.114C98.1646 336.34 97.3209 335.577 96.8792 334.774L95.8277 335.352L94.7762 335.931C95.4937 337.235 96.7191 338.258 97.8929 339.08C98.4918 339.499 99.1122 339.89 99.6913 340.25C100.281 340.617 100.817 340.946 101.292 341.268L101.964 340.274ZM95.8277 335.352L96.8787 334.773C95.9739 333.131 94.6314 331.433 93.5122 329.909C92.3388 328.31 91.4085 326.9 91.0363 325.641L89.8855 325.981L88.7347 326.321C89.2419 328.038 90.4274 329.762 91.5775 331.329C92.782 332.97 93.9708 334.469 94.7768 335.932L95.8277 335.352ZM89.8855 325.981L91.0362 325.64C90.6354 324.286 90.8161 322.375 91.259 320.112C91.4757 319.005 91.739 317.883 91.9925 316.752C92.2426 315.637 92.4823 314.516 92.6322 313.473L91.4444 313.302L90.2565 313.132C90.1213 314.074 89.9003 315.114 89.6507 316.227C89.4044 317.326 89.1287 318.501 88.9037 319.651C88.4633 321.902 88.1497 324.344 88.7349 326.321L89.8855 325.981ZM91.4444 313.302L92.6322 313.472C94.6908 299.105 97.6311 283.827 97.827 269.298L96.6271 269.282L95.4272 269.266C95.2341 283.59 92.3388 298.599 90.2565 313.132L91.4444 313.302ZM96.6271 269.282L97.827 269.298C97.8728 265.869 97.2804 262.486 96.6498 259.225C96.012 255.926 95.3406 252.772 95.1441 249.63L93.9465 249.705L92.7488 249.78C92.9574 253.115 93.6703 256.457 94.2935 259.68C94.9239 262.941 95.4694 266.108 95.4272 269.266L96.6271 269.282ZM93.9465 249.705L95.1442 249.63C95.0461 248.053 95.1097 246.427 95.1866 244.727C95.2625 243.049 95.3518 241.292 95.2841 239.551L94.085 239.598L92.8859 239.644C92.9489 241.263 92.8663 242.91 92.789 244.619C92.7126 246.307 92.6417 248.055 92.7488 249.779L93.9465 249.705ZM94.085 239.598L95.2841 239.551C95.1391 235.804 94.8113 232.042 95.5355 228.666L94.3622 228.414L93.1889 228.162C92.3835 231.917 92.7485 236.095 92.8859 239.644L94.085 239.598ZM94.3622 228.414L95.5355 228.666C97.564 219.212 99.4066 209.416 100.284 199.631L99.0893 199.524L97.8941 199.417C97.0293 209.056 95.2106 218.74 93.1889 228.162L94.3622 228.414ZM99.0893 199.524L100.284 199.631C101.449 186.671 102.142 173.333 101.866 160.386L100.667 160.412L99.467 160.437C99.7403 173.269 99.0533 186.513 97.8941 199.416L99.0893 199.524ZM100.667 160.412L101.866 160.386C101.668 151.136 100.264 145.147 98.6998 140.222C97.1198 135.246 95.5012 131.663 94.7124 126.835L93.5281 127.029L92.3438 127.222C93.1698 132.278 94.9247 136.264 96.4124 140.948C97.9158 145.682 99.2739 151.443 99.467 160.438L100.667 160.412ZM93.5281 127.029L94.7124 126.835C93.9168 121.969 93.3861 116.703 93.1477 112.091C92.9078 107.449 92.9692 103.564 93.3214 101.416L92.1372 101.222L90.953 101.028C90.5564 103.447 90.5098 107.551 90.7509 112.215C90.9935 116.907 91.5327 122.261 92.3439 127.223L93.5281 127.029ZM92.1372 101.222L93.3213 101.416C93.93 97.7053 94.5607 93.3304 94.9694 89.3348C95.374 85.3782 95.575 81.6715 95.275 79.3633L94.085 79.518L92.895 79.6726C93.1547 81.6705 92.9879 85.1198 92.5818 89.0906C92.1797 93.0224 91.5568 97.3463 90.953 101.027L92.1372 101.222ZM94.085 79.518L92.9143 79.7816C93.3141 81.5571 95.9296 97.0313 96.3705 100.809L97.5624 100.67L98.7543 100.531C98.3052 96.6826 95.6767 81.1241 95.2557 79.2544L94.085 79.518ZM97.5624 100.67L96.3705 100.809C97.4275 109.89 98.1189 115.265 100.289 124.252L101.455 123.97L102.622 123.688C100.486 114.843 99.8078 109.581 98.7544 100.531L97.5624 100.67ZM101.455 123.97L100.289 124.252C101.224 128.126 102.153 131.184 103.142 134.336C104.131 137.488 105.177 140.724 106.364 144.998L107.52 144.677L108.677 144.356C107.476 140.034 106.416 136.752 105.432 133.617C104.448 130.483 103.539 127.485 102.622 123.688L101.455 123.97ZM107.52 144.677L106.364 144.998C106.94 147.073 107.086 148.983 106.553 150.846L107.707 151.176L108.861 151.506C109.554 149.08 109.326 146.694 108.676 144.356L107.52 144.677ZM107.707 151.176L106.553 150.846C106.012 152.737 105.657 154.158 104.688 155.519L105.666 156.215L106.643 156.911C107.902 155.143 108.357 153.266 108.86 151.506L107.707 151.176ZM105.666 156.215L104.689 155.518C103.212 157.589 102.223 160.673 101.915 163.067L103.105 163.22L104.295 163.374C104.568 161.254 105.455 158.577 106.643 156.912L105.666 156.215ZM103.105 163.22L101.915 163.068C101.759 164.284 101.849 165.6 101.905 166.726C101.964 167.918 101.988 168.916 101.807 169.75L102.98 170.005L104.152 170.259C104.411 169.068 104.359 167.758 104.302 166.607C104.241 165.389 104.173 164.326 104.295 163.372L103.105 163.22ZM102.98 170.005L101.807 169.749C101.717 170.163 101.598 170.82 101.536 171.502C101.477 172.141 101.448 172.971 101.639 173.64L102.793 173.311L103.947 172.983C103.887 172.773 103.87 172.328 103.925 171.722C103.977 171.16 104.077 170.603 104.152 170.261L102.98 170.005ZM102.793 173.311L101.639 173.64C101.633 173.62 101.644 173.65 101.648 173.758C101.651 173.858 101.649 173.989 101.638 174.153C101.616 174.486 101.569 174.871 101.516 175.297C101.467 175.701 101.412 176.153 101.393 176.545C101.383 176.743 101.38 176.958 101.399 177.164C101.415 177.351 101.456 177.638 101.599 177.918L102.668 177.372L103.737 176.826C103.802 176.954 103.796 177.028 103.789 176.953C103.785 176.899 103.783 176.806 103.79 176.663C103.804 176.374 103.847 176.014 103.899 175.589C103.948 175.186 104.006 174.725 104.033 174.309C104.057 173.932 104.072 173.421 103.947 172.983L102.793 173.311ZM102.668 177.372L101.599 177.918C101.872 178.452 102.323 178.897 102.845 179.167C103.366 179.438 104.083 179.591 104.803 179.301L104.355 178.188L103.906 177.075C104.011 177.033 104.04 177.083 103.95 177.037C103.911 177.016 103.866 176.985 103.824 176.943C103.782 176.901 103.753 176.859 103.737 176.826L102.668 177.372ZM104.355 178.188L104.806 179.3C106.057 178.792 106.908 177.551 107.438 176.446C107.991 175.291 108.34 173.979 108.423 172.935L107.227 172.84L106.031 172.745C105.973 173.473 105.709 174.5 105.273 175.409C104.814 176.368 104.299 176.915 103.903 177.076L104.355 178.188ZM107.227 172.84L108.423 172.936C108.482 172.208 108.484 171.437 108.494 170.74C108.505 170.019 108.524 169.358 108.604 168.747L107.414 168.592L106.224 168.438C106.125 169.199 106.105 169.983 106.095 170.704C106.084 171.449 106.082 172.115 106.031 172.743L107.227 172.84ZM107.414 168.592L108.603 168.749C108.601 168.766 108.608 168.708 108.686 168.573C108.758 168.448 108.86 168.308 108.976 168.174C109.093 168.039 109.204 167.933 109.278 167.871C109.317 167.838 109.327 167.834 109.309 167.845C109.301 167.85 109.265 167.872 109.207 167.896C109.177 167.909 109.13 167.927 109.068 167.943C109.01 167.958 108.912 167.978 108.789 167.978V166.778V165.578C108.541 165.578 108.352 165.652 108.279 165.683C108.185 165.722 108.106 165.767 108.05 165.802C107.936 165.872 107.83 165.953 107.739 166.029C107.554 166.184 107.352 166.383 107.162 166.603C106.827 166.989 106.324 167.671 106.224 168.436L107.414 168.592ZM108.789 166.778V167.978C108.478 167.978 108.264 167.855 108.219 167.829C108.144 167.787 108.094 167.746 108.077 167.732C108.042 167.703 108.03 167.688 108.05 167.709C108.084 167.746 108.147 167.821 108.239 167.94C108.418 168.172 108.65 168.499 108.879 168.849C109.109 169.201 109.32 169.55 109.463 169.828C109.536 169.969 109.579 170.067 109.6 170.124C109.61 170.152 109.608 170.151 109.602 170.125C109.6 170.112 109.578 170.009 109.596 169.859L110.787 170.007L111.978 170.155C112.025 169.78 111.905 169.441 111.856 169.305C111.786 169.112 111.692 168.912 111.595 168.725C111.4 168.348 111.141 167.923 110.887 167.535C110.631 167.144 110.363 166.764 110.139 166.474C110.029 166.332 109.916 166.193 109.812 166.08C109.763 166.027 109.691 165.953 109.608 165.884C109.567 165.85 109.496 165.795 109.403 165.741C109.34 165.706 109.111 165.578 108.789 165.578V166.778ZM110.787 170.007L109.596 169.861C109.51 170.563 109.449 171.327 109.39 172.08C109.331 172.843 109.275 173.597 109.198 174.322C109.038 175.83 108.805 176.959 108.44 177.586L109.476 178.19L110.513 178.795C111.17 177.669 111.428 176.049 111.585 174.576C111.666 173.809 111.725 173.014 111.783 172.265C111.842 171.506 111.899 170.794 111.978 170.154L110.787 170.007ZM109.476 178.19L108.439 177.586C108.341 177.755 108.129 177.994 107.75 178.323C107.378 178.646 106.948 178.971 106.452 179.359C105.549 180.065 104.352 181.022 103.774 182.225L104.856 182.744L105.937 183.264C106.231 182.652 106.942 182.022 107.93 181.25C108.379 180.899 108.89 180.512 109.324 180.135C109.751 179.764 110.209 179.316 110.513 178.795L109.476 178.19ZM104.856 182.744L103.773 182.226C103.344 183.122 103.382 184.128 103.493 184.805C103.551 185.162 103.64 185.493 103.743 185.758C103.791 185.884 103.859 186.037 103.95 186.18C103.993 186.248 104.072 186.362 104.192 186.473C104.278 186.552 104.597 186.831 105.097 186.808L105.042 185.609L104.987 184.41C105.465 184.388 105.76 184.655 105.818 184.708C105.912 184.794 105.962 184.872 105.974 184.89C106.003 184.936 106.002 184.947 105.982 184.895C105.947 184.804 105.897 184.634 105.861 184.417C105.784 183.949 105.816 183.518 105.938 183.263L104.856 182.744ZM105.042 185.609L105.111 186.807C105.892 186.762 106.763 186.489 107.602 186.14C108.462 185.783 109.377 185.308 110.269 184.787C112.051 183.748 113.825 182.481 115 181.481L114.222 180.567L113.444 179.653C112.386 180.554 110.73 181.741 109.061 182.714C108.228 183.2 107.412 183.62 106.681 183.924C105.93 184.236 105.353 184.389 104.973 184.411L105.042 185.609ZM114.222 180.567L114.999 181.482C116.476 180.226 117.84 177.928 118.879 175.629C119.933 173.297 120.748 170.747 121.029 168.833L119.842 168.659L118.654 168.485C118.416 170.112 117.686 172.441 116.692 174.641C115.683 176.873 114.497 178.758 113.445 179.653L114.222 180.567ZM119.842 168.659L121.029 168.834C121.407 166.269 121.091 163.482 120.72 160.838C120.339 158.127 119.903 155.579 119.917 153.238L118.717 153.231L117.517 153.223C117.502 155.79 117.979 158.582 118.343 161.172C118.716 163.828 118.977 166.3 118.655 168.484L119.842 168.659ZM118.717 153.231H119.917C119.917 152.441 119.988 151.599 120.078 150.713C120.167 149.847 120.277 148.913 120.34 148.032L119.144 147.947L117.947 147.861C117.887 148.693 117.785 149.547 117.691 150.469C117.599 151.369 117.517 152.312 117.517 153.231H118.717ZM77.7773 -16.4658C78.9692 -16.3266 78.9692 -16.3269 78.9693 -16.3271C78.9693 -16.3272 78.9693 -16.3275 78.9693 -16.3278C78.9694 -16.3283 78.9695 -16.329 78.9696 -16.3299C78.9698 -16.3316 78.97 -16.3339 78.9704 -16.3368C78.971 -16.3426 78.972 -16.351 78.9732 -16.3617C78.9756 -16.383 78.979 -16.414 78.9833 -16.4542C78.9919 -16.5344 79.004 -16.6513 79.0185 -16.8011C79.0475 -17.1009 79.0861 -17.5331 79.1249 -18.0694C79.2024 -19.141 79.2814 -20.633 79.2874 -22.3165C79.2991 -25.6403 79.0288 -29.8745 77.7965 -33.0719L76.6768 -32.6404L75.5571 -32.2088C76.6191 -29.4533 76.899 -25.6003 76.8874 -22.325C76.8817 -20.709 76.8057 -19.2736 76.7311 -18.2426C76.6938 -17.7276 76.657 -17.3147 76.6297 -17.0322C76.616 -16.891 76.6048 -16.7824 76.597 -16.71C76.5931 -16.6738 76.5901 -16.6467 76.5881 -16.6291C76.5871 -16.6202 76.5864 -16.6138 76.5859 -16.6098C76.5857 -16.6077 76.5856 -16.6063 76.5855 -16.6056C76.5854 -16.6052 76.5854 -16.6049 76.5854 -16.6048C76.5854 -16.6048 76.5854 -16.6048 76.5854 -16.6048C76.5854 -16.6049 76.5854 -16.605 77.7773 -16.4658ZM76.6768 -32.6404L77.7965 -33.0719C75.8608 -38.0939 69.9278 -44.8801 59.3618 -44.8801V-43.6801V-42.4801C68.7488 -42.4801 73.9062 -36.4919 75.5571 -32.2088L76.6768 -32.6404ZM59.3618 -43.6801V-44.8801H59.3512V-43.6801V-42.4801H59.3618V-43.6801ZM59.3512 -43.6801V-44.8801H59.3405V-43.6801V-42.4801H59.3512V-43.6801ZM59.3405 -43.6801V-44.8801C48.7718 -44.8801 42.8415 -38.0937 40.9058 -33.0719L42.0255 -32.6404L43.1452 -32.2088C44.7962 -36.492 49.9509 -42.4801 59.3405 -42.4801V-43.6801ZM42.0255 -32.6404L40.9058 -33.0719C39.6735 -29.8746 39.4051 -25.6606 39.4189 -22.3558C39.4259 -20.6819 39.506 -19.1997 39.5843 -18.1354C39.6235 -17.6027 39.6624 -17.1735 39.6916 -16.8759C39.7062 -16.727 39.7184 -16.611 39.7271 -16.5313C39.7314 -16.4915 39.7349 -16.4607 39.7373 -16.4394C39.7385 -16.4288 39.7395 -16.4205 39.7402 -16.4147C39.7405 -16.4118 39.7408 -16.4095 39.741 -16.4078C39.7411 -16.4069 39.7411 -16.4063 39.7412 -16.4057C39.7412 -16.4055 39.7413 -16.4052 39.7413 -16.405C39.7413 -16.4048 39.7413 -16.4046 40.933 -16.5458C42.1247 -16.687 42.1247 -16.6869 42.1247 -16.6868C42.1247 -16.6868 42.1247 -16.6867 42.1247 -16.6868C42.1247 -16.6869 42.1247 -16.6871 42.1246 -16.6875C42.1245 -16.6883 42.1244 -16.6896 42.1241 -16.6916C42.1237 -16.6956 42.1229 -16.702 42.1219 -16.7107C42.1199 -16.7282 42.1169 -16.7551 42.113 -16.791C42.1052 -16.8627 42.0939 -16.9704 42.0801 -17.1105C42.0526 -17.3907 42.0155 -17.8004 41.9778 -18.3115C41.9025 -19.3348 41.8256 -20.76 41.8189 -22.3657C41.8053 -25.6199 42.0832 -29.4532 43.1452 -32.2088L42.0255 -32.6404ZM40.933 -16.5458C41.6914 -17.4758 41.6909 -17.4762 41.6904 -17.4766C41.6902 -17.4767 41.6897 -17.4771 41.6894 -17.4774C41.6887 -17.4779 41.6881 -17.4785 41.6874 -17.479C41.686 -17.4801 41.6846 -17.4813 41.6831 -17.4825C41.6801 -17.4849 41.677 -17.4874 41.6736 -17.49C41.6669 -17.4953 41.6594 -17.5011 41.6511 -17.5074C41.6345 -17.52 41.6147 -17.5345 41.5917 -17.5506C41.5461 -17.5824 41.4866 -17.621 41.4146 -17.6615C41.2745 -17.7402 41.066 -17.8377 40.8052 -17.8948C40.2206 -18.0229 39.4786 -17.9162 38.8582 -17.2791L39.7179 -16.4419L40.5776 -15.6047C40.5897 -15.617 40.5556 -15.5798 40.4718 -15.5572C40.3936 -15.536 40.3277 -15.5425 40.2914 -15.5505C40.26 -15.5573 40.2439 -15.5663 40.2388 -15.5692C40.2343 -15.5718 40.228 -15.5756 40.2186 -15.5821C40.2138 -15.5855 40.2079 -15.5898 40.2007 -15.5952C40.1971 -15.598 40.1931 -15.601 40.1888 -15.6044C40.1866 -15.6061 40.1844 -15.6079 40.182 -15.6098C40.1808 -15.6108 40.1796 -15.6117 40.1784 -15.6127C40.1778 -15.6132 40.1772 -15.6137 40.1765 -15.6142C40.1762 -15.6145 40.1758 -15.6149 40.1756 -15.615C40.1751 -15.6154 40.1746 -15.6158 40.933 -16.5458ZM39.7179 -16.4419L38.8585 -17.2794C38.1543 -16.5568 38.133 -15.5095 38.1946 -14.7989C38.2637 -13.9999 38.4892 -13.1171 38.7421 -12.3107C38.9985 -11.4928 39.3024 -10.694 39.5557 -10.052C39.8275 -9.3633 40.0036 -8.94341 40.065 -8.75226L41.2075 -9.11937L42.3499 -9.48647C42.2568 -9.77629 42.0162 -10.355 41.7882 -10.9329C41.5417 -11.5575 41.2627 -12.2934 41.0322 -13.0287C40.798 -13.7755 40.6325 -14.4644 40.5856 -15.0059C40.5311 -15.6359 40.6686 -15.6981 40.5773 -15.6043L39.7179 -16.4419ZM41.2075 -9.11937L40.0653 -8.75133C40.065 -8.75229 40.0821 -8.68873 40.1025 -8.50621C40.1214 -8.33775 40.1366 -8.13531 40.1554 -7.88264C40.1911 -7.40078 40.237 -6.76869 40.3508 -6.15174C40.4622 -5.54805 40.6584 -4.83662 41.0664 -4.23996C41.5093 -3.59211 42.1989 -3.09304 43.1547 -3.02232L43.2433 -4.21905L43.3318 -5.41578C43.2071 -5.425 43.1406 -5.45853 43.0475 -5.5946C42.9195 -5.78185 42.7998 -6.10564 42.711 -6.58712C42.6246 -7.05537 42.586 -7.55842 42.5488 -8.06031C42.531 -8.29953 42.5125 -8.55112 42.4876 -8.77369C42.4642 -8.98218 42.4272 -9.24662 42.3496 -9.4874L41.2075 -9.11937ZM43.2433 -4.21905L42.089 -3.8909C42.901 -1.03472 44.8606 2.73243 47.5189 5.58439L48.3967 4.76619L49.2745 3.948C46.8859 1.38536 45.1097 -2.04208 44.3975 -4.5472L43.2433 -4.21905ZM71.1236 4.25724L71.9799 5.09795C74.5097 2.52137 75.941 -1.52958 76.6109 -3.89165L75.4564 -4.21905L74.3019 -4.54646C73.6448 -2.22937 72.3422 1.30331 70.2674 3.41653L71.1236 4.25724ZM75.4564 -4.21905L75.5434 -3.02221C76.4995 -3.09177 77.1896 -3.59016 77.633 -4.23806C78.0412 -4.83458 78.2375 -5.54607 78.3489 -6.14975C78.4627 -6.76672 78.5085 -7.39899 78.5443 -7.8812C78.5631 -8.13403 78.5782 -8.33673 78.5971 -8.5055C78.6176 -8.68821 78.6347 -8.75246 78.6347 -8.75225L77.4922 -9.11937L76.3497 -9.48648C76.2724 -9.24579 76.2354 -8.98145 76.2121 -8.77264C76.1871 -8.54989 76.1686 -8.29814 76.1509 -8.05876C76.1136 -7.55654 76.075 -7.05334 75.9887 -6.58512C75.8998 -6.10361 75.7802 -5.78022 75.6524 -5.59349C75.5598 -5.45815 75.4938 -5.42494 75.3693 -5.41589L75.4564 -4.21905ZM77.4922 -9.11937L78.6344 -8.75134C78.7007 -8.95707 78.8797 -9.41299 79.1404 -10.1123C79.3877 -10.7755 79.6839 -11.5954 79.9413 -12.4251C80.1955 -13.2444 80.4274 -14.1219 80.5266 -14.8898C80.5761 -15.2721 80.5996 -15.6771 80.5563 -16.0587C80.5152 -16.42 80.3974 -16.9144 80.0266 -17.314L79.1469 -16.4978L78.2673 -15.6816C78.1363 -15.8228 78.1563 -15.9227 78.1716 -15.7879C78.1846 -15.6733 78.183 -15.4804 78.1465 -15.1975C78.0737 -14.6349 77.8899 -13.9123 77.6491 -13.1362C77.4115 -12.3704 77.1335 -11.5995 76.8917 -10.9508C76.6633 -10.3383 76.4383 -9.7613 76.35 -9.4874L77.4922 -9.11937ZM79.1469 -16.4978L80.0282 -17.3123C79.7113 -17.6552 79.321 -17.8858 78.8811 -17.9688C78.4559 -18.049 78.0806 -17.9734 77.8045 -17.872C77.5318 -17.7719 77.3189 -17.6336 77.1819 -17.5313C77.1107 -17.4781 77.0526 -17.4291 77.0094 -17.3904C76.9876 -17.3709 76.9691 -17.3537 76.9542 -17.3393C76.9467 -17.3321 76.9401 -17.3256 76.9343 -17.3199C76.9314 -17.317 76.9287 -17.3143 76.9262 -17.3118C76.925 -17.3106 76.9238 -17.3094 76.9227 -17.3083C76.9222 -17.3077 76.9216 -17.3071 76.9211 -17.3066C76.9208 -17.3063 76.9204 -17.3059 76.9203 -17.3058C76.9199 -17.3054 76.9195 -17.305 77.7773 -16.4658C78.6351 -15.6267 78.6347 -15.6263 78.6343 -15.6259C78.6342 -15.6258 78.6339 -15.6254 78.6336 -15.6252C78.6331 -15.6247 78.6326 -15.6242 78.6322 -15.6237C78.6312 -15.6227 78.6303 -15.6218 78.6294 -15.6209C78.6276 -15.6191 78.626 -15.6175 78.6245 -15.616C78.6215 -15.613 78.6189 -15.6105 78.6169 -15.6086C78.6128 -15.6046 78.6104 -15.6025 78.6096 -15.6017C78.6082 -15.6005 78.6115 -15.6035 78.6179 -15.6083C78.6361 -15.6219 78.6437 -15.6235 78.6321 -15.6192C78.6172 -15.6138 78.5437 -15.5901 78.4362 -15.6104C78.314 -15.6334 78.2576 -15.6921 78.2657 -15.6833L79.1469 -16.4978ZM48.3967 4.76619L47.5184 5.58387C47.5413 5.60842 47.5644 5.63295 47.588 5.65744L48.4539 4.82666L49.3198 3.99587C49.3046 3.98011 49.2897 3.96432 49.275 3.94851L48.3967 4.76619ZM48.4539 4.82666L47.2544 4.86108C47.3551 8.37343 47.5335 11.2496 46.4517 13.6629L47.5467 14.1538L48.6417 14.6447C50.0022 11.6098 49.7472 8.06077 49.6534 4.79224L48.4539 4.82666ZM70.6908 4.67838L71.5074 5.55769C71.6697 5.40703 71.8271 5.25365 71.98 5.09785L71.1236 4.25724L70.2673 3.41663C70.1395 3.54676 70.0086 3.67429 69.8742 3.79907L70.6908 4.67838ZM71.8484 14.1538L72.945 13.6664C71.7389 10.9528 71.7874 8.52581 71.8863 4.86192L70.6868 4.82955L69.4872 4.79717C69.3901 8.3937 69.2931 11.359 70.7518 14.6412L71.8484 14.1538ZM70.6868 4.82955L71.8863 4.86188L71.8904 4.71071L70.6908 4.67838L69.4913 4.64605L69.4872 4.79722L70.6868 4.82955Z" fill="#EAEAEA" mask="url(#path-1-outside-1_25_19794)"/>
<path d="M58.7703 69.984C58.7703 69.984 58.7703 78.6149 58.7703 80.1657C53.0786 80.4988 46.2304 82.5532 41.9642 85.0154C41.9642 82.9716 41.9642 70.7115 41.9642 70.7115L58.7703 69.984Z" fill="#C7C7C7"/>
<path d="M58.7703 82.7395C52.5829 83.0779 45.8973 85.231 41.9642 87.6772C41.9642 89.4945 41.9642 98.1013 41.9642 98.1013L58.7703 97.6776C58.7703 97.6776 58.7703 84.2637 58.7703 82.7395Z" fill="#C7C7C7"/>
<path d="M58.7703 100.278H41.9642V111.105H58.7703V100.278Z" fill="#C7C7C7"/>
<path d="M42.1292 113.7C44.213 113.769 58.7701 113.7 58.7701 113.7C58.7701 113.7 58.7701 165.213 58.7701 165.738C56.3319 165.618 52.2203 163.974 50.1872 162.511C50.0619 162.149 42.1292 133.781 42.1292 113.7Z" fill="#C7C7C7"/>
<path d="M27.5084 131.338C30.1944 137.517 40.7545 154.409 47.2323 160.09C40.1469 138.583 41.6285 116.357 38.1138 111.049C36.0061 107.865 32.5367 107.159 29.8427 103.426C29.4483 113.477 28.156 126.291 27.5084 131.338Z" fill="#C7C7C7"/>
<path d="M29.8401 73.7437C31.9931 80.003 39.8752 81.5405 39.8752 81.5405V88.1915C39.8752 88.1915 33.8264 86.8032 31.6733 84.0826C29.976 81.9375 29.2538 78.6333 29.8401 73.7437Z" fill="#C7C7C7"/>
<path d="M30.7355 63.6232C32.8886 69.8825 39.878 70.8018 39.878 70.8018V78.6705C39.878 78.6705 34.7299 77.5274 32.5289 74.4657C30.8208 72.0915 30.5677 69.4508 30.7355 63.6232Z" fill="#C7C7C7"/>
<path d="M28.2307 82.4731C30.5143 89.4571 39.8779 90.9147 39.8779 90.9147V97.5657C39.8779 97.5657 34.1409 96.308 31.6761 93.8592C29.8934 92.0872 27.6924 88.2501 28.2307 82.4731Z" fill="#C7C7C7"/>
<path d="M27.4231 91.0692C30.1091 98.8607 39.8777 100.451 39.8777 100.451V106.7C39.8777 106.7 34.0048 105.037 31.6759 102.591C30.1411 100.982 28.0946 98.1865 27.4231 91.0692Z" fill="#C7C7C7"/>
<path d="M61.0962 69.984C61.0962 69.984 61.0962 78.6149 61.0962 80.1657C66.7879 80.4988 73.6361 82.5532 77.9023 85.0154C77.9023 82.9716 77.9023 70.7115 77.9023 70.7115L61.0962 69.984Z" fill="#C7C7C7"/>
<path d="M61.0962 82.7395C67.2836 83.0779 73.9692 85.231 77.9023 87.6772C77.9023 89.4945 77.9023 98.1013 77.9023 98.1013L61.0962 97.6776C61.0962 97.6776 61.0962 84.2637 61.0962 82.7395Z" fill="#C7C7C7"/>
<path d="M77.9023 100.278H61.0962V111.105H77.9023V100.278Z" fill="#C7C7C7"/>
<path d="M77.737 113.7C75.6533 113.769 61.0962 113.7 61.0962 113.7C61.0962 113.7 61.0962 165.213 61.0962 165.738C63.5344 165.618 67.646 163.974 69.6791 162.511C69.8043 162.149 77.737 133.781 77.737 113.7Z" fill="#C7C7C7"/>
<path d="M92.3609 131.338C89.6749 137.517 79.1148 154.409 72.637 160.09C79.7224 138.583 78.2408 116.357 81.7555 111.049C83.8633 107.865 87.3326 107.159 90.0266 103.426C90.4183 113.477 91.7134 126.291 92.3609 131.338Z" fill="#C7C7C7"/>
<path d="M90.0265 73.7437C87.8735 80.003 79.9914 81.5405 79.9914 81.5405V88.1915C79.9914 88.1915 86.0402 86.8032 88.1932 84.0826C89.8906 81.9375 90.6127 78.6333 90.0265 73.7437Z" fill="#C7C7C7"/>
<path d="M89.1313 63.6232C86.9782 69.8825 79.9888 70.8018 79.9888 70.8018V78.6705C79.9888 78.6705 85.1369 77.5274 87.3379 74.4657C89.046 72.0915 89.2991 69.4508 89.1313 63.6232Z" fill="#C7C7C7"/>
<path d="M91.6386 82.4731C89.355 89.4571 79.9914 90.9147 79.9914 90.9147V97.5657C79.9914 97.5657 85.7284 96.308 88.1932 93.8592C89.9732 92.0872 92.1742 88.2501 91.6386 82.4731Z" fill="#C7C7C7"/>
<path d="M92.4434 91.0692C89.7575 98.8607 79.9888 100.451 79.9888 100.451V106.7C79.9888 106.7 85.8617 105.037 88.1906 102.591C89.7281 100.982 91.7719 98.1865 92.4434 91.0692Z" fill="#C7C7C7"/>
<path d="M26.3654 55.2883C28.2999 58.0996 28.9794 61.3025 29.0194 64.6919C29.086 70.3437 26.9783 76.8641 26.3494 82.6065C22.4723 76.118 25.2009 66.9436 26.3654 55.2883Z" fill="#C7C7C7"/>
<path d="M93.5012 55.2883C91.5667 58.0996 90.8872 61.3025 90.8472 64.6919C90.7806 70.3437 92.8883 76.8641 93.5172 82.6065C97.3943 76.118 94.6683 66.9436 93.5012 55.2883Z" fill="#C7C7C7"/>
<path d="M7.9789 93.2519C16.3966 100.926 4.81061 117.034 4.49085 147.275C4.08849 147.659 3.39035 147.528 2.99598 147.31C2.2552 128.002 3.02795 111.076 7.9789 93.2519Z" fill="#C7C7C7"/>
<path d="M22.3791 91.1785C22.2219 96.6917 21.8222 100.22 20.9615 105.2C18.8298 117.511 13.3032 134.783 11.1156 147.696C10.6785 147.914 9.7619 147.739 9.49544 147.363C13.1647 128.566 14.5157 112.421 17.9691 101.262C19.4027 96.6197 21.2759 94.6425 22.3791 91.1785Z" fill="#C7C7C7"/>
<path d="M19.8633 93.6193C19.0932 95.0902 17.6277 97.8322 16.6044 101.557C13.8518 111.574 10.6249 130.109 7.78439 147.235C7.34738 147.584 6.64924 147.454 6.28951 147.166C9.07675 126.264 10.2972 108.899 12.7993 100.638C13.8998 97.0061 17.8968 95.5859 19.8633 93.6193Z" fill="#C7C7C7"/>
<path d="M111.888 93.2519C103.47 100.926 115.056 117.034 115.373 147.275C115.776 147.659 116.474 147.528 116.868 147.31C117.612 128.002 116.839 111.076 111.888 93.2519Z" fill="#C7C7C7"/>
<path d="M97.4876 91.1785C97.6448 96.6917 98.0445 100.22 98.9052 105.2C101.037 117.511 106.563 134.783 108.751 147.696C109.188 147.914 110.105 147.739 110.371 147.363C106.702 128.566 105.351 112.421 101.898 101.262C100.464 96.6197 98.5908 94.6425 97.4876 91.1785Z" fill="#C7C7C7"/>
<path d="M100.003 93.6193C100.774 95.0902 102.239 97.8322 103.262 101.557C106.015 111.574 109.242 130.109 112.082 147.235C112.519 147.584 113.218 147.454 113.577 147.166C110.79 126.264 109.57 108.899 107.067 100.638C105.967 97.0061 101.97 95.5859 100.003 93.6193Z" fill="#C7C7C7"/>
<path d="M24.4468 42.4099C25.097 56.0796 21.2332 82.0308 16.0132 92.471C14.5289 93.4622 10.8783 93.3849 9.88709 92.3937C7.90724 84.4716 6.84937 64.4147 8.71464 56.9537C14.3557 56.3035 18.6911 51.2433 24.4468 42.4099Z" fill="#C7C7C7"/>
<path d="M95.4227 42.4099C94.7725 56.0796 98.6363 82.0308 103.856 92.471C105.341 93.4622 108.991 93.3849 109.982 92.3937C111.962 84.4716 113.02 64.4147 111.155 56.9537C105.511 56.3035 101.178 51.2433 95.4227 42.4099Z" fill="#C7C7C7"/>
<path d="M42.6488 31.434C36.7013 29.7766 30.6125 25.4491 27.0019 24.6977C22.7064 23.8024 15.256 27.2585 11.8133 32.9981C9.40444 37.0138 6.77176 45.3462 8.50645 54.4593C18.9226 51.856 18.9573 43.4596 25.0327 38.4687C29.0084 35.2045 38.3987 32.0788 42.6488 31.434Z" fill="#C7C7C7"/>
<path d="M77.2174 31.434C83.1649 29.7766 89.2537 25.4491 92.8643 24.6977C97.1597 23.8024 104.61 27.2585 108.053 32.9981C110.462 37.0138 113.094 45.3462 111.36 54.4593C100.944 51.856 100.909 43.4596 94.8335 38.4687C90.8578 35.2045 81.4702 32.0788 77.2174 31.434Z" fill="#C7C7C7"/>
<path d="M32.8112 21.8841C35.7157 21.1087 44.4344 18.5906 47.3389 16.8479C49.0816 21.1087 51.2133 25.7852 53.3451 29.6596C48.4794 29.2359 38.2338 26.1449 32.8112 21.8841Z" fill="#C7C7C7"/>
<path d="M87.0583 21.8841C84.1538 21.1087 75.435 18.5906 72.5305 16.8479C70.7878 21.1087 68.6561 25.7852 66.5244 29.6596C71.39 29.2359 81.633 26.1449 87.0583 21.8841Z" fill="#C7C7C7"/>
<path d="M27.6973 39.8578C35.1903 35.3625 48.2205 33.8623 55.0474 36.3618C60.0436 42.8556 58.7699 68.4337 58.7699 68.4337C58.7699 68.4337 41.7294 71.4661 35.8565 67.3332C30.4312 63.5147 27.6973 51.18 27.6973 39.8578Z" fill="#3179FF"/>
<path d="M92.1688 39.8578C84.6758 35.3625 71.6456 33.8623 64.8187 36.3618C59.8225 42.8556 61.0962 68.4337 61.0962 68.4337C61.0962 68.4337 78.1367 71.4661 84.0096 67.3332C89.4349 63.5147 92.1688 51.18 92.1688 39.8578Z" fill="#3179FF"/>
</g>
<defs>
<clipPath id="clip0_25_19794">
<rect width="120" height="120" fill="white"/>
</clipPath>
</defs>
</svg>
