<svg width="120" height="120" viewBox="0 0 120 120" fill="none" xmlns="http://www.w3.org/2000/svg">
<g clip-path="url(#clip0_25_19795)">
<rect width="120" height="398.48" transform="translate(0 -102.48)" fill="#EAEAEA"/>
<mask id="path-1-outside-1_25_19795" maskUnits="userSpaceOnUse" x="-2" y="-104.48" width="124" height="402" fill="black">
<rect fill="white" x="-2" y="-104.48" width="124" height="402"/>
<path d="M118.699 84.5234C118.765 86.0263 119.253 87.6358 119.144 89.1466C119.021 90.86 118.717 92.7226 118.717 94.4306C118.688 99.339 120.542 105.111 119.842 109.859C119.322 113.4 116.751 119.617 114.222 121.767C111.989 123.667 107.363 126.676 105.042 126.809C104.869 126.817 104.304 125.096 104.856 123.944C105.727 122.13 108.671 120.771 109.476 119.391C110.499 117.637 110.457 113.893 110.787 111.207C110.854 110.672 108.975 107.978 108.789 107.978C108.599 107.978 107.518 109.001 107.414 109.792C107.235 111.165 107.336 112.684 107.227 114.04C107.086 115.812 106.001 118.719 104.355 119.388C103.739 119.636 102.98 119.183 102.668 118.573C102.356 117.962 103.044 115.391 102.793 114.512C102.543 113.632 102.814 111.961 102.98 111.205C103.419 109.18 102.828 106.59 103.105 104.42C103.395 102.164 104.333 99.283 105.666 97.4151C106.779 95.8509 107.185 94.2015 107.707 92.3762C108.32 90.2312 108.133 88.0834 107.52 85.8771C105.133 77.2809 103.307 72.8416 101.455 65.17C99.3025 56.254 98.6176 50.9353 97.5624 41.8702C97.1174 38.057 94.4954 22.5407 94.085 20.7181C94.6446 25.0242 93.3496 35.03 92.1372 42.4218C91.3884 46.989 91.9213 58.4017 93.5281 68.229C95.1429 78.1123 100.275 83.367 100.667 101.612C100.941 114.501 100.251 127.792 99.0893 140.724C98.2179 150.437 96.3873 160.176 94.3622 169.614C93.5974 173.179 93.9438 177.15 94.085 180.798C94.2156 184.158 93.7413 187.603 93.9465 190.905C94.3515 197.383 96.7151 203.895 96.6271 210.482C96.4326 224.909 93.5148 240.052 91.4444 254.502C90.8741 258.473 88.8996 263.85 89.8855 267.181C90.7649 270.157 94.117 273.448 95.8277 276.552C96.9869 278.66 99.966 280.123 101.964 281.474C103.196 282.305 104.291 283.425 105.442 284.339C105.94 284.736 107.656 285.751 108.173 286.521C108.89 287.589 108.384 288.08 108.242 288.096C108.959 288.749 108.941 289.913 108.322 289.988C108.709 291.035 108.12 291.648 107.48 291.528C107.909 292.391 106.993 293.3 106.135 293.028C105.647 294.811 103.166 294.44 101.922 293.801C101.722 295.839 99.0067 296.151 97.5091 295.927C95.7505 295.663 94.0078 295.061 92.5129 293.905C91.876 293.409 91.042 291.96 90.6716 291.648C89.5018 290.662 87.7831 290.177 86.6107 289.122C85.5448 288.162 85.201 286.534 84.4896 285.476C83.7781 284.413 82.2193 283.203 80.8656 282.988C78.8831 282.673 76.5782 281.964 75.6456 280.067C74.7343 278.218 75.0913 275.545 75.555 273.512C75.8881 272.057 76.5436 270.474 76.5196 269.014C76.5116 268.518 76.1225 267.223 76.3277 265.824C76.5569 264.276 77.327 263.107 77.5481 261.934C77.8913 260.115 77.9147 258.214 77.9376 256.354L77.9398 256.17C78.0038 250.825 76.4023 245.251 75.4244 240.012C74.1454 233.177 72.6931 226.225 72.3867 219.31C72.1948 214.972 72.3334 210.618 72.821 206.275C73.0848 203.927 73.6364 201.449 73.3593 199.136C72.5812 192.629 68.8613 186.3 67.9554 179.703C67.076 173.313 68.2351 166.755 67.6569 160.306C66.9961 152.915 65.8529 145.496 64.7018 138.147C64.0303 133.865 63.3348 129.575 62.3755 125.346C62.0451 123.889 61.5948 117.946 60.5716 117.102C60.5236 117.062 60.2118 117.198 59.9081 117.203C59.6229 117.211 59.3458 117.086 59.2979 117.128C58.3066 118.013 57.843 123.912 57.5179 125.346C56.5559 129.575 55.8631 133.865 55.1916 138.147L55.1677 138.3C54.0243 145.602 52.8663 152.998 52.2365 160.306C51.6823 166.728 52.8147 173.315 51.9381 179.703C51.0321 186.3 47.3122 192.629 46.5341 199.136C46.257 201.449 46.8086 203.93 47.0724 206.275C47.5574 210.618 47.6986 214.972 47.5067 219.31C47.2003 226.225 45.7454 233.18 44.469 240.012C43.4911 245.251 41.8896 250.825 41.9536 256.17L41.9546 256.268C41.9755 258.156 41.9969 260.087 42.3453 261.934C42.5664 263.107 43.3365 264.279 43.5657 265.824C43.7709 267.223 43.3818 268.516 43.3738 269.014C43.3499 270.474 43.9867 272.046 44.3384 273.512C44.8154 275.513 45.1059 278.154 44.2478 280.067C43.3632 282.036 40.8904 282.697 39.0278 282.988C37.6768 283.201 36.118 284.416 35.4038 285.476C34.6924 286.534 34.3486 288.162 33.2827 289.122C32.1103 290.177 30.3916 290.662 29.2218 291.648C28.8514 291.962 28.0174 293.412 27.3805 293.905C25.8856 295.064 24.1856 295.605 22.3843 295.927C20.8734 296.196 18.1581 295.77 17.9716 293.801C16.7379 294.43 14.2357 294.819 13.7588 293.028C12.9007 293.3 11.9841 292.391 12.4131 291.528C11.7736 291.648 11.1847 291.035 11.5711 289.988C10.9529 289.913 10.9342 288.749 11.651 288.096C11.5098 288.08 11.0035 287.589 11.7203 286.521C12.2372 285.751 13.9533 284.736 14.4516 284.339C15.6 283.425 16.6952 282.308 17.929 281.474C19.8662 280.163 22.9412 278.724 24.0657 276.552C25.7418 273.318 29.1152 270.165 30.0079 267.181C31.0098 263.829 29.022 258.497 28.4491 254.502C26.3786 240.044 23.4795 224.895 23.2663 210.482C23.1704 203.908 25.5446 197.377 25.9469 190.905C26.1521 187.603 25.6645 184.166 25.8084 180.798C25.9656 177.134 26.296 173.177 25.5312 169.614C23.5061 160.179 21.6781 150.434 20.8041 140.724C19.6423 127.798 18.5179 114.493 19.2267 101.612C20.1166 85.4401 24.8118 78.1549 26.3653 68.229C27.9135 58.3511 28.8994 46.7971 27.7562 42.4218C26.0375 35.8454 24.3508 25.5065 24.3961 22.0744C23.7246 26.8335 22.8533 38.4621 22.4376 41.8702C21.3397 50.8581 20.3325 57.12 18.5445 64.3653C16.3435 73.2812 15.3496 77.2329 12.8821 85.8771C12.2479 88.0994 12.1067 92.2563 12.6956 94.388C13.1965 96.2027 16.6046 101.761 16.8951 104.018C17.1749 106.184 16.5806 108.777 17.0203 110.802C17.1829 111.559 17.4573 113.23 17.2068 114.109C16.9564 114.986 17.6438 117.56 17.3321 118.17C17.0203 118.78 16.9564 119.183 15.6453 118.983C13.9746 118.73 12.9141 115.314 12.7728 113.635C12.6609 112.284 12.7648 110.76 12.5863 109.387C12.4824 108.596 11.3979 107.573 11.2113 107.573C11.0248 107.573 9.14623 110.267 9.21284 110.802C9.54326 113.504 9.52194 117.232 10.5239 118.986C11.3046 120.353 14.273 121.722 15.1444 123.539C15.6986 124.693 15.1337 126.415 14.9579 126.404C12.6503 126.271 8.01375 123.265 5.77809 121.362C3.25199 119.212 0.680593 112.995 0.158319 109.454C-0.542487 104.703 1.31212 101.348 1.28281 96.4371C1.27215 94.7291 0.968377 92.8665 0.845803 91.1531C0.739216 89.6423 1.22418 88.0328 1.2908 86.5299C1.5999 79.6178 1.53329 76.2363 1.69849 69.0817C1.87436 61.4768 1.38406 58.1752 2.59648 50.7968C3.16672 47.3247 4.54435 43.8047 5.20519 40.3566C7.18237 30.0364 6.17246 4.05327 6.18312 -6.64802C6.19112 -13.72 7.47282 -21.8846 11.4032 -27.8694C14.1558 -32.0609 19.3279 -34.5364 24.1243 -35.6023C27.9508 -36.7028 31.7559 -37.8805 35.5291 -39.1516C38.7666 -40.2414 46.257 -41.7736 47.5467 -44.6461C48.7678 -47.3703 48.5512 -50.5828 48.4539 -53.9733C48.4345 -53.9934 48.4155 -54.0136 48.3967 -54.0337C45.8733 -56.741 44.0054 -60.3383 43.2433 -63.019C41.0822 -63.1789 41.5166 -66.96 41.2075 -67.9193C40.8984 -68.8812 38.4922 -73.9841 39.7179 -75.2418C40.3121 -75.852 40.933 -75.3457 40.933 -75.3457C40.933 -75.3457 39.7312 -85.4874 42.0255 -91.4403C43.8188 -96.0928 49.3613 -102.48 59.3405 -102.48H59.3512H59.3618C69.3383 -102.48 74.8835 -96.0928 76.6768 -91.4403C78.9711 -85.4874 77.7773 -75.2658 77.7773 -75.2658C77.7773 -75.2658 78.4968 -76.0012 79.1469 -75.2977C80.1062 -74.2639 77.8013 -68.8786 77.4922 -67.9193C77.1831 -66.9573 77.6174 -63.1762 75.4564 -63.019C74.7929 -60.6794 73.4259 -56.8876 71.1236 -54.5427C70.9833 -54.3997 70.8391 -54.2593 70.6908 -54.1215L70.6868 -53.9704C70.5888 -50.3402 70.516 -47.644 71.8484 -44.6461C73.1434 -41.7257 80.8896 -40.2281 84.1618 -39.1516C88.0336 -37.8779 91.94 -36.7001 95.865 -35.5996C100.661 -34.5311 105.834 -32.0556 108.586 -27.8667C112.519 -21.8819 113.798 -13.7147 113.806 -6.64536C113.817 4.05594 112.807 30.0364 114.784 40.3593C115.442 43.81 116.823 47.3301 117.393 50.7995C118.608 58.1779 118.115 62.2841 118.291 69.8891C118.456 77.0464 118.389 77.6113 118.699 84.5234Z"/>
</mask>
<path d="M118.699 84.5234C118.765 86.0263 119.253 87.6358 119.144 89.1466C119.021 90.86 118.717 92.7226 118.717 94.4306C118.688 99.339 120.542 105.111 119.842 109.859C119.322 113.4 116.751 119.617 114.222 121.767C111.989 123.667 107.363 126.676 105.042 126.809C104.869 126.817 104.304 125.096 104.856 123.944C105.727 122.13 108.671 120.771 109.476 119.391C110.499 117.637 110.457 113.893 110.787 111.207C110.854 110.672 108.975 107.978 108.789 107.978C108.599 107.978 107.518 109.001 107.414 109.792C107.235 111.165 107.336 112.684 107.227 114.04C107.086 115.812 106.001 118.719 104.355 119.388C103.739 119.636 102.98 119.183 102.668 118.573C102.356 117.962 103.044 115.391 102.793 114.512C102.543 113.632 102.814 111.961 102.98 111.205C103.419 109.18 102.828 106.59 103.105 104.42C103.395 102.164 104.333 99.283 105.666 97.4151C106.779 95.8509 107.185 94.2015 107.707 92.3762C108.32 90.2312 108.133 88.0834 107.52 85.8771C105.133 77.2809 103.307 72.8416 101.455 65.17C99.3025 56.254 98.6176 50.9353 97.5624 41.8702C97.1174 38.057 94.4954 22.5407 94.085 20.7181C94.6446 25.0242 93.3496 35.03 92.1372 42.4218C91.3884 46.989 91.9213 58.4017 93.5281 68.229C95.1429 78.1123 100.275 83.367 100.667 101.612C100.941 114.501 100.251 127.792 99.0893 140.724C98.2179 150.437 96.3873 160.176 94.3622 169.614C93.5974 173.179 93.9438 177.15 94.085 180.798C94.2156 184.158 93.7413 187.603 93.9465 190.905C94.3515 197.383 96.7151 203.895 96.6271 210.482C96.4326 224.909 93.5148 240.052 91.4444 254.502C90.8741 258.473 88.8996 263.85 89.8855 267.181C90.7649 270.157 94.117 273.448 95.8277 276.552C96.9869 278.66 99.966 280.123 101.964 281.474C103.196 282.305 104.291 283.425 105.442 284.339C105.94 284.736 107.656 285.751 108.173 286.521C108.89 287.589 108.384 288.08 108.242 288.096C108.959 288.749 108.941 289.913 108.322 289.988C108.709 291.035 108.12 291.648 107.48 291.528C107.909 292.391 106.993 293.3 106.135 293.028C105.647 294.811 103.166 294.44 101.922 293.801C101.722 295.839 99.0067 296.151 97.5091 295.927C95.7505 295.663 94.0078 295.061 92.5129 293.905C91.876 293.409 91.042 291.96 90.6716 291.648C89.5018 290.662 87.7831 290.177 86.6107 289.122C85.5448 288.162 85.201 286.534 84.4896 285.476C83.7781 284.413 82.2193 283.203 80.8656 282.988C78.8831 282.673 76.5782 281.964 75.6456 280.067C74.7343 278.218 75.0913 275.545 75.555 273.512C75.8881 272.057 76.5436 270.474 76.5196 269.014C76.5116 268.518 76.1225 267.223 76.3277 265.824C76.5569 264.276 77.327 263.107 77.5481 261.934C77.8913 260.115 77.9147 258.214 77.9376 256.354L77.9398 256.17C78.0038 250.825 76.4023 245.251 75.4244 240.012C74.1454 233.177 72.6931 226.225 72.3867 219.31C72.1948 214.972 72.3334 210.618 72.821 206.275C73.0848 203.927 73.6364 201.449 73.3593 199.136C72.5812 192.629 68.8613 186.3 67.9554 179.703C67.076 173.313 68.2351 166.755 67.6569 160.306C66.9961 152.915 65.8529 145.496 64.7018 138.147C64.0303 133.865 63.3348 129.575 62.3755 125.346C62.0451 123.889 61.5948 117.946 60.5716 117.102C60.5236 117.062 60.2118 117.198 59.9081 117.203C59.6229 117.211 59.3458 117.086 59.2979 117.128C58.3066 118.013 57.843 123.912 57.5179 125.346C56.5559 129.575 55.8631 133.865 55.1916 138.147L55.1677 138.3C54.0243 145.602 52.8663 152.998 52.2365 160.306C51.6823 166.728 52.8147 173.315 51.9381 179.703C51.0321 186.3 47.3122 192.629 46.5341 199.136C46.257 201.449 46.8086 203.93 47.0724 206.275C47.5574 210.618 47.6986 214.972 47.5067 219.31C47.2003 226.225 45.7454 233.18 44.469 240.012C43.4911 245.251 41.8896 250.825 41.9536 256.17L41.9546 256.268C41.9755 258.156 41.9969 260.087 42.3453 261.934C42.5664 263.107 43.3365 264.279 43.5657 265.824C43.7709 267.223 43.3818 268.516 43.3738 269.014C43.3499 270.474 43.9867 272.046 44.3384 273.512C44.8154 275.513 45.1059 278.154 44.2478 280.067C43.3632 282.036 40.8904 282.697 39.0278 282.988C37.6768 283.201 36.118 284.416 35.4038 285.476C34.6924 286.534 34.3486 288.162 33.2827 289.122C32.1103 290.177 30.3916 290.662 29.2218 291.648C28.8514 291.962 28.0174 293.412 27.3805 293.905C25.8856 295.064 24.1856 295.605 22.3843 295.927C20.8734 296.196 18.1581 295.77 17.9716 293.801C16.7379 294.43 14.2357 294.819 13.7588 293.028C12.9007 293.3 11.9841 292.391 12.4131 291.528C11.7736 291.648 11.1847 291.035 11.5711 289.988C10.9529 289.913 10.9342 288.749 11.651 288.096C11.5098 288.08 11.0035 287.589 11.7203 286.521C12.2372 285.751 13.9533 284.736 14.4516 284.339C15.6 283.425 16.6952 282.308 17.929 281.474C19.8662 280.163 22.9412 278.724 24.0657 276.552C25.7418 273.318 29.1152 270.165 30.0079 267.181C31.0098 263.829 29.022 258.497 28.4491 254.502C26.3786 240.044 23.4795 224.895 23.2663 210.482C23.1704 203.908 25.5446 197.377 25.9469 190.905C26.1521 187.603 25.6645 184.166 25.8084 180.798C25.9656 177.134 26.296 173.177 25.5312 169.614C23.5061 160.179 21.6781 150.434 20.8041 140.724C19.6423 127.798 18.5179 114.493 19.2267 101.612C20.1166 85.4401 24.8118 78.1549 26.3653 68.229C27.9135 58.3511 28.8994 46.7971 27.7562 42.4218C26.0375 35.8454 24.3508 25.5065 24.3961 22.0744C23.7246 26.8335 22.8533 38.4621 22.4376 41.8702C21.3397 50.8581 20.3325 57.12 18.5445 64.3653C16.3435 73.2812 15.3496 77.2329 12.8821 85.8771C12.2479 88.0994 12.1067 92.2563 12.6956 94.388C13.1965 96.2027 16.6046 101.761 16.8951 104.018C17.1749 106.184 16.5806 108.777 17.0203 110.802C17.1829 111.559 17.4573 113.23 17.2068 114.109C16.9564 114.986 17.6438 117.56 17.3321 118.17C17.0203 118.78 16.9564 119.183 15.6453 118.983C13.9746 118.73 12.9141 115.314 12.7728 113.635C12.6609 112.284 12.7648 110.76 12.5863 109.387C12.4824 108.596 11.3979 107.573 11.2113 107.573C11.0248 107.573 9.14623 110.267 9.21284 110.802C9.54326 113.504 9.52194 117.232 10.5239 118.986C11.3046 120.353 14.273 121.722 15.1444 123.539C15.6986 124.693 15.1337 126.415 14.9579 126.404C12.6503 126.271 8.01375 123.265 5.77809 121.362C3.25199 119.212 0.680593 112.995 0.158319 109.454C-0.542487 104.703 1.31212 101.348 1.28281 96.4371C1.27215 94.7291 0.968377 92.8665 0.845803 91.1531C0.739216 89.6423 1.22418 88.0328 1.2908 86.5299C1.5999 79.6178 1.53329 76.2363 1.69849 69.0817C1.87436 61.4768 1.38406 58.1752 2.59648 50.7968C3.16672 47.3247 4.54435 43.8047 5.20519 40.3566C7.18237 30.0364 6.17246 4.05327 6.18312 -6.64802C6.19112 -13.72 7.47282 -21.8846 11.4032 -27.8694C14.1558 -32.0609 19.3279 -34.5364 24.1243 -35.6023C27.9508 -36.7028 31.7559 -37.8805 35.5291 -39.1516C38.7666 -40.2414 46.257 -41.7736 47.5467 -44.6461C48.7678 -47.3703 48.5512 -50.5828 48.4539 -53.9733C48.4345 -53.9934 48.4155 -54.0136 48.3967 -54.0337C45.8733 -56.741 44.0054 -60.3383 43.2433 -63.019C41.0822 -63.1789 41.5166 -66.96 41.2075 -67.9193C40.8984 -68.8812 38.4922 -73.9841 39.7179 -75.2418C40.3121 -75.852 40.933 -75.3457 40.933 -75.3457C40.933 -75.3457 39.7312 -85.4874 42.0255 -91.4403C43.8188 -96.0928 49.3613 -102.48 59.3405 -102.48H59.3512H59.3618C69.3383 -102.48 74.8835 -96.0928 76.6768 -91.4403C78.9711 -85.4874 77.7773 -75.2658 77.7773 -75.2658C77.7773 -75.2658 78.4968 -76.0012 79.1469 -75.2977C80.1062 -74.2639 77.8013 -68.8786 77.4922 -67.9193C77.1831 -66.9573 77.6174 -63.1762 75.4564 -63.019C74.7929 -60.6794 73.4259 -56.8876 71.1236 -54.5427C70.9833 -54.3997 70.8391 -54.2593 70.6908 -54.1215L70.6868 -53.9704C70.5888 -50.3402 70.516 -47.644 71.8484 -44.6461C73.1434 -41.7257 80.8896 -40.2281 84.1618 -39.1516C88.0336 -37.8779 91.94 -36.7001 95.865 -35.5996C100.661 -34.5311 105.834 -32.0556 108.586 -27.8667C112.519 -21.8819 113.798 -13.7147 113.806 -6.64536C113.817 4.05594 112.807 30.0364 114.784 40.3593C115.442 43.81 116.823 47.3301 117.393 50.7995C118.608 58.1779 118.115 62.2841 118.291 69.8891C118.456 77.0464 118.389 77.6113 118.699 84.5234Z" fill="white"/>
<path d="M24.3961 22.0744L23.7962 22.066L24.9904 22.1571L24.3961 22.0744ZM24.5693 20.9765L25.1594 21.0852L25.5792 18.8064L24.1061 20.5951L24.5693 20.9765ZM24.3961 22.0744L24.996 22.0828C24.9999 21.8088 25.0145 21.5991 25.0369 21.4519C25.0481 21.3785 25.0594 21.3331 25.0671 21.3094C25.0769 21.2791 25.0724 21.3094 25.0325 21.358L24.5693 20.9765L24.1061 20.5951C24.0102 20.7116 23.9572 20.8415 23.9252 20.9403C23.8912 21.0456 23.8677 21.1588 23.8506 21.2712C23.8164 21.4958 23.8003 21.767 23.7962 22.066L24.3961 22.0744ZM24.5693 20.9765L23.9792 20.8678C23.9212 21.1831 23.8612 21.5653 23.8018 21.9916L24.3961 22.0744L24.9904 22.1571C25.0483 21.7414 25.1055 21.3776 25.1594 21.0852L24.5693 20.9765ZM119.144 89.1466L117.947 89.0601L117.947 89.061L119.144 89.1466ZM118.699 84.5234L119.897 84.4703L119.897 84.4698L118.699 84.5234ZM118.291 69.8891L119.491 69.8614L119.491 69.8614L118.291 69.8891ZM117.393 50.7995L116.209 50.9941L116.209 50.9944L117.393 50.7995ZM114.784 40.3593L115.963 40.1345L115.963 40.1336L114.784 40.3593ZM113.806 -6.64536L115.006 -6.64655V-6.64671L113.806 -6.64536ZM108.586 -27.8667L107.583 -27.2077L107.583 -27.2077L108.586 -27.8667ZM95.865 -35.5996L95.5411 -34.4441L95.5724 -34.4354L95.6041 -34.4283L95.865 -35.5996ZM84.1618 -39.1516L83.7868 -38.0117L83.7868 -38.0117L84.1618 -39.1516ZM71.8484 -44.6461L72.9454 -45.1326L72.945 -45.1335L71.8484 -44.6461ZM47.5467 -44.6461L48.6414 -44.1546L48.6417 -44.1553L47.5467 -44.6461ZM35.5291 -39.1516L35.1462 -40.2889L35.146 -40.2888L35.5291 -39.1516ZM24.1243 -35.6023L24.3846 -34.4308L24.4206 -34.4388L24.456 -34.449L24.1243 -35.6023ZM11.4032 -27.8694L12.4062 -27.2107L12.4062 -27.2107L11.4032 -27.8694ZM6.18312 -6.64802L4.98312 -6.64938V-6.64922L6.18312 -6.64802ZM5.20519 40.3566L6.38374 40.5825L6.38375 40.5824L5.20519 40.3566ZM2.59648 50.7968L3.78061 50.9914L3.78062 50.9913L2.59648 50.7968ZM1.69849 69.0817L0.498815 69.054L0.498814 69.054L1.69849 69.0817ZM1.2908 86.5299L0.0919993 86.4763L0.0919785 86.4768L1.2908 86.5299ZM0.845803 91.1531L-0.351223 91.2376L-0.351138 91.2388L0.845803 91.1531ZM1.28281 96.4371L2.48279 96.43L2.48278 96.4297L1.28281 96.4371ZM0.158319 109.454L1.34548 109.279L1.34547 109.279L0.158319 109.454ZM5.77809 121.362L5.00024 122.276L5.00038 122.276L5.77809 121.362ZM14.9579 126.404L15.0305 125.206L15.027 125.206L14.9579 126.404ZM15.1444 123.539L14.0623 124.058L14.0627 124.059L15.1444 123.539ZM10.5239 118.986L11.5659 118.39L11.5658 118.39L10.5239 118.986ZM9.21284 110.802L10.404 110.657L10.4037 110.654L9.21284 110.802ZM12.5863 109.387L13.7763 109.233L13.7761 109.231L12.5863 109.387ZM12.7728 113.635L11.5769 113.734L11.5771 113.735L12.7728 113.635ZM15.6453 118.983L15.8262 117.797L15.8251 117.796L15.6453 118.983ZM17.3321 118.17L18.4007 118.716L18.4007 118.716L17.3321 118.17ZM17.2068 114.109L18.3607 114.439L18.3609 114.438L17.2068 114.109ZM17.0203 110.802L18.1936 110.55L18.193 110.548L17.0203 110.802ZM16.8951 104.018L15.7049 104.171L15.705 104.172L16.8951 104.018ZM12.6956 94.388L13.8523 94.0687L13.8522 94.0685L12.6956 94.388ZM12.8821 85.8771L11.7282 85.5477L11.7282 85.5478L12.8821 85.8771ZM18.5445 64.3653L19.7095 64.6529L19.7095 64.6528L18.5445 64.3653ZM22.4376 41.8702L23.6287 42.0157L23.6287 42.0155L22.4376 41.8702ZM24.3961 22.0744L25.596 22.0902L23.2079 21.9067L24.3961 22.0744ZM27.7562 42.4218L28.9173 42.1184L28.9172 42.1183L27.7562 42.4218ZM26.3653 68.229L25.1798 68.0432L25.1797 68.0435L26.3653 68.229ZM19.2267 101.612L18.0285 101.546L19.2267 101.612ZM20.8041 140.724L19.6089 140.831L19.609 140.831L20.8041 140.724ZM25.5312 169.614L24.358 169.866L24.358 169.866L25.5312 169.614ZM25.8084 180.798L24.6095 180.746L24.6095 180.747L25.8084 180.798ZM25.9469 190.905L27.1446 190.979L27.1446 190.979L25.9469 190.905ZM23.2663 210.482L22.0664 210.5L22.0664 210.5L23.2663 210.482ZM28.4491 254.502L27.2612 254.672L27.2612 254.673L28.4491 254.502ZM30.0079 267.181L31.1576 267.525L31.1576 267.524L30.0079 267.181ZM24.0657 276.552L23.0002 276L23.0001 276.001L24.0657 276.552ZM17.929 281.474L18.601 282.468L18.6015 282.468L17.929 281.474ZM14.4516 284.339L13.7043 283.4L13.7038 283.4L14.4516 284.339ZM11.7203 286.521L10.724 285.852L10.7237 285.852L11.7203 286.521ZM11.651 288.096L12.4591 288.983L14.4154 287.201L11.786 286.903L11.651 288.096ZM11.5711 289.988L12.6969 290.403L13.2226 288.978L11.7149 288.796L11.5711 289.988ZM12.4131 291.528L13.4877 292.062L14.5598 289.904L12.192 290.348L12.4131 291.528ZM13.7588 293.028L14.9183 292.719L14.5948 291.504L13.3964 291.884L13.7588 293.028ZM17.9716 293.801L19.1662 293.688L18.9997 291.93L17.4266 292.732L17.9716 293.801ZM22.3843 295.927L22.5947 297.109L22.5957 297.108L22.3843 295.927ZM27.3805 293.905L26.646 292.956L26.6452 292.956L27.3805 293.905ZM29.2218 291.648L28.4484 290.73L28.4452 290.733L29.2218 291.648ZM33.2827 289.122L34.0855 290.014L34.0855 290.014L33.2827 289.122ZM35.4038 285.476L34.4085 284.806L34.4081 284.807L35.4038 285.476ZM39.0278 282.988L38.8429 281.802L38.8407 281.802L39.0278 282.988ZM44.2478 280.067L45.3425 280.559L45.3428 280.558L44.2478 280.067ZM44.3384 273.512L45.5057 273.234L45.5053 273.232L44.3384 273.512ZM43.3738 269.014L44.5737 269.034L44.5737 269.033L43.3738 269.014ZM43.5657 265.824L44.753 265.65L44.7527 265.648L43.5657 265.824ZM42.3453 261.934L43.5245 261.712L43.5245 261.712L42.3453 261.934ZM41.9546 256.268L40.7547 256.281L41.9546 256.268ZM41.9536 256.17L43.1535 256.157L43.1535 256.156L41.9536 256.17ZM44.469 240.012L43.2894 239.792L43.2894 239.792L44.469 240.012ZM47.5067 219.31L48.7055 219.363L48.7056 219.363L47.5067 219.31ZM47.0724 206.275L48.265 206.141L48.2649 206.14L47.0724 206.275ZM46.5341 199.136L47.7256 199.279L47.7256 199.278L46.5341 199.136ZM51.9381 179.703L53.1269 179.866L53.1269 179.866L51.9381 179.703ZM52.2365 160.306L53.4321 160.41L53.4321 160.409L52.2365 160.306ZM55.1677 138.3L53.9822 138.114L55.1677 138.3ZM55.1916 138.147L54.0061 137.961L54.0061 137.961L55.1916 138.147ZM57.5179 125.346L58.688 125.612L58.6882 125.611L57.5179 125.346ZM59.2979 117.128L58.5006 116.231L58.4988 116.233L59.2979 117.128ZM59.9081 117.203L59.887 116.003L59.8744 116.003L59.9081 117.203ZM60.5716 117.102L59.8034 118.024L59.8076 118.027L60.5716 117.102ZM62.3755 125.346L61.2052 125.611L61.2053 125.612L62.3755 125.346ZM64.7018 138.147L65.8873 137.961L65.8873 137.961L64.7018 138.147ZM67.6569 160.306L66.4617 160.413L66.4617 160.414L67.6569 160.306ZM67.9554 179.703L69.1442 179.539L69.1441 179.539L67.9554 179.703ZM73.3593 199.136L72.1678 199.278L72.1678 199.279L73.3593 199.136ZM72.821 206.275L71.6285 206.141L71.6285 206.141L72.821 206.275ZM72.3867 219.31L71.1879 219.363L71.1879 219.363L72.3867 219.31ZM75.4244 240.012L76.604 239.792L76.6039 239.791L75.4244 240.012ZM77.9398 256.17L79.1397 256.185L79.1398 256.185L77.9398 256.17ZM77.9376 256.354L76.7377 256.339V256.339L77.9376 256.354ZM77.5481 261.934L76.3689 261.712V261.712L77.5481 261.934ZM76.3277 265.824L75.1407 265.649L75.1404 265.65L76.3277 265.824ZM76.5196 269.014L75.3197 269.033L75.3197 269.034L76.5196 269.014ZM75.555 273.512L74.3852 273.244L74.385 273.245L75.555 273.512ZM75.6456 280.067L76.7225 279.538L76.722 279.537L75.6456 280.067ZM80.8656 282.988L81.0546 281.803L81.0536 281.802L80.8656 282.988ZM84.4896 285.476L83.4923 286.144L83.4938 286.146L84.4896 285.476ZM86.6107 289.122L85.8079 290.014H85.8079L86.6107 289.122ZM90.6716 291.648L89.8982 292.565L89.8988 292.566L90.6716 291.648ZM92.5129 293.905L91.7759 294.852L91.7786 294.854L92.5129 293.905ZM97.5091 295.927L97.3311 297.114L97.3317 297.114L97.5091 295.927ZM101.922 293.801L102.47 292.733L100.9 291.926L100.728 293.684L101.922 293.801ZM106.135 293.028L106.497 291.884L105.307 291.507L104.977 292.711L106.135 293.028ZM107.48 291.528L107.701 290.348L105.334 289.904L106.406 292.062L107.48 291.528ZM108.322 289.988L108.179 288.796L106.671 288.978L107.197 290.403L108.322 289.988ZM108.242 288.096L108.107 286.903L105.478 287.201L107.434 288.983L108.242 288.096ZM108.173 286.521L109.17 285.852L109.169 285.852L108.173 286.521ZM105.442 284.339L106.19 283.4L106.188 283.399L105.442 284.339ZM101.964 281.474L101.292 282.468L101.293 282.469L101.964 281.474ZM95.8277 276.552L96.8792 275.974L96.8787 275.973L95.8277 276.552ZM89.8855 267.181L91.0363 266.841L91.0362 266.84L89.8855 267.181ZM91.4444 254.502L92.6322 254.673L92.6322 254.673L91.4444 254.502ZM96.6271 210.482L97.827 210.498V210.498L96.6271 210.482ZM93.9465 190.905L92.7488 190.979L92.7488 190.98L93.9465 190.905ZM94.085 180.798L92.8859 180.844L92.8859 180.844L94.085 180.798ZM94.3622 169.614L93.1889 169.362L93.1889 169.362L94.3622 169.614ZM99.0893 140.724L97.8941 140.616L97.8941 140.617L99.0893 140.724ZM100.667 101.612L101.866 101.586L101.866 101.586L100.667 101.612ZM93.5281 68.229L94.7124 68.0355L94.7124 68.0354L93.5281 68.229ZM92.1372 42.4218L90.953 42.2275L90.953 42.2276L92.1372 42.4218ZM94.085 20.7181L95.2557 20.4545L92.895 20.8727L94.085 20.7181ZM97.5624 41.8702L98.7544 41.7314L98.7543 41.7311L97.5624 41.8702ZM101.455 65.17L102.622 64.8884L102.622 64.8883L101.455 65.17ZM107.52 85.8771L106.364 86.1982L106.364 86.1983L107.52 85.8771ZM107.707 92.3762L108.86 92.7063L108.861 92.7059L107.707 92.3762ZM105.666 97.4151L106.643 98.1119L106.643 98.1111L105.666 97.4151ZM103.105 104.42L101.915 104.267L101.915 104.268L103.105 104.42ZM102.98 111.205L104.152 111.461L104.152 111.459L102.98 111.205ZM102.668 118.573L103.737 118.027H103.737L102.668 118.573ZM104.355 119.388L104.803 120.501L104.806 120.5L104.355 119.388ZM107.227 114.04L106.031 113.944L106.031 113.945L107.227 114.04ZM107.414 109.792L106.224 109.636L106.224 109.638L107.414 109.792ZM110.787 111.207L109.596 111.059L109.596 111.061L110.787 111.207ZM109.476 119.391L108.44 118.786L108.439 118.786L109.476 119.391ZM104.856 123.944L103.774 123.425L103.773 123.426L104.856 123.944ZM105.042 126.809L105.097 128.008L105.111 128.007L105.042 126.809ZM114.222 121.767L113.445 120.853L113.444 120.853L114.222 121.767ZM119.842 109.859L118.655 109.684L118.654 109.685L119.842 109.859ZM118.717 94.4306L119.917 94.4378V94.4306H118.717ZM77.7773 -75.2658L76.5854 -75.405L76.1778 -71.9147L78.6351 -74.4266L77.7773 -75.2658ZM76.6768 -91.4403L77.7965 -91.8718L77.7965 -91.8719L76.6768 -91.4403ZM42.0255 -91.4403L40.9058 -91.8719L40.9058 -91.8718L42.0255 -91.4403ZM40.933 -75.3457L40.1746 -74.4157L42.4738 -72.5409L42.1247 -75.4869L40.933 -75.3457ZM39.7179 -75.2418L40.5773 -74.4043L40.5776 -74.4046L39.7179 -75.2418ZM41.2075 -67.9193L40.065 -67.5522L40.0653 -67.5513L41.2075 -67.9193ZM43.2433 -63.019L44.3975 -63.3471L44.1682 -64.1538L43.3318 -64.2157L43.2433 -63.019ZM48.3967 -54.0337L49.275 -54.8514L49.2745 -54.8519L48.3967 -54.0337ZM71.1236 -54.5427L70.2674 -55.3834L70.2673 -55.3833L71.1236 -54.5427ZM75.4564 -63.019L75.3693 -64.2158L74.5312 -64.1548L74.3019 -63.3464L75.4564 -63.019ZM77.4922 -67.9193L76.35 -68.2873L76.3497 -68.2864L77.4922 -67.9193ZM79.1469 -75.2977L78.2657 -74.4833L78.2673 -74.4816L79.1469 -75.2977ZM48.4539 -53.9733L49.6534 -54.0077L49.6401 -54.4702L49.3198 -54.8041L48.4539 -53.9733ZM70.6908 -54.1215L69.8742 -55.0009L69.5049 -54.6578L69.4913 -54.1539L70.6908 -54.1215ZM70.6868 -53.9704L71.8863 -53.938V-53.938L70.6868 -53.9704ZM119.144 89.1466L120.34 89.2332C120.405 88.3342 120.291 87.4397 120.174 86.6544C120.05 85.826 119.927 85.1402 119.897 84.4703L118.699 84.5234L117.5 84.5766C117.537 85.4095 117.691 86.2799 117.8 87.0096C117.916 87.7826 117.991 88.4482 117.947 89.0601L119.144 89.1466ZM118.699 84.5234L119.897 84.4698C119.589 77.5749 119.656 77.0381 119.491 69.8614L118.291 69.8891L117.091 69.9168C117.256 77.0547 117.19 77.6477 117.5 84.577L118.699 84.5234ZM118.291 69.8891L119.491 69.8614C119.318 62.3871 119.81 58.0933 118.577 50.6045L117.393 50.7995L116.209 50.9944C117.406 58.2625 116.912 62.1812 117.091 69.9168L118.291 69.8891ZM117.393 50.7995L118.577 50.6048C118.279 48.7923 117.772 46.9821 117.275 45.2427C116.772 43.4803 116.28 41.7954 115.963 40.1345L114.784 40.3593L113.605 40.5841C113.947 42.374 114.474 44.1745 114.968 45.9021C115.468 47.6528 115.936 49.3372 116.209 50.9941L117.393 50.7995ZM114.784 40.3593L115.963 40.1336C114.999 35.1042 114.754 26.146 114.758 16.9994C114.76 12.4475 114.823 7.88183 114.885 3.78029C114.948 -0.315239 115.009 -3.95877 115.006 -6.64655L113.806 -6.64536L112.606 -6.64416C112.609 -3.98129 112.548 -0.364281 112.486 3.74385C112.423 7.84598 112.36 12.4271 112.358 16.9983C112.354 26.098 112.592 35.2915 113.606 40.585L114.784 40.3593ZM113.806 -6.64536L115.006 -6.64671C114.998 -13.8118 113.71 -22.2556 109.589 -28.5258L108.586 -27.8667L107.583 -27.2077C111.329 -21.5082 112.598 -13.6176 112.606 -6.644L113.806 -6.64536ZM108.586 -27.8667L109.589 -28.5257C106.592 -33.0859 101.067 -35.6701 96.126 -36.7709L95.865 -35.5996L95.6041 -34.4283C100.256 -33.392 105.075 -31.0253 107.583 -27.2077L108.586 -27.8667ZM95.865 -35.5996L96.189 -36.755C92.2789 -37.8513 88.3897 -39.024 84.5368 -40.2915L84.1618 -39.1516L83.7868 -38.0117C87.6775 -36.7318 91.6011 -35.5488 95.5411 -34.4441L95.865 -35.5996ZM84.1618 -39.1516L84.5368 -40.2915C83.685 -40.5717 82.5457 -40.8784 81.3627 -41.2092C80.1592 -41.5458 78.8745 -41.9167 77.6587 -42.3405C76.4363 -42.7666 75.3298 -43.2306 74.4698 -43.7396C73.5806 -44.2659 73.1164 -44.747 72.9454 -45.1326L71.8484 -44.6461L70.7514 -44.1597C71.228 -43.085 72.2176 -42.2837 73.2473 -41.6743C74.3063 -41.0475 75.5836 -40.5222 76.8687 -40.0742C78.1604 -39.624 79.5066 -39.2362 80.7163 -38.8979C81.9465 -38.5539 83.0026 -38.2697 83.7868 -38.0117L84.1618 -39.1516ZM47.5467 -44.6461L46.452 -45.1376C46.2797 -44.7539 45.8227 -44.2778 44.9594 -43.756C44.1233 -43.2507 43.0493 -42.7871 41.8617 -42.3593C40.6803 -41.9338 39.431 -41.5591 38.2568 -41.2184C37.1026 -40.8834 35.9873 -40.572 35.1462 -40.2889L35.5291 -39.1516L35.9119 -38.0143C36.6896 -38.2761 37.7247 -38.5649 38.9258 -38.9135C40.107 -39.2563 41.4178 -39.6485 42.675 -40.1014C43.9258 -40.5519 45.1686 -41.0781 46.2008 -41.702C47.2059 -42.3095 48.1689 -43.1021 48.6414 -44.1546L47.5467 -44.6461ZM35.5291 -39.1516L35.146 -40.2888C31.3915 -39.0241 27.6037 -37.8516 23.7926 -36.7555L24.1243 -35.6023L24.456 -34.449C28.2979 -35.554 32.1203 -36.737 35.9122 -38.0144L35.5291 -39.1516ZM24.1243 -35.6023L23.864 -36.7737C18.9223 -35.6755 13.3968 -33.0912 10.4002 -28.5281L11.4032 -27.8694L12.4062 -27.2107C14.9148 -31.0306 19.7335 -33.3972 24.3846 -34.4308L24.1243 -35.6023ZM11.4032 -27.8694L10.4002 -28.5281C6.28262 -22.2583 4.99123 -13.8176 4.98312 -6.64938L6.18312 -6.64802L7.38312 -6.64666C7.39101 -13.6225 8.66302 -21.5108 12.4062 -27.2107L11.4032 -27.8694ZM6.18312 -6.64802L4.98312 -6.64922C4.98045 -3.96144 5.04181 -0.317741 5.104 3.778C5.16629 7.87975 5.22961 12.4456 5.2316 16.9977C5.23561 26.1447 4.9899 35.1029 4.02662 40.1308L5.20519 40.3566L6.38375 40.5824C7.39766 35.2902 7.63559 26.0966 7.6316 16.9967C7.6296 12.4253 7.56602 7.84389 7.50373 3.74156C7.44135 -0.366783 7.38047 -3.98396 7.38312 -6.64682L6.18312 -6.64802ZM5.20519 40.3566L4.02664 40.1308C3.70845 41.791 3.21631 43.4756 2.71298 45.2382C2.21621 46.9779 1.71022 48.7886 1.41235 50.6023L2.59648 50.7968L3.78062 50.9913C4.05299 49.3329 4.52093 47.6475 5.02074 45.8972C5.514 44.1698 6.04109 42.3704 6.38374 40.5825L5.20519 40.3566ZM2.59648 50.7968L1.41236 50.6022C0.18182 58.0909 0.671776 61.5747 0.498815 69.054L1.69849 69.0817L2.89817 69.1095C3.07695 61.3788 2.58631 58.2595 3.78061 50.9914L2.59648 50.7968ZM1.69849 69.0817L0.498814 69.054C0.332633 76.2507 0.400478 79.5781 0.0919994 86.4763L1.2908 86.5299L2.4896 86.5835C2.79933 79.6575 2.73394 76.2219 2.89817 69.1094L1.69849 69.0817ZM1.2908 86.5299L0.0919785 86.4768C0.0622661 87.1471 -0.0599916 87.8336 -0.18351 88.6614C-0.300637 89.4464 -0.41455 90.3399 -0.351222 91.2376L0.845803 91.1531L2.04283 91.0687C1.99957 90.4555 2.07485 89.7888 2.19021 89.0156C2.29919 88.2853 2.45272 87.4156 2.48962 86.5831L1.2908 86.5299ZM0.845803 91.1531L-0.351138 91.2388C-0.288031 92.1209 -0.177269 93.0532 -0.0873312 93.9209C0.00463681 94.8081 0.0778864 95.6523 0.0828311 96.4446L1.28281 96.4371L2.48278 96.4297C2.47707 95.514 2.3931 94.5728 2.29988 93.6734C2.20462 92.7544 2.10221 91.8988 2.04274 91.0675L0.845803 91.1531ZM1.28281 96.4371L0.0828292 96.4443C0.0966537 98.7606 -0.33044 100.695 -0.71186 102.791C-1.08953 104.866 -1.40898 107.052 -1.02884 109.629L0.158319 109.454L1.34547 109.279C1.02481 107.105 1.28226 105.238 1.64937 103.22C2.01272 101.224 2.49827 99.0247 2.48279 96.43L1.28281 96.4371ZM0.158319 109.454L-1.02884 109.629C-0.746648 111.543 0.0693665 114.092 1.12325 116.424C2.16212 118.723 3.52538 121.021 5.00024 122.276L5.77809 121.362L6.55594 120.449C5.5047 119.554 4.31922 117.668 3.31029 115.436C2.31638 113.236 1.58556 110.907 1.34548 109.279L0.158319 109.454ZM5.77809 121.362L5.00038 122.276C6.17709 123.278 7.95416 124.545 9.73703 125.584C10.6304 126.104 11.5455 126.579 12.4036 126.936C13.2414 127.284 14.1111 127.557 14.8887 127.602L14.9579 126.404L15.027 125.206C14.6508 125.184 14.0756 125.032 13.3252 124.72C12.5951 124.416 11.7787 123.995 10.945 123.51C9.27376 122.536 7.61475 121.35 6.55581 120.449L5.77809 121.362ZM14.9579 126.404L14.8852 127.602C15.3838 127.632 15.7072 127.36 15.798 127.278C15.9222 127.166 16.0032 127.05 16.0471 126.982C16.1403 126.838 16.2088 126.684 16.2579 126.557C16.3611 126.291 16.4507 125.959 16.5091 125.602C16.6204 124.923 16.6571 123.917 16.2261 123.02L15.1444 123.539L14.0627 124.059C14.1859 124.315 14.2173 124.747 14.1407 125.214C14.1052 125.431 14.0552 125.599 14.0204 125.689C14.0005 125.74 14.0003 125.728 14.0311 125.68C14.0438 125.661 14.0952 125.582 14.192 125.494C14.2555 125.437 14.5539 125.177 15.0305 125.206L14.9579 126.404ZM15.1444 123.539L16.2264 123.021C15.6484 121.815 14.4437 120.854 13.5385 120.148C13.0407 119.759 12.61 119.434 12.2397 119.112C11.8616 118.784 11.6571 118.55 11.5659 118.39L10.5239 118.986L9.48184 119.581C9.78104 120.105 10.2403 120.555 10.6656 120.924C11.0987 121.3 11.6109 121.688 12.0618 122.04C13.0539 122.814 13.7691 123.447 14.0623 124.058L15.1444 123.539ZM10.5239 118.986L11.5658 118.39C11.2045 117.758 10.9726 116.626 10.8096 115.12C10.7312 114.397 10.673 113.642 10.6124 112.879C10.5525 112.125 10.4901 111.361 10.404 110.657L9.21284 110.802L8.02172 110.948C8.10077 111.594 8.1596 112.31 8.21996 113.069C8.27959 113.82 8.34065 114.614 8.42351 115.379C8.58289 116.851 8.84126 118.46 9.48197 119.581L10.5239 118.986ZM9.21284 110.802L10.4037 110.654C10.4223 110.804 10.4003 110.907 10.3975 110.92C10.3923 110.946 10.3897 110.947 10.3999 110.919C10.4205 110.862 10.4636 110.764 10.5365 110.623C10.6804 110.345 10.8909 109.996 11.1212 109.644C11.3501 109.294 11.5824 108.967 11.7611 108.735C11.8528 108.616 11.9163 108.541 11.9502 108.504C11.97 108.483 11.9584 108.498 11.9227 108.527C11.9061 108.541 11.8564 108.582 11.7807 108.625C11.7363 108.65 11.5217 108.773 11.2113 108.773V107.573V106.373C10.8893 106.373 10.6597 106.501 10.5973 106.537C10.5036 106.59 10.4327 106.645 10.3921 106.679C10.3085 106.748 10.2374 106.822 10.1882 106.875C10.0839 106.988 9.97055 107.127 9.86091 107.269C9.63702 107.559 9.36883 107.939 9.11311 108.33C8.85879 108.718 8.60048 109.143 8.40501 109.52C8.30833 109.707 8.21405 109.907 8.14399 110.1C8.09481 110.236 7.97528 110.575 8.02202 110.95L9.21284 110.802ZM11.2113 107.573V108.773C11.0861 108.773 10.9875 108.752 10.9289 108.737C10.8672 108.721 10.8196 108.703 10.7898 108.69C10.7321 108.666 10.6962 108.644 10.6882 108.639C10.6708 108.628 10.6812 108.633 10.7206 108.666C10.7952 108.728 10.9062 108.834 11.023 108.969C11.1398 109.104 11.2418 109.243 11.3137 109.368C11.3918 109.504 11.3989 109.562 11.3965 109.544L12.5863 109.387L13.7761 109.231C13.6755 108.465 13.171 107.783 12.8366 107.397C12.646 107.177 12.4444 106.979 12.26 106.824C12.1698 106.749 12.064 106.668 11.9512 106.598C11.8955 106.563 11.8171 106.519 11.723 106.479C11.6513 106.449 11.461 106.373 11.2113 106.373V107.573ZM12.5863 109.387L11.3963 109.542C11.4757 110.153 11.4943 110.815 11.5047 111.536C11.5147 112.234 11.5167 113.007 11.5769 113.734L12.7728 113.635L13.9687 113.536C13.9171 112.912 13.9151 112.247 13.9044 111.502C13.8941 110.781 13.8754 109.995 13.7763 109.233L12.5863 109.387ZM12.7728 113.635L11.5771 113.735C11.6592 114.711 11.9943 116.117 12.5407 117.335C12.8151 117.946 13.1672 118.566 13.6111 119.07C14.0489 119.567 14.6635 120.048 15.4656 120.169L15.6453 118.983L15.8251 117.796C15.7918 117.791 15.6473 117.75 15.412 117.483C15.1827 117.223 14.9476 116.836 14.7303 116.352C14.2935 115.379 14.0277 114.237 13.9686 113.534L12.7728 113.635ZM15.6453 118.983L15.4645 120.169C16.1667 120.276 16.9233 120.299 17.5476 119.866C17.8563 119.652 18.0411 119.387 18.1576 119.188C18.2482 119.033 18.3641 118.788 18.4007 118.716L17.3321 118.17L16.2635 117.624C16.2201 117.709 16.1743 117.804 16.1483 117.856C16.1167 117.92 16.0985 117.955 16.0851 117.977C16.061 118.019 16.0894 117.957 16.1792 117.894C16.275 117.828 16.3427 117.828 16.301 117.832C16.2442 117.837 16.1038 117.839 15.8262 117.797L15.6453 118.983ZM17.3321 118.17L18.4007 118.716C18.5438 118.436 18.5848 118.148 18.6013 117.962C18.6196 117.755 18.6171 117.541 18.6074 117.343C18.5881 116.95 18.533 116.498 18.4835 116.094C18.4313 115.668 18.3837 115.282 18.362 114.95C18.3514 114.786 18.3485 114.655 18.3523 114.555C18.3563 114.447 18.3667 114.418 18.3607 114.439L17.2068 114.109L16.053 113.78C15.9278 114.218 15.9426 114.729 15.9671 115.106C15.9942 115.521 16.0519 115.982 16.1013 116.385C16.1534 116.811 16.1961 117.171 16.2102 117.46C16.2173 117.603 16.2154 117.697 16.2106 117.751C16.204 117.826 16.1983 117.752 16.2635 117.624L17.3321 118.17ZM17.2068 114.109L18.3609 114.438C18.5518 113.768 18.5224 112.937 18.4633 112.299C18.4002 111.617 18.2819 110.962 18.1936 110.55L17.0203 110.802L15.8471 111.054C15.9212 111.4 16.0215 111.958 16.0736 112.52C16.1297 113.127 16.1123 113.571 16.0527 113.78L17.2068 114.109ZM17.0203 110.802L18.193 110.548C18.0121 109.714 18.0366 108.716 18.0962 107.523C18.1526 106.397 18.2421 105.079 18.0852 103.864L16.8951 104.018L15.705 104.172C15.8278 105.123 15.7601 106.186 15.6992 107.403C15.6416 108.555 15.5889 109.865 15.8476 111.057L17.0203 110.802ZM16.8951 104.018L18.0853 103.865C17.9899 103.124 17.663 102.222 17.2913 101.347C16.9075 100.444 16.4244 99.4524 15.9472 98.4998C15.4621 97.5312 14.9925 96.6206 14.6015 95.8163C14.2001 94.9905 13.9436 94.3994 13.8523 94.0687L12.6956 94.388L11.5388 94.7074C11.698 95.2839 12.0554 96.0681 12.443 96.8655C12.841 97.6843 13.3355 98.6446 13.8013 99.5746C14.2751 100.521 14.7297 101.455 15.0823 102.286C15.447 103.144 15.655 103.784 15.7049 104.171L16.8951 104.018ZM12.6956 94.388L13.8522 94.0685C13.6041 93.1703 13.49 91.7353 13.5298 90.1976C13.5693 88.6691 13.7569 87.1844 14.036 86.2064L12.8821 85.8771L11.7282 85.5478C11.3731 86.7921 11.173 88.497 11.1306 90.1355C11.0884 91.7647 11.1981 93.474 11.5389 94.7076L12.6956 94.388ZM12.8821 85.8771L14.036 86.2065C16.5091 77.5426 17.5069 73.5752 19.7095 64.6529L18.5445 64.3653L17.3795 64.0777C15.18 72.9872 14.19 76.9233 11.7282 85.5477L12.8821 85.8771ZM18.5445 64.3653L19.7095 64.6528C21.5135 57.3428 22.5278 51.0285 23.6287 42.0157L22.4376 41.8702L21.2464 41.7247C20.1516 50.6876 19.1515 56.8973 17.3794 64.0778L18.5445 64.3653ZM22.4376 41.8702L23.6287 42.0155C23.8396 40.2865 24.1642 36.4943 24.5161 32.5865C24.8707 28.6485 25.2537 24.5852 25.5843 22.242L24.3961 22.0744L23.2079 21.9067C22.867 24.3226 22.4786 28.4531 22.1257 32.3713C21.7702 36.3196 21.4512 40.0458 21.2464 41.7249L22.4376 41.8702ZM24.3961 22.0744L23.1962 22.0585C23.172 23.8943 23.6009 27.4349 24.2306 31.2637C24.8654 35.1238 25.7238 39.3908 26.5952 42.7252L27.7562 42.4218L28.9172 42.1183C28.0699 38.8763 27.2256 34.6857 26.5988 30.8742C25.9668 27.0315 25.5749 23.6865 25.596 22.0902L24.3961 22.0744ZM27.7562 42.4218L26.5952 42.7251C27.1115 44.7013 27.1705 48.5004 26.8724 53.1858C26.5781 57.8116 25.9495 63.1322 25.1798 68.0432L26.3653 68.229L27.5508 68.4148C28.3293 63.448 28.9677 58.0526 29.2676 53.3381C29.5637 48.6832 29.5441 44.5176 28.9173 42.1184L27.7562 42.4218ZM26.3653 68.229L25.1797 68.0435C24.4188 72.9052 22.9007 77.0682 21.3949 82.243C19.899 87.3839 18.48 93.3419 18.0285 101.546L19.2267 101.612L20.4248 101.678C20.8633 93.7101 22.2369 87.9396 23.6994 82.9135C25.152 77.9213 26.7583 73.4787 27.5509 68.4146L26.3653 68.229ZM19.2267 101.612L18.0285 101.546C17.3142 114.527 18.448 127.915 19.6089 140.831L20.8041 140.724L21.9993 140.616C20.8366 127.68 19.7215 114.459 20.4248 101.678L19.2267 101.612ZM20.8041 140.724L19.609 140.831C20.4895 150.614 22.3293 160.414 24.358 169.866L25.5312 169.614L26.7045 169.362C24.6829 159.943 22.8668 150.254 21.9993 140.616L20.8041 140.724ZM25.5312 169.614L24.358 169.866C25.0819 173.238 24.7705 176.994 24.6095 180.746L25.8084 180.798L27.0073 180.849C27.1607 177.273 27.5101 173.115 26.7045 169.362L25.5312 169.614ZM25.8084 180.798L24.6095 180.747C24.5348 182.495 24.6243 184.253 24.7019 185.932C24.7805 187.632 24.8472 189.254 24.7492 190.83L25.9469 190.905L27.1446 190.979C27.2518 189.254 27.1773 187.507 27.0994 185.821C27.0204 184.113 26.9381 182.469 27.0073 180.849L25.8084 180.798ZM25.9469 190.905L24.7492 190.83C24.5541 193.969 23.8809 197.126 23.2416 200.427C22.6097 203.691 22.0164 207.076 22.0664 210.5L23.2663 210.482L24.4662 210.465C24.4202 207.314 24.966 204.147 25.5979 200.884C26.2223 197.658 26.9374 194.313 27.1446 190.979L25.9469 190.905ZM23.2663 210.482L22.0664 210.5C22.2811 225.015 25.2023 240.295 27.2612 254.672L28.4491 254.502L29.6369 254.332C27.5549 239.793 24.6778 224.776 24.4661 210.464L23.2663 210.482ZM28.4491 254.502L27.2612 254.673C27.4118 255.723 27.653 256.846 27.9046 257.961C28.1597 259.092 28.4242 260.21 28.6416 261.314C29.0858 263.57 29.2655 265.474 28.8581 266.837L30.0079 267.181L31.1576 267.524C31.7521 265.535 31.4389 263.098 30.9964 260.851C30.7705 259.703 30.4933 258.53 30.2458 257.433C29.9948 256.32 29.7727 255.279 29.6369 254.332L28.4491 254.502ZM30.0079 267.181L28.8582 266.837C28.4816 268.096 27.5487 269.469 26.3677 271.056C25.2411 272.571 23.8956 274.272 23.0002 276L24.0657 276.552L25.1312 277.104C25.9119 275.598 27.0911 274.105 28.2934 272.489C29.4414 270.946 30.6415 269.25 31.1576 267.525L30.0079 267.181ZM24.0657 276.552L23.0001 276.001C22.5791 276.814 21.7363 277.578 20.6203 278.349C20.0752 278.725 19.5002 279.08 18.9215 279.433C18.3543 279.78 17.7696 280.133 17.2564 280.48L17.929 281.474L18.6015 282.468C19.0569 282.16 19.583 281.841 20.1724 281.481C20.7503 281.129 21.3775 280.742 21.9839 280.323C23.1708 279.504 24.4277 278.463 25.1313 277.104L24.0657 276.552ZM17.929 281.474L17.2569 280.48C16.5763 280.94 15.9484 281.468 15.3703 281.971C14.7748 282.49 14.251 282.965 13.7043 283.4L14.4516 284.339L15.1988 285.278C15.8007 284.799 16.3987 284.258 16.9463 283.781C17.5113 283.289 18.0479 282.842 18.601 282.468L17.929 281.474ZM14.4516 284.339L13.7038 283.4C13.6221 283.465 13.4648 283.574 13.2111 283.747C12.9761 283.908 12.685 284.105 12.3924 284.316C11.8614 284.697 11.1214 285.26 10.724 285.852L11.7203 286.521L12.7166 287.19C12.8361 287.012 13.2126 286.682 13.7935 286.264C14.0568 286.075 14.3205 285.896 14.5635 285.73C14.7879 285.577 15.0319 285.411 15.1994 285.277L14.4516 284.339ZM11.7203 286.521L10.7237 285.852C10.2507 286.558 10.0471 287.277 10.1899 287.951C10.2591 288.279 10.4048 288.56 10.5937 288.778C10.6866 288.885 10.7975 288.987 10.926 289.071C11.0329 289.141 11.2383 289.257 11.516 289.288L11.651 288.096L11.786 286.903C12.0284 286.931 12.1871 287.028 12.2421 287.064C12.3187 287.114 12.3724 287.166 12.4092 287.208C12.4859 287.297 12.5233 287.385 12.5379 287.455C12.5714 287.613 12.4731 287.553 12.7168 287.189L11.7203 286.521ZM11.651 288.096L10.843 287.209C10.2288 287.768 9.92458 288.54 9.91066 289.234C9.9037 289.582 9.96824 289.993 10.1915 290.367C10.433 290.772 10.8556 291.11 11.4273 291.179L11.5711 289.988L11.7149 288.796C11.8279 288.81 11.9453 288.852 12.0497 288.924C12.1509 288.994 12.215 289.075 12.2525 289.138C12.3207 289.252 12.3095 289.317 12.3102 289.283C12.3116 289.213 12.3565 289.076 12.4591 288.983L11.651 288.096ZM11.5711 289.988L10.4453 289.572C10.161 290.343 10.1584 291.183 10.608 291.86C11.0648 292.547 11.8617 292.852 12.6342 292.707L12.4131 291.528L12.192 290.348C12.249 290.338 12.3278 290.34 12.4121 290.375C12.4978 290.41 12.565 290.468 12.6068 290.531C12.6987 290.669 12.5947 290.68 12.6969 290.403L11.5711 289.988ZM12.4131 291.528L11.3385 290.994C10.8638 291.949 11.163 292.923 11.7286 293.525C12.2758 294.108 13.1845 294.469 14.1211 294.172L13.7588 293.028L13.3964 291.884C13.4305 291.873 13.4605 291.877 13.4736 291.881C13.4789 291.883 13.4805 291.884 13.4797 291.883C13.4788 291.883 13.478 291.882 13.478 291.882C13.478 291.882 13.481 291.885 13.4853 291.893C13.4897 291.902 13.4959 291.916 13.5 291.938C13.5042 291.959 13.5054 291.985 13.5019 292.011C13.4984 292.037 13.4914 292.055 13.4877 292.062L12.4131 291.528ZM13.7588 293.028L12.5992 293.337C12.7956 294.074 13.2242 294.636 13.7976 295.003C14.3443 295.353 14.9597 295.488 15.5129 295.52C16.5995 295.582 17.7441 295.264 18.5166 294.87L17.9716 293.801L17.4266 292.732C16.9654 292.967 16.242 293.158 15.6498 293.124C15.3637 293.107 15.1871 293.043 15.0919 292.982C15.0235 292.938 14.9604 292.877 14.9183 292.719L13.7588 293.028ZM17.9716 293.801L16.7769 293.914C16.9322 295.553 18.1631 296.434 19.2767 296.833C20.3859 297.23 21.6566 297.276 22.5947 297.109L22.3843 295.927L22.1738 294.746C21.6011 294.848 20.7587 294.815 20.0859 294.574C19.4175 294.334 19.1975 294.018 19.1662 293.688L17.9716 293.801ZM22.3843 295.927L22.5957 297.108C24.4932 296.769 26.4064 296.178 28.1158 294.853L27.3805 293.905L26.6452 292.956C25.3649 293.949 23.8779 294.441 22.1728 294.746L22.3843 295.927ZM27.3805 293.905L28.1151 294.854C28.5973 294.48 29.0665 293.838 29.3741 293.412C29.5549 293.161 29.6959 292.96 29.829 292.782C29.9803 292.579 30.0255 292.54 29.9984 292.563L29.2218 291.648L28.4452 290.733C28.233 290.913 28.035 291.173 27.9058 291.346C27.7584 291.543 27.5816 291.794 27.4281 292.007C27.0668 292.508 26.8006 292.836 26.646 292.956L27.3805 293.905ZM29.2218 291.648L29.9952 292.565C30.4577 292.176 31.0474 291.87 31.8057 291.475C32.511 291.108 33.3689 290.659 34.0855 290.014L33.2827 289.122L32.48 288.23C32.0241 288.64 31.4365 288.961 30.6968 289.346C30.0102 289.704 29.1557 290.134 28.4485 290.73L29.2218 291.648ZM33.2827 289.122L34.0855 290.014C34.8094 289.362 35.2452 288.525 35.5633 287.844C35.9203 287.08 36.1131 286.572 36.3996 286.146L35.4038 285.476L34.4081 284.807C33.9831 285.439 33.6483 286.273 33.3891 286.828C33.091 287.466 32.8219 287.922 32.48 288.23L33.2827 289.122ZM35.4038 285.476L36.3992 286.147C36.662 285.756 37.121 285.286 37.6747 284.891C38.2357 284.49 38.7887 284.24 39.2148 284.173L39.0278 282.988L38.8407 281.802C37.9159 281.948 37.0139 282.413 36.2793 282.938C35.5373 283.468 34.8598 284.136 34.4085 284.806L35.4038 285.476ZM39.0278 282.988L39.2127 284.173C40.1866 284.021 41.3993 283.762 42.511 283.245C43.626 282.726 44.741 281.898 45.3425 280.559L44.2478 280.067L43.1532 279.575C42.87 280.206 42.3063 280.693 41.4981 281.069C40.6866 281.447 39.7315 281.663 38.8429 281.802L39.0278 282.988ZM44.2478 280.067L45.3428 280.558C46.3752 278.256 45.9912 275.271 45.5057 273.234L44.3384 273.512L43.1711 273.79C43.6396 275.756 43.8365 278.052 43.1529 279.576L44.2478 280.067ZM44.3384 273.512L45.5053 273.232C45.3344 272.52 45.0419 271.586 44.8755 270.955C44.6833 270.226 44.5644 269.596 44.5737 269.034L43.3738 269.014L42.174 268.994C42.1593 269.892 42.3469 270.778 42.5549 271.567C42.7889 272.454 42.9907 273.038 43.1716 273.792L44.3384 273.512ZM43.3738 269.014L44.5737 269.033C44.5736 269.037 44.5742 269.013 44.583 268.944C44.5914 268.879 44.6037 268.799 44.6207 268.693C44.6531 268.493 44.7004 268.215 44.7397 267.911C44.819 267.299 44.8782 266.504 44.753 265.65L43.5657 265.824L42.3784 265.999C42.4584 266.544 42.4256 267.094 42.3597 267.603C42.3264 267.859 42.2877 268.086 42.2514 268.311C42.2207 268.501 42.1777 268.767 42.174 268.995L43.3738 269.014ZM43.5657 265.824L44.7527 265.648C44.6167 264.731 44.3224 263.944 44.0693 263.3C43.7988 262.612 43.6086 262.158 43.5245 261.712L42.3453 261.934L41.1661 262.157C41.3031 262.883 41.6086 263.601 41.8357 264.178C42.0802 264.8 42.2855 265.372 42.3787 266L43.5657 265.824ZM42.3453 261.934L43.5245 261.712C43.199 259.986 43.1757 258.162 43.1546 256.255L41.9546 256.268L40.7547 256.281C40.7754 258.149 40.7948 260.188 41.1661 262.157L42.3453 261.934ZM41.9546 256.268L43.1546 256.255L43.1535 256.157L41.9536 256.17L40.7536 256.184L40.7547 256.281L41.9546 256.268ZM41.9536 256.17L43.1535 256.156C43.0914 250.968 44.6402 245.634 45.6486 240.232L44.469 240.012L43.2894 239.792C42.342 244.867 40.6878 250.682 40.7537 256.185L41.9536 256.17ZM44.469 240.012L45.6486 240.232C46.917 233.442 48.3944 226.384 48.7055 219.363L47.5067 219.31L46.3079 219.257C46.0062 226.066 44.5737 232.917 43.2894 239.792L44.469 240.012ZM47.5067 219.31L48.7056 219.363C48.9001 214.964 48.7569 210.547 48.265 206.141L47.0724 206.275L45.8798 206.408C46.3578 210.689 46.497 214.98 46.3079 219.257L47.5067 219.31ZM47.0724 206.275L48.2649 206.14C48.1967 205.535 48.1103 204.923 48.0262 204.327C47.9414 203.726 47.8587 203.14 47.7928 202.558C47.6605 201.391 47.6033 200.299 47.7256 199.279L46.5341 199.136L45.3426 198.993C45.1878 200.286 45.2678 201.591 45.408 202.828C45.4783 203.449 45.5657 204.067 45.6498 204.663C45.7347 205.264 45.8162 205.842 45.8799 206.409L47.0724 206.275ZM46.5341 199.136L47.7256 199.278C48.0962 196.179 49.1712 193.096 50.3193 189.854C51.4505 186.66 52.6541 183.309 53.1269 179.866L51.9381 179.703L50.7492 179.539C50.316 182.694 49.2067 185.806 48.057 189.053C46.9241 192.251 45.7501 195.585 45.3426 198.993L46.5341 199.136ZM51.9381 179.703L53.1269 179.866C53.5806 176.56 53.5117 173.224 53.4076 169.979C53.3024 166.703 53.1624 163.533 53.4321 160.41L52.2365 160.306L51.0409 160.203C50.7563 163.501 50.9054 166.836 51.0088 170.056C51.1132 173.307 51.1722 176.458 50.7492 179.539L51.9381 179.703ZM52.2365 160.306L53.4321 160.409C54.0577 153.149 55.2087 145.795 56.3533 138.485L55.1677 138.3L53.9822 138.114C52.8399 145.409 51.6749 152.846 51.0409 160.203L52.2365 160.306ZM55.1677 138.3L56.3533 138.485L56.3772 138.333L55.1916 138.147L54.0061 137.961L53.9822 138.114L55.1677 138.3ZM55.1916 138.147L56.3771 138.333C57.0489 134.049 57.7362 129.796 58.688 125.612L57.5179 125.346L56.3478 125.08C55.3757 129.353 54.6774 133.681 54.0061 137.961L55.1916 138.147ZM57.5179 125.346L58.6882 125.611C58.7839 125.189 58.8814 124.488 58.9828 123.744C59.0883 122.969 59.2056 122.086 59.3432 121.22C59.4815 120.349 59.6348 119.533 59.8062 118.895C59.8921 118.575 59.975 118.329 60.0506 118.155C60.1383 117.953 60.17 117.958 60.0969 118.024L59.2979 117.128L58.4988 116.233C58.1779 116.519 57.9783 116.902 57.8496 117.198C57.7088 117.522 57.5903 117.893 57.4883 118.273C57.2838 119.034 57.115 119.949 56.9729 120.843C56.8301 121.742 56.7085 122.657 56.6047 123.42C56.4968 124.212 56.4143 124.786 56.3476 125.081L57.5179 125.346ZM59.2979 117.128L60.0951 118.025C59.9356 118.167 59.7709 118.236 59.6557 118.271C59.5417 118.305 59.4464 118.315 59.3894 118.318C59.2818 118.324 59.2043 118.311 59.194 118.31C59.1744 118.307 59.1662 118.304 59.1825 118.308C59.2 118.312 59.2135 118.315 59.2504 118.323C59.3114 118.337 59.4098 118.359 59.5224 118.376C59.6355 118.392 59.7798 118.407 59.9417 118.402L59.9081 117.203L59.8744 116.003C59.8973 116.003 59.8878 116.007 59.7777 115.982C59.7545 115.977 59.6451 115.951 59.5527 115.937C59.5052 115.929 59.3959 115.914 59.263 115.921C59.1651 115.926 58.8157 115.951 58.5006 116.231L59.2979 117.128ZM59.9081 117.203L59.9291 118.403C60.0876 118.4 60.2302 118.381 60.3423 118.361C60.4544 118.341 60.5542 118.317 60.6193 118.301C60.6572 118.292 60.6753 118.288 60.6955 118.283C60.715 118.278 60.7125 118.279 60.6994 118.281C60.6956 118.282 60.6286 118.295 60.5331 118.294C60.4833 118.294 60.3918 118.29 60.2794 118.263C60.1694 118.237 59.9854 118.175 59.8034 118.024L60.5716 117.102L61.3397 116.18C61.1517 116.023 60.9597 115.958 60.8397 115.929C60.7173 115.9 60.6139 115.895 60.5504 115.894C60.4275 115.893 60.3259 115.91 60.2813 115.918C60.192 115.934 60.0857 115.961 60.0522 115.969C59.9954 115.983 59.9572 115.992 59.924 115.998C59.8907 116.003 59.8804 116.003 59.887 116.003L59.9081 117.203ZM60.5716 117.102L59.8076 118.027C59.7198 117.955 59.7468 117.935 59.8352 118.131C59.9105 118.299 59.9942 118.54 60.0812 118.858C60.2549 119.492 60.4093 120.308 60.5482 121.182C60.6864 122.052 60.8034 122.941 60.909 123.722C61.0103 124.473 61.108 125.182 61.2052 125.611L62.3755 125.346L63.5459 125.081C63.4779 124.781 63.3953 124.201 63.2874 123.401C63.1836 122.632 63.0621 121.71 62.9185 120.806C62.7756 119.907 62.605 118.987 62.3961 118.224C62.2918 117.844 62.1699 117.471 62.0234 117.146C61.8901 116.85 61.6792 116.46 61.3355 116.176L60.5716 117.102ZM62.3755 125.346L61.2053 125.612C62.1546 129.796 62.8447 134.05 63.5163 138.333L64.7018 138.147L65.8873 137.961C65.2159 133.68 64.5151 129.353 63.5458 125.081L62.3755 125.346ZM64.7018 138.147L63.5163 138.333C64.668 145.686 65.8049 153.067 66.4617 160.413L67.6569 160.306L68.8521 160.2C68.1873 152.763 67.0379 145.307 65.8873 137.961L64.7018 138.147ZM67.6569 160.306L66.4617 160.414C66.7428 163.548 66.6024 166.716 66.4939 169.987C66.3864 173.227 66.3113 176.558 66.7666 179.866L67.9554 179.703L69.1441 179.539C68.7201 176.457 68.7848 173.315 68.8926 170.066C68.9992 166.849 69.1493 163.513 68.8521 160.199L67.6569 160.306ZM67.9554 179.703L66.7665 179.866C67.2393 183.309 68.4429 186.66 69.5741 189.854C70.7222 193.096 71.7972 196.179 72.1678 199.278L73.3593 199.136L74.5508 198.993C74.1433 195.585 72.9693 192.251 71.8364 189.053C70.6867 185.806 69.5774 182.694 69.1442 179.539L67.9554 179.703ZM73.3593 199.136L72.1678 199.279C72.2901 200.299 72.2329 201.39 72.1006 202.557C72.0347 203.139 71.952 203.725 71.8672 204.326C71.7831 204.922 71.6967 205.534 71.6285 206.141L72.821 206.275L74.0135 206.409C74.0772 205.841 74.1587 205.263 74.2436 204.662C74.3277 204.066 74.4151 203.448 74.4854 202.827C74.6256 201.59 74.7056 200.286 74.5508 198.993L73.3593 199.136ZM72.821 206.275L71.6285 206.141C71.1338 210.548 70.9933 214.964 71.1879 219.363L72.3867 219.31L73.5855 219.257C73.3963 214.98 73.533 210.688 74.0135 206.408L72.821 206.275ZM72.3867 219.31L71.1879 219.363C71.499 226.384 72.9736 233.439 74.2449 240.233L75.4244 240.012L76.6039 239.791C75.3171 232.915 73.8872 226.066 73.5855 219.257L72.3867 219.31ZM75.4244 240.012L74.2448 240.232C75.2532 245.634 76.802 250.968 76.7399 256.156L77.9398 256.17L79.1398 256.185C79.2056 250.682 77.5514 244.867 76.604 239.792L75.4244 240.012ZM77.9398 256.17L76.7399 256.156L76.7377 256.339L77.9376 256.354L79.1375 256.369L79.1397 256.185L77.9398 256.17ZM77.9376 256.354L76.7377 256.339C76.7145 258.219 76.6893 260.013 76.3689 261.712L77.5481 261.934L78.7273 262.157C79.0932 260.217 79.1148 258.209 79.1375 256.369L77.9376 256.354ZM77.5481 261.934L76.3689 261.712C76.2848 262.158 76.0948 262.611 75.8242 263.299C75.571 263.943 75.2766 264.73 75.1407 265.649L76.3277 265.824L77.5148 266C77.608 265.371 77.8132 264.799 78.0576 264.178C78.2847 263.6 78.5903 262.883 78.7273 262.157L77.5481 261.934ZM76.3277 265.824L75.1404 265.65C75.0152 266.504 75.0744 267.3 75.1536 267.912C75.193 268.216 75.2403 268.494 75.2727 268.695C75.2897 268.8 75.3021 268.88 75.3104 268.945C75.3192 269.014 75.3198 269.037 75.3197 269.033L76.5196 269.014L77.7194 268.995C77.7158 268.767 77.6726 268.502 77.642 268.312C77.6057 268.087 77.567 267.86 77.5338 267.604C77.4678 267.095 77.435 266.544 77.515 265.999L76.3277 265.824ZM76.5196 269.014L75.3197 269.034C75.3289 269.593 75.2071 270.223 75.0116 270.956C74.8366 271.613 74.5543 272.506 74.3852 273.244L75.555 273.512L76.7247 273.78C76.8887 273.064 77.1007 272.437 77.3307 271.574C77.5403 270.787 77.7342 269.896 77.7194 268.994L76.5196 269.014ZM75.555 273.512L74.385 273.245C74.1444 274.3 73.9216 275.561 73.8852 276.824C73.8491 278.073 73.9916 279.426 74.5692 280.598L75.6456 280.067L76.722 279.537C76.3882 278.859 76.2536 277.951 76.2842 276.893C76.3143 275.849 76.5019 274.757 76.7249 273.779L75.555 273.512ZM75.6456 280.067L74.5686 280.596C75.1893 281.859 76.2437 282.673 77.3406 283.202C78.4311 283.728 79.6325 284.007 80.6777 284.173L80.8656 282.988L81.0536 281.802C80.1162 281.654 79.174 281.421 78.3832 281.04C77.5988 280.662 77.0345 280.172 76.7225 279.538L75.6456 280.067ZM80.8656 282.988L80.6767 284.173C81.1065 284.241 81.6613 284.491 82.2214 284.891C82.7748 285.286 83.2318 285.754 83.4923 286.144L84.4896 285.476L85.4869 284.809C85.0359 284.135 84.3577 283.467 83.6155 282.937C82.8799 282.413 81.9784 281.95 81.0546 281.803L80.8656 282.988ZM84.4896 285.476L83.4938 286.146C83.7803 286.572 83.9731 287.08 84.3301 287.844C84.6482 288.525 85.084 289.362 85.8079 290.014L86.6107 289.122L87.4134 288.23C87.0715 287.922 86.8024 287.466 86.5043 286.828C86.2451 286.273 85.9103 285.439 85.4853 284.807L84.4896 285.476ZM86.6107 289.122L85.8079 290.014C86.5245 290.659 87.3824 291.108 88.0877 291.475C88.846 291.87 89.4357 292.176 89.8982 292.565L90.6716 291.648L91.445 290.73C90.7377 290.134 89.8832 289.704 89.1966 289.346C88.4569 288.961 87.8693 288.64 87.4134 288.23L86.6107 289.122ZM90.6716 291.648L89.8988 292.566C89.8696 292.541 89.9136 292.578 90.0651 292.781C90.1975 292.958 90.3389 293.16 90.5193 293.41C90.8269 293.836 91.2954 294.478 91.7759 294.852L92.5129 293.905L93.2499 292.958C93.0935 292.836 92.8266 292.506 92.4653 292.005C92.3113 291.792 92.1349 291.541 91.9869 291.344C91.8579 291.171 91.6588 290.91 91.4444 290.73L90.6716 291.648ZM92.5129 293.905L91.7786 294.854C93.4752 296.166 95.4258 296.828 97.3311 297.114L97.5091 295.927L97.6871 294.74C96.0751 294.499 94.5404 293.956 93.2472 292.956L92.5129 293.905ZM97.5091 295.927L97.3317 297.114C98.2232 297.247 99.4773 297.229 100.59 296.848C101.721 296.461 102.952 295.588 103.116 293.918L101.922 293.801L100.728 293.684C100.691 294.052 100.465 294.354 99.8137 294.577C99.1449 294.806 98.2926 294.831 97.6865 294.74L97.5091 295.927ZM101.922 293.801L101.373 294.868C102.154 295.269 103.298 295.586 104.384 295.521C104.937 295.487 105.55 295.35 106.094 295C106.664 294.634 107.092 294.076 107.292 293.345L106.135 293.028L104.977 292.711C104.933 292.871 104.868 292.935 104.797 292.981C104.7 293.043 104.524 293.108 104.24 293.125C103.653 293.16 102.934 292.972 102.47 292.733L101.922 293.801ZM106.135 293.028L105.772 294.172C106.709 294.469 107.618 294.108 108.165 293.525C108.73 292.923 109.03 291.949 108.555 290.994L107.48 291.528L106.406 292.062C106.402 292.055 106.395 292.037 106.391 292.011C106.388 291.985 106.389 291.959 106.393 291.938C106.397 291.916 106.404 291.902 106.408 291.893C106.412 291.885 106.415 291.882 106.415 291.882C106.415 291.882 106.415 291.883 106.414 291.883C106.413 291.884 106.415 291.883 106.42 291.881C106.433 291.877 106.463 291.873 106.497 291.884L106.135 293.028ZM107.48 291.528L107.259 292.707C108.032 292.852 108.829 292.547 109.285 291.86C109.735 291.183 109.732 290.343 109.448 289.572L108.322 289.988L107.197 290.403C107.299 290.68 107.195 290.669 107.287 290.531C107.328 290.468 107.396 290.41 107.481 290.375C107.566 290.34 107.644 290.338 107.701 290.348L107.48 291.528ZM108.322 289.988L108.466 291.179C109.038 291.11 109.46 290.772 109.702 290.367C109.925 289.993 109.99 289.582 109.983 289.234C109.969 288.54 109.665 287.768 109.05 287.209L108.242 288.096L107.434 288.983C107.537 289.076 107.582 289.213 107.583 289.283C107.584 289.317 107.573 289.252 107.641 289.138C107.678 289.075 107.743 288.994 107.844 288.924C107.948 288.852 108.065 288.81 108.179 288.796L108.322 289.988ZM108.242 288.096L108.377 289.288C108.655 289.257 108.86 289.141 108.967 289.071C109.096 288.987 109.207 288.885 109.3 288.778C109.489 288.56 109.634 288.279 109.704 287.951C109.846 287.277 109.643 286.558 109.17 285.852L108.173 286.521L107.177 287.189C107.42 287.553 107.322 287.613 107.356 287.455C107.37 287.385 107.408 287.297 107.484 287.208C107.521 287.166 107.575 287.114 107.651 287.064C107.706 287.028 107.865 286.931 108.107 286.903L108.242 288.096ZM108.173 286.521L109.169 285.852C108.772 285.26 108.032 284.697 107.501 284.316C107.208 284.105 106.917 283.908 106.682 283.747C106.429 283.574 106.271 283.465 106.19 283.4L105.442 284.339L104.694 285.277C104.862 285.411 105.106 285.577 105.33 285.73C105.573 285.896 105.837 286.075 106.1 286.264C106.681 286.682 107.057 287.012 107.177 287.19L108.173 286.521ZM105.442 284.339L106.188 283.399C105.641 282.964 105.117 282.489 104.521 281.971C103.944 281.467 103.316 280.939 102.636 280.48L101.964 281.474L101.293 282.469C101.844 282.841 102.379 283.288 102.945 283.78C103.493 284.257 104.092 284.799 104.696 285.278L105.442 284.339ZM101.964 281.474L102.636 280.48C102.113 280.126 101.527 279.766 100.96 279.413C100.382 279.053 99.8103 278.693 99.2697 278.314C98.1646 277.54 97.3209 276.777 96.8792 275.974L95.8277 276.552L94.7762 277.131C95.4937 278.435 96.7191 279.458 97.8929 280.28C98.4918 280.699 99.1122 281.09 99.6913 281.45C100.281 281.817 100.817 282.147 101.292 282.468L101.964 281.474ZM95.8277 276.552L96.8787 275.973C95.9739 274.331 94.6314 272.633 93.5122 271.109C92.3388 269.51 91.4085 268.1 91.0363 266.841L89.8855 267.181L88.7347 267.521C89.2419 269.238 90.4274 270.962 91.5775 272.529C92.782 274.17 93.9708 275.669 94.7768 277.132L95.8277 276.552ZM89.8855 267.181L91.0362 266.84C90.6354 265.486 90.8161 263.575 91.259 261.312C91.4757 260.205 91.739 259.083 91.9925 257.952C92.2426 256.837 92.4823 255.716 92.6322 254.673L91.4444 254.502L90.2565 254.332C90.1213 255.274 89.9003 256.314 89.6507 257.427C89.4044 258.526 89.1287 259.701 88.9037 260.851C88.4633 263.102 88.1497 265.544 88.7349 267.521L89.8855 267.181ZM91.4444 254.502L92.6322 254.673C94.6908 240.305 97.6311 225.027 97.827 210.498L96.6271 210.482L95.4272 210.466C95.2341 224.79 92.3388 239.799 90.2565 254.332L91.4444 254.502ZM96.6271 210.482L97.827 210.498C97.8728 207.069 97.2804 203.686 96.6498 200.425C96.012 197.126 95.3406 193.972 95.1441 190.83L93.9465 190.905L92.7488 190.98C92.9574 194.315 93.6703 197.657 94.2935 200.88C94.9239 204.141 95.4694 207.308 95.4272 210.466L96.6271 210.482ZM93.9465 190.905L95.1442 190.83C95.0461 189.253 95.1097 187.627 95.1866 185.927C95.2625 184.249 95.3518 182.492 95.2841 180.751L94.085 180.798L92.8859 180.844C92.9489 182.464 92.8663 184.11 92.789 185.819C92.7126 187.508 92.6417 189.255 92.7488 190.979L93.9465 190.905ZM94.085 180.798L95.2841 180.751C95.1391 177.004 94.8113 173.242 95.5355 169.866L94.3622 169.614L93.1889 169.362C92.3835 173.117 92.7485 177.295 92.8859 180.844L94.085 180.798ZM94.3622 169.614L95.5355 169.866C97.564 160.412 99.4066 150.617 100.284 140.831L99.0893 140.724L97.8941 140.617C97.0293 150.257 95.2106 159.94 93.1889 169.362L94.3622 169.614ZM99.0893 140.724L100.284 140.831C101.449 127.871 102.142 114.533 101.866 101.586L100.667 101.612L99.467 101.637C99.7403 114.469 99.0533 127.713 97.8941 140.616L99.0893 140.724ZM100.667 101.612L101.866 101.586C101.668 92.3357 100.264 86.347 98.6998 81.4216C97.1198 76.4464 95.5012 72.8633 94.7124 68.0355L93.5281 68.229L92.3438 68.4225C93.1698 73.478 94.9247 77.4638 96.4124 82.1481C97.9158 86.882 99.2739 92.6432 99.467 101.638L100.667 101.612ZM93.5281 68.229L94.7124 68.0354C93.9168 63.1693 93.3861 57.9034 93.1477 53.2909C92.9078 48.6495 92.9692 44.764 93.3214 42.6159L92.1372 42.4218L90.953 42.2276C90.5564 44.6467 90.5098 48.7512 90.7509 53.4148C90.9935 58.1073 91.5327 63.4615 92.3439 68.4227L93.5281 68.229ZM92.1372 42.4218L93.3213 42.616C93.93 38.9054 94.5607 34.5305 94.9694 30.5349C95.374 26.5783 95.575 22.8716 95.275 20.5634L94.085 20.7181L92.895 20.8727C93.1547 22.8706 92.9879 26.3199 92.5818 30.2907C92.1797 34.2225 91.5568 38.5464 90.953 42.2275L92.1372 42.4218ZM94.085 20.7181L92.9143 20.9816C93.3141 22.7572 95.9296 38.2314 96.3705 42.0093L97.5624 41.8702L98.7543 41.7311C98.3052 37.8827 95.6767 22.3242 95.2557 20.4545L94.085 20.7181ZM97.5624 41.8702L96.3705 42.0089C97.4275 51.0897 98.1189 56.465 100.289 65.4517L101.455 65.17L102.622 64.8883C100.486 56.0431 99.8078 50.781 98.7544 41.7314L97.5624 41.8702ZM101.455 65.17L100.289 65.4516C101.224 69.3264 102.153 72.3841 103.142 75.536C104.131 78.6877 105.177 81.9239 106.364 86.1982L107.52 85.8771L108.677 85.556C107.476 81.2341 106.416 77.9525 105.432 74.8176C104.448 71.6828 103.539 68.6851 102.622 64.8884L101.455 65.17ZM107.52 85.8771L106.364 86.1983C106.94 88.2727 107.086 90.1826 106.553 92.0465L107.707 92.3762L108.861 92.7059C109.554 90.2797 109.326 87.8941 108.676 85.5559L107.52 85.8771ZM107.707 92.3762L106.553 92.0461C106.012 93.9369 105.657 95.3584 104.688 96.719L105.666 97.4151L106.643 98.1111C107.902 96.3434 108.357 94.4661 108.86 92.7063L107.707 92.3762ZM105.666 97.4151L104.689 96.7182C103.212 98.7892 102.223 101.873 101.915 104.267L103.105 104.42L104.295 104.574C104.568 102.454 105.455 99.7768 106.643 98.1119L105.666 97.4151ZM103.105 104.42L101.915 104.268C101.759 105.484 101.849 106.8 101.905 107.926C101.964 109.118 101.988 110.116 101.807 110.95L102.98 111.205L104.152 111.459C104.411 110.268 104.359 108.959 104.302 107.807C104.241 106.59 104.173 105.526 104.295 104.573L103.105 104.42ZM102.98 111.205L101.807 110.949C101.717 111.364 101.598 112.02 101.536 112.702C101.477 113.341 101.448 114.171 101.639 114.84L102.793 114.512L103.947 114.183C103.887 113.973 103.87 113.528 103.925 112.922C103.977 112.36 104.077 111.803 104.152 111.461L102.98 111.205ZM102.793 114.512L101.639 114.84C101.633 114.82 101.644 114.85 101.648 114.958C101.651 115.058 101.649 115.189 101.638 115.353C101.616 115.686 101.569 116.071 101.516 116.497C101.467 116.901 101.412 117.353 101.393 117.745C101.383 117.943 101.38 118.158 101.399 118.365C101.415 118.551 101.456 118.838 101.599 119.118L102.668 118.573L103.737 118.027C103.802 118.154 103.796 118.228 103.789 118.153C103.785 118.099 103.783 118.006 103.79 117.863C103.804 117.574 103.847 117.214 103.899 116.789C103.948 116.386 104.006 115.925 104.033 115.509C104.057 115.132 104.072 114.621 103.947 114.183L102.793 114.512ZM102.668 118.573L101.599 119.118C101.872 119.652 102.323 120.097 102.845 120.367C103.366 120.638 104.083 120.791 104.803 120.501L104.355 119.388L103.906 118.275C104.011 118.233 104.04 118.283 103.95 118.237C103.911 118.217 103.866 118.185 103.824 118.143C103.782 118.101 103.753 118.059 103.737 118.027L102.668 118.573ZM104.355 119.388L104.806 120.5C106.057 119.992 106.908 118.751 107.438 117.646C107.991 116.492 108.34 115.179 108.423 114.135L107.227 114.04L106.031 113.945C105.973 114.673 105.709 115.7 105.273 116.609C104.814 117.568 104.299 118.115 103.903 118.276L104.355 119.388ZM107.227 114.04L108.423 114.136C108.482 113.408 108.484 112.637 108.494 111.94C108.505 111.22 108.524 110.558 108.604 109.947L107.414 109.792L106.224 109.638C106.125 110.399 106.105 111.183 106.095 111.904C106.084 112.649 106.082 113.315 106.031 113.944L107.227 114.04ZM107.414 109.792L108.603 109.949C108.601 109.966 108.608 109.908 108.686 109.773C108.758 109.648 108.86 109.508 108.976 109.374C109.093 109.239 109.204 109.133 109.278 109.071C109.317 109.038 109.327 109.034 109.309 109.045C109.301 109.05 109.265 109.072 109.207 109.096C109.177 109.109 109.13 109.127 109.068 109.143C109.01 109.158 108.912 109.178 108.789 109.178V107.978V106.778C108.541 106.778 108.352 106.852 108.279 106.883C108.185 106.922 108.106 106.967 108.05 107.002C107.936 107.072 107.83 107.154 107.739 107.229C107.554 107.384 107.352 107.583 107.162 107.803C106.827 108.189 106.324 108.871 106.224 109.636L107.414 109.792ZM108.789 107.978V109.178C108.478 109.178 108.264 109.055 108.219 109.03C108.144 108.987 108.094 108.946 108.077 108.933C108.042 108.903 108.03 108.888 108.05 108.909C108.084 108.946 108.147 109.021 108.239 109.14C108.418 109.372 108.65 109.699 108.879 110.049C109.109 110.401 109.32 110.75 109.463 111.028C109.536 111.169 109.579 111.268 109.6 111.324C109.61 111.353 109.608 111.351 109.602 111.325C109.6 111.312 109.578 111.209 109.596 111.059L110.787 111.207L111.978 111.355C112.025 110.98 111.905 110.641 111.856 110.505C111.786 110.312 111.692 110.112 111.595 109.925C111.4 109.548 111.141 109.123 110.887 108.735C110.631 108.344 110.363 107.964 110.139 107.674C110.029 107.532 109.916 107.393 109.812 107.28C109.763 107.227 109.691 107.153 109.608 107.084C109.567 107.05 109.496 106.995 109.403 106.942C109.34 106.906 109.111 106.778 108.789 106.778V107.978ZM110.787 111.207L109.596 111.061C109.51 111.763 109.449 112.527 109.39 113.28C109.331 114.043 109.275 114.798 109.198 115.522C109.038 117.03 108.805 118.159 108.44 118.786L109.476 119.391L110.513 119.995C111.17 118.869 111.428 117.249 111.585 115.776C111.666 115.009 111.725 114.214 111.783 113.465C111.842 112.706 111.899 111.995 111.978 111.354L110.787 111.207ZM109.476 119.391L108.439 118.786C108.341 118.956 108.129 119.194 107.75 119.523C107.378 119.846 106.948 120.171 106.452 120.559C105.549 121.265 104.352 122.222 103.774 123.425L104.856 123.944L105.937 124.464C106.231 123.852 106.942 123.222 107.93 122.45C108.379 122.099 108.89 121.712 109.324 121.335C109.751 120.964 110.209 120.516 110.513 119.995L109.476 119.391ZM104.856 123.944L103.773 123.426C103.344 124.322 103.382 125.328 103.493 126.005C103.551 126.362 103.64 126.693 103.743 126.958C103.791 127.084 103.859 127.237 103.95 127.38C103.993 127.448 104.072 127.562 104.192 127.673C104.278 127.752 104.597 128.031 105.097 128.008L105.042 126.809L104.987 125.61C105.465 125.588 105.76 125.855 105.818 125.908C105.912 125.994 105.962 126.072 105.974 126.09C106.003 126.136 106.002 126.147 105.982 126.095C105.947 126.004 105.897 125.834 105.861 125.617C105.784 125.149 105.816 124.718 105.938 124.463L104.856 123.944ZM105.042 126.809L105.111 128.007C105.892 127.962 106.763 127.689 107.602 127.34C108.462 126.983 109.377 126.508 110.269 125.987C112.051 124.948 113.825 123.681 115 122.681L114.222 121.767L113.444 120.853C112.386 121.754 110.73 122.941 109.061 123.914C108.228 124.4 107.412 124.82 106.681 125.124C105.93 125.436 105.353 125.589 104.973 125.611L105.042 126.809ZM114.222 121.767L114.999 122.682C116.476 121.426 117.84 119.128 118.879 116.829C119.933 114.497 120.748 111.947 121.029 110.033L119.842 109.859L118.654 109.685C118.416 111.312 117.686 113.642 116.692 115.841C115.683 118.073 114.497 119.958 113.445 120.853L114.222 121.767ZM119.842 109.859L121.029 110.034C121.407 107.469 121.091 104.682 120.72 102.038C120.339 99.3274 119.903 96.7791 119.917 94.4378L118.717 94.4306L117.517 94.4235C117.502 96.9905 117.979 99.7822 118.343 102.372C118.716 105.028 118.977 107.5 118.655 109.684L119.842 109.859ZM118.717 94.4306H119.917C119.917 93.6409 119.988 92.7988 120.078 91.9126C120.167 91.0473 120.277 90.1131 120.34 89.2323L119.144 89.1466L117.947 89.061C117.887 89.8935 117.785 90.7473 117.691 91.6687C117.599 92.5692 117.517 93.5123 117.517 94.4306H118.717ZM77.7773 -75.2658C78.9692 -75.1266 78.9692 -75.1268 78.9693 -75.127C78.9693 -75.1272 78.9693 -75.1274 78.9693 -75.1277C78.9694 -75.1283 78.9695 -75.1289 78.9696 -75.1298C78.9698 -75.1315 78.97 -75.1338 78.9704 -75.1367C78.971 -75.1426 78.972 -75.1509 78.9732 -75.1616C78.9756 -75.183 78.979 -75.214 78.9833 -75.2541C78.9919 -75.3343 79.004 -75.4512 79.0185 -75.6011C79.0475 -75.9008 79.0861 -76.333 79.1249 -76.8693C79.2024 -77.9409 79.2814 -79.4329 79.2874 -81.1165C79.2991 -84.4402 79.0288 -88.6745 77.7965 -91.8718L76.6768 -91.4403L75.5571 -91.0087C76.6191 -88.2532 76.899 -84.4003 76.8874 -81.1249C76.8817 -79.509 76.8057 -78.0735 76.7311 -77.0425C76.6938 -76.5275 76.657 -76.1147 76.6297 -75.8322C76.616 -75.6909 76.6048 -75.5823 76.597 -75.51C76.5931 -75.4738 76.5901 -75.4466 76.5881 -75.429C76.5871 -75.4202 76.5864 -75.4137 76.5859 -75.4097C76.5857 -75.4077 76.5856 -75.4063 76.5855 -75.4055C76.5854 -75.4051 76.5854 -75.4049 76.5854 -75.4048C76.5854 -75.4047 76.5854 -75.4048 76.5854 -75.4048C76.5854 -75.4048 76.5854 -75.405 77.7773 -75.2658ZM76.6768 -91.4403L77.7965 -91.8719C75.8608 -96.8938 69.9278 -103.68 59.3618 -103.68V-102.48V-101.28C68.7488 -101.28 73.9062 -95.2918 75.5571 -91.0087L76.6768 -91.4403ZM59.3618 -102.48V-103.68H59.3512V-102.48V-101.28H59.3618V-102.48ZM59.3512 -102.48V-103.68H59.3405V-102.48V-101.28H59.3512V-102.48ZM59.3405 -102.48V-103.68C48.7718 -103.68 42.8415 -96.8937 40.9058 -91.8719L42.0255 -91.4403L43.1452 -91.0087C44.7962 -95.2919 49.9509 -101.28 59.3405 -101.28V-102.48ZM42.0255 -91.4403L40.9058 -91.8718C39.6735 -88.6746 39.4051 -84.4605 39.4189 -81.1557C39.4259 -79.4819 39.506 -77.9996 39.5843 -76.9353C39.6235 -76.4027 39.6624 -75.9734 39.6916 -75.6758C39.7062 -75.527 39.7184 -75.4109 39.7271 -75.3312C39.7314 -75.2914 39.7349 -75.2606 39.7373 -75.2393C39.7385 -75.2287 39.7395 -75.2204 39.7402 -75.2146C39.7405 -75.2117 39.7408 -75.2094 39.741 -75.2077C39.7411 -75.2069 39.7411 -75.2062 39.7412 -75.2056C39.7412 -75.2054 39.7413 -75.2051 39.7413 -75.205C39.7413 -75.2047 39.7413 -75.2045 40.933 -75.3457C42.1247 -75.4869 42.1247 -75.4868 42.1247 -75.4867C42.1247 -75.4867 42.1247 -75.4867 42.1247 -75.4867C42.1247 -75.4868 42.1247 -75.487 42.1246 -75.4874C42.1245 -75.4882 42.1244 -75.4896 42.1241 -75.4916C42.1237 -75.4955 42.1229 -75.5019 42.1219 -75.5106C42.1199 -75.5281 42.1169 -75.555 42.113 -75.5909C42.1052 -75.6627 42.0939 -75.7703 42.0801 -75.9104C42.0526 -76.1907 42.0155 -76.6003 41.9778 -77.1114C41.9025 -78.1347 41.8256 -79.56 41.8189 -81.1657C41.8053 -84.4199 42.0832 -88.2531 43.1452 -91.0087L42.0255 -91.4403ZM40.933 -75.3457C41.6914 -76.2757 41.6909 -76.2761 41.6904 -76.2765C41.6902 -76.2766 41.6897 -76.277 41.6894 -76.2773C41.6887 -76.2778 41.6881 -76.2784 41.6874 -76.279C41.686 -76.2801 41.6846 -76.2812 41.6831 -76.2824C41.6801 -76.2848 41.677 -76.2873 41.6736 -76.2899C41.6669 -76.2952 41.6594 -76.301 41.6511 -76.3073C41.6345 -76.3199 41.6147 -76.3345 41.5917 -76.3505C41.5461 -76.3823 41.4866 -76.421 41.4146 -76.4614C41.2745 -76.5402 41.066 -76.6376 40.8052 -76.6948C40.2206 -76.8229 39.4786 -76.7161 38.8582 -76.079L39.7179 -75.2418L40.5776 -74.4046C40.5897 -74.417 40.5556 -74.3798 40.4718 -74.3571C40.3936 -74.3359 40.3277 -74.3424 40.2914 -74.3504C40.26 -74.3573 40.2439 -74.3663 40.2388 -74.3692C40.2343 -74.3717 40.228 -74.3756 40.2186 -74.3821C40.2138 -74.3854 40.2079 -74.3897 40.2007 -74.3952C40.1971 -74.3979 40.1931 -74.401 40.1888 -74.4044C40.1866 -74.4061 40.1844 -74.4079 40.182 -74.4097C40.1808 -74.4107 40.1796 -74.4117 40.1784 -74.4127C40.1778 -74.4132 40.1772 -74.4137 40.1765 -74.4142C40.1762 -74.4144 40.1758 -74.4148 40.1756 -74.4149C40.1751 -74.4153 40.1746 -74.4157 40.933 -75.3457ZM39.7179 -75.2418L38.8585 -76.0793C38.1543 -75.3567 38.133 -74.3094 38.1946 -73.5988C38.2637 -72.7998 38.4892 -71.917 38.7421 -71.1106C38.9985 -70.2927 39.3024 -69.4939 39.5557 -68.8519C39.8275 -68.1632 40.0036 -67.7433 40.065 -67.5522L41.2075 -67.9193L42.3499 -68.2864C42.2568 -68.5762 42.0162 -69.1549 41.7882 -69.7328C41.5417 -70.3575 41.2627 -71.0933 41.0322 -71.8286C40.798 -72.5754 40.6325 -73.2643 40.5856 -73.8058C40.5311 -74.4358 40.6686 -74.498 40.5773 -74.4043L39.7179 -75.2418ZM41.2075 -67.9193L40.0653 -67.5513C40.065 -67.5522 40.0821 -67.4887 40.1025 -67.3061C40.1214 -67.1377 40.1366 -66.9352 40.1554 -66.6826C40.1911 -66.2007 40.237 -65.5686 40.3508 -64.9517C40.4622 -64.348 40.6584 -63.6365 41.0664 -63.0399C41.5093 -62.392 42.1989 -61.893 43.1547 -61.8223L43.2433 -63.019L43.3318 -64.2157C43.2071 -64.2249 43.1406 -64.2585 43.0475 -64.3945C42.9195 -64.5818 42.7998 -64.9056 42.711 -65.3871C42.6246 -65.8553 42.586 -66.3583 42.5488 -66.8602C42.531 -67.0995 42.5125 -67.3511 42.4876 -67.5736C42.4642 -67.7821 42.4272 -68.0466 42.3496 -68.2873L41.2075 -67.9193ZM43.2433 -63.019L42.089 -62.6908C42.901 -59.8346 44.8606 -56.0675 47.5189 -53.2155L48.3967 -54.0337L49.2745 -54.8519C46.8859 -57.4146 45.1097 -60.842 44.3975 -63.3471L43.2433 -63.019ZM71.1236 -54.5427L71.9799 -53.702C74.5097 -56.2786 75.941 -60.3295 76.6109 -62.6916L75.4564 -63.019L74.3019 -63.3464C73.6448 -61.0293 72.3422 -57.4966 70.2674 -55.3834L71.1236 -54.5427ZM75.4564 -63.019L75.5434 -61.8221C76.4995 -61.8917 77.1896 -62.3901 77.633 -63.038C78.0412 -63.6345 78.2375 -64.346 78.3489 -64.9497C78.4627 -65.5666 78.5085 -66.1989 78.5443 -66.6811C78.5631 -66.934 78.5782 -67.1367 78.5971 -67.3054C78.6176 -67.4881 78.6347 -67.5524 78.6347 -67.5522L77.4922 -67.9193L76.3497 -68.2864C76.2724 -68.0457 76.2354 -67.7814 76.2121 -67.5726C76.1871 -67.3498 76.1686 -67.0981 76.1509 -66.8587C76.1136 -66.3565 76.075 -65.8533 75.9887 -65.3851C75.8998 -64.9035 75.7802 -64.5802 75.6524 -64.3934C75.5598 -64.2581 75.4938 -64.2249 75.3693 -64.2158L75.4564 -63.019ZM77.4922 -67.9193L78.6344 -67.5513C78.7007 -67.757 78.8797 -68.2129 79.1404 -68.9122C79.3877 -69.5754 79.6839 -70.3953 79.9413 -71.225C80.1955 -72.0443 80.4274 -72.9219 80.5266 -73.6897C80.5761 -74.0721 80.5996 -74.477 80.5563 -74.8586C80.5152 -75.2199 80.3974 -75.7143 80.0266 -76.1139L79.1469 -75.2977L78.2673 -74.4816C78.1363 -74.6227 78.1563 -74.7227 78.1716 -74.5878C78.1846 -74.4732 78.183 -74.2804 78.1465 -73.9975C78.0737 -73.4348 77.8899 -72.7122 77.6491 -71.9361C77.4115 -71.1703 77.1335 -70.3994 76.8917 -69.7507C76.6633 -69.1382 76.4383 -68.5612 76.35 -68.2873L77.4922 -67.9193ZM79.1469 -75.2977L80.0282 -76.1122C79.7113 -76.4552 79.321 -76.6857 78.8811 -76.7687C78.4559 -76.849 78.0806 -76.7734 77.8045 -76.672C77.5318 -76.5718 77.3189 -76.4335 77.1819 -76.3312C77.1107 -76.278 77.0526 -76.229 77.0094 -76.1903C76.9876 -76.1709 76.9691 -76.1536 76.9542 -76.1392C76.9467 -76.132 76.9401 -76.1255 76.9343 -76.1198C76.9314 -76.1169 76.9287 -76.1142 76.9262 -76.1118C76.925 -76.1105 76.9238 -76.1093 76.9227 -76.1082C76.9222 -76.1076 76.9216 -76.1071 76.9211 -76.1065C76.9208 -76.1063 76.9204 -76.1059 76.9203 -76.1057C76.9199 -76.1053 76.9195 -76.1049 77.7773 -75.2658C78.6351 -74.4266 78.6347 -74.4262 78.6343 -74.4258C78.6342 -74.4257 78.6339 -74.4253 78.6336 -74.4251C78.6331 -74.4246 78.6326 -74.4241 78.6322 -74.4236C78.6312 -74.4227 78.6303 -74.4217 78.6294 -74.4208C78.6276 -74.4191 78.626 -74.4174 78.6245 -74.4159C78.6215 -74.4129 78.6189 -74.4105 78.6169 -74.4085C78.6128 -74.4046 78.6104 -74.4024 78.6096 -74.4017C78.6082 -74.4005 78.6115 -74.4034 78.6179 -74.4082C78.6361 -74.4218 78.6437 -74.4234 78.6321 -74.4192C78.6172 -74.4137 78.5437 -74.39 78.4362 -74.4103C78.314 -74.4334 78.2576 -74.4921 78.2657 -74.4833L79.1469 -75.2977ZM48.3967 -54.0337L47.5184 -53.2161C47.5413 -53.1915 47.5644 -53.167 47.588 -53.1425L48.4539 -53.9733L49.3198 -54.8041C49.3046 -54.8198 49.2897 -54.8356 49.275 -54.8514L48.3967 -54.0337ZM48.4539 -53.9733L47.2544 -53.9389C47.3551 -50.4265 47.5335 -47.5504 46.4517 -45.137L47.5467 -44.6461L48.6417 -44.1553C50.0022 -47.1901 49.7472 -50.7392 49.6534 -54.0077L48.4539 -53.9733ZM70.6908 -54.1215L71.5074 -53.2422C71.6697 -53.3929 71.8271 -53.5463 71.98 -53.7021L71.1236 -54.5427L70.2673 -55.3833C70.1395 -55.2532 70.0086 -55.1256 69.8742 -55.0009L70.6908 -54.1215ZM71.8484 -44.6461L72.945 -45.1335C71.7389 -47.8471 71.7874 -50.2741 71.8863 -53.938L70.6868 -53.9704L69.4872 -54.0028C69.3901 -50.4062 69.2931 -47.4409 70.7518 -44.1588L71.8484 -44.6461ZM70.6868 -53.9704L71.8863 -53.938L71.8904 -54.0892L70.6908 -54.1215L69.4913 -54.1539L69.4872 -54.0027L70.6868 -53.9704Z" fill="#EAEAEA" mask="url(#path-1-outside-1_25_19795)"/>
<path d="M25.8243 78.2456C33.4372 92.5095 50.4271 119.94 51.5996 147.975C52.0685 159.185 51.461 190.868 40.2667 196.794C46.8511 183.188 49.0841 166.1 47.2881 150.927C44.8739 130.518 30.9724 102.75 25.1128 81.0941C25.1368 80.2201 25.31 78.8478 25.8243 78.2456Z" fill="#C7C7C7"/>
<path d="M23.9589 86.0528C27.9585 97.8572 36.3069 117.805 38.8703 137.718C39.747 144.523 37.4874 154.918 35.6488 161.111C34.2471 165.489 31.2494 164.607 30.7991 162.126C28.6753 152.014 23.847 145.166 22.4667 135.818C20.1138 119.902 20.9425 100.527 23.9589 86.0528Z" fill="#C7C7C7"/>
<path d="M43.3283 105.313C47.3519 108.889 52.9424 111.237 54.5065 115.039C56.3185 119.444 54.9542 132.701 53.3901 137.172C51.3756 122.751 45.5613 111.684 43.3283 105.313Z" fill="#C7C7C7"/>
<path d="M41.5218 137.185C41.5218 137.185 51.2265 175.809 39.3714 174.794C29.9705 173.987 41.5218 158.137 41.5218 137.185Z" fill="#C7C7C7"/>
<path d="M21.6437 143.364C20.3753 136.386 30.2905 163.176 30.6103 168.705C30.8607 173.03 27.4793 178.65 27.2848 175.332C26.8584 168.063 22.7175 151.96 21.6437 143.364Z" fill="#C7C7C7"/>
<path d="M94.0421 78.2456C86.4291 92.5095 69.4392 119.94 68.2668 147.975C67.7978 159.185 68.4053 190.868 79.5996 196.794C73.0152 183.188 70.7822 166.1 72.5782 150.927C74.9924 130.518 88.8939 102.75 94.7535 81.0941C94.7295 80.2201 94.5564 78.8478 94.0421 78.2456Z" fill="#C7C7C7"/>
<path d="M95.91 86.0528C91.9104 97.8572 83.562 117.805 81.0012 137.718C80.1246 144.523 82.3842 154.918 84.2228 161.111C85.6244 165.489 88.6222 164.607 89.0725 162.126C91.1962 152.014 96.0246 145.166 97.4049 135.818C99.7525 119.902 98.9238 100.527 95.91 86.0528Z" fill="#C7C7C7"/>
<path d="M76.5408 105.313C72.5171 108.889 66.9266 111.237 65.3625 115.039C63.5505 119.444 64.9148 132.701 66.479 137.172C68.4935 122.751 74.3051 111.684 76.5408 105.313Z" fill="#C7C7C7"/>
<path d="M78.345 137.185C78.345 137.185 68.6403 175.809 80.4954 174.794C89.8964 173.987 78.345 158.137 78.345 137.185Z" fill="#C7C7C7"/>
<path d="M98.2231 143.364C99.4915 136.386 89.5763 163.176 89.2565 168.705C89.006 173.03 92.3875 178.65 92.582 175.332C93.0083 168.063 97.1492 151.96 98.2231 143.364Z" fill="#C7C7C7"/>
<path d="M26.3656 -3.51172C28.3002 -0.700499 28.9797 2.50242 29.0196 5.89187C29.0863 11.5436 26.9785 18.0641 26.3496 23.8064C22.4726 17.318 25.2012 8.14352 26.3656 -3.51172Z" fill="#C7C7C7"/>
<path d="M93.5014 -3.51172C91.5669 -0.700499 90.8874 2.50242 90.8475 5.89187C90.7808 11.5436 92.8886 18.0641 93.5174 23.8064C97.3945 17.318 94.6686 8.14352 93.5014 -3.51172Z" fill="#C7C7C7"/>
<path d="M27.6975 -19.6621C35.1905 -24.1574 48.2208 -25.6576 55.0476 -23.1581C60.0439 -16.6643 58.7702 8.91377 58.7702 8.91377C58.7702 8.91377 41.7296 11.9462 35.8567 7.81327C30.4315 3.99481 27.6975 -8.33992 27.6975 -19.6621Z" fill="#C7C7C7"/>
<path d="M92.169 -19.6621C84.676 -24.1574 71.6458 -25.6576 64.8189 -23.1581C59.8227 -16.6643 61.0964 8.91377 61.0964 8.91377C61.0964 8.91377 78.1369 11.9462 84.0098 7.81327C89.4351 3.99481 92.169 -8.33992 92.169 -19.6621Z" fill="#C7C7C7"/>
<path d="M7.9789 34.452C16.3966 42.1262 4.81061 58.2341 4.49085 88.4754C4.08849 88.8591 3.39035 88.7285 2.99598 88.51C2.2552 69.2019 3.02795 52.2759 7.9789 34.452Z" fill="#C7C7C7"/>
<path d="M22.3791 32.3785C22.2219 37.8917 21.8222 41.4197 20.9615 46.4C18.8298 58.7107 13.3032 75.9831 11.1156 88.8961C10.6785 89.1146 9.7619 88.9387 9.49544 88.563C13.1647 69.7664 14.5157 53.6212 17.9691 42.4616C19.4027 37.8198 21.2759 35.8426 22.3791 32.3785Z" fill="#C7C7C7"/>
<path d="M19.8633 34.8194C19.0932 36.2903 17.6277 39.0322 16.6044 42.7574C13.8518 52.7739 10.6249 71.3093 7.78439 88.4351C7.34738 88.7842 6.64924 88.6536 6.28951 88.3658C9.07675 67.4642 10.2972 50.0986 12.7993 41.8381C13.8998 38.2062 17.8968 36.7859 19.8633 34.8194Z" fill="#C7C7C7"/>
<path d="M111.888 34.452C103.47 42.1262 115.056 58.2341 115.373 88.4754C115.776 88.8591 116.474 88.7285 116.868 88.51C117.612 69.2019 116.839 52.2759 111.888 34.452Z" fill="#C7C7C7"/>
<path d="M97.4876 32.3785C97.6448 37.8917 98.0445 41.4197 98.9052 46.4C101.037 58.7107 106.563 75.9831 108.751 88.8961C109.188 89.1146 110.105 88.9387 110.371 88.563C106.702 69.7664 105.351 53.6212 101.898 42.4616C100.464 37.8198 98.5908 35.8426 97.4876 32.3785Z" fill="#C7C7C7"/>
<path d="M100.003 34.8194C100.774 36.2903 102.239 39.0322 103.262 42.7574C106.015 52.7739 109.242 71.3093 112.082 88.4351C112.519 88.7842 113.218 88.6536 113.577 88.3658C110.79 67.4642 109.57 50.0986 107.067 41.8381C105.967 38.2062 101.97 36.7859 100.003 34.8194Z" fill="#C7C7C7"/>
<path d="M24.4468 -16.39C25.097 -2.72029 21.2332 23.2309 16.0132 33.671C14.5289 34.6623 10.8783 34.585 9.88709 33.5937C7.90724 25.6717 6.84937 5.61478 8.71464 -1.84628C14.3557 -2.49645 18.6911 -7.55665 24.4468 -16.39Z" fill="#C7C7C7"/>
<path d="M95.4227 -16.39C94.7725 -2.72029 98.6363 23.2309 103.856 33.671C105.341 34.6623 108.991 34.585 109.982 33.5937C111.962 25.6717 113.02 5.61478 111.155 -1.84628C105.511 -2.49645 101.178 -7.55665 95.4227 -16.39Z" fill="#C7C7C7"/>
<path d="M58.7703 11.9041C58.7703 11.9041 58.7703 20.5349 58.7703 22.0857C53.0786 22.4188 46.2304 24.4733 41.9642 26.9354C41.9642 24.8916 41.9642 12.6315 41.9642 12.6315L58.7703 11.9041Z" fill="#3179FF"/>
<path d="M58.7703 24.6596C52.5829 24.998 45.8973 27.151 41.9642 29.5972C41.9642 31.4145 41.9642 40.0214 41.9642 40.0214L58.7703 39.5977C58.7703 39.5977 58.7703 26.1838 58.7703 24.6596Z" fill="#3179FF"/>
<path d="M58.7703 42.1985H41.9642V53.025H58.7703V42.1985Z" fill="#3179FF"/>
<path d="M42.1292 55.6202C44.213 55.6894 58.7701 55.6202 58.7701 55.6202C58.7701 55.6202 58.7701 107.133 58.7701 107.658C56.3319 107.538 52.2203 105.894 50.1872 104.431C50.0619 104.069 42.1292 75.7011 42.1292 55.6202Z" fill="#3179FF"/>
<path d="M27.5084 73.2579C30.1944 79.4373 40.7545 96.3286 47.2323 102.01C40.1469 80.5032 41.6285 58.2772 38.1138 52.9692C36.0061 49.7849 32.5367 49.0788 29.8427 45.3456C29.4483 55.3967 28.156 68.2111 27.5084 73.2579Z" fill="#3179FF"/>
<path d="M29.8401 15.6637C31.9931 21.923 39.8752 23.4605 39.8752 23.4605V30.1115C39.8752 30.1115 33.8264 28.7232 31.6733 26.0026C29.976 23.8576 29.2538 20.5534 29.8401 15.6637Z" fill="#3179FF"/>
<path d="M30.7355 5.54321C32.8886 11.8025 39.878 12.7218 39.878 12.7218V20.5906C39.878 20.5906 34.7299 19.4474 32.5289 16.3857C30.8208 14.0115 30.5677 11.3708 30.7355 5.54321Z" fill="#3179FF"/>
<path d="M28.2307 24.3931C30.5143 31.3772 39.8779 32.8348 39.8779 32.8348V39.4858C39.8779 39.4858 34.1409 38.228 31.6761 35.7792C29.8934 34.0072 27.6924 30.1701 28.2307 24.3931Z" fill="#3179FF"/>
<path d="M27.4231 32.9892C30.1091 40.7807 39.8777 42.3715 39.8777 42.3715V48.6202C39.8777 48.6202 34.0048 46.9574 31.6759 44.5112C30.1411 42.9018 28.0946 40.1066 27.4231 32.9892Z" fill="#3179FF"/>
<path d="M61.0962 11.9041C61.0962 11.9041 61.0962 20.5349 61.0962 22.0857C66.7879 22.4188 73.6361 24.4733 77.9023 26.9354C77.9023 24.8916 77.9023 12.6315 77.9023 12.6315L61.0962 11.9041Z" fill="#3179FF"/>
<path d="M61.0962 24.6596C67.2836 24.998 73.9692 27.151 77.9023 29.5972C77.9023 31.4145 77.9023 40.0214 77.9023 40.0214L61.0962 39.5977C61.0962 39.5977 61.0962 26.1838 61.0962 24.6596Z" fill="#3179FF"/>
<path d="M77.9023 42.1985H61.0962V53.025H77.9023V42.1985Z" fill="#3179FF"/>
<path d="M77.737 55.6202C75.6533 55.6894 61.0962 55.6202 61.0962 55.6202C61.0962 55.6202 61.0962 107.133 61.0962 107.658C63.5344 107.538 67.646 105.894 69.6791 104.431C69.8043 104.069 77.737 75.7011 77.737 55.6202Z" fill="#3179FF"/>
<path d="M92.3609 73.2579C89.6749 79.4373 79.1148 96.3286 72.637 102.01C79.7224 80.5032 78.2408 58.2772 81.7555 52.9692C83.8633 49.7849 87.3326 49.0788 90.0266 45.3456C90.4183 55.3967 91.7134 68.2111 92.3609 73.2579Z" fill="#3179FF"/>
<path d="M90.0265 15.6637C87.8735 21.923 79.9914 23.4605 79.9914 23.4605V30.1115C79.9914 30.1115 86.0402 28.7232 88.1932 26.0026C89.8906 23.8576 90.6127 20.5534 90.0265 15.6637Z" fill="#3179FF"/>
<path d="M89.1313 5.54321C86.9782 11.8025 79.9888 12.7218 79.9888 12.7218V20.5906C79.9888 20.5906 85.1369 19.4474 87.3379 16.3857C89.046 14.0115 89.2991 11.3708 89.1313 5.54321Z" fill="#3179FF"/>
<path d="M91.6386 24.3931C89.355 31.3772 79.9914 32.8348 79.9914 32.8348V39.4858C79.9914 39.4858 85.7284 38.228 88.1932 35.7792C89.9732 34.0072 92.1742 30.1701 91.6386 24.3931Z" fill="#3179FF"/>
<path d="M92.4434 32.9892C89.7575 40.7807 79.9888 42.3715 79.9888 42.3715V48.6202C79.9888 48.6202 85.8617 46.9574 88.1906 44.5112C89.7281 42.9018 91.7719 40.1066 92.4434 32.9892Z" fill="#3179FF"/>
</g>
<defs>
<clipPath id="clip0_25_19795">
<rect width="120" height="120" fill="white"/>
</clipPath>
</defs>
</svg>
