<svg width="120" height="120" viewBox="0 0 120 120" fill="none" xmlns="http://www.w3.org/2000/svg">
<g clip-path="url(#clip0_25_19793)">
<rect width="120" height="398.48" transform="translate(0 -103.2)" fill="#EAEAEA"/>
<mask id="path-1-outside-1_25_19793" maskUnits="userSpaceOnUse" x="-2" y="-105.2" width="124" height="402" fill="black">
<rect fill="white" x="-2" y="-105.2" width="124" height="402"/>
<path d="M118.699 83.8035C118.765 85.3064 119.253 86.9158 119.144 88.4267C119.021 90.1401 118.717 92.0027 118.717 93.7107C118.688 98.619 120.542 104.391 119.842 109.139C119.322 112.68 116.751 118.897 114.222 121.048C111.989 122.947 107.363 125.956 105.042 126.089C104.869 126.097 104.304 124.376 104.856 123.225C105.727 121.41 108.671 120.051 109.476 118.671C110.499 116.917 110.457 113.173 110.787 110.487C110.854 109.952 108.975 107.258 108.789 107.258C108.599 107.258 107.518 108.281 107.414 109.072C107.235 110.445 107.336 111.964 107.227 113.32C107.086 115.092 106.001 117.999 104.355 118.668C103.739 118.916 102.98 118.463 102.668 117.853C102.356 117.242 103.044 114.671 102.793 113.792C102.543 112.912 102.814 111.242 102.98 110.485C103.419 108.46 102.828 105.87 103.105 103.701C103.395 101.444 104.333 98.5631 105.666 96.6951C106.779 95.131 107.185 93.4816 107.707 91.6562C108.32 89.5112 108.133 87.3635 107.52 85.1571C105.133 76.5609 103.307 72.1216 101.455 64.45C99.3025 55.5341 98.6176 50.2154 97.5624 41.1502C97.1174 37.3371 94.4954 21.8207 94.085 19.9981C94.6446 24.3042 93.3496 34.31 92.1372 41.7018C91.3884 46.269 91.9213 57.6818 93.5281 67.5091C95.1429 77.3923 100.275 82.647 100.667 100.892C100.941 113.781 100.251 127.072 99.0893 140.004C98.2179 149.717 96.3873 159.456 94.3622 168.894C93.5974 172.46 93.9438 176.43 94.085 180.078C94.2156 183.438 93.7413 186.883 93.9465 190.185C94.3515 196.663 96.7151 203.175 96.6271 209.762C96.4326 224.189 93.5148 239.332 91.4444 253.782C90.8741 257.753 88.8996 263.13 89.8855 266.461C90.7649 269.437 94.117 272.728 95.8277 275.832C96.9869 277.94 99.966 279.403 101.964 280.754C103.196 281.586 104.291 282.705 105.442 283.619C105.94 284.016 107.656 285.031 108.173 285.801C108.89 286.87 108.384 287.36 108.242 287.376C108.959 288.029 108.941 289.193 108.322 289.268C108.709 290.315 108.12 290.928 107.48 290.808C107.909 291.671 106.993 292.58 106.135 292.308C105.647 294.091 103.166 293.72 101.922 293.081C101.722 295.119 99.0067 295.431 97.5091 295.207C95.7505 294.943 94.0078 294.341 92.5129 293.185C91.876 292.689 91.042 291.24 90.6716 290.928C89.5018 289.942 87.7831 289.457 86.6107 288.402C85.5448 287.442 85.201 285.814 84.4896 284.756C83.7781 283.693 82.2193 282.484 80.8656 282.268C78.8831 281.953 76.5782 281.244 75.6456 279.347C74.7343 277.498 75.0913 274.825 75.555 272.792C75.8881 271.337 76.5436 269.754 76.5196 268.294C76.5116 267.799 76.1225 266.504 76.3277 265.105C76.5569 263.556 77.327 262.387 77.5481 261.214C77.8913 259.395 77.9147 257.494 77.9376 255.634L77.9398 255.451C78.0038 250.105 76.4023 244.531 75.4244 239.292C74.1454 232.457 72.6931 225.505 72.3867 218.59C72.1948 214.252 72.3334 209.898 72.821 205.555C73.0848 203.207 73.6364 200.729 73.3593 198.416C72.5812 191.909 68.8613 185.58 67.9554 178.983C67.076 172.593 68.2351 166.035 67.6569 159.587C66.9961 152.195 65.8529 144.776 64.7018 137.427C64.0303 133.145 63.3348 128.855 62.3755 124.626C62.0451 123.169 61.5948 117.226 60.5716 116.382C60.5236 116.342 60.2118 116.478 59.9081 116.483C59.6229 116.491 59.3458 116.366 59.2979 116.408C58.3066 117.293 57.843 123.193 57.5179 124.626C56.5559 128.855 55.8631 133.145 55.1916 137.427L55.1678 137.58C54.0243 144.882 52.8663 152.278 52.2365 159.587C51.6823 166.008 52.8147 172.595 51.9381 178.983C51.0321 185.58 47.3122 191.909 46.5341 198.416C46.257 200.729 46.8086 203.21 47.0724 205.555C47.5574 209.898 47.6986 214.252 47.5067 218.59C47.2003 225.505 45.7454 232.46 44.469 239.292C43.4911 244.531 41.8896 250.105 41.9536 255.451L41.9546 255.548C41.9755 257.436 41.9969 259.367 42.3453 261.214C42.5664 262.387 43.3365 263.559 43.5657 265.105C43.7709 266.504 43.3818 267.796 43.3738 268.294C43.3499 269.754 43.9867 271.327 44.3384 272.792C44.8154 274.793 45.1059 277.434 44.2478 279.347C43.3632 281.316 40.8904 281.977 39.0278 282.268C37.6768 282.481 36.118 283.696 35.4038 284.756C34.6924 285.814 34.3486 287.442 33.2827 288.402C32.1103 289.457 30.3916 289.942 29.2218 290.928C28.8514 291.242 28.0174 292.692 27.3805 293.185C25.8856 294.344 24.1856 294.885 22.3843 295.207C20.8734 295.476 18.1581 295.05 17.9716 293.081C16.7379 293.71 14.2357 294.099 13.7588 292.308C12.9007 292.58 11.9841 291.671 12.4131 290.808C11.7736 290.928 11.1847 290.315 11.5711 289.268C10.9529 289.193 10.9342 288.029 11.651 287.376C11.5098 287.36 11.0035 286.87 11.7203 285.801C12.2372 285.031 13.9533 284.016 14.4516 283.619C15.6 282.705 16.6952 281.588 17.929 280.754C19.8662 279.443 22.9412 278.004 24.0657 275.832C25.7418 272.598 29.1152 269.445 30.0079 266.461C31.0098 263.109 29.022 257.777 28.4491 253.782C26.3786 239.324 23.4795 224.175 23.2663 209.762C23.1704 203.188 25.5446 196.657 25.9469 190.185C26.1521 186.883 25.6645 183.446 25.8084 180.078C25.9656 176.414 26.296 172.457 25.5312 168.894C23.5061 159.459 21.6781 149.714 20.8041 140.004C19.6423 127.078 18.5179 113.773 19.2267 100.892C20.1166 84.7201 24.8118 77.435 26.3653 67.5091C27.9135 57.6312 28.8994 46.0772 27.7562 41.7018C26.0375 35.1254 24.3508 24.7865 24.3961 21.3544C23.7246 26.1135 22.8533 37.7421 22.4376 41.1502C21.3397 50.1381 20.3325 56.4001 18.5445 63.6453C16.3435 72.5613 15.3496 76.513 12.8821 85.1571C12.2479 87.3795 12.1067 91.5363 12.6956 93.6681C13.1965 95.4827 16.6046 101.041 16.8951 103.298C17.1749 105.465 16.5806 108.057 17.0203 110.082C17.1829 110.839 17.4573 112.51 17.2068 113.389C16.9564 114.266 17.6438 116.84 17.3321 117.45C17.0203 118.06 16.9564 118.463 15.6453 118.263C13.9746 118.01 12.9141 114.594 12.7728 112.915C12.6609 111.564 12.7648 110.04 12.5863 108.667C12.4824 107.876 11.3979 106.853 11.2113 106.853C11.0248 106.853 9.14623 109.547 9.21284 110.082C9.54326 112.784 9.52194 116.512 10.5239 118.266C11.3046 119.633 14.273 121.002 15.1444 122.82C15.6986 123.973 15.1337 125.695 14.9579 125.684C12.6503 125.551 8.01375 122.545 5.77809 120.642C3.25199 118.492 0.680593 112.275 0.158319 108.734C-0.542487 103.983 1.31212 100.628 1.28281 95.7172C1.27215 94.0092 0.968377 92.1465 0.845803 90.4332C0.739216 88.9223 1.22418 87.3129 1.2908 85.81C1.5999 78.8978 1.53329 75.5164 1.69849 68.3618C1.87436 60.7568 1.38406 57.4553 2.59648 50.0768C3.16672 46.6048 4.54435 43.0848 5.20519 39.6367C7.18237 29.3164 6.17246 3.33331 6.18312 -7.36798C6.19112 -14.44 7.47282 -22.6045 11.4032 -28.5894C14.1558 -32.7809 19.3279 -35.2564 24.1243 -36.3222C27.9508 -37.4227 31.7559 -38.6005 35.5291 -39.8715C38.7666 -40.9614 46.257 -42.4936 47.5467 -45.3661C48.7678 -48.0902 48.5512 -51.3028 48.4539 -54.6932C48.4345 -54.7134 48.4155 -54.7335 48.3967 -54.7537C45.8733 -57.461 44.0054 -61.0583 43.2433 -63.7389C41.0822 -63.8988 41.5166 -67.68 41.2075 -68.6393C40.8984 -69.6012 38.4922 -74.704 39.7179 -75.9618C40.3121 -76.572 40.933 -76.0657 40.933 -76.0657C40.933 -76.0657 39.7312 -86.2074 42.0255 -92.1602C43.8188 -96.8128 49.3613 -103.2 59.3405 -103.2H59.3512H59.3618C69.3383 -103.2 74.8835 -96.8128 76.6768 -92.1602C78.9711 -86.2074 77.7773 -75.9857 77.7773 -75.9857C77.7773 -75.9857 78.4968 -76.7212 79.1469 -76.0177C80.1062 -74.9838 77.8013 -69.5985 77.4922 -68.6393C77.1831 -67.6773 77.6174 -63.8962 75.4564 -63.7389C74.7929 -61.3994 73.4259 -57.6076 71.1236 -55.2626C70.9833 -55.1197 70.8391 -54.9792 70.6908 -54.8415L70.6868 -54.6903C70.5888 -51.0601 70.516 -48.364 71.8484 -45.3661C73.1434 -42.4456 80.8896 -40.9481 84.1618 -39.8715C88.0336 -38.5978 91.94 -37.4201 95.865 -36.3195C100.661 -35.251 105.834 -32.7756 108.586 -28.5867C112.519 -22.6019 113.798 -14.4347 113.806 -7.36531C113.817 3.33598 112.807 29.3164 114.784 39.6393C115.442 43.0901 116.823 46.6101 117.393 50.0795C118.608 57.4579 118.115 61.5642 118.291 69.1692C118.456 76.3264 118.389 76.8913 118.699 83.8035Z"/>
</mask>
<path d="M118.699 83.8035C118.765 85.3064 119.253 86.9158 119.144 88.4267C119.021 90.1401 118.717 92.0027 118.717 93.7107C118.688 98.619 120.542 104.391 119.842 109.139C119.322 112.68 116.751 118.897 114.222 121.048C111.989 122.947 107.363 125.956 105.042 126.089C104.869 126.097 104.304 124.376 104.856 123.225C105.727 121.41 108.671 120.051 109.476 118.671C110.499 116.917 110.457 113.173 110.787 110.487C110.854 109.952 108.975 107.258 108.789 107.258C108.599 107.258 107.518 108.281 107.414 109.072C107.235 110.445 107.336 111.964 107.227 113.32C107.086 115.092 106.001 117.999 104.355 118.668C103.739 118.916 102.98 118.463 102.668 117.853C102.356 117.242 103.044 114.671 102.793 113.792C102.543 112.912 102.814 111.242 102.98 110.485C103.419 108.46 102.828 105.87 103.105 103.701C103.395 101.444 104.333 98.5631 105.666 96.6951C106.779 95.131 107.185 93.4816 107.707 91.6562C108.32 89.5112 108.133 87.3635 107.52 85.1571C105.133 76.5609 103.307 72.1216 101.455 64.45C99.3025 55.5341 98.6176 50.2154 97.5624 41.1502C97.1174 37.3371 94.4954 21.8207 94.085 19.9981C94.6446 24.3042 93.3496 34.31 92.1372 41.7018C91.3884 46.269 91.9213 57.6818 93.5281 67.5091C95.1429 77.3923 100.275 82.647 100.667 100.892C100.941 113.781 100.251 127.072 99.0893 140.004C98.2179 149.717 96.3873 159.456 94.3622 168.894C93.5974 172.46 93.9438 176.43 94.085 180.078C94.2156 183.438 93.7413 186.883 93.9465 190.185C94.3515 196.663 96.7151 203.175 96.6271 209.762C96.4326 224.189 93.5148 239.332 91.4444 253.782C90.8741 257.753 88.8996 263.13 89.8855 266.461C90.7649 269.437 94.117 272.728 95.8277 275.832C96.9869 277.94 99.966 279.403 101.964 280.754C103.196 281.586 104.291 282.705 105.442 283.619C105.94 284.016 107.656 285.031 108.173 285.801C108.89 286.87 108.384 287.36 108.242 287.376C108.959 288.029 108.941 289.193 108.322 289.268C108.709 290.315 108.12 290.928 107.48 290.808C107.909 291.671 106.993 292.58 106.135 292.308C105.647 294.091 103.166 293.72 101.922 293.081C101.722 295.119 99.0067 295.431 97.5091 295.207C95.7505 294.943 94.0078 294.341 92.5129 293.185C91.876 292.689 91.042 291.24 90.6716 290.928C89.5018 289.942 87.7831 289.457 86.6107 288.402C85.5448 287.442 85.201 285.814 84.4896 284.756C83.7781 283.693 82.2193 282.484 80.8656 282.268C78.8831 281.953 76.5782 281.244 75.6456 279.347C74.7343 277.498 75.0913 274.825 75.555 272.792C75.8881 271.337 76.5436 269.754 76.5196 268.294C76.5116 267.799 76.1225 266.504 76.3277 265.105C76.5569 263.556 77.327 262.387 77.5481 261.214C77.8913 259.395 77.9147 257.494 77.9376 255.634L77.9398 255.451C78.0038 250.105 76.4023 244.531 75.4244 239.292C74.1454 232.457 72.6931 225.505 72.3867 218.59C72.1948 214.252 72.3334 209.898 72.821 205.555C73.0848 203.207 73.6364 200.729 73.3593 198.416C72.5812 191.909 68.8613 185.58 67.9554 178.983C67.076 172.593 68.2351 166.035 67.6569 159.587C66.9961 152.195 65.8529 144.776 64.7018 137.427C64.0303 133.145 63.3348 128.855 62.3755 124.626C62.0451 123.169 61.5948 117.226 60.5716 116.382C60.5236 116.342 60.2118 116.478 59.9081 116.483C59.6229 116.491 59.3458 116.366 59.2979 116.408C58.3066 117.293 57.843 123.193 57.5179 124.626C56.5559 128.855 55.8631 133.145 55.1916 137.427L55.1678 137.58C54.0243 144.882 52.8663 152.278 52.2365 159.587C51.6823 166.008 52.8147 172.595 51.9381 178.983C51.0321 185.58 47.3122 191.909 46.5341 198.416C46.257 200.729 46.8086 203.21 47.0724 205.555C47.5574 209.898 47.6986 214.252 47.5067 218.59C47.2003 225.505 45.7454 232.46 44.469 239.292C43.4911 244.531 41.8896 250.105 41.9536 255.451L41.9546 255.548C41.9755 257.436 41.9969 259.367 42.3453 261.214C42.5664 262.387 43.3365 263.559 43.5657 265.105C43.7709 266.504 43.3818 267.796 43.3738 268.294C43.3499 269.754 43.9867 271.327 44.3384 272.792C44.8154 274.793 45.1059 277.434 44.2478 279.347C43.3632 281.316 40.8904 281.977 39.0278 282.268C37.6768 282.481 36.118 283.696 35.4038 284.756C34.6924 285.814 34.3486 287.442 33.2827 288.402C32.1103 289.457 30.3916 289.942 29.2218 290.928C28.8514 291.242 28.0174 292.692 27.3805 293.185C25.8856 294.344 24.1856 294.885 22.3843 295.207C20.8734 295.476 18.1581 295.05 17.9716 293.081C16.7379 293.71 14.2357 294.099 13.7588 292.308C12.9007 292.58 11.9841 291.671 12.4131 290.808C11.7736 290.928 11.1847 290.315 11.5711 289.268C10.9529 289.193 10.9342 288.029 11.651 287.376C11.5098 287.36 11.0035 286.87 11.7203 285.801C12.2372 285.031 13.9533 284.016 14.4516 283.619C15.6 282.705 16.6952 281.588 17.929 280.754C19.8662 279.443 22.9412 278.004 24.0657 275.832C25.7418 272.598 29.1152 269.445 30.0079 266.461C31.0098 263.109 29.022 257.777 28.4491 253.782C26.3786 239.324 23.4795 224.175 23.2663 209.762C23.1704 203.188 25.5446 196.657 25.9469 190.185C26.1521 186.883 25.6645 183.446 25.8084 180.078C25.9656 176.414 26.296 172.457 25.5312 168.894C23.5061 159.459 21.6781 149.714 20.8041 140.004C19.6423 127.078 18.5179 113.773 19.2267 100.892C20.1166 84.7201 24.8118 77.435 26.3653 67.5091C27.9135 57.6312 28.8994 46.0772 27.7562 41.7018C26.0375 35.1254 24.3508 24.7865 24.3961 21.3544C23.7246 26.1135 22.8533 37.7421 22.4376 41.1502C21.3397 50.1381 20.3325 56.4001 18.5445 63.6453C16.3435 72.5613 15.3496 76.513 12.8821 85.1571C12.2479 87.3795 12.1067 91.5363 12.6956 93.6681C13.1965 95.4827 16.6046 101.041 16.8951 103.298C17.1749 105.465 16.5806 108.057 17.0203 110.082C17.1829 110.839 17.4573 112.51 17.2068 113.389C16.9564 114.266 17.6438 116.84 17.3321 117.45C17.0203 118.06 16.9564 118.463 15.6453 118.263C13.9746 118.01 12.9141 114.594 12.7728 112.915C12.6609 111.564 12.7648 110.04 12.5863 108.667C12.4824 107.876 11.3979 106.853 11.2113 106.853C11.0248 106.853 9.14623 109.547 9.21284 110.082C9.54326 112.784 9.52194 116.512 10.5239 118.266C11.3046 119.633 14.273 121.002 15.1444 122.82C15.6986 123.973 15.1337 125.695 14.9579 125.684C12.6503 125.551 8.01375 122.545 5.77809 120.642C3.25199 118.492 0.680593 112.275 0.158319 108.734C-0.542487 103.983 1.31212 100.628 1.28281 95.7172C1.27215 94.0092 0.968377 92.1465 0.845803 90.4332C0.739216 88.9223 1.22418 87.3129 1.2908 85.81C1.5999 78.8978 1.53329 75.5164 1.69849 68.3618C1.87436 60.7568 1.38406 57.4553 2.59648 50.0768C3.16672 46.6048 4.54435 43.0848 5.20519 39.6367C7.18237 29.3164 6.17246 3.33331 6.18312 -7.36798C6.19112 -14.44 7.47282 -22.6045 11.4032 -28.5894C14.1558 -32.7809 19.3279 -35.2564 24.1243 -36.3222C27.9508 -37.4227 31.7559 -38.6005 35.5291 -39.8715C38.7666 -40.9614 46.257 -42.4936 47.5467 -45.3661C48.7678 -48.0902 48.5512 -51.3028 48.4539 -54.6932C48.4345 -54.7134 48.4155 -54.7335 48.3967 -54.7537C45.8733 -57.461 44.0054 -61.0583 43.2433 -63.7389C41.0822 -63.8988 41.5166 -67.68 41.2075 -68.6393C40.8984 -69.6012 38.4922 -74.704 39.7179 -75.9618C40.3121 -76.572 40.933 -76.0657 40.933 -76.0657C40.933 -76.0657 39.7312 -86.2074 42.0255 -92.1602C43.8188 -96.8128 49.3613 -103.2 59.3405 -103.2H59.3512H59.3618C69.3383 -103.2 74.8835 -96.8128 76.6768 -92.1602C78.9711 -86.2074 77.7773 -75.9857 77.7773 -75.9857C77.7773 -75.9857 78.4968 -76.7212 79.1469 -76.0177C80.1062 -74.9838 77.8013 -69.5985 77.4922 -68.6393C77.1831 -67.6773 77.6174 -63.8962 75.4564 -63.7389C74.7929 -61.3994 73.4259 -57.6076 71.1236 -55.2626C70.9833 -55.1197 70.8391 -54.9792 70.6908 -54.8415L70.6868 -54.6903C70.5888 -51.0601 70.516 -48.364 71.8484 -45.3661C73.1434 -42.4456 80.8896 -40.9481 84.1618 -39.8715C88.0336 -38.5978 91.94 -37.4201 95.865 -36.3195C100.661 -35.251 105.834 -32.7756 108.586 -28.5867C112.519 -22.6019 113.798 -14.4347 113.806 -7.36531C113.817 3.33598 112.807 29.3164 114.784 39.6393C115.442 43.0901 116.823 46.6101 117.393 50.0795C118.608 57.4579 118.115 61.5642 118.291 69.1692C118.456 76.3264 118.389 76.8913 118.699 83.8035Z" fill="white"/>
<path d="M24.3961 21.3544L23.7962 21.3461L24.9904 21.4372L24.3961 21.3544ZM24.5693 20.2566L25.1594 20.3653L25.5792 18.0864L24.1061 19.8752L24.5693 20.2566ZM24.3961 21.3544L24.996 21.3628C24.9999 21.0889 25.0145 20.8791 25.0369 20.732C25.0481 20.6585 25.0594 20.6132 25.0671 20.5894C25.0769 20.5591 25.0724 20.5895 25.0325 20.638L24.5693 20.2566L24.1061 19.8752C24.0102 19.9916 23.9572 20.1216 23.9252 20.2204C23.8912 20.3257 23.8677 20.4389 23.8506 20.5513C23.8164 20.7759 23.8003 21.0471 23.7962 21.3461L24.3961 21.3544ZM24.5693 20.2566L23.9792 20.1479C23.9212 20.4631 23.8612 20.8454 23.8018 21.2717L24.3961 21.3544L24.9904 21.4372C25.0483 21.0214 25.1055 20.6576 25.1594 20.3653L24.5693 20.2566ZM119.144 88.4267L117.947 88.3401L117.947 88.341L119.144 88.4267ZM118.699 83.8035L119.897 83.7503L119.897 83.7499L118.699 83.8035ZM118.291 69.1692L119.491 69.1415L119.491 69.1414L118.291 69.1692ZM117.393 50.0795L116.209 50.2741L116.209 50.2745L117.393 50.0795ZM114.784 39.6393L115.963 39.4145L115.963 39.4136L114.784 39.6393ZM113.806 -7.36531L115.006 -7.36651V-7.36667L113.806 -7.36531ZM108.586 -28.5867L107.583 -27.9277L107.583 -27.9277L108.586 -28.5867ZM95.865 -36.3195L95.5411 -35.1641L95.5724 -35.1553L95.6041 -35.1483L95.865 -36.3195ZM84.1618 -39.8715L83.7868 -38.7317L83.7868 -38.7316L84.1618 -39.8715ZM71.8484 -45.3661L72.9454 -45.8525L72.945 -45.8535L71.8484 -45.3661ZM47.5467 -45.3661L48.6414 -44.8746L48.6417 -44.8752L47.5467 -45.3661ZM35.5291 -39.8715L35.1462 -41.0088L35.146 -41.0088L35.5291 -39.8715ZM24.1243 -36.3222L24.3846 -35.1508L24.4206 -35.1588L24.456 -35.169L24.1243 -36.3222ZM11.4032 -28.5894L12.4062 -27.9306L12.4062 -27.9307L11.4032 -28.5894ZM6.18312 -7.36798L4.98312 -7.36934V-7.36918L6.18312 -7.36798ZM5.20519 39.6367L6.38374 39.8626L6.38375 39.8625L5.20519 39.6367ZM2.59648 50.0768L3.78061 50.2714L3.78062 50.2713L2.59648 50.0768ZM1.69849 68.3618L0.498815 68.334L0.498814 68.3341L1.69849 68.3618ZM1.2908 85.81L0.0919993 85.7564L0.0919785 85.7568L1.2908 85.81ZM0.845803 90.4332L-0.351223 90.5176L-0.351138 90.5188L0.845803 90.4332ZM1.28281 95.7172L2.48279 95.71L2.48278 95.7097L1.28281 95.7172ZM0.158319 108.734L1.34548 108.559L1.34547 108.559L0.158319 108.734ZM5.77809 120.642L5.00025 121.556L5.00038 121.556L5.77809 120.642ZM14.9579 125.684L15.0304 124.486L15.027 124.486L14.9579 125.684ZM15.1444 122.82L14.0623 123.338L14.0627 123.339L15.1444 122.82ZM10.5239 118.266L11.5659 117.67L11.5657 117.67L10.5239 118.266ZM9.21284 110.082L10.404 109.937L10.4037 109.934L9.21284 110.082ZM12.5863 108.667L13.7763 108.513L13.7761 108.511L12.5863 108.667ZM12.7728 112.915L11.5769 113.014L11.5771 113.016L12.7728 112.915ZM15.6453 118.263L15.8262 117.077L15.8251 117.076L15.6453 118.263ZM17.3321 117.45L16.2635 116.904L16.2635 116.904L17.3321 117.45ZM17.2068 113.389L18.3607 113.719L18.3609 113.718L17.2068 113.389ZM17.0203 110.082L18.1936 109.83L18.193 109.828L17.0203 110.082ZM16.8951 103.298L15.7049 103.451L15.705 103.452L16.8951 103.298ZM12.6956 93.6681L13.8523 93.3487L13.8522 93.3485L12.6956 93.6681ZM12.8821 85.1571L11.7282 84.8278L11.7282 84.8278L12.8821 85.1571ZM18.5445 63.6453L19.7095 63.9329L19.7095 63.9328L18.5445 63.6453ZM22.4376 41.1502L23.6287 41.2957L23.6287 41.2955L22.4376 41.1502ZM24.3961 21.3544L25.596 21.3703L23.2079 21.1868L24.3961 21.3544ZM27.7562 41.7018L28.9173 41.3985L28.9172 41.3984L27.7562 41.7018ZM26.3653 67.5091L25.1798 67.3233L25.1797 67.3235L26.3653 67.5091ZM19.2267 100.892L18.0285 100.826L19.2267 100.892ZM20.8041 140.004L19.6089 140.111L19.609 140.111L20.8041 140.004ZM25.5312 168.894L24.358 169.146L24.358 169.146L25.5312 168.894ZM25.8084 180.078L24.6095 180.026L24.6095 180.027L25.8084 180.078ZM25.9469 190.185L27.1446 190.259L27.1446 190.259L25.9469 190.185ZM23.2663 209.762L22.0664 209.78L22.0664 209.78L23.2663 209.762ZM28.4491 253.782L27.2612 253.953L27.2612 253.953L28.4491 253.782ZM30.0079 266.461L31.1576 266.805L31.1576 266.805L30.0079 266.461ZM24.0657 275.832L23.0002 275.28L23.0001 275.281L24.0657 275.832ZM17.929 280.754L18.601 281.748L18.6015 281.748L17.929 280.754ZM14.4516 283.619L13.7043 282.68L13.7038 282.68L14.4516 283.619ZM11.7203 285.801L10.724 285.132L10.7238 285.133L11.7203 285.801ZM11.651 287.376L12.459 288.263L14.4154 286.481L11.786 286.183L11.651 287.376ZM11.5711 289.268L12.6969 289.683L13.2226 288.258L11.7149 288.076L11.5711 289.268ZM12.4131 290.808L13.4877 291.342L14.5597 289.185L12.192 289.628L12.4131 290.808ZM13.7588 292.308L14.9183 291.999L14.5948 290.785L13.3964 291.164L13.7588 292.308ZM17.9716 293.081L19.1662 292.968L18.9997 291.21L17.4267 292.012L17.9716 293.081ZM22.3843 295.207L22.5947 296.389L22.5957 296.388L22.3843 295.207ZM27.3805 293.185L26.646 292.236L26.6452 292.236L27.3805 293.185ZM29.2218 290.928L28.4484 290.01L28.4452 290.013L29.2218 290.928ZM33.2827 288.402L34.0855 289.294L34.0855 289.294L33.2827 288.402ZM35.4038 284.756L34.4085 284.086L34.4081 284.087L35.4038 284.756ZM39.0278 282.268L38.8429 281.082L38.8407 281.082L39.0278 282.268ZM44.2478 279.347L45.3425 279.839L45.3428 279.838L44.2478 279.347ZM44.3384 272.792L45.5057 272.514L45.5053 272.512L44.3384 272.792ZM43.3738 268.294L44.5737 268.314L44.5737 268.313L43.3738 268.294ZM43.5657 265.105L44.753 264.93L44.7527 264.929L43.5657 265.105ZM42.3453 261.214L43.5245 260.992H43.5245L42.3453 261.214ZM41.9546 255.548L40.7547 255.561L41.9546 255.548ZM41.9536 255.451L43.1535 255.437L43.1535 255.436L41.9536 255.451ZM44.469 239.292L43.2894 239.072L43.2894 239.072L44.469 239.292ZM47.5067 218.59L48.7055 218.643L48.7056 218.643L47.5067 218.59ZM47.0724 205.555L48.265 205.422L48.2649 205.421L47.0724 205.555ZM46.5341 198.416L47.7256 198.559L47.7256 198.559L46.5341 198.416ZM51.9381 178.983L53.1269 179.146L53.1269 179.146L51.9381 178.983ZM52.2365 159.587L53.4321 159.69L53.4321 159.69L52.2365 159.587ZM55.1678 137.58L56.3533 137.765L55.1678 137.58ZM55.1916 137.427L54.0061 137.241L54.0061 137.242L55.1916 137.427ZM57.5179 124.626L58.688 124.892L58.6882 124.892L57.5179 124.626ZM59.2979 116.408L58.5006 115.511L58.4988 115.513L59.2979 116.408ZM59.9081 116.483L59.887 115.283L59.8744 115.283L59.9081 116.483ZM60.5716 116.382L59.8033 117.303L59.8076 117.307L60.5716 116.382ZM62.3755 124.626L61.2052 124.891L61.2053 124.892L62.3755 124.626ZM64.7018 137.427L65.8873 137.241L65.8873 137.241L64.7018 137.427ZM67.6569 159.587L66.4617 159.693L66.4617 159.694L67.6569 159.587ZM67.9554 178.983L69.1442 178.819L69.1441 178.819L67.9554 178.983ZM73.3593 198.416L72.1678 198.559L72.1678 198.559L73.3593 198.416ZM72.821 205.555L71.6285 205.421L71.6285 205.421L72.821 205.555ZM72.3867 218.59L71.1879 218.643L71.1879 218.643L72.3867 218.59ZM75.4244 239.292L76.604 239.072L76.6039 239.071L75.4244 239.292ZM77.9398 255.451L79.1397 255.465L79.1398 255.465L77.9398 255.451ZM77.9376 255.634L76.7377 255.619V255.619L77.9376 255.634ZM77.5481 261.214L76.3689 260.992L77.5481 261.214ZM76.3277 265.105L75.1407 264.929L75.1404 264.93L76.3277 265.105ZM76.5196 268.294L75.3197 268.314L75.3197 268.314L76.5196 268.294ZM75.555 272.792L74.3852 272.524L74.385 272.525L75.555 272.792ZM75.6456 279.347L76.7225 278.818L76.722 278.817L75.6456 279.347ZM80.8656 282.268L81.0546 281.083L81.0536 281.082L80.8656 282.268ZM84.4896 284.756L83.4923 285.424L83.4938 285.426L84.4896 284.756ZM86.6107 288.402L85.8079 289.294H85.8079L86.6107 288.402ZM90.6716 290.928L89.8982 291.845L89.8988 291.846L90.6716 290.928ZM92.5129 293.185L91.7759 294.132L91.7786 294.134L92.5129 293.185ZM97.5091 295.207L97.3311 296.394L97.3318 296.394L97.5091 295.207ZM101.922 293.081L102.47 292.014L100.9 291.206L100.728 292.964L101.922 293.081ZM106.135 292.308L106.497 291.164L105.307 290.787L104.977 291.991L106.135 292.308ZM107.48 290.808L107.701 289.628L105.334 289.185L106.406 291.342L107.48 290.808ZM108.322 289.268L108.179 288.076L106.671 288.258L107.197 289.683L108.322 289.268ZM108.242 287.376L108.107 286.183L105.478 286.481L107.434 288.263L108.242 287.376ZM108.173 285.801L109.17 285.133L109.169 285.132L108.173 285.801ZM105.442 283.619L106.19 282.68L106.188 282.679L105.442 283.619ZM101.964 280.754L101.292 281.748L101.293 281.749L101.964 280.754ZM95.8277 275.832L96.8792 275.254L96.8787 275.253L95.8277 275.832ZM89.8855 266.461L91.0363 266.121L91.0362 266.12L89.8855 266.461ZM91.4444 253.782L92.6322 253.953L92.6322 253.953L91.4444 253.782ZM96.6271 209.762L97.827 209.778V209.778L96.6271 209.762ZM93.9465 190.185L92.7488 190.259L92.7488 190.26L93.9465 190.185ZM94.085 180.078L92.8859 180.124L92.8859 180.124L94.085 180.078ZM94.3622 168.894L93.1889 168.642L93.1889 168.643L94.3622 168.894ZM99.0893 140.004L97.8941 139.897L97.8941 139.897L99.0893 140.004ZM100.667 100.892L101.866 100.866L101.866 100.866L100.667 100.892ZM93.5281 67.5091L94.7124 67.3156L94.7124 67.3154L93.5281 67.5091ZM92.1372 41.7018L90.953 41.5076L90.953 41.5077L92.1372 41.7018ZM94.085 19.9981L95.2557 19.7345L92.895 20.1527L94.085 19.9981ZM97.5624 41.1502L98.7544 41.0115L98.7543 41.0111L97.5624 41.1502ZM101.455 64.45L102.622 64.1684L102.622 64.1684L101.455 64.45ZM107.52 85.1571L106.364 85.4783L106.364 85.4783L107.52 85.1571ZM107.707 91.6562L108.86 91.9864L108.861 91.9859L107.707 91.6562ZM105.666 96.6951L106.643 97.392L106.643 97.3912L105.666 96.6951ZM103.105 103.701L101.915 103.547L101.915 103.548L103.105 103.701ZM102.98 110.485L104.152 110.741L104.152 110.739L102.98 110.485ZM102.793 113.792L101.639 114.12V114.12L102.793 113.792ZM102.668 117.853L101.599 118.399V118.399L102.668 117.853ZM104.355 118.668L104.803 119.781L104.806 119.78L104.355 118.668ZM107.227 113.32L106.031 113.224L106.031 113.225L107.227 113.32ZM107.414 109.072L106.224 108.916L106.224 108.918L107.414 109.072ZM110.787 110.487L109.596 110.339L109.596 110.341L110.787 110.487ZM109.476 118.671L108.44 118.066L108.439 118.066L109.476 118.671ZM104.856 123.225L103.774 122.705L103.773 122.706L104.856 123.225ZM105.042 126.089L105.097 127.288L105.111 127.287L105.042 126.089ZM114.222 121.048L113.445 120.133L113.444 120.134L114.222 121.048ZM119.842 109.139L118.655 108.964L118.654 108.965L119.842 109.139ZM118.717 93.7107L119.917 93.7179V93.7107H118.717ZM77.7773 -75.9857L76.5854 -76.1249L76.1778 -72.6347L78.6351 -75.1466L77.7773 -75.9857ZM76.6768 -92.1602L77.7965 -92.5918L77.7965 -92.5918L76.6768 -92.1602ZM42.0255 -92.1602L40.9058 -92.5918L40.9058 -92.5918L42.0255 -92.1602ZM40.933 -76.0657L40.1746 -75.1357L42.4738 -73.2609L42.1247 -76.2069L40.933 -76.0657ZM39.7179 -75.9618L40.5773 -75.1242L40.5776 -75.1246L39.7179 -75.9618ZM41.2075 -68.6393L40.065 -68.2722L40.0653 -68.2712L41.2075 -68.6393ZM43.2433 -63.7389L44.3975 -64.0671L44.1682 -64.8738L43.3318 -64.9357L43.2433 -63.7389ZM48.3967 -54.7537L49.2751 -55.5713L49.2745 -55.5719L48.3967 -54.7537ZM71.1236 -55.2626L70.2674 -56.1034L70.2673 -56.1033L71.1236 -55.2626ZM75.4564 -63.7389L75.3693 -64.9358L74.5312 -64.8748L74.3019 -64.0663L75.4564 -63.7389ZM77.4922 -68.6393L76.35 -69.0073L76.3497 -69.0064L77.4922 -68.6393ZM79.1469 -76.0177L78.2657 -75.2032L78.2673 -75.2015L79.1469 -76.0177ZM48.4539 -54.6932L49.6534 -54.7277L49.6401 -55.1902L49.3198 -55.524L48.4539 -54.6932ZM70.6908 -54.8415L69.8742 -55.7208L69.5049 -55.3778L69.4913 -54.8738L70.6908 -54.8415ZM70.6868 -54.6903L71.8863 -54.658V-54.658L70.6868 -54.6903ZM119.144 88.4267L120.34 88.5132C120.405 87.6142 120.291 86.7197 120.174 85.9345C120.05 85.106 119.927 84.4203 119.897 83.7503L118.699 83.8035L117.5 83.8566C117.537 84.6896 117.691 85.56 117.8 86.2897C117.916 87.0626 117.991 87.7283 117.947 88.3401L119.144 88.4267ZM118.699 83.8035L119.897 83.7499C119.589 76.855 119.656 76.3181 119.491 69.1415L118.291 69.1692L117.091 69.1969C117.256 76.3348 117.19 76.9277 117.5 83.8571L118.699 83.8035ZM118.291 69.1692L119.491 69.1414C119.318 61.6672 119.81 57.3734 118.577 49.8845L117.393 50.0795L116.209 50.2745C117.406 57.5425 116.912 61.4612 117.091 69.1969L118.291 69.1692ZM117.393 50.0795L118.577 49.8849C118.279 48.0724 117.772 46.2621 117.275 44.5227C116.772 42.7603 116.28 41.0754 115.963 39.4145L114.784 39.6393L113.605 39.8642C113.947 41.654 114.474 43.4545 114.968 45.1821C115.468 46.9328 115.936 48.6172 116.209 50.2741L117.393 50.0795ZM114.784 39.6393L115.963 39.4136C114.999 34.3842 114.754 25.4261 114.758 16.2794C114.76 11.7275 114.823 7.16187 114.885 3.06033C114.948 -1.03519 115.009 -4.67873 115.006 -7.36651L113.806 -7.36531L112.606 -7.36411C112.609 -4.70125 112.548 -1.08424 112.486 3.0239C112.423 7.12601 112.36 11.7072 112.358 16.2784C112.354 25.378 112.592 34.5715 113.606 39.8651L114.784 39.6393ZM113.806 -7.36531L115.006 -7.36667C114.998 -14.5318 113.71 -22.9756 109.589 -29.2457L108.586 -28.5867L107.583 -27.9277C111.329 -22.2282 112.598 -14.3375 112.606 -7.36395L113.806 -7.36531ZM108.586 -28.5867L109.589 -29.2457C106.592 -33.8059 101.067 -36.3901 96.126 -37.4908L95.865 -36.3195L95.6041 -35.1483C100.256 -34.112 105.075 -31.7452 107.583 -27.9277L108.586 -28.5867ZM95.865 -36.3195L96.189 -37.475C92.2789 -38.5713 88.3897 -39.744 84.5368 -41.0114L84.1618 -39.8715L83.7868 -38.7316C87.6775 -37.4517 91.6011 -36.2688 95.5411 -35.1641L95.865 -36.3195ZM84.1618 -39.8715L84.5368 -41.0114C83.685 -41.2917 82.5457 -41.5984 81.3627 -41.9292C80.1592 -42.2657 78.8745 -42.6367 77.6587 -43.0605C76.4363 -43.4866 75.3298 -43.9505 74.4698 -44.4595C73.5806 -44.9859 73.1164 -45.4669 72.9454 -45.8525L71.8484 -45.3661L70.7514 -44.8797C71.228 -43.805 72.2176 -43.0037 73.2473 -42.3942C74.3063 -41.7674 75.5836 -41.2421 76.8687 -40.7942C78.1604 -40.344 79.5066 -39.9562 80.7163 -39.6179C81.9465 -39.2739 83.0026 -38.9896 83.7868 -38.7317L84.1618 -39.8715ZM47.5467 -45.3661L46.452 -45.8576C46.2797 -45.4738 45.8227 -44.9978 44.9594 -44.476C44.1233 -43.9706 43.0493 -43.5071 41.8617 -43.0793C40.6803 -42.6538 39.4309 -42.2791 38.2568 -41.9383C37.1026 -41.6034 35.9873 -41.292 35.1462 -41.0088L35.5291 -39.8715L35.9119 -38.7343C36.6896 -38.996 37.7247 -39.2849 38.9258 -39.6335C40.107 -39.9763 41.4178 -40.3685 42.675 -40.8213C43.9258 -41.2719 45.1686 -41.7981 46.2008 -42.422C47.2059 -43.0294 48.1689 -43.8221 48.6414 -44.8746L47.5467 -45.3661ZM35.5291 -39.8715L35.146 -41.0088C31.3915 -39.744 27.6037 -38.5715 23.7926 -37.4755L24.1243 -36.3222L24.456 -35.169C28.2979 -36.2739 32.1203 -37.457 35.9122 -38.7343L35.5291 -39.8715ZM24.1243 -36.3222L23.864 -37.4936C18.9223 -36.3955 13.3968 -33.8112 10.4002 -29.2481L11.4032 -28.5894L12.4062 -27.9307C14.9148 -31.7506 19.7335 -34.1172 24.3846 -35.1508L24.1243 -36.3222ZM11.4032 -28.5894L10.4002 -29.2481C6.28262 -22.9783 4.99123 -14.5375 4.98312 -7.36934L6.18312 -7.36798L7.38312 -7.36662C7.39101 -14.3425 8.66302 -22.2308 12.4062 -27.9306L11.4032 -28.5894ZM6.18312 -7.36798L4.98312 -7.36918C4.98045 -4.6814 5.04181 -1.0377 5.104 3.05804C5.16629 7.15979 5.22961 11.7257 5.2316 16.2778C5.23561 25.4248 4.9899 34.3829 4.02662 39.4109L5.20519 39.6367L6.38375 39.8625C7.39766 34.5702 7.63559 25.3767 7.6316 16.2767C7.6296 11.7053 7.56602 7.12394 7.50373 3.02161C7.44135 -1.08674 7.38047 -4.70391 7.38312 -7.36678L6.18312 -7.36798ZM5.20519 39.6367L4.02664 39.4108C3.70845 41.071 3.21631 42.7556 2.71298 44.5183C2.21621 46.258 1.71022 48.0687 1.41235 49.8824L2.59648 50.0768L3.78062 50.2713C4.05299 48.6129 4.52093 46.9276 5.02074 45.1773C5.514 43.4499 6.04109 41.6504 6.38374 39.8626L5.20519 39.6367ZM2.59648 50.0768L1.41236 49.8822C0.18182 57.371 0.671776 60.8548 0.498815 68.334L1.69849 68.3618L2.89817 68.3895C3.07695 60.6588 2.58631 57.5396 3.78061 50.2714L2.59648 50.0768ZM1.69849 68.3618L0.498814 68.3341C0.332633 75.5308 0.400478 78.8582 0.0919994 85.7564L1.2908 85.81L2.4896 85.8636C2.79933 78.9375 2.73394 75.502 2.89817 68.3895L1.69849 68.3618ZM1.2908 85.81L0.0919785 85.7568C0.0622661 86.4272 -0.0599916 87.1137 -0.18351 87.9415C-0.300637 88.7265 -0.41455 89.6199 -0.351222 90.5176L0.845803 90.4332L2.04283 90.3487C1.99957 89.7355 2.07485 89.0688 2.19021 88.2957C2.29919 87.5653 2.45272 86.6957 2.48962 85.8631L1.2908 85.81ZM0.845803 90.4332L-0.351138 90.5188C-0.288031 91.4009 -0.177269 92.3332 -0.0873312 93.2009C0.00463684 94.0882 0.0778864 94.9323 0.0828311 95.7247L1.28281 95.7172L2.48278 95.7097C2.47707 94.7941 2.3931 93.8529 2.29988 92.9535C2.20462 92.0345 2.10221 91.1788 2.04274 90.3475L0.845803 90.4332ZM1.28281 95.7172L0.0828292 95.7243C0.0966537 98.0406 -0.33044 99.9747 -0.71186 102.071C-1.08953 104.146 -1.40898 106.332 -1.02884 108.909L0.158319 108.734L1.34547 108.559C1.02481 106.385 1.28226 104.518 1.64937 102.5C2.01272 100.504 2.49827 98.3048 2.48279 95.71L1.28281 95.7172ZM0.158319 108.734L-1.02884 108.909C-0.746648 110.823 0.0693662 113.372 1.12325 115.704C2.16212 118.003 3.52538 120.301 5.00025 121.556L5.77809 120.642L6.55594 119.729C5.5047 118.834 4.31922 116.948 3.31029 114.716C2.31638 112.516 1.58556 110.187 1.34548 108.559L0.158319 108.734ZM5.77809 120.642L5.00038 121.556C6.17709 122.558 7.95416 123.825 9.73703 124.864C10.6304 125.384 11.5455 125.859 12.4036 126.216C13.2414 126.564 14.1111 126.837 14.8887 126.882L14.9579 125.684L15.027 124.486C14.6508 124.464 14.0756 124.312 13.3252 124C12.5951 123.696 11.7787 123.275 10.945 122.79C9.27376 121.816 7.61475 120.63 6.55581 119.729L5.77809 120.642ZM14.9579 125.684L14.8853 126.882C15.3839 126.912 15.7072 126.64 15.7981 126.558C15.9222 126.446 16.0032 126.33 16.0471 126.262C16.1403 126.118 16.2088 125.964 16.2579 125.837C16.3611 125.571 16.4507 125.239 16.5091 124.882C16.6204 124.203 16.6571 123.197 16.2261 122.3L15.1444 122.82L14.0627 123.339C14.1859 123.596 14.2173 124.027 14.1407 124.494C14.1052 124.711 14.0552 124.879 14.0204 124.969C14.0005 125.02 14.0003 125.008 14.031 124.96C14.0438 124.941 14.0952 124.862 14.192 124.775C14.2555 124.717 14.5538 124.457 15.0304 124.486L14.9579 125.684ZM15.1444 122.82L16.2264 122.301C15.6484 121.095 14.4437 120.134 13.5385 119.428C13.0407 119.039 12.61 118.714 12.2397 118.392C11.8616 118.064 11.6571 117.83 11.5659 117.67L10.5239 118.266L9.48184 118.861C9.78104 119.385 10.2403 119.835 10.6656 120.204C11.0987 120.58 11.6109 120.968 12.0618 121.32C13.0539 122.094 13.7691 122.727 14.0623 123.338L15.1444 122.82ZM10.5239 118.266L11.5657 117.67C11.2045 117.038 10.9726 115.906 10.8096 114.401C10.7312 113.677 10.673 112.922 10.6124 112.159C10.5525 111.405 10.4901 110.641 10.404 109.937L9.21284 110.082L8.02172 110.228C8.10077 110.875 8.1596 111.59 8.21996 112.349C8.27959 113.1 8.34065 113.894 8.42351 114.659C8.58289 116.131 8.84126 117.74 9.48197 118.861L10.5239 118.266ZM9.21284 110.082L10.4037 109.934C10.4223 110.084 10.4003 110.187 10.3975 110.2C10.3923 110.226 10.3897 110.228 10.3999 110.199C10.4205 110.143 10.4636 110.044 10.5365 109.903C10.6804 109.625 10.8909 109.276 11.1212 108.924C11.3501 108.574 11.5824 108.247 11.7611 108.015C11.8528 107.896 11.9163 107.821 11.9502 107.784C11.97 107.763 11.9584 107.778 11.9227 107.808C11.9061 107.821 11.8564 107.862 11.7807 107.905C11.7363 107.93 11.5217 108.053 11.2113 108.053V106.853V105.653C10.8893 105.653 10.6597 105.781 10.5973 105.817C10.5036 105.87 10.4327 105.925 10.3921 105.959C10.3085 106.028 10.2374 106.102 10.1882 106.155C10.0839 106.268 9.97055 106.407 9.86091 106.549C9.63702 106.839 9.36883 107.219 9.11311 107.61C8.85879 107.998 8.60048 108.423 8.40501 108.8C8.30833 108.987 8.21405 109.187 8.14399 109.38C8.09481 109.516 7.97528 109.855 8.02202 110.231L9.21284 110.082ZM11.2113 106.853V108.053C11.0861 108.053 10.9875 108.032 10.9289 108.017C10.8672 108.001 10.8196 107.983 10.7898 107.97C10.7321 107.946 10.6962 107.924 10.6882 107.919C10.6708 107.908 10.6812 107.913 10.7206 107.946C10.7952 108.008 10.9062 108.115 11.023 108.249C11.1398 108.384 11.2418 108.524 11.3137 108.648C11.3918 108.784 11.3989 108.842 11.3965 108.824L12.5863 108.667L13.7761 108.511C13.6755 107.745 13.171 107.063 12.8366 106.677C12.646 106.457 12.4444 106.259 12.26 106.104C12.1698 106.029 12.064 105.948 11.9512 105.878C11.8955 105.843 11.8171 105.799 11.723 105.759C11.6513 105.729 11.461 105.653 11.2113 105.653V106.853ZM12.5863 108.667L11.3963 108.822C11.4757 109.433 11.4943 110.095 11.5047 110.816C11.5147 111.514 11.5167 112.287 11.5769 113.014L12.7728 112.915L13.9687 112.816C13.9171 112.192 13.9151 111.527 13.9044 110.782C13.8941 110.061 13.8754 109.275 13.7763 108.513L12.5863 108.667ZM12.7728 112.915L11.5771 113.016C11.6592 113.992 11.9943 115.397 12.5407 116.615C12.8151 117.226 13.1672 117.846 13.6111 118.35C14.0489 118.847 14.6635 119.328 15.4656 119.449L15.6453 118.263L15.8251 117.076C15.7918 117.071 15.6473 117.031 15.412 116.763C15.1827 116.503 14.9476 116.116 14.7303 115.632C14.2935 114.659 14.0277 113.517 13.9686 112.814L12.7728 112.915ZM15.6453 118.263L15.4645 119.449C16.1667 119.556 16.9233 119.579 17.5476 119.146C17.8563 118.932 18.0411 118.667 18.1576 118.468C18.2482 118.313 18.3641 118.068 18.4007 117.996L17.3321 117.45L16.2635 116.904C16.2201 116.989 16.1743 117.084 16.1483 117.136C16.1167 117.2 16.0985 117.235 16.0851 117.258C16.061 117.299 16.0894 117.237 16.1792 117.175C16.275 117.108 16.3427 117.108 16.301 117.112C16.2442 117.117 16.1038 117.119 15.8262 117.077L15.6453 118.263ZM17.3321 117.45L18.4007 117.996C18.5438 117.716 18.5848 117.428 18.6013 117.242C18.6196 117.035 18.6171 116.821 18.6074 116.623C18.5881 116.23 18.533 115.778 18.4835 115.374C18.4313 114.948 18.3837 114.563 18.362 114.23C18.3514 114.066 18.3485 113.935 18.3523 113.835C18.3563 113.727 18.3667 113.698 18.3607 113.719L17.2068 113.389L16.053 113.06C15.9278 113.498 15.9426 114.009 15.9671 114.386C15.9942 114.801 16.0519 115.262 16.1013 115.666C16.1534 116.091 16.1961 116.451 16.2102 116.74C16.2173 116.883 16.2154 116.977 16.2106 117.031C16.204 117.106 16.1983 117.032 16.2635 116.904L17.3321 117.45ZM17.2068 113.389L18.3609 113.718C18.5518 113.048 18.5224 112.217 18.4633 111.579C18.4002 110.898 18.2819 110.242 18.1936 109.83L17.0203 110.082L15.8471 110.334C15.9212 110.68 16.0215 111.238 16.0736 111.801C16.1297 112.407 16.1123 112.851 16.0527 113.061L17.2068 113.389ZM17.0203 110.082L18.193 109.828C18.0121 108.994 18.0366 107.996 18.0962 106.803C18.1526 105.677 18.2421 104.359 18.0852 103.144L16.8951 103.298L15.705 103.452C15.8278 104.403 15.7601 105.466 15.6992 106.683C15.6416 107.835 15.5889 109.145 15.8476 110.337L17.0203 110.082ZM16.8951 103.298L18.0853 103.145C17.9899 102.404 17.663 101.503 17.2913 100.627C16.9075 99.7238 16.4244 98.7325 15.9472 97.7798C15.4621 96.8113 14.9925 95.9007 14.6015 95.0963C14.2001 94.2706 13.9436 93.6795 13.8523 93.3487L12.6956 93.6681L11.5388 93.9874C11.698 94.564 12.0554 95.3482 12.443 96.1456C12.841 96.9644 13.3355 97.9246 13.8013 98.8547C14.2751 99.8006 14.7297 100.735 15.0823 101.566C15.447 102.424 15.655 103.064 15.7049 103.451L16.8951 103.298ZM12.6956 93.6681L13.8522 93.3485C13.6041 92.4503 13.49 91.0154 13.5298 89.4776C13.5693 87.9492 13.7569 86.4645 14.036 85.4864L12.8821 85.1571L11.7282 84.8278C11.3731 86.0721 11.173 87.7771 11.1306 89.4155C11.0884 91.0448 11.1981 92.7541 11.5389 93.9876L12.6956 93.6681ZM12.8821 85.1571L14.036 85.4865C16.5091 76.8226 17.5069 72.8553 19.7095 63.9329L18.5445 63.6453L17.3795 63.3577C15.18 72.2673 14.19 76.2033 11.7282 84.8278L12.8821 85.1571ZM18.5445 63.6453L19.7095 63.9328C21.5135 56.6228 22.5278 50.3086 23.6287 41.2957L22.4376 41.1502L21.2464 41.0047C20.1516 49.9677 19.1515 56.1774 17.3794 63.3578L18.5445 63.6453ZM22.4376 41.1502L23.6287 41.2955C23.8396 39.5665 24.1642 35.7743 24.5161 31.8666C24.8707 27.9286 25.2537 23.8652 25.5843 21.5221L24.3961 21.3544L23.2079 21.1868C22.867 23.6027 22.4786 27.7332 22.1257 31.6513C21.7702 35.5996 21.4512 39.3258 21.2464 41.0049L22.4376 41.1502ZM24.3961 21.3544L23.1962 21.3386C23.172 23.1744 23.6009 26.7149 24.2306 30.5437C24.8654 34.4038 25.7238 38.6709 26.5952 42.0052L27.7562 41.7018L28.9172 41.3984C28.0699 38.1563 27.2256 33.9657 26.5988 30.1543C25.9668 26.3115 25.5749 22.9666 25.596 21.3703L24.3961 21.3544ZM27.7562 41.7018L26.5952 42.0051C27.1115 43.9814 27.1705 47.7804 26.8724 52.4658C26.5781 57.0916 25.9495 62.4122 25.1798 67.3233L26.3653 67.5091L27.5508 67.6949C28.3293 62.728 28.9677 57.3327 29.2676 52.6182C29.5637 47.9632 29.5441 43.7976 28.9173 41.3985L27.7562 41.7018ZM26.3653 67.5091L25.1797 67.3235C24.4188 72.1853 22.9007 76.3482 21.3949 81.523C19.899 86.664 18.48 92.622 18.0285 100.826L19.2267 100.892L20.4248 100.958C20.8633 92.9901 22.2369 87.2196 23.6994 82.1936C25.152 77.2013 26.7583 72.7587 27.5509 67.6946L26.3653 67.5091ZM19.2267 100.892L18.0285 100.826C17.3142 113.807 18.448 127.195 19.6089 140.111L20.8041 140.004L21.9993 139.896C20.8366 126.96 19.7215 113.739 20.4248 100.958L19.2267 100.892ZM20.8041 140.004L19.609 140.111C20.4895 149.894 22.3293 159.694 24.358 169.146L25.5312 168.894L26.7045 168.642C24.6829 159.223 22.8668 149.534 21.9993 139.896L20.8041 140.004ZM25.5312 168.894L24.358 169.146C25.0819 172.518 24.7705 176.274 24.6095 180.026L25.8084 180.078L27.0073 180.129C27.1607 176.553 27.5101 172.395 26.7045 168.642L25.5312 168.894ZM25.8084 180.078L24.6095 180.027C24.5348 181.775 24.6243 183.533 24.7019 185.212C24.7805 186.912 24.8472 188.534 24.7492 190.11L25.9469 190.185L27.1446 190.259C27.2518 188.534 27.1773 186.787 27.0994 185.101C27.0204 183.393 26.9381 181.749 27.0073 180.129L25.8084 180.078ZM25.9469 190.185L24.7492 190.11C24.5541 193.249 23.8809 196.406 23.2416 199.707C22.6097 202.971 22.0164 206.356 22.0664 209.78L23.2663 209.762L24.4662 209.745C24.4202 206.594 24.966 203.427 25.5979 200.164C26.2223 196.938 26.9374 193.593 27.1446 190.259L25.9469 190.185ZM23.2663 209.762L22.0664 209.78C22.2811 224.295 25.2023 239.575 27.2612 253.953L28.4491 253.782L29.6369 253.612C27.5549 239.073 24.6778 224.056 24.4661 209.744L23.2663 209.762ZM28.4491 253.782L27.2612 253.953C27.4118 255.003 27.653 256.126 27.9046 257.241C28.1597 258.372 28.4242 259.49 28.6416 260.594C29.0858 262.85 29.2655 264.754 28.8581 266.117L30.0079 266.461L31.1576 266.805C31.7521 264.815 31.4389 262.378 30.9964 260.131C30.7705 258.984 30.4933 257.81 30.2458 256.713C29.9948 255.601 29.7727 254.559 29.6369 253.612L28.4491 253.782ZM30.0079 266.461L28.8582 266.117C28.4816 267.376 27.5487 268.749 26.3677 270.337C25.2411 271.851 23.8956 273.552 23.0002 275.28L24.0657 275.832L25.1312 276.385C25.9119 274.878 27.0911 273.385 28.2934 271.769C29.4414 270.226 30.6415 268.53 31.1576 266.805L30.0079 266.461ZM24.0657 275.832L23.0001 275.281C22.5791 276.094 21.7363 276.858 20.6203 277.629C20.0752 278.005 19.5002 278.36 18.9215 278.713C18.3543 279.06 17.7696 279.413 17.2564 279.76L17.929 280.754L18.6015 281.748C19.0569 281.44 19.583 281.122 20.1724 280.762C20.7503 280.409 21.3775 280.022 21.9839 279.604C23.1708 278.784 24.4277 277.743 25.1313 276.384L24.0657 275.832ZM17.929 280.754L17.2569 279.76C16.5763 280.22 15.9484 280.748 15.3703 281.251C14.7747 281.77 14.251 282.245 13.7043 282.68L14.4516 283.619L15.1988 284.558C15.8007 284.079 16.3987 283.538 16.9463 283.061C17.5113 282.57 18.0479 282.122 18.601 281.748L17.929 280.754ZM14.4516 283.619L13.7038 282.68C13.6221 282.745 13.4648 282.854 13.2111 283.028C12.9761 283.188 12.685 283.385 12.3924 283.596C11.8614 283.977 11.1214 284.54 10.724 285.132L11.7203 285.801L12.7166 286.47C12.8361 286.292 13.2126 285.962 13.7935 285.544C14.0568 285.355 14.3205 285.176 14.5635 285.01C14.7879 284.857 15.0319 284.691 15.1994 284.557L14.4516 283.619ZM11.7203 285.801L10.7238 285.133C10.2507 285.838 10.0471 286.557 10.1899 287.232C10.2591 287.559 10.4048 287.84 10.5937 288.058C10.6866 288.166 10.7975 288.267 10.926 288.351C11.0329 288.421 11.2383 288.537 11.516 288.568L11.651 287.376L11.786 286.183C12.0284 286.211 12.1871 286.308 12.2421 286.344C12.3187 286.394 12.3725 286.446 12.4092 286.488C12.4859 286.577 12.5233 286.666 12.5379 286.735C12.5714 286.893 12.4731 286.833 12.7168 286.47L11.7203 285.801ZM11.651 287.376L10.843 286.489C10.2288 287.048 9.92458 287.82 9.91066 288.515C9.9037 288.862 9.96824 289.273 10.1915 289.647C10.433 290.052 10.8556 290.39 11.4273 290.459L11.5711 289.268L11.7149 288.076C11.8279 288.09 11.9453 288.132 12.0497 288.204C12.1509 288.274 12.215 288.355 12.2525 288.418C12.3207 288.532 12.3095 288.597 12.3102 288.563C12.3116 288.493 12.3565 288.356 12.459 288.263L11.651 287.376ZM11.5711 289.268L10.4453 288.852C10.161 289.623 10.1584 290.463 10.608 291.14C11.0648 291.827 11.8617 292.132 12.6342 291.987L12.4131 290.808L12.192 289.628C12.249 289.618 12.3278 289.62 12.4121 289.655C12.4978 289.69 12.565 289.748 12.6068 289.811C12.6987 289.95 12.5947 289.96 12.6969 289.683L11.5711 289.268ZM12.4131 290.808L11.3385 290.274C10.8638 291.229 11.163 292.203 11.7286 292.805C12.2758 293.388 13.1845 293.749 14.1211 293.452L13.7588 292.308L13.3964 291.164C13.4305 291.153 13.4605 291.157 13.4736 291.161C13.4789 291.163 13.4805 291.164 13.4797 291.163C13.4788 291.163 13.478 291.162 13.478 291.162C13.478 291.162 13.481 291.165 13.4853 291.173C13.4897 291.182 13.4959 291.196 13.5 291.218C13.5042 291.24 13.5054 291.265 13.5019 291.291C13.4984 291.317 13.4914 291.335 13.4877 291.342L12.4131 290.808ZM13.7588 292.308L12.5992 292.617C12.7956 293.354 13.2242 293.916 13.7976 294.283C14.3443 294.633 14.9597 294.768 15.5129 294.8C16.5995 294.862 17.7441 294.544 18.5165 294.15L17.9716 293.081L17.4267 292.012C16.9654 292.247 16.242 292.438 15.6499 292.404C15.3637 292.387 15.1871 292.323 15.0919 292.262C15.0235 292.218 14.9604 292.157 14.9183 291.999L13.7588 292.308ZM17.9716 293.081L16.7769 293.194C16.9322 294.833 18.1631 295.714 19.2767 296.113C20.3859 296.51 21.6566 296.556 22.5947 296.389L22.3843 295.207L22.1739 294.026C21.6011 294.128 20.7588 294.095 20.0859 293.854C19.4175 293.614 19.1975 293.298 19.1662 292.968L17.9716 293.081ZM22.3843 295.207L22.5957 296.388C24.4932 296.049 26.4064 295.459 28.1159 294.133L27.3805 293.185L26.6452 292.236C25.3649 293.229 23.878 293.721 22.1728 294.026L22.3843 295.207ZM27.3805 293.185L28.115 294.134C28.5973 293.76 29.0665 293.118 29.3741 292.692C29.555 292.441 29.6959 292.24 29.829 292.062C29.9803 291.859 30.0255 291.82 29.9984 291.843L29.2218 290.928L28.4452 290.013C28.233 290.193 28.035 290.453 27.9058 290.626C27.7584 290.823 27.5816 291.074 27.4281 291.287C27.0668 291.788 26.8006 292.116 26.646 292.236L27.3805 293.185ZM29.2218 290.928L29.9952 291.845C30.4577 291.456 31.0474 291.15 31.8057 290.755C32.511 290.388 33.3689 289.939 34.0855 289.294L33.2827 288.402L32.48 287.51C32.0241 287.92 31.4365 288.241 30.6968 288.627C30.0102 288.984 29.1557 289.414 28.4485 290.01L29.2218 290.928ZM33.2827 288.402L34.0855 289.294C34.8094 288.642 35.2452 287.805 35.5633 287.124C35.9203 286.36 36.1131 285.852 36.3996 285.426L35.4038 284.756L34.4081 284.087C33.9831 284.719 33.6483 285.553 33.3891 286.108C33.091 286.746 32.8219 287.202 32.48 287.51L33.2827 288.402ZM35.4038 284.756L36.3992 285.427C36.662 285.036 37.121 284.566 37.6747 284.171C38.2357 283.77 38.7887 283.52 39.2148 283.453L39.0278 282.268L38.8407 281.082C37.9159 281.228 37.0139 281.693 36.2792 282.218C35.5373 282.748 34.8598 283.416 34.4085 284.086L35.4038 284.756ZM39.0278 282.268L39.2126 283.453C40.1866 283.301 41.3992 283.042 42.511 282.525C43.626 282.006 44.741 281.178 45.3425 279.839L44.2478 279.347L43.1532 278.855C42.87 279.486 42.3063 279.973 41.4981 280.349C40.6866 280.727 39.7315 280.943 38.8429 281.082L39.0278 282.268ZM44.2478 279.347L45.3428 279.838C46.3752 277.536 45.9912 274.551 45.5057 272.514L44.3384 272.792L43.1711 273.07C43.6396 275.036 43.8365 277.332 43.1529 278.856L44.2478 279.347ZM44.3384 272.792L45.5053 272.512C45.3344 271.8 45.0419 270.866 44.8755 270.235C44.6833 269.506 44.5644 268.876 44.5737 268.314L43.3738 268.294L42.174 268.274C42.1593 269.172 42.3469 270.059 42.5549 270.847C42.7889 271.734 42.9907 272.318 43.1716 273.072L44.3384 272.792ZM43.3738 268.294L44.5737 268.313C44.5736 268.317 44.5742 268.293 44.583 268.224C44.5914 268.159 44.6037 268.079 44.6207 267.973C44.6531 267.773 44.7004 267.495 44.7397 267.191C44.819 266.579 44.8782 265.784 44.753 264.93L43.5657 265.105L42.3784 265.279C42.4584 265.824 42.4256 266.374 42.3597 266.883C42.3264 267.139 42.2877 267.366 42.2514 267.591C42.2207 267.781 42.1777 268.047 42.174 268.275L43.3738 268.294ZM43.5657 265.105L44.7527 264.929C44.6167 264.011 44.3224 263.224 44.0693 262.58C43.7988 261.892 43.6086 261.438 43.5245 260.992L42.3453 261.214L41.1661 261.437C41.3031 262.163 41.6086 262.881 41.8357 263.459C42.0802 264.081 42.2855 264.652 42.3787 265.281L43.5657 265.105ZM42.3453 261.214L43.5245 260.992C43.199 259.266 43.1757 257.442 43.1546 255.535L41.9546 255.548L40.7547 255.561C40.7754 257.429 40.7948 259.468 41.1661 261.437L42.3453 261.214ZM41.9546 255.548L43.1546 255.535L43.1535 255.437L41.9536 255.451L40.7536 255.464L40.7547 255.561L41.9546 255.548ZM41.9536 255.451L43.1535 255.436C43.0914 250.248 44.6402 244.914 45.6486 239.512L44.469 239.292L43.2894 239.072C42.342 244.147 40.6878 249.962 40.7537 255.465L41.9536 255.451ZM44.469 239.292L45.6486 239.512C46.917 232.723 48.3944 225.664 48.7055 218.643L47.5067 218.59L46.3079 218.537C46.0062 225.346 44.5737 232.197 43.2894 239.072L44.469 239.292ZM47.5067 218.59L48.7056 218.643C48.9001 214.244 48.7569 209.827 48.265 205.422L47.0724 205.555L45.8798 205.688C46.3578 209.969 46.497 214.261 46.3079 218.537L47.5067 218.59ZM47.0724 205.555L48.2649 205.421C48.1967 204.815 48.1103 204.203 48.0262 203.608C47.9414 203.006 47.8587 202.42 47.7928 201.838C47.6605 200.671 47.6033 199.579 47.7256 198.559L46.5341 198.416L45.3426 198.273C45.1878 199.566 45.2678 200.871 45.408 202.108C45.4783 202.729 45.5657 203.347 45.6498 203.943C45.7347 204.544 45.8162 205.122 45.8799 205.689L47.0724 205.555ZM46.5341 198.416L47.7256 198.559C48.0962 195.459 49.1712 192.376 50.3193 189.134C51.4505 185.94 52.6541 182.589 53.1269 179.146L51.9381 178.983L50.7492 178.819C50.316 181.974 49.2067 185.086 48.057 188.333C46.9241 191.531 45.7501 194.866 45.3426 198.274L46.5341 198.416ZM51.9381 178.983L53.1269 179.146C53.5806 175.84 53.5117 172.504 53.4076 169.259C53.3024 165.983 53.1624 162.814 53.4321 159.69L52.2365 159.587L51.0409 159.483C50.7563 162.781 50.9054 166.116 51.0088 169.336C51.1132 172.587 51.1722 175.738 50.7492 178.819L51.9381 178.983ZM52.2365 159.587L53.4321 159.69C54.0577 152.429 55.2087 145.075 56.3533 137.765L55.1678 137.58L53.9822 137.394C52.8399 144.689 51.6749 152.126 51.0409 159.483L52.2365 159.587ZM55.1678 137.58L56.3533 137.765L56.3772 137.613L55.1916 137.427L54.0061 137.242L53.9822 137.394L55.1678 137.58ZM55.1916 137.427L56.3771 137.613C57.0489 133.329 57.7362 129.076 58.688 124.892L57.5179 124.626L56.3478 124.36C55.3757 128.633 54.6774 132.961 54.0061 137.241L55.1916 137.427ZM57.5179 124.626L58.6882 124.892C58.7839 124.469 58.8814 123.768 58.9828 123.024C59.0883 122.249 59.2056 121.366 59.3432 120.5C59.4815 119.629 59.6348 118.813 59.8062 118.175C59.8921 117.855 59.975 117.609 60.0506 117.435C60.1383 117.233 60.17 117.238 60.0969 117.304L59.2979 116.408L58.4988 115.513C58.1779 115.799 57.9783 116.182 57.8496 116.478C57.7088 116.802 57.5903 117.173 57.4883 117.553C57.2838 118.314 57.115 119.229 56.9729 120.123C56.8301 121.022 56.7085 121.938 56.6047 122.7C56.4968 123.492 56.4143 124.066 56.3476 124.361L57.5179 124.626ZM59.2979 116.408L60.0951 117.305C59.9356 117.447 59.7709 117.516 59.6557 117.551C59.5417 117.586 59.4464 117.595 59.3894 117.598C59.2818 117.604 59.2043 117.591 59.194 117.59C59.1744 117.587 59.1662 117.585 59.1825 117.588C59.2 117.592 59.2135 117.595 59.2504 117.603C59.3114 117.617 59.4098 117.639 59.5224 117.656C59.6355 117.672 59.7798 117.687 59.9417 117.682L59.9081 116.483L59.8744 115.283C59.8973 115.283 59.8878 115.287 59.7777 115.262C59.7545 115.257 59.6451 115.231 59.5527 115.217C59.5052 115.209 59.3959 115.194 59.263 115.201C59.1651 115.206 58.8157 115.231 58.5006 115.511L59.2979 116.408ZM59.9081 116.483L59.9291 117.683C60.0876 117.68 60.2302 117.661 60.3423 117.641C60.4545 117.621 60.5542 117.597 60.6193 117.581C60.6572 117.572 60.6753 117.568 60.6955 117.563C60.715 117.558 60.7125 117.559 60.6994 117.562C60.6956 117.562 60.6286 117.575 60.5331 117.574C60.4832 117.574 60.3916 117.57 60.2792 117.543C60.1692 117.517 59.9852 117.455 59.8033 117.303L60.5716 116.382L61.3399 115.46C61.1519 115.303 60.9599 115.238 60.8398 115.209C60.7175 115.18 60.614 115.175 60.5504 115.174C60.4275 115.173 60.3259 115.19 60.2814 115.198C60.192 115.214 60.0857 115.241 60.0522 115.249C59.9954 115.263 59.9572 115.272 59.924 115.278C59.8907 115.283 59.8804 115.283 59.887 115.283L59.9081 116.483ZM60.5716 116.382L59.8076 117.307C59.7198 117.235 59.7468 117.215 59.8352 117.411C59.9105 117.579 59.9942 117.82 60.0812 118.138C60.2549 118.772 60.4093 119.588 60.5482 120.462C60.6864 121.332 60.8034 122.221 60.909 123.002C61.0103 123.753 61.108 124.462 61.2052 124.891L62.3755 124.626L63.5459 124.361C63.4779 124.061 63.3953 123.481 63.2874 122.681C63.1836 121.912 63.0621 120.99 62.9185 120.086C62.7756 119.187 62.605 118.268 62.3961 117.504C62.2918 117.124 62.1699 116.751 62.0234 116.426C61.8901 116.13 61.6792 115.74 61.3355 115.456L60.5716 116.382ZM62.3755 124.626L61.2053 124.892C62.1546 129.076 62.8447 133.33 63.5163 137.613L64.7018 137.427L65.8873 137.241C65.2159 132.96 64.5151 128.633 63.5458 124.361L62.3755 124.626ZM64.7018 137.427L63.5163 137.613C64.668 144.966 65.8049 152.347 66.4617 159.693L67.6569 159.587L68.8521 159.48C68.1873 152.043 67.0379 144.587 65.8873 137.241L64.7018 137.427ZM67.6569 159.587L66.4617 159.694C66.7428 162.828 66.6024 165.996 66.4939 169.267C66.3864 172.507 66.3113 175.838 66.7666 179.146L67.9554 178.983L69.1441 178.819C68.7201 175.737 68.7848 172.595 68.8926 169.346C68.9992 166.129 69.1493 162.793 68.8521 159.479L67.6569 159.587ZM67.9554 178.983L66.7665 179.146C67.2393 182.589 68.4429 185.94 69.5741 189.134C70.7222 192.376 71.7972 195.459 72.1678 198.559L73.3593 198.416L74.5508 198.274C74.1433 194.866 72.9693 191.531 71.8364 188.333C70.6867 185.086 69.5774 181.974 69.1442 178.819L67.9554 178.983ZM73.3593 198.416L72.1678 198.559C72.2901 199.579 72.2329 200.67 72.1006 201.837C72.0347 202.419 71.952 203.005 71.8672 203.606C71.7831 204.202 71.6967 204.814 71.6285 205.421L72.821 205.555L74.0135 205.689C74.0772 205.122 74.1587 204.543 74.2436 203.942C74.3277 203.346 74.4151 202.728 74.4854 202.107C74.6256 200.87 74.7056 199.566 74.5508 198.273L73.3593 198.416ZM72.821 205.555L71.6285 205.421C71.1338 209.828 70.9933 214.244 71.1879 218.643L72.3867 218.59L73.5855 218.537C73.3963 214.26 73.533 209.969 74.0135 205.689L72.821 205.555ZM72.3867 218.59L71.1879 218.643C71.499 225.664 72.9736 232.719 74.2449 239.513L75.4244 239.292L76.6039 239.071C75.3171 232.195 73.8872 225.346 73.5855 218.537L72.3867 218.59ZM75.4244 239.292L74.2448 239.512C75.2532 244.914 76.802 250.248 76.7399 255.436L77.9398 255.451L79.1398 255.465C79.2056 249.962 77.5514 244.147 76.604 239.072L75.4244 239.292ZM77.9398 255.451L76.7399 255.436L76.7377 255.619L77.9376 255.634L79.1375 255.649L79.1397 255.465L77.9398 255.451ZM77.9376 255.634L76.7377 255.619C76.7145 257.499 76.6893 259.294 76.3689 260.992L77.5481 261.214L78.7273 261.437C79.0932 259.497 79.1148 257.49 79.1375 255.649L77.9376 255.634ZM77.5481 261.214L76.3689 260.992C76.2848 261.438 76.0948 261.891 75.8242 262.579C75.571 263.223 75.2766 264.01 75.1407 264.929L76.3277 265.105L77.5148 265.28C77.608 264.651 77.8132 264.079 78.0576 263.458C78.2847 262.881 78.5903 262.163 78.7273 261.437L77.5481 261.214ZM76.3277 265.105L75.1404 264.93C75.0152 265.784 75.0744 266.58 75.1536 267.192C75.193 267.496 75.2403 267.774 75.2727 267.975C75.2897 268.08 75.3021 268.16 75.3104 268.225C75.3192 268.294 75.3198 268.317 75.3197 268.314L76.5196 268.294L77.7194 268.275C77.7158 268.047 77.6726 267.782 77.642 267.592C77.6057 267.367 77.567 267.14 77.5338 266.884C77.4678 266.375 77.435 265.824 77.515 265.279L76.3277 265.105ZM76.5196 268.294L75.3197 268.314C75.3289 268.873 75.2071 269.503 75.0116 270.236C74.8366 270.893 74.5543 271.786 74.3852 272.524L75.555 272.792L76.7247 273.06C76.8887 272.344 77.1007 271.717 77.3307 270.854C77.5403 270.068 77.7342 269.176 77.7194 268.274L76.5196 268.294ZM75.555 272.792L74.385 272.525C74.1444 273.58 73.9216 274.841 73.8852 276.104C73.8491 277.353 73.9916 278.706 74.5692 279.878L75.6456 279.347L76.722 278.817C76.3882 278.139 76.2536 277.231 76.2842 276.173C76.3143 275.129 76.5019 274.037 76.7249 273.059L75.555 272.792ZM75.6456 279.347L74.5686 279.877C75.1893 281.139 76.2437 281.953 77.3406 282.482C78.4311 283.008 79.6325 283.287 80.6777 283.453L80.8656 282.268L81.0536 281.082C80.1162 280.934 79.174 280.702 78.3832 280.32C77.5988 279.942 77.0345 279.453 76.7225 278.818L75.6456 279.347ZM80.8656 282.268L80.6767 283.453C81.1065 283.521 81.6613 283.771 82.2214 284.171C82.7748 284.566 83.2318 285.035 83.4923 285.424L84.4896 284.756L85.4869 284.089C85.0359 283.415 84.3577 282.747 83.6155 282.218C82.8799 281.693 81.9784 281.23 81.0546 281.083L80.8656 282.268ZM84.4896 284.756L83.4938 285.426C83.7803 285.852 83.9731 286.36 84.3301 287.124C84.6482 287.805 85.084 288.642 85.8079 289.294L86.6107 288.402L87.4134 287.51C87.0715 287.202 86.8024 286.746 86.5043 286.108C86.2451 285.553 85.9103 284.719 85.4853 284.087L84.4896 284.756ZM86.6107 288.402L85.8079 289.294C86.5245 289.939 87.3824 290.388 88.0877 290.755C88.846 291.15 89.4357 291.456 89.8982 291.845L90.6716 290.928L91.445 290.01C90.7377 289.414 89.8832 288.984 89.1966 288.627C88.4569 288.241 87.8693 287.92 87.4134 287.51L86.6107 288.402ZM90.6716 290.928L89.8988 291.846C89.8696 291.821 89.9136 291.859 90.0651 292.061C90.1975 292.238 90.3389 292.44 90.5193 292.69C90.8269 293.116 91.2954 293.758 91.7759 294.132L92.5129 293.185L93.2499 292.238C93.0935 292.116 92.8266 291.786 92.4653 291.285C92.3113 291.072 92.1349 290.821 91.9869 290.624C91.8579 290.451 91.6588 290.19 91.4444 290.01L90.6716 290.928ZM92.5129 293.185L91.7786 294.134C93.4752 295.446 95.4258 296.108 97.3311 296.394L97.5091 295.207L97.6872 294.021C96.0751 293.779 94.5404 293.236 93.2472 292.236L92.5129 293.185ZM97.5091 295.207L97.3318 296.394C98.2232 296.527 99.4773 296.509 100.59 296.128C101.721 295.741 102.952 294.869 103.116 293.198L101.922 293.081L100.728 292.964C100.691 293.332 100.465 293.634 99.8137 293.857C99.1449 294.086 98.2926 294.111 97.6865 294.02L97.5091 295.207ZM101.922 293.081L101.373 294.148C102.154 294.549 103.298 294.866 104.384 294.801C104.937 294.767 105.55 294.63 106.094 294.28C106.664 293.914 107.092 293.356 107.292 292.625L106.135 292.308L104.977 291.991C104.933 292.151 104.868 292.215 104.797 292.261C104.7 292.323 104.523 292.388 104.24 292.405C103.653 292.44 102.934 292.252 102.47 292.014L101.922 293.081ZM106.135 292.308L105.772 293.452C106.709 293.749 107.618 293.388 108.165 292.805C108.73 292.203 109.03 291.229 108.555 290.274L107.48 290.808L106.406 291.342C106.402 291.335 106.395 291.317 106.391 291.291C106.388 291.265 106.389 291.24 106.393 291.218C106.397 291.196 106.404 291.182 106.408 291.173C106.412 291.165 106.415 291.162 106.415 291.162C106.415 291.162 106.415 291.163 106.414 291.163C106.413 291.164 106.415 291.163 106.42 291.161C106.433 291.157 106.463 291.153 106.497 291.164L106.135 292.308ZM107.48 290.808L107.259 291.987C108.032 292.132 108.829 291.827 109.285 291.14C109.735 290.463 109.732 289.623 109.448 288.852L108.322 289.268L107.197 289.683C107.299 289.96 107.195 289.95 107.287 289.811C107.328 289.748 107.396 289.69 107.481 289.655C107.566 289.62 107.644 289.618 107.701 289.628L107.48 290.808ZM108.322 289.268L108.466 290.459C109.038 290.39 109.46 290.052 109.702 289.647C109.925 289.273 109.99 288.862 109.983 288.515C109.969 287.82 109.665 287.048 109.05 286.489L108.242 287.376L107.434 288.263C107.537 288.356 107.582 288.493 107.583 288.563C107.584 288.597 107.573 288.532 107.641 288.418C107.678 288.355 107.743 288.274 107.844 288.204C107.948 288.132 108.065 288.09 108.179 288.076L108.322 289.268ZM108.242 287.376L108.377 288.568C108.655 288.537 108.861 288.421 108.967 288.351C109.096 288.267 109.207 288.166 109.3 288.058C109.489 287.84 109.634 287.559 109.704 287.232C109.846 286.557 109.643 285.838 109.17 285.133L108.173 285.801L107.177 286.47C107.42 286.833 107.322 286.893 107.356 286.735C107.37 286.666 107.408 286.577 107.484 286.488C107.521 286.446 107.575 286.394 107.651 286.344C107.706 286.308 107.865 286.211 108.107 286.183L108.242 287.376ZM108.173 285.801L109.169 285.132C108.772 284.54 108.032 283.977 107.501 283.596C107.208 283.385 106.917 283.188 106.682 283.028C106.429 282.854 106.271 282.745 106.19 282.68L105.442 283.619L104.694 284.557C104.862 284.691 105.106 284.857 105.33 285.01C105.573 285.176 105.837 285.355 106.1 285.544C106.681 285.962 107.057 286.292 107.177 286.47L108.173 285.801ZM105.442 283.619L106.188 282.679C105.641 282.245 105.117 281.769 104.521 281.251C103.944 280.747 103.316 280.219 102.636 279.76L101.964 280.754L101.293 281.749C101.844 282.121 102.379 282.568 102.945 283.06C103.493 283.537 104.092 284.079 104.696 284.558L105.442 283.619ZM101.964 280.754L102.636 279.76C102.113 279.406 101.527 279.046 100.96 278.693C100.382 278.333 99.8103 277.973 99.2697 277.594C98.1646 276.82 97.3209 276.057 96.8792 275.254L95.8277 275.832L94.7762 276.411C95.4937 277.715 96.7191 278.738 97.8929 279.56C98.4918 279.979 99.1122 280.37 99.6913 280.73C100.281 281.097 100.817 281.427 101.292 281.748L101.964 280.754ZM95.8277 275.832L96.8787 275.253C95.9739 273.611 94.6314 271.913 93.5122 270.389C92.3388 268.79 91.4085 267.38 91.0363 266.121L89.8855 266.461L88.7347 266.801C89.2419 268.518 90.4274 270.242 91.5775 271.809C92.782 273.45 93.9708 274.949 94.7768 276.412L95.8277 275.832ZM89.8855 266.461L91.0362 266.12C90.6354 264.766 90.8161 262.855 91.259 260.592C91.4757 259.485 91.739 258.363 91.9925 257.233C92.2426 256.117 92.4823 254.996 92.6322 253.953L91.4444 253.782L90.2565 253.612C90.1213 254.554 89.9003 255.594 89.6507 256.707C89.4044 257.806 89.1287 258.981 88.9037 260.131C88.4633 262.382 88.1497 264.824 88.7349 266.801L89.8855 266.461ZM91.4444 253.782L92.6322 253.953C94.6908 239.585 97.6311 224.308 97.827 209.778L96.6271 209.762L95.4272 209.746C95.2341 224.07 92.3388 239.079 90.2565 253.612L91.4444 253.782ZM96.6271 209.762L97.827 209.778C97.8728 206.349 97.2804 202.966 96.6498 199.705C96.012 196.406 95.3406 193.252 95.1441 190.11L93.9465 190.185L92.7488 190.26C92.9574 193.595 93.6703 196.937 94.2935 200.16C94.9239 203.421 95.4694 206.588 95.4272 209.746L96.6271 209.762ZM93.9465 190.185L95.1442 190.11C95.0461 188.533 95.1097 186.907 95.1866 185.208C95.2625 183.529 95.3518 181.772 95.2841 180.031L94.085 180.078L92.8859 180.124C92.9489 181.744 92.8663 183.39 92.789 185.099C92.7126 186.788 92.6417 188.535 92.7488 190.259L93.9465 190.185ZM94.085 180.078L95.2841 180.031C95.1391 176.284 94.8113 172.522 95.5355 169.146L94.3622 168.894L93.1889 168.643C92.3835 172.397 92.7485 176.575 92.8859 180.124L94.085 180.078ZM94.3622 168.894L95.5355 169.146C97.564 159.692 99.4066 149.897 100.284 140.111L99.0893 140.004L97.8941 139.897C97.0293 149.537 95.2106 159.22 93.1889 168.642L94.3622 168.894ZM99.0893 140.004L100.284 140.111C101.449 127.151 102.142 113.813 101.866 100.866L100.667 100.892L99.467 100.918C99.7403 113.749 99.0533 126.993 97.8941 139.897L99.0893 140.004ZM100.667 100.892L101.866 100.866C101.668 91.6158 100.264 85.6271 98.6998 80.7017C97.1198 75.7265 95.5012 72.1434 94.7124 67.3156L93.5281 67.5091L92.3438 67.7026C93.1698 72.758 94.9247 76.7439 96.4124 81.4281C97.9158 86.1621 99.2739 91.9232 99.467 100.918L100.667 100.892ZM93.5281 67.5091L94.7124 67.3154C93.9168 62.4493 93.3861 57.1835 93.1477 52.571C92.9078 47.9296 92.9692 44.044 93.3214 41.8959L92.1372 41.7018L90.953 41.5077C90.5564 43.9268 90.5098 48.0313 90.7509 52.6949C90.9935 57.3874 91.5327 62.7416 92.3439 67.7027L93.5281 67.5091ZM92.1372 41.7018L93.3213 41.896C93.93 38.1854 94.5607 33.8105 94.9694 29.8149C95.374 25.8583 95.575 22.1517 95.275 19.8435L94.085 19.9981L92.895 20.1527C93.1547 22.1506 92.9879 25.5999 92.5818 29.5707C92.1797 33.5025 91.5568 37.8264 90.953 41.5076L92.1372 41.7018ZM94.085 19.9981L92.9143 20.2617C93.3141 22.0372 95.9296 37.5114 96.3705 41.2893L97.5624 41.1502L98.7543 41.0111C98.3052 37.1627 95.6767 21.6042 95.2557 19.7345L94.085 19.9981ZM97.5624 41.1502L96.3705 41.289C97.4275 50.3698 98.1189 55.745 100.289 64.7317L101.455 64.45L102.622 64.1684C100.486 55.3231 99.8078 50.061 98.7544 41.0115L97.5624 41.1502ZM101.455 64.45L100.289 64.7316C101.224 68.6065 102.153 71.6642 103.142 74.8161C104.131 77.9678 105.177 81.204 106.364 85.4783L107.52 85.1571L108.677 84.836C107.476 80.5141 106.416 77.2325 105.432 74.0976C104.448 70.9629 103.539 67.9651 102.622 64.1684L101.455 64.45ZM107.52 85.1571L106.364 85.4783C106.94 87.5528 107.086 89.4627 106.553 91.3266L107.707 91.6562L108.861 91.9859C109.554 89.5597 109.326 87.1742 108.676 84.836L107.52 85.1571ZM107.707 91.6562L106.553 91.3261C106.012 93.2169 105.657 94.6385 104.688 95.9991L105.666 96.6951L106.643 97.3912C107.902 95.6234 108.357 93.7462 108.86 91.9864L107.707 91.6562ZM105.666 96.6951L104.689 95.9983C103.212 98.0693 102.223 101.153 101.915 103.547L103.105 103.701L104.295 103.854C104.568 101.734 105.455 99.0569 106.643 97.392L105.666 96.6951ZM103.105 103.701L101.915 103.548C101.759 104.764 101.849 106.08 101.905 107.206C101.964 108.398 101.988 109.396 101.807 110.23L102.98 110.485L104.152 110.739C104.411 109.548 104.359 108.239 104.302 107.087C104.241 105.87 104.173 104.806 104.295 103.853L103.105 103.701ZM102.98 110.485L101.807 110.229C101.717 110.644 101.598 111.3 101.536 111.982C101.477 112.621 101.448 113.451 101.639 114.12L102.793 113.792L103.947 113.463C103.887 113.253 103.87 112.808 103.925 112.202C103.977 111.64 104.077 111.083 104.152 110.741L102.98 110.485ZM102.793 113.792L101.639 114.12C101.633 114.1 101.644 114.13 101.648 114.238C101.651 114.339 101.649 114.469 101.638 114.633C101.616 114.966 101.569 115.351 101.516 115.777C101.467 116.181 101.412 116.633 101.393 117.026C101.383 117.223 101.38 117.438 101.399 117.645C101.415 117.831 101.456 118.118 101.599 118.399L102.668 117.853L103.737 117.307C103.802 117.434 103.796 117.508 103.789 117.433C103.785 117.379 103.783 117.286 103.79 117.143C103.804 116.854 103.847 116.494 103.899 116.069C103.948 115.666 104.006 115.205 104.033 114.789C104.057 114.412 104.072 113.901 103.947 113.463L102.793 113.792ZM102.668 117.853L101.599 118.399C101.872 118.932 102.323 119.377 102.845 119.647C103.366 119.918 104.083 120.071 104.803 119.781L104.355 118.668L103.906 117.555C104.011 117.513 104.04 117.564 103.95 117.517C103.911 117.497 103.866 117.465 103.824 117.423C103.782 117.381 103.753 117.339 103.737 117.307L102.668 117.853ZM104.355 118.668L104.806 119.78C106.057 119.272 106.908 118.031 107.438 116.926C107.991 115.772 108.34 114.459 108.423 113.415L107.227 113.32L106.031 113.225C105.973 113.953 105.709 114.98 105.273 115.889C104.814 116.848 104.299 117.395 103.903 117.556L104.355 118.668ZM107.227 113.32L108.423 113.416C108.482 112.688 108.484 111.917 108.494 111.22C108.505 110.5 108.524 109.838 108.604 109.227L107.414 109.072L106.224 108.918C106.125 109.679 106.105 110.463 106.095 111.184C106.084 111.929 106.082 112.596 106.031 113.224L107.227 113.32ZM107.414 109.072L108.603 109.229C108.601 109.246 108.608 109.188 108.686 109.053C108.758 108.928 108.86 108.788 108.976 108.654C109.093 108.519 109.204 108.413 109.278 108.351C109.317 108.318 109.327 108.314 109.309 108.325C109.301 108.33 109.265 108.352 109.207 108.376C109.177 108.389 109.13 108.407 109.068 108.423C109.01 108.438 108.912 108.458 108.789 108.458V107.258V106.058C108.541 106.058 108.352 106.132 108.279 106.163C108.185 106.202 108.106 106.247 108.05 106.282C107.936 106.352 107.83 106.434 107.739 106.509C107.554 106.664 107.352 106.863 107.162 107.083C106.827 107.469 106.324 108.151 106.224 108.916L107.414 109.072ZM108.789 107.258V108.458C108.478 108.458 108.264 108.335 108.219 108.31C108.144 108.267 108.094 108.226 108.077 108.213C108.042 108.183 108.03 108.168 108.05 108.189C108.084 108.226 108.147 108.301 108.239 108.42C108.418 108.652 108.65 108.979 108.879 109.329C109.109 109.681 109.32 110.03 109.463 110.308C109.536 110.449 109.579 110.548 109.6 110.604C109.61 110.633 109.608 110.631 109.602 110.605C109.6 110.592 109.578 110.489 109.596 110.339L110.787 110.487L111.978 110.636C112.025 110.26 111.905 109.921 111.856 109.785C111.786 109.592 111.692 109.392 111.595 109.205C111.4 108.828 111.141 108.403 110.887 108.015C110.631 107.624 110.363 107.244 110.139 106.954C110.029 106.812 109.916 106.673 109.812 106.56C109.763 106.507 109.691 106.433 109.608 106.364C109.567 106.33 109.496 106.275 109.403 106.222C109.34 106.186 109.111 106.058 108.789 106.058V107.258ZM110.787 110.487L109.596 110.341C109.51 111.043 109.449 111.807 109.39 112.56C109.331 113.323 109.275 114.078 109.198 114.802C109.038 116.311 108.805 117.439 108.44 118.066L109.476 118.671L110.513 119.275C111.17 118.149 111.428 116.529 111.585 115.056C111.666 114.289 111.725 113.494 111.783 112.745C111.842 111.986 111.899 111.275 111.978 110.634L110.787 110.487ZM109.476 118.671L108.439 118.066C108.341 118.236 108.129 118.475 107.75 118.803C107.378 119.126 106.948 119.451 106.452 119.839C105.549 120.545 104.352 121.502 103.774 122.705L104.856 123.225L105.937 123.744C106.231 123.132 106.942 122.502 107.93 121.73C108.379 121.379 108.89 120.992 109.324 120.615C109.751 120.244 110.209 119.796 110.513 119.275L109.476 118.671ZM104.856 123.225L103.773 122.706C103.344 123.602 103.382 124.608 103.493 125.285C103.551 125.642 103.64 125.973 103.743 126.238C103.791 126.365 103.859 126.518 103.95 126.66C103.993 126.728 104.072 126.842 104.192 126.953C104.278 127.032 104.597 127.311 105.097 127.288L105.042 126.089L104.987 124.89C105.465 124.868 105.76 125.135 105.818 125.188C105.912 125.274 105.962 125.352 105.974 125.37C106.003 125.416 106.002 125.427 105.982 125.375C105.947 125.284 105.897 125.114 105.861 124.897C105.784 124.429 105.816 123.998 105.938 123.743L104.856 123.225ZM105.042 126.089L105.111 127.287C105.892 127.242 106.763 126.969 107.602 126.62C108.462 126.263 109.377 125.788 110.269 125.267C112.051 124.228 113.825 122.961 115 121.961L114.222 121.048L113.444 120.134C112.386 121.034 110.73 122.221 109.061 123.194C108.228 123.68 107.412 124.1 106.681 124.404C105.93 124.716 105.353 124.869 104.973 124.891L105.042 126.089ZM114.222 121.048L114.999 121.962C116.476 120.706 117.84 118.408 118.879 116.109C119.933 113.777 120.748 111.227 121.029 109.313L119.842 109.139L118.654 108.965C118.416 110.592 117.686 112.922 116.692 115.121C115.683 117.353 114.497 119.239 113.445 120.133L114.222 121.048ZM119.842 109.139L121.029 109.314C121.407 106.749 121.091 103.962 120.72 101.318C120.339 98.6075 119.903 96.0592 119.917 93.7179L118.717 93.7107L117.517 93.7035C117.502 96.2706 117.979 99.0623 118.343 101.652C118.716 104.308 118.977 106.781 118.655 108.964L119.842 109.139ZM118.717 93.7107H119.917C119.917 92.921 119.988 92.0788 120.078 91.1927C120.167 90.3274 120.277 89.3932 120.34 88.5123L119.144 88.4267L117.947 88.341C117.887 89.1736 117.785 90.0273 117.691 90.9487C117.599 91.8492 117.517 92.7924 117.517 93.7107H118.717ZM77.7773 -75.9857C78.9692 -75.8465 78.9692 -75.8467 78.9693 -75.847C78.9693 -75.8471 78.9693 -75.8474 78.9693 -75.8477C78.9694 -75.8482 78.9695 -75.8489 78.9696 -75.8498C78.9698 -75.8515 78.97 -75.8538 78.9704 -75.8567C78.971 -75.8625 78.972 -75.8708 78.9732 -75.8815C78.9756 -75.9029 78.979 -75.9339 78.9833 -75.9741C78.9919 -76.0543 79.004 -76.1711 79.0185 -76.321C79.0475 -76.6208 79.0861 -77.053 79.1249 -77.5893C79.2024 -78.6609 79.2814 -80.1529 79.2874 -81.8364C79.2991 -85.1602 79.0288 -89.3944 77.7965 -92.5918L76.6768 -92.1602L75.5571 -91.7287C76.6191 -88.9732 76.899 -85.1202 76.8874 -81.8449C76.8817 -80.2289 76.8057 -78.7935 76.7311 -77.7625C76.6938 -77.2475 76.657 -76.8346 76.6297 -76.5521C76.616 -76.4109 76.6048 -76.3023 76.597 -76.2299C76.5931 -76.1937 76.5901 -76.1666 76.5881 -76.1489C76.5871 -76.1401 76.5864 -76.1337 76.5859 -76.1297C76.5857 -76.1276 76.5856 -76.1262 76.5855 -76.1255C76.5854 -76.1251 76.5854 -76.1248 76.5854 -76.1247C76.5854 -76.1247 76.5854 -76.1247 76.5854 -76.1247C76.5854 -76.1248 76.5854 -76.1249 77.7773 -75.9857ZM76.6768 -92.1602L77.7965 -92.5918C75.8608 -97.6138 69.9278 -104.4 59.3618 -104.4V-103.2V-102C68.7488 -102 73.9062 -96.0118 75.5571 -91.7287L76.6768 -92.1602ZM59.3618 -103.2V-104.4H59.3512V-103.2V-102H59.3618V-103.2ZM59.3512 -103.2V-104.4H59.3405V-103.2V-102H59.3512V-103.2ZM59.3405 -103.2V-104.4C48.7718 -104.4 42.8415 -97.6136 40.9058 -92.5918L42.0255 -92.1602L43.1452 -91.7287C44.7962 -96.0119 49.9509 -102 59.3405 -102V-103.2ZM42.0255 -92.1602L40.9058 -92.5918C39.6735 -89.3945 39.4051 -85.1805 39.4189 -81.8756C39.4259 -80.2018 39.506 -78.7196 39.5843 -77.6553C39.6235 -77.1226 39.6624 -76.6934 39.6916 -76.3958C39.7062 -76.2469 39.7184 -76.1309 39.7271 -76.0512C39.7314 -76.0114 39.7349 -75.9806 39.7373 -75.9593C39.7385 -75.9487 39.7395 -75.9404 39.7402 -75.9346C39.7405 -75.9317 39.7408 -75.9294 39.741 -75.9277C39.7411 -75.9268 39.7411 -75.9262 39.7412 -75.9256C39.7412 -75.9253 39.7413 -75.9251 39.7413 -75.9249C39.7413 -75.9247 39.7413 -75.9245 40.933 -76.0657C42.1247 -76.2069 42.1247 -76.2068 42.1247 -76.2067C42.1247 -76.2067 42.1247 -76.2066 42.1247 -76.2067C42.1247 -76.2068 42.1247 -76.207 42.1246 -76.2074C42.1245 -76.2081 42.1244 -76.2095 42.1241 -76.2115C42.1237 -76.2155 42.1229 -76.2219 42.1219 -76.2306C42.1199 -76.2481 42.1169 -76.275 42.113 -76.3109C42.1052 -76.3826 42.0939 -76.4903 42.0801 -76.6304C42.0526 -76.9106 42.0155 -77.3203 41.9778 -77.8314C41.9025 -78.8547 41.8256 -80.2799 41.8189 -81.8856C41.8053 -85.1398 42.0832 -88.9731 43.1452 -91.7287L42.0255 -92.1602ZM40.933 -76.0657C41.6914 -76.9957 41.6909 -76.9961 41.6904 -76.9965C41.6902 -76.9966 41.6897 -76.997 41.6894 -76.9973C41.6887 -76.9978 41.6881 -76.9984 41.6874 -76.9989C41.686 -77 41.6846 -77.0012 41.6831 -77.0024C41.6801 -77.0047 41.677 -77.0073 41.6736 -77.0099C41.6669 -77.0152 41.6594 -77.021 41.6511 -77.0273C41.6345 -77.0399 41.6147 -77.0544 41.5917 -77.0704C41.5461 -77.1023 41.4866 -77.1409 41.4146 -77.1814C41.2745 -77.2601 41.066 -77.3576 40.8052 -77.4147C40.2206 -77.5428 39.4786 -77.4361 38.8582 -76.799L39.7179 -75.9618L40.5776 -75.1246C40.5897 -75.1369 40.5556 -75.0997 40.4718 -75.0771C40.3936 -75.0559 40.3277 -75.0624 40.2914 -75.0704C40.26 -75.0772 40.2439 -75.0862 40.2388 -75.0891C40.2343 -75.0917 40.2279 -75.0955 40.2186 -75.102C40.2138 -75.1054 40.2079 -75.1097 40.2007 -75.1151C40.1971 -75.1179 40.1931 -75.1209 40.1888 -75.1243C40.1866 -75.126 40.1844 -75.1278 40.182 -75.1297C40.1808 -75.1307 40.1796 -75.1316 40.1784 -75.1326C40.1778 -75.1331 40.1772 -75.1336 40.1765 -75.1341C40.1762 -75.1344 40.1758 -75.1348 40.1756 -75.1349C40.1751 -75.1353 40.1746 -75.1357 40.933 -76.0657ZM39.7179 -75.9618L38.8585 -76.7993C38.1543 -76.0767 38.133 -75.0294 38.1946 -74.3188C38.2637 -73.5198 38.4892 -72.637 38.7421 -71.8306C38.9985 -71.0127 39.3024 -70.2139 39.5557 -69.5719C39.8275 -68.8832 40.0036 -68.4633 40.065 -68.2722L41.2075 -68.6393L42.3499 -69.0064C42.2568 -69.2962 42.0162 -69.8749 41.7882 -70.4528C41.5417 -71.0774 41.2627 -71.8133 41.0322 -72.5486C40.798 -73.2954 40.6325 -73.9843 40.5856 -74.5258C40.5311 -75.1557 40.6686 -75.218 40.5773 -75.1242L39.7179 -75.9618ZM41.2075 -68.6393L40.0653 -68.2712C40.065 -68.2722 40.0821 -68.2086 40.1025 -68.0261C40.1214 -67.8576 40.1366 -67.6552 40.1554 -67.4025C40.1911 -66.9207 40.237 -66.2886 40.3508 -65.6716C40.4622 -65.0679 40.6584 -64.3565 41.0664 -63.7598C41.5093 -63.112 42.1989 -62.6129 43.1547 -62.5422L43.2433 -63.7389L43.3318 -64.9357C43.2071 -64.9449 43.1406 -64.9784 43.0475 -65.1145C42.9195 -65.3017 42.7998 -65.6255 42.711 -66.107C42.6246 -66.5753 42.586 -67.0783 42.5488 -67.5802C42.531 -67.8194 42.5125 -68.071 42.4876 -68.2936C42.4642 -68.5021 42.4272 -68.7665 42.3496 -69.0073L41.2075 -68.6393ZM43.2433 -63.7389L42.089 -63.4108C42.901 -60.5546 44.8606 -56.7875 47.5189 -53.9355L48.3967 -54.7537L49.2745 -55.5719C46.8859 -58.1345 45.1097 -61.562 44.3975 -64.0671L43.2433 -63.7389ZM71.1236 -55.2626L71.9799 -54.4219C74.5097 -56.9985 75.941 -61.0495 76.6109 -63.4115L75.4564 -63.7389L74.3019 -64.0663C73.6448 -61.7493 72.3422 -58.2166 70.2674 -56.1034L71.1236 -55.2626ZM75.4564 -63.7389L75.5434 -62.5421C76.4995 -62.6117 77.1896 -63.1101 77.633 -63.758C78.0412 -64.3545 78.2375 -65.066 78.3489 -65.6696C78.4627 -66.2866 78.5085 -66.9189 78.5443 -67.4011C78.5631 -67.6539 78.5782 -67.8566 78.5971 -68.0254C78.6176 -68.2081 78.6347 -68.2724 78.6347 -68.2721L77.4922 -68.6393L76.3497 -69.0064C76.2724 -68.7657 76.2354 -68.5013 76.2121 -68.2925C76.1871 -68.0698 76.1686 -67.818 76.1509 -67.5787C76.1136 -67.0764 76.075 -66.5732 75.9887 -66.105C75.8998 -65.6235 75.7802 -65.3001 75.6524 -65.1134C75.5598 -64.978 75.4938 -64.9448 75.3693 -64.9358L75.4564 -63.7389ZM77.4922 -68.6393L78.6344 -68.2712C78.7007 -68.477 78.8797 -68.9329 79.1404 -69.6322C79.3877 -70.2954 79.6839 -71.1153 79.9413 -71.9449C80.1955 -72.7643 80.4274 -73.6418 80.5266 -74.4097C80.5761 -74.792 80.5996 -75.197 80.5563 -75.5786C80.5152 -75.9399 80.3974 -76.4343 80.0266 -76.8339L79.1469 -76.0177L78.2673 -75.2015C78.1363 -75.3427 78.1563 -75.4426 78.1716 -75.3078C78.1846 -75.1932 78.183 -75.0003 78.1465 -74.7174C78.0737 -74.1548 77.8899 -73.4322 77.6491 -72.6561C77.4115 -71.8903 77.1335 -71.1194 76.8917 -70.4707C76.6633 -69.8582 76.4383 -69.2812 76.35 -69.0073L77.4922 -68.6393ZM79.1469 -76.0177L80.0282 -76.8322C79.7112 -77.1751 79.321 -77.4057 78.8811 -77.4887C78.4559 -77.5689 78.0806 -77.4933 77.8045 -77.3919C77.5318 -77.2917 77.3189 -77.1535 77.1819 -77.0511C77.1107 -76.998 77.0526 -76.949 77.0094 -76.9103C76.9876 -76.8908 76.9691 -76.8736 76.9542 -76.8592C76.9467 -76.852 76.9401 -76.8455 76.9343 -76.8398C76.9314 -76.8369 76.9287 -76.8342 76.9262 -76.8317C76.925 -76.8305 76.9238 -76.8293 76.9227 -76.8282C76.9222 -76.8276 76.9216 -76.827 76.9211 -76.8265C76.9208 -76.8262 76.9204 -76.8258 76.9203 -76.8257C76.9199 -76.8253 76.9195 -76.8249 77.7773 -75.9857C78.6351 -75.1466 78.6347 -75.1462 78.6343 -75.1458C78.6342 -75.1457 78.6339 -75.1453 78.6336 -75.1451C78.6331 -75.1446 78.6326 -75.1441 78.6322 -75.1436C78.6312 -75.1426 78.6303 -75.1417 78.6294 -75.1408C78.6276 -75.139 78.626 -75.1374 78.6245 -75.1359C78.6215 -75.1329 78.6189 -75.1304 78.6169 -75.1285C78.6128 -75.1245 78.6104 -75.1224 78.6096 -75.1216C78.6082 -75.1204 78.6115 -75.1234 78.6179 -75.1282C78.6361 -75.1418 78.6437 -75.1434 78.6321 -75.1391C78.6172 -75.1336 78.5437 -75.11 78.4362 -75.1303C78.314 -75.1533 78.2576 -75.212 78.2657 -75.2032L79.1469 -76.0177ZM48.3967 -54.7537L47.5183 -53.9361C47.5412 -53.9115 47.5644 -53.8869 47.588 -53.8624L48.4539 -54.6932L49.3198 -55.524C49.3046 -55.5398 49.2898 -55.5555 49.2751 -55.5713L48.3967 -54.7537ZM48.4539 -54.6932L47.2544 -54.6588C47.3551 -51.1465 47.5335 -48.2703 46.4517 -45.857L47.5467 -45.3661L48.6417 -44.8752C50.0022 -47.9101 49.7472 -51.4591 49.6534 -54.7277L48.4539 -54.6932ZM70.6908 -54.8415L71.5074 -53.9622C71.6697 -54.1129 71.8271 -54.2662 71.98 -54.422L71.1236 -55.2626L70.2673 -56.1033C70.1395 -55.9731 70.0086 -55.8456 69.8742 -55.7208L70.6908 -54.8415ZM71.8484 -45.3661L72.945 -45.8535C71.7389 -48.5671 71.7874 -50.9941 71.8863 -54.658L70.6868 -54.6903L69.4872 -54.7227C69.3901 -51.1262 69.2931 -48.1609 70.7518 -44.8787L71.8484 -45.3661ZM70.6868 -54.6903L71.8863 -54.658L71.8904 -54.8092L70.6908 -54.8415L69.4913 -54.8738L69.4872 -54.7227L70.6868 -54.6903Z" fill="#EAEAEA" mask="url(#path-1-outside-1_25_19793)"/>
<path d="M25.824 77.5255C33.437 91.7895 50.4269 119.22 51.5993 147.254C52.0683 158.465 51.4608 190.148 40.2665 196.074C46.8509 182.468 49.0839 165.379 47.2879 150.207C44.8737 129.798 30.9722 102.03 25.1126 80.374C25.1365 79.5 25.3097 78.1277 25.824 77.5255Z" fill="#C7C7C7"/>
<path d="M23.9586 85.3327C27.9583 97.1371 36.3067 117.085 38.8701 136.998C39.7468 143.803 37.4871 154.198 35.6485 160.391C34.2469 164.769 31.2492 163.887 30.7988 161.406C28.6751 151.294 23.8467 144.446 22.4664 135.098C20.1135 119.182 20.9422 99.8071 23.9586 85.3327Z" fill="#C7C7C7"/>
<path d="M43.328 104.593C47.3517 108.169 52.9421 110.517 54.5063 114.319C56.3183 118.724 54.954 131.981 53.3898 136.452C51.3753 122.031 45.561 110.964 43.328 104.593Z" fill="#C7C7C7"/>
<path d="M41.5216 136.465C41.5216 136.465 51.2263 175.089 39.3712 174.074C29.9702 173.267 41.5216 157.417 41.5216 136.465Z" fill="#C7C7C7"/>
<path d="M21.6434 142.644C20.375 135.665 30.2902 162.456 30.61 167.985C30.8605 172.31 27.479 177.93 27.2845 174.612C26.8582 167.343 22.7173 151.24 21.6434 142.644Z" fill="#C7C7C7"/>
<path d="M94.0418 77.5255C86.4289 91.7895 69.439 119.22 68.2665 147.254C67.7976 158.465 68.4051 190.148 79.5993 196.074C73.015 182.468 70.782 165.379 72.578 150.207C74.9921 129.798 88.8937 102.03 94.7533 80.374C94.7293 79.5 94.5561 78.1277 94.0418 77.5255Z" fill="#C7C7C7"/>
<path d="M95.9098 85.3327C91.9101 97.1371 83.5617 117.085 81.001 136.998C80.1243 143.803 82.3839 154.198 84.2226 160.391C85.6242 164.769 88.6219 163.887 89.0723 161.406C91.196 151.294 96.0244 144.446 97.4047 135.098C99.7522 119.182 98.9235 99.8071 95.9098 85.3327Z" fill="#C7C7C7"/>
<path d="M76.5405 104.593C72.5169 108.169 66.9264 110.517 65.3622 114.319C63.5503 118.724 64.9146 131.981 66.4787 136.452C68.4932 122.031 74.3049 110.964 76.5405 104.593Z" fill="#C7C7C7"/>
<path d="M78.3448 136.465C78.3448 136.465 68.6401 175.089 80.4952 174.074C89.8961 173.267 78.3448 157.417 78.3448 136.465Z" fill="#C7C7C7"/>
<path d="M98.2228 142.644C99.4912 135.665 89.576 162.456 89.2562 167.985C89.0058 172.31 92.3872 177.93 92.5817 174.612C93.0081 167.343 97.149 151.24 98.2228 142.644Z" fill="#C7C7C7"/>
<path d="M58.7705 10.464C58.7705 10.464 58.7705 19.0948 58.7705 20.6457C53.0788 20.9788 46.2306 23.0332 41.9645 25.4954C41.9645 23.4516 41.9645 11.1914 41.9645 11.1914L58.7705 10.464Z" fill="#C7C7C7"/>
<path d="M58.7705 23.2195C52.5832 23.5579 45.8975 25.711 41.9645 28.1571C41.9645 29.9744 41.9645 38.5813 41.9645 38.5813L58.7705 38.1576C58.7705 38.1576 58.7705 24.7437 58.7705 23.2195Z" fill="#C7C7C7"/>
<path d="M58.7705 40.7584H41.9645V51.5849H58.7705V40.7584Z" fill="#C7C7C7"/>
<path d="M42.1295 54.1801C44.2132 54.2494 58.7703 54.1801 58.7703 54.1801C58.7703 54.1801 58.7703 105.693 58.7703 106.218C56.3321 106.098 52.2206 104.454 50.1874 102.991C50.0622 102.629 42.1295 74.261 42.1295 54.1801Z" fill="#C7C7C7"/>
<path d="M27.5087 71.8179C30.1947 77.9972 40.7547 94.8885 47.2325 100.57C40.1472 79.0631 41.6287 56.8371 38.114 51.5291C36.0063 48.3448 32.5369 47.6387 29.8429 43.9055C29.4486 53.9566 28.1562 66.771 27.5087 71.8179Z" fill="#C7C7C7"/>
<path d="M29.8403 14.2237C31.9933 20.483 39.8754 22.0205 39.8754 22.0205V28.6715C39.8754 28.6715 33.8266 27.2832 31.6736 24.5626C29.9762 22.4175 29.2541 19.1133 29.8403 14.2237Z" fill="#C7C7C7"/>
<path d="M30.7358 4.10315C32.8888 10.3624 39.8782 11.2818 39.8782 11.2818V19.1505C39.8782 19.1505 34.7301 18.0074 32.5291 14.9457C30.8211 12.5715 30.5679 9.93077 30.7358 4.10315Z" fill="#C7C7C7"/>
<path d="M28.2309 22.953C30.5145 29.9371 39.8782 31.3947 39.8782 31.3947V38.0457C39.8782 38.0457 34.1411 36.788 31.6763 34.3391C29.8937 32.5671 27.6927 28.73 28.2309 22.953Z" fill="#C7C7C7"/>
<path d="M27.4233 31.5492C30.1093 39.3407 39.878 40.9315 39.878 40.9315V47.1801C39.878 47.1801 34.0051 45.5173 31.6761 43.0712C30.1413 41.4617 28.0948 38.6665 27.4233 31.5492Z" fill="#C7C7C7"/>
<path d="M61.0965 10.464C61.0965 10.464 61.0965 19.0948 61.0965 20.6457C66.7882 20.9788 73.6364 23.0332 77.9025 25.4954C77.9025 23.4516 77.9025 11.1914 77.9025 11.1914L61.0965 10.464Z" fill="#C7C7C7"/>
<path d="M61.0965 23.2195C67.2838 23.5579 73.9695 25.711 77.9025 28.1571C77.9025 29.9744 77.9025 38.5813 77.9025 38.5813L61.0965 38.1576C61.0965 38.1576 61.0965 24.7437 61.0965 23.2195Z" fill="#C7C7C7"/>
<path d="M77.9025 40.7584H61.0965V51.5849H77.9025V40.7584Z" fill="#C7C7C7"/>
<path d="M77.7373 54.1801C75.6535 54.2494 61.0965 54.1801 61.0965 54.1801C61.0965 54.1801 61.0965 105.693 61.0965 106.218C63.5346 106.098 67.6462 104.454 69.6794 102.991C69.8046 102.629 77.7373 74.261 77.7373 54.1801Z" fill="#C7C7C7"/>
<path d="M92.3611 71.8179C89.6751 77.9972 79.1151 94.8885 72.6373 100.57C79.7226 79.0631 78.2411 56.8371 81.7557 51.5291C83.8635 48.3448 87.3329 47.6387 90.0269 43.9055C90.4186 53.9566 91.7136 66.771 92.3611 71.8179Z" fill="#C7C7C7"/>
<path d="M90.0268 14.2237C87.8737 20.483 79.9916 22.0205 79.9916 22.0205V28.6715C79.9916 28.6715 86.0404 27.2832 88.1935 24.5626C89.8909 22.4175 90.613 19.1133 90.0268 14.2237Z" fill="#C7C7C7"/>
<path d="M89.1315 4.10315C86.9785 10.3624 79.989 11.2818 79.989 11.2818V19.1505C79.989 19.1505 85.1372 18.0074 87.3382 14.9457C89.0462 12.5715 89.2994 9.93077 89.1315 4.10315Z" fill="#C7C7C7"/>
<path d="M91.6389 22.953C89.3553 29.9371 79.9916 31.3947 79.9916 31.3947V38.0457C79.9916 38.0457 85.7287 36.788 88.1935 34.3391C89.9735 32.5671 92.1745 28.73 91.6389 22.953Z" fill="#C7C7C7"/>
<path d="M92.4437 31.5492C89.7577 39.3407 79.989 40.9315 79.989 40.9315V47.1801C79.989 47.1801 85.8619 45.5173 88.1909 43.0712C89.7284 41.4617 91.7722 38.6665 92.4437 31.5492Z" fill="#C7C7C7"/>
<path d="M26.3656 -4.23169C28.3002 -1.42047 28.9797 1.78245 29.0196 5.1719C29.0863 10.8237 26.9785 17.3441 26.3496 23.0864C22.4726 16.598 25.2012 7.42355 26.3656 -4.23169Z" fill="#C7C7C7"/>
<path d="M93.5014 -4.23169C91.5669 -1.42047 90.8874 1.78245 90.8475 5.1719C90.7808 10.8237 92.8886 17.3441 93.5174 23.0864C97.3945 16.598 94.6686 7.42355 93.5014 -4.23169Z" fill="#C7C7C7"/>
<path d="M27.6973 -20.382C35.1903 -24.8773 48.2205 -26.3775 55.0474 -23.8781C60.0436 -17.3843 58.7699 8.1938 58.7699 8.1938C58.7699 8.1938 41.7294 11.2262 35.8565 7.0933C30.4312 3.27484 27.6973 -9.05989 27.6973 -20.382Z" fill="#C7C7C7"/>
<path d="M92.1688 -20.382C84.6758 -24.8773 71.6456 -26.3775 64.8187 -23.8781C59.8225 -17.3843 61.0962 8.1938 61.0962 8.1938C61.0962 8.1938 78.1367 11.2262 84.0096 7.0933C89.4349 3.27484 92.1688 -9.05989 92.1688 -20.382Z" fill="#C7C7C7"/>
<path d="M24.4468 -17.1101C25.097 -3.44038 21.2332 22.5108 16.0132 32.9509C14.5289 33.9422 10.8783 33.8649 9.88709 32.8736C7.90724 24.9516 6.84937 4.89469 8.71464 -2.56637C14.3557 -3.21655 18.6911 -8.27675 24.4468 -17.1101Z" fill="#C7C7C7"/>
<path d="M95.4227 -17.1101C94.7725 -3.44038 98.6363 22.5108 103.856 32.9509C105.341 33.9422 108.991 33.8649 109.982 32.8736C111.962 24.9516 113.02 4.89469 111.155 -2.56637C105.511 -3.21655 101.178 -8.27675 95.4227 -17.1101Z" fill="#C7C7C7"/>
<path d="M7.97865 34.4519C16.3963 42.1261 4.81037 58.234 4.49061 88.4752C4.08825 88.859 3.3901 88.7284 2.99573 88.5099C2.25496 69.2017 3.02771 52.2758 7.97865 34.4519Z" fill="#3179FF"/>
<path d="M22.3788 32.3784C22.2216 37.8916 21.8219 41.4196 20.9612 46.3999C18.8295 58.7106 13.303 75.983 11.1153 88.8959C10.6783 89.1144 9.76166 88.9386 9.49519 88.5629C13.1644 69.7663 14.5154 53.6211 17.9688 42.4615C19.4024 37.8197 21.2757 35.8425 22.3788 32.3784Z" fill="#3179FF"/>
<path d="M19.8631 34.8193C19.093 36.2902 17.6274 39.0321 16.6042 42.7573C13.8516 52.7738 10.6247 71.3092 7.78415 88.435C7.34714 88.784 6.649 88.6535 6.28927 88.3657C9.07651 67.4641 10.2969 50.0985 12.799 41.838C13.8995 38.2061 17.8965 36.7858 19.8631 34.8193Z" fill="#3179FF"/>
<path d="M111.888 34.4519C103.47 42.1261 115.056 58.234 115.373 88.4752C115.775 88.859 116.473 88.7284 116.868 88.5099C117.611 69.2017 116.839 52.2758 111.888 34.4519Z" fill="#3179FF"/>
<path d="M97.4874 32.3784C97.6446 37.8916 98.0443 41.4196 98.905 46.3999C101.037 58.7106 106.563 75.983 108.751 88.8959C109.188 89.1144 110.105 88.9386 110.371 88.5629C106.702 69.7663 105.351 53.6211 101.897 42.4615C100.464 37.8197 98.5905 35.8425 97.4874 32.3784Z" fill="#3179FF"/>
<path d="M100.003 34.8193C100.773 36.2902 102.239 39.0321 103.262 42.7573C106.015 52.7738 109.242 71.3092 112.082 88.435C112.519 88.784 113.217 88.6535 113.577 88.3657C110.79 67.4641 109.569 50.0985 107.067 41.838C105.967 38.2061 101.97 36.7858 100.003 34.8193Z" fill="#3179FF"/>
</g>
<defs>
<clipPath id="clip0_25_19793">
<rect width="120" height="120" fill="white"/>
</clipPath>
</defs>
</svg>
