<svg width="120" height="120" viewBox="0 0 120 120" fill="none" xmlns="http://www.w3.org/2000/svg">
<g clip-path="url(#clip0_25_19799)">
<rect width="120" height="384.371" transform="translate(0 -147.36)" fill="#EAEAEA"/>
<mask id="path-1-outside-1_25_19799" maskUnits="userSpaceOnUse" x="-2" y="-149.36" width="124" height="388" fill="black">
<rect fill="white" x="-2" y="-149.36" width="124" height="388"/>
<path d="M119.842 63.9552C119.317 67.5021 116.742 73.7322 114.213 75.8835C111.972 77.7905 107.338 80.8028 105.014 80.9364C104.842 80.9442 104.274 79.2196 104.824 78.0681C105.698 76.2459 108.648 74.8888 109.458 73.5035C110.481 71.7506 110.437 67.9981 110.771 65.3072C110.836 64.77 108.954 62.0662 108.769 62.0662C108.579 62.0662 107.497 63.0942 107.392 63.8884C107.209 65.2635 107.314 66.785 107.207 68.1446C107.063 69.9206 105.978 72.8352 104.325 73.5035C103.708 73.7528 102.95 73.303 102.637 72.6887C102.323 72.077 103.012 69.4966 102.763 68.6176C102.513 67.736 102.786 66.0628 102.953 65.3046C103.392 63.2741 102.799 60.6783 103.079 58.5065C103.369 56.2421 104.541 53.5023 105.641 51.4873C107.551 47.9944 107.422 44.8228 106.692 39.9266C106.101 35.9377 102.675 26.9601 101.652 21.7811H101.668C100.172 12.8163 98.82 3.69218 97.7585 -5.2906C97.6043 -6.5834 97.1982 -9.23068 96.7099 -12.2301C96.6482 -12.6131 96.5839 -13.0037 96.5197 -13.3944C96.4554 -13.7928 96.3861 -14.1963 96.3218 -14.5998C96.2499 -15.0187 96.1804 -15.4428 96.1085 -15.8643C96.0365 -16.3115 95.9594 -16.7536 95.8874 -17.1931C95.8078 -17.6686 95.7255 -18.1389 95.6459 -18.6041C95.5585 -19.1207 95.4737 -19.6245 95.3888 -20.1154C95.3888 -20.1205 95.3888 -20.1206 95.3888 -20.1206C95.2809 -20.74 95.1781 -21.3285 95.0778 -21.8888C94.9699 -22.5262 94.8645 -23.1148 94.7668 -23.6468C94.6229 -24.4564 94.497 -25.1298 94.3993 -25.6105C94.3479 -25.9009 94.3016 -26.1194 94.2708 -26.2556C94.2939 -26.0834 94.3119 -25.9009 94.3299 -25.7107V-25.7056C94.371 -25.2352 94.3942 -24.7109 94.3993 -24.1377C94.407 -23.7034 94.4045 -23.2433 94.3916 -22.7601C94.3788 -22.3206 94.3633 -21.8657 94.3402 -21.3928C94.3196 -20.997 94.2965 -20.5858 94.2682 -20.172C94.2451 -19.7967 94.2117 -19.4137 94.1808 -19.0231C94.1526 -18.6607 94.1192 -18.2932 94.0883 -17.9179C94.0549 -17.5684 94.0189 -17.2085 93.9829 -16.8513C93.9469 -16.5094 93.911 -16.1625 93.875 -15.8155C93.839 -15.4814 93.7979 -15.1472 93.7619 -14.808C93.3635 -11.4076 92.8341 -7.84537 92.32 -4.74573C91.5695 -0.217056 92.1016 11.0918 93.7182 20.8302C95.3374 30.6251 100.483 35.8323 100.879 53.911C101.154 66.6848 100.46 79.8544 99.2955 92.6693C98.4216 102.297 96.584 111.948 94.5535 121.301C93.7876 124.83 94.1346 128.768 94.2759 132.384C94.4044 135.712 93.929 139.13 94.1346 142.397C94.5407 148.818 96.8615 153.459 96.823 161.799C96.7587 175.864 92.5796 195.438 92.5796 195.438C91.6723 201.285 91.9114 207.341 91.9988 213.237C92.0193 214.514 92.0193 215.714 92.2404 216.814C93.5794 223.394 95.2937 223.263 98.0824 225.083C101.041 227.018 104.384 229.729 109.658 230.85C111.632 231.274 113.37 234.759 109.132 235.294C106.926 235.571 89.1279 237.011 83.9772 237.011C81.6486 237.011 78.8831 236.463 77.9861 234.433C77.012 232.228 77.1123 229.102 77.8139 225.067C78.2046 222.816 77.4644 220.428 77.3718 218.043C77.2793 215.645 77.8345 213.244 77.6057 210.97C76.3772 198.815 72.8586 182.366 72.5168 170.548C72.3908 166.249 72.4654 161.938 72.9511 157.633C73.2159 155.305 73.7684 152.85 73.4909 150.558C72.7095 144.109 68.9828 137.84 68.0704 131.304C67.1914 124.974 68.3531 118.469 67.7722 112.082C67.1117 104.757 65.9628 97.4062 64.8114 90.1197C64.1354 85.8763 63.4415 81.6252 62.4776 77.4333C62.1461 75.9914 61.6912 72.1181 60.6682 71.2803C60.6194 71.2391 60.3058 71.3779 60.0026 71.3805C59.7173 71.3857 59.4345 71.2648 59.3909 71.3034C58.3962 72.1824 57.931 76.0094 57.6046 77.4333C56.6408 81.6252 55.9442 85.8789 55.2709 90.1197C54.1143 97.4062 52.9423 104.788 52.31 112.082C51.7548 118.446 52.8909 124.974 52.0067 131.304C51.0969 137.84 47.365 144.112 46.5862 150.558C46.3086 152.85 46.8638 155.312 47.126 157.633C47.6143 161.936 47.7556 166.249 47.5654 170.548H47.4858C47.1362 182.497 43.9466 199.18 42.7541 211.373C42.5433 213.496 43.3092 216.136 43.2784 217.943C43.2424 219.873 42.7155 221.78 43.2861 225.072C43.9878 229.102 44.088 232.228 43.1088 234.433C42.2092 236.463 39.4488 237.011 37.1177 237.011C31.967 237.011 14.1736 235.571 11.9684 235.294C7.72505 234.757 9.46507 231.272 11.4415 230.85C16.713 229.729 20.211 227.55 23.1847 225.64C26.3563 223.602 28.8468 222.697 28.8468 216.812C28.8468 214.83 28.0526 202.079 27.0246 195.438L26.2921 191.308C24.7757 181.428 23.4032 171.445 23.2567 161.799C23.159 155.284 25.5416 148.812 25.9451 142.397C26.1507 139.128 25.6598 135.72 25.8037 132.384C25.9605 128.752 26.2946 124.833 25.5261 121.301C23.4957 111.953 21.6606 102.292 20.7841 92.6693C19.6199 79.8621 18.4916 66.6771 19.2035 53.911C20.0979 37.8859 24.8039 30.6688 26.364 20.8302C27.9164 11.0378 28.9059 -0.409821 27.7571 -4.74573C26.0325 -11.2611 24.3387 -21.5084 24.3875 -24.9062C24.4441 -25.3252 24.5032 -25.6953 24.5597 -25.9934C24.4467 -25.8598 24.3901 -25.4742 24.3875 -24.9062C23.7116 -20.1925 22.8352 -8.67038 22.4214 -5.2906C21.3162 3.61508 20.0568 14.0115 18.5173 21.7811C17.4583 27.1322 14.3587 35.6396 13.3075 39.9266C12.3694 43.7382 12.5287 49.0379 14.3587 51.4873C15.7337 53.3301 16.6307 56.2421 16.9212 58.5065C17.1987 60.6783 16.6076 63.2741 17.0471 65.3046C17.2116 66.0628 17.4866 67.7334 17.2373 68.6176C16.988 69.4966 17.6768 72.0744 17.3632 72.6887C17.0497 73.3004 16.2915 73.7528 15.6746 73.5035C14.022 72.8352 12.9374 69.9206 12.7935 68.1446C12.6881 66.7876 12.7883 65.2635 12.6084 63.8884C12.503 63.0942 11.4184 62.0662 11.2308 62.0662C11.0457 62.0662 9.16436 64.77 9.22862 65.3072C9.56274 67.9981 9.51905 71.7506 10.5471 73.5035C11.3542 74.8888 14.3022 76.2484 15.176 78.0681C15.7286 79.2196 15.1632 80.9442 14.9858 80.9364C12.6598 80.8028 8.02577 77.7905 5.78714 75.8835C3.25551 73.7322 0.682751 67.5021 0.158434 63.9552C-0.543226 59.1953 1.31503 53.4124 1.28162 48.493C1.27391 46.7813 0.847257 44.9153 0.847257 43.1985C0.847257 41.4867 1.47951 31.6455 1.62087 26.4588C1.82134 19.1338 1.30731 10.8681 2.52043 3.55339C3.09358 0.117065 4.47891 -3.37068 5.13945 -6.7916C7.12106 -17.0183 6.10584 -42.769 6.12383 -53.371C6.12897 -60.3773 7.41406 -68.4708 11.3593 -74.3977C14.1197 -78.5511 19.3063 -81.0056 24.1177 -82.0619C27.9575 -83.1491 31.7742 -84.3186 35.5627 -85.5805C38.8063 -86.6651 45.9077 -87.9811 47.2056 -90.8263C48.5241 -93.7408 48.1694 -97.2106 48.0923 -100.86C45.7663 -103.613 45.3191 -106.872 44.5789 -109.447C42.4791 -109.601 42.9031 -113.231 42.5998 -114.153C42.2966 -115.081 40.6054 -120.44 41.1503 -121.188C41.6952 -121.938 42.3274 -121.211 42.3274 -121.211C42.3274 -121.211 41.1631 -131.034 43.394 -136.753C45.1392 -141.222 50.5314 -147.36 60.2339 -147.36H60.2544C69.9569 -147.36 75.3491 -141.222 77.0943 -136.753C79.3278 -131.034 78.166 -121.211 78.166 -121.211C78.166 -121.211 78.7957 -121.936 79.338 -121.188C79.8829 -120.437 78.1892 -115.078 77.891 -114.153C77.5877 -113.231 78.0118 -109.599 75.9094 -109.447C75.2643 -107.203 73.9227 -104.43 72.0439 -101.937C71.9436 -97.9328 71.3576 -94.0159 72.7841 -90.8263C74.0897 -87.9322 81.0601 -86.6471 84.3422 -85.5805C88.2231 -84.3186 92.1427 -83.1517 96.0802 -82.0619C100.892 -81.0056 106.081 -78.5511 108.841 -74.3977C112.781 -68.4708 114.069 -60.3773 114.077 -53.371C114.077 -52.5203 114.071 -51.5744 114.061 -50.5464C114.038 -48.2846 113.992 -45.6348 113.953 -42.7561C113.953 -42.7433 113.948 -42.7356 113.948 -42.7253C113.92 -40.8259 113.892 -38.8315 113.871 -36.7856V-36.7779C113.856 -35.4388 113.843 -34.0818 113.838 -32.7119C113.838 -32.7067 113.832 -32.699 113.832 -32.6964C113.827 -31.6684 113.825 -30.6377 113.825 -29.6097C113.825 -28.7718 113.83 -27.9339 113.832 -27.0986C113.838 -26.3892 113.84 -25.685 113.848 -24.9833C113.856 -24.3716 113.863 -23.7625 113.876 -23.1585V-23.1534C113.884 -22.6059 113.897 -22.0662 113.912 -21.5264V-21.5213C113.92 -21.0304 113.933 -20.5421 113.948 -20.0589C113.961 -19.5988 113.976 -19.149 113.992 -18.7018V-18.6967C114.007 -18.2777 114.025 -17.8614 114.041 -17.4501C114.223 -13.1991 114.537 -9.46457 115.056 -6.78645C115.716 -3.36554 117.099 0.119629 117.672 3.55853C118.888 10.8733 118.395 18.9231 118.572 26.464H118.559C118.695 31.4245 119.24 38.6672 119.163 43.2036C119.042 44.9205 118.736 46.7864 118.729 48.4982C118.685 53.4149 120.543 59.1978 119.842 63.9552Z"/>
</mask>
<path d="M119.842 63.9552C119.317 67.5021 116.742 73.7322 114.213 75.8835C111.972 77.7905 107.338 80.8028 105.014 80.9364C104.842 80.9442 104.274 79.2196 104.824 78.0681C105.698 76.2459 108.648 74.8888 109.458 73.5035C110.481 71.7506 110.437 67.9981 110.771 65.3072C110.836 64.77 108.954 62.0662 108.769 62.0662C108.579 62.0662 107.497 63.0942 107.392 63.8884C107.209 65.2635 107.314 66.785 107.207 68.1446C107.063 69.9206 105.978 72.8352 104.325 73.5035C103.708 73.7528 102.95 73.303 102.637 72.6887C102.323 72.077 103.012 69.4966 102.763 68.6176C102.513 67.736 102.786 66.0628 102.953 65.3046C103.392 63.2741 102.799 60.6783 103.079 58.5065C103.369 56.2421 104.541 53.5023 105.641 51.4873C107.551 47.9944 107.422 44.8228 106.692 39.9266C106.101 35.9377 102.675 26.9601 101.652 21.7811H101.668C100.172 12.8163 98.82 3.69218 97.7585 -5.2906C97.6043 -6.5834 97.1982 -9.23068 96.7099 -12.2301C96.6482 -12.6131 96.5839 -13.0037 96.5197 -13.3944C96.4554 -13.7928 96.3861 -14.1963 96.3218 -14.5998C96.2499 -15.0187 96.1804 -15.4428 96.1085 -15.8643C96.0365 -16.3115 95.9594 -16.7536 95.8874 -17.1931C95.8078 -17.6686 95.7255 -18.1389 95.6459 -18.6041C95.5585 -19.1207 95.4737 -19.6245 95.3888 -20.1154C95.3888 -20.1205 95.3888 -20.1206 95.3888 -20.1206C95.2809 -20.74 95.1781 -21.3285 95.0778 -21.8888C94.9699 -22.5262 94.8645 -23.1148 94.7668 -23.6468C94.6229 -24.4564 94.497 -25.1298 94.3993 -25.6105C94.3479 -25.9009 94.3016 -26.1194 94.2708 -26.2556C94.2939 -26.0834 94.3119 -25.9009 94.3299 -25.7107V-25.7056C94.371 -25.2352 94.3942 -24.7109 94.3993 -24.1377C94.407 -23.7034 94.4045 -23.2433 94.3916 -22.7601C94.3788 -22.3206 94.3633 -21.8657 94.3402 -21.3928C94.3196 -20.997 94.2965 -20.5858 94.2682 -20.172C94.2451 -19.7967 94.2117 -19.4137 94.1808 -19.0231C94.1526 -18.6607 94.1192 -18.2932 94.0883 -17.9179C94.0549 -17.5684 94.0189 -17.2085 93.9829 -16.8513C93.9469 -16.5094 93.911 -16.1625 93.875 -15.8155C93.839 -15.4814 93.7979 -15.1472 93.7619 -14.808C93.3635 -11.4076 92.8341 -7.84537 92.32 -4.74573C91.5695 -0.217056 92.1016 11.0918 93.7182 20.8302C95.3374 30.6251 100.483 35.8323 100.879 53.911C101.154 66.6848 100.46 79.8544 99.2955 92.6693C98.4216 102.297 96.584 111.948 94.5535 121.301C93.7876 124.83 94.1346 128.768 94.2759 132.384C94.4044 135.712 93.929 139.13 94.1346 142.397C94.5407 148.818 96.8615 153.459 96.823 161.799C96.7587 175.864 92.5796 195.438 92.5796 195.438C91.6723 201.285 91.9114 207.341 91.9988 213.237C92.0193 214.514 92.0193 215.714 92.2404 216.814C93.5794 223.394 95.2937 223.263 98.0824 225.083C101.041 227.018 104.384 229.729 109.658 230.85C111.632 231.274 113.37 234.759 109.132 235.294C106.926 235.571 89.1279 237.011 83.9772 237.011C81.6486 237.011 78.8831 236.463 77.9861 234.433C77.012 232.228 77.1123 229.102 77.8139 225.067C78.2046 222.816 77.4644 220.428 77.3718 218.043C77.2793 215.645 77.8345 213.244 77.6057 210.97C76.3772 198.815 72.8586 182.366 72.5168 170.548C72.3908 166.249 72.4654 161.938 72.9511 157.633C73.2159 155.305 73.7684 152.85 73.4909 150.558C72.7095 144.109 68.9828 137.84 68.0704 131.304C67.1914 124.974 68.3531 118.469 67.7722 112.082C67.1117 104.757 65.9628 97.4062 64.8114 90.1197C64.1354 85.8763 63.4415 81.6252 62.4776 77.4333C62.1461 75.9914 61.6912 72.1181 60.6682 71.2803C60.6194 71.2391 60.3058 71.3779 60.0026 71.3805C59.7173 71.3857 59.4345 71.2648 59.3909 71.3034C58.3962 72.1824 57.931 76.0094 57.6046 77.4333C56.6408 81.6252 55.9442 85.8789 55.2709 90.1197C54.1143 97.4062 52.9423 104.788 52.31 112.082C51.7548 118.446 52.8909 124.974 52.0067 131.304C51.0969 137.84 47.365 144.112 46.5862 150.558C46.3086 152.85 46.8638 155.312 47.126 157.633C47.6143 161.936 47.7556 166.249 47.5654 170.548H47.4858C47.1362 182.497 43.9466 199.18 42.7541 211.373C42.5433 213.496 43.3092 216.136 43.2784 217.943C43.2424 219.873 42.7155 221.78 43.2861 225.072C43.9878 229.102 44.088 232.228 43.1088 234.433C42.2092 236.463 39.4488 237.011 37.1177 237.011C31.967 237.011 14.1736 235.571 11.9684 235.294C7.72505 234.757 9.46507 231.272 11.4415 230.85C16.713 229.729 20.211 227.55 23.1847 225.64C26.3563 223.602 28.8468 222.697 28.8468 216.812C28.8468 214.83 28.0526 202.079 27.0246 195.438L26.2921 191.308C24.7757 181.428 23.4032 171.445 23.2567 161.799C23.159 155.284 25.5416 148.812 25.9451 142.397C26.1507 139.128 25.6598 135.72 25.8037 132.384C25.9605 128.752 26.2946 124.833 25.5261 121.301C23.4957 111.953 21.6606 102.292 20.7841 92.6693C19.6199 79.8621 18.4916 66.6771 19.2035 53.911C20.0979 37.8859 24.8039 30.6688 26.364 20.8302C27.9164 11.0378 28.9059 -0.409821 27.7571 -4.74573C26.0325 -11.2611 24.3387 -21.5084 24.3875 -24.9062C24.4441 -25.3252 24.5032 -25.6953 24.5597 -25.9934C24.4467 -25.8598 24.3901 -25.4742 24.3875 -24.9062C23.7116 -20.1925 22.8352 -8.67038 22.4214 -5.2906C21.3162 3.61508 20.0568 14.0115 18.5173 21.7811C17.4583 27.1322 14.3587 35.6396 13.3075 39.9266C12.3694 43.7382 12.5287 49.0379 14.3587 51.4873C15.7337 53.3301 16.6307 56.2421 16.9212 58.5065C17.1987 60.6783 16.6076 63.2741 17.0471 65.3046C17.2116 66.0628 17.4866 67.7334 17.2373 68.6176C16.988 69.4966 17.6768 72.0744 17.3632 72.6887C17.0497 73.3004 16.2915 73.7528 15.6746 73.5035C14.022 72.8352 12.9374 69.9206 12.7935 68.1446C12.6881 66.7876 12.7883 65.2635 12.6084 63.8884C12.503 63.0942 11.4184 62.0662 11.2308 62.0662C11.0457 62.0662 9.16436 64.77 9.22862 65.3072C9.56274 67.9981 9.51905 71.7506 10.5471 73.5035C11.3542 74.8888 14.3022 76.2484 15.176 78.0681C15.7286 79.2196 15.1632 80.9442 14.9858 80.9364C12.6598 80.8028 8.02577 77.7905 5.78714 75.8835C3.25551 73.7322 0.682751 67.5021 0.158434 63.9552C-0.543226 59.1953 1.31503 53.4124 1.28162 48.493C1.27391 46.7813 0.847257 44.9153 0.847257 43.1985C0.847257 41.4867 1.47951 31.6455 1.62087 26.4588C1.82134 19.1338 1.30731 10.8681 2.52043 3.55339C3.09358 0.117065 4.47891 -3.37068 5.13945 -6.7916C7.12106 -17.0183 6.10584 -42.769 6.12383 -53.371C6.12897 -60.3773 7.41406 -68.4708 11.3593 -74.3977C14.1197 -78.5511 19.3063 -81.0056 24.1177 -82.0619C27.9575 -83.1491 31.7742 -84.3186 35.5627 -85.5805C38.8063 -86.6651 45.9077 -87.9811 47.2056 -90.8263C48.5241 -93.7408 48.1694 -97.2106 48.0923 -100.86C45.7663 -103.613 45.3191 -106.872 44.5789 -109.447C42.4791 -109.601 42.9031 -113.231 42.5998 -114.153C42.2966 -115.081 40.6054 -120.44 41.1503 -121.188C41.6952 -121.938 42.3274 -121.211 42.3274 -121.211C42.3274 -121.211 41.1631 -131.034 43.394 -136.753C45.1392 -141.222 50.5314 -147.36 60.2339 -147.36H60.2544C69.9569 -147.36 75.3491 -141.222 77.0943 -136.753C79.3278 -131.034 78.166 -121.211 78.166 -121.211C78.166 -121.211 78.7957 -121.936 79.338 -121.188C79.8829 -120.437 78.1892 -115.078 77.891 -114.153C77.5877 -113.231 78.0118 -109.599 75.9094 -109.447C75.2643 -107.203 73.9227 -104.43 72.0439 -101.937C71.9436 -97.9328 71.3576 -94.0159 72.7841 -90.8263C74.0897 -87.9322 81.0601 -86.6471 84.3422 -85.5805C88.2231 -84.3186 92.1427 -83.1517 96.0802 -82.0619C100.892 -81.0056 106.081 -78.5511 108.841 -74.3977C112.781 -68.4708 114.069 -60.3773 114.077 -53.371C114.077 -52.5203 114.071 -51.5744 114.061 -50.5464C114.038 -48.2846 113.992 -45.6348 113.953 -42.7561C113.953 -42.7433 113.948 -42.7356 113.948 -42.7253C113.92 -40.8259 113.892 -38.8315 113.871 -36.7856V-36.7779C113.856 -35.4388 113.843 -34.0818 113.838 -32.7119C113.838 -32.7067 113.832 -32.699 113.832 -32.6964C113.827 -31.6684 113.825 -30.6377 113.825 -29.6097C113.825 -28.7718 113.83 -27.9339 113.832 -27.0986C113.838 -26.3892 113.84 -25.685 113.848 -24.9833C113.856 -24.3716 113.863 -23.7625 113.876 -23.1585V-23.1534C113.884 -22.6059 113.897 -22.0662 113.912 -21.5264V-21.5213C113.92 -21.0304 113.933 -20.5421 113.948 -20.0589C113.961 -19.5988 113.976 -19.149 113.992 -18.7018V-18.6967C114.007 -18.2777 114.025 -17.8614 114.041 -17.4501C114.223 -13.1991 114.537 -9.46457 115.056 -6.78645C115.716 -3.36554 117.099 0.119629 117.672 3.55853C118.888 10.8733 118.395 18.9231 118.572 26.464H118.559C118.695 31.4245 119.24 38.6672 119.163 43.2036C119.042 44.9205 118.736 46.7864 118.729 48.4982C118.685 53.4149 120.543 59.1978 119.842 63.9552Z" fill="white"/>
<path d="M119.842 63.9552C119.317 67.5021 116.742 73.7322 114.213 75.8835C111.972 77.7905 107.338 80.8028 105.014 80.9364C104.842 80.9442 104.274 79.2196 104.824 78.0681C105.698 76.2459 108.648 74.8888 109.458 73.5035C110.481 71.7506 110.437 67.9981 110.771 65.3072C110.836 64.77 108.954 62.0662 108.769 62.0662C108.579 62.0662 107.497 63.0942 107.392 63.8884C107.209 65.2635 107.314 66.785 107.207 68.1446C107.063 69.9206 105.978 72.8352 104.325 73.5035C103.708 73.7528 102.95 73.303 102.637 72.6887C102.323 72.077 103.012 69.4966 102.763 68.6176C102.513 67.736 102.786 66.0628 102.953 65.3046C103.392 63.2741 102.799 60.6783 103.079 58.5065C103.369 56.2421 104.541 53.5023 105.641 51.4873C107.551 47.9944 107.422 44.8228 106.692 39.9266C106.101 35.9377 102.675 26.9601 101.652 21.7811H101.668C100.172 12.8163 98.82 3.69218 97.7585 -5.2906C97.6043 -6.5834 97.1982 -9.23068 96.7099 -12.2301C96.6482 -12.6131 96.5839 -13.0037 96.5197 -13.3944C96.4554 -13.7928 96.3861 -14.1963 96.3218 -14.5998C96.2499 -15.0187 96.1804 -15.4428 96.1085 -15.8643C96.0365 -16.3115 95.9594 -16.7536 95.8874 -17.1931C95.8078 -17.6686 95.7255 -18.1389 95.6459 -18.6041C95.5585 -19.1207 95.4737 -19.6245 95.3888 -20.1154C95.3888 -20.1205 95.3888 -20.1206 95.3888 -20.1206C95.2809 -20.74 95.1781 -21.3285 95.0778 -21.8888C94.9699 -22.5262 94.8645 -23.1148 94.7668 -23.6468C94.6229 -24.4564 94.497 -25.1298 94.3993 -25.6105C94.3479 -25.9009 94.3016 -26.1194 94.2708 -26.2556C94.2939 -26.0834 94.3119 -25.9009 94.3299 -25.7107V-25.7056C94.371 -25.2352 94.3942 -24.7109 94.3993 -24.1377C94.407 -23.7034 94.4045 -23.2433 94.3916 -22.7601C94.3788 -22.3206 94.3633 -21.8657 94.3402 -21.3928C94.3196 -20.997 94.2965 -20.5858 94.2682 -20.172C94.2451 -19.7967 94.2117 -19.4137 94.1808 -19.0231C94.1526 -18.6607 94.1192 -18.2932 94.0883 -17.9179C94.0549 -17.5684 94.0189 -17.2085 93.9829 -16.8513C93.9469 -16.5094 93.911 -16.1625 93.875 -15.8155C93.839 -15.4814 93.7979 -15.1472 93.7619 -14.808C93.3635 -11.4076 92.8341 -7.84537 92.32 -4.74573C91.5695 -0.217056 92.1016 11.0918 93.7182 20.8302C95.3374 30.6251 100.483 35.8323 100.879 53.911C101.154 66.6848 100.46 79.8544 99.2955 92.6693C98.4216 102.297 96.584 111.948 94.5535 121.301C93.7876 124.83 94.1346 128.768 94.2759 132.384C94.4044 135.712 93.929 139.13 94.1346 142.397C94.5407 148.818 96.8615 153.459 96.823 161.799C96.7587 175.864 92.5796 195.438 92.5796 195.438C91.6723 201.285 91.9114 207.341 91.9988 213.237C92.0193 214.514 92.0193 215.714 92.2404 216.814C93.5794 223.394 95.2937 223.263 98.0824 225.083C101.041 227.018 104.384 229.729 109.658 230.85C111.632 231.274 113.37 234.759 109.132 235.294C106.926 235.571 89.1279 237.011 83.9772 237.011C81.6486 237.011 78.8831 236.463 77.9861 234.433C77.012 232.228 77.1123 229.102 77.8139 225.067C78.2046 222.816 77.4644 220.428 77.3718 218.043C77.2793 215.645 77.8345 213.244 77.6057 210.97C76.3772 198.815 72.8586 182.366 72.5168 170.548C72.3908 166.249 72.4654 161.938 72.9511 157.633C73.2159 155.305 73.7684 152.85 73.4909 150.558C72.7095 144.109 68.9828 137.84 68.0704 131.304C67.1914 124.974 68.3531 118.469 67.7722 112.082C67.1117 104.757 65.9628 97.4062 64.8114 90.1197C64.1354 85.8763 63.4415 81.6252 62.4776 77.4333C62.1461 75.9914 61.6912 72.1181 60.6682 71.2803C60.6194 71.2391 60.3058 71.3779 60.0026 71.3805C59.7173 71.3857 59.4345 71.2648 59.3909 71.3034C58.3962 72.1824 57.931 76.0094 57.6046 77.4333C56.6408 81.6252 55.9442 85.8789 55.2709 90.1197C54.1143 97.4062 52.9423 104.788 52.31 112.082C51.7548 118.446 52.8909 124.974 52.0067 131.304C51.0969 137.84 47.365 144.112 46.5862 150.558C46.3086 152.85 46.8638 155.312 47.126 157.633C47.6143 161.936 47.7556 166.249 47.5654 170.548H47.4858C47.1362 182.497 43.9466 199.18 42.7541 211.373C42.5433 213.496 43.3092 216.136 43.2784 217.943C43.2424 219.873 42.7155 221.78 43.2861 225.072C43.9878 229.102 44.088 232.228 43.1088 234.433C42.2092 236.463 39.4488 237.011 37.1177 237.011C31.967 237.011 14.1736 235.571 11.9684 235.294C7.72505 234.757 9.46507 231.272 11.4415 230.85C16.713 229.729 20.211 227.55 23.1847 225.64C26.3563 223.602 28.8468 222.697 28.8468 216.812C28.8468 214.83 28.0526 202.079 27.0246 195.438L26.2921 191.308C24.7757 181.428 23.4032 171.445 23.2567 161.799C23.159 155.284 25.5416 148.812 25.9451 142.397C26.1507 139.128 25.6598 135.72 25.8037 132.384C25.9605 128.752 26.2946 124.833 25.5261 121.301C23.4957 111.953 21.6606 102.292 20.7841 92.6693C19.6199 79.8621 18.4916 66.6771 19.2035 53.911C20.0979 37.8859 24.8039 30.6688 26.364 20.8302C27.9164 11.0378 28.9059 -0.409821 27.7571 -4.74573C26.0325 -11.2611 24.3387 -21.5084 24.3875 -24.9062C24.4441 -25.3252 24.5032 -25.6953 24.5597 -25.9934C24.4467 -25.8598 24.3901 -25.4742 24.3875 -24.9062C23.7116 -20.1925 22.8352 -8.67038 22.4214 -5.2906C21.3162 3.61508 20.0568 14.0115 18.5173 21.7811C17.4583 27.1322 14.3587 35.6396 13.3075 39.9266C12.3694 43.7382 12.5287 49.0379 14.3587 51.4873C15.7337 53.3301 16.6307 56.2421 16.9212 58.5065C17.1987 60.6783 16.6076 63.2741 17.0471 65.3046C17.2116 66.0628 17.4866 67.7334 17.2373 68.6176C16.988 69.4966 17.6768 72.0744 17.3632 72.6887C17.0497 73.3004 16.2915 73.7528 15.6746 73.5035C14.022 72.8352 12.9374 69.9206 12.7935 68.1446C12.6881 66.7876 12.7883 65.2635 12.6084 63.8884C12.503 63.0942 11.4184 62.0662 11.2308 62.0662C11.0457 62.0662 9.16436 64.77 9.22862 65.3072C9.56274 67.9981 9.51905 71.7506 10.5471 73.5035C11.3542 74.8888 14.3022 76.2484 15.176 78.0681C15.7286 79.2196 15.1632 80.9442 14.9858 80.9364C12.6598 80.8028 8.02577 77.7905 5.78714 75.8835C3.25551 73.7322 0.682751 67.5021 0.158434 63.9552C-0.543226 59.1953 1.31503 53.4124 1.28162 48.493C1.27391 46.7813 0.847257 44.9153 0.847257 43.1985C0.847257 41.4867 1.47951 31.6455 1.62087 26.4588C1.82134 19.1338 1.30731 10.8681 2.52043 3.55339C3.09358 0.117065 4.47891 -3.37068 5.13945 -6.7916C7.12106 -17.0183 6.10584 -42.769 6.12383 -53.371C6.12897 -60.3773 7.41406 -68.4708 11.3593 -74.3977C14.1197 -78.5511 19.3063 -81.0056 24.1177 -82.0619C27.9575 -83.1491 31.7742 -84.3186 35.5627 -85.5805C38.8063 -86.6651 45.9077 -87.9811 47.2056 -90.8263C48.5241 -93.7408 48.1694 -97.2106 48.0923 -100.86C45.7663 -103.613 45.3191 -106.872 44.5789 -109.447C42.4791 -109.601 42.9031 -113.231 42.5998 -114.153C42.2966 -115.081 40.6054 -120.44 41.1503 -121.188C41.6952 -121.938 42.3274 -121.211 42.3274 -121.211C42.3274 -121.211 41.1631 -131.034 43.394 -136.753C45.1392 -141.222 50.5314 -147.36 60.2339 -147.36H60.2544C69.9569 -147.36 75.3491 -141.222 77.0943 -136.753C79.3278 -131.034 78.166 -121.211 78.166 -121.211C78.166 -121.211 78.7957 -121.936 79.338 -121.188C79.8829 -120.437 78.1892 -115.078 77.891 -114.153C77.5877 -113.231 78.0118 -109.599 75.9094 -109.447C75.2643 -107.203 73.9227 -104.43 72.0439 -101.937C71.9436 -97.9328 71.3576 -94.0159 72.7841 -90.8263C74.0897 -87.9322 81.0601 -86.6471 84.3422 -85.5805C88.2231 -84.3186 92.1427 -83.1517 96.0802 -82.0619C100.892 -81.0056 106.081 -78.5511 108.841 -74.3977C112.781 -68.4708 114.069 -60.3773 114.077 -53.371C114.077 -52.5203 114.071 -51.5744 114.061 -50.5464C114.038 -48.2846 113.992 -45.6348 113.953 -42.7561C113.953 -42.7433 113.948 -42.7356 113.948 -42.7253C113.92 -40.8259 113.892 -38.8315 113.871 -36.7856V-36.7779C113.856 -35.4388 113.843 -34.0818 113.838 -32.7119C113.838 -32.7067 113.832 -32.699 113.832 -32.6964C113.827 -31.6684 113.825 -30.6377 113.825 -29.6097C113.825 -28.7718 113.83 -27.9339 113.832 -27.0986C113.838 -26.3892 113.84 -25.685 113.848 -24.9833C113.856 -24.3716 113.863 -23.7625 113.876 -23.1585V-23.1534C113.884 -22.6059 113.897 -22.0662 113.912 -21.5264V-21.5213C113.92 -21.0304 113.933 -20.5421 113.948 -20.0589C113.961 -19.5988 113.976 -19.149 113.992 -18.7018V-18.6967C114.007 -18.2777 114.025 -17.8614 114.041 -17.4501C114.223 -13.1991 114.537 -9.46457 115.056 -6.78645C115.716 -3.36554 117.099 0.119629 117.672 3.55853C118.888 10.8733 118.395 18.9231 118.572 26.464H118.559C118.695 31.4245 119.24 38.6672 119.163 43.2036C119.042 44.9205 118.736 46.7864 118.729 48.4982C118.685 53.4149 120.543 59.1978 119.842 63.9552Z" stroke="#EAEAEA" stroke-width="2.4" mask="url(#path-1-outside-1_25_19799)"/>
<path d="M97.036 63.1149C99.4931 67.5073 99.619 73.8582 99.2386 79.014C98.5035 89.0223 95.9308 97.4371 94.8127 106.147C88.7266 79.2453 95.6686 76.3693 97.036 63.1149Z" fill="#C7C7C7"/>
<path d="M70.4761 113.84C70.2217 101.567 72.8741 80.2118 72.8741 80.2118L64.4105 73.9508C64.4105 73.9508 67.6644 103.356 70.4761 113.84Z" fill="#C7C7C7"/>
<path d="M76.1561 79.9596C72.4653 92.8182 72.0155 105.805 73.0307 116.397C74.2233 128.829 77.0351 138.156 73.0307 142.988C73.0307 143.243 74.8196 146.823 75.0766 146.823C85.0489 136.594 83.1444 97.041 76.1561 79.9596Z" fill="#C7C7C7"/>
<path d="M79.8341 80.186C89.0842 79.2428 91.3177 89.8782 91.9757 103.156C92.4614 112.956 89.3515 129.079 92.631 136.627C92.721 136.596 92.1864 141.174 92.464 141.197C83.0032 135.316 84.098 96.2651 79.8341 80.186Z" fill="#C7C7C7"/>
<path d="M22.7552 63.1149C20.2982 67.5073 20.1722 73.8582 20.5526 79.014C21.2877 89.0223 23.8604 97.4371 24.9784 106.147C31.0672 79.2453 24.1226 76.3693 22.7552 63.1149Z" fill="#C7C7C7"/>
<path d="M49.3182 113.84C49.5727 101.567 46.9202 80.2118 46.9202 80.2118L55.3839 73.9508C55.3839 73.9508 52.13 103.356 49.3182 113.84Z" fill="#C7C7C7"/>
<path d="M43.6379 79.9596C47.3287 92.8182 47.7785 105.805 46.7632 116.397C45.5707 128.829 42.7589 138.156 46.7632 142.988C46.7632 143.243 44.9744 146.823 44.7174 146.823C34.7451 136.594 36.6496 97.041 43.6379 79.9596Z" fill="#C7C7C7"/>
<path d="M39.9602 80.186C30.7101 79.2428 28.4766 89.8782 27.8187 103.156C27.3329 112.956 30.4428 129.079 27.1632 136.627C27.0733 136.596 27.6079 141.174 27.3303 141.197C36.7886 135.316 35.6937 96.2651 39.9602 80.186Z" fill="#C7C7C7"/>
<path d="M99.4238 -5.17209C109.065 -0.625438 103.14 16.9726 111.182 44.1086C110.928 44.5635 110.267 44.638 109.856 44.5507C103.875 27.4846 99.9044 12.1329 99.4238 -5.17209Z" fill="#C7C7C7"/>
<path d="M112.54 -10.9937C113.917 -6.01778 115.156 -2.2833 115.757 2.40471C117.243 14.0039 115.626 30.5071 117.225 42.6563C116.893 42.9725 116.027 43.0676 115.683 42.8054C113.789 24.9838 110.954 10.1692 110.967 -0.764331C110.972 -5.30584 112.506 -7.59073 112.54 -10.9937Z" fill="#C7C7C7"/>
<path d="M110.782 -8.65238C110.499 -7.12312 109.72 -3.73305 109.831 -0.121943C110.129 9.59591 111.944 27.0629 114.12 43.1625C113.827 43.5943 113.164 43.6714 112.763 43.512C109.499 24.0481 105.808 8.17975 105.773 0.104235C105.755 -3.44519 109.564 -6.35463 110.782 -8.65238Z" fill="#C7C7C7"/>
<path d="M20.3701 -5.17209C10.7294 -0.625438 16.6536 16.9726 8.61153 44.1086C8.86598 44.5635 9.52652 44.638 9.93775 44.5507C15.9186 27.4846 19.8895 12.1329 20.3701 -5.17209Z" fill="#C7C7C7"/>
<path d="M7.25454 -10.9937C5.87693 -6.01778 4.63809 -2.2833 4.03667 2.40471C2.55111 14.0039 4.16774 30.5071 2.56909 42.6563C2.90065 42.9725 3.7668 43.0676 4.1112 42.8054C6.00543 24.9838 8.84035 10.1692 8.82749 -0.764331C8.81978 -5.30584 7.28796 -7.59073 7.25454 -10.9937Z" fill="#C7C7C7"/>
<path d="M9.01256 -8.65238C9.29528 -7.12312 10.074 -3.73305 9.96353 -0.121943C9.66539 9.59591 7.85084 27.0629 5.67389 43.1625C5.96689 43.5943 6.63001 43.6714 7.03096 43.512C10.2951 24.0481 13.9859 8.17975 14.0218 0.104235C14.0398 -3.44519 10.2308 -6.35463 9.01256 -8.65238Z" fill="#C7C7C7"/>
<path d="M95.3144 33.0927C92.2482 26.0633 90.5313 9.39053 90.5313 4.69995C89.5932 7.44234 88.1719 10.0177 86.7043 12.5056C84.9 15.559 82.5303 18.453 81.5305 21.8482C80.9805 23.7142 80.7209 26.071 82.1602 27.6131C84.1007 29.695 89.8322 28.8931 95.3144 33.0927Z" fill="#C7C7C7"/>
<path d="M24.48 33.0927C27.5462 26.0633 29.2631 9.39053 29.2631 4.69995C30.2012 7.44234 31.6225 10.0177 33.0901 12.5056C34.8944 15.559 37.2641 18.453 38.2639 21.8482C38.8139 23.7142 39.0735 26.071 37.6342 27.6131C35.6937 29.695 29.9622 28.8931 24.48 33.0927Z" fill="#C7C7C7"/>
<path d="M65.7056 -104.505C64.7341 -104.371 63.7497 -104.284 62.7524 -104.243C62.701 -101.541 62.7113 -96.9432 63.2151 -93.1625C63.9861 -87.3693 65.6439 -84.8582 65.6439 -79.4094C65.6439 -72.1923 63.7497 -67.2833 63.2253 -60.3155C62.4749 -50.3047 62.8218 -23.0402 62.8218 -23.0402C66.3995 -34.9735 71.0233 -41.7074 73.5344 -48.9014C77.0838 -59.0741 76.5312 -67.9156 78.978 -73.0816C80.5175 -76.3329 84.6787 -77.0294 91.4794 -81.3807C81.0958 -84.2182 66.672 -85.7655 65.7056 -104.505Z" fill="#C7C7C7"/>
<path d="M72.6813 -41.3811C80.9624 -36.6494 88.7449 -35.5776 94.0678 -36.4643C93.4766 -24.0426 90.8936 -7.56779 90.4464 -0.186226C86.5089 12.7418 78.3948 17.9515 78.9859 28.0087C71.2831 12.9731 75.5136 4.96442 63.1562 -18.2083C65.4745 -25.9317 68.916 -32.3392 72.6813 -41.3811Z" fill="#C7C7C7"/>
<path d="M81.1757 -71.7941C78.5155 -68.8923 79.5796 -55.3346 73.6965 -43.5658C76.8398 -41.6304 83.8281 -44.7121 88.6729 -51.9574C91.5258 -56.2239 91.5258 -60.8605 94.2373 -64.5359C91.3356 -67.1986 86.2544 -70.8277 81.1757 -71.7941Z" fill="#C7C7C7"/>
<path d="M77.0839 -42.1395C81.5406 -39.6438 89.3874 -38.5746 93.8441 -39.1092C95.0932 -42.1395 97.9461 -54.6229 98.658 -58.7223C89.21 -52.3046 87.2464 -43.2112 77.0839 -42.1395Z" fill="#C7C7C7"/>
<path d="M57.039 -104.363C56.0469 -104.443 55.0677 -104.561 54.0987 -104.718C53.2326 -85.7758 38.7368 -84.2311 28.3147 -81.3885C35.1128 -77.0372 39.2739 -76.3406 40.816 -73.0894C43.2628 -67.9207 42.7103 -59.0819 46.2597 -48.9091C48.7682 -41.7151 53.3945 -34.9813 56.9722 -23.0479C56.9722 -23.0479 57.3192 -50.3098 56.5687 -60.3233C56.0469 -67.2885 54.1501 -72.1975 54.1501 -79.4171C54.1501 -84.8659 55.8053 -87.377 56.579 -93.1702C57.0878 -96.9998 57.093 -101.68 57.039 -104.363Z" fill="#C7C7C7"/>
<path d="M47.1104 -41.3811C38.8293 -36.6494 31.0468 -35.5776 25.7239 -36.4643C26.315 -24.0426 28.8981 -7.56779 29.3453 -0.186226C33.2828 12.7418 41.3969 17.9515 40.8057 28.0087C48.5086 12.9731 44.2781 4.96442 56.6355 -18.2083C54.3198 -25.9317 50.8757 -32.3392 47.1104 -41.3811Z" fill="#C7C7C7"/>
<path d="M38.6184 -71.7941C41.2785 -68.8923 40.2145 -55.3346 46.0976 -43.5658C42.9543 -41.6304 35.966 -44.7121 31.1212 -51.9574C28.2683 -56.2239 28.2683 -60.8605 25.5567 -64.5359C28.4585 -67.1986 33.5372 -70.8277 38.6184 -71.7941Z" fill="#C7C7C7"/>
<path d="M42.7103 -42.1395C38.2536 -39.6438 30.4069 -38.5746 25.9502 -39.1092C24.7011 -42.1395 21.8482 -54.6229 21.1362 -58.7223C30.5842 -52.3046 32.5453 -43.2112 42.7103 -42.1395Z" fill="#C7C7C7"/>
<path d="M64.0996 38.5128C57.998 47.7449 58.3886 64.9985 64.9169 72.4598C70.5533 78.9007 84.5942 78.3481 89.4236 71.9355C96.1369 63.0221 94.3044 42.3321 89.7294 33.1C80.2686 27.6898 68.8544 31.3189 64.0996 38.5128Z" fill="#3179FF"/>
<path d="M55.695 38.5128C61.7966 47.7449 61.4059 64.9985 54.8777 72.4598C49.2412 78.9007 35.2003 78.3481 30.371 71.9355C23.6577 63.0221 25.4902 42.3321 30.0651 33.1C39.5234 27.6898 50.9401 31.3189 55.695 38.5128Z" fill="#3179FF"/>
</g>
<defs>
<clipPath id="clip0_25_19799">
<rect width="120" height="120" fill="white"/>
</clipPath>
</defs>
</svg>
