<svg xmlns="http://www.w3.org/2000/svg" xmlns:xlink="http://www.w3.org/1999/xlink" width="120" height="120" fill="none"><g clip-path="url(#a)"><circle cx="60" cy="60" r="60" fill="#EAEAEA"/><path fill="url(#b)" d="M0-276.72h120v392.275H0z"/><path fill="#EAEAEA" d="M-12-345.6h144v478.286H-12z"/><mask id="c" width="148" height="482" x="-14" y="-347.6" fill="#000" maskUnits="userSpaceOnUse"><path fill="#fff" d="M-14-347.6h148v482H-14z"/><path d="M130.438-121.144c.08 1.803.665 3.735.534 5.549-.147 2.056-.511 4.292-.511 6.342-.036 5.891 2.19 12.819 1.349 18.518-.624 4.25-3.709 11.713-6.744 14.294-2.679 2.28-8.23 5.891-11.015 6.05-.208.01-.886-2.056-.224-3.437 1.045-2.178 4.579-3.81 5.544-5.466 1.228-2.105 1.177-6.598 1.574-9.822.08-.643-2.175-3.877-2.399-3.877-.227 0-1.525 1.228-1.65 2.178-.214 1.647-.092 3.47-.223 5.099-.17 2.126-1.471 5.616-3.447 6.419-.739.297-1.65-.247-2.025-.98-.374-.731.451-3.818.151-4.873-.301-1.056.025-3.061.224-3.97.527-2.43-.183-5.539.15-8.142.348-2.71 1.474-6.167 3.073-8.409 1.336-1.877 1.822-3.857 2.449-6.048.736-2.575.512-5.152-.224-7.801-2.865-10.317-5.055-15.646-7.277-24.854-2.584-10.701-3.406-17.085-4.672-27.966-.534-4.577-3.681-23.201-4.173-25.388.672 5.168-.882 17.178-2.337 26.05-.899 5.482-.26 19.18 1.669 30.976 1.937 11.862 8.096 18.17 8.566 40.069.329 15.47-.499 31.423-1.893 46.945-1.045 11.657-3.242 23.347-5.672 34.676-.918 4.28-.502 9.045-.333 13.423.157 4.033-.412 8.169-.166 12.132.486 7.775 3.322 15.591 3.217 23.498-.234 17.315-3.735 35.492-6.22 52.836-.684 4.766-3.053 11.22-1.87 15.218 1.055 3.572 5.077 7.522 7.13 11.248 1.391 2.53 4.966 4.286 7.364 5.908 1.478.997 2.792 2.341 4.173 3.438.598.476 2.657 1.695 3.278 2.619.86 1.283.252 1.871.083 1.89.86.784.838 2.182.096 2.271.463 1.257-.243 1.993-1.011 1.849.515 1.036-.585 2.127-1.614 1.801-.586 2.139-3.563 1.695-5.056.927-.24 2.447-3.498 2.821-5.295 2.552-2.11-.316-4.202-1.039-5.995-2.427-.765-.595-1.766-2.335-2.21-2.709-1.404-1.184-3.466-1.766-4.873-3.032-1.28-1.152-1.692-3.106-2.546-4.376-.853-1.276-2.724-2.728-4.348-2.987-2.38-.377-5.145-1.228-6.264-3.505-1.094-2.22-.665-5.428-.109-7.868.4-1.746 1.186-3.646 1.157-5.399-.01-.595-.476-2.15-.23-3.828.275-1.858 1.2-3.263 1.465-4.67.411-2.183.44-4.465.467-6.698l.003-.22c.077-6.416-1.845-13.107-3.019-19.394-1.535-8.204-3.277-16.549-3.645-24.848-.23-5.207-.064-10.433.521-15.646.317-2.818.979-5.793.646-8.569-.934-7.81-5.397-15.406-6.485-23.325-1.055-7.67.336-15.54-.358-23.28-.793-8.873-2.165-17.777-3.546-26.598-.806-5.14-1.64-10.29-2.791-15.365-.397-1.75-.937-8.882-2.165-9.896-.058-.048-.432.115-.796.122-.343.01-.675-.14-.733-.09-1.19 1.062-1.745 8.143-2.136 9.864-1.154 5.076-1.985 10.225-2.791 15.365l-.029.183c-1.372 8.765-2.761 17.642-3.517 26.414-.665 7.708.694 15.614-.358 23.28-1.087 7.92-5.551 15.516-6.485 23.326-.333 2.776.33 5.754.646 8.569.582 5.213.751 10.439.521 15.646-.368 8.3-2.114 16.647-3.645 24.848-1.174 6.287-3.096 12.978-3.019 19.394l.002.118c.025 2.265.05 4.584.468 6.8.266 1.407 1.19 2.815 1.465 4.67.246 1.679-.22 3.23-.23 3.828-.03 1.753.735 3.64 1.157 5.399.572 2.402.921 5.571-.109 7.868-1.061 2.363-4.029 3.157-6.264 3.505-1.62.256-3.491 1.715-4.348 2.987-.854 1.27-1.267 3.224-2.546 4.376-1.407 1.266-3.47 1.848-4.873 3.032-.444.377-1.445 2.117-2.21 2.709-1.793 1.391-3.833 2.04-5.995 2.427-1.813.323-5.071-.188-5.295-2.552-1.48.755-4.483 1.222-5.055-.927-1.03.326-2.13-.765-1.615-1.801-.768.144-1.474-.592-1.01-1.849-.743-.089-.765-1.487.095-2.271-.17-.019-.777-.607.083-1.89.62-.924 2.68-2.143 3.278-2.619 1.378-1.097 2.692-2.437 4.173-3.438 2.324-1.574 6.014-3.301 7.364-5.908 2.011-3.882 6.06-7.666 7.13-11.248 1.203-4.024-1.183-10.424-1.87-15.218-2.485-17.354-5.964-35.536-6.22-52.836-.115-7.89 2.735-15.73 3.217-23.498.247-3.963-.339-8.089-.166-12.132.189-4.397.585-9.147-.332-13.423-2.43-11.325-4.624-23.022-5.673-34.676-1.394-15.516-2.744-31.485-1.893-46.945 1.068-19.411 6.702-28.155 8.566-40.069 1.858-11.856 3.041-25.724 1.67-30.976-2.063-7.893-4.087-20.303-4.033-24.422-.805 5.712-1.851 19.669-2.35 23.76-1.317 10.788-2.526 18.304-4.672 27-2.64 10.702-3.834 15.445-6.795 25.82-.76 2.668-.93 7.657-.223 10.216.6 2.178 4.69 8.85 5.04 11.559.335 2.6-.378 5.712.15 8.142.194.909.524 2.914.223 3.97-.3 1.052.525 4.141.15 4.874-.374.732-.45 1.215-2.024.975-2.004-.303-3.277-4.404-3.447-6.419-.134-1.621-.01-3.45-.223-5.098-.125-.95-1.427-2.178-1.65-2.178-.224 0-2.479 3.234-2.399 3.876.397 3.244.371 7.718 1.574 9.823.937 1.64 4.499 3.284 5.544 5.466.665 1.384-.013 3.45-.224 3.438-2.769-.16-8.332-3.768-11.015-6.051-3.032-2.581-6.117-10.043-6.744-14.294-.841-5.702 1.385-9.729 1.35-15.624-.013-2.05-.378-4.285-.525-6.342-.128-1.813.454-3.745.534-5.549.37-8.297.29-12.355.49-20.943.21-9.128-.378-13.09 1.077-21.947.684-4.167 2.337-8.392 3.13-12.531 2.373-12.387 1.161-43.574 1.174-56.418.01-8.489 1.547-18.288 6.264-25.472 3.303-5.031 9.51-8.002 15.265-9.281a320.389 320.389 0 0 0 13.686-4.26c3.885-1.309 12.873-3.148 14.421-6.595 1.465-3.27 1.205-7.126 1.089-11.196a7.573 7.573 0 0 1-.069-.072c-3.028-3.25-5.27-7.567-6.184-10.785-2.593-.192-2.072-4.73-2.443-5.882-.371-1.154-3.258-7.279-1.788-8.789.714-.732 1.459-.124 1.459-.124s-1.442-12.173 1.31-19.318c2.153-5.585 8.804-13.251 20.779-13.251h.025c11.972 0 18.626 7.666 20.778 13.251 2.753 7.145 1.32 19.414 1.32 19.414s.864-.883 1.644-.039c1.151 1.241-1.614 7.705-1.985 8.856-.371 1.155.15 5.693-2.443 5.882-.797 2.808-2.437 7.359-5.2 10.174-.168.172-.341.34-.519.505l-.005.182c-.117 4.357-.205 7.593 1.394 11.192 1.554 3.505 10.85 5.302 14.776 6.595a331.474 331.474 0 0 0 14.044 4.263c5.756 1.282 11.962 4.254 15.265 9.281 4.72 7.184 6.255 16.987 6.264 25.472.013 12.844-1.199 44.028 1.174 56.418.79 4.142 2.446 8.367 3.13 12.532 1.459 8.856.867 13.784 1.078 22.912.198 8.591.118 9.269.489 17.566Z"/></mask><path fill="#fff" d="M130.438-121.144c.08 1.803.665 3.735.534 5.549-.147 2.056-.511 4.292-.511 6.342-.036 5.891 2.19 12.819 1.349 18.518-.624 4.25-3.709 11.713-6.744 14.294-2.679 2.28-8.23 5.891-11.015 6.05-.208.01-.886-2.056-.224-3.437 1.045-2.178 4.579-3.81 5.544-5.466 1.228-2.105 1.177-6.598 1.574-9.822.08-.643-2.175-3.877-2.399-3.877-.227 0-1.525 1.228-1.65 2.178-.214 1.647-.092 3.47-.223 5.099-.17 2.126-1.471 5.616-3.447 6.419-.739.297-1.65-.247-2.025-.98-.374-.731.451-3.818.151-4.873-.301-1.056.025-3.061.224-3.97.527-2.43-.183-5.539.15-8.142.348-2.71 1.474-6.167 3.073-8.409 1.336-1.877 1.822-3.857 2.449-6.048.736-2.575.512-5.152-.224-7.801-2.865-10.317-5.055-15.646-7.277-24.854-2.584-10.701-3.406-17.085-4.672-27.966-.534-4.577-3.681-23.201-4.173-25.388.672 5.168-.882 17.178-2.337 26.05-.899 5.482-.26 19.18 1.669 30.976 1.937 11.862 8.096 18.17 8.566 40.069.329 15.47-.499 31.423-1.893 46.945-1.045 11.657-3.242 23.347-5.672 34.676-.918 4.28-.502 9.045-.333 13.423.157 4.033-.412 8.169-.166 12.132.486 7.775 3.322 15.591 3.217 23.498-.234 17.315-3.735 35.492-6.22 52.836-.684 4.766-3.053 11.22-1.87 15.218 1.055 3.572 5.077 7.522 7.13 11.248 1.391 2.53 4.966 4.286 7.364 5.908 1.478.997 2.792 2.341 4.173 3.438.598.476 2.657 1.695 3.278 2.619.86 1.283.252 1.871.083 1.89.86.784.838 2.182.096 2.271.463 1.257-.243 1.993-1.011 1.849.515 1.036-.585 2.127-1.614 1.801-.586 2.139-3.563 1.695-5.056.927-.24 2.447-3.498 2.821-5.295 2.552-2.11-.316-4.202-1.039-5.995-2.427-.765-.595-1.766-2.335-2.21-2.709-1.404-1.184-3.466-1.766-4.873-3.032-1.28-1.152-1.692-3.106-2.546-4.376-.853-1.276-2.724-2.728-4.348-2.987-2.38-.377-5.145-1.228-6.264-3.505-1.094-2.22-.665-5.428-.109-7.868.4-1.746 1.186-3.646 1.157-5.399-.01-.595-.476-2.15-.23-3.828.275-1.858 1.2-3.263 1.465-4.67.411-2.183.44-4.465.467-6.698l.003-.22c.077-6.416-1.845-13.107-3.019-19.394-1.535-8.204-3.277-16.549-3.645-24.848-.23-5.207-.064-10.433.521-15.646.317-2.818.979-5.793.646-8.569-.934-7.81-5.397-15.406-6.485-23.325-1.055-7.67.336-15.54-.358-23.28-.793-8.873-2.165-17.777-3.546-26.598-.806-5.14-1.64-10.29-2.791-15.365-.397-1.75-.937-8.882-2.165-9.896-.058-.048-.432.115-.796.122-.343.01-.675-.14-.733-.09-1.19 1.062-1.745 8.143-2.136 9.864-1.154 5.076-1.985 10.225-2.791 15.365l-.029.183c-1.372 8.765-2.761 17.642-3.517 26.414-.665 7.708.694 15.614-.358 23.28-1.087 7.92-5.551 15.516-6.485 23.326-.333 2.776.33 5.754.646 8.569.582 5.213.751 10.439.521 15.646-.368 8.3-2.114 16.647-3.645 24.848-1.174 6.287-3.096 12.978-3.019 19.394l.002.118c.025 2.265.05 4.584.468 6.8.266 1.407 1.19 2.815 1.465 4.67.246 1.679-.22 3.23-.23 3.828-.03 1.753.735 3.64 1.157 5.399.572 2.402.921 5.571-.109 7.868-1.061 2.363-4.029 3.157-6.264 3.505-1.62.256-3.491 1.715-4.348 2.987-.854 1.27-1.267 3.224-2.546 4.376-1.407 1.266-3.47 1.848-4.873 3.032-.444.377-1.445 2.117-2.21 2.709-1.793 1.391-3.833 2.04-5.995 2.427-1.813.323-5.071-.188-5.295-2.552-1.48.755-4.483 1.222-5.055-.927-1.03.326-2.13-.765-1.615-1.801-.768.144-1.474-.592-1.01-1.849-.743-.089-.765-1.487.095-2.271-.17-.019-.777-.607.083-1.89.62-.924 2.68-2.143 3.278-2.619 1.378-1.097 2.692-2.437 4.173-3.438 2.324-1.574 6.014-3.301 7.364-5.908 2.011-3.882 6.06-7.666 7.13-11.248 1.203-4.024-1.183-10.424-1.87-15.218-2.485-17.354-5.964-35.536-6.22-52.836-.115-7.89 2.735-15.73 3.217-23.498.247-3.963-.339-8.089-.166-12.132.189-4.397.585-9.147-.332-13.423-2.43-11.325-4.624-23.022-5.673-34.676-1.394-15.516-2.744-31.485-1.893-46.945 1.068-19.411 6.702-28.155 8.566-40.069 1.858-11.856 3.041-25.724 1.67-30.976-2.063-7.893-4.087-20.303-4.033-24.422-.805 5.712-1.851 19.669-2.35 23.76-1.317 10.788-2.526 18.304-4.672 27-2.64 10.702-3.834 15.445-6.795 25.82-.76 2.668-.93 7.657-.223 10.216.6 2.178 4.69 8.85 5.04 11.559.335 2.6-.378 5.712.15 8.142.194.909.524 2.914.223 3.97-.3 1.052.525 4.141.15 4.874-.374.732-.45 1.215-2.024.975-2.004-.303-3.277-4.404-3.447-6.419-.134-1.621-.01-3.45-.223-5.098-.125-.95-1.427-2.178-1.65-2.178-.224 0-2.479 3.234-2.399 3.876.397 3.244.371 7.718 1.574 9.823.937 1.64 4.499 3.284 5.544 5.466.665 1.384-.013 3.45-.224 3.438-2.769-.16-8.332-3.768-11.015-6.051-3.032-2.581-6.117-10.043-6.744-14.294-.841-5.702 1.385-9.729 1.35-15.624-.013-2.05-.378-4.285-.525-6.342-.128-1.813.454-3.745.534-5.549.37-8.297.29-12.355.49-20.943.21-9.128-.378-13.09 1.077-21.947.684-4.167 2.337-8.392 3.13-12.531 2.373-12.387 1.161-43.574 1.174-56.418.01-8.489 1.547-18.288 6.264-25.472 3.303-5.031 9.51-8.002 15.265-9.281a320.389 320.389 0 0 0 13.686-4.26c3.885-1.309 12.873-3.148 14.421-6.595 1.465-3.27 1.205-7.126 1.089-11.196a7.573 7.573 0 0 1-.069-.072c-3.028-3.25-5.27-7.567-6.184-10.785-2.593-.192-2.072-4.73-2.443-5.882-.371-1.154-3.258-7.279-1.788-8.789.714-.732 1.459-.124 1.459-.124s-1.442-12.173 1.31-19.318c2.153-5.585 8.804-13.251 20.779-13.251h.025c11.972 0 18.626 7.666 20.778 13.251 2.753 7.145 1.32 19.414 1.32 19.414s.864-.883 1.644-.039c1.151 1.241-1.614 7.705-1.985 8.856-.371 1.155.15 5.693-2.443 5.882-.797 2.808-2.437 7.359-5.2 10.174-.168.172-.341.34-.519.505l-.005.182c-.117 4.357-.205 7.593 1.394 11.192 1.554 3.505 10.85 5.302 14.776 6.595a331.474 331.474 0 0 0 14.044 4.263c5.756 1.282 11.962 4.254 15.265 9.281 4.72 7.184 6.255 16.987 6.264 25.472.013 12.844-1.199 44.028 1.174 56.418.79 4.142 2.446 8.367 3.13 12.532 1.459 8.856.867 13.784 1.078 22.912.198 8.591.118 9.269.489 17.566Z"/><path fill="#EAEAEA" d="m17.275-196.1-.6-.009 1.195.091-.595-.082Zm.208-1.318.59.109.42-2.279-1.473 1.788.463.382Zm-.208 1.318.6.008c.005-.331.023-.589.05-.774a1.3 1.3 0 0 1 .041-.19c.014-.043.015-.022-.02.019l-.463-.381-.463-.382a1.15 1.15 0 0 0-.196.375 2.47 2.47 0 0 0-.085.379c-.04.261-.059.581-.064.937l.6.009Zm.208-1.318-.59-.109c-.07.376-.14.833-.212 1.344l.594.083.595.082c.07-.5.138-.938.203-1.291l-.59-.109Zm113.489 81.823-1.197-.087v.001l1.197.086Zm-.534-5.549 1.199-.054-1.199.054Zm-.489-17.566 1.2-.027-1.2.027Zm-1.078-22.912-1.184.194 1.184-.194Zm-3.13-12.532 1.179-.224v-.001l-1.179.225Zm-1.174-56.418 1.2-.001-1.2.001Zm-6.264-25.472-1.003.659 1.003-.659Zm-15.265-9.281-.324 1.155.031.009.032.007.261-1.171Zm-14.044-4.263-.375 1.139.375-1.139Zm-14.776-6.595 1.097-.487v-.001l-1.097.488Zm-29.162 0 1.095.491v-.001l-1.095-.49Zm-14.421 6.595-.383-1.138.383 1.138Zm-13.686 4.26.26 1.171.037-.008.035-.01-.332-1.153Zm-15.265 9.281 1.003.659-1.003-.659Zm-6.264 25.472-1.2-.002v.001l1.2.001Zm-1.174 56.418 1.179.226-1.179-.226Zm-3.13 12.531 1.184.195-1.184-.195Zm-1.078 21.947-1.2-.027 1.2.027Zm-.489 20.943-1.199-.054v.001l1.199.053Zm-.534 5.549-1.197.084v.002l1.197-.086Zm.524 6.342 1.2-.007-1.2.007Zm-1.349 15.624 1.187-.175-1.187.175Zm6.744 14.294-.778.913.778-.913Zm11.015 6.05.073-1.197h-.003l-.07 1.198Zm.224-3.437-1.082.518v.001l1.082-.52ZM.63-79.78l1.042-.595-1.042.595Zm-1.574-9.823 1.192-.145v-.002l-1.192.147ZM3.104-91.3l1.19-.155v-.001l-1.19.156Zm.223 5.098-1.196.1 1.196-.1Zm3.447 6.42.181-1.187-.18 1.186Zm2.024-.976 1.07.546-1.07-.546Zm-.15-4.874 1.154.33v-.002l-1.154-.328Zm-.224-3.97 1.174-.251v-.003l-1.174.254Zm-.15-8.142-1.19.153 1.19-.153Zm-5.04-11.559 1.157-.319v-.001l-1.156.32Zm.224-10.216-1.153-.329 1.153.329Zm6.795-25.82 1.165.288-1.165-.288Zm4.672-27 1.191.145-1.19-.145Zm2.35-23.76 1.2.015-2.388-.183 1.188.168Zm4.033 24.422 1.16-.303-1.16.303Zm-1.67 30.976-1.185-.186 1.185.186Zm-8.566 40.069-1.198-.066 1.198.066Zm1.893 46.945-1.195.107 1.195-.107Zm5.672 34.676-1.173.252 1.174-.252ZM18.97-5.59l-1.199-.051 1.199.051Zm.166 12.132 1.198.074-1.198-.074ZM15.92 30.04l-1.2.017 1.2-.017Zm6.219 52.836-1.188.17 1.188-.17Zm1.87 15.218 1.15.344-1.15-.344Zm-7.13 11.248-1.066-.552v.001l1.066.551Zm-7.364 5.908.672.994v-.001l-.672-.993Zm-4.173 3.438-.747-.939h-.001l.748.939Zm-3.278 2.619-.996-.668.996.668Zm-.083 1.89.808.888 1.956-1.782-2.629-.298-.135 1.192Zm-.096 2.271 1.126.416.526-1.425-1.508-.182-.144 1.191Zm1.01 1.849 1.075.534 1.072-2.158-2.367.444.22 1.18Zm1.616 1.801 1.16-.309-.324-1.215-1.199.38.363 1.144Zm5.055.927 1.195-.113-.167-1.758-1.573.802.545 1.069Zm5.295 2.552.21 1.182h.002l-.212-1.182Zm5.996-2.427-.735-.949v.001l.735.948Zm2.21-2.709-.774-.918-.004.003.777.915Zm4.872-3.032-.803-.892.803.892Zm2.546-4.376-.996-.67v.001l.996.669Zm4.348-2.987-.185-1.185h-.002l.187 1.185Zm6.264-3.505 1.095.492v-.001l-1.095-.491Zm.11-7.868 1.166-.278v-.002l-1.167.28Zm-1.158-5.399 1.2.02v-.001l-1.2-.019Zm.23-3.828 1.187-.174v-.002l-1.187.176Zm-1.465-4.67 1.18-.222-1.18.222Zm-.468-6.8-1.2.013 1.2-.013Zm-.002-.118 1.2-.013v-.001l-1.2.014Zm3.019-19.394-1.18-.22 1.18.22Zm3.645-24.848 1.199.053-1.199-.053Zm-.521-15.646 1.192-.134-1.192.134Zm-.646-8.569 1.191.143-1.191-.143Zm6.485-23.325 1.188.163-1.188-.163Zm.358-23.28 1.195.102-1.195-.103ZM54.2-56.599l-1.185-.186 1.185.186Zm.029-.183-1.186-.186 1.186.186Zm2.791-15.365 1.17.266-1.17-.266Zm2.136-9.864-.797-.896-.002.001.8.895Zm.733.09-.021-1.2h-.013l.034 1.2Zm.796-.122-.769.922.005.004.764-.926Zm2.165 9.896-1.17.265 1.17-.265Zm2.791 15.365 1.186-.186-1.186.186Zm3.546 26.597-1.195.107 1.195-.107Zm.358 23.28 1.19-.162-1.19.163Zm6.485 23.326-1.191.143 1.191-.143Zm-.646 8.569-1.192-.134 1.192.134Zm-.521 15.646-1.199.053 1.199-.053Zm3.645 24.848 1.18-.22v-.001l-1.18.22Zm3.019 19.394 1.2.015-1.2-.015Zm-.003.22-1.2-.014 1.2.014Zm-.467 6.698-1.18-.222 1.18.222Zm-1.465 4.67-1.187-.176v.002l1.187.174Zm.23 3.828-1.2.02 1.2-.02Zm-1.157 5.399-1.17-.268v.001l1.17.267Zm.109 7.868 1.077-.529v-.001l-1.077.53Zm6.264 3.505.189-1.185h-.001l-.188 1.185Zm4.349 2.987-.998.668.002.002.996-.67Zm2.545 4.376.803-.892-.803.892Zm4.873 3.032-.773.917v.001l.773-.918Zm2.21 2.709-.738.947.003.002.734-.949Zm5.995 2.427-.178 1.187h.001l.177-1.187Zm5.295-2.552.549-1.067-1.571-.808-.172 1.758 1.194.117Zm5.056-.927.362-1.144-1.19-.378-.33 1.205 1.158.317Zm1.614-1.801.222-1.18-2.368-.444 1.072 2.158 1.074-.534Zm1.011-1.849-.144-1.191-1.508.182.526 1.425 1.126-.416Zm-.096-2.271-.135-1.192-2.629.298 1.956 1.782.808-.888Zm-.083-1.89.996-.668-.996.668Zm-3.278-2.619.748-.939-.002-.001-.746.94Zm-4.173-3.438-.672.994h.001l.671-.994Zm-7.364-5.908 1.052-.578-.001-.001-1.051.579Zm-7.13-11.248 1.15-.34-1.15.34Zm1.87-15.218 1.188.17-1.188-.17Zm6.22-52.836 1.199.016-1.199-.016Zm-3.217-23.498-1.198.074 1.198-.074Zm.166-12.132-1.2.047 1.2-.047Zm.333-13.423-1.174-.252 1.174.252Zm5.672-34.676-1.195-.108 1.195.108Zm1.893-46.945 1.2-.026-1.2.026Zm-8.566-40.069 1.184-.194-1.184.194Zm-1.67-30.976-1.184-.194 1.185.194Zm2.338-26.05 1.171-.264-2.361.418 1.19-.154Zm4.173 25.388 1.192-.139-1.192.139Zm4.672 27.966 1.166-.281-1.166.281Zm7.277 24.854-1.156.321 1.156-.321Zm.224 7.801 1.154.33-1.154-.33Zm-2.449 6.048.977.697v-.001l-.977-.696Zm-3.073 8.409-1.19-.154v.001l1.19.153Zm-.15 8.142 1.172.256v-.001l-1.172-.255Zm-.375 8.844 1.069-.546-1.069.546Zm2.025.979.448 1.113.003-.002-.451-1.111Zm3.447-6.42-1.197-.096v.001l1.197.096Zm.223-5.098-1.189-.156-.001.002 1.19.154Zm4.049 1.699-1.191-.148v.001l1.191.147Zm-1.574 9.822-1.036-.605 1.036.605Zm-5.544 5.466-1.082-.52-.001.001 1.083.519Zm.224 3.438.055 1.199.013-.001-.068-1.198Zm11.015-6.051-.777-.914.777.914Zm6.744-14.294-1.187-.175v.001l1.187.174Zm-1.349-18.518 1.2.007v-.007h-1.2ZM81.333-312.935l-1.192-.14-.408 3.491 2.458-2.512-.858-.839Zm-1.32-19.414 1.119-.432-1.12.432Zm-41.582 0-1.12-.432 1.12.432Zm-1.311 19.318-.759.93 2.3 1.875-.35-2.947-1.191.142Zm-1.459.124.86.838v-.001l-.86-.837Zm1.788 8.789-1.142.367v.001l1.142-.368Zm2.443 5.882 1.154-.328-.23-.807-.836-.062-.088 1.197Zm6.184 10.785.879-.818h-.001l-.878.818Zm27.272-.611-.856-.841.856.841Zm5.2-10.174-.087-1.197-.839.061-.229.809 1.155.327Zm2.443-5.882-1.143-.368v.001l1.143.367Zm1.985-8.856-.881.815.002.001.88-.816Zm-36.831 25.595 1.2-.034-.014-.462-.32-.334-.866.83Zm26.684-.178-.817-.879-.369.343-.014.504 1.2.032Zm-.005.182 1.2.032-1.2-.032Zm58.148 171.78 1.197.086c.076-1.05-.057-2.101-.198-3.042-.147-.984-.298-1.826-.334-2.647l-1.199.054-1.199.053c.044.983.226 2.009.359 2.895.139.929.233 1.751.177 2.514l1.197.087Zm-.534-5.549 1.199-.054c-.37-8.279-.29-8.929-.488-17.539l-1.2.027-1.2.028c.198 8.571.119 9.278.49 17.591l1.199-.053Zm-.489-17.566 1.2-.027c-.208-8.998.383-14.114-1.094-23.08l-1.184.195-1.184.194c1.44 8.746.848 13.487 1.062 22.746l1.2-.028Zm-1.078-22.912 1.185-.195c-.355-2.16-.96-4.32-1.556-6.409-.604-2.112-1.198-4.146-1.58-6.152l-1.179.224-1.179.225c.407 2.136 1.037 4.285 1.63 6.362.6 2.1 1.166 4.135 1.495 6.139l1.184-.194Zm-3.13-12.532 1.179-.225c-1.161-6.063-1.456-16.839-1.451-27.813.003-5.465.079-10.947.153-15.87.075-4.917.149-9.288.145-12.511l-1.2.001-1.2.001c.004 3.199-.069 7.543-.144 12.473-.075 4.923-.151 10.42-.154 15.905-.005 10.927.282 21.938 1.493 28.265l1.179-.226Zm-1.174-56.418 1.2-.001c-.009-8.581-1.554-18.661-6.461-26.129l-1.003.658-1.003.659c4.533 6.899 6.058 16.425 6.067 24.814l1.2-.001Zm-6.264-25.472 1.003-.658c-3.547-5.4-10.107-8.48-16.007-9.794l-.261 1.171-.261 1.171c5.611 1.25 11.464 4.113 14.523 8.769l1.003-.659Zm-15.265-9.281.324-1.156a328.706 328.706 0 0 1-13.993-4.247l-.375 1.14-.375 1.139a331.24 331.24 0 0 0 14.095 4.279l.324-1.155Zm-14.044-4.263.375-1.14c-1.015-.334-2.374-.7-3.798-1.099-1.445-.404-2.993-.851-4.46-1.362-1.473-.514-2.818-1.077-3.87-1.699-1.08-.64-1.69-1.25-1.926-1.782l-1.097.487-1.097.486c.541 1.221 1.676 2.151 2.898 2.874 1.25.74 2.766 1.365 4.302 1.9 1.543.538 3.152 1.002 4.603 1.408 1.472.411 2.747.755 3.695 1.066l.375-1.139Zm-43.938-6.595-1.095-.492c-.237.528-.835 1.131-1.886 1.766-1.023.618-2.328 1.181-3.76 1.696-1.425.514-2.93.965-4.34 1.375-1.39.403-2.72.775-3.723 1.112l.383 1.138.383 1.137c.94-.317 2.19-.665 3.626-1.083 1.417-.411 2.984-.88 4.485-1.421 1.494-.538 2.969-1.163 4.188-1.9 1.192-.721 2.297-1.641 2.834-2.837l-1.095-.491Zm-14.421 6.595-.383-1.138a316.535 316.535 0 0 1-13.635 4.244l.332 1.154.332 1.153a319.937 319.937 0 0 0 13.737-4.276l-.383-1.137Zm-13.686 4.26-.26-1.172c-5.901 1.312-12.461 4.392-16.008 9.795l1.003.658 1.003.659c3.06-4.66 8.912-7.522 14.522-8.769l-.26-1.171Zm-15.265 9.281-1.003-.658c-4.904 7.468-6.452 17.544-6.461 26.128l1.2.002 1.2.001c.01-8.392 1.538-17.916 6.067-24.814l-1.003-.659Zm-6.264 25.472-1.2-.001c-.003 3.223.07 7.594.145 12.511.075 4.923.15 10.405.153 15.871.005 10.974-.29 21.75-1.45 27.812l1.178.225 1.179.226c1.211-6.326 1.498-17.337 1.493-28.264-.002-5.485-.079-10.982-.154-15.906-.074-4.93-.147-9.274-.144-12.473l-1.2-.001Zm-1.174 56.418-1.178-.226c-.385 2.006-.979 4.039-1.582 6.152-.596 2.089-1.2 4.25-1.554 6.411l1.184.194 1.184.195c.33-2.006.895-4.042 1.494-6.142.593-2.076 1.222-4.225 1.63-6.358l-1.178-.226Zm-3.13 12.531-1.184-.194c-1.473 8.966-.885 13.111-1.094 22.114l1.2.027 1.2.028c.214-9.254-.375-13.034 1.062-21.78l-1.184-.195Zm-1.078 21.947-1.2-.027c-.199 8.629-.117 12.634-.488 20.916l1.199.054 1.199.054c.371-8.311.293-12.424.49-20.969l-1.2-.028Zm-.489 20.943-1.199-.053c-.036.821-.186 1.663-.333 2.647-.14.941-.273 1.991-.2 3.039l1.198-.084 1.197-.084c-.054-.765.04-1.588.179-2.517.132-.886.313-1.912.357-2.895l-1.199-.053Zm-.534 5.549-1.197.086c.075 1.053.207 2.165.316 3.211.11 1.066.2 2.089.205 3.053l1.2-.008 1.2-.007c-.006-1.087-.106-2.207-.218-3.285-.114-1.098-.237-2.133-.31-3.136l-1.196.086Zm.524 6.342-1.2.008c.017 2.808-.501 5.155-.957 7.661-.452 2.486-.83 5.077-.38 8.13l1.188-.175 1.187-.175c-.39-2.65-.075-4.923.366-7.35.438-2.407 1.015-5.019.996-8.106l-1.2.007Zm-1.349 15.624-1.187.175c.334 2.268 1.305 5.306 2.564 8.092 1.243 2.752 2.861 5.47 4.589 6.94l.778-.913.778-.914c-1.304-1.11-2.745-3.415-3.958-6.101-1.199-2.653-2.085-5.471-2.377-7.454l-1.187.175Zm6.744 14.294-.778.913c1.4 1.192 3.52 2.706 5.65 3.945 1.065.621 2.153 1.186 3.17 1.609.997.414 2.011.73 2.904.782l.07-1.198.069-1.198c-.492-.029-1.212-.224-2.12-.602-.89-.37-1.88-.88-2.886-1.466-2.016-1.175-4.019-2.608-5.301-3.7l-.778.915Zm11.015 6.05-.072 1.199c.5.03.827-.244.92-.328a1.52 1.52 0 0 0 .258-.307c.1-.153.175-.322.23-.466.118-.302.221-.684.29-1.098.13-.794.166-1.944-.32-2.957l-1.082.52-1.081.52c.178.371.21.947.114 1.529a3.271 3.271 0 0 1-.158.618c-.027.069-.034.07-.01.033.01-.015.059-.09.153-.175.06-.055.356-.314.831-.285l-.073 1.198Zm.224-3.437 1.082-.52C6.59-76.22 5.194-77.34 4.1-78.195c-.593-.463-1.118-.859-1.569-1.25-.458-.4-.729-.701-.86-.93L.63-79.78l-1.042.595c.338.592.863 1.11 1.369 1.55.513.446 1.12.905 1.666 1.33 1.182.923 2.089 1.716 2.47 2.51l1.081-.52ZM.63-79.78l1.042-.596c-.462-.807-.743-2.214-.938-4.018-.095-.872-.165-1.782-.237-2.697a64.595 64.595 0 0 0-.25-2.657l-1.19.145-1.192.146c.096.782.167 1.645.24 2.556.07.903.144 1.851.243 2.766.191 1.77.499 3.653 1.24 4.95l1.042-.595Zm-1.574-9.823 1.191-.148c.029.229-.042.346.008.207.03-.082.087-.21.177-.384.178-.344.435-.77.714-1.197.277-.424.56-.822.778-1.106.112-.145.193-.241.241-.293.027-.029.021-.02-.01.006a.945.945 0 0 1-.135.092c-.043.025-.256.147-.565.147v-2.4c-.324 0-.555.13-.619.166a1.47 1.47 0 0 0-.211.146 2.35 2.35 0 0 0-.222.214c-.118.128-.25.288-.379.457a20.84 20.84 0 0 0-.887 1.257c-.302.463-.608.965-.837 1.408-.114.22-.222.45-.3.668-.059.16-.183.52-.134.909l1.19-.149Zm2.399-3.876v1.2c-.224 0-.381-.067-.413-.08-.054-.023-.086-.043-.089-.045-.008-.005.014.009.067.052.1.085.242.222.39.392.147.17.28.35.375.516.102.178.127.278.13.3l1.19-.157 1.19-.156c-.112-.845-.675-1.618-1.071-2.075a6.001 6.001 0 0 0-.665-.66 3.038 3.038 0 0 0-.343-.253 1.747 1.747 0 0 0-.24-.125 1.339 1.339 0 0 0-.521-.109v1.2Zm1.65 2.178-1.19.155c.097.748.12 1.555.132 2.421.012.842.014 1.759.086 2.621l1.195-.099 1.196-.099c-.063-.758-.065-1.568-.078-2.457-.012-.866-.034-1.797-.151-2.697l-1.19.155Zm.223 5.098-1.195.1c.096 1.145.491 2.806 1.136 4.243.323.72.734 1.441 1.245 2.022.505.573 1.196 1.107 2.082 1.24l.18-1.186.18-1.186c-.118-.018-.338-.11-.64-.454-.297-.337-.591-.825-.858-1.419-.535-1.192-.86-2.59-.934-3.46l-1.196.1Zm3.447 6.42-.18 1.186c.833.127 1.658.14 2.326-.324.33-.23.531-.514.662-.738.105-.18.233-.452.285-.554l-1.069-.546-1.068-.546c-.051.1-.104.21-.137.276a2.767 2.767 0 0 1-.084.16c-.038.066-.025.024.043-.023.074-.052.113-.042.033-.034-.096.01-.287.008-.63-.044l-.18 1.186Zm2.024-.976 1.07.546c.15-.296.196-.605.214-.817a5.28 5.28 0 0 0 .007-.71 21.478 21.478 0 0 0-.147-1.482c-.062-.51-.12-.98-.147-1.387a5.035 5.035 0 0 1-.012-.498c.002-.065.007-.114.011-.15.005-.037.01-.05.008-.047l-1.154-.33-1.154-.329c-.137.482-.123 1.059-.094 1.51.032.49.1 1.036.16 1.523.062.508.115.95.132 1.307.009.177.007.302 0 .382-.01.1-.02.048.038-.064l1.068.546Zm-.15-4.874 1.154.328c.216-.758.186-1.716.115-2.479a18.479 18.479 0 0 0-.32-2.07l-1.173.251-1.173.252c.09.421.213 1.101.276 1.789.068.73.052 1.303-.033 1.6l1.154.329Zm-.224-3.97 1.173-.254c-.225-1.036-.193-2.266-.121-3.693.068-1.362.173-2.917-.012-4.35l-1.19.155-1.19.153c.15 1.169.067 2.47-.005 3.922-.07 1.386-.13 2.928.173 4.322l1.172-.255Zm-.15-8.142 1.19-.153c-.11-.854-.49-1.91-.935-2.959-.458-1.077-1.035-2.261-1.607-3.404-.58-1.159-1.146-2.257-1.616-3.224-.48-.988-.798-1.717-.915-2.138l-1.156.319-1.157.319c.184.668.603 1.589 1.07 2.549.476.982 1.067 2.129 1.628 3.249.569 1.136 1.117 2.264 1.544 3.268.438 1.032.7 1.826.764 2.327l1.19-.153Zm-5.04-11.559 1.157-.32c-.307-1.111-.443-2.861-.395-4.716.048-1.846.274-3.65.616-4.85l-1.154-.33-1.153-.329c-.419 1.467-.658 3.491-.708 5.447-.05 1.946.081 3.97.481 5.417l1.157-.319Zm.224-10.216 1.154.33c2.967-10.395 4.164-15.154 6.806-25.862l-1.165-.288-1.165-.287c-2.64 10.695-3.828 15.422-6.783 25.778l1.153.329Zm6.795-25.82 1.165.288c2.162-8.761 3.378-16.33 4.698-27.143l-1.19-.145-1.192-.146c-1.314 10.763-2.516 18.227-4.646 26.859l1.165.287Zm4.672-27 1.191.145c.253-2.07.642-6.615 1.064-11.31.426-4.724.886-9.608 1.284-12.428l-1.189-.167-1.188-.168c-.408 2.892-.873 7.843-1.297 12.548-.426 4.735-.81 9.214-1.056 11.235l1.191.145Zm2.35-23.76-1.2-.016c-.028 2.179.483 6.409 1.239 11.006.76 4.628 1.79 9.742 2.832 13.735l1.162-.303 1.16-.303c-1.019-3.901-2.033-8.938-2.786-13.518-.758-4.611-1.232-8.646-1.207-10.586l-1.2-.015Zm4.033 24.422-1.162.303c.631 2.415.698 7.011.34 12.632-.353 5.561-1.109 11.955-2.033 17.855l1.185.186 1.186.186c.933-5.956 1.698-12.425 2.058-18.075.355-5.59.328-10.553-.414-13.39l-1.16.303Zm-1.67 30.976-1.185-.186c-.916 5.856-2.747 10.881-4.549 17.074-1.791 6.159-3.49 13.291-4.03 23.115l1.198.066 1.198.065c.528-9.587 2.18-16.532 3.939-22.576 1.748-6.01 3.667-11.315 4.615-17.373l-1.186-.185Zm-8.566 40.069-1.198-.066c-.856 15.56.502 31.613 1.896 47.118l1.195-.107 1.195-.108c-1.395-15.525-2.735-31.41-1.89-46.772l-1.198-.065Zm1.893 46.945-1.195.107c1.055 11.727 3.26 23.479 5.694 34.82l1.174-.251 1.173-.252c-2.427-11.309-4.609-22.95-5.65-34.532l-1.196.108Zm5.672 34.676-1.173.252c.877 4.086.5 8.634.307 13.12l1.199.051 1.199.052c.185-4.31.6-9.26-.358-13.727l-1.174.252ZM18.97-5.59l-1.199-.05c-.089 2.084.018 4.184.111 6.201.094 2.04.175 3.999.057 5.906l1.197.075 1.198.074c.128-2.056.04-4.14-.055-6.166-.094-2.046-.194-4.031-.11-5.989l-1.199-.05Zm.166 12.132-1.197-.075c-.236 3.787-1.048 7.595-1.813 11.55-.759 3.917-1.466 7.959-1.406 12.04l1.2-.017 1.2-.018c-.056-3.808.604-7.632 1.362-11.549.75-3.879 1.605-7.875 1.852-11.857l-1.198-.074ZM15.92 30.04l-1.2.017c.257 17.402 3.758 35.716 6.231 52.99l1.188-.17 1.188-.171c-2.496-17.435-5.953-35.486-6.208-52.684l-1.2.018Zm6.219 52.836-1.188.17c.18 1.25.467 2.59.769 3.929.305 1.353.624 2.701.885 4.03.533 2.707.762 5.046.255 6.745l1.15.344 1.15.343c.694-2.324.331-5.197-.2-7.895-.27-1.372-.601-2.775-.9-4.095-.3-1.336-.569-2.594-.733-3.741l-1.188.17Zm1.87 15.218-1.15-.344c-.465 1.558-1.611 3.238-3.025 5.139-1.36 1.828-2.958 3.849-4.02 5.901l1.065.552 1.065.552c.949-1.831 2.38-3.643 3.816-5.573 1.38-1.857 2.794-3.859 3.4-5.883l-1.15-.344Zm-7.13 11.248-1.066-.551c-.533 1.03-1.586 1.975-2.932 2.905-.66.456-1.356.885-2.05 1.309-.683.417-1.379.838-1.989 1.251l.673.994.672.993c.553-.373 1.19-.759 1.895-1.19a45.67 45.67 0 0 0 2.162-1.382c1.418-.979 2.884-2.201 3.7-3.777l-1.065-.552Zm-7.364 5.908-.672-.994c-.804.543-1.549 1.169-2.241 1.772-.71.618-1.346 1.194-2.007 1.721l.747.939.747.939c.717-.571 1.427-1.213 2.089-1.789.68-.592 1.332-1.137 2.009-1.594l-.672-.994Zm-4.173 3.438-.748-.939a12.67 12.67 0 0 1-.606.428c-.282.193-.629.428-.977.678-.642.462-1.494 1.114-1.943 1.784l.996.668.997.669c.171-.255.66-.675 1.351-1.172.319-.23.638-.446.93-.645.271-.185.555-.379.748-.533l-.748-.938Zm-3.278 2.619-.996-.668c-.545.812-.759 1.609-.605 2.335.074.354.23.654.43.885.1.114.216.22.35.308a1.4 1.4 0 0 0 .603.223l.135-1.193.135-1.192c.24.027.393.122.443.155.071.047.12.094.15.13a.426.426 0 0 1 .102.188c.022.106-.066-.032.25-.502l-.997-.669Zm-.083 1.89-.808-.887a3.197 3.197 0 0 0-1.04 2.259c-.008.386.064.832.303 1.232.257.43.703.786 1.305.859l.144-1.192.144-1.191a.667.667 0 0 1 .294.113c.09.062.144.131.174.181.053.088.034.119.035.046a.8.8 0 0 1 .257-.532l-.808-.888Zm-.096 2.271-1.126-.415c-.322.875-.315 1.799.17 2.529a2.13 2.13 0 0 0 2.188.914l-.221-1.179-.221-1.18a.28.28 0 0 1 .254.117c.055.084-.059.011.082-.37l-1.126-.416Zm1.01 1.849-1.074-.534c-.517 1.042-.194 2.104.428 2.767.604.643 1.601 1.035 2.624.711l-.362-1.143-.363-1.144a.086.086 0 0 1-.05-.003.247.247 0 0 1-.1-.064c-.03-.032-.034-.054-.034-.053v.01c0 .005 0 .001.006-.013l-1.074-.534Zm1.616 1.801-1.16.308c.22.827.698 1.451 1.335 1.86.611.391 1.306.546 1.943.582 1.255.072 2.586-.297 3.482-.754l-.545-1.069-.545-1.069c-.585.298-1.495.54-2.255.496-.37-.021-.626-.105-.785-.207-.133-.085-.245-.209-.31-.456l-1.16.309Zm5.055.927-1.195.113c.174 1.837 1.55 2.838 2.842 3.3 1.287.462 2.77.515 3.859.321l-.21-1.182-.211-1.181c-.724.129-1.778.088-2.629-.217-.846-.303-1.212-.74-1.261-1.267l-1.195.113Zm5.295 2.552.212 1.182c2.257-.405 4.51-1.103 6.519-2.661l-.735-.948-.736-.948c-1.58 1.224-3.406 1.824-5.471 2.194l.211 1.181Zm5.996-2.427.734.949c.546-.423 1.089-1.163 1.463-1.682.215-.297.387-.543.549-.759.179-.24.248-.31.24-.302l-.777-.915-.777-.915c-.23.196-.453.486-.61.696-.175.235-.384.532-.57.791-.429.593-.769 1.019-.987 1.188l.735.949Zm2.21-2.709.773.917c.58-.488 1.313-.867 2.216-1.338.85-.443 1.852-.969 2.686-1.719l-.803-.892-.803-.892c-.573.516-1.305.914-2.189 1.375-.831.433-1.83.936-2.654 1.631l.773.918Zm4.872-3.032.803.892c.83-.748 1.337-1.715 1.717-2.527.418-.896.664-1.539 1.021-2.071l-.995-.67-.996-.669c-.496.738-.884 1.707-1.205 2.394-.36.769-.699 1.355-1.148 1.759l.803.892Zm2.546-4.376.995.671c.334-.497.907-1.081 1.59-1.569.69-.494 1.39-.815 1.95-.903l-.187-1.186-.187-1.185c-1.06.167-2.107.703-2.972 1.321-.871.623-1.662 1.405-2.185 2.181l.996.67Zm4.348-2.987.185 1.186c1.16-.181 2.59-.488 3.894-1.095 1.307-.609 2.59-1.569 3.28-3.104l-1.095-.492-1.094-.492c-.372.828-1.104 1.446-2.104 1.912-1.004.468-2.176.732-3.25.9l.184 1.185Zm6.264-3.505 1.095.491c1.204-2.686.762-6.2.181-8.637l-1.167.278-1.167.278c.564 2.366.819 5.191-.037 7.099l1.095.491Zm.11-7.868 1.166-.28c-.206-.859-.548-1.945-.754-2.728-.233-.881-.382-1.663-.37-2.371l-1.2-.02-1.2-.02c-.017 1.045.2 2.083.449 3.023.274 1.039.525 1.776.741 2.676l1.167-.28Zm-1.158-5.399 1.2.019c0-.045.014-.163.059-.442.04-.244.095-.571.142-.931.093-.724.162-1.655.016-2.648l-1.187.174-1.188.174c.101.685.059 1.37-.021 1.991-.04.313-.088.59-.131.858a5.857 5.857 0 0 0-.09.786l1.2.019Zm.23-3.828 1.187-.176c-.159-1.072-.503-1.995-.806-2.766-.32-.815-.56-1.387-.666-1.95l-1.18.222-1.179.223c.16.843.514 1.679.791 2.383.294.749.55 1.457.666 2.24l1.187-.176Zm-1.465-4.67 1.18-.222c-.396-2.095-.423-4.307-.449-6.592l-1.2.014-1.2.013c.025 2.246.05 4.672.49 7.01l1.18-.223Zm-.468-6.8 1.2-.014-.002-.117-1.2.013-1.2.013.002.118 1.2-.013Zm-.002-.118 1.2-.014c-.075-6.258 1.794-12.709 2.998-19.16l-1.18-.22-1.179-.22c-1.143 6.124-3.117 13.055-3.039 19.629l1.2-.015Zm3.019-19.394 1.18.22c1.523-8.158 3.291-16.61 3.664-25.015l-1.199-.053-1.199-.053c-.363 8.193-2.086 16.437-3.626 24.68l1.18.22Zm3.645-24.848 1.199.053c.233-5.269.061-10.557-.528-15.833l-1.192.134-1.193.133c.575 5.15.743 10.314.515 15.46l1.2.053Zm-.521-15.646 1.192-.135c-.081-.723-.184-1.454-.285-2.169-.102-.721-.202-1.428-.281-2.13-.16-1.408-.23-2.74-.08-3.992l-1.192-.143-1.191-.143c-.183 1.524-.09 3.07.078 4.548.084.74.188 1.48.29 2.195.101.722.2 1.419.276 2.103l1.193-.134Zm-.646-8.569 1.191.143c.449-3.751 1.749-7.478 3.125-11.364 1.36-3.84 2.794-7.837 3.358-11.941l-1.19-.163-1.188-.163C48.613-3.251 47.272.508 45.895 4.4c-1.361 3.843-2.76 7.82-3.246 11.88l1.192.142Zm6.485-23.325 1.188.163c.542-3.945.46-7.931.335-11.827-.126-3.926-.295-7.747.03-11.514l-1.195-.103-1.196-.103c-.34 3.941-.162 7.927-.038 11.797.126 3.902.197 7.702-.313 11.424l1.189.163Zm.358-23.28 1.195.102c.752-8.724 2.135-17.56 3.508-26.331l-1.186-.186-1.185-.186c-1.371 8.758-2.768 17.676-3.528 26.497l1.196.103ZM54.2-56.599l1.186.186.029-.184-1.186-.185-1.186-.186-.028.183 1.185.186Zm.029-.183 1.185.186c.806-5.142 1.632-10.254 2.777-15.285l-1.17-.266-1.17-.266c-1.165 5.12-2.002 10.307-2.808 15.445l1.186.186Zm2.791-15.365 1.17.265c.113-.494.228-1.322.35-2.22.127-.93.268-1.993.434-3.036.166-1.047.352-2.036.56-2.814.105-.39.208-.699.306-.922.109-.252.164-.285.116-.241l-.8-.896-.799-.895c-.345.309-.568.73-.718 1.075a9.19 9.19 0 0 0-.422 1.256c-.242.902-.443 1.99-.614 3.06-.17 1.076-.316 2.172-.44 3.088-.13.947-.23 1.648-.313 2.015l1.17.265Zm2.136-9.864.798.897a1.164 1.164 0 0 1-.7.291 1.002 1.002 0 0 1-.186-.007c-.016-.003-.02-.004 0 0l.084.02c.072.016.183.04.31.059.126.019.284.034.46.03l-.033-1.2-.034-1.2-.04-.004a1.91 1.91 0 0 1-.135-.027c-.035-.008-.154-.036-.254-.051a1.481 1.481 0 0 0-.299-.016c-.1.005-.452.03-.768.312l.797.896Zm.733.09.02 1.2a2.94 2.94 0 0 0 .459-.047c.127-.022.24-.05.318-.068l.093-.023.017-.004a.963.963 0 0 1-.156.012 1.166 1.166 0 0 1-.724-.27l.769-.922.768-.921a1.235 1.235 0 0 0-.795-.287c-.126-.001-.231.016-.28.025-.097.017-.214.047-.26.058-.15.036-.216.046-.25.047l.02 1.2Zm.796-.122-.764.926c-.062-.052-.012-.034.099.212.097.216.202.52.308.907.212.774.399 1.764.566 2.816.166 1.047.307 2.117.434 3.054.122.906.237 1.744.351 2.246l1.17-.265 1.171-.265c-.084-.373-.185-1.082-.314-2.037-.125-.924-.27-2.028-.442-3.11-.17-1.076-.374-2.17-.621-3.072a8.744 8.744 0 0 0-.435-1.26c-.155-.345-.39-.772-.76-1.077l-.763.925Zm2.165 9.896-1.17.265c1.14 5.032 1.97 10.145 2.776 15.286l1.185-.186 1.186-.186c-.806-5.139-1.646-10.325-2.807-15.444l-1.17.265Zm2.791 15.365-1.185.185c1.382 8.825 2.747 17.692 3.536 26.519l1.195-.107 1.195-.107c-.796-8.917-2.174-17.859-3.555-26.676l-1.186.186Zm3.546 26.597-1.195.107c.339 3.78.17 7.6.04 11.52-.13 3.89-.219 7.87.325 11.817l1.188-.163 1.19-.164c-.513-3.721-.434-7.512-.305-11.41.128-3.867.308-7.854-.047-11.814l-1.196.107Zm.358 23.28-1.188.164c.563 4.104 1.998 8.102 3.357 11.94 1.376 3.887 2.676 7.614 3.125 11.365l1.191-.143 1.192-.142c-.486-4.06-1.885-8.037-3.245-11.88C72.6.508 71.259-3.25 70.735-7.066l-1.189.163Zm6.485 23.326-1.191.143c.15 1.252.079 2.583-.08 3.99-.08.703-.18 1.41-.282 2.13-.1.716-.204 1.447-.285 2.172l1.192.134 1.193.134c.077-.685.175-1.383.277-2.104.1-.716.205-1.455.289-2.195.167-1.478.261-3.023.079-4.547l-1.192.143Zm-.646 8.569-1.192-.134a101.621 101.621 0 0 0-.528 15.833l1.199-.053 1.199-.053a99.23 99.23 0 0 1 .515-15.46l-1.193-.133Zm-.521 15.646-1.199.053c.373 8.406 2.138 16.853 3.665 25.015l1.18-.22 1.179-.221c-1.543-8.245-3.263-16.487-3.626-24.68l-1.199.053Zm3.645 24.848-1.18.22c1.205 6.451 3.074 12.902 2.999 19.16l1.2.014 1.2.015c.078-6.574-1.896-13.505-3.04-19.63l-1.179.22Zm3.019 19.394-1.2-.015-.003.22 1.2.015 1.2.015.003-.22-1.2-.015Zm-.003.22-1.2-.014c-.028 2.252-.058 4.427-.446 6.49l1.179.222 1.179.223c.434-2.304.46-4.692.488-6.906l-1.2-.015Zm-.467 6.698-1.18-.222c-.106.563-.345 1.134-.666 1.949-.303.77-.647 1.694-.806 2.767l1.187.176 1.187.175c.117-.784.372-1.492.666-2.24.277-.704.632-1.538.791-2.382l-1.18-.223Zm-1.465 4.67-1.187-.174c-.146.993-.077 1.924.016 2.649.047.36.103.688.142.931.045.279.059.397.06.442l1.2-.02 1.2-.019a5.844 5.844 0 0 0-.09-.785c-.044-.268-.091-.545-.132-.858-.08-.62-.122-1.307-.021-1.992l-1.188-.174Zm.23 3.828-1.2.02c.012.705-.141 1.487-.377 2.373-.216.809-.547 1.854-.75 2.738l1.17.268 1.17.268c.197-.862.459-1.641.729-2.656.25-.939.475-1.983.458-3.031l-1.2.02Zm-1.157 5.399-1.17-.267c-.287 1.259-.55 2.755-.594 4.249-.043 1.48.128 3.059.796 4.416l1.077-.53 1.076-.53c-.425-.863-.587-1.998-.55-3.287.037-1.275.266-2.603.535-3.784l-1.17-.267Zm.109 7.868-1.077.529c.714 1.453 1.93 2.397 3.215 3.017 1.279.617 2.694.947 3.938 1.144l.188-1.185.188-1.185c-1.136-.18-2.293-.464-3.271-.936-.973-.469-1.699-1.089-2.104-1.913l-1.077.529Zm6.264 3.505-.19 1.185c.566.09 1.266.412 1.956.904.683.488 1.253 1.07 1.585 1.566l.998-.668.997-.667c-.522-.78-1.314-1.562-2.186-2.184-.865-.618-1.912-1.152-2.971-1.321l-.19 1.185Zm4.349 2.987-.996.67c.357.532.603 1.175 1.022 2.071.38.812.885 1.779 1.716 2.527l.803-.892.803-.892c-.449-.404-.788-.99-1.148-1.759-.321-.687-.709-1.656-1.205-2.394l-.995.669Zm2.545 4.376-.803.892c.834.75 1.836 1.276 2.686 1.719.903.471 1.637.85 2.216 1.338l.774-.917.773-.918c-.824-.695-1.823-1.198-2.654-1.631-.884-.461-1.616-.859-2.19-1.375l-.802.892Zm4.873 3.032-.773.918c-.01-.009.058.058.237.298.16.215.334.461.548.758.374.519.916 1.258 1.46 1.682l.737-.947.738-.947c-.22-.171-.561-.599-.99-1.193-.187-.259-.395-.555-.57-.79-.158-.21-.381-.501-.614-.697l-.773.918Zm2.21 2.709-.735.949c1.996 1.544 4.295 2.326 6.552 2.665l.178-1.187.178-1.186c-1.964-.295-3.847-.958-5.44-2.19l-.733.949Zm5.995 2.427-.177 1.187c1.041.156 2.506.133 3.797-.309 1.309-.448 2.686-1.438 2.869-3.313l-1.194-.117-1.194-.117c-.056.572-.428.992-1.258 1.276-.847.29-1.91.32-2.666.207l-.177 1.186Zm5.295-2.552-.548 1.067c.904.465 2.235.833 3.488.757.637-.038 1.329-.195 1.938-.586a3.124 3.124 0 0 0 1.335-1.849l-1.157-.316-1.158-.317c-.068.249-.183.376-.318.463-.161.103-.416.188-.784.21-.754.045-1.659-.194-2.247-.496l-.549 1.067Zm5.056-.927-.363 1.143c1.023.324 2.02-.068 2.624-.711.622-.663.946-1.725.428-2.767l-1.075.534-1.074.534c.007.014.006.018.006.013v-.01c0-.001-.005.021-.035.053a.242.242 0 0 1-.1.064c-.027.008-.04.005-.049.003l-.362 1.144Zm1.614-1.801-.221 1.179a2.13 2.13 0 0 0 2.188-.914c.485-.73.492-1.654.17-2.529l-1.126.415-1.126.416c.141.381.027.454.083.37a.278.278 0 0 1 .254-.117l-.222 1.18Zm1.011-1.849.144 1.192a1.756 1.756 0 0 0 1.305-.859c.239-.4.311-.846.303-1.232a3.194 3.194 0 0 0-1.04-2.259l-.808.887-.808.888a.802.802 0 0 1 .257.532c.001.073-.018.042.035-.046a.666.666 0 0 1 .468-.294l.144 1.191Zm-.096-2.271.135 1.193c.281-.032.491-.15.603-.223.134-.088.251-.194.349-.308.2-.231.357-.531.431-.885.154-.726-.06-1.523-.605-2.335l-.996.668-.997.669c.316.47.228.608.25.502a.434.434 0 0 1 .102-.188.723.723 0 0 1 .15-.13c.05-.033.204-.128.443-.155l.135 1.192Zm-.083-1.89.996-.668c-.449-.67-1.301-1.322-1.943-1.784-.348-.25-.695-.485-.977-.678a12.714 12.714 0 0 1-.606-.428l-.748.939-.748.938c.193.154.477.348.749.533.291.199.61.415.929.645.692.497 1.18.917 1.351 1.172l.997-.669Zm-3.278-2.619.746-.94c-.662-.526-1.298-1.103-2.008-1.721-.692-.603-1.436-1.229-2.239-1.772l-.672.995-.671.994c.674.455 1.326 1 2.005 1.592.663.577 1.374 1.22 2.093 1.792l.746-.94Zm-4.173-3.438.672-.994c-.623-.422-1.321-.851-2.004-1.276a45.803 45.803 0 0 1-2.039-1.326c-1.333-.934-2.384-1.876-2.941-2.89l-1.052.578-1.051.578c.833 1.516 2.265 2.717 3.667 3.699.713.5 1.453.965 2.147 1.398.705.439 1.353.837 1.929 1.227l.672-.994Zm-7.364-5.908 1.051-.579c-1.076-1.953-2.671-3.971-4.023-5.813-1.406-1.915-2.547-3.638-3.008-5.196l-1.15.34-1.151.34c.595 2.014 1.992 4.052 3.374 5.936 1.437 1.958 2.879 3.778 3.856 5.551l1.051-.579Zm-7.13-11.248 1.15-.34c-.5-1.688-.269-4.036.262-6.75.261-1.334.578-2.686.882-4.04.3-1.338.586-2.675.764-3.917l-1.188-.17-1.188-.171c-.163 1.14-.43 2.397-.73 3.734-.296 1.321-.626 2.727-.895 4.102-.529 2.703-.892 5.582-.208 7.892l1.15-.34Zm1.87-15.218 1.188.17c2.473-17.261 5.997-35.572 6.231-52.99l-1.199-.016-1.2-.017c-.232 17.214-3.711 35.255-6.208 52.683l1.188.17Zm6.22-52.836 1.199.016c.055-4.089-.651-8.127-1.408-12.042-.764-3.953-1.574-7.757-1.811-11.547l-1.197.075-1.198.074c.25 3.985 1.101 7.977 1.85 11.853.756 3.914 1.416 7.737 1.365 11.555l1.2.016Zm-3.217-23.498 1.197-.075c-.118-1.908-.041-3.872.051-5.91.091-2.018.198-4.116.117-6.193l-1.199.046-1.2.047c.077 1.956-.023 3.942-.115 5.991-.092 2.028-.177 4.113-.049 6.168l1.198-.074Zm.166-12.132 1.199-.046c-.173-4.478-.57-9.035.307-13.126l-1.173-.251-1.174-.252c-.958 4.469-.524 9.442-.358 13.722l1.199-.047Zm.333-13.423 1.173.252c2.433-11.345 4.642-23.09 5.694-34.821l-1.195-.107-1.195-.108c-1.039 11.586-3.224 23.22-5.651 34.532l1.174.252Zm5.672-34.676 1.195.107c1.397-15.55 2.228-31.55 1.898-47.078l-1.2.026-1.2.025c.328 15.413-.496 31.32-1.888 46.812l1.195.108Zm1.893-46.945 1.2-.026c-.238-11.078-1.918-18.243-3.789-24.136-1.887-5.942-3.843-10.283-4.793-16.101l-1.184.194-1.185.193c.988 6.045 3.08 10.789 4.875 16.441 1.81 5.701 3.444 12.639 3.676 23.46l1.2-.025Zm-8.566-40.069 1.184-.194c-.956-5.85-1.594-12.179-1.88-17.724-.288-5.573-.216-10.258.21-12.864l-1.183-.194-1.185-.194c-.471 2.876-.528 7.781-.24 13.376.291 5.625.938 12.042 1.91 17.987l1.184-.193Zm-1.67-30.976 1.185.194c.73-4.451 1.486-9.697 1.975-14.486.486-4.75.724-9.174.368-11.913l-1.19.155-1.19.154c.316 2.429.112 6.595-.375 11.36-.483 4.725-1.232 9.92-1.957 14.342l1.185.194Zm2.338-26.05-1.17.263c.481 2.141 3.621 20.722 4.151 25.264l1.192-.139 1.192-.139c-.538-4.612-3.691-23.278-4.194-25.513l-1.171.264Zm4.173 25.388-1.192.139c1.268 10.896 2.096 17.336 4.697 28.109l1.167-.282 1.166-.281c-2.566-10.631-3.382-16.959-4.646-27.824l-1.192.139Zm4.672 27.966-1.167.282c1.121 4.643 2.233 8.307 3.419 12.088 1.187 3.781 2.443 7.67 3.869 12.805l1.156-.321 1.157-.321c-1.44-5.182-2.711-9.117-3.892-12.881-1.18-3.764-2.274-7.368-3.376-11.933l-1.166.281Zm7.277 24.854-1.156.321c.699 2.517.881 4.857.226 7.15l1.154.33 1.154.33c.816-2.856.551-5.672-.221-8.452l-1.157.321Zm.224 7.801-1.154-.33c-.645 2.256-1.081 4.008-2.273 5.682l.978.696.977.696c1.482-2.081 2.018-4.289 2.626-6.414l-1.154-.33Zm-2.449 6.048-.977-.697c-1.744 2.445-2.92 6.106-3.286 8.952l1.19.153 1.19.154c.331-2.572 1.406-5.826 2.86-7.865l-.977-.697Zm-3.073 8.409-1.19-.153c-.183 1.433-.078 2.988-.011 4.348.071 1.427.103 2.656-.122 3.693l1.173.254 1.172.255c.303-1.394.243-2.934.174-4.32-.072-1.453-.155-2.754-.006-3.925l-1.19-.153Zm-.15 8.142-1.173-.255c-.107.49-.247 1.268-.321 2.075-.071.763-.1 1.72.116 2.478l1.154-.328 1.154-.33c-.085-.297-.102-.87-.034-1.6.063-.687.185-1.366.276-1.784l-1.172-.255Zm-.224 3.97-1.154.328c-.001-.003.003.01.008.048.004.036.009.086.011.15.005.132.001.298-.012.5-.027.407-.085.877-.147 1.386-.06.487-.125 1.02-.147 1.481-.012.232-.014.477.007.71.018.212.064.522.215.817l1.068-.546 1.069-.546c.057.112.047.165.038.064a2.924 2.924 0 0 1 0-.382c.017-.356.07-.798.132-1.306.06-.486.128-1.032.16-1.523.029-.452.043-1.028-.094-1.51l-1.154.329Zm-.151 4.874-1.068.546a3.276 3.276 0 0 0 1.391 1.395c.583.302 1.368.465 2.15.15l-.448-1.112-.449-1.114c.043-.017.004.024-.148-.055a.877.877 0 0 1-.359-.356l-1.069.546Zm2.025.979.451 1.111c1.416-.575 2.403-1.994 3.032-3.306.652-1.361 1.062-2.908 1.16-4.13l-1.196-.094-1.197-.096c-.072.906-.397 2.167-.932 3.283-.558 1.165-1.209 1.892-1.77 2.12l.452 1.112Zm3.447-6.42 1.196.097c.069-.864.072-1.78.084-2.62.013-.865.036-1.672.133-2.42l-1.19-.155-1.19-.154c-.116.898-.14 1.827-.153 2.693-.013.889-.015 1.7-.077 2.463l1.197.097Zm.223-5.098 1.19.157c.003-.023.028-.123.13-.3a3.39 3.39 0 0 1 .374-.517c.148-.17.29-.306.39-.39.052-.044.074-.057.065-.052a.62.62 0 0 1-.089.045c-.033.014-.188.08-.41.08v-2.4c-.249 0-.441.074-.518.107a1.773 1.773 0 0 0-.242.125 2.922 2.922 0 0 0-.345.253 5.952 5.952 0 0 0-.665.662c-.396.457-.958 1.23-1.069 2.074l1.189.156Zm1.65-2.178v1.2c-.309 0-.522-.122-.565-.146a.955.955 0 0 1-.135-.093c-.031-.026-.037-.035-.01-.006.048.052.129.148.241.293.219.284.501.683.778 1.107.279.425.536.853.714 1.196.09.174.147.302.177.384.05.14-.021.022.008-.206l1.191.148 1.19.148c.049-.39-.075-.748-.133-.909a5.734 5.734 0 0 0-.301-.668c-.23-.443-.535-.945-.837-1.408a21.241 21.241 0 0 0-.887-1.257 7.023 7.023 0 0 0-.379-.457 2.258 2.258 0 0 0-.222-.213 1.483 1.483 0 0 0-.211-.147 1.253 1.253 0 0 0-.619-.166v1.2Zm2.399 3.877-1.191-.147a60.453 60.453 0 0 0-.246 2.653c-.071.915-.139 1.824-.232 2.698-.192 1.807-.473 3.21-.941 4.013l1.036.605 1.037.605c.76-1.303 1.067-3.198 1.255-4.97.097-.915.168-1.865.238-2.766.07-.91.139-1.77.235-2.545l-1.191-.146Zm-1.574 9.822-1.036-.605c-.139.239-.418.547-.877.945-.453.394-.977.79-1.568 1.252-1.092.854-2.48 1.97-3.145 3.354l1.082.52 1.082.519c.38-.793 1.282-1.582 2.459-2.502.544-.426 1.149-.884 1.664-1.33.507-.442 1.032-.96 1.376-1.549l-1.037-.604Zm-5.544 5.466-1.083-.519c-.484 1.012-.446 2.161-.316 2.953.068.414.171.796.287 1.097.056.144.13.31.227.463.046.073.128.19.251.305.088.08.41.36.913.338l-.055-1.2-.056-1.198c.477-.022.769.243.825.294.091.084.137.158.146.172.023.036.015.032-.011-.037a3.316 3.316 0 0 1-.158-.621c-.096-.584-.065-1.159.112-1.529l-1.082-.518Zm.224 3.438.068 1.198c.897-.052 1.913-.367 2.912-.782 1.018-.424 2.106-.989 3.172-1.61 2.127-1.24 4.243-2.754 5.641-3.944l-.778-.913-.777-.914c-1.282 1.09-3.281 2.523-5.296 3.698-1.005.586-1.994 1.097-2.884 1.467-.909.378-1.631.573-2.127.602l.069 1.198Zm11.015-6.051.778.914c1.729-1.471 3.348-4.188 4.592-6.94 1.259-2.787 2.229-5.825 2.561-8.094l-1.187-.174-1.187-.174c-.291 1.982-1.176 4.8-2.374 7.453-1.214 2.686-2.655 4.99-3.96 6.1l.777.915Zm6.744-14.294 1.187.175c.449-3.04.075-6.354-.371-9.529-.456-3.241-.982-6.324-.965-9.157l-1.2-.007-1.2-.007c-.019 3.058.55 6.385.988 9.505.448 3.187.766 6.186.374 8.845l1.187.175Zm-1.349-18.518h1.2c0-.961.085-1.982.194-3.047.107-1.044.239-2.157.314-3.21l-1.197-.085-1.197-.086c-.072 1.004-.195 2.037-.308 3.137-.11 1.08-.206 2.202-.206 3.291h1.2ZM81.333-312.935l1.192.138v-.003l.001-.008.003-.029.012-.11c.01-.096.025-.235.042-.414a75.047 75.047 0 0 0 .322-6.598c.014-3.984-.311-9.028-1.773-12.822l-1.12.432-1.12.431c1.292 3.352 1.627 8.015 1.613 11.951a72.65 72.65 0 0 1-.31 6.375 40.723 40.723 0 0 1-.053.511l-.001.006v.001l1.192.139Zm-1.32-19.414 1.119-.432c-2.294-5.953-9.336-14.019-21.898-14.019v2.4c11.382 0 17.649 7.267 19.658 12.482l1.12-.431ZM59.233-345.6v-1.2h-.013v2.4h.013v-1.2Zm-.013 0v-1.2h-.012v2.4h.012v-1.2Zm-.012 0v-1.2c-12.565 0-19.604 8.066-21.898 14.019l1.12.432 1.12.431c2.009-5.215 8.272-12.482 19.658-12.482v-1.2ZM38.43-332.349l-1.12-.432c-1.462 3.794-1.785 8.813-1.768 12.775a73.894 73.894 0 0 0 .326 6.555 38.754 38.754 0 0 0 .054.52l.004.029v.011l1.193-.14 1.191-.141v-.007l-.003-.023a59.728 59.728 0 0 1-.174-1.931 71.47 71.47 0 0 1-.191-4.883c-.017-3.911.316-8.55 1.607-11.902l-1.12-.431Zm-1.311 19.318c.758-.93.758-.931.757-.931v-.001c-.002 0-.002-.001-.003-.002l-.004-.003-.01-.008a.59.59 0 0 1-.024-.018 2.12 2.12 0 0 0-.256-.167 2.431 2.431 0 0 0-.665-.255c-.63-.138-1.434-.026-2.113.672l.86.837.86.837c.041-.042.037-.022-.018-.007a.217.217 0 0 1-.103.005c-.008-.001-.005-.002.003.003l-.005-.003-.013-.01-.011-.008a.128.128 0 0 0-.007-.006l-.003-.002-.002-.002v-.001c-.001 0-.002 0 .757-.93Zm-1.459.124-.859-.837c-.765.785-.803 1.944-.73 2.789.081.933.346 1.973.647 2.935.306.973.668 1.926.971 2.695.322.815.54 1.335.617 1.574l1.142-.367 1.142-.367c-.108-.338-.39-1.016-.668-1.721a38.097 38.097 0 0 1-.913-2.532c-.283-.902-.488-1.749-.546-2.424-.066-.765.087-.938.057-.907l-.86-.838Zm1.788 8.789-1.142.368.006.025c.004.017.01.041.015.071.01.063.022.144.033.246.024.207.042.455.065.757.043.58.097 1.326.231 2.052.131.712.36 1.527.82 2.202.497.727 1.262 1.279 2.326 1.358l.089-1.197.088-1.197c-.232-.017-.374-.104-.521-.318-.182-.266-.333-.693-.442-1.284-.106-.577-.153-1.193-.198-1.794-.021-.288-.043-.585-.072-.847a4.265 4.265 0 0 0-.156-.81l-1.142.368Zm2.443 5.882-1.154.328c.964 3.393 3.297 7.881 6.46 11.275l.878-.818.878-.818c-2.893-3.105-5.043-7.253-5.908-10.295l-1.154.328Zm33.456 10.174.857.841c2.99-3.047 4.695-7.857 5.497-10.688l-1.154-.327-1.155-.327c-.79 2.785-2.366 7.078-4.901 9.66l.856.841Zm5.2-10.174.087 1.197c1.064-.078 1.83-.629 2.327-1.356.461-.674.69-1.49.82-2.202.134-.726.189-1.472.232-2.052.022-.302.04-.551.064-.759a3.908 3.908 0 0 1 .048-.317l.007-.026-1.142-.367-1.143-.367a4.279 4.279 0 0 0-.155.81c-.03.262-.051.56-.073.848-.044.601-.091 1.218-.198 1.795-.108.59-.26 1.017-.441 1.282-.146.214-.288.3-.52.317l.087 1.197Zm2.443-5.882 1.142.368c.082-.253.301-.813.61-1.643.297-.795.65-1.774.957-2.764.304-.979.578-2.017.694-2.918a5.69 5.69 0 0 0 .035-1.345c-.047-.411-.178-.944-.573-1.37l-.88.816-.88.816c-.106-.115-.073-.175-.052.009.019.164.015.417-.03.767-.09.696-.316 1.578-.606 2.514a50.517 50.517 0 0 1-.913 2.636c-.278.744-.543 1.424-.647 1.746l1.143.368Zm1.985-8.856.882-.814c-.35-.378-.773-.626-1.245-.715a2.193 2.193 0 0 0-1.165.105 2.74 2.74 0 0 0-.966.617l-.004.003-.002.002v.001s-.001.001.857.84l.857.839v.001l-.002.002-.003.002-.005.005a.043.043 0 0 1-.006.006.31.31 0 0 1 .024-.019.35.35 0 0 1 .078-.046c.011-.004-.032.014-.108 0-.09-.017-.114-.058-.073-.014l.881-.815Zm-36.9 25.523-.878.817.08.086.867-.831.866-.83a7.698 7.698 0 0 1-.056-.06l-.879.818Zm.069.072-1.2.035c.12 4.191.342 7.711-.984 10.67l1.095.491 1.095.49c1.605-3.58 1.306-7.772 1.193-11.72l-1.2.034Zm26.684-.178.817.88c.192-.179.378-.36.559-.545l-.857-.84-.856-.841c-.156.159-.316.315-.48.467l.817.879Zm1.39 11.374 1.096-.488c-1.473-3.314-1.41-6.281-1.291-10.672l-1.2-.032-1.2-.032c-.116 4.323-.228 7.828 1.498 11.711l1.096-.487Zm-1.395-11.192 1.2.032.005-.181-1.2-.033-1.2-.032-.005.182 1.2.032Z" mask="url(#c)"/><path fill="#C7C7C7" d="M18.99-128.68c9.135 17.121 29.523 50.045 30.93 83.694.562 13.456-.167 51.484-13.6 58.597 7.901-16.33 10.581-36.842 8.426-55.053-2.897-24.496-19.579-57.826-26.61-83.819.028-1.049.236-2.696.853-3.419Z"/><path fill="#C7C7C7" d="M16.75-119.309c4.8 14.169 14.819 38.111 17.895 62.013 1.052 8.168-1.66 20.645-3.866 28.078-1.682 5.255-5.28 4.196-5.82 1.218-2.549-12.137-8.343-20.357-9.999-31.577-2.823-19.103-1.829-42.359 1.79-59.732ZM39.994-96.19c4.828 4.291 11.537 7.109 13.414 11.673 2.174 5.287.537 21.198-1.34 26.565-2.417-17.309-9.394-30.592-12.074-38.239ZM37.826-57.936s11.646 46.36-2.58 45.141c-11.281-.969 2.58-19.992 2.58-45.14ZM13.973-50.52c-1.523-8.376 10.376 23.78 10.76 30.417.3 5.19-3.758 11.936-3.991 7.954-.512-8.725-5.48-28.052-6.77-38.37ZM100.851-128.68c-9.136 17.121-29.524 50.045-30.93 83.694-.564 13.456.166 51.484 13.599 58.597-7.902-16.33-10.581-36.842-8.426-55.053 2.897-24.496 19.579-57.826 26.61-83.819-.028-1.049-.236-2.696-.853-3.419Z"/><path fill="#C7C7C7" d="M103.092-119.309c-4.8 14.169-14.817 38.111-17.89 62.013-1.052 8.168 1.66 20.645 3.865 28.078 1.683 5.255 5.28 4.196 5.82 1.218 2.549-12.137 8.343-20.357 9.999-31.577 2.817-19.103 1.823-42.359-1.794-59.732ZM79.85-96.19c-4.83 4.291-11.538 7.109-13.415 11.673-2.174 5.287-.537 21.198 1.34 26.565 2.417-17.309 9.391-30.592 12.074-38.239ZM82.014-57.936s-11.645 46.36 2.58 45.141c11.282-.969-2.58-19.992-2.58-45.14ZM105.868-50.52c1.522-8.376-10.376 23.78-10.76 30.417-.3 5.19 3.757 11.936 3.99 7.954.512-8.725 5.481-28.052 6.77-38.37Z"/><path fill="#3179FF" d="M22.33 11.158c-9.608 33.487 4.25 68.608 4.25 81.676 0 2.891 2.715 3.192 2.862 0 .55-11.786 1.257-61.213-7.111-81.676ZM41.548 18.29c-16.12 18.605-7.272 36.487-8.432 74.544-.077 2.553 2.868 2.55 2.868 0 0-11.475 9.283-57.803 5.564-74.543ZM97.512 11.158c9.609 33.487-4.25 68.608-4.25 81.676 0 2.891-2.714 3.192-2.861 0-.553-11.786-1.26-61.213 7.111-81.676ZM78.292 18.29c16.119 18.605 7.271 36.487 8.432 74.544.077 2.553-2.868 2.55-2.868 0 0-11.475-9.283-57.803-5.564-74.543Z"/></g><defs><clipPath id="a"><path fill="#fff" d="M0 0h120v120H0z"/></clipPath><pattern id="b" width="1" height="1" patternContentUnits="objectBoundingBox"><use xlink:href="#d" transform="scale(.0008 .00024)"/></pattern></defs></svg>