<svg width="120" height="120" viewBox="0 0 120 120" fill="none" xmlns="http://www.w3.org/2000/svg">
<g clip-path="url(#clip0_25_19791)">
<rect width="120" height="398.48" transform="translate(0 -26.64)" fill="#EAEAEA"/>
<mask id="path-1-outside-1_25_19791" maskUnits="userSpaceOnUse" x="-2" y="-28.64" width="124" height="402" fill="black">
<rect fill="white" x="-2" y="-28.64" width="124" height="402"/>
<path d="M118.699 160.363C118.765 161.866 119.253 163.476 119.144 164.987C119.021 166.7 118.717 168.563 118.717 170.271C118.688 175.179 120.542 180.951 119.842 185.699C119.322 189.24 116.751 195.457 114.222 197.607C111.989 199.507 107.363 202.516 105.042 202.649C104.869 202.657 104.304 200.936 104.856 199.784C105.727 197.97 108.671 196.611 109.476 195.231C110.499 193.477 110.457 189.733 110.787 187.047C110.854 186.512 108.975 183.818 108.789 183.818C108.599 183.818 107.518 184.841 107.414 185.632C107.235 187.005 107.336 188.524 107.227 189.88C107.086 191.652 106.001 194.559 104.355 195.228C103.739 195.476 102.98 195.023 102.668 194.412C102.356 193.802 103.044 191.231 102.793 190.352C102.543 189.472 102.814 187.801 102.98 187.045C103.419 185.02 102.828 182.429 103.105 180.26C103.395 178.003 104.333 175.123 105.666 173.255C106.779 171.691 107.185 170.041 107.707 168.216C108.32 166.071 108.133 163.923 107.52 161.717C105.133 153.121 103.307 148.682 101.455 141.01C99.3025 132.094 98.6176 126.775 97.5624 117.71C97.1174 113.897 94.4954 98.3807 94.085 96.558C94.6446 100.864 93.3496 110.87 92.1372 118.262C91.3884 122.829 91.9213 134.242 93.5281 144.069C95.1429 153.952 100.275 159.207 100.667 177.452C100.941 190.341 100.251 203.632 99.0893 216.564C98.2179 226.277 96.3873 236.016 94.3622 245.454C93.5974 249.019 93.9438 252.99 94.085 256.638C94.2156 259.998 93.7413 263.443 93.9465 266.745C94.3515 273.223 96.7151 279.735 96.6271 286.322C96.4326 300.749 93.5148 315.892 91.4444 330.342C90.8741 334.313 88.8996 339.69 89.8855 343.021C90.7649 345.997 94.117 349.288 95.8277 352.392C96.9869 354.5 99.966 355.963 101.964 357.314C103.196 358.145 104.291 359.265 105.442 360.179C105.94 360.576 107.656 361.591 108.173 362.361C108.89 363.429 108.384 363.92 108.242 363.936C108.959 364.589 108.941 365.753 108.322 365.828C108.709 366.875 108.12 367.488 107.48 367.368C107.909 368.231 106.993 369.14 106.135 368.868C105.647 370.651 103.166 370.28 101.922 369.641C101.722 371.679 99.0067 371.991 97.5091 371.767C95.7505 371.503 94.0078 370.901 92.5129 369.745C91.876 369.249 91.042 367.799 90.6716 367.488C89.5018 366.502 87.7831 366.017 86.6107 364.962C85.5448 364.002 85.201 362.374 84.4896 361.316C83.7781 360.253 82.2193 359.043 80.8656 358.828C78.8831 358.513 76.5782 357.804 75.6456 355.907C74.7343 354.058 75.0913 351.385 75.555 349.352C75.8881 347.897 76.5436 346.314 76.5196 344.854C76.5116 344.358 76.1225 343.063 76.3277 341.664C76.5569 340.116 77.327 338.947 77.5481 337.774C77.8913 335.955 77.9147 334.054 77.9376 332.194L77.9398 332.01C78.0038 326.665 76.4023 321.091 75.4244 315.852C74.1454 309.017 72.6931 302.065 72.3867 295.15C72.1948 290.812 72.3334 286.458 72.821 282.115C73.0848 279.767 73.6364 277.289 73.3593 274.976C72.5812 268.469 68.8613 262.14 67.9554 255.543C67.076 249.153 68.2351 242.595 67.6569 236.146C66.9961 228.755 65.8529 221.336 64.7018 213.987C64.0303 209.705 63.3348 205.415 62.3755 201.186C62.0451 199.728 61.5948 193.786 60.5716 192.942C60.5236 192.902 60.2118 193.038 59.9081 193.043C59.6229 193.051 59.3458 192.926 59.2979 192.968C58.3066 193.853 57.843 199.752 57.5179 201.186C56.5559 205.415 55.8631 209.705 55.1916 213.987L55.1677 214.14C54.0243 221.442 52.8663 228.838 52.2365 236.146C51.6823 242.568 52.8147 249.155 51.9381 255.543C51.0321 262.14 47.3122 268.469 46.5341 274.976C46.257 277.289 46.8086 279.77 47.0724 282.115C47.5574 286.458 47.6986 290.812 47.5067 295.15C47.2003 302.065 45.7454 309.02 44.469 315.852C43.4911 321.091 41.8896 326.665 41.9536 332.01L41.9546 332.108C41.9755 333.996 41.9969 335.927 42.3453 337.774C42.5664 338.947 43.3365 340.119 43.5657 341.664C43.7709 343.063 43.3818 344.356 43.3738 344.854C43.3499 346.314 43.9867 347.886 44.3384 349.352C44.8154 351.353 45.1059 353.994 44.2478 355.907C43.3632 357.876 40.8904 358.537 39.0278 358.828C37.6768 359.041 36.118 360.256 35.4038 361.316C34.6924 362.374 34.3486 364.002 33.2827 364.962C32.1103 366.017 30.3916 366.502 29.2218 367.488C28.8514 367.802 28.0174 369.252 27.3805 369.745C25.8856 370.904 24.1856 371.445 22.3843 371.767C20.8734 372.036 18.1581 371.61 17.9716 369.641C16.7379 370.27 14.2357 370.659 13.7588 368.868C12.9007 369.14 11.9841 368.231 12.4131 367.368C11.7736 367.488 11.1847 366.875 11.5711 365.828C10.9529 365.753 10.9342 364.589 11.651 363.936C11.5098 363.92 11.0035 363.429 11.7203 362.361C12.2372 361.591 13.9533 360.576 14.4516 360.179C15.6 359.265 16.6952 358.148 17.929 357.314C19.8662 356.003 22.9412 354.564 24.0657 352.392C25.7418 349.158 29.1152 346.005 30.0079 343.021C31.0098 339.669 29.022 334.337 28.4491 330.342C26.3786 315.884 23.4795 300.735 23.2663 286.322C23.1704 279.748 25.5446 273.217 25.9469 266.745C26.1521 263.443 25.6645 260.006 25.8084 256.638C25.9656 252.974 26.296 249.017 25.5312 245.454C23.5061 236.019 21.6781 226.274 20.8041 216.564C19.6423 203.638 18.5179 190.333 19.2267 177.452C20.1166 161.28 24.8118 153.995 26.3653 144.069C27.9135 134.191 28.8994 122.637 27.7562 118.262C26.0375 111.685 24.3508 101.346 24.3961 97.9144C23.7246 102.673 22.8533 114.302 22.4376 117.71C21.3397 126.698 20.3325 132.96 18.5445 140.205C16.3435 149.121 15.3496 153.073 12.8821 161.717C12.2479 163.939 12.1067 168.096 12.6956 170.228C13.1965 172.043 16.6046 177.601 16.8951 179.858C17.1749 182.024 16.5806 184.617 17.0203 186.642C17.1829 187.399 17.4573 189.07 17.2068 189.949C16.9564 190.826 17.6438 193.4 17.3321 194.01C17.0203 194.62 16.9564 195.023 15.6453 194.823C13.9746 194.57 12.9141 191.154 12.7728 189.475C12.6609 188.124 12.7648 186.6 12.5863 185.227C12.4824 184.436 11.3979 183.413 11.2113 183.413C11.0248 183.413 9.14623 186.107 9.21284 186.642C9.54326 189.344 9.52194 193.072 10.5239 194.826C11.3046 196.192 14.273 197.562 15.1444 199.379C15.6986 200.533 15.1337 202.255 14.9579 202.244C12.6503 202.111 8.01375 199.105 5.77809 197.202C3.25199 195.052 0.680593 188.835 0.158319 185.294C-0.542487 180.543 1.31212 177.188 1.28281 172.277C1.27215 170.569 0.968377 168.706 0.845803 166.993C0.739216 165.482 1.22418 163.873 1.2908 162.37C1.5999 155.458 1.53329 152.076 1.69849 144.922C1.87436 137.317 1.38406 134.015 2.59648 126.637C3.16672 123.165 4.54435 119.645 5.20519 116.197C7.18237 105.876 6.17246 79.8932 6.18312 69.1919C6.19112 62.1199 7.47282 53.9554 11.4032 47.9706C14.1558 43.779 19.3279 41.3036 24.1243 40.2377C27.9508 39.1372 31.7559 37.9594 35.5291 36.6884C38.7666 35.5985 46.257 34.0663 47.5467 31.1938C48.7678 28.4697 48.5512 25.2571 48.4539 21.8667C48.4345 21.8466 48.4155 21.8264 48.3967 21.8062C45.8733 19.0989 44.0054 15.5016 43.2433 12.821C41.0822 12.6611 41.5166 8.87995 41.2075 7.92067C40.8984 6.95873 38.4922 1.85589 39.7179 0.598173C40.3121 -0.0120335 40.933 0.494251 40.933 0.494251C40.933 0.494251 39.7312 -9.64746 42.0255 -15.6003C43.8188 -20.2528 49.3613 -26.64 59.3405 -26.64H59.3512H59.3618C69.3383 -26.64 74.8835 -20.2528 76.6768 -15.6003C78.9711 -9.64746 77.7773 0.574192 77.7773 0.574192C77.7773 0.574192 78.4968 -0.161253 79.1469 0.542219C80.1062 1.57611 77.8013 6.9614 77.4922 7.92067C77.1831 8.88262 77.6174 12.6638 75.4564 12.821C74.7929 15.1606 73.4259 18.9524 71.1236 21.2973C70.9833 21.4402 70.8391 21.5807 70.6908 21.7184L70.6868 21.8696C70.5888 25.4998 70.516 28.1959 71.8484 31.1938C73.1434 34.1143 80.8896 35.6119 84.1618 36.6884C88.0336 37.9621 91.94 39.1399 95.865 40.2404C100.661 41.3089 105.834 43.7844 108.586 47.9732C112.519 53.9581 113.798 62.1253 113.806 69.1946C113.817 79.8959 112.807 105.876 114.784 116.199C115.442 119.65 116.823 123.17 117.393 126.639C118.608 134.018 118.115 138.124 118.291 145.729C118.456 152.886 118.389 153.451 118.699 160.363Z"/>
</mask>
<path d="M118.699 160.363C118.765 161.866 119.253 163.476 119.144 164.987C119.021 166.7 118.717 168.563 118.717 170.271C118.688 175.179 120.542 180.951 119.842 185.699C119.322 189.24 116.751 195.457 114.222 197.607C111.989 199.507 107.363 202.516 105.042 202.649C104.869 202.657 104.304 200.936 104.856 199.784C105.727 197.97 108.671 196.611 109.476 195.231C110.499 193.477 110.457 189.733 110.787 187.047C110.854 186.512 108.975 183.818 108.789 183.818C108.599 183.818 107.518 184.841 107.414 185.632C107.235 187.005 107.336 188.524 107.227 189.88C107.086 191.652 106.001 194.559 104.355 195.228C103.739 195.476 102.98 195.023 102.668 194.412C102.356 193.802 103.044 191.231 102.793 190.352C102.543 189.472 102.814 187.801 102.98 187.045C103.419 185.02 102.828 182.429 103.105 180.26C103.395 178.003 104.333 175.123 105.666 173.255C106.779 171.691 107.185 170.041 107.707 168.216C108.32 166.071 108.133 163.923 107.52 161.717C105.133 153.121 103.307 148.682 101.455 141.01C99.3025 132.094 98.6176 126.775 97.5624 117.71C97.1174 113.897 94.4954 98.3807 94.085 96.558C94.6446 100.864 93.3496 110.87 92.1372 118.262C91.3884 122.829 91.9213 134.242 93.5281 144.069C95.1429 153.952 100.275 159.207 100.667 177.452C100.941 190.341 100.251 203.632 99.0893 216.564C98.2179 226.277 96.3873 236.016 94.3622 245.454C93.5974 249.019 93.9438 252.99 94.085 256.638C94.2156 259.998 93.7413 263.443 93.9465 266.745C94.3515 273.223 96.7151 279.735 96.6271 286.322C96.4326 300.749 93.5148 315.892 91.4444 330.342C90.8741 334.313 88.8996 339.69 89.8855 343.021C90.7649 345.997 94.117 349.288 95.8277 352.392C96.9869 354.5 99.966 355.963 101.964 357.314C103.196 358.145 104.291 359.265 105.442 360.179C105.94 360.576 107.656 361.591 108.173 362.361C108.89 363.429 108.384 363.92 108.242 363.936C108.959 364.589 108.941 365.753 108.322 365.828C108.709 366.875 108.12 367.488 107.48 367.368C107.909 368.231 106.993 369.14 106.135 368.868C105.647 370.651 103.166 370.28 101.922 369.641C101.722 371.679 99.0067 371.991 97.5091 371.767C95.7505 371.503 94.0078 370.901 92.5129 369.745C91.876 369.249 91.042 367.799 90.6716 367.488C89.5018 366.502 87.7831 366.017 86.6107 364.962C85.5448 364.002 85.201 362.374 84.4896 361.316C83.7781 360.253 82.2193 359.043 80.8656 358.828C78.8831 358.513 76.5782 357.804 75.6456 355.907C74.7343 354.058 75.0913 351.385 75.555 349.352C75.8881 347.897 76.5436 346.314 76.5196 344.854C76.5116 344.358 76.1225 343.063 76.3277 341.664C76.5569 340.116 77.327 338.947 77.5481 337.774C77.8913 335.955 77.9147 334.054 77.9376 332.194L77.9398 332.01C78.0038 326.665 76.4023 321.091 75.4244 315.852C74.1454 309.017 72.6931 302.065 72.3867 295.15C72.1948 290.812 72.3334 286.458 72.821 282.115C73.0848 279.767 73.6364 277.289 73.3593 274.976C72.5812 268.469 68.8613 262.14 67.9554 255.543C67.076 249.153 68.2351 242.595 67.6569 236.146C66.9961 228.755 65.8529 221.336 64.7018 213.987C64.0303 209.705 63.3348 205.415 62.3755 201.186C62.0451 199.728 61.5948 193.786 60.5716 192.942C60.5236 192.902 60.2118 193.038 59.9081 193.043C59.6229 193.051 59.3458 192.926 59.2979 192.968C58.3066 193.853 57.843 199.752 57.5179 201.186C56.5559 205.415 55.8631 209.705 55.1916 213.987L55.1677 214.14C54.0243 221.442 52.8663 228.838 52.2365 236.146C51.6823 242.568 52.8147 249.155 51.9381 255.543C51.0321 262.14 47.3122 268.469 46.5341 274.976C46.257 277.289 46.8086 279.77 47.0724 282.115C47.5574 286.458 47.6986 290.812 47.5067 295.15C47.2003 302.065 45.7454 309.02 44.469 315.852C43.4911 321.091 41.8896 326.665 41.9536 332.01L41.9546 332.108C41.9755 333.996 41.9969 335.927 42.3453 337.774C42.5664 338.947 43.3365 340.119 43.5657 341.664C43.7709 343.063 43.3818 344.356 43.3738 344.854C43.3499 346.314 43.9867 347.886 44.3384 349.352C44.8154 351.353 45.1059 353.994 44.2478 355.907C43.3632 357.876 40.8904 358.537 39.0278 358.828C37.6768 359.041 36.118 360.256 35.4038 361.316C34.6924 362.374 34.3486 364.002 33.2827 364.962C32.1103 366.017 30.3916 366.502 29.2218 367.488C28.8514 367.802 28.0174 369.252 27.3805 369.745C25.8856 370.904 24.1856 371.445 22.3843 371.767C20.8734 372.036 18.1581 371.61 17.9716 369.641C16.7379 370.27 14.2357 370.659 13.7588 368.868C12.9007 369.14 11.9841 368.231 12.4131 367.368C11.7736 367.488 11.1847 366.875 11.5711 365.828C10.9529 365.753 10.9342 364.589 11.651 363.936C11.5098 363.92 11.0035 363.429 11.7203 362.361C12.2372 361.591 13.9533 360.576 14.4516 360.179C15.6 359.265 16.6952 358.148 17.929 357.314C19.8662 356.003 22.9412 354.564 24.0657 352.392C25.7418 349.158 29.1152 346.005 30.0079 343.021C31.0098 339.669 29.022 334.337 28.4491 330.342C26.3786 315.884 23.4795 300.735 23.2663 286.322C23.1704 279.748 25.5446 273.217 25.9469 266.745C26.1521 263.443 25.6645 260.006 25.8084 256.638C25.9656 252.974 26.296 249.017 25.5312 245.454C23.5061 236.019 21.6781 226.274 20.8041 216.564C19.6423 203.638 18.5179 190.333 19.2267 177.452C20.1166 161.28 24.8118 153.995 26.3653 144.069C27.9135 134.191 28.8994 122.637 27.7562 118.262C26.0375 111.685 24.3508 101.346 24.3961 97.9144C23.7246 102.673 22.8533 114.302 22.4376 117.71C21.3397 126.698 20.3325 132.96 18.5445 140.205C16.3435 149.121 15.3496 153.073 12.8821 161.717C12.2479 163.939 12.1067 168.096 12.6956 170.228C13.1965 172.043 16.6046 177.601 16.8951 179.858C17.1749 182.024 16.5806 184.617 17.0203 186.642C17.1829 187.399 17.4573 189.07 17.2068 189.949C16.9564 190.826 17.6438 193.4 17.3321 194.01C17.0203 194.62 16.9564 195.023 15.6453 194.823C13.9746 194.57 12.9141 191.154 12.7728 189.475C12.6609 188.124 12.7648 186.6 12.5863 185.227C12.4824 184.436 11.3979 183.413 11.2113 183.413C11.0248 183.413 9.14623 186.107 9.21284 186.642C9.54326 189.344 9.52194 193.072 10.5239 194.826C11.3046 196.192 14.273 197.562 15.1444 199.379C15.6986 200.533 15.1337 202.255 14.9579 202.244C12.6503 202.111 8.01375 199.105 5.77809 197.202C3.25199 195.052 0.680593 188.835 0.158319 185.294C-0.542487 180.543 1.31212 177.188 1.28281 172.277C1.27215 170.569 0.968377 168.706 0.845803 166.993C0.739216 165.482 1.22418 163.873 1.2908 162.37C1.5999 155.458 1.53329 152.076 1.69849 144.922C1.87436 137.317 1.38406 134.015 2.59648 126.637C3.16672 123.165 4.54435 119.645 5.20519 116.197C7.18237 105.876 6.17246 79.8932 6.18312 69.1919C6.19112 62.1199 7.47282 53.9554 11.4032 47.9706C14.1558 43.779 19.3279 41.3036 24.1243 40.2377C27.9508 39.1372 31.7559 37.9594 35.5291 36.6884C38.7666 35.5985 46.257 34.0663 47.5467 31.1938C48.7678 28.4697 48.5512 25.2571 48.4539 21.8667C48.4345 21.8466 48.4155 21.8264 48.3967 21.8062C45.8733 19.0989 44.0054 15.5016 43.2433 12.821C41.0822 12.6611 41.5166 8.87995 41.2075 7.92067C40.8984 6.95873 38.4922 1.85589 39.7179 0.598173C40.3121 -0.0120335 40.933 0.494251 40.933 0.494251C40.933 0.494251 39.7312 -9.64746 42.0255 -15.6003C43.8188 -20.2528 49.3613 -26.64 59.3405 -26.64H59.3512H59.3618C69.3383 -26.64 74.8835 -20.2528 76.6768 -15.6003C78.9711 -9.64746 77.7773 0.574192 77.7773 0.574192C77.7773 0.574192 78.4968 -0.161253 79.1469 0.542219C80.1062 1.57611 77.8013 6.9614 77.4922 7.92067C77.1831 8.88262 77.6174 12.6638 75.4564 12.821C74.7929 15.1606 73.4259 18.9524 71.1236 21.2973C70.9833 21.4402 70.8391 21.5807 70.6908 21.7184L70.6868 21.8696C70.5888 25.4998 70.516 28.1959 71.8484 31.1938C73.1434 34.1143 80.8896 35.6119 84.1618 36.6884C88.0336 37.9621 91.94 39.1399 95.865 40.2404C100.661 41.3089 105.834 43.7844 108.586 47.9732C112.519 53.9581 113.798 62.1253 113.806 69.1946C113.817 79.8959 112.807 105.876 114.784 116.199C115.442 119.65 116.823 123.17 117.393 126.639C118.608 134.018 118.115 138.124 118.291 145.729C118.456 152.886 118.389 153.451 118.699 160.363Z" fill="white"/>
<path d="M24.3961 97.9144L23.7962 97.906L24.9904 97.9971L24.3961 97.9144ZM24.5693 96.8165L25.1594 96.9252L25.5792 94.6464L24.1061 96.4351L24.5693 96.8165ZM24.3961 97.9144L24.996 97.9227C24.9999 97.6488 25.0145 97.439 25.0369 97.2919C25.0481 97.2184 25.0594 97.1731 25.0671 97.1493C25.0769 97.119 25.0724 97.1494 25.0325 97.1979L24.5693 96.8165L24.1061 96.4351C24.0102 96.5516 23.9572 96.6815 23.9252 96.7803C23.8912 96.8856 23.8677 96.9988 23.8506 97.1112C23.8164 97.3358 23.8003 97.607 23.7962 97.906L24.3961 97.9144ZM24.5693 96.8165L23.9792 96.7078C23.9212 97.023 23.8612 97.4053 23.8018 97.8316L24.3961 97.9144L24.9904 97.9971C25.0483 97.5814 25.1055 97.2175 25.1594 96.9252L24.5693 96.8165ZM119.144 164.987L117.947 164.9L117.947 164.901L119.144 164.987ZM118.699 160.363L119.897 160.31L119.897 160.31L118.699 160.363ZM118.291 145.729L119.491 145.701L119.491 145.701L118.291 145.729ZM117.393 126.639L116.209 126.834L116.209 126.834L117.393 126.639ZM114.784 116.199L115.963 115.974L115.963 115.974L114.784 116.199ZM113.806 69.1946L115.006 69.1934V69.1933L113.806 69.1946ZM108.586 47.9732L107.583 48.6322L107.583 48.6323L108.586 47.9732ZM95.865 40.2404L95.5411 41.3958L95.5724 41.4046L95.6041 41.4117L95.865 40.2404ZM84.1618 36.6884L83.7868 37.8283L83.7868 37.8283L84.1618 36.6884ZM71.8484 31.1938L72.9454 30.7074L72.945 30.7065L71.8484 31.1938ZM47.5467 31.1938L48.6414 31.6853L48.6417 31.6847L47.5467 31.1938ZM35.5291 36.6884L35.1462 35.5511L35.146 35.5512L35.5291 36.6884ZM24.1243 40.2377L24.3846 41.4091L24.4206 41.4011L24.456 41.391L24.1243 40.2377ZM11.4032 47.9706L12.4062 48.6293L12.4062 48.6293L11.4032 47.9706ZM6.18312 69.1919L4.98312 69.1906V69.1908L6.18312 69.1919ZM5.20519 116.197L6.38374 116.422L6.38375 116.422L5.20519 116.197ZM2.59648 126.637L3.78061 126.831L3.78062 126.831L2.59648 126.637ZM1.69849 144.922L0.498815 144.894L0.498814 144.894L1.69849 144.922ZM1.2908 162.37L0.0919992 162.316L0.0919784 162.317L1.2908 162.37ZM0.845803 166.993L-0.351223 167.078L-0.351138 167.079L0.845803 166.993ZM1.28281 172.277L2.48279 172.27L2.48278 172.27L1.28281 172.277ZM0.158319 185.294L1.34548 185.119L1.34547 185.119L0.158319 185.294ZM5.77809 197.202L5.00024 198.116L5.00038 198.116L5.77809 197.202ZM14.9579 202.244L15.0305 201.046L15.027 201.046L14.9579 202.244ZM15.1444 199.379L14.0623 199.898L14.0627 199.899L15.1444 199.379ZM10.5239 194.826L11.5659 194.23L11.5658 194.23L10.5239 194.826ZM9.21284 186.642L10.404 186.497L10.4037 186.494L9.21284 186.642ZM12.5863 185.227L13.7763 185.073L13.7761 185.071L12.5863 185.227ZM12.7728 189.475L11.5769 189.574L11.5771 189.575L12.7728 189.475ZM15.6453 194.823L15.8262 193.637L15.8251 193.636L15.6453 194.823ZM17.3321 194.01L18.4007 194.556L18.4007 194.556L17.3321 194.01ZM17.2068 189.949L18.3607 190.279L18.3609 190.278L17.2068 189.949ZM17.0203 186.642L18.1936 186.39L18.193 186.388L17.0203 186.642ZM16.8951 179.858L15.7049 180.011L15.705 180.012L16.8951 179.858ZM12.6956 170.228L13.8523 169.909L13.8522 169.908L12.6956 170.228ZM12.8821 161.717L11.7282 161.388L11.7282 161.388L12.8821 161.717ZM18.5445 140.205L19.7095 140.493L19.7095 140.493L18.5445 140.205ZM22.4376 117.71L23.6287 117.856L23.6287 117.855L22.4376 117.71ZM24.3961 97.9144L25.596 97.9302L23.2079 97.7467L24.3961 97.9144ZM27.7562 118.262L28.9173 117.958L28.9172 117.958L27.7562 118.262ZM26.3653 144.069L25.1798 143.883L25.1797 143.883L26.3653 144.069ZM19.2267 177.452L18.0285 177.386L19.2267 177.452ZM20.8041 216.564L19.6089 216.671L19.609 216.671L20.8041 216.564ZM25.5312 245.454L24.358 245.706L24.358 245.706L25.5312 245.454ZM25.8084 256.638L24.6095 256.586L24.6095 256.587L25.8084 256.638ZM25.9469 266.745L27.1446 266.819L27.1446 266.819L25.9469 266.745ZM23.2663 286.322L22.0664 286.34L22.0664 286.34L23.2663 286.322ZM28.4491 330.342L27.2612 330.512L27.2612 330.513L28.4491 330.342ZM30.0079 343.021L31.1576 343.365L31.1576 343.364L30.0079 343.021ZM24.0657 352.392L23.0002 351.84L23.0001 351.841L24.0657 352.392ZM17.929 357.314L18.601 358.308L18.6015 358.308L17.929 357.314ZM14.4516 360.179L13.7043 359.24L13.7038 359.24L14.4516 360.179ZM11.7203 362.361L10.724 361.692L10.7237 361.692L11.7203 362.361ZM11.651 363.936L12.4591 364.823L14.4154 363.041L11.786 362.743L11.651 363.936ZM11.5711 365.828L12.6969 366.243L13.2226 364.818L11.7149 364.636L11.5711 365.828ZM12.4131 367.368L13.4877 367.902L14.5598 365.744L12.192 366.188L12.4131 367.368ZM13.7588 368.868L14.9183 368.559L14.5948 367.344L13.3964 367.724L13.7588 368.868ZM17.9716 369.641L19.1662 369.528L18.9997 367.77L17.4266 368.572L17.9716 369.641ZM22.3843 371.767L22.5947 372.949L22.5957 372.948L22.3843 371.767ZM27.3805 369.745L26.646 368.796L26.6452 368.796L27.3805 369.745ZM29.2218 367.488L28.4484 366.57L28.4452 366.573L29.2218 367.488ZM33.2827 364.962L34.0855 365.854L34.0855 365.854L33.2827 364.962ZM35.4038 361.316L34.4085 360.646L34.4081 360.647L35.4038 361.316ZM39.0278 358.828L38.8429 357.642L38.8407 357.642L39.0278 358.828ZM44.2478 355.907L45.3425 356.399L45.3428 356.398L44.2478 355.907ZM44.3384 349.352L45.5057 349.074L45.5053 349.072L44.3384 349.352ZM43.3738 344.854L44.5737 344.874L44.5737 344.873L43.3738 344.854ZM43.5657 341.664L44.753 341.49L44.7527 341.488L43.5657 341.664ZM42.3453 337.774L43.5245 337.552L43.5245 337.552L42.3453 337.774ZM41.9546 332.108L40.7547 332.121L41.9546 332.108ZM41.9536 332.01L43.1535 331.997L43.1535 331.996L41.9536 332.01ZM44.469 315.852L43.2894 315.632L43.2894 315.632L44.469 315.852ZM47.5067 295.15L48.7055 295.203L48.7056 295.203L47.5067 295.15ZM47.0724 282.115L48.265 281.981L48.2649 281.98L47.0724 282.115ZM46.5341 274.976L47.7256 275.119L47.7256 275.118L46.5341 274.976ZM51.9381 255.543L53.1269 255.706L53.1269 255.706L51.9381 255.543ZM52.2365 236.146L53.4321 236.25L53.4321 236.249L52.2365 236.146ZM55.1677 214.14L53.9822 213.954L55.1677 214.14ZM55.1916 213.987L54.0061 213.801L54.0061 213.801L55.1916 213.987ZM57.5179 201.186L58.688 201.452L58.6882 201.451L57.5179 201.186ZM59.2979 192.968L58.5006 192.071L58.4988 192.073L59.2979 192.968ZM59.9081 193.043L59.887 191.843L59.8744 191.843L59.9081 193.043ZM60.5716 192.942L59.8034 193.864L59.8076 193.867L60.5716 192.942ZM62.3755 201.186L61.2052 201.451L61.2053 201.452L62.3755 201.186ZM64.7018 213.987L65.8873 213.801L65.8873 213.801L64.7018 213.987ZM67.6569 236.146L66.4617 236.253L66.4617 236.254L67.6569 236.146ZM67.9554 255.543L69.1442 255.379L69.1441 255.379L67.9554 255.543ZM73.3593 274.976L72.1678 275.118L72.1678 275.119L73.3593 274.976ZM72.821 282.115L71.6285 281.981L71.6285 281.981L72.821 282.115ZM72.3867 295.15L71.1879 295.203L71.1879 295.203L72.3867 295.15ZM75.4244 315.852L76.604 315.632L76.6039 315.631L75.4244 315.852ZM77.9398 332.01L79.1397 332.025L79.1398 332.025L77.9398 332.01ZM77.9376 332.194L76.7377 332.179V332.179L77.9376 332.194ZM77.5481 337.774L76.3689 337.552L76.3689 337.552L77.5481 337.774ZM76.3277 341.664L75.1407 341.489L75.1404 341.49L76.3277 341.664ZM76.5196 344.854L75.3197 344.873L75.3197 344.874L76.5196 344.854ZM75.555 349.352L74.3852 349.084L74.385 349.085L75.555 349.352ZM75.6456 355.907L76.7225 355.378L76.722 355.377L75.6456 355.907ZM80.8656 358.828L81.0546 357.643L81.0536 357.642L80.8656 358.828ZM84.4896 361.316L83.4923 361.984L83.4938 361.986L84.4896 361.316ZM86.6107 364.962L85.8079 365.854H85.8079L86.6107 364.962ZM90.6716 367.488L89.8982 368.405L89.8988 368.406L90.6716 367.488ZM92.5129 369.745L91.7759 370.692L91.7786 370.694L92.5129 369.745ZM97.5091 371.767L97.3311 372.954L97.3317 372.954L97.5091 371.767ZM101.922 369.641L102.47 368.573L100.9 367.766L100.728 369.524L101.922 369.641ZM106.135 368.868L106.497 367.724L105.307 367.347L104.977 368.551L106.135 368.868ZM107.48 367.368L107.701 366.188L105.334 365.744L106.406 367.902L107.48 367.368ZM108.322 365.828L108.179 364.636L106.671 364.818L107.197 366.243L108.322 365.828ZM108.242 363.936L108.107 362.743L105.478 363.041L107.434 364.823L108.242 363.936ZM108.173 362.361L109.17 361.692L109.169 361.692L108.173 362.361ZM105.442 360.179L106.19 359.24L106.188 359.239L105.442 360.179ZM101.964 357.314L101.292 358.308L101.293 358.309L101.964 357.314ZM95.8277 352.392L96.8792 351.814L96.8787 351.813L95.8277 352.392ZM89.8855 343.021L91.0363 342.681L91.0362 342.68L89.8855 343.021ZM91.4444 330.342L92.6322 330.513L92.6322 330.513L91.4444 330.342ZM96.6271 286.322L97.827 286.338V286.338L96.6271 286.322ZM93.9465 266.745L92.7488 266.819L92.7488 266.82L93.9465 266.745ZM94.085 256.638L92.8859 256.684L92.8859 256.684L94.085 256.638ZM94.3622 245.454L93.1889 245.202L93.1889 245.202L94.3622 245.454ZM99.0893 216.564L97.8941 216.456L97.8941 216.457L99.0893 216.564ZM100.667 177.452L101.866 177.426L101.866 177.426L100.667 177.452ZM93.5281 144.069L94.7124 143.875L94.7124 143.875L93.5281 144.069ZM92.1372 118.262L90.953 118.067L90.953 118.068L92.1372 118.262ZM94.085 96.558L95.2557 96.2944L92.895 96.7127L94.085 96.558ZM97.5624 117.71L98.7544 117.571L98.7543 117.571L97.5624 117.71ZM101.455 141.01L102.622 140.728L102.622 140.728L101.455 141.01ZM107.52 161.717L106.364 162.038L106.364 162.038L107.52 161.717ZM107.707 168.216L108.86 168.546L108.861 168.546L107.707 168.216ZM105.666 173.255L106.643 173.952L106.643 173.951L105.666 173.255ZM103.105 180.26L101.915 180.107L101.915 180.108L103.105 180.26ZM102.98 187.045L104.152 187.301L104.152 187.299L102.98 187.045ZM102.668 194.412L103.737 193.867H103.737L102.668 194.412ZM104.355 195.228L104.803 196.341L104.806 196.34L104.355 195.228ZM107.227 189.88L106.031 189.784L106.031 189.785L107.227 189.88ZM107.414 185.632L106.224 185.476L106.224 185.478L107.414 185.632ZM110.787 187.047L109.596 186.899L109.596 186.901L110.787 187.047ZM109.476 195.231L108.44 194.626L108.439 194.626L109.476 195.231ZM104.856 199.784L103.774 199.265L103.773 199.266L104.856 199.784ZM105.042 202.649L105.097 203.848L105.111 203.847L105.042 202.649ZM114.222 197.607L113.445 196.693L113.444 196.693L114.222 197.607ZM119.842 185.699L118.655 185.524L118.654 185.525L119.842 185.699ZM118.717 170.271L119.917 170.278V170.271H118.717ZM77.7773 0.574192L76.5854 0.434992L76.1778 3.92526L78.6351 1.41335L77.7773 0.574192ZM76.6768 -15.6003L77.7965 -16.0319L77.7965 -16.0319L76.6768 -15.6003ZM42.0255 -15.6003L40.9058 -16.0319L40.9058 -16.0319L42.0255 -15.6003ZM40.933 0.494251L40.1746 1.42424L42.4738 3.29906L42.1247 0.353043L40.933 0.494251ZM39.7179 0.598173L40.5773 1.43571L40.5776 1.43537L39.7179 0.598173ZM41.2075 7.92067L40.065 8.28778L40.0653 8.28871L41.2075 7.92067ZM43.2433 12.821L44.3975 12.4928L44.1682 11.6861L43.3318 11.6243L43.2433 12.821ZM48.3967 21.8062L49.275 20.9886L49.2745 20.988L48.3967 21.8062ZM71.1236 21.2973L70.2674 20.4566L70.2673 20.4567L71.1236 21.2973ZM75.4564 12.821L75.3693 11.6241L74.5312 11.6851L74.3019 12.4936L75.4564 12.821ZM77.4922 7.92067L76.35 7.55264L76.3497 7.55356L77.4922 7.92067ZM79.1469 0.542219L78.2657 1.35671L78.2673 1.35841L79.1469 0.542219ZM48.4539 21.8667L49.6534 21.8323L49.6401 21.3698L49.3198 21.0359L48.4539 21.8667ZM70.6908 21.7184L69.8742 20.8391L69.5049 21.1822L69.4913 21.6861L70.6908 21.7184ZM70.6868 21.8696L71.8863 21.902V21.9019L70.6868 21.8696ZM119.144 164.987L120.34 165.073C120.405 164.174 120.291 163.28 120.174 162.494C120.05 161.666 119.927 160.98 119.897 160.31L118.699 160.363L117.5 160.417C117.537 161.249 117.691 162.12 117.8 162.85C117.916 163.623 117.991 164.288 117.947 164.9L119.144 164.987ZM118.699 160.363L119.897 160.31C119.589 153.415 119.656 152.878 119.491 145.701L118.291 145.729L117.091 145.757C117.256 152.895 117.19 153.488 117.5 160.417L118.699 160.363ZM118.291 145.729L119.491 145.701C119.318 138.227 119.81 133.933 118.577 126.444L117.393 126.639L116.209 126.834C117.406 134.102 116.912 138.021 117.091 145.757L118.291 145.729ZM117.393 126.639L118.577 126.445C118.279 124.632 117.772 122.822 117.275 121.083C116.772 119.32 116.28 117.635 115.963 115.974L114.784 116.199L113.605 116.424C113.947 118.214 114.474 120.014 114.968 121.742C115.468 123.493 115.936 125.177 116.209 126.834L117.393 126.639ZM114.784 116.199L115.963 115.974C114.999 110.944 114.754 101.986 114.758 92.8394C114.76 88.2874 114.823 83.7218 114.885 79.6203C114.948 75.5247 115.009 71.8812 115.006 69.1934L113.806 69.1946L112.606 69.1958C112.609 71.8587 112.548 75.4757 112.486 79.5838C112.423 83.6859 112.36 88.2671 112.358 92.8383C112.354 101.938 112.592 111.131 113.606 116.425L114.784 116.199ZM113.806 69.1946L115.006 69.1933C114.998 62.0281 113.71 53.5844 109.589 47.3142L108.586 47.9732L107.583 48.6323C111.329 54.3318 112.598 62.2224 112.606 69.196L113.806 69.1946ZM108.586 47.9732L109.589 47.3142C106.592 42.7541 101.067 40.1699 96.126 39.0691L95.865 40.2404L95.6041 41.4117C100.256 42.448 105.075 44.8147 107.583 48.6322L108.586 47.9732ZM95.865 40.2404L96.189 39.0849C92.2789 37.9886 88.3897 36.816 84.5368 35.5485L84.1618 36.6884L83.7868 37.8283C87.6775 39.1082 91.6011 40.2911 95.5411 41.3958L95.865 40.2404ZM84.1618 36.6884L84.5368 35.5485C83.685 35.2682 82.5457 34.9616 81.3627 34.6307C80.1592 34.2942 78.8745 33.9232 77.6587 33.4995C76.4363 33.0734 75.3298 32.6094 74.4698 32.1004C73.5806 31.5741 73.1164 31.093 72.9454 30.7074L71.8484 31.1938L70.7514 31.6803C71.228 32.7549 72.2176 33.5562 73.2473 34.1657C74.3063 34.7925 75.5836 35.3178 76.8687 35.7657C78.1604 36.216 79.5066 36.6038 80.7163 36.9421C81.9465 37.2861 83.0026 37.5703 83.7868 37.8283L84.1618 36.6884ZM47.5467 31.1938L46.452 30.7023C46.2797 31.0861 45.8227 31.5622 44.9594 32.084C44.1233 32.5893 43.0493 33.0528 41.8617 33.4806C40.6803 33.9061 39.431 34.2808 38.2568 34.6216C37.1026 34.9566 35.9873 35.268 35.1462 35.5511L35.5291 36.6884L35.9119 37.8257C36.6896 37.5639 37.7247 37.2751 38.9258 36.9265C40.107 36.5837 41.4178 36.1914 42.675 35.7386C43.9258 35.2881 45.1686 34.7618 46.2008 34.1379C47.2059 33.5305 48.1689 32.7378 48.6414 31.6853L47.5467 31.1938ZM35.5291 36.6884L35.146 35.5512C31.3915 36.8159 27.6037 37.9884 23.7926 39.0845L24.1243 40.2377L24.456 41.391C28.2979 40.286 32.1203 39.1029 35.9122 37.8256L35.5291 36.6884ZM24.1243 40.2377L23.864 39.0663C18.9223 40.1644 13.3968 42.7488 10.4002 47.3119L11.4032 47.9706L12.4062 48.6293C14.9148 44.8093 19.7335 42.4427 24.3846 41.4091L24.1243 40.2377ZM11.4032 47.9706L10.4002 47.3118C6.28262 53.5817 4.99123 62.0224 4.98312 69.1906L6.18312 69.1919L7.38312 69.1933C7.39101 62.2175 8.66302 54.3291 12.4062 48.6293L11.4032 47.9706ZM6.18312 69.1919L4.98312 69.1908C4.98045 71.8785 5.04181 75.5222 5.104 79.618C5.16629 83.7197 5.22961 88.2856 5.2316 92.8377C5.23561 101.985 4.9899 110.943 4.02662 115.971L5.20519 116.197L6.38375 116.422C7.39766 111.13 7.63559 101.937 7.6316 92.8366C7.6296 88.2653 7.56602 83.6839 7.50373 79.5815C7.44135 75.4732 7.38047 71.856 7.38312 69.1931L6.18312 69.1919ZM5.20519 116.197L4.02664 115.971C3.70845 117.631 3.21631 119.316 2.71298 121.078C2.21621 122.818 1.71022 124.629 1.41235 126.442L2.59648 126.637L3.78062 126.831C4.05299 125.173 4.52093 123.488 5.02074 121.737C5.514 120.01 6.04109 118.21 6.38374 116.422L5.20519 116.197ZM2.59648 126.637L1.41236 126.442C0.18182 133.931 0.671776 137.415 0.498815 144.894L1.69849 144.922L2.89817 144.949C3.07695 137.219 2.58631 134.099 3.78061 126.831L2.59648 126.637ZM1.69849 144.922L0.498814 144.894C0.332633 152.091 0.400477 155.418 0.0919993 162.316L1.2908 162.37L2.4896 162.424C2.79933 155.497 2.73394 152.062 2.89817 144.949L1.69849 144.922ZM1.2908 162.37L0.0919784 162.317C0.0622659 162.987 -0.0599917 163.674 -0.18351 164.501C-0.300637 165.286 -0.41455 166.18 -0.351222 167.078L0.845803 166.993L2.04283 166.909C1.99957 166.295 2.07485 165.629 2.19021 164.856C2.29919 164.125 2.45272 163.256 2.48962 162.423L1.2908 162.37ZM0.845803 166.993L-0.351138 167.079C-0.288032 167.961 -0.177269 168.893 -0.0873313 169.761C0.00463669 170.648 0.0778863 171.492 0.082831 172.285L1.28281 172.277L2.48278 172.27C2.47707 171.354 2.3931 170.413 2.29988 169.513C2.20462 168.594 2.10221 167.739 2.04274 166.907L0.845803 166.993ZM1.28281 172.277L0.082829 172.284C0.0966536 174.601 -0.33044 176.535 -0.71186 178.631C-1.08953 180.706 -1.40898 182.892 -1.02884 185.469L0.158319 185.294L1.34547 185.119C1.02481 182.945 1.28226 181.078 1.64937 179.06C2.01272 177.064 2.49827 174.865 2.48279 172.27L1.28281 172.277ZM0.158319 185.294L-1.02884 185.469C-0.746648 187.383 0.0693664 189.932 1.12325 192.264C2.16212 194.563 3.52538 196.861 5.00024 198.116L5.77809 197.202L6.55594 196.289C5.5047 195.394 4.31922 193.508 3.31029 191.276C2.31638 189.076 1.58556 186.747 1.34548 185.119L0.158319 185.294ZM5.77809 197.202L5.00038 198.116C6.17709 199.118 7.95416 200.385 9.73703 201.424C10.6304 201.944 11.5455 202.419 12.4036 202.776C13.2414 203.124 14.1111 203.397 14.8887 203.442L14.9579 202.244L15.027 201.046C14.6508 201.024 14.0756 200.872 13.3252 200.56C12.5951 200.256 11.7787 199.835 10.945 199.35C9.27376 198.376 7.61475 197.19 6.55581 196.288L5.77809 197.202ZM14.9579 202.244L14.8852 203.442C15.3838 203.472 15.7072 203.2 15.798 203.118C15.9222 203.006 16.0032 202.89 16.0471 202.822C16.1403 202.678 16.2088 202.524 16.2579 202.397C16.3611 202.131 16.4507 201.799 16.5091 201.442C16.6204 200.763 16.6571 199.757 16.2261 198.86L15.1444 199.379L14.0627 199.899C14.1859 200.155 14.2173 200.587 14.1407 201.054C14.1052 201.271 14.0552 201.439 14.0204 201.529C14.0005 201.58 14.0003 201.568 14.0311 201.52C14.0438 201.501 14.0952 201.422 14.192 201.334C14.2555 201.277 14.5539 201.017 15.0305 201.046L14.9579 202.244ZM15.1444 199.379L16.2264 198.861C15.6484 197.655 14.4437 196.694 13.5385 195.988C13.0407 195.599 12.61 195.274 12.2397 194.952C11.8616 194.624 11.6571 194.39 11.5659 194.23L10.5239 194.826L9.48184 195.421C9.78104 195.945 10.2403 196.395 10.6656 196.764C11.0987 197.14 11.6109 197.528 12.0618 197.88C13.0539 198.654 13.7691 199.287 14.0623 199.898L15.1444 199.379ZM10.5239 194.826L11.5658 194.23C11.2045 193.598 10.9726 192.466 10.8096 190.96C10.7312 190.237 10.673 189.482 10.6124 188.719C10.5525 187.965 10.4901 187.201 10.404 186.497L9.21284 186.642L8.02172 186.788C8.10077 187.434 8.1596 188.149 8.21996 188.909C8.27959 189.66 8.34065 190.453 8.42351 191.219C8.58289 192.691 8.84126 194.3 9.48197 195.421L10.5239 194.826ZM9.21284 186.642L10.4037 186.494C10.4223 186.644 10.4003 186.747 10.3975 186.76C10.3923 186.786 10.3897 186.787 10.3999 186.759C10.4205 186.702 10.4636 186.604 10.5365 186.463C10.6804 186.185 10.8909 185.836 11.1212 185.484C11.3501 185.134 11.5824 184.807 11.7611 184.575C11.8528 184.456 11.9163 184.381 11.9502 184.344C11.97 184.323 11.9584 184.338 11.9227 184.367C11.9061 184.381 11.8564 184.422 11.7807 184.464C11.7363 184.49 11.5217 184.613 11.2113 184.613V183.413V182.213C10.8893 182.213 10.6597 182.341 10.5973 182.376C10.5036 182.43 10.4327 182.485 10.3921 182.519C10.3085 182.588 10.2374 182.662 10.1882 182.715C10.0839 182.828 9.97055 182.967 9.86091 183.109C9.63702 183.399 9.36883 183.779 9.11311 184.169C8.85879 184.558 8.60048 184.982 8.40501 185.36C8.30833 185.547 8.21405 185.747 8.14399 185.94C8.09481 186.076 7.97528 186.415 8.02202 186.79L9.21284 186.642ZM11.2113 183.413V184.613C11.0861 184.613 10.9875 184.592 10.9289 184.577C10.8672 184.561 10.8196 184.543 10.7898 184.53C10.7321 184.506 10.6962 184.484 10.6882 184.479C10.6708 184.468 10.6812 184.473 10.7206 184.506C10.7952 184.568 10.9062 184.674 11.023 184.809C11.1398 184.944 11.2418 185.083 11.3137 185.208C11.3918 185.344 11.3989 185.402 11.3965 185.384L12.5863 185.227L13.7761 185.071C13.6755 184.305 13.171 183.623 12.8366 183.237C12.646 183.017 12.4444 182.819 12.26 182.664C12.1698 182.589 12.064 182.508 11.9512 182.438C11.8955 182.403 11.8171 182.359 11.723 182.319C11.6513 182.289 11.461 182.213 11.2113 182.213V183.413ZM12.5863 185.227L11.3963 185.382C11.4757 185.993 11.4943 186.655 11.5047 187.376C11.5147 188.074 11.5167 188.846 11.5769 189.574L12.7728 189.475L13.9687 189.376C13.9171 188.752 13.9151 188.087 13.9044 187.342C13.8941 186.621 13.8754 185.835 13.7763 185.073L12.5863 185.227ZM12.7728 189.475L11.5771 189.575C11.6592 190.551 11.9943 191.957 12.5407 193.175C12.8151 193.786 13.1672 194.406 13.6111 194.91C14.0489 195.407 14.6635 195.888 15.4656 196.009L15.6453 194.823L15.8251 193.636C15.7918 193.631 15.6473 193.59 15.412 193.323C15.1827 193.063 14.9476 192.676 14.7303 192.192C14.2935 191.219 14.0277 190.077 13.9686 189.374L12.7728 189.475ZM15.6453 194.823L15.4645 196.009C16.1667 196.116 16.9233 196.139 17.5476 195.706C17.8563 195.492 18.0411 195.227 18.1576 195.028C18.2482 194.873 18.3641 194.628 18.4007 194.556L17.3321 194.01L16.2635 193.464C16.2201 193.549 16.1743 193.644 16.1483 193.696C16.1167 193.76 16.0985 193.795 16.0851 193.817C16.061 193.859 16.0894 193.797 16.1792 193.734C16.275 193.668 16.3427 193.668 16.301 193.672C16.2442 193.677 16.1038 193.679 15.8262 193.637L15.6453 194.823ZM17.3321 194.01L18.4007 194.556C18.5438 194.276 18.5848 193.988 18.6013 193.802C18.6196 193.595 18.6171 193.381 18.6074 193.183C18.5881 192.79 18.533 192.338 18.4835 191.934C18.4313 191.508 18.3837 191.122 18.362 190.79C18.3514 190.626 18.3485 190.495 18.3523 190.395C18.3563 190.287 18.3667 190.258 18.3607 190.279L17.2068 189.949L16.053 189.62C15.9278 190.058 15.9426 190.569 15.9671 190.946C15.9942 191.361 16.0519 191.822 16.1013 192.225C16.1534 192.651 16.1961 193.011 16.2102 193.3C16.2173 193.443 16.2154 193.537 16.2106 193.591C16.204 193.666 16.1983 193.592 16.2635 193.464L17.3321 194.01ZM17.2068 189.949L18.3609 190.278C18.5518 189.608 18.5224 188.777 18.4633 188.139C18.4002 187.457 18.2819 186.802 18.1936 186.39L17.0203 186.642L15.8471 186.894C15.9212 187.24 16.0215 187.798 16.0736 188.36C16.1297 188.967 16.1123 189.411 16.0527 189.62L17.2068 189.949ZM17.0203 186.642L18.193 186.388C18.0121 185.554 18.0366 184.556 18.0962 183.363C18.1526 182.237 18.2421 180.919 18.0852 179.704L16.8951 179.858L15.705 180.012C15.8278 180.963 15.7601 182.026 15.6992 183.243C15.6416 184.395 15.5889 185.705 15.8476 186.897L17.0203 186.642ZM16.8951 179.858L18.0853 179.705C17.9899 178.964 17.663 178.062 17.2913 177.187C16.9075 176.284 16.4244 175.292 15.9472 174.34C15.4621 173.371 14.9925 172.461 14.6015 171.656C14.2001 170.83 13.9436 170.239 13.8523 169.909L12.6956 170.228L11.5388 170.547C11.698 171.124 12.0554 171.908 12.443 172.705C12.841 173.524 13.3355 174.485 13.8013 175.415C14.2751 176.36 14.7297 177.295 15.0823 178.126C15.447 178.984 15.655 179.624 15.7049 180.011L16.8951 179.858ZM12.6956 170.228L13.8522 169.908C13.6041 169.01 13.49 167.575 13.5298 166.038C13.5693 164.509 13.7569 163.024 14.036 162.046L12.8821 161.717L11.7282 161.388C11.3731 162.632 11.173 164.337 11.1306 165.975C11.0884 167.605 11.1981 169.314 11.5389 170.548L12.6956 170.228ZM12.8821 161.717L14.036 162.046C16.5091 153.383 17.5069 149.415 19.7095 140.493L18.5445 140.205L17.3795 139.918C15.18 148.827 14.19 152.763 11.7282 161.388L12.8821 161.717ZM18.5445 140.205L19.7095 140.493C21.5135 133.183 22.5278 126.869 23.6287 117.856L22.4376 117.71L21.2464 117.565C20.1516 126.528 19.1515 132.737 17.3794 139.918L18.5445 140.205ZM22.4376 117.71L23.6287 117.855C23.8396 116.126 24.1642 112.334 24.5161 108.426C24.8707 104.489 25.2537 100.425 25.5843 98.082L24.3961 97.9144L23.2079 97.7467C22.867 100.163 22.4786 104.293 22.1257 108.211C21.7702 112.16 21.4512 115.886 21.2464 117.565L22.4376 117.71ZM24.3961 97.9144L23.1962 97.8985C23.172 99.7343 23.6009 103.275 24.2306 107.104C24.8654 110.964 25.7238 115.231 26.5952 118.565L27.7562 118.262L28.9172 117.958C28.0699 114.716 27.2256 110.526 26.5988 106.714C25.9668 102.871 25.5749 99.5265 25.596 97.9302L24.3961 97.9144ZM27.7562 118.262L26.5952 118.565C27.1115 120.541 27.1705 124.34 26.8724 129.026C26.5781 133.652 25.9495 138.972 25.1798 143.883L26.3653 144.069L27.5508 144.255C28.3293 139.288 28.9677 133.893 29.2676 129.178C29.5637 124.523 29.5441 120.358 28.9173 117.958L27.7562 118.262ZM26.3653 144.069L25.1797 143.883C24.4188 148.745 22.9007 152.908 21.3949 158.083C19.899 163.224 18.48 169.182 18.0285 177.386L19.2267 177.452L20.4248 177.518C20.8633 169.55 22.2369 163.78 23.6994 158.753C25.152 153.761 26.7583 149.319 27.5509 144.255L26.3653 144.069ZM19.2267 177.452L18.0285 177.386C17.3142 190.367 18.448 203.755 19.6089 216.671L20.8041 216.564L21.9993 216.456C20.8366 203.52 19.7215 190.299 20.4248 177.518L19.2267 177.452ZM20.8041 216.564L19.609 216.671C20.4895 226.454 22.3293 236.254 24.358 245.706L25.5312 245.454L26.7045 245.202C24.6829 235.783 22.8668 226.094 21.9993 216.456L20.8041 216.564ZM25.5312 245.454L24.358 245.706C25.0819 249.078 24.7705 252.834 24.6095 256.586L25.8084 256.638L27.0073 256.689C27.1607 253.113 27.5101 248.955 26.7045 245.202L25.5312 245.454ZM25.8084 256.638L24.6095 256.587C24.5348 258.335 24.6243 260.093 24.7019 261.772C24.7805 263.471 24.8472 265.094 24.7492 266.67L25.9469 266.745L27.1446 266.819C27.2518 265.094 27.1773 263.347 27.0994 261.661C27.0204 259.953 26.9381 258.309 27.0073 256.689L25.8084 256.638ZM25.9469 266.745L24.7492 266.67C24.5541 269.809 23.8809 272.966 23.2416 276.267C22.6097 279.531 22.0164 282.916 22.0664 286.34L23.2663 286.322L24.4662 286.305C24.4202 283.154 24.966 279.987 25.5979 276.724C26.2223 273.498 26.9374 270.153 27.1446 266.819L25.9469 266.745ZM23.2663 286.322L22.0664 286.34C22.2811 300.855 25.2023 316.135 27.2612 330.512L28.4491 330.342L29.6369 330.172C27.5549 315.633 24.6778 300.616 24.4661 286.304L23.2663 286.322ZM28.4491 330.342L27.2612 330.513C27.4118 331.563 27.653 332.686 27.9046 333.801C28.1597 334.932 28.4242 336.05 28.6416 337.154C29.0858 339.41 29.2655 341.314 28.8581 342.677L30.0079 343.021L31.1576 343.364C31.7521 341.375 31.4389 338.938 30.9964 336.69C30.7705 335.543 30.4933 334.37 30.2458 333.273C29.9948 332.16 29.7727 331.119 29.6369 330.172L28.4491 330.342ZM30.0079 343.021L28.8582 342.677C28.4816 343.936 27.5487 345.309 26.3677 346.896C25.2411 348.411 23.8956 350.112 23.0002 351.84L24.0657 352.392L25.1312 352.944C25.9119 351.438 27.0911 349.945 28.2934 348.329C29.4414 346.786 30.6415 345.09 31.1576 343.365L30.0079 343.021ZM24.0657 352.392L23.0001 351.841C22.5791 352.654 21.7363 353.418 20.6203 354.189C20.0752 354.565 19.5002 354.92 18.9215 355.273C18.3543 355.62 17.7696 355.973 17.2564 356.32L17.929 357.314L18.6015 358.308C19.0569 358 19.583 357.681 20.1724 357.321C20.7503 356.969 21.3775 356.582 21.9839 356.163C23.1708 355.344 24.4277 354.303 25.1313 352.944L24.0657 352.392ZM17.929 357.314L17.2569 356.32C16.5763 356.78 15.9484 357.308 15.3703 357.811C14.7748 358.33 14.251 358.805 13.7043 359.24L14.4516 360.179L15.1988 361.117C15.8007 360.639 16.3987 360.098 16.9463 359.621C17.5113 359.129 18.0479 358.682 18.601 358.308L17.929 357.314ZM14.4516 360.179L13.7038 359.24C13.6221 359.305 13.4648 359.414 13.2111 359.587C12.9761 359.748 12.685 359.945 12.3924 360.156C11.8614 360.537 11.1214 361.1 10.724 361.692L11.7203 362.361L12.7166 363.03C12.8361 362.852 13.2126 362.522 13.7935 362.104C14.0568 361.915 14.3205 361.736 14.5635 361.57C14.7879 361.417 15.0319 361.25 15.1994 361.117L14.4516 360.179ZM11.7203 362.361L10.7237 361.692C10.2507 362.398 10.0471 363.117 10.1899 363.791C10.2591 364.119 10.4048 364.4 10.5937 364.618C10.6866 364.725 10.7975 364.826 10.926 364.911C11.0329 364.981 11.2383 365.097 11.516 365.128L11.651 363.936L11.786 362.743C12.0284 362.771 12.1871 362.868 12.2421 362.904C12.3187 362.954 12.3724 363.006 12.4092 363.048C12.4859 363.137 12.5233 363.225 12.5379 363.295C12.5714 363.453 12.4731 363.393 12.7168 363.029L11.7203 362.361ZM11.651 363.936L10.843 363.049C10.2288 363.608 9.92458 364.38 9.91066 365.074C9.9037 365.422 9.96824 365.833 10.1915 366.207C10.433 366.612 10.8556 366.95 11.4273 367.019L11.5711 365.828L11.7149 364.636C11.8279 364.65 11.9453 364.692 12.0497 364.764C12.1509 364.834 12.215 364.915 12.2525 364.977C12.3207 365.092 12.3095 365.157 12.3102 365.123C12.3116 365.053 12.3565 364.916 12.4591 364.823L11.651 363.936ZM11.5711 365.828L10.4453 365.412C10.161 366.183 10.1584 367.023 10.608 367.7C11.0648 368.387 11.8617 368.692 12.6342 368.547L12.4131 367.368L12.192 366.188C12.249 366.178 12.3278 366.18 12.4121 366.214C12.4978 366.25 12.565 366.308 12.6068 366.371C12.6987 366.509 12.5947 366.52 12.6969 366.243L11.5711 365.828ZM12.4131 367.368L11.3385 366.834C10.8638 367.789 11.163 368.763 11.7286 369.365C12.2758 369.948 13.1845 370.309 14.1211 370.012L13.7588 368.868L13.3964 367.724C13.4305 367.713 13.4605 367.717 13.4736 367.721C13.4789 367.723 13.4805 367.724 13.4797 367.723C13.4788 367.723 13.478 367.722 13.478 367.722C13.478 367.722 13.481 367.725 13.4853 367.733C13.4897 367.742 13.4959 367.756 13.5 367.777C13.5042 367.799 13.5054 367.825 13.5019 367.851C13.4984 367.877 13.4914 367.895 13.4877 367.902L12.4131 367.368ZM13.7588 368.868L12.5992 369.177C12.7956 369.914 13.2242 370.476 13.7976 370.843C14.3443 371.193 14.9597 371.328 15.5129 371.36C16.5995 371.422 17.7441 371.104 18.5166 370.71L17.9716 369.641L17.4266 368.572C16.9654 368.807 16.242 368.997 15.6498 368.964C15.3637 368.947 15.1871 368.883 15.0919 368.822C15.0235 368.778 14.9604 368.717 14.9183 368.559L13.7588 368.868ZM17.9716 369.641L16.7769 369.754C16.9322 371.393 18.1631 372.274 19.2767 372.673C20.3859 373.07 21.6566 373.116 22.5947 372.949L22.3843 371.767L22.1738 370.586C21.6011 370.688 20.7587 370.655 20.0859 370.414C19.4175 370.174 19.1975 369.858 19.1662 369.528L17.9716 369.641ZM22.3843 371.767L22.5957 372.948C24.4932 372.609 26.4064 372.018 28.1158 370.693L27.3805 369.745L26.6452 368.796C25.3649 369.789 23.8779 370.281 22.1728 370.586L22.3843 371.767ZM27.3805 369.745L28.1151 370.694C28.5973 370.32 29.0665 369.678 29.3741 369.252C29.5549 369.001 29.6959 368.8 29.829 368.622C29.9803 368.419 30.0255 368.38 29.9984 368.403L29.2218 367.488L28.4452 366.573C28.233 366.753 28.035 367.013 27.9058 367.186C27.7584 367.383 27.5816 367.634 27.4281 367.847C27.0668 368.347 26.8006 368.676 26.646 368.796L27.3805 369.745ZM29.2218 367.488L29.9952 368.405C30.4577 368.015 31.0474 367.71 31.8057 367.315C32.511 366.947 33.3689 366.499 34.0855 365.854L33.2827 364.962L32.48 364.07C32.0241 364.48 31.4365 364.801 30.6968 365.186C30.0102 365.544 29.1557 365.974 28.4485 366.57L29.2218 367.488ZM33.2827 364.962L34.0855 365.854C34.8094 365.202 35.2452 364.365 35.5633 363.684C35.9203 362.92 36.1131 362.412 36.3996 361.986L35.4038 361.316L34.4081 360.647C33.9831 361.279 33.6483 362.113 33.3891 362.668C33.091 363.306 32.8219 363.762 32.48 364.07L33.2827 364.962ZM35.4038 361.316L36.3992 361.987C36.662 361.596 37.121 361.126 37.6747 360.731C38.2357 360.33 38.7887 360.08 39.2148 360.013L39.0278 358.828L38.8407 357.642C37.9159 357.788 37.0139 358.253 36.2793 358.778C35.5373 359.308 34.8598 359.976 34.4085 360.646L35.4038 361.316ZM39.0278 358.828L39.2127 360.013C40.1866 359.861 41.3993 359.602 42.511 359.085C43.626 358.566 44.741 357.738 45.3425 356.399L44.2478 355.907L43.1532 355.415C42.87 356.046 42.3063 356.533 41.4981 356.909C40.6866 357.287 39.7315 357.503 38.8429 357.642L39.0278 358.828ZM44.2478 355.907L45.3428 356.398C46.3752 354.096 45.9912 351.111 45.5057 349.074L44.3384 349.352L43.1711 349.63C43.6396 351.596 43.8365 353.892 43.1529 355.416L44.2478 355.907ZM44.3384 349.352L45.5053 349.072C45.3344 348.36 45.0419 347.426 44.8755 346.795C44.6833 346.066 44.5644 345.436 44.5737 344.874L43.3738 344.854L42.174 344.834C42.1593 345.732 42.3469 346.618 42.5549 347.407C42.7889 348.294 42.9907 348.878 43.1716 349.632L44.3384 349.352ZM43.3738 344.854L44.5737 344.873C44.5736 344.877 44.5742 344.853 44.583 344.784C44.5914 344.719 44.6037 344.639 44.6207 344.533C44.6531 344.332 44.7004 344.055 44.7397 343.751C44.819 343.139 44.8782 342.344 44.753 341.49L43.5657 341.664L42.3784 341.839C42.4584 342.384 42.4256 342.934 42.3597 343.443C42.3264 343.699 42.2877 343.926 42.2514 344.151C42.2207 344.341 42.1777 344.607 42.174 344.835L43.3738 344.854ZM43.5657 341.664L44.7527 341.488C44.6167 340.571 44.3224 339.784 44.0693 339.14C43.7988 338.452 43.6086 337.998 43.5245 337.552L42.3453 337.774L41.1661 337.996C41.3031 338.723 41.6086 339.441 41.8357 340.018C42.0802 340.64 42.2855 341.212 42.3787 341.84L43.5657 341.664ZM42.3453 337.774L43.5245 337.552C43.199 335.826 43.1757 334.002 43.1546 332.095L41.9546 332.108L40.7547 332.121C40.7754 333.989 40.7948 336.028 41.1661 337.997L42.3453 337.774ZM41.9546 332.108L43.1546 332.095L43.1535 331.997L41.9536 332.01L40.7536 332.024L40.7547 332.121L41.9546 332.108ZM41.9536 332.01L43.1535 331.996C43.0914 326.808 44.6402 321.474 45.6486 316.072L44.469 315.852L43.2894 315.632C42.342 320.707 40.6878 326.522 40.7537 332.025L41.9536 332.01ZM44.469 315.852L45.6486 316.072C46.917 309.282 48.3944 302.224 48.7055 295.203L47.5067 295.15L46.3079 295.097C46.0062 301.906 44.5737 308.757 43.2894 315.632L44.469 315.852ZM47.5067 295.15L48.7056 295.203C48.9001 290.804 48.7569 286.387 48.265 281.981L47.0724 282.115L45.8798 282.248C46.3578 286.529 46.497 290.82 46.3079 295.097L47.5067 295.15ZM47.0724 282.115L48.2649 281.98C48.1967 281.374 48.1103 280.763 48.0262 280.167C47.9414 279.566 47.8587 278.98 47.7928 278.398C47.6605 277.231 47.6033 276.139 47.7256 275.119L46.5341 274.976L45.3426 274.833C45.1878 276.126 45.2678 277.431 45.408 278.668C45.4783 279.289 45.5657 279.907 45.6498 280.503C45.7347 281.104 45.8162 281.682 45.8799 282.249L47.0724 282.115ZM46.5341 274.976L47.7256 275.118C48.0962 272.019 49.1712 268.936 50.3193 265.694C51.4505 262.5 52.6541 259.149 53.1269 255.706L51.9381 255.543L50.7492 255.379C50.316 258.534 49.2067 261.646 48.057 264.893C46.9241 268.091 45.7501 271.425 45.3426 274.833L46.5341 274.976ZM51.9381 255.543L53.1269 255.706C53.5806 252.4 53.5117 249.064 53.4076 245.819C53.3024 242.543 53.1624 239.373 53.4321 236.25L52.2365 236.146L51.0409 236.043C50.7563 239.341 50.9054 242.676 51.0088 245.896C51.1132 249.147 51.1722 252.298 50.7492 255.379L51.9381 255.543ZM52.2365 236.146L53.4321 236.249C54.0577 228.989 55.2087 221.635 56.3533 214.325L55.1677 214.14L53.9822 213.954C52.8399 221.249 51.6749 228.686 51.0409 236.043L52.2365 236.146ZM55.1677 214.14L56.3533 214.325L56.3772 214.173L55.1916 213.987L54.0061 213.801L53.9822 213.954L55.1677 214.14ZM55.1916 213.987L56.3771 214.173C57.0489 209.889 57.7362 205.636 58.688 201.452L57.5179 201.186L56.3478 200.92C55.3757 205.193 54.6774 209.521 54.0061 213.801L55.1916 213.987ZM57.5179 201.186L58.6882 201.451C58.7839 201.029 58.8814 200.328 58.9828 199.584C59.0883 198.809 59.2056 197.926 59.3432 197.06C59.4815 196.189 59.6348 195.373 59.8062 194.735C59.8921 194.415 59.975 194.169 60.0506 193.995C60.1383 193.793 60.17 193.798 60.0969 193.864L59.2979 192.968L58.4988 192.073C58.1779 192.359 57.9783 192.742 57.8496 193.038C57.7088 193.362 57.5903 193.733 57.4883 194.113C57.2838 194.874 57.115 195.789 56.9729 196.683C56.8301 197.582 56.7085 198.497 56.6047 199.26C56.4968 200.052 56.4143 200.626 56.3476 200.921L57.5179 201.186ZM59.2979 192.968L60.0951 193.865C59.9356 194.007 59.7709 194.076 59.6557 194.111C59.5417 194.145 59.4464 194.155 59.3894 194.158C59.2818 194.164 59.2043 194.151 59.194 194.15C59.1744 194.147 59.1662 194.144 59.1825 194.148C59.2 194.152 59.2135 194.155 59.2504 194.163C59.3114 194.177 59.4098 194.199 59.5224 194.215C59.6355 194.232 59.7798 194.247 59.9417 194.242L59.9081 193.043L59.8744 191.843C59.8973 191.843 59.8878 191.847 59.7777 191.822C59.7545 191.817 59.6451 191.79 59.5527 191.777C59.5052 191.769 59.3959 191.754 59.263 191.761C59.1651 191.766 58.8157 191.791 58.5006 192.071L59.2979 192.968ZM59.9081 193.043L59.9291 194.243C60.0876 194.24 60.2302 194.221 60.3423 194.201C60.4544 194.181 60.5542 194.157 60.6193 194.141C60.6572 194.132 60.6753 194.128 60.6955 194.123C60.715 194.118 60.7125 194.119 60.6994 194.121C60.6956 194.122 60.6286 194.135 60.5331 194.134C60.4833 194.134 60.3918 194.13 60.2794 194.103C60.1694 194.076 59.9854 194.015 59.8034 193.864L60.5716 192.942L61.3397 192.02C61.1517 191.863 60.9597 191.798 60.8397 191.769C60.7173 191.74 60.6139 191.735 60.5504 191.734C60.4275 191.733 60.3259 191.75 60.2813 191.758C60.192 191.774 60.0857 191.801 60.0522 191.809C59.9954 191.823 59.9572 191.832 59.924 191.838C59.8907 191.843 59.8804 191.843 59.887 191.843L59.9081 193.043ZM60.5716 192.942L59.8076 193.867C59.7198 193.794 59.7468 193.775 59.8352 193.971C59.9105 194.139 59.9942 194.38 60.0812 194.698C60.2549 195.332 60.4093 196.148 60.5482 197.022C60.6864 197.892 60.8034 198.781 60.909 199.562C61.0103 200.313 61.108 201.022 61.2052 201.451L62.3755 201.186L63.5459 200.921C63.4779 200.621 63.3953 200.041 63.2874 199.241C63.1836 198.472 63.0621 197.55 62.9185 196.646C62.7756 195.747 62.605 194.827 62.3961 194.064C62.2918 193.684 62.1699 193.311 62.0234 192.986C61.8901 192.69 61.6792 192.3 61.3355 192.016L60.5716 192.942ZM62.3755 201.186L61.2053 201.452C62.1546 205.636 62.8447 209.89 63.5163 214.173L64.7018 213.987L65.8873 213.801C65.2159 209.52 64.5151 205.193 63.5458 200.921L62.3755 201.186ZM64.7018 213.987L63.5163 214.173C64.668 221.526 65.8049 228.907 66.4617 236.253L67.6569 236.146L68.8521 236.04C68.1873 228.603 67.0379 221.147 65.8873 213.801L64.7018 213.987ZM67.6569 236.146L66.4617 236.254C66.7428 239.388 66.6024 242.556 66.4939 245.827C66.3864 249.067 66.3113 252.398 66.7666 255.706L67.9554 255.543L69.1441 255.379C68.7201 252.297 68.7848 249.155 68.8926 245.906C68.9992 242.689 69.1493 239.353 68.8521 236.039L67.6569 236.146ZM67.9554 255.543L66.7665 255.706C67.2393 259.149 68.4429 262.5 69.5741 265.694C70.7222 268.936 71.7972 272.019 72.1678 275.118L73.3593 274.976L74.5508 274.833C74.1433 271.425 72.9693 268.091 71.8364 264.893C70.6867 261.646 69.5774 258.534 69.1442 255.379L67.9554 255.543ZM73.3593 274.976L72.1678 275.119C72.2901 276.139 72.2329 277.23 72.1006 278.397C72.0347 278.979 71.952 279.565 71.8672 280.166C71.7831 280.762 71.6967 281.374 71.6285 281.981L72.821 282.115L74.0135 282.249C74.0772 281.681 74.1587 281.103 74.2436 280.502C74.3277 279.906 74.4151 279.288 74.4854 278.667C74.6256 277.43 74.7056 276.126 74.5508 274.833L73.3593 274.976ZM72.821 282.115L71.6285 281.981C71.1338 286.388 70.9933 290.804 71.1879 295.203L72.3867 295.15L73.5855 295.097C73.3963 290.82 73.533 286.528 74.0135 282.248L72.821 282.115ZM72.3867 295.15L71.1879 295.203C71.499 302.224 72.9736 309.279 74.2449 316.073L75.4244 315.852L76.6039 315.631C75.3171 308.755 73.8872 301.906 73.5855 295.097L72.3867 295.15ZM75.4244 315.852L74.2448 316.072C75.2532 321.474 76.802 326.808 76.7399 331.996L77.9398 332.01L79.1398 332.025C79.2056 326.522 77.5514 320.707 76.604 315.632L75.4244 315.852ZM77.9398 332.01L76.7399 331.995L76.7377 332.179L77.9376 332.194L79.1375 332.209L79.1397 332.025L77.9398 332.01ZM77.9376 332.194L76.7377 332.179C76.7145 334.059 76.6893 335.853 76.3689 337.552L77.5481 337.774L78.7273 337.997C79.0932 336.057 79.1148 334.049 79.1375 332.208L77.9376 332.194ZM77.5481 337.774L76.3689 337.552C76.2848 337.998 76.0948 338.451 75.8242 339.139C75.571 339.783 75.2766 340.57 75.1407 341.489L76.3277 341.664L77.5148 341.84C77.608 341.211 77.8132 340.639 78.0576 340.018C78.2847 339.44 78.5903 338.723 78.7273 337.996L77.5481 337.774ZM76.3277 341.664L75.1404 341.49C75.0152 342.344 75.0744 343.14 75.1536 343.752C75.193 344.056 75.2403 344.334 75.2727 344.535C75.2897 344.64 75.3021 344.72 75.3104 344.785C75.3192 344.854 75.3198 344.877 75.3197 344.873L76.5196 344.854L77.7194 344.835C77.7158 344.607 77.6726 344.342 77.642 344.152C77.6057 343.927 77.567 343.7 77.5338 343.444C77.4678 342.935 77.435 342.384 77.515 341.839L76.3277 341.664ZM76.5196 344.854L75.3197 344.874C75.3289 345.433 75.2071 346.062 75.0116 346.796C74.8366 347.453 74.5543 348.346 74.3852 349.084L75.555 349.352L76.7247 349.62C76.8887 348.904 77.1007 348.277 77.3307 347.414C77.5403 346.627 77.7342 345.736 77.7194 344.834L76.5196 344.854ZM75.555 349.352L74.385 349.085C74.1444 350.14 73.9216 351.401 73.8852 352.664C73.8491 353.913 73.9916 355.265 74.5692 356.438L75.6456 355.907L76.722 355.377C76.3882 354.699 76.2536 353.791 76.2842 352.733C76.3143 351.689 76.5019 350.597 76.7249 349.619L75.555 349.352ZM75.6456 355.907L74.5686 356.436C75.1893 357.699 76.2437 358.513 77.3406 359.042C78.4311 359.568 79.6325 359.847 80.6777 360.013L80.8656 358.828L81.0536 357.642C80.1162 357.494 79.174 357.261 78.3832 356.88C77.5988 356.502 77.0345 356.012 76.7225 355.378L75.6456 355.907ZM80.8656 358.828L80.6767 360.013C81.1065 360.081 81.6613 360.331 82.2214 360.731C82.7748 361.126 83.2318 361.594 83.4923 361.984L84.4896 361.316L85.4869 360.649C85.0359 359.975 84.3577 359.307 83.6155 358.777C82.8799 358.252 81.9784 357.79 81.0546 357.643L80.8656 358.828ZM84.4896 361.316L83.4938 361.986C83.7803 362.412 83.9731 362.92 84.3301 363.684C84.6482 364.365 85.084 365.202 85.8079 365.854L86.6107 364.962L87.4134 364.07C87.0715 363.762 86.8024 363.306 86.5043 362.668C86.2451 362.113 85.9103 361.279 85.4853 360.647L84.4896 361.316ZM86.6107 364.962L85.8079 365.854C86.5245 366.499 87.3824 366.947 88.0877 367.315C88.846 367.71 89.4357 368.015 89.8982 368.405L90.6716 367.488L91.445 366.57C90.7377 365.974 89.8832 365.544 89.1966 365.186C88.4569 364.801 87.8693 364.48 87.4134 364.07L86.6107 364.962ZM90.6716 367.488L89.8988 368.406C89.8696 368.381 89.9136 368.418 90.0651 368.621C90.1975 368.798 90.3389 369 90.5193 369.25C90.8269 369.676 91.2954 370.318 91.7759 370.692L92.5129 369.745L93.2499 368.798C93.0935 368.676 92.8266 368.345 92.4653 367.845C92.3113 367.632 92.1349 367.381 91.9869 367.183C91.8579 367.011 91.6588 366.75 91.4444 366.57L90.6716 367.488ZM92.5129 369.745L91.7786 370.694C93.4752 372.006 95.4258 372.668 97.3311 372.954L97.5091 371.767L97.6871 370.58C96.0751 370.339 94.5404 369.796 93.2472 368.796L92.5129 369.745ZM97.5091 371.767L97.3317 372.954C98.2232 373.087 99.4773 373.068 100.59 372.688C101.721 372.301 102.952 371.428 103.116 369.758L101.922 369.641L100.728 369.524C100.691 369.892 100.465 370.194 99.8137 370.417C99.1449 370.646 98.2926 370.671 97.6865 370.58L97.5091 371.767ZM101.922 369.641L101.373 370.708C102.154 371.109 103.298 371.426 104.384 371.361C104.937 371.327 105.55 371.19 106.094 370.84C106.664 370.474 107.092 369.916 107.292 369.185L106.135 368.868L104.977 368.551C104.933 368.711 104.868 368.775 104.797 368.821C104.7 368.883 104.524 368.948 104.24 368.965C103.653 369 102.934 368.812 102.47 368.573L101.922 369.641ZM106.135 368.868L105.772 370.012C106.709 370.309 107.618 369.948 108.165 369.365C108.73 368.763 109.03 367.789 108.555 366.834L107.48 367.368L106.406 367.902C106.402 367.895 106.395 367.877 106.391 367.851C106.388 367.825 106.389 367.799 106.393 367.777C106.397 367.756 106.404 367.742 106.408 367.733C106.412 367.725 106.415 367.722 106.415 367.722C106.415 367.722 106.415 367.723 106.414 367.723C106.413 367.724 106.415 367.723 106.42 367.721C106.433 367.717 106.463 367.713 106.497 367.724L106.135 368.868ZM107.48 367.368L107.259 368.547C108.032 368.692 108.829 368.387 109.285 367.7C109.735 367.023 109.732 366.183 109.448 365.412L108.322 365.828L107.197 366.243C107.299 366.52 107.195 366.509 107.287 366.371C107.328 366.308 107.396 366.25 107.481 366.214C107.566 366.18 107.644 366.178 107.701 366.188L107.48 367.368ZM108.322 365.828L108.466 367.019C109.038 366.95 109.46 366.612 109.702 366.207C109.925 365.833 109.99 365.422 109.983 365.074C109.969 364.38 109.665 363.608 109.05 363.049L108.242 363.936L107.434 364.823C107.537 364.916 107.582 365.053 107.583 365.123C107.584 365.157 107.573 365.092 107.641 364.977C107.678 364.915 107.743 364.834 107.844 364.764C107.948 364.692 108.065 364.65 108.179 364.636L108.322 365.828ZM108.242 363.936L108.377 365.128C108.655 365.097 108.86 364.981 108.967 364.911C109.096 364.826 109.207 364.725 109.3 364.618C109.489 364.4 109.634 364.119 109.704 363.791C109.846 363.117 109.643 362.398 109.17 361.692L108.173 362.361L107.177 363.029C107.42 363.393 107.322 363.453 107.356 363.295C107.37 363.225 107.408 363.137 107.484 363.048C107.521 363.006 107.575 362.954 107.651 362.904C107.706 362.868 107.865 362.771 108.107 362.743L108.242 363.936ZM108.173 362.361L109.169 361.692C108.772 361.1 108.032 360.537 107.501 360.156C107.208 359.945 106.917 359.748 106.682 359.587C106.429 359.414 106.271 359.305 106.19 359.24L105.442 360.179L104.694 361.117C104.862 361.25 105.106 361.417 105.33 361.57C105.573 361.736 105.837 361.915 106.1 362.104C106.681 362.522 107.057 362.852 107.177 363.03L108.173 362.361ZM105.442 360.179L106.188 359.239C105.641 358.804 105.117 358.329 104.521 357.811C103.944 357.307 103.316 356.779 102.636 356.32L101.964 357.314L101.293 358.309C101.844 358.681 102.379 359.128 102.945 359.62C103.493 360.097 104.092 360.639 104.696 361.118L105.442 360.179ZM101.964 357.314L102.636 356.32C102.113 355.966 101.527 355.606 100.96 355.253C100.382 354.893 99.8103 354.533 99.2697 354.154C98.1646 353.38 97.3209 352.617 96.8792 351.814L95.8277 352.392L94.7762 352.971C95.4937 354.275 96.7191 355.298 97.8929 356.12C98.4918 356.539 99.1122 356.93 99.6913 357.29C100.281 357.657 100.817 357.987 101.292 358.308L101.964 357.314ZM95.8277 352.392L96.8787 351.813C95.9739 350.171 94.6314 348.473 93.5122 346.949C92.3388 345.35 91.4085 343.94 91.0363 342.681L89.8855 343.021L88.7347 343.361C89.2419 345.078 90.4274 346.802 91.5775 348.369C92.782 350.01 93.9708 351.509 94.7768 352.972L95.8277 352.392ZM89.8855 343.021L91.0362 342.68C90.6354 341.326 90.8161 339.415 91.259 337.152C91.4757 336.045 91.739 334.923 91.9925 333.792C92.2426 332.677 92.4823 331.556 92.6322 330.513L91.4444 330.342L90.2565 330.172C90.1213 331.114 89.9003 332.154 89.6507 333.267C89.4044 334.366 89.1287 335.541 88.9037 336.691C88.4633 338.942 88.1497 341.384 88.7349 343.361L89.8855 343.021ZM91.4444 330.342L92.6322 330.513C94.6908 316.145 97.6311 300.867 97.827 286.338L96.6271 286.322L95.4272 286.306C95.2341 300.63 92.3388 315.639 90.2565 330.172L91.4444 330.342ZM96.6271 286.322L97.827 286.338C97.8728 282.909 97.2804 279.526 96.6498 276.265C96.012 272.966 95.3406 269.812 95.1441 266.67L93.9465 266.745L92.7488 266.82C92.9574 270.155 93.6703 273.497 94.2935 276.72C94.9239 279.981 95.4694 283.148 95.4272 286.306L96.6271 286.322ZM93.9465 266.745L95.1442 266.67C95.0461 265.093 95.1097 263.467 95.1866 261.767C95.2625 260.089 95.3518 258.332 95.2841 256.591L94.085 256.638L92.8859 256.684C92.9489 258.303 92.8663 259.95 92.789 261.659C92.7126 263.348 92.6417 265.095 92.7488 266.819L93.9465 266.745ZM94.085 256.638L95.2841 256.591C95.1391 252.844 94.8113 249.082 95.5355 245.706L94.3622 245.454L93.1889 245.202C92.3835 248.957 92.7485 253.135 92.8859 256.684L94.085 256.638ZM94.3622 245.454L95.5355 245.706C97.564 236.252 99.4066 226.457 100.284 216.671L99.0893 216.564L97.8941 216.457C97.0293 226.097 95.2106 235.78 93.1889 245.202L94.3622 245.454ZM99.0893 216.564L100.284 216.671C101.449 203.711 102.142 190.373 101.866 177.426L100.667 177.452L99.467 177.477C99.7403 190.309 99.0533 203.553 97.8941 216.456L99.0893 216.564ZM100.667 177.452L101.866 177.426C101.668 168.176 100.264 162.187 98.6998 157.262C97.1198 152.286 95.5012 148.703 94.7124 143.875L93.5281 144.069L92.3438 144.262C93.1698 149.318 94.9247 153.304 96.4124 157.988C97.9158 162.722 99.2739 168.483 99.467 177.478L100.667 177.452ZM93.5281 144.069L94.7124 143.875C93.9168 139.009 93.3861 133.743 93.1477 129.131C92.9078 124.489 92.9692 120.604 93.3214 118.456L92.1372 118.262L90.953 118.068C90.5564 120.487 90.5098 124.591 90.7509 129.255C90.9935 133.947 91.5327 139.301 92.3439 144.263L93.5281 144.069ZM92.1372 118.262L93.3213 118.456C93.93 114.745 94.5607 110.37 94.9694 106.375C95.374 102.418 95.575 98.7116 95.275 96.4034L94.085 96.558L92.895 96.7127C93.1547 98.7106 92.9879 102.16 92.5818 106.131C92.1797 110.062 91.5568 114.386 90.953 118.067L92.1372 118.262ZM94.085 96.558L92.9143 96.8216C93.3141 98.5972 95.9296 114.071 96.3705 117.849L97.5624 117.71L98.7543 117.571C98.3052 113.723 95.6767 98.1642 95.2557 96.2944L94.085 96.558ZM97.5624 117.71L96.3705 117.849C97.4275 126.93 98.1189 132.305 100.289 141.292L101.455 141.01L102.622 140.728C100.486 131.883 99.8078 126.621 98.7544 117.571L97.5624 117.71ZM101.455 141.01L100.289 141.292C101.224 145.166 102.153 148.224 103.142 151.376C104.131 154.528 105.177 157.764 106.364 162.038L107.52 161.717L108.677 161.396C107.476 157.074 106.416 153.792 105.432 150.658C104.448 147.523 103.539 144.525 102.622 140.728L101.455 141.01ZM107.52 161.717L106.364 162.038C106.94 164.113 107.086 166.023 106.553 167.887L107.707 168.216L108.861 168.546C109.554 166.12 109.326 163.734 108.676 161.396L107.52 161.717ZM107.707 168.216L106.553 167.886C106.012 169.777 105.657 171.198 104.688 172.559L105.666 173.255L106.643 173.951C107.902 172.183 108.357 170.306 108.86 168.546L107.707 168.216ZM105.666 173.255L104.689 172.558C103.212 174.629 102.223 177.713 101.915 180.107L103.105 180.26L104.295 180.414C104.568 178.294 105.455 175.617 106.643 173.952L105.666 173.255ZM103.105 180.26L101.915 180.108C101.759 181.324 101.849 182.64 101.905 183.766C101.964 184.958 101.988 185.956 101.807 186.79L102.98 187.045L104.152 187.299C104.411 186.108 104.359 184.799 104.302 183.647C104.241 182.429 104.173 181.366 104.295 180.413L103.105 180.26ZM102.98 187.045L101.807 186.789C101.717 187.204 101.598 187.86 101.536 188.542C101.477 189.181 101.448 190.011 101.639 190.68L102.793 190.352L103.947 190.023C103.887 189.813 103.87 189.368 103.925 188.762C103.977 188.2 104.077 187.643 104.152 187.301L102.98 187.045ZM102.793 190.352L101.639 190.68C101.633 190.66 101.644 190.69 101.648 190.798C101.651 190.898 101.649 191.029 101.638 191.193C101.616 191.526 101.569 191.911 101.516 192.337C101.467 192.741 101.412 193.193 101.393 193.585C101.383 193.783 101.38 193.998 101.399 194.204C101.415 194.391 101.456 194.678 101.599 194.958L102.668 194.412L103.737 193.867C103.802 193.994 103.796 194.068 103.789 193.993C103.785 193.939 103.783 193.846 103.79 193.703C103.804 193.414 103.847 193.054 103.899 192.629C103.948 192.226 104.006 191.765 104.033 191.349C104.057 190.972 104.072 190.461 103.947 190.023L102.793 190.352ZM102.668 194.412L101.599 194.958C101.872 195.492 102.323 195.937 102.845 196.207C103.366 196.478 104.083 196.631 104.803 196.341L104.355 195.228L103.906 194.115C104.011 194.073 104.04 194.123 103.95 194.077C103.911 194.057 103.866 194.025 103.824 193.983C103.782 193.941 103.753 193.899 103.737 193.867L102.668 194.412ZM104.355 195.228L104.806 196.34C106.057 195.832 106.908 194.591 107.438 193.486C107.991 192.331 108.34 191.019 108.423 189.975L107.227 189.88L106.031 189.785C105.973 190.513 105.709 191.54 105.273 192.449C104.814 193.408 104.299 193.955 103.903 194.116L104.355 195.228ZM107.227 189.88L108.423 189.976C108.482 189.248 108.484 188.477 108.494 187.78C108.505 187.059 108.524 186.398 108.604 185.787L107.414 185.632L106.224 185.478C106.125 186.239 106.105 187.023 106.095 187.744C106.084 188.489 106.082 189.155 106.031 189.784L107.227 189.88ZM107.414 185.632L108.603 185.789C108.601 185.806 108.608 185.748 108.686 185.613C108.758 185.488 108.86 185.348 108.976 185.214C109.093 185.079 109.204 184.973 109.278 184.911C109.317 184.878 109.327 184.874 109.309 184.885C109.301 184.89 109.265 184.912 109.207 184.936C109.177 184.949 109.13 184.967 109.068 184.983C109.01 184.998 108.912 185.018 108.789 185.018V183.818V182.618C108.541 182.618 108.352 182.692 108.279 182.723C108.185 182.762 108.106 182.807 108.05 182.842C107.936 182.912 107.83 182.993 107.739 183.069C107.554 183.224 107.352 183.423 107.162 183.643C106.827 184.029 106.324 184.711 106.224 185.476L107.414 185.632ZM108.789 183.818V185.018C108.478 185.018 108.264 184.895 108.219 184.87C108.144 184.827 108.094 184.786 108.077 184.772C108.042 184.743 108.03 184.728 108.05 184.749C108.084 184.786 108.147 184.861 108.239 184.98C108.418 185.212 108.65 185.539 108.879 185.889C109.109 186.241 109.32 186.59 109.463 186.868C109.536 187.009 109.579 187.107 109.6 187.164C109.61 187.193 109.608 187.191 109.602 187.165C109.6 187.152 109.578 187.049 109.596 186.899L110.787 187.047L111.978 187.195C112.025 186.82 111.905 186.481 111.856 186.345C111.786 186.152 111.692 185.952 111.595 185.765C111.4 185.388 111.141 184.963 110.887 184.575C110.631 184.184 110.363 183.804 110.139 183.514C110.029 183.372 109.916 183.233 109.812 183.12C109.763 183.067 109.691 182.993 109.608 182.924C109.567 182.89 109.496 182.835 109.403 182.782C109.34 182.746 109.111 182.618 108.789 182.618V183.818ZM110.787 187.047L109.596 186.901C109.51 187.603 109.449 188.367 109.39 189.12C109.331 189.883 109.275 190.638 109.198 191.362C109.038 192.87 108.805 193.999 108.44 194.626L109.476 195.231L110.513 195.835C111.17 194.709 111.428 193.089 111.585 191.616C111.666 190.849 111.725 190.054 111.783 189.305C111.842 188.546 111.899 187.835 111.978 187.194L110.787 187.047ZM109.476 195.231L108.439 194.626C108.341 194.796 108.129 195.034 107.75 195.363C107.378 195.686 106.948 196.011 106.452 196.399C105.549 197.105 104.352 198.062 103.774 199.265L104.856 199.784L105.937 200.304C106.231 199.692 106.942 199.062 107.93 198.29C108.379 197.939 108.89 197.552 109.324 197.175C109.751 196.804 110.209 196.356 110.513 195.835L109.476 195.231ZM104.856 199.784L103.773 199.266C103.344 200.162 103.382 201.168 103.493 201.845C103.551 202.202 103.64 202.533 103.743 202.798C103.791 202.924 103.859 203.077 103.95 203.22C103.993 203.288 104.072 203.402 104.192 203.513C104.278 203.592 104.597 203.871 105.097 203.848L105.042 202.649L104.987 201.45C105.465 201.428 105.76 201.695 105.818 201.748C105.912 201.834 105.962 201.912 105.974 201.93C106.003 201.976 106.002 201.987 105.982 201.935C105.947 201.844 105.897 201.674 105.861 201.457C105.784 200.989 105.816 200.558 105.938 200.303L104.856 199.784ZM105.042 202.649L105.111 203.847C105.892 203.802 106.763 203.529 107.602 203.18C108.462 202.823 109.377 202.348 110.269 201.827C112.051 200.788 113.825 199.521 115 198.521L114.222 197.607L113.444 196.693C112.386 197.594 110.73 198.781 109.061 199.754C108.228 200.24 107.412 200.66 106.681 200.964C105.93 201.276 105.353 201.429 104.973 201.451L105.042 202.649ZM114.222 197.607L114.999 198.522C116.476 197.266 117.84 194.968 118.879 192.669C119.933 190.337 120.748 187.787 121.029 185.873L119.842 185.699L118.654 185.525C118.416 187.152 117.686 189.481 116.692 191.681C115.683 193.913 114.497 195.798 113.445 196.693L114.222 197.607ZM119.842 185.699L121.029 185.874C121.407 183.309 121.091 180.522 120.72 177.878C120.339 175.167 119.903 172.619 119.917 170.278L118.717 170.271L117.517 170.263C117.502 172.83 117.979 175.622 118.343 178.212C118.716 180.868 118.977 183.34 118.655 185.524L119.842 185.699ZM118.717 170.271H119.917C119.917 169.481 119.988 168.639 120.078 167.753C120.167 166.887 120.277 165.953 120.34 165.072L119.144 164.987L117.947 164.901C117.887 165.733 117.785 166.587 117.691 167.509C117.599 168.409 117.517 169.352 117.517 170.271H118.717ZM77.7773 0.574192C78.9692 0.713392 78.9692 0.713184 78.9693 0.712938C78.9693 0.712805 78.9693 0.712519 78.9693 0.71225C78.9694 0.711714 78.9695 0.711023 78.9696 0.710175C78.9698 0.708481 78.97 0.706169 78.9704 0.703241C78.971 0.69739 78.972 0.689087 78.9732 0.678389C78.9756 0.65699 78.979 0.626007 78.9833 0.58588C78.9919 0.505634 79.004 0.388788 79.0185 0.238894C79.0475 -0.0608368 79.0861 -0.493071 79.1249 -1.02935C79.2024 -2.10096 79.2814 -3.59296 79.2874 -5.2765C79.2991 -8.60023 79.0288 -12.8345 77.7965 -16.0319L76.6768 -15.6003L75.5571 -15.1688C76.6191 -12.4133 76.899 -8.56029 76.8874 -5.28498C76.8817 -3.669 76.8057 -2.23354 76.7311 -1.20255C76.6938 -0.687544 76.657 -0.274704 76.6297 0.00781441C76.616 0.149044 76.6048 0.257618 76.597 0.330009C76.5931 0.366201 76.5901 0.393341 76.5881 0.410988C76.5871 0.419811 76.5864 0.42626 76.5859 0.430279C76.5857 0.432289 76.5856 0.433691 76.5855 0.434479C76.5854 0.434874 76.5854 0.435114 76.5854 0.4352C76.5854 0.435242 76.5854 0.43519 76.5854 0.435213C76.5854 0.435122 76.5854 0.434992 77.7773 0.574192ZM76.6768 -15.6003L77.7965 -16.0319C75.8608 -21.0538 69.9278 -27.84 59.3618 -27.84V-26.64V-25.44C68.7488 -25.44 73.9062 -19.4518 75.5571 -15.1687L76.6768 -15.6003ZM59.3618 -26.64V-27.84H59.3512V-26.64V-25.44H59.3618V-26.64ZM59.3512 -26.64V-27.84H59.3405V-26.64V-25.44H59.3512V-26.64ZM59.3405 -26.64V-27.84C48.7718 -27.84 42.8415 -21.0537 40.9058 -16.0319L42.0255 -15.6003L43.1452 -15.1687C44.7962 -19.4519 49.9509 -25.44 59.3405 -25.44V-26.64ZM42.0255 -15.6003L40.9058 -16.0319C39.6735 -12.8346 39.4051 -8.62058 39.4189 -5.31571C39.4259 -3.64189 39.506 -2.15964 39.5843 -1.09533C39.6235 -0.562691 39.6624 -0.133484 39.6916 0.164148C39.7062 0.312996 39.7184 0.429026 39.7271 0.508728C39.7314 0.548582 39.7349 0.579361 39.7373 0.600628C39.7385 0.611261 39.7395 0.619516 39.7402 0.625341C39.7405 0.628252 39.7408 0.630556 39.741 0.632244C39.7411 0.633089 39.7411 0.63378 39.7412 0.634317C39.7412 0.634584 39.7413 0.634871 39.7413 0.635004C39.7413 0.635252 39.7413 0.63546 40.933 0.494251C42.1247 0.353043 42.1247 0.353172 42.1247 0.353266C42.1247 0.353245 42.1247 0.3533 42.1247 0.35326C42.1247 0.353178 42.1247 0.352943 42.1246 0.352556C42.1245 0.351784 42.1244 0.350401 42.1241 0.348415C42.1237 0.344444 42.1229 0.338062 42.1219 0.329325C42.1199 0.31185 42.1169 0.284954 42.113 0.249075C42.1052 0.177311 42.0939 0.0696392 42.0801 -0.0704536C42.0526 -0.350698 42.0155 -0.760319 41.9778 -1.27148C41.9025 -2.29476 41.8256 -3.71999 41.8189 -5.32571C41.8053 -8.57991 42.0832 -12.4132 43.1452 -15.1688L42.0255 -15.6003ZM40.933 0.494251C41.6914 -0.435741 41.6909 -0.436136 41.6904 -0.436533C41.6902 -0.436666 41.6897 -0.437067 41.6894 -0.437336C41.6887 -0.437878 41.6881 -0.438427 41.6874 -0.438986C41.686 -0.440104 41.6846 -0.441256 41.6831 -0.442442C41.6801 -0.444817 41.677 -0.447329 41.6736 -0.449972C41.6669 -0.455257 41.6594 -0.461081 41.6511 -0.467375C41.6345 -0.479942 41.6147 -0.494509 41.5917 -0.510517C41.5461 -0.542328 41.4866 -0.58099 41.4146 -0.621437C41.2745 -0.700191 41.066 -0.797628 40.8052 -0.854795C40.2206 -0.982908 39.4786 -0.876137 38.8582 -0.239021L39.7179 0.598173L40.5776 1.43537C40.5897 1.423 40.5556 1.4602 40.4718 1.48288C40.3936 1.50402 40.3277 1.49752 40.2914 1.48956C40.26 1.48269 40.2439 1.47369 40.2388 1.47079C40.2343 1.46828 40.228 1.4644 40.2186 1.45789C40.2138 1.45454 40.2079 1.45025 40.2007 1.4448C40.1971 1.44207 40.1931 1.43901 40.1888 1.43561C40.1866 1.4339 40.1844 1.43211 40.182 1.43022C40.1808 1.42927 40.1796 1.4283 40.1784 1.42731C40.1778 1.42681 40.1772 1.4263 40.1765 1.42579C40.1762 1.42554 40.1758 1.42515 40.1756 1.42502C40.1751 1.42463 40.1746 1.42424 40.933 0.494251ZM39.7179 0.598173L38.8585 -0.239359C38.1543 0.483225 38.133 1.53052 38.1946 2.24116C38.2637 3.04018 38.4892 3.92293 38.7421 4.72935C38.9985 5.54722 39.3024 6.34603 39.5557 6.98803C39.8275 7.67673 40.0036 8.09663 40.065 8.28778L41.2075 7.92067L42.3499 7.55357C42.2568 7.26374 42.0162 6.68506 41.7882 6.10713C41.5417 5.4825 41.2627 4.74662 41.0322 4.01133C40.798 3.26458 40.6325 2.57568 40.5856 2.03412C40.5311 1.40418 40.6686 1.34198 40.5773 1.43571L39.7179 0.598173ZM41.2075 7.92067L40.0653 8.28871C40.065 8.28775 40.0821 8.35131 40.1025 8.53383C40.1214 8.70229 40.1366 8.90473 40.1554 9.15739C40.1911 9.63926 40.237 10.2714 40.3508 10.8883C40.4622 11.492 40.6584 12.2034 41.0664 12.8001C41.5093 13.4479 42.1989 13.947 43.1547 14.0177L43.2433 12.821L43.3318 11.6243C43.2071 11.615 43.1406 11.5815 43.0475 11.4454C42.9195 11.2582 42.7998 10.9344 42.711 10.4529C42.6246 9.98467 42.586 9.48162 42.5488 8.97972C42.531 8.74051 42.5125 8.48891 42.4876 8.26635C42.4642 8.05786 42.4272 7.79342 42.3496 7.55264L41.2075 7.92067ZM43.2433 12.821L42.089 13.1491C42.901 16.0053 44.8606 19.7725 47.5189 22.6244L48.3967 21.8062L49.2745 20.988C46.8859 18.4254 45.1097 14.998 44.3975 12.4928L43.2433 12.821ZM71.1236 21.2973L71.9799 22.138C74.5097 19.5614 75.941 15.5105 76.6109 13.1484L75.4564 12.821L74.3019 12.4936C73.6448 14.8107 72.3422 18.3433 70.2674 20.4566L71.1236 21.2973ZM75.4564 12.821L75.5434 14.0178C76.4995 13.9483 77.1896 13.4499 77.633 12.802C78.0412 12.2055 78.2375 11.494 78.3489 10.8903C78.4627 10.2733 78.5085 9.64105 78.5443 9.15884C78.5631 8.90601 78.5782 8.70331 78.5971 8.53454C78.6176 8.35183 78.6347 8.28758 78.6347 8.28778L77.4922 7.92067L76.3497 7.55356C76.2724 7.79425 76.2354 8.05859 76.2121 8.2674C76.1871 8.49015 76.1686 8.7419 76.1509 8.98128C76.1136 9.4835 76.075 9.9867 75.9887 10.4549C75.8998 10.9364 75.7802 11.2598 75.6524 11.4465C75.5598 11.5819 75.4938 11.6151 75.3693 11.6241L75.4564 12.821ZM77.4922 7.92067L78.6344 8.2887C78.7007 8.08297 78.8797 7.62705 79.1404 6.92772C79.3877 6.26455 79.6839 5.44466 79.9413 4.61498C80.1955 3.79565 80.4274 2.91812 80.5266 2.15026C80.5761 1.7679 80.5996 1.36292 80.5563 0.981331C80.5152 0.620058 80.3974 0.125675 80.0266 -0.273973L79.1469 0.542219L78.2673 1.35841C78.1363 1.21723 78.1563 1.11731 78.1716 1.25218C78.1846 1.36674 78.183 1.5596 78.1465 1.84249C78.0737 2.40514 77.8899 3.12774 77.6491 3.90387C77.4115 4.66965 77.1335 5.44057 76.8917 6.08925C76.6633 6.70177 76.4383 7.27874 76.35 7.55264L77.4922 7.92067ZM79.1469 0.542219L80.0282 -0.272276C79.7113 -0.615202 79.321 -0.845758 78.8811 -0.928757C78.4559 -1.009 78.0806 -0.933407 77.8045 -0.832001C77.5318 -0.731817 77.3189 -0.593529 77.1819 -0.491215C77.1107 -0.438044 77.0526 -0.389051 77.0094 -0.350372C76.9876 -0.330891 76.9691 -0.313627 76.9542 -0.299263C76.9467 -0.292068 76.9401 -0.285564 76.9343 -0.279831C76.9314 -0.276962 76.9287 -0.274282 76.9262 -0.271803C76.925 -0.270563 76.9238 -0.269371 76.9227 -0.268232C76.9222 -0.267662 76.9216 -0.267103 76.9211 -0.26656C76.9208 -0.266287 76.9204 -0.265886 76.9203 -0.265751C76.9199 -0.265356 76.9195 -0.264963 77.7773 0.574192C78.6351 1.41335 78.6347 1.41373 78.6343 1.41412C78.6342 1.41424 78.6339 1.41463 78.6336 1.41488C78.6331 1.41538 78.6326 1.41587 78.6322 1.41635C78.6312 1.41731 78.6303 1.41824 78.6294 1.41913C78.6276 1.4209 78.626 1.42254 78.6245 1.42404C78.6215 1.42703 78.6189 1.42949 78.6169 1.43147C78.6128 1.43541 78.6104 1.43756 78.6096 1.4383C78.6082 1.43951 78.6115 1.43654 78.6179 1.43176C78.6361 1.41816 78.6437 1.41655 78.6321 1.42081C78.6172 1.42629 78.5437 1.44992 78.4362 1.42963C78.314 1.40659 78.2576 1.3479 78.2657 1.35671L79.1469 0.542219ZM48.3967 21.8062L47.5184 22.6239C47.5413 22.6485 47.5644 22.673 47.588 22.6975L48.4539 21.8667L49.3198 21.0359C49.3046 21.0201 49.2897 21.0044 49.275 20.9886L48.3967 21.8062ZM48.4539 21.8667L47.2544 21.9011C47.3551 25.4135 47.5335 28.2896 46.4517 30.703L47.5467 31.1938L48.6417 31.6847C50.0022 28.6498 49.7472 25.1008 49.6534 21.8323L48.4539 21.8667ZM70.6908 21.7184L71.5074 22.5977C71.6697 22.4471 71.8271 22.2937 71.98 22.1379L71.1236 21.2973L70.2673 20.4567C70.1395 20.5868 70.0086 20.7143 69.8742 20.8391L70.6908 21.7184ZM71.8484 31.1938L72.945 30.7065C71.7389 27.9928 71.7874 25.5659 71.8863 21.902L70.6868 21.8696L69.4872 21.8372C69.3901 25.4337 69.2931 28.399 70.7518 31.6812L71.8484 31.1938ZM70.6868 21.8696L71.8863 21.9019L71.8904 21.7507L70.6908 21.7184L69.4913 21.6861L69.4872 21.8373L70.6868 21.8696Z" fill="#EAEAEA" mask="url(#path-1-outside-1_25_19791)"/>
<path d="M58.7703 87.0239C58.7703 87.0239 58.7703 95.6548 58.7703 97.2056C53.0786 97.5387 46.2304 99.5931 41.9642 102.055C41.9642 100.011 41.9642 87.7514 41.9642 87.7514L58.7703 87.0239Z" fill="#C7C7C7"/>
<path d="M58.7703 99.7794C52.5829 100.118 45.8973 102.271 41.9642 104.717C41.9642 106.534 41.9642 115.141 41.9642 115.141L58.7703 114.718C58.7703 114.718 58.7703 101.304 58.7703 99.7794Z" fill="#C7C7C7"/>
<path d="M58.7703 117.318H41.9642V128.145H58.7703V117.318Z" fill="#C7C7C7"/>
<path d="M42.1292 130.74C44.213 130.809 58.7701 130.74 58.7701 130.74C58.7701 130.74 58.7701 182.253 58.7701 182.778C56.3319 182.658 52.2203 181.014 50.1872 179.551C50.0619 179.189 42.1292 150.821 42.1292 130.74Z" fill="#C7C7C7"/>
<path d="M27.5084 148.378C30.1944 154.557 40.7545 171.448 47.2323 177.13C40.1469 155.623 41.6285 133.397 38.1138 128.089C36.0061 124.905 32.5367 124.199 29.8427 120.465C29.4483 130.517 28.156 143.331 27.5084 148.378Z" fill="#C7C7C7"/>
<path d="M29.8401 90.7836C31.9931 97.0429 39.8752 98.5804 39.8752 98.5804V105.231C39.8752 105.231 33.8264 103.843 31.6733 101.122C29.976 98.9774 29.2538 95.6733 29.8401 90.7836Z" fill="#C7C7C7"/>
<path d="M30.7355 80.6631C32.8886 86.9224 39.878 87.8417 39.878 87.8417V95.7104C39.878 95.7104 34.7299 94.5673 32.5289 91.5056C30.8208 89.1314 30.5677 86.4907 30.7355 80.6631Z" fill="#C7C7C7"/>
<path d="M28.2307 99.513C30.5143 106.497 39.8779 107.955 39.8779 107.955V114.606C39.8779 114.606 34.1409 113.348 31.6761 110.899C29.8934 109.127 27.6924 105.29 28.2307 99.513Z" fill="#C7C7C7"/>
<path d="M27.4231 108.109C30.1091 115.901 39.8777 117.491 39.8777 117.491V123.74C39.8777 123.74 34.0048 122.077 31.6759 119.631C30.1411 118.022 28.0946 115.226 27.4231 108.109Z" fill="#C7C7C7"/>
<path d="M61.0962 87.0239C61.0962 87.0239 61.0962 95.6548 61.0962 97.2056C66.7879 97.5387 73.6361 99.5931 77.9023 102.055C77.9023 100.011 77.9023 87.7514 77.9023 87.7514L61.0962 87.0239Z" fill="#C7C7C7"/>
<path d="M61.0962 99.7794C67.2836 100.118 73.9692 102.271 77.9023 104.717C77.9023 106.534 77.9023 115.141 77.9023 115.141L61.0962 114.718C61.0962 114.718 61.0962 101.304 61.0962 99.7794Z" fill="#C7C7C7"/>
<path d="M77.9023 117.318H61.0962V128.145H77.9023V117.318Z" fill="#C7C7C7"/>
<path d="M77.737 130.74C75.6533 130.809 61.0962 130.74 61.0962 130.74C61.0962 130.74 61.0962 182.253 61.0962 182.778C63.5344 182.658 67.646 181.014 69.6791 179.551C69.8043 179.189 77.737 150.821 77.737 130.74Z" fill="#C7C7C7"/>
<path d="M92.3609 148.378C89.6749 154.557 79.1148 171.448 72.637 177.13C79.7224 155.623 78.2408 133.397 81.7555 128.089C83.8633 124.905 87.3326 124.199 90.0266 120.465C90.4183 130.517 91.7134 143.331 92.3609 148.378Z" fill="#C7C7C7"/>
<path d="M90.0265 90.7836C87.8735 97.0429 79.9914 98.5804 79.9914 98.5804V105.231C79.9914 105.231 86.0402 103.843 88.1932 101.122C89.8906 98.9774 90.6127 95.6733 90.0265 90.7836Z" fill="#C7C7C7"/>
<path d="M89.1313 80.6631C86.9782 86.9224 79.9888 87.8417 79.9888 87.8417V95.7104C79.9888 95.7104 85.1369 94.5673 87.3379 91.5056C89.046 89.1314 89.2991 86.4907 89.1313 80.6631Z" fill="#C7C7C7"/>
<path d="M91.6386 99.513C89.355 106.497 79.9914 107.955 79.9914 107.955V114.606C79.9914 114.606 85.7284 113.348 88.1932 110.899C89.9732 109.127 92.1742 105.29 91.6386 99.513Z" fill="#C7C7C7"/>
<path d="M92.4434 108.109C89.7575 115.901 79.9888 117.491 79.9888 117.491V123.74C79.9888 123.74 85.8617 122.077 88.1906 119.631C89.7281 118.022 91.7719 115.226 92.4434 108.109Z" fill="#C7C7C7"/>
<path d="M26.3655 72.3282C28.3001 75.1395 28.9795 78.3424 29.0195 81.7318C29.0861 87.3836 26.9784 93.904 26.3495 99.6464C22.4724 93.1579 25.2011 83.9835 26.3655 72.3282Z" fill="#C7C7C7"/>
<path d="M93.5013 72.3282C91.5668 75.1395 90.8873 78.3424 90.8473 81.7318C90.7807 87.3836 92.8885 93.904 93.5173 99.6464C97.3944 93.1579 94.6684 83.9835 93.5013 72.3282Z" fill="#C7C7C7"/>
<path d="M27.6974 56.1779C35.1904 51.6826 48.2206 50.1824 55.0475 52.6819C60.0437 59.1756 58.77 84.7537 58.77 84.7537C58.77 84.7537 41.7295 87.7861 35.8566 83.6532C30.4313 79.8348 27.6974 67.5 27.6974 56.1779Z" fill="#C7C7C7"/>
<path d="M92.1689 56.1779C84.6759 51.6826 71.6457 50.1824 64.8188 52.6819C59.8226 59.1756 61.0963 84.7537 61.0963 84.7537C61.0963 84.7537 78.1368 87.7861 84.0097 83.6532C89.435 79.8348 92.1689 67.5 92.1689 56.1779Z" fill="#C7C7C7"/>
<path d="M7.9789 110.292C16.3966 117.966 4.81061 134.074 4.49085 164.315C4.08849 164.699 3.39035 164.568 2.99598 164.35C2.2552 145.042 3.02795 128.116 7.9789 110.292Z" fill="#C7C7C7"/>
<path d="M22.3791 108.219C22.2219 113.732 21.8222 117.26 20.9615 122.24C18.8298 134.551 13.3032 151.823 11.1156 164.736C10.6785 164.955 9.7619 164.779 9.49544 164.403C13.1647 145.606 14.5157 129.461 17.9691 118.302C19.4027 113.66 21.2759 111.683 22.3791 108.219Z" fill="#C7C7C7"/>
<path d="M19.8633 110.659C19.0932 112.13 17.6277 114.872 16.6044 118.597C13.8518 128.614 10.6249 147.149 7.78439 164.275C7.34738 164.624 6.64924 164.494 6.28951 164.206C9.07675 143.304 10.2972 125.939 12.7993 117.678C13.8998 114.046 17.8968 112.626 19.8633 110.659Z" fill="#C7C7C7"/>
<path d="M111.888 110.292C103.47 117.966 115.056 134.074 115.373 164.315C115.776 164.699 116.474 164.568 116.868 164.35C117.612 145.042 116.839 128.116 111.888 110.292Z" fill="#C7C7C7"/>
<path d="M97.4876 108.219C97.6448 113.732 98.0445 117.26 98.9052 122.24C101.037 134.551 106.563 151.823 108.751 164.736C109.188 164.955 110.105 164.779 110.371 164.403C106.702 145.606 105.351 129.461 101.898 118.302C100.464 113.66 98.5908 111.683 97.4876 108.219Z" fill="#C7C7C7"/>
<path d="M100.003 110.659C100.774 112.13 102.239 114.872 103.262 118.597C106.015 128.614 109.242 147.149 112.082 164.275C112.519 164.624 113.218 164.494 113.577 164.206C110.79 143.304 109.57 125.939 107.067 117.678C105.967 114.046 101.97 112.626 100.003 110.659Z" fill="#C7C7C7"/>
<path d="M24.4468 59.45C25.097 73.1197 21.2332 99.0708 16.0132 109.511C14.5289 110.502 10.8783 110.425 9.88709 109.434C7.90724 101.512 6.84937 81.4547 8.71464 73.9937C14.3557 73.3435 18.6911 68.2833 24.4468 59.45Z" fill="#C7C7C7"/>
<path d="M95.4227 59.45C94.7725 73.1197 98.6363 99.0708 103.856 109.511C105.341 110.502 108.991 110.425 109.982 109.434C111.962 101.512 113.02 81.4547 111.155 73.9937C105.511 73.3435 101.178 68.2833 95.4227 59.45Z" fill="#C7C7C7"/>
<path d="M42.6488 49.194C36.7013 47.5366 30.6125 43.2092 27.0019 42.4577C22.7064 41.5624 15.256 45.0185 11.8133 50.7581C9.40444 54.7738 6.77176 63.1062 8.50645 72.2193C18.9226 69.616 18.9573 61.2196 25.0327 56.2287C29.0084 52.9645 38.3987 49.8388 42.6488 49.194Z" fill="#3179FF"/>
<path d="M77.2174 49.194C83.1649 47.5366 89.2537 43.2092 92.8643 42.4577C97.1597 41.5624 104.61 45.0185 108.053 50.7581C110.462 54.7738 113.094 63.1062 111.36 72.2193C100.944 69.616 100.909 61.2196 94.8335 56.2287C90.8578 52.9645 81.4702 49.8388 77.2174 49.194Z" fill="#3179FF"/>
<path d="M32.8112 39.6441C35.7157 38.8687 44.4344 36.3506 47.3389 34.6079C49.0816 38.8687 51.2133 43.5452 53.3451 47.4196C48.4794 46.9959 38.2338 43.9049 32.8112 39.6441Z" fill="#3179FF"/>
<path d="M87.0583 39.6441C84.1538 38.8687 75.435 36.3506 72.5305 34.6079C70.7878 38.8687 68.6561 43.5452 66.5244 47.4196C71.3901 46.9959 81.633 43.9049 87.0583 39.6441Z" fill="#3179FF"/>
</g>
<defs>
<clipPath id="clip0_25_19791">
<rect width="120" height="120" fill="white"/>
</clipPath>
</defs>
</svg>
