<svg width="120" height="120" viewBox="0 0 120 120" fill="none" xmlns="http://www.w3.org/2000/svg">
<g clip-path="url(#clip0_25_19800)">
<rect width="120" height="384.371" transform="translate(0 -53.76)" fill="#EAEAEA"/>
<mask id="path-1-outside-1_25_19800" maskUnits="userSpaceOnUse" x="-2" y="-55.76" width="124" height="388" fill="black">
<rect fill="white" x="-2" y="-55.76" width="124" height="388"/>
<path d="M119.842 157.555C119.317 161.102 116.742 167.332 114.213 169.483C111.972 171.391 107.338 174.403 105.014 174.536C104.842 174.544 104.274 172.82 104.824 171.668C105.698 169.846 108.648 168.489 109.458 167.103C110.481 165.351 110.437 161.598 110.771 158.907C110.836 158.37 108.954 155.666 108.769 155.666C108.579 155.666 107.497 156.694 107.392 157.488C107.209 158.863 107.314 160.385 107.207 161.745C107.063 163.521 105.978 166.435 104.325 167.103C103.708 167.353 102.95 166.903 102.637 166.289C102.323 165.677 103.012 163.097 102.763 162.218C102.513 161.336 102.786 159.663 102.953 158.905C103.392 156.874 102.799 154.278 103.079 152.106C103.369 149.842 104.541 147.102 105.641 145.087C107.551 141.594 107.422 138.423 106.692 133.527C106.101 129.538 102.675 120.56 101.652 115.381H101.668C100.172 106.416 98.82 97.2922 97.7585 88.3094C97.6043 87.0166 97.1982 84.3693 96.7099 81.3699C96.6482 80.9869 96.5839 80.5963 96.5197 80.2056C96.4554 79.8072 96.3861 79.4037 96.3218 79.0002C96.2499 78.5812 96.1804 78.1572 96.1085 77.7356C96.0365 77.2884 95.9594 76.8464 95.8874 76.4069C95.8078 75.9314 95.7255 75.461 95.6459 74.9958C95.5585 74.4792 95.4737 73.9755 95.3888 73.4846C95.3888 73.4794 95.3888 73.4794 95.3888 73.4794C95.2809 72.86 95.1781 72.2714 95.0778 71.7111C94.9699 71.0737 94.8645 70.4852 94.7668 69.9531C94.6229 69.1435 94.497 68.4701 94.3993 67.9895C94.3479 67.6991 94.3016 67.4806 94.2708 67.3444C94.2939 67.5166 94.3119 67.6991 94.3299 67.8893V67.8944C94.371 68.3648 94.3942 68.8891 94.3993 69.4622C94.407 69.8966 94.4045 70.3567 94.3916 70.8398C94.3788 71.2793 94.3633 71.7343 94.3402 72.2072C94.3196 72.603 94.2965 73.0142 94.2682 73.428C94.2451 73.8033 94.2117 74.1862 94.1808 74.5769C94.1526 74.9393 94.1192 75.3068 94.0883 75.6821C94.0549 76.0316 94.0189 76.3914 93.9829 76.7487C93.9469 77.0905 93.911 77.4375 93.875 77.7845C93.839 78.1186 93.7979 78.4527 93.7619 78.792C93.3635 82.1923 92.8341 85.7546 92.32 88.8542C91.5695 93.3829 92.1016 104.692 93.7182 114.43C95.3374 124.225 100.483 129.432 100.879 147.511C101.154 160.285 100.46 173.454 99.2955 186.269C98.4216 195.897 96.584 205.548 94.5535 214.901C93.7876 218.43 94.1346 222.368 94.2759 225.984C94.4044 229.312 93.929 232.73 94.1346 235.997C94.5407 242.417 96.8615 247.059 96.823 255.399C96.7587 269.464 92.5796 289.038 92.5796 289.038C91.6723 294.885 91.9114 300.941 91.9988 306.837C92.0193 308.114 92.0193 309.314 92.2404 310.414C93.5794 316.994 95.2937 316.863 98.0824 318.682C101.041 320.618 104.384 323.329 109.658 324.45C111.632 324.874 113.37 328.359 109.132 328.894C106.926 329.171 89.1279 330.611 83.9772 330.611C81.6486 330.611 78.8831 330.063 77.9861 328.033C77.012 325.828 77.1123 322.702 77.8139 318.667C78.2046 316.416 77.4644 314.028 77.3718 311.643C77.2793 309.245 77.8345 306.844 77.6057 304.57C76.3772 292.415 72.8586 275.966 72.5168 264.148C72.3908 259.848 72.4654 255.538 72.9511 251.233C73.2159 248.905 73.7684 246.45 73.4909 244.158C72.7095 237.709 68.9828 231.44 68.0704 224.904C67.1914 218.574 68.3531 212.069 67.7722 205.682C67.1117 198.357 65.9628 191.006 64.8114 183.72C64.1354 179.476 63.4415 175.225 62.4776 171.033C62.1461 169.591 61.6912 165.718 60.6682 164.88C60.6194 164.839 60.3058 164.978 60.0026 164.98C59.7173 164.986 59.4345 164.865 59.3909 164.903C58.3962 165.782 57.931 169.609 57.6046 171.033C56.6408 175.225 55.9442 179.479 55.2709 183.72C54.1143 191.006 52.9423 198.388 52.31 205.682C51.7548 212.046 52.8909 218.574 52.0067 224.904C51.0969 231.44 47.365 237.711 46.5862 244.158C46.3086 246.45 46.8638 248.912 47.126 251.233C47.6143 255.536 47.7556 259.848 47.5654 264.148H47.4858C47.1362 276.097 43.9466 292.78 42.7541 304.973C42.5433 307.096 43.3092 309.736 43.2784 311.543C43.2424 313.473 42.7155 315.38 43.2861 318.672C43.9878 322.702 44.088 325.828 43.1088 328.033C42.2092 330.063 39.4488 330.611 37.1177 330.611C31.967 330.611 14.1736 329.171 11.9684 328.894C7.72505 328.357 9.46507 324.872 11.4415 324.45C16.713 323.329 20.211 321.15 23.1847 319.24C26.3563 317.202 28.8468 316.297 28.8468 310.412C28.8468 308.43 28.0526 295.679 27.0246 289.038L26.2921 284.908C24.7757 275.028 23.4032 265.045 23.2567 255.399C23.159 248.884 25.5416 242.412 25.9451 235.997C26.1507 232.728 25.6598 229.32 25.8037 225.984C25.9605 222.352 26.2946 218.433 25.5261 214.901C23.4957 205.553 21.6606 195.892 20.7841 186.269C19.6199 173.462 18.4916 160.277 19.2035 147.511C20.0979 131.486 24.8039 124.269 26.364 114.43C27.9164 104.638 28.9059 93.1902 27.7571 88.8542C26.0325 82.3388 24.3387 72.0915 24.3875 68.6937C24.4441 68.2748 24.5032 67.9047 24.5597 67.6066C24.4467 67.7402 24.3901 68.1257 24.3875 68.6937C23.7116 73.4075 22.8352 84.9296 22.4214 88.3094C21.3162 97.2151 20.0568 107.611 18.5173 115.381C17.4583 120.732 14.3587 129.24 13.3075 133.527C12.3694 137.338 12.5287 142.638 14.3587 145.087C15.7337 146.93 16.6307 149.842 16.9212 152.106C17.1987 154.278 16.6076 156.874 17.0471 158.905C17.2116 159.663 17.4866 161.333 17.2373 162.218C16.988 163.097 17.6768 165.674 17.3632 166.289C17.0497 166.9 16.2915 167.353 15.6746 167.103C14.022 166.435 12.9374 163.521 12.7935 161.745C12.6881 160.388 12.7883 158.863 12.6084 157.488C12.503 156.694 11.4184 155.666 11.2308 155.666C11.0457 155.666 9.16436 158.37 9.22862 158.907C9.56274 161.598 9.51905 165.351 10.5471 167.103C11.3542 168.489 14.3022 169.848 15.176 171.668C15.7286 172.82 15.1632 174.544 14.9858 174.536C12.6598 174.403 8.02577 171.391 5.78714 169.483C3.25551 167.332 0.682751 161.102 0.158434 157.555C-0.543226 152.795 1.31503 147.012 1.28162 142.093C1.27391 140.381 0.847257 138.515 0.847257 136.798C0.847257 135.087 1.47951 125.245 1.62087 120.059C1.82134 112.734 1.30731 104.468 2.52043 97.1534C3.09358 93.717 4.47891 90.2293 5.13945 86.8084C7.12106 76.5816 6.10584 50.831 6.12383 40.229C6.12897 33.2227 7.41406 25.1292 11.3593 19.2023C14.1197 15.0489 19.3063 12.5944 24.1177 11.538C27.9575 10.4509 31.7742 9.28141 35.5627 8.01945C38.8063 6.93484 45.9077 5.6189 47.2056 2.77371C48.5241 -0.140873 48.1694 -3.61062 48.0923 -7.26028C45.7663 -10.0129 45.3191 -13.2719 44.5789 -15.8473C42.4791 -16.0015 42.9031 -19.6306 42.5998 -20.5533C42.2966 -21.4811 40.6054 -26.8399 41.1503 -27.5878C41.6952 -28.3383 42.3274 -27.611 42.3274 -27.611C42.3274 -27.611 41.1631 -37.4342 43.394 -43.1529C45.1392 -47.6224 50.5314 -53.76 60.2339 -53.76H60.2544C69.9569 -53.76 75.3491 -47.6224 77.0943 -43.1529C79.3278 -37.4342 78.166 -27.611 78.166 -27.611C78.166 -27.611 78.7957 -28.3358 79.338 -27.5878C79.8829 -26.8374 78.1892 -21.4785 77.891 -20.5533C77.5877 -19.6306 78.0118 -15.9989 75.9094 -15.8473C75.2643 -13.6035 73.9227 -10.8303 72.0439 -8.33718C71.9436 -4.33284 71.3576 -0.415882 72.7841 2.77371C74.0897 5.66774 81.0601 6.95283 84.3422 8.01945C88.2231 9.28141 92.1427 10.4483 96.0802 11.538C100.892 12.5944 106.081 15.0489 108.841 19.2023C112.781 25.1292 114.069 33.2227 114.077 40.229C114.077 41.0797 114.071 42.0255 114.061 43.0536C114.038 45.3154 113.992 47.9652 113.953 50.8438C113.953 50.8567 113.948 50.8644 113.948 50.8747C113.92 52.774 113.892 54.7685 113.871 56.8144V56.8221C113.856 58.1611 113.843 59.5182 113.838 60.8881C113.838 60.8932 113.832 60.901 113.832 60.9035C113.827 61.9316 113.825 62.9622 113.825 63.9903C113.825 64.8282 113.83 65.6661 113.832 66.5014C113.838 67.2107 113.84 67.915 113.848 68.6166C113.856 69.2283 113.863 69.8375 113.876 70.4415V70.4466C113.884 70.9941 113.897 71.5338 113.912 72.0735V72.0787C113.92 72.5696 113.933 73.0579 113.948 73.5411C113.961 74.0012 113.976 74.451 113.992 74.8982V74.9033C114.007 75.3222 114.025 75.7386 114.041 76.1498C114.223 80.4009 114.537 84.1354 115.056 86.8135C115.716 90.2344 117.099 93.7196 117.672 97.1585C118.888 104.473 118.395 112.523 118.572 120.064H118.559C118.695 125.024 119.24 132.267 119.163 136.804C119.042 138.52 118.736 140.386 118.729 142.098C118.685 147.015 120.543 152.798 119.842 157.555Z"/>
</mask>
<path d="M119.842 157.555C119.317 161.102 116.742 167.332 114.213 169.483C111.972 171.391 107.338 174.403 105.014 174.536C104.842 174.544 104.274 172.82 104.824 171.668C105.698 169.846 108.648 168.489 109.458 167.103C110.481 165.351 110.437 161.598 110.771 158.907C110.836 158.37 108.954 155.666 108.769 155.666C108.579 155.666 107.497 156.694 107.392 157.488C107.209 158.863 107.314 160.385 107.207 161.745C107.063 163.521 105.978 166.435 104.325 167.103C103.708 167.353 102.95 166.903 102.637 166.289C102.323 165.677 103.012 163.097 102.763 162.218C102.513 161.336 102.786 159.663 102.953 158.905C103.392 156.874 102.799 154.278 103.079 152.106C103.369 149.842 104.541 147.102 105.641 145.087C107.551 141.594 107.422 138.423 106.692 133.527C106.101 129.538 102.675 120.56 101.652 115.381H101.668C100.172 106.416 98.82 97.2922 97.7585 88.3094C97.6043 87.0166 97.1982 84.3693 96.7099 81.3699C96.6482 80.9869 96.5839 80.5963 96.5197 80.2056C96.4554 79.8072 96.3861 79.4037 96.3218 79.0002C96.2499 78.5812 96.1804 78.1572 96.1085 77.7356C96.0365 77.2884 95.9594 76.8464 95.8874 76.4069C95.8078 75.9314 95.7255 75.461 95.6459 74.9958C95.5585 74.4792 95.4737 73.9755 95.3888 73.4846C95.3888 73.4794 95.3888 73.4794 95.3888 73.4794C95.2809 72.86 95.1781 72.2714 95.0778 71.7111C94.9699 71.0737 94.8645 70.4852 94.7668 69.9531C94.6229 69.1435 94.497 68.4701 94.3993 67.9895C94.3479 67.6991 94.3016 67.4806 94.2708 67.3444C94.2939 67.5166 94.3119 67.6991 94.3299 67.8893V67.8944C94.371 68.3648 94.3942 68.8891 94.3993 69.4622C94.407 69.8966 94.4045 70.3567 94.3916 70.8398C94.3788 71.2793 94.3633 71.7343 94.3402 72.2072C94.3196 72.603 94.2965 73.0142 94.2682 73.428C94.2451 73.8033 94.2117 74.1862 94.1808 74.5769C94.1526 74.9393 94.1192 75.3068 94.0883 75.6821C94.0549 76.0316 94.0189 76.3914 93.9829 76.7487C93.9469 77.0905 93.911 77.4375 93.875 77.7845C93.839 78.1186 93.7979 78.4527 93.7619 78.792C93.3635 82.1923 92.8341 85.7546 92.32 88.8542C91.5695 93.3829 92.1016 104.692 93.7182 114.43C95.3374 124.225 100.483 129.432 100.879 147.511C101.154 160.285 100.46 173.454 99.2955 186.269C98.4216 195.897 96.584 205.548 94.5535 214.901C93.7876 218.43 94.1346 222.368 94.2759 225.984C94.4044 229.312 93.929 232.73 94.1346 235.997C94.5407 242.417 96.8615 247.059 96.823 255.399C96.7587 269.464 92.5796 289.038 92.5796 289.038C91.6723 294.885 91.9114 300.941 91.9988 306.837C92.0193 308.114 92.0193 309.314 92.2404 310.414C93.5794 316.994 95.2937 316.863 98.0824 318.682C101.041 320.618 104.384 323.329 109.658 324.45C111.632 324.874 113.37 328.359 109.132 328.894C106.926 329.171 89.1279 330.611 83.9772 330.611C81.6486 330.611 78.8831 330.063 77.9861 328.033C77.012 325.828 77.1123 322.702 77.8139 318.667C78.2046 316.416 77.4644 314.028 77.3718 311.643C77.2793 309.245 77.8345 306.844 77.6057 304.57C76.3772 292.415 72.8586 275.966 72.5168 264.148C72.3908 259.848 72.4654 255.538 72.9511 251.233C73.2159 248.905 73.7684 246.45 73.4909 244.158C72.7095 237.709 68.9828 231.44 68.0704 224.904C67.1914 218.574 68.3531 212.069 67.7722 205.682C67.1117 198.357 65.9628 191.006 64.8114 183.72C64.1354 179.476 63.4415 175.225 62.4776 171.033C62.1461 169.591 61.6912 165.718 60.6682 164.88C60.6194 164.839 60.3058 164.978 60.0026 164.98C59.7173 164.986 59.4345 164.865 59.3909 164.903C58.3962 165.782 57.931 169.609 57.6046 171.033C56.6408 175.225 55.9442 179.479 55.2709 183.72C54.1143 191.006 52.9423 198.388 52.31 205.682C51.7548 212.046 52.8909 218.574 52.0067 224.904C51.0969 231.44 47.365 237.711 46.5862 244.158C46.3086 246.45 46.8638 248.912 47.126 251.233C47.6143 255.536 47.7556 259.848 47.5654 264.148H47.4858C47.1362 276.097 43.9466 292.78 42.7541 304.973C42.5433 307.096 43.3092 309.736 43.2784 311.543C43.2424 313.473 42.7155 315.38 43.2861 318.672C43.9878 322.702 44.088 325.828 43.1088 328.033C42.2092 330.063 39.4488 330.611 37.1177 330.611C31.967 330.611 14.1736 329.171 11.9684 328.894C7.72505 328.357 9.46507 324.872 11.4415 324.45C16.713 323.329 20.211 321.15 23.1847 319.24C26.3563 317.202 28.8468 316.297 28.8468 310.412C28.8468 308.43 28.0526 295.679 27.0246 289.038L26.2921 284.908C24.7757 275.028 23.4032 265.045 23.2567 255.399C23.159 248.884 25.5416 242.412 25.9451 235.997C26.1507 232.728 25.6598 229.32 25.8037 225.984C25.9605 222.352 26.2946 218.433 25.5261 214.901C23.4957 205.553 21.6606 195.892 20.7841 186.269C19.6199 173.462 18.4916 160.277 19.2035 147.511C20.0979 131.486 24.8039 124.269 26.364 114.43C27.9164 104.638 28.9059 93.1902 27.7571 88.8542C26.0325 82.3388 24.3387 72.0915 24.3875 68.6937C24.4441 68.2748 24.5032 67.9047 24.5597 67.6066C24.4467 67.7402 24.3901 68.1257 24.3875 68.6937C23.7116 73.4075 22.8352 84.9296 22.4214 88.3094C21.3162 97.2151 20.0568 107.611 18.5173 115.381C17.4583 120.732 14.3587 129.24 13.3075 133.527C12.3694 137.338 12.5287 142.638 14.3587 145.087C15.7337 146.93 16.6307 149.842 16.9212 152.106C17.1987 154.278 16.6076 156.874 17.0471 158.905C17.2116 159.663 17.4866 161.333 17.2373 162.218C16.988 163.097 17.6768 165.674 17.3632 166.289C17.0497 166.9 16.2915 167.353 15.6746 167.103C14.022 166.435 12.9374 163.521 12.7935 161.745C12.6881 160.388 12.7883 158.863 12.6084 157.488C12.503 156.694 11.4184 155.666 11.2308 155.666C11.0457 155.666 9.16436 158.37 9.22862 158.907C9.56274 161.598 9.51905 165.351 10.5471 167.103C11.3542 168.489 14.3022 169.848 15.176 171.668C15.7286 172.82 15.1632 174.544 14.9858 174.536C12.6598 174.403 8.02577 171.391 5.78714 169.483C3.25551 167.332 0.682751 161.102 0.158434 157.555C-0.543226 152.795 1.31503 147.012 1.28162 142.093C1.27391 140.381 0.847257 138.515 0.847257 136.798C0.847257 135.087 1.47951 125.245 1.62087 120.059C1.82134 112.734 1.30731 104.468 2.52043 97.1534C3.09358 93.717 4.47891 90.2293 5.13945 86.8084C7.12106 76.5816 6.10584 50.831 6.12383 40.229C6.12897 33.2227 7.41406 25.1292 11.3593 19.2023C14.1197 15.0489 19.3063 12.5944 24.1177 11.538C27.9575 10.4509 31.7742 9.28141 35.5627 8.01945C38.8063 6.93484 45.9077 5.6189 47.2056 2.77371C48.5241 -0.140873 48.1694 -3.61062 48.0923 -7.26028C45.7663 -10.0129 45.3191 -13.2719 44.5789 -15.8473C42.4791 -16.0015 42.9031 -19.6306 42.5998 -20.5533C42.2966 -21.4811 40.6054 -26.8399 41.1503 -27.5878C41.6952 -28.3383 42.3274 -27.611 42.3274 -27.611C42.3274 -27.611 41.1631 -37.4342 43.394 -43.1529C45.1392 -47.6224 50.5314 -53.76 60.2339 -53.76H60.2544C69.9569 -53.76 75.3491 -47.6224 77.0943 -43.1529C79.3278 -37.4342 78.166 -27.611 78.166 -27.611C78.166 -27.611 78.7957 -28.3358 79.338 -27.5878C79.8829 -26.8374 78.1892 -21.4785 77.891 -20.5533C77.5877 -19.6306 78.0118 -15.9989 75.9094 -15.8473C75.2643 -13.6035 73.9227 -10.8303 72.0439 -8.33718C71.9436 -4.33284 71.3576 -0.415882 72.7841 2.77371C74.0897 5.66774 81.0601 6.95283 84.3422 8.01945C88.2231 9.28141 92.1427 10.4483 96.0802 11.538C100.892 12.5944 106.081 15.0489 108.841 19.2023C112.781 25.1292 114.069 33.2227 114.077 40.229C114.077 41.0797 114.071 42.0255 114.061 43.0536C114.038 45.3154 113.992 47.9652 113.953 50.8438C113.953 50.8567 113.948 50.8644 113.948 50.8747C113.92 52.774 113.892 54.7685 113.871 56.8144V56.8221C113.856 58.1611 113.843 59.5182 113.838 60.8881C113.838 60.8932 113.832 60.901 113.832 60.9035C113.827 61.9316 113.825 62.9622 113.825 63.9903C113.825 64.8282 113.83 65.6661 113.832 66.5014C113.838 67.2107 113.84 67.915 113.848 68.6166C113.856 69.2283 113.863 69.8375 113.876 70.4415V70.4466C113.884 70.9941 113.897 71.5338 113.912 72.0735V72.0787C113.92 72.5696 113.933 73.0579 113.948 73.5411C113.961 74.0012 113.976 74.451 113.992 74.8982V74.9033C114.007 75.3222 114.025 75.7386 114.041 76.1498C114.223 80.4009 114.537 84.1354 115.056 86.8135C115.716 90.2344 117.099 93.7196 117.672 97.1585C118.888 104.473 118.395 112.523 118.572 120.064H118.559C118.695 125.024 119.24 132.267 119.163 136.804C119.042 138.52 118.736 140.386 118.729 142.098C118.685 147.015 120.543 152.798 119.842 157.555Z" fill="white"/>
<path d="M119.842 157.555C119.317 161.102 116.742 167.332 114.213 169.483C111.972 171.391 107.338 174.403 105.014 174.536C104.842 174.544 104.274 172.82 104.824 171.668C105.698 169.846 108.648 168.489 109.458 167.103C110.481 165.351 110.437 161.598 110.771 158.907C110.836 158.37 108.954 155.666 108.769 155.666C108.579 155.666 107.497 156.694 107.392 157.488C107.209 158.863 107.314 160.385 107.207 161.745C107.063 163.521 105.978 166.435 104.325 167.103C103.708 167.353 102.95 166.903 102.637 166.289C102.323 165.677 103.012 163.097 102.763 162.218C102.513 161.336 102.786 159.663 102.953 158.905C103.392 156.874 102.799 154.278 103.079 152.106C103.369 149.842 104.541 147.102 105.641 145.087C107.551 141.594 107.422 138.423 106.692 133.527C106.101 129.538 102.675 120.56 101.652 115.381H101.668C100.172 106.416 98.82 97.2922 97.7585 88.3094C97.6043 87.0166 97.1982 84.3693 96.7099 81.3699C96.6482 80.9869 96.5839 80.5963 96.5197 80.2056C96.4554 79.8072 96.3861 79.4037 96.3218 79.0002C96.2499 78.5812 96.1804 78.1572 96.1085 77.7356C96.0365 77.2884 95.9594 76.8464 95.8874 76.4069C95.8078 75.9314 95.7255 75.461 95.6459 74.9958C95.5585 74.4792 95.4737 73.9755 95.3888 73.4846C95.3888 73.4794 95.3888 73.4794 95.3888 73.4794C95.2809 72.86 95.1781 72.2714 95.0778 71.7111C94.9699 71.0737 94.8645 70.4852 94.7668 69.9531C94.6229 69.1435 94.497 68.4701 94.3993 67.9895C94.3479 67.6991 94.3016 67.4806 94.2708 67.3444C94.2939 67.5166 94.3119 67.6991 94.3299 67.8893V67.8944C94.371 68.3648 94.3942 68.8891 94.3993 69.4622C94.407 69.8966 94.4045 70.3567 94.3916 70.8398C94.3788 71.2793 94.3633 71.7343 94.3402 72.2072C94.3196 72.603 94.2965 73.0142 94.2682 73.428C94.2451 73.8033 94.2117 74.1862 94.1808 74.5769C94.1526 74.9393 94.1192 75.3068 94.0883 75.6821C94.0549 76.0316 94.0189 76.3914 93.9829 76.7487C93.9469 77.0905 93.911 77.4375 93.875 77.7845C93.839 78.1186 93.7979 78.4527 93.7619 78.792C93.3635 82.1923 92.8341 85.7546 92.32 88.8542C91.5695 93.3829 92.1016 104.692 93.7182 114.43C95.3374 124.225 100.483 129.432 100.879 147.511C101.154 160.285 100.46 173.454 99.2955 186.269C98.4216 195.897 96.584 205.548 94.5535 214.901C93.7876 218.43 94.1346 222.368 94.2759 225.984C94.4044 229.312 93.929 232.73 94.1346 235.997C94.5407 242.417 96.8615 247.059 96.823 255.399C96.7587 269.464 92.5796 289.038 92.5796 289.038C91.6723 294.885 91.9114 300.941 91.9988 306.837C92.0193 308.114 92.0193 309.314 92.2404 310.414C93.5794 316.994 95.2937 316.863 98.0824 318.682C101.041 320.618 104.384 323.329 109.658 324.45C111.632 324.874 113.37 328.359 109.132 328.894C106.926 329.171 89.1279 330.611 83.9772 330.611C81.6486 330.611 78.8831 330.063 77.9861 328.033C77.012 325.828 77.1123 322.702 77.8139 318.667C78.2046 316.416 77.4644 314.028 77.3718 311.643C77.2793 309.245 77.8345 306.844 77.6057 304.57C76.3772 292.415 72.8586 275.966 72.5168 264.148C72.3908 259.848 72.4654 255.538 72.9511 251.233C73.2159 248.905 73.7684 246.45 73.4909 244.158C72.7095 237.709 68.9828 231.44 68.0704 224.904C67.1914 218.574 68.3531 212.069 67.7722 205.682C67.1117 198.357 65.9628 191.006 64.8114 183.72C64.1354 179.476 63.4415 175.225 62.4776 171.033C62.1461 169.591 61.6912 165.718 60.6682 164.88C60.6194 164.839 60.3058 164.978 60.0026 164.98C59.7173 164.986 59.4345 164.865 59.3909 164.903C58.3962 165.782 57.931 169.609 57.6046 171.033C56.6408 175.225 55.9442 179.479 55.2709 183.72C54.1143 191.006 52.9423 198.388 52.31 205.682C51.7548 212.046 52.8909 218.574 52.0067 224.904C51.0969 231.44 47.365 237.711 46.5862 244.158C46.3086 246.45 46.8638 248.912 47.126 251.233C47.6143 255.536 47.7556 259.848 47.5654 264.148H47.4858C47.1362 276.097 43.9466 292.78 42.7541 304.973C42.5433 307.096 43.3092 309.736 43.2784 311.543C43.2424 313.473 42.7155 315.38 43.2861 318.672C43.9878 322.702 44.088 325.828 43.1088 328.033C42.2092 330.063 39.4488 330.611 37.1177 330.611C31.967 330.611 14.1736 329.171 11.9684 328.894C7.72505 328.357 9.46507 324.872 11.4415 324.45C16.713 323.329 20.211 321.15 23.1847 319.24C26.3563 317.202 28.8468 316.297 28.8468 310.412C28.8468 308.43 28.0526 295.679 27.0246 289.038L26.2921 284.908C24.7757 275.028 23.4032 265.045 23.2567 255.399C23.159 248.884 25.5416 242.412 25.9451 235.997C26.1507 232.728 25.6598 229.32 25.8037 225.984C25.9605 222.352 26.2946 218.433 25.5261 214.901C23.4957 205.553 21.6606 195.892 20.7841 186.269C19.6199 173.462 18.4916 160.277 19.2035 147.511C20.0979 131.486 24.8039 124.269 26.364 114.43C27.9164 104.638 28.9059 93.1902 27.7571 88.8542C26.0325 82.3388 24.3387 72.0915 24.3875 68.6937C24.4441 68.2748 24.5032 67.9047 24.5597 67.6066C24.4467 67.7402 24.3901 68.1257 24.3875 68.6937C23.7116 73.4075 22.8352 84.9296 22.4214 88.3094C21.3162 97.2151 20.0568 107.611 18.5173 115.381C17.4583 120.732 14.3587 129.24 13.3075 133.527C12.3694 137.338 12.5287 142.638 14.3587 145.087C15.7337 146.93 16.6307 149.842 16.9212 152.106C17.1987 154.278 16.6076 156.874 17.0471 158.905C17.2116 159.663 17.4866 161.333 17.2373 162.218C16.988 163.097 17.6768 165.674 17.3632 166.289C17.0497 166.9 16.2915 167.353 15.6746 167.103C14.022 166.435 12.9374 163.521 12.7935 161.745C12.6881 160.388 12.7883 158.863 12.6084 157.488C12.503 156.694 11.4184 155.666 11.2308 155.666C11.0457 155.666 9.16436 158.37 9.22862 158.907C9.56274 161.598 9.51905 165.351 10.5471 167.103C11.3542 168.489 14.3022 169.848 15.176 171.668C15.7286 172.82 15.1632 174.544 14.9858 174.536C12.6598 174.403 8.02577 171.391 5.78714 169.483C3.25551 167.332 0.682751 161.102 0.158434 157.555C-0.543226 152.795 1.31503 147.012 1.28162 142.093C1.27391 140.381 0.847257 138.515 0.847257 136.798C0.847257 135.087 1.47951 125.245 1.62087 120.059C1.82134 112.734 1.30731 104.468 2.52043 97.1534C3.09358 93.717 4.47891 90.2293 5.13945 86.8084C7.12106 76.5816 6.10584 50.831 6.12383 40.229C6.12897 33.2227 7.41406 25.1292 11.3593 19.2023C14.1197 15.0489 19.3063 12.5944 24.1177 11.538C27.9575 10.4509 31.7742 9.28141 35.5627 8.01945C38.8063 6.93484 45.9077 5.6189 47.2056 2.77371C48.5241 -0.140873 48.1694 -3.61062 48.0923 -7.26028C45.7663 -10.0129 45.3191 -13.2719 44.5789 -15.8473C42.4791 -16.0015 42.9031 -19.6306 42.5998 -20.5533C42.2966 -21.4811 40.6054 -26.8399 41.1503 -27.5878C41.6952 -28.3383 42.3274 -27.611 42.3274 -27.611C42.3274 -27.611 41.1631 -37.4342 43.394 -43.1529C45.1392 -47.6224 50.5314 -53.76 60.2339 -53.76H60.2544C69.9569 -53.76 75.3491 -47.6224 77.0943 -43.1529C79.3278 -37.4342 78.166 -27.611 78.166 -27.611C78.166 -27.611 78.7957 -28.3358 79.338 -27.5878C79.8829 -26.8374 78.1892 -21.4785 77.891 -20.5533C77.5877 -19.6306 78.0118 -15.9989 75.9094 -15.8473C75.2643 -13.6035 73.9227 -10.8303 72.0439 -8.33718C71.9436 -4.33284 71.3576 -0.415882 72.7841 2.77371C74.0897 5.66774 81.0601 6.95283 84.3422 8.01945C88.2231 9.28141 92.1427 10.4483 96.0802 11.538C100.892 12.5944 106.081 15.0489 108.841 19.2023C112.781 25.1292 114.069 33.2227 114.077 40.229C114.077 41.0797 114.071 42.0255 114.061 43.0536C114.038 45.3154 113.992 47.9652 113.953 50.8438C113.953 50.8567 113.948 50.8644 113.948 50.8747C113.92 52.774 113.892 54.7685 113.871 56.8144V56.8221C113.856 58.1611 113.843 59.5182 113.838 60.8881C113.838 60.8932 113.832 60.901 113.832 60.9035C113.827 61.9316 113.825 62.9622 113.825 63.9903C113.825 64.8282 113.83 65.6661 113.832 66.5014C113.838 67.2107 113.84 67.915 113.848 68.6166C113.856 69.2283 113.863 69.8375 113.876 70.4415V70.4466C113.884 70.9941 113.897 71.5338 113.912 72.0735V72.0787C113.92 72.5696 113.933 73.0579 113.948 73.5411C113.961 74.0012 113.976 74.451 113.992 74.8982V74.9033C114.007 75.3222 114.025 75.7386 114.041 76.1498C114.223 80.4009 114.537 84.1354 115.056 86.8135C115.716 90.2344 117.099 93.7196 117.672 97.1585C118.888 104.473 118.395 112.523 118.572 120.064H118.559C118.695 125.024 119.24 132.267 119.163 136.804C119.042 138.52 118.736 140.386 118.729 142.098C118.685 147.015 120.543 152.798 119.842 157.555Z" stroke="#EAEAEA" stroke-width="2.4" mask="url(#path-1-outside-1_25_19800)"/>
<path d="M99.4238 88.4279C109.065 92.9745 103.14 110.573 111.182 137.709C110.928 138.163 110.267 138.238 109.856 138.151C103.875 121.085 99.9044 105.733 99.4238 88.4279Z" fill="#C7C7C7"/>
<path d="M112.54 82.6063C113.917 87.5822 115.156 91.3167 115.757 96.0047C117.243 107.604 115.626 124.107 117.225 136.256C116.893 136.572 116.027 136.668 115.683 136.405C113.789 118.584 110.954 103.769 110.967 92.8356C110.972 88.2941 112.506 86.0092 112.54 82.6063Z" fill="#C7C7C7"/>
<path d="M110.782 84.9476C110.499 86.4769 109.72 89.8669 109.831 93.478C110.129 103.196 111.944 120.663 114.12 136.762C113.827 137.194 113.164 137.271 112.763 137.112C109.499 117.648 105.808 101.78 105.773 93.7042C105.755 90.1548 109.564 87.2453 110.782 84.9476Z" fill="#C7C7C7"/>
<path d="M20.3701 88.4279C10.7294 92.9745 16.6536 110.573 8.61153 137.709C8.86598 138.163 9.52652 138.238 9.93775 138.151C15.9186 121.085 19.8895 105.733 20.3701 88.4279Z" fill="#C7C7C7"/>
<path d="M7.25454 82.6063C5.87693 87.5822 4.63809 91.3167 4.03667 96.0047C2.55111 107.604 4.16774 124.107 2.56909 136.256C2.90065 136.572 3.7668 136.668 4.1112 136.405C6.00543 118.584 8.84035 103.769 8.82749 92.8356C8.81978 88.2941 7.28796 86.0092 7.25454 82.6063Z" fill="#C7C7C7"/>
<path d="M9.01256 84.9476C9.29528 86.4769 10.074 89.8669 9.96353 93.478C9.66539 103.196 7.85084 120.663 5.67389 136.762C5.96689 137.194 6.63001 137.271 7.03096 137.112C10.2951 117.648 13.9859 101.78 14.0218 93.7042C14.0398 90.1548 10.2308 87.2453 9.01256 84.9476Z" fill="#C7C7C7"/>
<path d="M95.3144 126.693C92.2482 119.663 90.5313 102.991 90.5313 98.2999C89.5932 101.042 88.1719 103.618 86.7043 106.106C84.9 109.159 82.5303 112.053 81.5305 115.448C80.9805 117.314 80.7209 119.671 82.1602 121.213C84.1007 123.295 89.8322 122.493 95.3144 126.693Z" fill="#C7C7C7"/>
<path d="M24.48 126.693C27.5462 119.663 29.2631 102.991 29.2631 98.2999C30.2012 101.042 31.6225 103.618 33.0901 106.106C34.8944 109.159 37.2641 112.053 38.2639 115.448C38.8139 117.314 39.0735 119.671 37.6342 121.213C35.6937 123.295 29.9622 122.493 24.48 126.693Z" fill="#C7C7C7"/>
<path d="M65.7056 -10.9047C64.7341 -10.771 63.7497 -10.6837 62.7524 -10.6425C62.701 -7.94128 62.7113 -3.34322 63.2151 0.437514C63.9861 6.23071 65.6439 8.74178 65.6439 14.1906C65.6439 21.4076 63.7497 26.3167 63.2253 33.2844C62.4749 43.2953 62.8218 70.5598 62.8218 70.5598C66.3995 58.6264 71.0233 51.8926 73.5344 44.6986C77.0838 34.5258 76.5312 25.6844 78.978 20.5183C80.5175 17.2671 84.6787 16.5705 91.4794 12.2192C81.0958 9.38175 66.672 7.8345 65.7056 -10.9047Z" fill="#C7C7C7"/>
<path d="M72.6813 52.2189C80.9624 56.9506 88.7449 58.0223 94.0678 57.1356C93.4766 69.5573 90.8936 86.0322 90.4464 93.4137C86.5089 106.342 78.3948 111.552 78.9859 121.609C71.2831 106.573 75.5136 98.5644 63.1562 75.3916C65.4745 67.6682 68.916 61.2608 72.6813 52.2189Z" fill="#C7C7C7"/>
<path d="M81.1757 21.8059C78.5155 24.7076 79.5796 38.2653 73.6965 50.0342C76.8398 51.9695 83.8281 48.8879 88.6729 41.6426C91.5258 37.3761 91.5258 32.7394 94.2373 29.0641C91.3356 26.4014 86.2544 22.7723 81.1757 21.8059Z" fill="#C7C7C7"/>
<path d="M77.0839 51.4605C81.5406 53.9561 89.3874 55.0253 93.8441 54.4907C95.0932 51.4605 97.9461 38.9771 98.658 34.8777C89.21 41.2954 87.2464 50.3887 77.0839 51.4605Z" fill="#C7C7C7"/>
<path d="M57.039 -10.7634C56.0469 -10.843 55.0677 -10.9613 54.0987 -11.118C53.2326 7.8242 38.7368 9.36888 28.3147 12.2115C35.1128 16.5628 39.2739 17.2593 40.816 20.5106C43.2628 25.6793 42.7103 34.5181 46.2597 44.6909C48.7682 51.8848 53.3945 58.6187 56.9722 70.5521C56.9722 70.5521 57.3192 43.2901 56.5687 33.2767C56.0469 26.3115 54.1501 21.4025 54.1501 14.1828C54.1501 8.73405 55.8053 6.22297 56.579 0.429784C57.0878 -3.39979 57.093 -8.08009 57.039 -10.7634Z" fill="#C7C7C7"/>
<path d="M47.1104 52.2189C38.8293 56.9506 31.0468 58.0223 25.7239 57.1356C26.315 69.5573 28.8981 86.0322 29.3453 93.4137C33.2828 106.342 41.3969 111.552 40.8057 121.609C48.5086 106.573 44.2781 98.5644 56.6355 75.3916C54.3198 67.6682 50.8757 61.2608 47.1104 52.2189Z" fill="#C7C7C7"/>
<path d="M38.6184 21.8059C41.2785 24.7076 40.2145 38.2653 46.0976 50.0342C42.9543 51.9695 35.966 48.8879 31.1212 41.6426C28.2683 37.3761 28.2683 32.7394 25.5567 29.0641C28.4585 26.4014 33.5372 22.7723 38.6184 21.8059Z" fill="#C7C7C7"/>
<path d="M42.7103 51.4605C38.2536 53.9561 30.4069 55.0253 25.9502 54.4907C24.7011 51.4605 21.8482 38.9771 21.1362 34.8777C30.5842 41.2954 32.5453 50.3887 42.7103 51.4605Z" fill="#C7C7C7"/>
<path d="M81.1549 19.4261C86.8941 17.8249 90.3202 14.039 93.8054 13.3142C97.9511 12.4506 105.137 15.7842 108.461 21.3229C110.787 25.1988 113.326 33.2357 111.65 42.0309C101.601 39.5172 101.567 31.4186 95.7047 26.6021C91.87 23.451 85.2569 20.0481 81.1549 19.4261Z" fill="#C7C7C7"/>
<path d="M38.6392 19.4261C32.9 17.8249 29.4739 14.039 25.9887 13.3142C21.843 12.4506 14.6568 15.7842 11.3336 21.3229C9.00754 25.1988 6.46819 33.2357 8.14395 42.0309C18.1934 39.5172 18.2268 31.4186 24.0894 26.6021C27.9241 23.451 34.5346 20.0481 38.6392 19.4261Z" fill="#C7C7C7"/>
<path d="M112.573 79.4473C112.573 77.314 112.1 51.9849 111.301 44.7909C107.836 44.2589 102.85 39.283 100.355 36.0754C98.9359 41.5474 96.2089 52.6274 95.7591 57.2023C95.3325 61.5408 95.1577 65.5786 95.515 68.7887C95.8722 71.9989 97.9129 86.1143 103.243 88.5123C102.755 83.5904 98.5863 61.7978 103.776 61.3249C109.638 60.7929 108.307 79.9819 107.775 86.6463C110.443 82.9119 112.573 81.5779 112.573 79.4473Z" fill="#3179FF"/>
<path d="M7.22119 79.4473C7.22119 77.314 7.69411 51.9849 8.49343 44.7909C11.958 44.2589 16.9442 39.283 19.4398 36.0754C20.8586 41.5474 23.5855 52.6274 24.0353 57.2023C24.462 61.5408 24.6367 65.5786 24.2795 68.7887C23.9222 71.9989 21.8815 86.1143 16.5509 88.5123C17.0393 83.5904 21.2081 61.7978 16.0189 61.3249C10.1563 60.7929 11.4877 79.9819 12.0197 86.6463C9.35187 82.9119 7.22119 81.5779 7.22119 79.4473Z" fill="#3179FF"/>
</g>
<defs>
<clipPath id="clip0_25_19800">
<rect width="120" height="120" fill="white"/>
</clipPath>
</defs>
</svg>
