<svg xmlns="http://www.w3.org/2000/svg" xmlns:xlink="http://www.w3.org/1999/xlink" width="120" height="120" fill="none"><g clip-path="url(#a)"><circle cx="60" cy="60" r="60" fill="#EAEAEA"/><path fill="url(#b)" d="M0-173.04h120v392.275H0z"/><path fill="#EAEAEA" d="M0-179.28h120V219.2H0z"/><mask id="c" width="124" height="402" x="-2" y="-181.28" fill="#000" maskUnits="userSpaceOnUse"><path fill="#fff" d="M-2-181.28h124v402H-2z"/><path d="M118.699 7.723c.066 1.503.554 3.113.445 4.624-.123 1.713-.427 3.575-.427 5.284-.029 4.908 1.825 10.68 1.125 15.428-.52 3.541-3.091 9.758-5.62 11.908-2.233 1.9-6.859 4.909-9.18 5.042-.173.008-.738-1.714-.186-2.865.871-1.814 3.815-3.173 4.62-4.553 1.023-1.754.981-5.498 1.311-8.184.067-.535-1.812-3.23-1.998-3.23-.19 0-1.271 1.024-1.375 1.815-.179 1.373-.078 2.892-.187 4.248-.141 1.772-1.226 4.679-2.872 5.348-.616.248-1.375-.205-1.687-.816-.312-.61.376-3.181.125-4.06-.25-.88.021-2.55.187-3.307.439-2.026-.152-4.616.125-6.785.29-2.257 1.228-5.137 2.561-7.005 1.113-1.564 1.519-3.214 2.041-5.039.613-2.145.426-4.293-.187-6.499-2.387-8.596-4.213-13.036-6.065-20.707-2.153-8.916-2.837-14.235-3.893-23.3-.445-3.813-3.067-19.33-3.477-21.152.56 4.306-.735 14.312-1.948 21.704-.749 4.567-.216 15.98 1.391 25.807 1.615 9.883 6.747 15.138 7.139 33.383.274 12.889-.416 26.18-1.578 39.112-.871 9.712-2.702 19.452-4.727 28.89-.765 3.565-.418 7.536-.277 11.184.13 3.36-.344 6.805-.138 10.107.404 6.478 2.768 12.99 2.68 19.577-.194 14.427-3.112 29.57-5.183 44.02-.57 3.971-2.544 9.348-1.559 12.679.88 2.976 4.232 6.267 5.943 9.371 1.159 2.108 4.138 3.571 6.136 4.922 1.232.831 2.327 1.951 3.478 2.865.498.397 2.214 1.412 2.731 2.182.717 1.068.211 1.559.069 1.575.717.653.699 1.817.08 1.892.387 1.047-.202 1.66-.842 1.54.429.863-.487 1.772-1.345 1.5-.488 1.783-2.969 1.412-4.213.773-.2 2.038-2.915 2.35-4.413 2.126-1.758-.264-3.501-.866-4.996-2.022-.637-.496-1.471-1.946-1.841-2.257-1.17-.986-2.889-1.471-4.061-2.526-1.066-.96-1.41-2.588-2.121-3.646-.712-1.063-2.27-2.273-3.624-2.488-1.983-.315-4.288-1.024-5.22-2.921-.912-1.849-.555-4.522-.091-6.555.333-1.455.989-3.038.965-4.498-.008-.496-.397-1.791-.192-3.19.229-1.548.999-2.718 1.22-3.89.343-1.819.367-3.72.39-5.58l.002-.184c.064-5.345-1.538-10.919-2.516-16.158-1.279-6.835-2.73-13.787-3.037-20.702a83.638 83.638 0 0 1 .434-13.035c.264-2.348.815-4.826.538-7.139-.778-6.507-4.498-12.836-5.404-19.433-.879-6.39.28-12.948-.298-19.397-.66-7.391-1.804-14.81-2.955-22.159-.672-4.282-1.367-8.572-2.326-12.801-.33-1.457-.781-7.4-1.804-8.244-.048-.04-.36.096-.664.1-.285.009-.562-.116-.61-.074-.991.885-1.455 6.784-1.78 8.218-.962 4.229-1.655 8.519-2.326 12.801l-.024.153c-1.144 7.302-2.302 14.698-2.931 22.006-.555 6.422.578 13.01-.299 19.397-.906 6.597-4.626 12.926-5.404 19.433-.277 2.313.275 4.794.538 7.139.485 4.343.627 8.697.435 13.035-.307 6.915-1.762 13.87-3.038 20.702-.978 5.239-2.58 10.813-2.515 16.158v.098c.021 1.888.043 3.819.391 5.666.221 1.172.992 2.345 1.22 3.89.206 1.399-.183 2.692-.191 3.19-.024 1.46.613 3.032.964 4.498.477 2.001.768 4.642-.09 6.555-.885 1.969-3.358 2.63-5.22 2.921-1.351.213-2.91 1.428-3.624 2.488-.712 1.058-1.055 2.686-2.121 3.646-1.173 1.055-2.891 1.54-4.061 2.526-.37.314-1.205 1.764-1.841 2.257-1.495 1.159-3.195 1.7-4.997 2.022-1.51.269-4.226-.157-4.412-2.126-1.234.629-3.736 1.018-4.213-.773-.858.272-1.775-.637-1.346-1.5-.64.12-1.228-.493-.842-1.54-.618-.075-.637-1.239.08-1.892-.141-.016-.647-.507.07-1.575.516-.77 2.232-1.785 2.73-2.182 1.149-.914 2.244-2.031 3.478-2.865 1.937-1.311 5.012-2.75 6.137-4.922 1.676-3.235 5.05-6.387 5.942-9.371 1.002-3.352-.986-8.684-1.559-12.679-2.07-14.458-4.97-29.607-5.183-44.02-.096-6.574 2.279-13.105 2.68-19.577.206-3.302-.282-6.739-.138-10.107.158-3.664.488-7.621-.277-11.184-2.025-9.435-3.853-19.18-4.727-28.89-1.162-12.926-2.286-26.231-1.577-39.112.89-16.172 5.585-23.457 7.138-33.383 1.549-9.878 2.534-21.432 1.391-25.807-1.718-6.577-3.405-16.916-3.36-20.348-.671 4.76-1.543 16.388-1.958 19.796-1.098 8.988-2.105 15.25-3.893 22.495C16.343-3.519 15.35.433 12.881 9.077c-.634 2.222-.775 6.38-.186 8.511.5 1.815 3.909 7.373 4.2 9.63.279 2.166-.315 4.76.124 6.784.163.757.437 2.428.187 3.307-.25.877.437 3.45.125 4.061-.312.61-.376 1.013-1.687.813-1.67-.253-2.73-3.67-2.872-5.348-.112-1.351-.008-2.875-.187-4.248-.104-.791-1.188-1.814-1.375-1.814-.186 0-2.065 2.694-1.998 3.23.33 2.701.309 6.43 1.31 8.182.782 1.367 3.75 2.737 4.621 4.554.555 1.154-.01 2.876-.186 2.865-2.308-.133-6.944-3.14-9.18-5.042-2.526-2.15-5.097-8.367-5.62-11.908-.7-4.751 1.154-8.106 1.125-13.017-.01-1.708-.315-3.57-.437-5.284-.107-1.51.378-3.12.445-4.623.309-6.912.242-10.294.407-17.448.176-7.605-.314-10.907.898-18.285.57-3.472 1.948-6.992 2.61-10.44 1.976-10.32.966-36.304.977-47.005.008-7.072 1.29-15.237 5.22-21.221 2.753-4.192 7.925-6.667 12.721-7.733a266.97 266.97 0 0 0 11.405-3.55c3.238-1.089 10.728-2.622 12.018-5.494 1.22-2.724 1.004-5.937.907-9.327l-.057-.061c-2.524-2.707-4.392-6.304-5.154-8.985-2.16-.16-1.726-3.941-2.035-4.9-.31-.962-2.716-6.065-1.49-7.323.594-.61 1.215-.104 1.215-.104s-1.202-10.141 1.093-16.094c1.793-4.653 7.335-11.04 17.314-11.04H59.361c9.977 0 15.523 6.387 17.316 11.04 2.294 5.953 1.1 16.174 1.1 16.174s.72-.735 1.37-.032c.96 1.034-1.346 6.419-1.655 7.379-.309.962.125 4.743-2.036 4.9-.663 2.34-2.03 6.131-4.332 8.476-.14.143-.285.284-.433.421l-.004.152c-.098 3.63-.171 6.326 1.161 9.324 1.295 2.92 9.042 4.418 12.314 5.494a274.067 274.067 0 0 0 11.703 3.552c4.796 1.069 9.969 3.544 12.721 7.733 3.933 5.985 5.212 14.152 5.22 21.222.011 10.7-.999 36.681.978 47.004.658 3.451 2.039 6.971 2.609 10.44 1.215 7.379.722 11.485.898 19.09.165 7.157.098 7.722.408 14.634Z"/></mask><path fill="#fff" d="M118.699 7.723c.066 1.503.554 3.113.445 4.624-.123 1.713-.427 3.575-.427 5.284-.029 4.908 1.825 10.68 1.125 15.428-.52 3.541-3.091 9.758-5.62 11.908-2.233 1.9-6.859 4.909-9.18 5.042-.173.008-.738-1.714-.186-2.865.871-1.814 3.815-3.173 4.62-4.553 1.023-1.754.981-5.498 1.311-8.184.067-.535-1.812-3.23-1.998-3.23-.19 0-1.271 1.024-1.375 1.815-.179 1.373-.078 2.892-.187 4.248-.141 1.772-1.226 4.679-2.872 5.348-.616.248-1.375-.205-1.687-.816-.312-.61.376-3.181.125-4.06-.25-.88.021-2.55.187-3.307.439-2.026-.152-4.616.125-6.785.29-2.257 1.228-5.137 2.561-7.005 1.113-1.564 1.519-3.214 2.041-5.039.613-2.145.426-4.293-.187-6.499-2.387-8.596-4.213-13.036-6.065-20.707-2.153-8.916-2.837-14.235-3.893-23.3-.445-3.813-3.067-19.33-3.477-21.152.56 4.306-.735 14.312-1.948 21.704-.749 4.567-.216 15.98 1.391 25.807 1.615 9.883 6.747 15.138 7.139 33.383.274 12.889-.416 26.18-1.578 39.112-.871 9.712-2.702 19.452-4.727 28.89-.765 3.565-.418 7.536-.277 11.184.13 3.36-.344 6.805-.138 10.107.404 6.478 2.768 12.99 2.68 19.577-.194 14.427-3.112 29.57-5.183 44.02-.57 3.971-2.544 9.348-1.559 12.679.88 2.976 4.232 6.267 5.943 9.371 1.159 2.108 4.138 3.571 6.136 4.922 1.232.831 2.327 1.951 3.478 2.865.498.397 2.214 1.412 2.731 2.182.717 1.068.211 1.559.069 1.575.717.653.699 1.817.08 1.892.387 1.047-.202 1.66-.842 1.54.429.863-.487 1.772-1.345 1.5-.488 1.783-2.969 1.412-4.213.773-.2 2.038-2.915 2.35-4.413 2.126-1.758-.264-3.501-.866-4.996-2.022-.637-.496-1.471-1.946-1.841-2.257-1.17-.986-2.889-1.471-4.061-2.526-1.066-.96-1.41-2.588-2.121-3.646-.712-1.063-2.27-2.273-3.624-2.488-1.983-.315-4.288-1.024-5.22-2.921-.912-1.849-.555-4.522-.091-6.555.333-1.455.989-3.038.965-4.498-.008-.496-.397-1.791-.192-3.19.229-1.548.999-2.718 1.22-3.89.343-1.819.367-3.72.39-5.58l.002-.184c.064-5.345-1.538-10.919-2.516-16.158-1.279-6.835-2.73-13.787-3.037-20.702a83.638 83.638 0 0 1 .434-13.035c.264-2.348.815-4.826.538-7.139-.778-6.507-4.498-12.836-5.404-19.433-.879-6.39.28-12.948-.298-19.397-.66-7.391-1.804-14.81-2.955-22.159-.672-4.282-1.367-8.572-2.326-12.801-.33-1.457-.781-7.4-1.804-8.244-.048-.04-.36.096-.664.1-.285.009-.562-.116-.61-.074-.991.885-1.455 6.784-1.78 8.218-.962 4.229-1.655 8.519-2.326 12.801l-.024.153c-1.144 7.302-2.302 14.698-2.931 22.006-.555 6.422.578 13.01-.299 19.397-.906 6.597-4.626 12.926-5.404 19.433-.277 2.313.275 4.794.538 7.139.485 4.343.627 8.697.435 13.035-.307 6.915-1.762 13.87-3.038 20.702-.978 5.239-2.58 10.813-2.515 16.158v.098c.021 1.888.043 3.819.391 5.666.221 1.172.992 2.345 1.22 3.89.206 1.399-.183 2.692-.191 3.19-.024 1.46.613 3.032.964 4.498.477 2.001.768 4.642-.09 6.555-.885 1.969-3.358 2.63-5.22 2.921-1.351.213-2.91 1.428-3.624 2.488-.712 1.058-1.055 2.686-2.121 3.646-1.173 1.055-2.891 1.54-4.061 2.526-.37.314-1.205 1.764-1.841 2.257-1.495 1.159-3.195 1.7-4.997 2.022-1.51.269-4.226-.157-4.412-2.126-1.234.629-3.736 1.018-4.213-.773-.858.272-1.775-.637-1.346-1.5-.64.12-1.228-.493-.842-1.54-.618-.075-.637-1.239.08-1.892-.141-.016-.647-.507.07-1.575.516-.77 2.232-1.785 2.73-2.182 1.149-.914 2.244-2.031 3.478-2.865 1.937-1.311 5.012-2.75 6.137-4.922 1.676-3.235 5.05-6.387 5.942-9.371 1.002-3.352-.986-8.684-1.559-12.679-2.07-14.458-4.97-29.607-5.183-44.02-.096-6.574 2.279-13.105 2.68-19.577.206-3.302-.282-6.739-.138-10.107.158-3.664.488-7.621-.277-11.184-2.025-9.435-3.853-19.18-4.727-28.89-1.162-12.926-2.286-26.231-1.577-39.112.89-16.172 5.585-23.457 7.138-33.383 1.549-9.878 2.534-21.432 1.391-25.807-1.718-6.577-3.405-16.916-3.36-20.348-.671 4.76-1.543 16.388-1.958 19.796-1.098 8.988-2.105 15.25-3.893 22.495C16.343-3.519 15.35.433 12.881 9.077c-.634 2.222-.775 6.38-.186 8.511.5 1.815 3.909 7.373 4.2 9.63.279 2.166-.315 4.76.124 6.784.163.757.437 2.428.187 3.307-.25.877.437 3.45.125 4.061-.312.61-.376 1.013-1.687.813-1.67-.253-2.73-3.67-2.872-5.348-.112-1.351-.008-2.875-.187-4.248-.104-.791-1.188-1.814-1.375-1.814-.186 0-2.065 2.694-1.998 3.23.33 2.701.309 6.43 1.31 8.182.782 1.367 3.75 2.737 4.621 4.554.555 1.154-.01 2.876-.186 2.865-2.308-.133-6.944-3.14-9.18-5.042-2.526-2.15-5.097-8.367-5.62-11.908-.7-4.751 1.154-8.106 1.125-13.017-.01-1.708-.315-3.57-.437-5.284-.107-1.51.378-3.12.445-4.623.309-6.912.242-10.294.407-17.448.176-7.605-.314-10.907.898-18.285.57-3.472 1.948-6.992 2.61-10.44 1.976-10.32.966-36.304.977-47.005.008-7.072 1.29-15.237 5.22-21.221 2.753-4.192 7.925-6.667 12.721-7.733a266.97 266.97 0 0 0 11.405-3.55c3.238-1.089 10.728-2.622 12.018-5.494 1.22-2.724 1.004-5.937.907-9.327l-.057-.061c-2.524-2.707-4.392-6.304-5.154-8.985-2.16-.16-1.726-3.941-2.035-4.9-.31-.962-2.716-6.065-1.49-7.323.594-.61 1.215-.104 1.215-.104s-1.202-10.141 1.093-16.094c1.793-4.653 7.335-11.04 17.314-11.04H59.361c9.977 0 15.523 6.387 17.316 11.04 2.294 5.953 1.1 16.174 1.1 16.174s.72-.735 1.37-.032c.96 1.034-1.346 6.419-1.655 7.379-.309.962.125 4.743-2.036 4.9-.663 2.34-2.03 6.131-4.332 8.476-.14.143-.285.284-.433.421l-.004.152c-.098 3.63-.171 6.326 1.161 9.324 1.295 2.92 9.042 4.418 12.314 5.494a274.067 274.067 0 0 0 11.703 3.552c4.796 1.069 9.969 3.544 12.721 7.733 3.933 5.985 5.212 14.152 5.22 21.222.011 10.7-.999 36.681.978 47.004.658 3.451 2.039 6.971 2.609 10.44 1.215 7.379.722 11.485.898 19.09.165 7.157.098 7.722.408 14.634Z"/><path fill="#EAEAEA" d="m24.396-54.726-.6-.008 1.194.091-.594-.083Zm.173-1.098.59.11.42-2.28-1.473 1.79.463.38Zm-.173 1.098.6.009a4.89 4.89 0 0 1 .04-.631.965.965 0 0 1 .031-.143c.01-.03.005 0-.035.049l-.463-.382-.463-.38a1.047 1.047 0 0 0-.18.344 2.128 2.128 0 0 0-.075.331c-.035.225-.05.496-.055.795l.6.008Zm.173-1.098-.59-.108c-.058.315-.118.697-.177 1.124l.594.082.594.083c.058-.416.116-.78.17-1.072l-.59-.108Zm94.575 68.17-1.197-.086v.001l1.197.086Zm-.445-4.623 1.198-.053-1.198.053Zm-.408-14.634 1.2-.028-1.2.028ZM117.393-26l-1.184.195 1.184-.195Zm-2.609-10.44 1.179-.225-1.179.225Zm-.978-47.004 1.2-.002-1.2.002Zm-5.22-21.222-1.003.659 1.003-.659ZM95.865-112.4l-.324 1.156.031.009.032.007.261-1.172Zm-11.703-3.552-.375 1.14.375-1.14Zm-12.314-5.494 1.097-.487v-.001l-1.097.488Zm-24.301 0 1.094.491-1.094-.491Zm-12.018 5.494-.383-1.137.383 1.137Zm-11.405 3.55.26 1.171.037-.008.035-.01-.332-1.153Zm-12.72 7.733 1.002.658-1.003-.658Zm-5.22 21.22h-1.2 1.2Zm-.979 47.006 1.179.225-1.179-.225Zm-2.609 10.44 1.185.194-1.185-.194ZM1.698-7.718l-1.2-.028 1.2.028ZM1.291 9.73.092 9.676l1.199.054Zm-.445 4.623-1.197.085 1.197-.085Zm.437 5.284 1.2-.007-1.2.007ZM.158 32.654l1.187-.175-1.187.175Zm5.62 11.908L5 45.476l.778-.914Zm9.18 5.042.072-1.198h-.003l-.07 1.198Zm.186-2.865-1.082.52 1.082-.52Zm-4.62-4.553 1.042-.596-1.042.595Zm-1.311-8.184 1.191-.145v-.003l-1.191.148Zm3.373-1.415 1.19-.155-1.19.155Zm.187 4.248-1.196.099v.001l1.196-.1Zm2.872 5.348.181-1.187-.18 1.187Zm1.687-.813 1.069.546-1.069-.546Zm-.125-4.06 1.154.329v-.001l-1.154-.329Zm-.187-3.308 1.174-.252-.001-.002-1.173.254Zm-.125-6.784-1.19.153 1.19-.153Zm-4.2-9.63 1.157-.32-1.156.32Zm.187-8.511-1.154-.33 1.154.33Zm5.662-21.512 1.165.288-1.165-.288Zm3.894-22.495 1.19.146-1.19-.146Zm1.958-19.796 1.2.016-2.388-.183 1.188.167Zm3.36 20.348 1.161-.304-1.16.304Zm-1.39 25.807-1.186-.186 1.185.186Zm-7.14 33.383-1.197-.066 1.198.066Zm1.578 39.112-1.195.107 1.195-.107Zm4.727 28.89-1.173.252 1.173-.252Zm.277 11.184-1.198-.052v.001l1.198.051Zm.139 10.107 1.198.074-1.198-.074Zm-2.68 19.577-1.2.018 1.2-.018Zm5.182 44.02-1.188.17v.001l1.188-.171Zm1.559 12.679 1.15.344v-.001l-1.15-.343Zm-5.942 9.371L23 199.2v.001l1.066.551Zm-6.137 4.922.672.994-.672-.994Zm-3.477 2.865-.748-.939.748.939Zm-2.732 2.182-.996-.669.996.669Zm-.069 1.575.808.887 1.956-1.782-2.629-.298-.135 1.193Zm-.08 1.892 1.126.415.526-1.425-1.508-.182-.144 1.192Zm.842 1.54 1.075.534 1.072-2.158-2.368.444.221 1.18Zm1.346 1.5 1.16-.309-.324-1.215-1.199.38.363 1.144Zm4.213.773 1.194-.113L19 215.13l-1.573.802.545 1.069Zm4.412 2.126.21 1.182.002-.001-.212-1.181Zm4.997-2.022-.735-.949.735.949Zm1.84-2.257-.773-.918-.003.003.777.915Zm4.062-2.526.803.892-.803-.892Zm2.12-3.646-.995-.67v.001l.996.669Zm3.625-2.488-.185-1.186h-.002l.187 1.186Zm5.22-2.921 1.095.492v-.001l-1.095-.491Zm.09-6.555 1.168-.278v-.002l-1.168.28Zm-.964-4.498 1.2.02v-.001l-1.2-.019Zm.192-3.19 1.187-.174v-.002l-1.187.176Zm-1.22-3.89 1.179-.222-1.18.222Zm-.391-5.666-1.2.013 1.2-.013Zm-.001-.098 1.2-.013v-.001l-1.2.014Zm2.515-16.158-1.18-.221v.001l1.18.22Zm3.038-20.702 1.199.053-1.2-.053Zm-.435-13.035 1.193-.134v-.001l-1.193.135Zm-.538-7.139 1.192.143v-.001l-1.192-.142Zm5.404-19.433 1.189.163-1.189-.163Zm.298-19.397 1.196.104-1.196-.104ZM55.169 61.5l-1.186-.186 1.186.186Zm.024-.153-1.186-.186 1.186.186Zm2.326-12.801 1.17.266-1.17-.266Zm1.78-8.218-.797-.897-.002.002.799.895Zm.61.075-.021-1.2h-.013l.034 1.2Zm.664-.101-.769.922.005.003.764-.925Zm1.803 8.244-1.17.265 1.17-.265Zm2.327 12.801 1.185-.186-1.185.186Zm2.955 22.16-1.195.106 1.195-.107Zm.298 19.396 1.19-.164-1.19.164Zm5.404 19.433-1.191.142v.001l1.191-.143Zm-.538 7.139-1.192-.134 1.192.134Zm-.434 13.035-1.2.053 1.2-.053Zm3.037 20.702 1.18-.22v-.001l-1.18.221Zm2.516 16.158 1.2.015-1.2-.015Zm-.002.184-1.2-.015 1.2.015Zm-.39 5.58-1.18-.222 1.18.222Zm-1.22 3.89-1.187-.175v.001l1.187.174Zm.192 3.19-1.2.019v.001l1.2-.02Zm-.965 4.498-1.17-.268v.001l1.17.267Zm.09 6.555 1.078-.529-.001-.001-1.076.53Zm5.22 2.921.19-1.185-.001-.001-.188 1.186Zm3.625 2.488-.998.668.002.002.996-.67Zm2.12 3.646-.802.892.803-.892Zm4.062 2.526-.774.917v.001l.774-.918Zm1.84 2.257-.736.947.003.002.734-.949Zm4.997 2.022-.178 1.187.178-1.187Zm4.413-2.126.548-1.068-1.57-.807-.172 1.758 1.194.117Zm4.213-.773.362-1.144-1.19-.377-.33 1.204 1.158.317Zm1.345-1.5.221-1.18-2.367-.444 1.072 2.158 1.074-.534Zm.842-1.54-.143-1.192-1.508.182.526 1.425 1.125-.415Zm-.08-1.892-.135-1.193-2.629.298 1.956 1.782.808-.887Zm-.069-1.575.997-.669h-.001l-.996.669Zm-2.731-2.182.748-.939-.002-.001-.746.94Zm-3.478-2.865-.672.994h.001l.671-.994Zm-6.136-4.922 1.051-.578v-.001l-1.051.579Zm-5.943-9.371 1.151-.34v-.001l-1.15.341Zm1.56-12.679 1.187.171v-.001l-1.188-.17Zm5.182-44.02 1.2.016-1.2-.016Zm-2.68-19.577-1.198.074v.001l1.198-.075Zm.138-10.107-1.2.046 1.2-.046Zm.277-11.184-1.173-.252 1.173.252Zm4.727-28.89-1.195-.108 1.195.108Zm1.578-39.112 1.199-.026-1.199.026ZM93.528-8.571l1.184-.194-1.184.194Zm-1.39-25.807-1.185-.194 1.184.194Zm1.947-21.704 1.17-.264-2.36.419 1.19-.155Zm3.477 21.152 1.192-.139-1.192.14Zm3.893 23.3 1.167-.282-1.167.282Zm6.065 20.707-1.156.321 1.156-.321Zm.187 6.5 1.153.33.001-.001-1.154-.33Zm-2.041 5.038.977.697-.977-.697Zm-2.561 7.005-1.19-.153v.001l1.19.152Zm-.125 6.785 1.172.256v-.002l-1.172-.254Zm-.312 7.367 1.069-.545-1.069.546Zm1.687.816.448 1.113.003-.001-.451-1.112Zm2.872-5.348-1.196-.096 1.196.096Zm.187-4.248-1.19-.156v.002l1.19.154Zm3.373 1.415-1.191-.148v.002l1.191.146Zm-1.311 8.184-1.036-.605h-.001l1.037.605Zm-4.62 4.553-1.082-.519h-.001l1.083.52Zm.186 2.865.055 1.199.014-.001-.069-1.198Zm9.18-5.042-.777-.914h-.001l.778.914Zm5.62-11.908-1.187-.175h-.001l1.188.175Zm-1.125-15.428 1.2.007v-.007h-1.2Zm-40.94-169.697-1.192-.139-.407 3.49 2.457-2.512-.858-.839Zm-1.1-16.174 1.12-.432-1.12.432Zm-34.652 0-1.12-.432 1.12.432Zm-1.092 16.094-.758.93 2.299 1.875-.35-2.946-1.191.141Zm-1.215.104.86.838v-.001l-.86-.837Zm1.49 7.323-1.143.367v.001l1.143-.368Zm2.035 4.9 1.154-.328-.229-.807-.836-.062-.089 1.197Zm5.154 8.985.878-.817v-.001l-.878.818Zm22.727-.509-.857-.84.857.84Zm4.332-8.476-.087-1.197-.838.061-.23.809 1.155.327Zm2.036-4.9-1.142-.368v.001l1.142.367Zm1.655-7.379-.881.815.001.001.88-.816Zm-30.693 21.325 1.2-.035-.014-.462-.32-.334-.866.831Zm22.237-.149-.817-.879-.37.343-.013.504 1.2.032Zm-.004.152 1.2.032-1.2-.032Zm48.457 143.117 1.196.086c.065-.899-.049-1.793-.166-2.579-.124-.828-.247-1.514-.277-2.184l-1.198.053-1.199.054c.037.832.191 1.703.3 2.433.116.772.191 1.438.147 2.05l1.197.087Zm-.445-4.624 1.198-.053c-.308-6.895-.241-7.432-.406-14.609l-1.2.028-1.2.028c.165 7.138.099 7.73.409 14.66l1.199-.054Zm-.408-14.634 1.2-.028c-.173-7.474.319-11.768-.914-19.257l-1.184.195-1.184.195c1.197 7.268.703 11.187.882 18.923l1.2-.028ZM117.393-26l1.184-.194c-.298-1.813-.805-3.623-1.302-5.362-.503-1.763-.995-3.448-1.312-5.109l-1.179.225-1.179.225c.342 1.79.869 3.59 1.363 5.318.5 1.75.968 3.435 1.241 5.092l1.184-.195Zm-2.609-10.44 1.179-.225c-.964-5.03-1.209-13.988-1.205-23.135.002-4.552.065-9.117.127-13.219.063-4.095.124-7.739.121-10.427l-1.2.002h-1.2c.003 2.664-.058 6.28-.12 10.389a893.153 893.153 0 0 0-.128 13.254c-.004 9.1.234 18.293 1.248 23.587l1.178-.226Zm-.978-47.004 1.2-.002c-.008-7.165-1.296-15.609-5.417-21.879l-1.003.659-1.003.659c3.746 5.7 5.015 13.59 5.023 20.564l1.2-.001Zm-5.22-21.222 1.003-.659c-2.997-4.56-8.522-7.144-13.463-8.245l-.261 1.171-.26 1.172c4.651 1.036 9.47 3.403 11.978 7.22l1.003-.659ZM95.865-112.4l.324-1.155c-3.91-1.096-7.8-2.269-11.652-3.537l-.375 1.14-.375 1.14a276.74 276.74 0 0 0 11.754 3.568l.324-1.156Zm-11.703-3.552.375-1.14c-.852-.28-1.991-.586-3.174-.917-1.204-.337-2.489-.708-3.704-1.132-1.223-.426-2.33-.89-3.19-1.399-.888-.526-1.353-1.007-1.524-1.393l-1.097.487-1.097.486c.477 1.075 1.467 1.876 2.496 2.486 1.06.626 2.337 1.152 3.622 1.6 1.291.45 2.638.838 3.847 1.176 1.23.344 2.287.628 3.07.886l.376-1.14Zm-36.615-5.494-1.095-.492c-.172.384-.63.86-1.493 1.382-.836.505-1.91.969-3.097 1.397-1.182.425-2.431.8-3.605 1.141-1.154.335-2.27.646-3.11.929l.382 1.137.383 1.138c.778-.262 1.813-.551 3.014-.9 1.181-.342 2.492-.735 3.749-1.187 1.25-.451 2.494-.977 3.526-1.601 1.005-.608 1.968-1.4 2.44-2.453l-1.094-.491Zm-12.018 5.494-.383-1.137a264.518 264.518 0 0 1-11.353 3.533l.331 1.154.332 1.153a267.971 267.971 0 0 0 11.456-3.565l-.383-1.138Zm-11.405 3.55-.26-1.172c-4.942 1.098-10.467 3.683-13.464 8.246l1.003.659 1.003.658c2.509-3.82 7.327-6.186 11.979-7.22l-.26-1.171Zm-12.72 7.733-1.004-.659c-4.117 6.27-5.409 14.71-5.417 21.879h1.2l1.2.002c.008-6.975 1.28-14.864 5.023-20.564l-1.003-.658Zm-5.22 21.22h-1.2c-.004 2.688.058 6.331.12 10.427.062 4.102.126 8.668.128 13.22.004 9.147-.242 18.105-1.205 23.133l1.178.226 1.179.225c1.014-5.292 1.252-14.485 1.248-23.585a903.084 903.084 0 0 0-.128-13.255c-.063-4.109-.124-7.726-.12-10.389l-1.2-.001Zm-.979 47.006-1.178-.226c-.319 1.66-.81 3.344-1.314 5.107-.497 1.74-1.003 3.55-1.3 5.364l1.183.195 1.185.194c.272-1.658.74-3.343 1.24-5.094.493-1.727 1.02-3.527 1.363-5.315l-1.179-.225Zm-2.609 10.44-1.184-.195C.182-18.709.672-15.225.5-7.746l1.2.028 1.2.027c.178-7.73-.313-10.85.882-18.118l-1.185-.194ZM1.698-7.718l-1.2-.028C.334-.549.4 2.778.093 9.676l1.199.054 1.199.053c.31-6.926.244-10.361.408-17.474l-1.2-.027ZM1.291 9.73.092 9.677c-.03.67-.152 1.357-.276 2.184-.117.785-.23 1.679-.167 2.576l1.197-.084 1.197-.084c-.043-.614.032-1.28.147-2.053.11-.73.263-1.6.3-2.433l-1.2-.053Zm-.445 4.623-1.197.086c.063.882.174 1.814.264 2.682.092.887.165 1.731.17 2.524l1.2-.008 1.2-.007c-.006-.916-.09-1.857-.183-2.757-.095-.919-.198-1.774-.257-2.606l-1.197.086Zm.437 5.284-1.2.007c.014 2.317-.413 4.25-.795 6.347-.378 2.075-.697 4.26-.317 6.838l1.187-.175 1.187-.175c-.32-2.174-.063-4.041.304-6.059.364-1.997.85-4.195.834-6.79l-1.2.007ZM.158 32.654l-1.187.175c.282 1.913 1.098 4.463 2.152 6.795 1.04 2.299 2.402 4.597 3.877 5.852l.778-.914.778-.913c-1.051-.895-2.237-2.78-3.246-5.013-.994-2.2-1.724-4.53-1.965-6.157l-1.187.175Zm5.62 11.908L5 45.476c1.177 1.002 2.954 2.27 4.737 3.308.893.52 1.809.995 2.667 1.352.837.348 1.707.621 2.485.666l.069-1.198.069-1.198c-.376-.022-.951-.174-1.702-.486a20.581 20.581 0 0 1-2.38-1.21c-1.671-.974-3.33-2.16-4.39-3.062l-.777.914Zm9.18 5.042-.073 1.198c.499.03.822-.242.913-.324a1.47 1.47 0 0 0 .25-.296c.092-.144.16-.298.21-.425.103-.266.193-.598.251-.955.111-.679.148-1.685-.283-2.582l-1.082.52-1.081.519c.123.256.154.688.078 1.155a2.532 2.532 0 0 1-.12.475c-.02.051-.02.039.01-.009a.934.934 0 0 1 .161-.186 1.15 1.15 0 0 1 .838-.288l-.072 1.198Zm.186-2.865 1.082-.518c-.578-1.206-1.782-2.167-2.687-2.873-.498-.389-.929-.714-1.3-1.036-.377-.328-.582-.562-.673-.722l-1.042.595-1.042.596c.299.523.758.974 1.184 1.343.433.376.945.764 1.396 1.115.992.775 1.707 1.408 2 2.02l1.082-.52Zm-4.62-4.553 1.042-.596c-.362-.632-.593-1.764-.756-3.27-.079-.723-.137-1.478-.198-2.24a54.122 54.122 0 0 0-.208-2.223l-1.191.145-1.191.146c.079.646.138 1.361.198 2.121.06.75.12 1.544.204 2.31.159 1.472.417 3.08 1.058 4.202l1.042-.596Zm-1.311-8.184 1.19-.148c.02.15-.003.253-.005.266-.006.026-.008.027.002 0 .02-.058.064-.156.136-.297a15.21 15.21 0 0 1 1.225-1.888c.092-.119.155-.194.19-.23.019-.022.007-.007-.028.022a.981.981 0 0 1-.142.098c-.045.025-.26.148-.57.148v-2.4c-.322 0-.551.128-.614.163a1.423 1.423 0 0 0-.205.143c-.083.069-.155.142-.204.196a5.984 5.984 0 0 0-.327.394 17.54 17.54 0 0 0-1.456 2.251 5.04 5.04 0 0 0-.261.58c-.05.136-.169.475-.122.85l1.19-.148Zm1.998-3.23v1.2a1.119 1.119 0 0 1-.421-.082.741.741 0 0 1-.102-.051c-.017-.011-.007-.006.033.027.074.062.185.168.302.303.117.135.219.274.29.4.079.135.086.193.083.175l1.19-.157 1.19-.156c-.1-.766-.605-1.448-.94-1.834a5.205 5.205 0 0 0-.576-.573 2.747 2.747 0 0 0-.309-.226 1.686 1.686 0 0 0-.228-.12 1.318 1.318 0 0 0-.512-.105v1.2Zm1.375 1.815-1.19.155c.08.61.098 1.273.109 1.994.01.698.012 1.47.072 2.198l1.196-.1 1.196-.098c-.052-.624-.054-1.289-.065-2.034-.01-.721-.029-1.508-.128-2.27l-1.19.155Zm.187 4.248-1.196.1c.082.976.417 2.382.964 3.6.274.611.626 1.23 1.07 1.735.438.497 1.053.978 1.855 1.1l.18-1.187.18-1.187c-.034-.005-.179-.046-.414-.313-.23-.26-.464-.647-.682-1.13-.437-.974-.702-2.116-.761-2.819l-1.196.1Zm2.872 5.348-.18 1.186c.702.107 1.458.13 2.083-.303.308-.214.493-.479.61-.678.09-.155.206-.4.243-.472l-1.069-.546-1.069-.546-.115.232a2.01 2.01 0 0 1-.063.121c-.024.042.004-.02.094-.083.096-.066.164-.066.122-.062a2.119 2.119 0 0 1-.475-.035l-.18 1.186Zm1.687-.813 1.069.546c.143-.28.184-.568.2-.754.019-.207.016-.421.006-.62-.019-.392-.074-.844-.123-1.248-.053-.426-.1-.812-.122-1.144a3.994 3.994 0 0 1-.01-.395c.004-.108.015-.137.009-.116l-1.154-.33-1.154-.33c-.125.439-.11.95-.086 1.327.027.415.085.876.134 1.28.052.425.095.785.11 1.074.006.143.004.237 0 .29-.007.076-.013.002.053-.126l1.068.546Zm-.125-4.06 1.154.328c.19-.67.161-1.5.102-2.139a15.608 15.608 0 0 0-.27-1.749l-1.173.252-1.173.252c.074.346.175.904.227 1.466.056.607.038 1.051-.021 1.26l1.154.33Zm-.187-3.308 1.173-.254c-.18-.834-.156-1.832-.097-3.025.057-1.126.146-2.444-.01-3.659l-1.19.154-1.191.154c.123.951.055 2.014-.006 3.231-.057 1.152-.11 2.462.149 3.654l1.172-.255Zm-.125-6.784 1.19-.153c-.095-.741-.422-1.643-.794-2.518a52.036 52.036 0 0 0-1.344-2.847c-.485-.969-.954-1.88-1.345-2.684-.402-.825-.658-1.417-.75-1.747l-1.156.319-1.157.32c.159.576.516 1.36.904 2.157.398.82.893 1.78 1.358 2.71.474.946.929 1.88 1.281 2.71.365.86.573 1.499.623 1.886l1.19-.153Zm-4.2-9.63 1.157-.32c-.248-.898-.362-2.333-.322-3.87.04-1.529.227-3.014.506-3.992l-1.154-.329-1.154-.33c-.355 1.245-.555 2.95-.597 4.588-.043 1.63.067 3.339.408 4.572l1.157-.319Zm.187-8.511 1.154.33c2.473-8.664 3.47-12.632 5.673-21.554l-1.165-.288-1.165-.287C15.18-3.812 14.19.123 11.73 8.748l1.153.329Zm5.662-21.512 1.165.288c1.805-7.31 2.819-13.624 3.92-22.637l-1.191-.146-1.192-.145c-1.094 8.963-2.095 15.172-3.867 22.353l1.165.287Zm3.894-22.495 1.19.145c.212-1.729.536-5.52.888-9.429.355-3.938.738-8 1.068-10.344l-1.188-.168-1.188-.167c-.341 2.416-.73 6.546-1.082 10.464-.356 3.949-.675 7.675-.88 9.354l1.192.145Zm1.958-19.796-1.2-.016c-.024 1.836.405 5.377 1.035 9.206.634 3.86 1.493 8.127 2.364 11.461l1.161-.303 1.161-.304c-.847-3.242-1.691-7.432-2.318-11.244-.632-3.843-1.024-7.188-1.003-8.784l-1.2-.016Zm3.36 20.348-1.16.303c.515 1.976.575 5.775.276 10.46-.294 4.627-.922 9.947-1.692 14.858l1.185.186 1.186.186c.778-4.967 1.417-10.362 1.717-15.077.296-4.655.276-8.82-.35-11.22l-1.162.304Zm-1.39 25.807-1.186-.186c-.761 4.862-2.28 9.025-3.785 14.2-1.496 5.14-2.915 11.099-3.366 19.303l1.198.066 1.198.066c.438-7.968 1.812-13.739 3.274-18.765 1.453-4.992 3.06-9.434 3.852-14.498l-1.186-.186Zm-7.14 33.383-1.197-.066c-.715 12.98.419 26.369 1.58 39.285l1.195-.107L22 63.816c-1.162-12.936-2.277-26.157-1.574-38.938l-1.198-.066Zm1.578 39.112-1.195.107c.88 9.783 2.72 19.583 4.749 29.035l1.173-.252 1.174-.252c-2.022-9.419-3.838-19.108-4.706-28.746l-1.195.108Zm4.727 28.89-1.173.252c.724 3.372.412 7.128.252 10.88l1.198.052 1.2.051c.153-3.576.502-7.734-.303-11.487l-1.174.252Zm.277 11.184-1.198-.051c-.075 1.748.014 3.506.092 5.185.078 1.699.145 3.322.047 4.898l1.198.075 1.198.074c.107-1.725.032-3.472-.046-5.158-.079-1.708-.16-3.352-.092-4.972l-1.199-.051Zm.139 10.107-1.198-.075c-.195 3.139-.868 6.296-1.507 9.597-.632 3.264-1.226 6.649-1.176 10.073l1.2-.018 1.2-.017c-.046-3.151.5-6.318 1.132-9.581.624-3.226 1.34-6.571 1.547-9.905l-1.198-.074Zm-2.68 19.577-1.2.018c.214 14.515 3.135 29.795 5.194 44.172l1.188-.17 1.188-.17c-2.082-14.539-4.96-29.556-5.17-43.868l-1.2.018Zm5.182 44.02-1.188.171c.15 1.05.392 2.173.644 3.288.255 1.131.52 2.249.737 3.353.444 2.256.623 4.16.216 5.523l1.15.344 1.15.343c.594-1.989.28-4.426-.162-6.674-.226-1.147-.503-2.32-.75-3.417-.251-1.113-.473-2.154-.61-3.101l-1.187.17Zm1.559 12.679-1.15-.344c-.376 1.259-1.31 2.632-2.49 4.219-1.127 1.515-2.472 3.216-3.368 4.944l1.066.552 1.065.552c.78-1.506 1.96-2.999 3.162-4.615 1.148-1.543 2.349-3.239 2.865-4.964l-1.15-.344Zm-5.942 9.371L23 199.201c-.42.813-1.264 1.577-2.38 2.347-.545.377-1.12.732-1.698 1.085-.568.347-1.152.7-1.666 1.047l.673.994.673.994c.455-.308.981-.627 1.57-.987a38.264 38.264 0 0 0 1.812-1.158c1.187-.819 2.444-1.86 3.147-3.219l-1.065-.552Zm-6.137 4.922-.672-.994c-.68.46-1.309.988-1.887 1.491-.595.519-1.119.994-1.666 1.429l.748.939.747.938c.602-.478 1.2-1.019 1.747-1.496.565-.492 1.102-.939 1.655-1.313l-.672-.994Zm-3.477 2.865-.748-.939c-.082.065-.24.174-.493.347-.235.161-.526.358-.819.569-.53.381-1.27.944-1.668 1.536l.996.669.997.669c.12-.178.496-.508 1.076-.926.264-.189.527-.368.77-.534.225-.153.469-.32.636-.453l-.747-.938Zm-2.732 2.182-.996-.669c-.473.706-.677 1.425-.534 2.099.07.328.215.608.404.827.093.107.204.208.332.293.107.07.312.186.59.217l.135-1.192.135-1.193c.242.028.401.125.456.161.077.05.13.102.167.144a.56.56 0 0 1 .129.247c.033.158-.065.098.179-.266l-.997-.668Zm-.069 1.575-.808-.887a2.861 2.861 0 0 0-.932 2.025c-.007.348.057.759.28 1.133a1.66 1.66 0 0 0 1.236.812l.144-1.191.144-1.192c.113.014.23.056.335.128.1.07.165.151.202.213.069.115.057.18.058.146a.47.47 0 0 1 .15-.3l-.809-.887Zm-.08 1.892-1.126-.416c-.284.771-.287 1.611.163 2.288a1.974 1.974 0 0 0 2.026.847l-.22-1.179-.222-1.18a.407.407 0 0 1 .22.026.437.437 0 0 1 .195.157c.092.138-.012.149.09-.128l-1.126-.415Zm.842 1.54-1.075-.534c-.474.955-.175 1.929.39 2.531.548.583 1.457.944 2.393.647l-.362-1.144-.363-1.144a.137.137 0 0 1 .078-.003l.006.002-.002-.001.007.011a.17.17 0 0 1 .015.044.235.235 0 0 1 .002.074.176.176 0 0 1-.014.051l-1.075-.534Zm1.346 1.5-1.16.309a2.785 2.785 0 0 0 1.199 1.666c.546.35 1.162.485 1.715.517 1.086.062 2.231-.256 3.004-.65l-.545-1.069-.545-1.069c-.462.235-1.185.425-1.777.392-.286-.017-.463-.081-.558-.142-.069-.044-.132-.105-.174-.263l-1.16.309Zm4.213.773-1.195.113c.155 1.639 1.386 2.52 2.5 2.919 1.109.397 2.38.443 3.318.276l-.21-1.182-.211-1.181c-.573.102-1.415.069-2.088-.172-.668-.24-.888-.557-.92-.886l-1.194.113Zm4.412 2.126.212 1.181c1.897-.339 3.81-.93 5.52-2.255l-.735-.948-.736-.949c-1.28.993-2.767 1.485-4.472 1.79l.211 1.181Zm4.997-2.022.734.949c.482-.374.952-1.016 1.26-1.442.18-.251.32-.452.454-.63.151-.203.197-.242.17-.219l-.777-.915-.777-.915c-.212.18-.41.44-.54.613-.147.197-.323.448-.477.661-.361.5-.627.829-.782.949l.735.949Zm1.84-2.257.774.917c.463-.39 1.052-.695 1.81-1.09.706-.368 1.564-.817 2.28-1.461l-.802-.892-.803-.892c-.456.41-1.043.731-1.783 1.116-.687.358-1.541.788-2.248 1.384l.773.918Zm4.062-2.526.803.892c.723-.652 1.16-1.489 1.477-2.17.357-.764.55-1.272.837-1.698l-.996-.67-.996-.669c-.425.632-.76 1.466-1.019 2.021-.298.638-.567 1.094-.909 1.402l.803.892Zm2.12-3.646.996.671c.263-.391.722-.861 1.276-1.256.56-.401 1.114-.651 1.54-.718l-.187-1.185-.187-1.186c-.925.146-1.827.611-2.562 1.136-.742.53-1.42 1.198-1.87 1.868l.995.67Zm3.625-2.488.185 1.185c.974-.152 2.186-.411 3.298-.928 1.115-.519 2.23-1.347 2.831-2.686l-1.094-.492-1.095-.492c-.283.631-.847 1.118-1.655 1.494-.811.378-1.767.594-2.655.733l.185 1.186Zm5.22-2.921 1.095.491c1.032-2.302.648-5.287.163-7.324l-1.168.278-1.167.278c.469 1.966.666 4.262-.018 5.786l1.095.491Zm.09-6.555 1.167-.28c-.17-.712-.463-1.646-.63-2.277-.192-.729-.31-1.359-.301-1.921l-1.2-.02-1.2-.02c-.015.898.173 1.784.38 2.573.235.887.437 1.471.618 2.225l1.166-.28Zm-.964-4.498 1.2.019c0 .004 0-.02.009-.089.008-.065.02-.145.038-.251.032-.201.08-.478.119-.782.079-.612.138-1.407.013-2.261l-1.187.174-1.188.175c.08.545.048 1.095-.018 1.604-.034.256-.072.483-.109.708-.03.19-.073.456-.077.684l1.2.019Zm.192-3.19 1.187-.176c-.136-.917-.43-1.704-.684-2.348-.27-.688-.46-1.142-.544-1.588l-1.18.222-1.179.222c.137.727.443 1.445.67 2.022.244.622.45 1.194.543 1.822l1.187-.176Zm-1.22-3.89 1.179-.222c-.326-1.726-.35-3.55-.37-5.457l-1.2.013-1.2.013c.02 1.868.04 3.907.411 5.876l1.18-.223Zm-.391-5.666 1.2-.013-.002-.098-1.2.013-1.2.014.002.097 1.2-.013Zm-.001-.098 1.2-.014c-.063-5.188 1.486-10.522 2.495-15.924l-1.18-.22-1.18-.22c-.947 5.075-2.601 10.89-2.535 16.393l1.2-.015Zm2.515-16.158 1.18.22c1.268-6.79 2.745-13.848 3.056-20.869l-1.198-.053-1.2-.053c-.3 6.809-1.733 13.66-3.018 20.534l1.18.221Zm3.038-20.702 1.199.053a85.196 85.196 0 0 0-.441-13.222l-1.193.134-1.192.133c.478 4.281.617 8.572.428 12.849l1.199.053Zm-.435-13.035 1.193-.135c-.068-.606-.155-1.217-.239-1.813-.085-.601-.167-1.187-.233-1.769-.133-1.167-.19-2.259-.067-3.279l-1.192-.143-1.191-.143c-.155 1.293-.075 2.598.065 3.835.07.621.158 1.239.242 1.835.085.601.166 1.179.23 1.746l1.192-.134Zm-.538-7.139 1.192.142c.37-3.099 1.445-6.182 2.593-9.424 1.131-3.194 2.335-6.545 2.808-9.988l-1.189-.163-1.189-.164c-.433 3.155-1.542 6.267-2.692 9.514-1.133 3.198-2.307 6.532-2.714 9.94l1.191.143Zm5.404-19.433 1.189.163c.454-3.306.385-6.642.28-9.887-.105-3.276-.245-6.446.025-9.57l-1.196-.103-1.195-.103c-.285 3.298-.136 6.633-.032 9.853.104 3.251.163 6.402-.26 9.483l1.19.164Zm.298-19.397 1.196.103c.626-7.26 1.777-14.614 2.921-21.924l-1.185-.185-1.186-.186c-1.142 7.295-2.307 14.732-2.941 22.09l1.196.102ZM55.169 61.5l1.185.185.024-.152-1.185-.186-1.186-.186-.024.153 1.186.186Zm.024-.153 1.185.186c.672-4.284 1.36-8.537 2.311-12.72l-1.17-.267-1.17-.266c-.972 4.273-1.67 8.6-2.342 12.881l1.186.186Zm2.326-12.801 1.17.265c.096-.422.193-1.123.295-1.867.105-.775.223-1.659.36-2.524.138-.87.292-1.687.463-2.325.086-.32.169-.566.245-.74.087-.202.119-.197.046-.131l-.8-.896-.798-.895c-.321.286-.52.67-.65.965a7.84 7.84 0 0 0-.36 1.075c-.205.761-.374 1.676-.516 2.57-.143.899-.264 1.814-.368 2.577-.108.792-.19 1.366-.257 1.66l1.17.266Zm1.78-8.218.797.897a1.17 1.17 0 0 1-.706.293c-.107.005-.185-.007-.195-.008-.02-.003-.028-.006-.012-.002l.068.015c.061.014.16.036.272.052.114.017.258.032.42.027l-.034-1.2-.034-1.199c.023 0 .014.004-.096-.021-.023-.005-.133-.032-.225-.046a1.434 1.434 0 0 0-.29-.015c-.098.005-.447.03-.762.31l.797.897Zm.61.075.021 1.2c.159-.003.301-.022.413-.042a4.41 4.41 0 0 0 .277-.06l.077-.018c.019-.005.017-.004.003-.002a1.124 1.124 0 0 1-.42-.019 1.172 1.172 0 0 1-.476-.239l.769-.921.768-.922a1.229 1.229 0 0 0-.79-.286c-.122 0-.224.016-.269.024-.089.016-.195.043-.229.051a2.144 2.144 0 0 1-.128.029l-.037.005.021 1.2Zm.664-.101-.764.925c-.088-.072-.061-.092.027.104.075.168.16.409.246.727.174.634.328 1.45.467 2.324.138.87.255 1.759.361 2.54.101.751.199 1.46.296 1.89l1.17-.266 1.17-.265c-.067-.3-.15-.88-.258-1.68-.103-.769-.225-1.691-.368-2.595-.143-.9-.314-1.819-.523-2.582a7.485 7.485 0 0 0-.373-1.078c-.133-.296-.344-.686-.688-.97l-.763.926Zm1.803 8.244-1.17.266c.95 4.184 1.64 8.438 2.311 12.721l1.186-.186 1.185-.186c-.671-4.281-1.372-8.608-2.341-12.88l-1.17.265Zm2.327 12.801-1.186.186c1.152 7.353 2.289 14.734 2.946 22.08l1.195-.107 1.195-.106c-.665-7.438-1.814-14.893-2.965-22.239l-1.185.186Zm2.955 22.16-1.195.107c.28 3.134.14 6.301.032 9.573-.108 3.24-.183 6.57.273 9.879l1.188-.163 1.19-.164c-.425-3.082-.36-6.224-.252-9.473.106-3.217.256-6.553-.04-9.867l-1.196.107Zm.298 19.396-1.189.163c.473 3.443 1.677 6.794 2.808 9.988 1.148 3.242 2.223 6.325 2.594 9.424l1.191-.142 1.192-.143c-.408-3.408-1.582-6.742-2.715-9.94-1.15-3.247-2.259-6.359-2.692-9.514l-1.189.164Zm5.404 19.433-1.191.143c.122 1.02.065 2.111-.067 3.278-.066.582-.149 1.168-.234 1.769-.084.596-.17 1.208-.239 1.815l1.193.134 1.192.134a61.93 61.93 0 0 1 .23-1.747c.085-.596.172-1.215.242-1.835.14-1.237.22-2.541.066-3.834l-1.192.143Zm-.538 7.139-1.192-.134a84.839 84.839 0 0 0-.441 13.222l1.199-.053 1.198-.053a82.449 82.449 0 0 1 .428-12.849l-1.192-.133Zm-.434 13.035-1.2.053c.312 7.021 1.787 14.076 3.058 20.87l1.18-.221 1.179-.221c-1.287-6.876-2.717-13.725-3.019-20.534l-1.198.053Zm3.037 20.702-1.18.22c1.01 5.402 2.558 10.736 2.496 15.924l1.2.014 1.2.015c.066-5.503-1.589-11.318-2.536-16.393l-1.18.22Zm2.516 16.158-1.2-.015-.002.184 1.2.015 1.2.015.002-.184-1.2-.015Zm-.002.184-1.2-.015c-.023 1.88-.049 3.674-.37 5.373l1.18.222 1.18.223c.365-1.94.387-3.948.41-5.789l-1.2-.014Zm-.39 5.58-1.18-.222c-.083.446-.273.899-.544 1.587-.253.644-.547 1.431-.683 2.35l1.187.175 1.187.176c.093-.629.298-1.201.543-1.822.227-.578.532-1.295.67-2.022l-1.18-.222Zm-1.22 3.89-1.188-.174c-.125.854-.066 1.65.014 2.262.039.304.086.582.119.783.017.105.03.185.037.25.01.069.01.092.01.088l1.2-.019 1.2-.019c-.004-.228-.047-.493-.078-.683-.036-.225-.075-.452-.108-.708-.066-.509-.099-1.06-.019-1.605l-1.187-.175Zm.192 3.19-1.2.02c.009.559-.113 1.188-.308 1.922-.175.657-.458 1.55-.627 2.288l1.17.268 1.17.268c.164-.716.376-1.343.606-2.206.21-.787.403-1.678.388-2.58l-1.2.02Zm-.965 4.498-1.17-.267c-.24 1.055-.463 2.316-.5 3.579-.036 1.249.107 2.601.684 3.774l1.077-.531 1.076-.53c-.334-.678-.468-1.586-.438-2.644.03-1.044.218-2.136.44-3.114l-1.169-.267Zm.09 6.555-1.076.529c.62 1.263 1.675 2.077 2.772 2.606 1.09.526 2.291.805 3.337.971l.188-1.185.188-1.186c-.938-.148-1.88-.381-2.67-.762-.785-.378-1.35-.868-1.662-1.502l-1.076.529Zm5.22 2.921-.188 1.185c.43.068.984.318 1.544.718.554.395 1.01.863 1.271 1.253l.998-.668.997-.667c-.451-.674-1.13-1.342-1.871-1.872-.736-.525-1.638-.987-2.561-1.134l-.19 1.185Zm3.625 2.488-.996.67c.286.426.48.934.836 1.698.318.681.754 1.518 1.478 2.17l.803-.892.802-.892c-.341-.308-.61-.764-.909-1.402-.259-.555-.594-1.389-1.019-2.021l-.995.669Zm2.12 3.646-.802.892c.716.644 1.574 1.093 2.28 1.461.758.395 1.348.7 1.81 1.09l.774-.917.773-.918c-.707-.596-1.562-1.026-2.248-1.384-.74-.385-1.328-.706-1.784-1.116l-.802.892Zm4.062 2.526-.773.918c-.03-.025.015.012.166.215.133.177.274.379.454.629.308.426.776 1.068 1.257 1.442l.737-.947.737-.947c-.156-.122-.423-.453-.785-.953-.154-.213-.33-.464-.478-.662-.13-.172-.328-.433-.543-.613l-.772.918Zm1.84 2.257-.733.949c1.696 1.312 3.647 1.974 5.552 2.26l.178-1.187.178-1.187c-1.612-.241-3.147-.784-4.44-1.784l-.734.949Zm4.997 2.022-.177 1.187c.891.133 2.145.114 3.258-.266 1.131-.387 2.362-1.26 2.526-2.93l-1.194-.117-1.194-.117c-.037.368-.263.67-.914.893-.67.229-1.521.254-2.127.163l-.178 1.187Zm4.413-2.126-.549 1.067c.781.401 1.925.718 3.011.653.553-.034 1.166-.171 1.71-.521.57-.366.998-.924 1.198-1.655l-1.157-.317-1.158-.317c-.044.16-.109.224-.18.27-.097.062-.273.127-.557.144-.587.035-1.306-.153-1.77-.392l-.548 1.068Zm4.213-.773-.363 1.144c.937.297 1.846-.064 2.393-.647.565-.602.865-1.576.39-2.531l-1.075.534-1.074.534a.176.176 0 0 1-.015-.051.258.258 0 0 1 .002-.074c.004-.021.011-.035.015-.044a.046.046 0 0 1 .007-.011l-.001.001.006-.002a.136.136 0 0 1 .077.003l-.362 1.144Zm1.345-1.5-.221 1.179c.773.145 1.57-.16 2.026-.847.45-.677.447-1.517.163-2.288l-1.126.416-1.125.415c.102.277-.002.266.09.128a.435.435 0 0 1 .194-.157.408.408 0 0 1 .22-.026l-.221 1.18Zm.842-1.54.144 1.191a1.661 1.661 0 0 0 1.236-.812c.223-.374.288-.785.281-1.133a2.86 2.86 0 0 0-.933-2.025l-.808.887-.808.887c.103.093.148.23.149.3.001.034-.01-.031.058-.146a.753.753 0 0 1 .538-.341l.143 1.192Zm-.08-1.892.135 1.192c.278-.031.483-.147.59-.217.129-.085.24-.186.333-.293.189-.219.334-.499.404-.827.142-.674-.061-1.393-.534-2.099l-.997.669-.996.668c.243.364.145.424.179.266a.558.558 0 0 1 .128-.247.827.827 0 0 1 .167-.144 1.05 1.05 0 0 1 .456-.161l.135 1.193Zm-.069-1.575.996-.669c-.397-.592-1.137-1.155-1.668-1.536-.293-.211-.584-.408-.819-.569a10.402 10.402 0 0 1-.492-.347l-.748.939-.748.938c.168.133.412.3.636.453.243.166.507.345.77.534.581.418.957.748 1.077.926l.996-.669Zm-2.731-2.182.746-.94c-.547-.435-1.071-.91-1.667-1.428-.577-.504-1.205-1.032-1.885-1.491l-.672.994-.671.994c.551.373 1.086.82 1.652 1.312.548.477 1.147 1.019 1.751 1.498l.746-.939Zm-3.478-2.865.672-.994c-.523-.354-1.109-.714-1.676-1.067-.578-.36-1.15-.72-1.69-1.099-1.105-.774-1.95-1.537-2.39-2.34l-1.052.578-1.052.579c.718 1.304 1.943 2.327 3.117 3.149.599.419 1.22.81 1.798 1.17.59.367 1.126.696 1.601 1.018l.672-.994Zm-6.136-4.922 1.05-.579c-.904-1.642-2.247-3.34-3.366-4.864-1.173-1.599-2.103-3.009-2.476-4.268l-1.15.34-1.151.34c.507 1.717 1.692 3.441 2.843 5.008 1.204 1.641 2.393 3.14 3.199 4.603l1.05-.58Zm-5.943-9.371 1.151-.341c-.4-1.354-.22-3.265.223-5.528.217-1.107.48-2.229.734-3.36.25-1.115.49-2.236.64-3.279l-1.189-.171-1.188-.17c-.135.942-.356 1.982-.605 3.095-.247 1.099-.522 2.274-.747 3.424-.44 2.251-.754 4.693-.17 6.67l1.151-.34Zm1.56-12.679 1.187.17c2.059-14.367 5-29.645 5.195-44.174l-1.2-.016-1.2-.016c-.193 14.324-3.088 29.333-5.17 43.866l1.187.17Zm5.182-44.02 1.2.016c.046-3.429-.547-6.812-1.177-10.073-.638-3.299-1.31-6.453-1.506-9.595l-1.198.075-1.197.075c.208 3.335.921 6.677 1.544 9.9.63 3.261 1.176 6.428 1.134 9.586l1.2.016Zm-2.68-19.577 1.197-.075c-.098-1.577-.034-3.203.043-4.903.076-1.678.165-3.435.097-5.176l-1.199.047-1.2.046c.064 1.619-.019 3.266-.096 4.975-.076 1.689-.147 3.436-.04 5.16l1.198-.074Zm.138-10.107 1.2-.047c-.146-3.747-.474-7.51.25-10.885l-1.173-.252-1.173-.252c-.805 3.755-.44 7.933-.303 11.482l1.199-.046Zm.277-11.184 1.174.252c2.028-9.454 3.87-19.25 4.748-29.035l-1.195-.107-1.195-.107c-.865 9.64-2.683 19.323-4.705 28.745l1.173.252Zm4.727-28.89 1.195.107c1.165-12.96 1.858-26.298 1.582-39.245l-1.199.026-1.2.025c.273 12.832-.414 26.076-1.573 38.98l1.195.107Zm1.578-39.112 1.199-.026c-.198-9.25-1.602-15.239-3.166-20.164C97.12-.354 95.5-3.937 94.712-8.765l-1.184.194-1.184.193c.826 5.056 2.58 9.042 4.068 13.726 1.504 4.734 2.862 10.495 3.055 19.49l1.2-.026ZM93.528-8.571l1.184-.194c-.795-4.866-1.326-10.132-1.564-14.744-.24-4.642-.179-8.527.173-10.675l-1.184-.194-1.184-.194c-.397 2.419-.443 6.523-.202 11.187.242 4.692.782 10.047 1.593 15.008l1.184-.194Zm-1.39-25.807 1.183.194c.609-3.71 1.24-8.086 1.648-12.081.405-3.957.606-7.663.306-9.972l-1.19.155-1.19.155c.26 1.998.093 5.447-.313 9.418-.402 3.931-1.025 8.255-1.629 11.937l1.184.194Zm1.947-21.704-1.17.264c.4 1.775 3.015 17.25 3.456 21.027l1.191-.139 1.192-.139c-.449-3.848-3.077-19.407-3.498-21.277l-1.171.264Zm3.477 21.152-1.191.139c1.056 9.08 1.748 14.456 3.918 23.443l1.166-.282 1.167-.282c-2.136-8.845-2.814-14.107-3.868-23.157l-1.192.14Zm3.893 23.3-1.166.282c.935 3.874 1.864 6.932 2.853 10.084.989 3.152 2.035 6.388 3.222 10.662l1.156-.321 1.157-.321c-1.201-4.322-2.261-7.604-3.245-10.739-.984-3.134-1.893-6.132-2.81-9.929l-1.167.282Zm6.065 20.707-1.156.321c.576 2.075.722 3.985.189 5.848l1.154.33 1.154.33c.693-2.426.465-4.812-.185-7.15l-1.156.321Zm.187 6.5-1.154-.331c-.541 1.89-.896 3.312-1.865 4.673l.978.696.977.696c1.259-1.768 1.714-3.645 2.217-5.405l-1.153-.33Zm-2.041 5.038-.977-.697c-1.477 2.071-2.466 5.155-2.774 7.55l1.19.152 1.19.154c.273-2.12 1.16-4.797 2.348-6.462l-.977-.697Zm-2.561 7.005-1.19-.152c-.156 1.216-.066 2.532-.01 3.658.059 1.192.083 2.19-.098 3.024l1.173.255 1.172.254c.259-1.191.207-2.5.15-3.652-.061-1.218-.129-2.28-.007-3.235l-1.19-.152Zm-.125 6.785-1.173-.256c-.09.414-.209 1.071-.271 1.753-.059.639-.088 1.469.103 2.138l1.154-.328 1.154-.33c-.06-.21-.077-.654-.022-1.26.052-.562.152-1.12.227-1.461l-1.172-.256Zm-.187 3.306-1.154.33c-.006-.02.005.009.009.117.003.1.001.231-.01.395-.022.333-.069.718-.122 1.144-.049.404-.104.856-.123 1.248-.01.198-.013.413.006.62.016.186.057.473.2.753l1.069-.545 1.069-.547c.065.128.059.202.052.127a2.49 2.49 0 0 1 .001-.29c.014-.289.057-.65.109-1.074.049-.403.107-.864.134-1.28.024-.377.039-.888-.086-1.326l-1.154.328Zm-.125 4.062-1.069.545c.273.534.724.979 1.246 1.25.521.27 1.238.423 1.958.133l-.448-1.113-.449-1.113c.105-.042.134.008.044-.038a.522.522 0 0 1-.213-.21l-1.069.546Zm1.687.815.451 1.112c1.251-.508 2.102-1.749 2.632-2.854.553-1.154.902-2.467.985-3.51l-1.196-.096-1.196-.096c-.058.729-.322 1.756-.758 2.665-.459.959-.974 1.506-1.37 1.667l.452 1.112Zm2.872-5.348 1.196.096c.059-.728.061-1.5.071-2.196.011-.72.03-1.382.11-1.993l-1.19-.155-1.19-.154c-.099.76-.119 1.545-.129 2.266-.011.745-.013 1.411-.064 2.04l1.196.096Zm.187-4.248 1.189.157c-.002.017.005-.04.083-.177.072-.124.174-.264.29-.398.117-.135.228-.241.302-.303.039-.033.049-.037.031-.026a1.008 1.008 0 0 1-.241.098 1.114 1.114 0 0 1-.279.035v-2.4a1.32 1.32 0 0 0-.51.105 1.69 1.69 0 0 0-.229.119c-.114.07-.22.151-.311.227a5.142 5.142 0 0 0-.577.574c-.335.386-.838 1.068-.938 1.833l1.19.156Zm1.375-1.814v1.2c-.311 0-.525-.123-.57-.148-.075-.043-.125-.084-.142-.097-.035-.03-.047-.045-.027-.024.034.037.097.112.189.231a15.05 15.05 0 0 1 1.224 1.888c.073.141.116.24.137.296.01.029.008.027.002.001-.002-.013-.024-.116-.006-.266l1.191.148 1.191.149c.047-.376-.073-.715-.122-.85a4.975 4.975 0 0 0-.261-.58 17.608 17.608 0 0 0-1.456-2.251 6.175 6.175 0 0 0-.327-.395 2.215 2.215 0 0 0-.204-.196 1.494 1.494 0 0 0-.205-.142c-.063-.036-.292-.164-.614-.164v1.2Zm1.998 3.23-1.191-.147a52.408 52.408 0 0 0-.206 2.219c-.059.763-.115 1.518-.192 2.242-.16 1.508-.393 2.637-.758 3.264l1.036.605 1.037.604c.657-1.126.915-2.746 1.072-4.22.081-.766.14-1.56.198-2.31.059-.759.116-1.47.195-2.111l-1.191-.147Zm-1.311 8.182-1.037-.604c-.098.17-.31.408-.689.737-.372.323-.802.648-1.298 1.036-.903.706-2.1 1.663-2.678 2.866l1.082.52 1.081.519c.294-.612 1.005-1.242 1.993-2.014.449-.351.96-.738 1.394-1.115.427-.37.885-.82 1.189-1.34l-1.037-.605Zm-4.62 4.554-1.083-.518c-.429.896-.391 1.902-.28 2.58.058.356.147.687.25.952.048.126.116.28.207.422.043.068.122.182.242.293.086.079.405.358.905.335l-.055-1.2-.055-1.198c.478-.022.773.245.831.298a.937.937 0 0 1 .156.182c.029.046.028.057.008.005a2.616 2.616 0 0 1-.121-.478c-.077-.468-.045-.9.077-1.154l-1.082-.519Zm.186 2.865.069 1.198c.781-.045 1.652-.318 2.491-.667.86-.357 1.775-.832 2.667-1.353 1.782-1.039 3.556-2.306 4.731-3.306l-.778-.914-.778-.914c-1.058.9-2.714 2.088-4.383 3.061-.833.486-1.649.906-2.38 1.21-.751.312-1.328.465-1.708.487l.069 1.198Zm9.18-5.042.777.915c1.477-1.256 2.841-3.554 3.88-5.853 1.054-2.332 1.869-4.882 2.15-6.796l-1.187-.174-1.188-.174c-.238 1.627-.968 3.957-1.962 6.156-1.009 2.232-2.195 4.117-3.247 5.012l.777.914Zm5.62-11.908 1.187.175c.378-2.565.062-5.352-.309-7.996-.381-2.71-.817-5.259-.803-7.6l-1.2-.007-1.2-.008c-.015 2.567.462 5.36.826 7.949.373 2.656.634 5.128.312 7.312l1.187.175Zm-1.125-15.428h1.2c0-.79.071-1.632.161-2.518.089-.866.199-1.8.262-2.68l-1.196-.086-1.197-.086c-.06.833-.162 1.686-.256 2.608-.092.9-.174 1.843-.174 2.762h1.2Zm-40.94-169.697 1.192.139v-.003l.001-.007.003-.025a15.084 15.084 0 0 0 .046-.439 62.801 62.801 0 0 0 .269-5.516c.011-3.323-.26-7.558-1.492-10.755l-1.12.432-1.119.431c1.062 2.756 1.342 6.609 1.33 9.884a60.29 60.29 0 0 1-.257 5.293 30.885 30.885 0 0 1-.044.422v.005l1.191.139Zm-1.1-16.174 1.12-.432c-1.936-5.022-7.87-11.808-18.435-11.808v2.4c9.387 0 14.544 5.988 16.195 10.271l1.12-.431Zm-17.315-11.04v-1.2h-.01v2.4h.01v-1.2Zm-.01 0v-1.2h-.011v2.4h.01v-1.2Zm-.011 0v-1.2c-10.57 0-16.5 6.786-18.435 11.808l1.12.432 1.12.431c1.65-4.283 6.805-10.271 16.194-10.271v-1.2Zm-17.316 11.04-1.12-.432c-1.232 3.197-1.5 7.411-1.486 10.716a61.846 61.846 0 0 0 .273 5.48c.014.149.026.265.035.345l.01.092.003.024.001.007v.003l1.192-.141 1.192-.141v-.005l-.003-.019a50.697 50.697 0 0 1-.144-1.6 59.43 59.43 0 0 1-.16-4.055c-.013-3.254.265-7.087 1.327-9.843l-1.12-.431Zm-1.092 16.094c.758-.93.758-.93.757-.931l-.003-.002a.16.16 0 0 0-.004-.003l-.01-.008-.022-.017a2.285 2.285 0 0 0-.846-.388c-.584-.128-1.326-.021-1.947.616l.86.837.86.837c.012-.012-.022.025-.106.048a.39.39 0 0 1-.18.007.178.178 0 0 1-.053-.019l-.02-.013-.018-.013a.176.176 0 0 0-.012-.009l-.007-.006-.004-.003-.002-.001v-.001s-.001-.001.757-.931Zm-1.215.104-.86-.837c-.704.722-.725 1.77-.663 2.48.069.799.294 1.682.547 2.488.257.818.56 1.617.814 2.259.272.689.448 1.109.509 1.3l1.143-.367 1.142-.367c-.093-.29-.334-.869-.562-1.447a31.37 31.37 0 0 1-.756-2.096c-.234-.746-.4-1.435-.446-1.977-.055-.63.083-.692-.009-.598l-.86-.838Zm1.49 7.323-1.143.368c0-.001.017.062.038.245.018.168.034.371.052.623.036.482.082 1.114.196 1.731.111.604.307 1.315.715 1.912.443.648 1.133 1.147 2.089 1.218l.088-1.197.089-1.197c-.125-.009-.191-.043-.285-.179-.127-.187-.247-.511-.336-.992-.086-.468-.125-.971-.162-1.473-.018-.24-.036-.491-.061-.714a3.732 3.732 0 0 0-.138-.713l-1.142.368Zm2.035 4.9-1.154.328c.812 2.856 2.772 6.623 5.43 9.475l.878-.818.878-.818c-2.39-2.563-4.165-5.99-4.877-8.495l-1.155.328Zm27.88 8.476.857.841c2.53-2.577 3.961-6.628 4.63-8.99l-1.154-.327-1.154-.327c-.657 2.317-1.96 5.849-4.035 7.963l.857.84Zm4.333-8.476.087 1.197c.956-.07 1.647-.568 2.09-1.216.408-.597.605-1.308.716-1.912.114-.617.16-1.249.195-1.731.02-.253.034-.456.053-.624a1.99 1.99 0 0 1 .038-.247l-1.143-.367-1.142-.367c-.078.24-.115.505-.138.713-.025.223-.043.475-.061.714-.037.502-.076 1.006-.162 1.474-.09.481-.209.805-.337.992-.092.135-.158.168-.283.177l.087 1.197Zm2.036-4.9 1.142.368c.067-.206.246-.662.506-1.361.248-.663.544-1.483.801-2.313.254-.819.486-1.697.586-2.465a4.93 4.93 0 0 0 .03-1.169c-.042-.361-.16-.855-.53-1.255l-.88.816-.88.816c-.13-.141-.11-.241-.095-.106.013.115.011.308-.025.59-.073.563-.257 1.286-.498 2.062a41.785 41.785 0 0 1-.757 2.185c-.229.613-.454 1.19-.542 1.464l1.142.368Zm1.655-7.379.881-.814a2.085 2.085 0 0 0-1.147-.657c-.425-.08-.8-.004-1.076.097a2.452 2.452 0 0 0-.85.533l-.02.019-.009.008-.003.004-.002.001v.001c-.001.001-.002.001.856.84s.858.84.857.84v.001l-.002.001-.003.003-.005.005-.007.007-.007.007.008-.006c.018-.014.026-.015.014-.011a.392.392 0 0 1-.196.009c-.122-.023-.178-.082-.17-.073l.88-.815Zm-30.75 21.264-.879.818.07.073.866-.83.866-.831-.045-.047-.878.817Zm.057.061-1.2.034c.101 3.512.28 6.389-.802 8.802l1.095.491 1.095.491c1.36-3.035 1.105-6.584 1.011-9.853l-1.2.035Zm22.237-.149.816.88a14.3 14.3 0 0 0 .473-.46l-.856-.841-.857-.84c-.127.13-.258.257-.393.382l.817.879Zm1.157 9.476 1.097-.488c-1.206-2.713-1.158-5.14-1.059-8.804l-1.2-.032-1.199-.033c-.097 3.597-.194 6.562 1.265 9.844l1.096-.487Zm-1.161-9.324 1.2.032.003-.151-1.2-.033-1.199-.032-.004.151 1.2.033Z" mask="url(#c)"/><path fill="#C7C7C7" d="M28.609 117.23c-8.008 27.899 3.541 57.16 3.541 68.048 0 2.409 2.262 2.659 2.385 0 .458-9.819 1.047-50.999-5.926-68.048ZM44.623 123.173c-13.432 15.5-6.06 30.398-7.026 62.105-.064 2.127 2.39 2.124 2.39 0 0-9.561 7.735-48.158 4.636-62.105ZM91.26 117.23c8.008 27.899-3.54 57.16-3.54 68.048 0 2.409-2.263 2.659-2.386 0-.46-9.819-1.05-50.999 5.926-68.048ZM75.243 123.173c13.433 15.5 6.06 30.398 7.027 62.105.064 2.127-2.39 2.124-2.39 0 0-9.561-7.736-48.158-4.637-62.105ZM58.77-65.616v10.182c-5.691.333-12.54 2.387-16.806 4.85v-14.304l16.806-.728ZM58.77-52.86c-6.187.338-12.873 2.491-16.806 4.937v10.424l16.806-.423V-52.86ZM58.77-35.322H41.964v10.827H58.77v-10.826ZM42.13-21.9c2.083.07 16.64 0 16.64 0v52.038c-2.438-.12-6.55-1.764-8.583-3.227-.125-.362-8.058-28.73-8.058-48.81ZM27.508-4.262c2.686 6.18 13.247 23.07 19.724 28.752-7.085-21.507-5.603-43.733-9.118-49.04-2.108-3.185-5.577-3.891-8.271-7.624-.395 10.05-1.687 22.865-2.335 27.912ZM29.84-61.856c2.153 6.259 10.035 7.797 10.035 7.797v6.65s-6.049-1.388-8.202-4.108c-1.697-2.145-2.42-5.45-1.833-10.34ZM30.735-71.977c2.154 6.26 9.143 7.179 9.143 7.179v7.869s-5.148-1.144-7.35-4.205c-1.707-2.374-1.96-5.015-1.793-10.843ZM28.23-53.127c2.284 6.984 11.648 8.442 11.648 8.442v6.65s-5.737-1.257-8.202-3.706c-1.783-1.772-3.984-5.609-3.445-11.386ZM27.423-44.53c2.686 7.79 12.455 9.382 12.455 9.382v6.248s-5.873-1.663-8.202-4.109c-1.535-1.61-3.581-4.404-4.253-11.522ZM61.096-65.616v10.182c5.692.333 12.54 2.387 16.806 4.85v-14.304l-16.806-.728ZM61.096-52.86c6.188.338 12.873 2.491 16.806 4.937v10.424l-16.806-.423V-52.86ZM77.902-35.322H61.096v10.827h16.806v-10.826ZM77.737-21.9c-2.084.07-16.64 0-16.64 0v52.038c2.437-.12 6.549-1.764 8.582-3.227.125-.362 8.058-28.73 8.058-48.81ZM92.36-4.262c-2.685 6.18-13.245 23.07-19.723 28.752 7.085-21.507 5.604-43.733 9.118-49.04 2.108-3.185 5.578-3.891 8.272-7.624.391 10.05 1.686 22.865 2.334 27.912ZM90.026-61.856c-2.152 6.259-10.035 7.797-10.035 7.797v6.65s6.05-1.388 8.202-4.108c1.698-2.145 2.42-5.45 1.834-10.34ZM89.131-71.977c-2.153 6.26-9.142 7.179-9.142 7.179v7.869s5.148-1.144 7.349-4.205c1.708-2.374 1.961-5.015 1.793-10.843ZM91.639-53.127c-2.284 6.984-11.648 8.442-11.648 8.442v6.65s5.737-1.257 8.202-3.706c1.78-1.772 3.981-5.609 3.446-11.386ZM92.443-44.53c-2.686 7.79-12.454 9.382-12.454 9.382v6.248s5.873-1.663 8.202-4.109c1.537-1.61 3.58-4.404 4.252-11.522ZM7.979-42.348c8.418 7.674-3.168 23.782-3.488 54.023-.403.384-1.1.253-1.495.035-.74-19.308.032-36.234 4.983-54.058ZM22.38-44.422c-.158 5.514-.558 9.042-1.418 14.022-2.132 12.31-7.659 29.583-9.846 42.496-.438.219-1.354.043-1.62-.333 3.669-18.797 5.02-34.942 8.473-46.101 1.434-4.642 3.307-6.62 4.41-10.084Z"/><path fill="#C7C7C7" d="M19.863-41.98c-.77 1.47-2.235 4.212-3.259 7.937-2.752 10.017-5.98 28.552-8.82 45.678-.437.35-1.135.219-1.494-.07 2.787-20.9 4.007-38.267 6.51-46.527 1.1-3.632 5.097-5.052 7.063-7.019ZM111.888-42.348c-8.418 7.674 3.168 23.782 3.485 54.023.403.384 1.101.253 1.495.035.744-19.308-.029-36.234-4.98-54.058ZM97.488-44.422c.157 5.514.556 9.042 1.417 14.022 2.132 12.31 7.658 29.583 9.846 42.496.437.219 1.354.043 1.62-.333-3.669-18.797-5.02-34.942-8.473-46.101-1.434-4.642-3.307-6.62-4.41-10.084Z"/><path fill="#C7C7C7" d="M100.003-41.98c.771 1.47 2.236 4.212 3.259 7.937 2.753 10.017 5.98 28.552 8.82 45.678.437.35 1.136.219 1.495-.07-2.787-20.9-4.007-38.267-6.51-46.527-1.1-3.632-5.097-5.052-7.064-7.019Z"/><path fill="#3179FF" d="M25.824 2.166C33.437 16.43 50.427 43.86 51.6 71.894c.468 11.21-.139 42.894-11.333 48.82 6.584-13.606 8.817-30.695 7.021-45.867C44.874 54.438 30.972 26.67 25.113 5.014c.024-.874.197-2.246.711-2.848Z"/><path fill="#3179FF" d="M23.959 9.973c4 11.804 12.348 31.752 14.911 51.665.877 6.805-1.383 17.2-3.221 23.393-1.402 4.378-4.4 3.496-4.85 1.015-2.124-10.112-6.952-16.96-8.332-26.308-2.353-15.916-1.524-35.29 1.492-49.765ZM43.328 29.233c4.024 3.576 9.614 5.924 11.178 9.726 1.813 4.405.448 17.662-1.116 22.133-2.014-14.421-7.829-25.488-10.062-31.859ZM41.522 61.105s9.705 38.624-2.15 37.61c-9.401-.808 2.15-16.658 2.15-37.61ZM21.644 67.284c-1.269-6.979 8.647 19.812 8.966 25.341.25 4.325-3.13 9.945-3.325 6.627-.427-7.269-4.567-23.372-5.641-31.968ZM94.042 2.166C86.43 16.43 69.44 43.86 68.267 71.894c-.47 11.21.138 42.894 11.333 48.82-6.585-13.606-8.818-30.695-7.022-45.867C74.992 54.438 88.894 26.67 94.753 5.014c-.023-.874-.197-2.246-.71-2.848Z"/><path fill="#3179FF" d="M95.91 9.973c-4 11.804-12.348 31.752-14.909 51.665-.876 6.805 1.383 17.2 3.222 23.393 1.401 4.378 4.4 3.496 4.85 1.015 2.123-10.112 6.952-16.96 8.332-26.308 2.347-15.916 1.519-35.29-1.495-49.765ZM76.54 29.233c-4.023 3.576-9.613 5.924-11.178 9.726-1.811 4.405-.447 17.662 1.117 22.133 2.014-14.421 7.826-25.488 10.062-31.859ZM78.345 61.105s-9.705 38.624 2.15 37.61c9.401-.808-2.15-16.658-2.15-37.61ZM98.223 67.284c1.269-6.979-8.647 19.812-8.966 25.341-.251 4.325 3.13 9.945 3.325 6.627.426-7.269 4.567-23.372 5.641-31.968Z"/></g><defs><clipPath id="a"><path fill="#fff" d="M0 0h120v120H0z"/></clipPath><pattern id="b" width="1" height="1" patternContentUnits="objectBoundingBox"><use xlink:href="#d" transform="scale(.0008 .00024)"/></pattern></defs></svg>